# Blender 3.4.1
# www.blender.org
mtllib Air_Conditioner_B.mtl
o Air_Conditioner_B
v 0.472554 -0.037664 -0.027170
v 0.472554 -0.033804 -0.031742
v -0.472554 -0.033804 -0.031742
v -0.472554 -0.037664 -0.027170
v 0.472554 0.033780 0.033164
v 0.472554 0.037641 0.028593
v -0.472554 0.037641 0.028593
v -0.472554 0.033780 0.033164
vn -0.0000 -0.7640 -0.6452
vn -0.0000 0.7640 0.6452
vn -0.0000 -0.6452 0.7640
vn -1.0000 -0.0000 -0.0000
vn 1.0000 -0.0000 -0.0000
vn -0.0000 0.6452 -0.7640
vt 0.112091 0.792971
vt 0.112091 0.792971
vt 0.112091 0.805282
vt 0.112091 0.805282
vt 0.113646 0.792971
vt 0.113646 0.792971
vt 0.113646 0.805282
vt 0.113646 0.805282
s 0
usemtl Palette
f 4/4/1 3/3/1 2/2/1 1/1/1
f 8/8/2 5/5/2 6/6/2 7/7/2
f 8/8/3 4/4/3 1/1/3 5/5/3
f 8/8/4 7/7/4 3/3/4 4/4/4
f 6/6/5 5/5/5 1/1/5 2/2/5
f 3/3/6 7/7/6 6/6/6 2/2/6
