# Blender 3.4.1
# www.blender.org
mtllib Bed__2__Ac.mtl
o Bed_(2)_Ac
v 1.037813 0.122909 -1.092272
v 0.920268 0.122909 -1.219428
v 1.022065 0.122909 -1.155850
v 0.979041 0.122909 -1.202392
v 0.920268 0.122909 1.219428
v 1.037813 0.122909 1.092272
v 0.979041 0.122909 1.202392
v 1.022065 0.122909 1.155850
v 0.915810 -0.122909 -1.219428
v 1.033355 -0.122909 -1.092272
v 0.974583 -0.122909 -1.202392
v 1.017607 -0.122909 -1.155850
v 1.033355 -0.122909 1.092272
v 0.915810 -0.122909 1.219428
v 1.017607 -0.122909 1.155850
v 0.974583 -0.122909 1.202392
v -1.037813 0.122909 -1.092272
v -0.920268 0.122909 -1.219428
v -1.022065 0.122909 -1.155850
v -0.979041 0.122909 -1.202392
v -0.920268 0.122909 1.219428
v -1.037813 0.122909 1.092272
v -0.979041 0.122909 1.202392
v -1.022065 0.122909 1.155850
v -0.915810 -0.122909 -1.219428
v -1.033355 -0.122909 -1.092272
v -0.974583 -0.122909 -1.202392
v -1.017607 -0.122909 -1.155850
v -1.033355 -0.122909 1.092272
v -0.915810 -0.122909 1.219428
v -1.017607 -0.122909 1.155850
v -0.974583 -0.122909 1.202392
vn -0.0000 -1.0000 -0.0000
vn -0.1422 -0.0026 0.9898
vn -0.1390 -0.0025 0.9903
vn 0.1390 -0.0025 0.9903
vn 0.1422 -0.0026 0.9898
vn 0.9925 -0.0180 0.1209
vn 0.9925 -0.0180 0.1213
vn 0.9925 -0.0180 -0.1213
vn 0.9925 -0.0180 -0.1209
vn 0.8795 -0.0159 -0.4757
vn 0.8807 -0.0160 -0.4733
vn 0.7342 -0.0133 -0.6788
vn 0.2784 -0.0050 -0.9605
vn 0.1390 -0.0025 -0.9903
vn 0.1422 -0.0026 -0.9898
vn 0.2784 -0.0050 0.9605
vn 0.7342 -0.0133 0.6788
vn 0.8795 -0.0159 0.4757
vn 0.8807 -0.0160 0.4733
vn -0.1390 -0.0025 -0.9903
vn -0.1422 -0.0026 -0.9898
vn -0.9925 -0.0180 0.1209
vn -0.9925 -0.0180 -0.1209
vn -0.9925 -0.0180 -0.1213
vn -0.9925 -0.0180 0.1213
vn -0.8807 -0.0160 -0.4733
vn -0.8795 -0.0159 -0.4757
vn -0.7342 -0.0133 -0.6788
vn -0.2784 -0.0050 -0.9605
vn -0.2784 -0.0050 0.9605
vn -0.7342 -0.0133 0.6788
vn -0.8807 -0.0160 0.4733
vn -0.8795 -0.0159 0.4757
vn -0.0000 1.0000 -0.0000
vt 0.040382 0.870445
vt 0.041746 0.869789
vt 0.040443 0.870117
vt 0.041064 0.869818
vt 0.041746 0.884955
vt 0.040382 0.884299
vt 0.041064 0.884925
vt 0.040443 0.884627
vt 0.041757 0.869789
vt 0.040382 0.870445
vt 0.041070 0.869818
vt 0.040443 0.870117
vt 0.040382 0.884299
vt 0.041757 0.884955
vt 0.040443 0.884627
vt 0.041070 0.884925
vt 0.040382 0.870445
vt 0.041746 0.869789
vt 0.040443 0.870117
vt 0.041064 0.869818
vt 0.041746 0.884955
vt 0.040382 0.884299
vt 0.041064 0.884925
vt 0.040443 0.884627
vt 0.041757 0.869789
vt 0.040382 0.870445
vt 0.041070 0.869818
vt 0.040443 0.870117
vt 0.040382 0.884299
vt 0.041757 0.884955
vt 0.040443 0.884627
vt 0.041070 0.884925
s 1
usemtl Palette
f 26/26/1 28/28/1 27/27/1 25/25/1 9/9/1 11/11/1 12/12/1 10/10/1 13/13/1 15/15/1 16/16/1 14/14/1 30/30/1 32/32/1 31/31/1 29/29/1
f 21/21/2 30/30/3 14/14/4 5/5/5
f 6/6/6 13/13/7 10/10/8 1/1/9
f 1/1/9 10/10/8 12/12/10 3/3/11
f 3/3/11 12/12/10 11/11/12 4/4/12
f 4/4/13 11/11/13 9/9/14 2/2/15
f 5/5/5 14/14/4 16/16/16 7/7/16
f 7/7/17 16/16/17 15/15/18 8/8/19
f 8/8/19 15/15/18 13/13/7 6/6/6
f 9/9/14 25/25/20 18/18/21 2/2/15
f 22/22/22 17/17/23 26/26/24 29/29/25
f 17/17/23 19/19/26 28/28/27 26/26/24
f 19/19/26 20/20/28 27/27/28 28/28/27
f 20/20/29 18/18/21 25/25/20 27/27/29
f 21/21/2 23/23/30 32/32/30 30/30/3
f 23/23/31 24/24/32 31/31/33 32/32/31
f 24/24/32 22/22/22 29/29/25 31/31/33
f 17/17/34 22/22/34 24/24/34 23/23/34 21/21/34 5/5/34 7/7/34 8/8/34 6/6/34 1/1/34 3/3/34 4/4/34 2/2/34 18/18/34 20/20/34 19/19/34
