# Blender 3.4.1
# www.blender.org
mtllib Bed__1__Sheets_Alt.mtl
o Bed_(1)_Sheets_Alt
v 0.597077 -0.294642 0.399580
v 0.635047 -0.129941 0.383171
v 0.598604 -0.269679 0.957553
v 0.597077 -0.277965 0.713259
v 0.635047 -0.129941 0.684916
v 0.636388 -0.129941 0.947783
v 0.411566 0.198726 0.370931
v 0.242077 0.213089 0.351590
v 0.411566 -0.289265 1.273612
v 0.205783 -0.295082 1.263767
v 0.411566 -0.294642 0.389723
v 0.406507 -0.129941 1.296826
v 0.177967 -0.129941 1.287443
v 0.205173 0.015476 0.394491
v 0.400826 0.015476 0.404964
v 0.406507 -0.129941 0.373143
v 0.411566 -0.277965 0.705107
v 0.414969 -0.269679 0.920962
v 0.219963 -0.295082 0.953386
v 0.425746 -0.289265 1.020045
v 0.411566 0.213306 0.672092
v 0.210688 0.228153 0.696534
v 0.412371 0.184392 0.946035
v 0.206595 0.209945 0.950937
v 0.630014 0.055558 0.381051
v 0.549534 0.198101 0.349816
v 0.581516 0.177397 0.358471
v 0.547575 0.160894 1.177617
v 0.629486 0.056042 1.159015
v 0.546408 0.056052 1.272167
v 0.602157 0.139135 1.168859
v 0.590987 0.129455 1.207131
v 0.602967 0.055895 1.235216
v 0.551985 0.139162 1.225980
v 0.624700 0.056014 0.701384
v 0.543693 0.198642 0.681362
v 0.597831 0.139061 0.694053
v 0.543910 0.184392 0.945973
v 0.625218 0.056072 0.948291
v 0.598141 0.139142 0.948314
v 0.519114 -0.289265 1.251405
v 0.603437 -0.289265 1.164475
v 0.572297 -0.289265 1.216906
v 0.536565 -0.129941 1.294165
v 0.640634 -0.129941 1.167695
v 0.613592 -0.129941 1.245763
v 0.209168 0.174997 1.189313
v 0.188450 0.056260 1.280909
v 0.202202 0.139205 1.239652
v 0.406154 0.056260 1.291104
v 0.414921 0.160894 1.198228
v 0.410947 0.139205 1.249606
v 0.000000 0.213089 0.351128
v 0.000000 -0.295082 0.954191
v 0.000000 -0.295082 1.273612
v -0.597077 -0.294642 0.399580
v 0.000000 0.213574 0.680783
v 0.000000 0.015476 0.394921
v -0.635047 -0.129941 0.383171
v 0.000000 0.209945 0.949003
v 0.000000 -0.129941 1.297887
v -0.598604 -0.269679 0.957553
v -0.597077 -0.277965 0.713259
v -0.635047 -0.129941 0.684916
v -0.636388 -0.129941 0.947783
v -0.411566 0.198726 0.370931
v -0.242077 0.213089 0.351590
v -0.411566 -0.289265 1.273612
v -0.205783 -0.295082 1.263767
v -0.411566 -0.294642 0.389723
v -0.406507 -0.129941 1.296826
v -0.177967 -0.129941 1.287443
v -0.205173 0.015476 0.394491
v -0.400826 0.015476 0.404964
v -0.406507 -0.129941 0.373143
v -0.411566 -0.277965 0.705107
v -0.414969 -0.269679 0.920962
v -0.219963 -0.295082 0.953386
v -0.425746 -0.289265 1.020045
v -0.411566 0.213306 0.672092
v -0.210688 0.228153 0.696534
v -0.412371 0.184392 0.946035
v -0.206595 0.209945 0.950937
v 0.000000 0.174997 1.198602
v 0.000000 0.056251 1.290301
v 0.000000 0.139202 1.249371
v -0.630014 0.055558 0.381051
v -0.549534 0.198101 0.349816
v -0.581516 0.177397 0.358471
v -0.547575 0.160894 1.177617
v -0.629486 0.056042 1.159015
v -0.546408 0.056052 1.272167
v -0.602157 0.139135 1.168859
v -0.590987 0.129455 1.207131
v -0.602967 0.055895 1.235216
v -0.551985 0.139162 1.225980
v -0.624700 0.056014 0.701384
v -0.543693 0.198642 0.681362
v -0.597831 0.139061 0.694053
v -0.543910 0.184392 0.945973
v -0.625218 0.056072 0.948291
v -0.598141 0.139142 0.948314
v -0.519114 -0.289265 1.251405
v -0.603437 -0.289265 1.164475
v -0.572297 -0.289265 1.216906
v -0.536565 -0.129941 1.294165
v -0.640634 -0.129941 1.167695
v -0.613592 -0.129941 1.245763
v -0.209168 0.174997 1.189313
v -0.188450 0.056260 1.280909
v -0.202202 0.139205 1.239652
v -0.406154 0.056260 1.291104
v -0.414921 0.160894 1.198228
v -0.410947 0.139205 1.249606
v -0.322211 0.240183 0.676003
v -0.022533 0.243465 0.650625
v -0.319049 0.217420 0.359383
v -0.011694 0.231319 0.358014
v -0.526758 0.219111 0.662412
v -0.538526 0.209888 0.356494
v 0.288227 0.231500 0.674995
v 0.294564 0.233996 0.365233
v 0.561746 0.194133 0.657748
v 0.567653 0.211333 0.363999
v 0.294472 0.181766 0.368586
v 0.288136 0.185982 0.697585
v -0.022624 0.203173 0.673214
v -0.011785 0.189360 0.361367
v -0.322303 0.201022 0.698592
v -0.319141 0.180250 0.362735
v -0.540886 0.176141 0.358922
v -0.530175 0.187945 0.684132
v 0.548061 0.169890 0.676377
v 0.557592 0.190442 0.363771
v 0.605763 0.145938 0.367916
v 0.611276 0.138718 0.662087
v 0.583592 0.139301 0.369365
v 0.585623 0.132502 0.682710
v 0.652325 -0.014789 0.365446
v 0.657839 -0.022010 0.659617
v 0.630154 -0.021427 0.366895
v 0.632185 -0.028226 0.680240
v -0.613897 0.153430 0.356913
v -0.609136 0.156807 0.662820
v -0.587887 0.147619 0.358847
v -0.585491 0.150912 0.684091
v -0.646383 -0.026699 0.358213
v -0.641622 -0.023322 0.664121
v -0.620373 -0.032510 0.360148
v -0.617977 -0.029217 0.685392
vn 0.9983 0.0579 -0.0036
vn -0.0000 -1.0000 -0.0000
vn -0.0438 0.0341 0.9985
vn 0.6774 0.7349 0.0310
vn -0.0026 -0.9986 0.0529
vn 0.9991 0.0410 0.0085
vn 0.9693 -0.2437 -0.0318
vn 0.0780 0.9961 -0.0419
vn 0.9980 0.0594 -0.0197
vn 0.0001 -0.2143 -0.9768
vn 0.9670 -0.2547 -0.0013
vn -0.0313 0.9992 -0.0245
vn 0.9719 -0.2351 0.0064
vn -0.0366 0.9985 0.0414
vn 0.0025 0.9899 0.1418
vn 0.0526 0.9954 0.0797
vn 0.0941 0.9887 0.1168
vn 0.0076 0.9953 0.0966
vn 0.1048 0.9905 0.0890
vn 0.0321 -0.9974 -0.0641
vn -0.0044 -0.9993 0.0360
vn 0.0716 -0.2061 -0.9759
vn 0.0523 -0.1392 0.9889
vn -0.0418 -0.1471 0.9882
vn -0.0595 -0.0508 -0.9969
vn 0.9422 0.0721 0.3272
vn 0.0477 -0.1043 -0.9934
vn 0.1019 -0.2055 0.9733
vn 0.0280 -0.9996 0.0014
vn 0.3884 0.8562 0.3407
vn 0.9087 0.2655 0.3220
vn 0.4942 0.3888 0.7776
vn 0.9383 0.3458 0.0042
vn 0.6938 0.7199 0.0190
vn 0.0645 0.9151 0.3981
vn 0.1335 0.4562 0.8798
vn 0.9511 0.3088 -0.0017
vn 0.5256 0.8500 0.0353
vn 0.9499 0.3121 -0.0182
vn 0.0555 0.9982 -0.0233
vn 0.8826 -0.2570 0.3935
vn 0.5160 -0.2773 0.8105
vn 0.5370 0.0747 0.8403
vn 0.0795 0.0720 0.9942
vn 0.0267 0.8150 0.5789
vn 0.0439 0.4406 0.8966
vn 0.0072 0.8702 0.4926
vn -0.0422 0.4498 0.8922
vn 0.0540 0.0363 0.9979
vn -0.9983 0.0579 -0.0036
vn 0.0438 0.0341 0.9985
vn -0.6774 0.7349 0.0310
vn 0.0026 -0.9986 0.0529
vn -0.9991 0.0410 0.0085
vn -0.9693 -0.2437 -0.0318
vn -0.0780 0.9961 -0.0419
vn -0.9980 0.0594 -0.0197
vn -0.0001 -0.2143 -0.9768
vn -0.9670 -0.2547 -0.0013
vn 0.0313 0.9992 -0.0245
vn -0.9719 -0.2351 0.0064
vn 0.0366 0.9985 0.0414
vn -0.0025 0.9899 0.1418
vn -0.0526 0.9954 0.0797
vn -0.0941 0.9887 0.1168
vn -0.0076 0.9953 0.0966
vn -0.1048 0.9905 0.0890
vn -0.0321 -0.9974 -0.0641
vn 0.0044 -0.9993 0.0360
vn -0.0716 -0.2061 -0.9759
vn -0.0523 -0.1392 0.9889
vn 0.0418 -0.1471 0.9882
vn 0.0595 -0.0508 -0.9969
vn -0.9422 0.0721 0.3272
vn -0.0477 -0.1043 -0.9934
vn -0.1019 -0.2055 0.9733
vn -0.0280 -0.9996 0.0014
vn -0.3884 0.8562 0.3407
vn -0.9087 0.2655 0.3220
vn -0.4942 0.3888 0.7776
vn -0.9383 0.3458 0.0042
vn -0.6938 0.7199 0.0190
vn -0.0645 0.9151 0.3981
vn -0.1335 0.4562 0.8798
vn -0.9511 0.3088 -0.0017
vn -0.5256 0.8500 0.0353
vn -0.9499 0.3121 -0.0182
vn -0.0555 0.9982 -0.0233
vn -0.8826 -0.2570 0.3935
vn -0.5160 -0.2773 0.8105
vn -0.5370 0.0747 0.8403
vn -0.0795 0.0720 0.9942
vn -0.0267 0.8150 0.5789
vn -0.0439 0.4406 0.8966
vn -0.0072 0.8702 0.4926
vn 0.0422 0.4498 0.8922
vn -0.0540 0.0363 0.9979
vn 0.0158 0.9998 -0.0156
vn -0.0653 0.9966 -0.0503
vn -0.0308 0.9978 -0.0579
vn 0.1103 0.9933 0.0347
vn -0.1013 0.5339 0.8394
vn 0.4100 0.4744 0.7790
vn 0.0229 -0.0710 -0.9972
vn 0.0173 -0.0818 -0.9965
vn 0.0690 0.4930 0.8673
vn 0.1114 0.4891 0.8651
vn -0.6015 0.7989 -0.0002
vn -0.0013 -0.0844 -0.9964
vn -0.0123 -0.0410 -0.9991
vn -0.0475 0.4654 0.8838
vn 0.9604 0.2784 -0.0112
vn -0.8095 -0.5860 -0.0353
vn 0.0216 -0.0695 -0.9973
vn 0.8084 0.5881 0.0250
vn 0.2485 -0.9683 -0.0254
vn 0.5946 0.1601 0.7879
vn -0.9605 -0.2783 0.0002
vn -0.0642 -0.0033 -0.9979
vn -0.6468 0.1221 0.7528
vn 0.0519 -0.0788 -0.9955
vn 0.5394 -0.8420 0.0087
vn -0.4178 0.5817 0.6980
vn -0.2352 -0.9719 0.0129
vn -0.9840 0.1776 0.0134
vn 0.0698 -0.0198 -0.9974
vn 0.9841 -0.1775 -0.0055
vt 0.509887 0.004754
vt 0.063651 1.000000
vt 0.684063 0.014206
vt 0.046510 0.922684
vt 0.624217 0.000000
vt 0.320327 0.954257
vt 0.885348 0.011665
vt 0.509887 0.261183
vt 0.207903 0.974505
vt 0.509490 0.148964
vt 0.185471 0.905839
vt 0.305107 0.889031
vt 0.504145 0.078698
vt 0.017937 0.695006
vt 0.004131 0.615662
vt 0.497494 0.140050
vt 0.606292 0.687547
vt 0.999752 0.078901
vt 0.614949 0.589398
vt 0.996353 0.153110
vt 0.424732 0.000000
vt 0.682518 0.080777
vt 0.531932 0.678735
vt 0.536517 0.574416
vt 0.570330 0.153290
vt 0.570656 0.083210
vt 0.623490 0.081968
vt 0.424333 0.144992
vt 0.872219 0.077560
vt 0.425625 0.244167
vt 0.884414 0.148114
vt 0.908467 0.074031
vt 0.156361 0.685354
vt 0.162597 0.593842
vt 0.278805 0.678981
vt 0.276507 0.587842
vt 0.557232 0.000669
vt 0.035360 0.836955
vt 0.503753 0.028384
vt 0.013178 0.760155
vt 0.512095 0.017051
vt 0.018645 0.777389
vt 0.380729 0.730600
vt 0.383775 0.792407
vt 0.443002 0.732949
vt 0.379962 0.755032
vt 0.398210 0.751553
vt 0.418994 0.782896
vt 0.434651 0.763052
vt 0.402538 0.732076
vt 0.182072 0.820027
vt 0.164699 0.745053
vt 0.174206 0.780876
vt 0.282634 0.736731
vt 0.292891 0.805969
vt 0.287612 0.767706
vt 0.991644 0.040183
vt 0.602727 0.740161
vt 0.960255 0.009918
vt 0.416577 0.944391
vt 0.979166 0.021073
vt 0.444350 0.941893
vt 0.602689 0.771317
vt 0.525445 0.736710
vt 0.402550 0.871923
vt 0.439202 0.865655
vt 0.521686 0.779339
vt 0.382377 0.586280
vt 0.451293 0.577544
vt 0.409714 0.583279
vt 0.450254 0.672820
vt 0.387340 0.675210
vt 0.411045 0.673471
vt 0.497572 0.227068
vt 0.000000 0.500928
vt 0.884772 0.227351
vt 1.000000 0.227310
vt 0.614949 0.490604
vt 0.509887 0.517613
vt 0.046863 0.000000
vt 0.682758 0.440514
vt 0.153126 0.498357
vt 0.570319 0.227114
vt 0.032327 0.077848
vt 0.622962 0.454553
vt 0.273279 0.496340
vt 0.536206 0.491926
vt 0.304930 0.037101
vt 0.885212 0.443527
vt 0.509887 0.261183
vt 0.191889 0.020639
vt 0.509490 0.373403
vt 0.171775 0.090019
vt 0.291908 0.102802
vt 0.503623 0.375335
vt 0.011412 0.306356
vt 0.000278 0.386119
vt 0.497364 0.313963
vt 0.599686 0.294062
vt 1.000000 0.376046
vt 0.611633 0.391865
vt 0.996524 0.301623
vt 0.424732 0.522367
vt 0.681092 0.373803
vt 0.525664 0.305365
vt 0.533748 0.409472
vt 0.570413 0.301015
vt 0.570059 0.371269
vt 0.622652 0.372991
vt 0.424333 0.377374
vt 0.872106 0.377363
vt 0.425625 0.278200
vt 0.884489 0.306657
vt 0.908460 0.380952
vt 0.150082 0.311357
vt 0.159387 0.402608
vt 0.272671 0.313616
vt 0.273434 0.404781
vt 0.384642 0.494470
vt 0.452424 0.493332
vt 0.411803 0.494014
vt 0.556152 0.453525
vt 0.024061 0.163902
vt 0.502935 0.425551
vt 0.004470 0.241404
vt 0.511190 0.436913
vt 0.009355 0.223997
vt 0.372805 0.258605
vt 0.373775 0.196731
vt 0.434964 0.254167
vt 0.371219 0.234212
vt 0.389573 0.237077
vt 0.409293 0.205054
vt 0.425607 0.224361
vt 0.394552 0.256397
vt 0.171258 0.175896
vt 0.156412 0.251411
vt 0.164710 0.215290
vt 0.274560 0.255770
vt 0.282487 0.186227
vt 0.278495 0.224646
vt 0.991885 0.414894
vt 0.594357 0.241597
vt 0.960403 0.445262
vt 0.401456 0.043731
vt 0.979371 0.434069
vt 0.429298 0.045296
vt 0.593274 0.210460
vt 0.517234 0.247641
vt 0.389870 0.116629
vt 0.426711 0.121664
vt 0.512047 0.205162
vt 0.379297 0.402789
vt 0.448467 0.409206
vt 0.406719 0.404870
vt 0.444231 0.314019
vt 0.381272 0.313741
vt 0.405022 0.314684
vt 0.149569 0.356675
vt 0.362530 0.283288
vt 0.137410 0.496315
vt 0.359388 0.358069
vt 0.001628 0.357648
vt 0.269400 0.294264
vt 0.000914 0.501033
vt 0.269604 0.360775
vt 0.142867 0.260870
vt 0.351799 0.235346
vt 0.000236 0.255305
vt 0.263031 0.253058
vt 0.148351 0.641280
vt 0.362150 0.436584
vt 0.003978 0.643771
vt 0.267910 0.429721
vt 0.348041 0.513871
vt 0.140067 0.769917
vt 0.259597 0.498186
vt 0.002917 0.771475
vt 0.267910 0.429721
vt 0.362150 0.436584
vt 0.359388 0.358069
vt 0.269604 0.360775
vt 0.362530 0.283288
vt 0.269400 0.294264
vt 0.263031 0.253058
vt 0.003978 0.002823
vt 0.155693 0.000000
vt 0.351799 0.235346
vt 0.348041 0.513871
vt 0.152126 0.997294
vt 0.006084 1.000000
vt 0.259597 0.498186
vt 0.006563 0.806607
vt 0.259597 0.498186
vt 0.143705 0.804423
vt 0.348041 0.513871
vt 0.009385 0.973340
vt 0.259597 0.498186
vt 0.348041 0.513871
vt 0.155451 0.972643
vt 0.008898 0.884565
vt 0.259597 0.498186
vt 0.146040 0.882381
vt 0.348041 0.513871
vt 0.009627 0.895348
vt 0.259597 0.498186
vt 0.348041 0.513871
vt 0.155693 0.894650
vt 0.000000 0.211418
vt 0.263031 0.253058
vt 0.351799 0.235346
vt 0.142584 0.212735
vt 0.263031 0.253058
vt 0.003212 0.028434
vt 0.351799 0.235346
vt 0.154777 0.031009
vt 0.000232 0.126115
vt 0.263031 0.253058
vt 0.351799 0.235346
vt 0.142816 0.127433
vt 0.263031 0.253058
vt 0.001407 0.113718
vt 0.351799 0.235346
vt 0.152972 0.116293
s 0
usemtl Pattern_1
f 5/11/1 35/51/1 39/55/1 6/12/1
f 19/31/2 10/20/2 55/77/2 54/76/2
f 50/71/3 48/69/3 13/24/3 12/23/3
f 36/52/4 37/53/4 27/42/4 26/40/4
f 1/1/5 4/10/5 17/28/5 11/21/5
f 2/4/6 25/38/6 35/51/6 5/11/6
f 6/12/7 45/65/7 42/60/7 3/6/7
f 7/14/8 8/15/8 22/34/8 21/33/8
f 6/12/9 39/55/9 29/44/9 45/65/9
f 8/16/10 14/25/10 58/83/10 53/74/10
f 5/11/11 6/12/11 3/6/11 4/9/11
f 22/34/12 8/15/12 53/75/12 57/82/12
f 5/11/13 4/9/13 1/2/13 2/4/13
f 24/36/14 22/34/14 57/82/14 60/86/14
f 24/36/15 60/86/15 84/119/15 47/68/15
f 36/52/16 21/33/16 23/35/16 38/54/16
f 23/35/17 24/36/17 47/68/17 51/72/17
f 38/54/18 23/35/18 51/72/18 28/43/18
f 21/33/19 22/34/19 24/36/19 23/35/19
f 3/7/20 42/59/20 43/61/20 41/57/20 9/18/20 20/32/20 18/29/20
f 4/10/21 3/8/21 18/30/21 17/28/21
f 7/13/22 15/26/22 14/25/22 8/16/22
f 61/87/23 55/78/23 10/19/23 13/24/23
f 13/24/24 10/19/24 9/17/24 12/23/24
f 15/26/25 7/13/25 26/39/25 27/41/25 25/37/25 2/5/25 16/27/25
f 29/44/26 33/48/26 46/66/26 45/65/26
f 2/5/27 1/3/27 11/22/27 16/27/27
f 12/23/28 9/17/28 41/58/28 44/64/28
f 20/32/29 9/18/29 10/20/29 19/31/29
f 28/43/30 34/50/30 32/47/30 31/46/30
f 29/44/31 31/46/31 32/47/31 33/48/31
f 30/45/32 33/49/32 32/47/32 34/50/32
f 37/53/33 35/51/33 25/38/33 27/42/33
f 38/54/34 40/56/34 37/53/34 36/52/34
f 51/72/35 52/73/35 34/50/35 28/43/35
f 52/73/36 50/71/36 30/45/36 34/50/36
f 40/56/37 39/55/37 35/51/37 37/53/37
f 28/43/38 31/46/38 40/56/38 38/54/38
f 31/46/39 29/44/39 39/55/39 40/56/39
f 36/52/40 26/40/40 7/14/40 21/33/40
f 45/65/41 46/66/41 43/62/41 42/60/41
f 46/67/42 44/64/42 41/58/42 43/63/42
f 33/49/43 30/45/43 44/64/43 46/67/43
f 30/45/44 50/71/44 12/23/44 44/64/44
f 84/119/45 86/121/45 49/70/45 47/68/45
f 86/121/46 85/120/46 48/69/46 49/70/46
f 47/68/47 49/70/47 52/73/47 51/72/47
f 49/70/48 48/69/48 50/71/48 52/73/48
f 48/69/49 85/120/49 61/87/49 13/24/49
f 64/93/50 65/94/50 101/140/50 97/136/50
f 78/113/2 54/76/2 55/77/2 69/102/2
f 112/156/51 71/105/51 72/106/51 110/154/51
f 98/137/52 88/125/52 89/127/52 99/138/52
f 56/79/53 70/103/53 76/110/53 63/92/53
f 59/84/54 64/93/54 97/136/54 87/123/54
f 65/94/55 62/88/55 104/145/55 107/150/55
f 66/96/56 80/115/56 81/116/56 67/97/56
f 65/94/57 107/150/57 91/129/57 101/140/57
f 67/98/58 53/74/58 58/83/58 73/107/58
f 64/93/59 63/91/59 62/88/59 65/94/59
f 81/116/60 57/82/60 53/75/60 67/97/60
f 64/93/61 59/84/61 56/80/61 63/91/61
f 83/118/62 60/86/62 57/82/62 81/116/62
f 83/118/63 109/153/63 84/119/63 60/86/63
f 98/137/64 100/139/64 82/117/64 80/115/64
f 82/117/65 113/157/65 109/153/65 83/118/65
f 100/139/66 90/128/66 113/157/66 82/117/66
f 80/115/67 82/117/67 83/118/67 81/116/67
f 62/89/68 77/111/68 79/114/68 68/100/68 103/142/68 105/146/68 104/144/68
f 63/92/69 76/110/69 77/112/69 62/90/69
f 66/95/70 67/98/70 73/107/70 74/108/70
f 61/87/71 72/106/71 69/101/71 55/78/71
f 72/106/72 71/105/72 68/99/72 69/101/72
f 74/108/73 75/109/73 59/85/73 87/122/73 89/126/73 88/124/73 66/95/73
f 91/129/74 107/150/74 108/151/74 95/133/74
f 59/85/75 75/109/75 70/104/75 56/81/75
f 71/105/76 106/149/76 103/143/76 68/99/76
f 79/114/77 78/113/77 69/102/77 68/100/77
f 90/128/78 93/131/78 94/132/78 96/135/78
f 91/129/79 95/133/79 94/132/79 93/131/79
f 92/130/80 96/135/80 94/132/80 95/134/80
f 99/138/81 89/127/81 87/123/81 97/136/81
f 100/139/82 98/137/82 99/138/82 102/141/82
f 113/157/83 90/128/83 96/135/83 114/158/83
f 114/158/84 96/135/84 92/130/84 112/156/84
f 102/141/85 99/138/85 97/136/85 101/140/85
f 90/128/86 100/139/86 102/141/86 93/131/86
f 93/131/87 102/141/87 101/140/87 91/129/87
f 98/137/88 80/115/88 66/96/88 88/125/88
f 107/150/89 104/145/89 105/147/89 108/151/89
f 108/152/90 105/148/90 103/143/90 106/149/90
f 95/134/91 108/152/91 106/149/91 92/130/91
f 92/130/92 106/149/92 71/105/92 112/156/92
f 84/119/93 109/153/93 111/155/93 86/121/93
f 86/121/94 111/155/94 110/154/94 85/120/94
f 109/153/95 113/157/95 114/158/95 111/155/95
f 111/155/96 114/158/96 112/156/96 110/154/96
f 110/154/97 72/106/97 61/87/97 85/120/97
f 118/165/98 116/161/98 121/171/98 122/173/98
f 119/167/99 115/159/99 117/163/99 120/169/99
f 115/159/100 116/161/100 118/165/100 117/163/100
f 124/178/101 122/173/101 121/171/101 123/176/101
f 119/168/102 132/188/102 129/183/102 115/160/102
f 133/189/103 138/199/103 136/196/103 123/175/103
f 122/174/104 125/179/104 128/182/104 118/166/104
f 117/164/105 130/184/105 131/185/105 120/170/105
f 115/160/106 129/183/106 127/181/106 116/162/106
f 121/172/107 126/180/107 133/189/107 123/175/107
f 120/169/108 143/209/108 144/212/108 119/167/108
f 118/166/109 128/182/109 130/184/109 117/164/109
f 124/177/110 134/192/110 125/179/110 122/174/110
f 116/162/111 127/181/111 126/180/111 121/172/111
f 136/195/112 140/203/112 139/201/112 135/193/112
f 134/191/113 137/197/113 138/200/113 133/190/113
f 124/177/114 135/194/114 137/198/114 134/192/114
f 123/176/115 136/195/115 135/193/115 124/178/115
f 140/203/116 142/208/116 141/205/116 139/201/116
f 138/199/117 142/207/117 140/204/117 136/196/117
f 137/197/118 141/205/118 142/208/118 138/200/118
f 135/194/119 139/202/119 141/206/119 137/198/119
f 144/211/120 148/219/120 150/223/120 146/215/120
f 131/185/121 145/213/121 143/210/121 120/170/121
f 132/187/122 146/216/122 145/214/122 131/186/122
f 119/168/123 144/211/123 146/215/123 132/188/123
f 147/217/124 149/222/124 150/224/124 148/220/124
f 143/209/125 147/217/125 148/220/125 144/212/125
f 145/213/126 149/221/126 147/218/126 143/210/126
f 146/216/127 150/224/127 149/222/127 145/214/127
