# Blender 3.4.1
# www.blender.org
mtllib Bed_Ac__2_.mtl
o Bed_Ac_(2)
v 0.902018 0.035767 -0.032456
v 0.918859 0.017922 -0.014610
v 0.902018 0.035767 0.032456
v 0.918859 0.017922 0.014610
v 0.636240 0.996596 -0.032456
v 0.636240 1.014160 -0.014610
v 0.636240 0.961789 -0.014610
v 0.636240 0.979289 -0.032456
v 0.636240 1.014160 0.014610
v 0.636240 0.996596 0.032456
v 0.636240 0.979289 0.032456
v 0.636240 0.961789 0.014610
v 0.882777 0.152794 -0.032456
v 0.865247 0.170639 -0.014610
v 0.865247 0.170639 0.014610
v 0.882777 0.152794 0.032456
v 0.923782 0.719199 -0.014610
v 0.905937 0.719199 -0.032456
v 0.905937 0.719199 0.032456
v 0.923782 0.719199 0.014610
v 0.882765 0.719199 -0.032456
v 0.865247 0.719199 -0.014610
v 0.865247 0.719199 0.014610
v 0.882765 0.719199 0.032456
v 0.750156 0.977695 -0.014610
v 0.735768 0.964807 -0.032456
v 0.881184 0.813717 -0.032456
v 0.897625 0.823727 -0.014610
v 0.825158 0.905961 -0.032456
v 0.839505 0.918792 -0.014610
v 0.735768 0.964807 0.032456
v 0.750156 0.977695 0.014610
v 0.897625 0.823727 0.014610
v 0.881184 0.813717 0.032456
v 0.839505 0.918792 0.014610
v 0.825158 0.905961 0.032456
v 0.863402 0.802889 0.032456
v 0.846709 0.792725 0.014610
v 0.708325 0.940225 0.014610
v 0.722908 0.953287 0.032456
v 0.812261 0.894427 0.032456
v 0.797713 0.881415 0.014610
v 0.846709 0.792725 -0.014610
v 0.863402 0.802889 -0.032456
v 0.722908 0.953287 -0.032456
v 0.708325 0.940225 -0.014610
v 0.797713 0.881415 -0.014610
v 0.812261 0.894427 -0.032456
v 0.405751 0.170639 -0.014610
v 0.405751 0.170639 0.014610
v 0.667135 0.144781 -0.014610
v 0.667135 0.144781 0.014610
v 0.707012 0.144781 -0.014610
v 0.707012 0.144781 0.014610
v 0.667135 0.984075 0.014610
v 0.667135 0.984075 -0.014610
v 0.707012 0.984075 -0.014610
v 0.707012 0.984075 0.014610
v 0.129569 0.144781 -0.014610
v 0.129569 0.144781 0.014610
v 0.169446 0.144781 -0.014610
v 0.169446 0.144781 0.014610
v 0.129569 0.984075 0.014610
v 0.129569 0.984075 -0.014610
v 0.169446 0.984075 -0.014610
v 0.169446 0.984075 0.014610
v 0.413559 0.144781 -0.014610
v 0.413559 0.144781 0.014610
v 0.453436 0.144781 -0.014610
v 0.453436 0.144781 0.014610
v 0.413559 0.984075 0.014610
v 0.413559 0.984075 -0.014610
v 0.453436 0.984075 -0.014610
v 0.453436 0.984075 0.014610
v 0.000000 0.170639 -0.014610
v -0.902018 0.035767 -0.032456
v -0.918859 0.017922 -0.014610
v -0.902018 0.035767 0.032456
v -0.918859 0.017922 0.014610
v 0.000000 0.170639 0.014610
v -0.636240 0.996596 -0.032456
v -0.636240 1.014160 -0.014610
v -0.636240 0.961789 -0.014610
v -0.636240 0.979289 -0.032456
v -0.636240 1.014160 0.014610
v -0.636240 0.996596 0.032456
v -0.636240 0.979289 0.032456
v -0.636240 0.961789 0.014610
v -0.882777 0.152794 -0.032456
v -0.865247 0.170639 -0.014610
v -0.865247 0.170639 0.014610
v -0.882777 0.152794 0.032456
v -0.923782 0.719199 -0.014610
v -0.905937 0.719199 -0.032456
v -0.905937 0.719199 0.032456
v -0.923782 0.719199 0.014610
v -0.882765 0.719199 -0.032456
v -0.865247 0.719199 -0.014610
v -0.865247 0.719199 0.014610
v -0.882765 0.719199 0.032456
v -0.750156 0.977695 -0.014610
v -0.735768 0.964807 -0.032456
v -0.881184 0.813717 -0.032456
v -0.897625 0.823727 -0.014610
v -0.825158 0.905961 -0.032456
v -0.839505 0.918792 -0.014610
v -0.735768 0.964807 0.032456
v -0.750156 0.977695 0.014610
v -0.897625 0.823727 0.014610
v -0.881184 0.813717 0.032456
v -0.839505 0.918792 0.014610
v -0.825158 0.905961 0.032456
v -0.863402 0.802889 0.032456
v -0.846709 0.792725 0.014610
v -0.708325 0.940225 0.014610
v -0.722908 0.953287 0.032456
v -0.812261 0.894427 0.032456
v -0.797713 0.881415 0.014610
v -0.846709 0.792725 -0.014610
v -0.863402 0.802889 -0.032456
v -0.722908 0.953287 -0.032456
v -0.708325 0.940225 -0.014610
v -0.797713 0.881415 -0.014610
v -0.812261 0.894427 -0.032456
v -0.405751 0.170639 -0.014610
v -0.405751 0.170639 0.014610
v -0.667135 0.144781 -0.014610
v -0.667135 0.144781 0.014610
v -0.707012 0.144781 -0.014610
v -0.707012 0.144781 0.014610
v -0.667135 0.984075 0.014610
v -0.667135 0.984075 -0.014610
v -0.707012 0.984075 -0.014610
v -0.707012 0.984075 0.014610
v -0.129569 0.144781 -0.014610
v -0.129569 0.144781 0.014610
v -0.169446 0.144781 -0.014610
v -0.169446 0.144781 0.014610
v -0.129569 0.984075 0.014610
v -0.129569 0.984075 -0.014610
v -0.169446 0.984075 -0.014610
v -0.169446 0.984075 0.014610
v -0.413559 0.144781 -0.014610
v -0.413559 0.144781 0.014610
v -0.453436 0.144781 -0.014610
v -0.453436 0.144781 0.014610
v -0.413559 0.984075 0.014610
v -0.413559 0.984075 -0.014610
v -0.453436 0.984075 -0.014610
v -0.453436 0.984075 0.014610
vn -0.0000 0.7071 -0.7071
vn 0.7026 0.0904 -0.7058
vn 0.7043 0.0806 -0.7053
vn 0.7160 -0.0046 -0.6981
vn 0.1448 -0.9895 -0.0000
vn -0.1448 -0.9895 -0.0000
vn 0.4317 0.9020 -0.0000
vn 0.1543 0.9880 -0.0000
vn -0.0000 -0.0000 1.0000
vn -0.0000 -0.0000 -1.0000
vn -0.1543 0.9880 -0.0000
vn -0.0000 1.0000 -0.0000
vn 0.9929 0.1188 -0.0000
vn 0.9222 0.3866 -0.0000
vn 0.7191 0.6949 -0.0000
vn -0.9924 -0.1232 -0.0000
vn -0.9302 -0.3671 -0.0000
vn -0.4226 -0.9063 -0.0000
vn -1.0000 -0.0000 -0.0000
vn -0.7339 -0.6793 -0.0000
vn 0.7160 -0.0046 0.6981
vn 0.7043 0.0806 0.7053
vn 0.7026 0.0904 0.7058
vn 0.1116 -0.7099 0.6954
vn -0.1116 -0.7099 0.6954
vn -0.0980 -0.7109 0.6965
vn 0.0980 -0.7109 0.6965
vn -0.0000 0.7071 0.7071
vn -0.0000 -0.7071 -0.7071
vn 1.0000 -0.0070 -0.0000
vn -0.1037 0.7092 -0.6973
vn 0.1037 0.7092 -0.6973
vn 0.1191 0.7080 -0.6961
vn -0.1191 0.7080 -0.6961
vn -0.1191 0.7080 0.6961
vn 0.1191 0.7080 0.6961
vn 0.1037 0.7092 0.6973
vn -0.1037 0.7092 0.6973
vn 0.0980 -0.7109 -0.6965
vn -0.0980 -0.7109 -0.6965
vn -0.1116 -0.7099 -0.6954
vn 0.1116 -0.7099 -0.6954
vn -0.7025 -0.0875 -0.7063
vn -0.7039 -0.0788 -0.7060
vn -0.7135 -0.0000 -0.7007
vn -0.7039 -0.0788 0.7060
vn -0.7025 -0.0875 0.7063
vn -0.7135 -0.0000 0.7007
vn -0.4914 -0.4587 0.7404
vn -0.4933 -0.4565 0.7404
vn -0.3119 -0.6271 0.7137
vn -0.2803 -0.6507 0.7057
vn 0.3182 0.6282 0.7100
vn 0.2893 0.6498 0.7029
vn 0.4857 0.4735 0.7347
vn 0.4894 0.4696 0.7349
vn -0.6473 -0.2428 0.7225
vn -0.6395 -0.2563 0.7248
vn 0.6408 0.2610 0.7220
vn 0.6337 0.2735 0.7236
vn 0.2893 0.6498 -0.7029
vn 0.3182 0.6282 -0.7100
vn 0.4894 0.4696 -0.7349
vn 0.4857 0.4735 -0.7347
vn 0.6337 0.2735 -0.7236
vn 0.6408 0.2610 -0.7220
vn -0.4933 -0.4565 -0.7404
vn -0.4914 -0.4587 -0.7404
vn -0.2803 -0.6507 -0.7057
vn -0.3119 -0.6271 -0.7137
vn -0.6395 -0.2563 -0.7248
vn -0.6473 -0.2428 -0.7225
vn -0.0000 -1.0000 -0.0000
vn 1.0000 -0.0000 -0.0000
vn -0.7026 0.0904 -0.7058
vn -0.7160 -0.0046 -0.6981
vn -0.7043 0.0806 -0.7053
vn -0.4317 0.9020 -0.0000
vn -0.9929 0.1188 -0.0000
vn -0.9222 0.3866 -0.0000
vn -0.7191 0.6949 -0.0000
vn 0.9924 -0.1232 -0.0000
vn 0.9302 -0.3671 -0.0000
vn 0.4226 -0.9063 -0.0000
vn 0.7339 -0.6793 -0.0000
vn -0.7160 -0.0046 0.6981
vn -0.7026 0.0904 0.7058
vn -0.7043 0.0806 0.7053
vn -1.0000 -0.0070 -0.0000
vn 0.7025 -0.0875 -0.7063
vn 0.7135 -0.0000 -0.7007
vn 0.7039 -0.0788 -0.7060
vn 0.7039 -0.0788 0.7060
vn 0.7135 -0.0000 0.7007
vn 0.7025 -0.0875 0.7063
vn 0.4914 -0.4587 0.7404
vn 0.2803 -0.6507 0.7057
vn 0.3119 -0.6271 0.7137
vn 0.4933 -0.4565 0.7404
vn -0.3182 0.6282 0.7100
vn -0.4894 0.4696 0.7349
vn -0.4857 0.4735 0.7347
vn -0.2893 0.6498 0.7029
vn 0.6473 -0.2428 0.7225
vn 0.6395 -0.2563 0.7248
vn -0.6337 0.2735 0.7236
vn -0.6408 0.2610 0.7220
vn -0.2893 0.6498 -0.7029
vn -0.4857 0.4735 -0.7347
vn -0.4894 0.4696 -0.7349
vn -0.3182 0.6282 -0.7100
vn -0.6408 0.2610 -0.7220
vn -0.6337 0.2735 -0.7236
vn 0.4933 -0.4565 -0.7404
vn 0.3119 -0.6271 -0.7137
vn 0.2803 -0.6507 -0.7057
vn 0.4914 -0.4587 -0.7404
vn 0.6395 -0.2563 -0.7248
vn 0.6473 -0.2428 -0.7225
vn -0.0000 -0.7071 0.7071
vt 0.196273 0.791158
vt 0.196172 0.791158
vt 0.196273 0.791158
vt 0.196172 0.791158
vt 0.196165 0.791158
vt 0.196299 0.791158
vt 0.196161 0.791158
vt 0.196172 0.791158
vt 0.196573 0.791158
vt 0.196169 0.791158
vt 0.196436 0.791158
vt 0.196161 0.791158
vt 0.196165 0.791158
vt 0.196299 0.791158
vt 0.196169 0.791158
vt 0.196436 0.791158
vt 0.196172 0.791158
vt 0.196573 0.791158
vt 0.196450 0.791158
vt 0.196573 0.791158
vt 0.196573 0.791158
vt 0.196450 0.791158
vt 0.196161 0.791158
vt 0.196287 0.791158
vt 0.196287 0.791158
vt 0.196161 0.791158
vt 0.196450 0.791158
vt 0.196573 0.791158
vt 0.196573 0.791158
vt 0.196450 0.791158
vt 0.196161 0.791158
vt 0.196303 0.791158
vt 0.196294 0.791158
vt 0.196161 0.791158
vt 0.196387 0.791158
vt 0.196289 0.791158
vt 0.196303 0.791158
vt 0.196161 0.791158
vt 0.196161 0.791158
vt 0.196294 0.791158
vt 0.196289 0.791158
vt 0.196387 0.791158
vt 0.196438 0.791158
vt 0.196573 0.791158
vt 0.196573 0.791158
vt 0.196430 0.791158
vt 0.196474 0.791158
vt 0.196573 0.791158
vt 0.196573 0.791158
vt 0.196438 0.791158
vt 0.196430 0.791158
vt 0.196573 0.791158
vt 0.196573 0.791158
vt 0.196474 0.791158
vt 0.196573 0.791158
vt 0.196573 0.791158
vt 0.201128 0.791158
vt 0.201128 0.791158
vt 0.196573 0.791158
vt 0.196573 0.791158
vt 0.201128 0.791158
vt 0.201128 0.791158
vt 0.196573 0.791158
vt 0.196573 0.791158
vt 0.201128 0.791158
vt 0.201128 0.791158
vt 0.196573 0.791158
vt 0.196573 0.791158
vt 0.201128 0.791158
vt 0.201128 0.791158
vt 0.196573 0.791158
vt 0.196573 0.791158
vt 0.201128 0.791158
vt 0.201128 0.791158
vt 0.196573 0.791158
vt 0.196573 0.791158
vt 0.201128 0.791158
vt 0.201128 0.791158
vt 0.196573 0.791158
vt 0.196573 0.791158
vt 0.201128 0.791158
vt 0.196273 0.791158
vt 0.196172 0.791158
vt 0.196273 0.791158
vt 0.196172 0.791158
vt 0.201128 0.791158
vt 0.196165 0.791158
vt 0.196299 0.791158
vt 0.196161 0.791158
vt 0.196172 0.791158
vt 0.196573 0.791158
vt 0.196169 0.791158
vt 0.196436 0.791158
vt 0.196161 0.791158
vt 0.196165 0.791158
vt 0.196299 0.791158
vt 0.196169 0.791158
vt 0.196436 0.791158
vt 0.196172 0.791158
vt 0.196573 0.791158
vt 0.196450 0.791158
vt 0.196573 0.791158
vt 0.196573 0.791158
vt 0.196450 0.791158
vt 0.196161 0.791158
vt 0.196287 0.791158
vt 0.196287 0.791158
vt 0.196161 0.791158
vt 0.196450 0.791158
vt 0.196573 0.791158
vt 0.196573 0.791158
vt 0.196450 0.791158
vt 0.196161 0.791158
vt 0.196303 0.791158
vt 0.196294 0.791158
vt 0.196161 0.791158
vt 0.196387 0.791158
vt 0.196289 0.791158
vt 0.196303 0.791158
vt 0.196161 0.791158
vt 0.196161 0.791158
vt 0.196294 0.791158
vt 0.196289 0.791158
vt 0.196387 0.791158
vt 0.196438 0.791158
vt 0.196573 0.791158
vt 0.196573 0.791158
vt 0.196430 0.791158
vt 0.196474 0.791158
vt 0.196573 0.791158
vt 0.196573 0.791158
vt 0.196438 0.791158
vt 0.196430 0.791158
vt 0.196573 0.791158
vt 0.196573 0.791158
vt 0.196474 0.791158
vt 0.196573 0.791158
vt 0.196573 0.791158
vt 0.201128 0.791158
vt 0.201128 0.791158
vt 0.196573 0.791158
vt 0.196573 0.791158
vt 0.201128 0.791158
vt 0.201128 0.791158
vt 0.196573 0.791158
vt 0.196573 0.791158
vt 0.201128 0.791158
vt 0.201128 0.791158
vt 0.196573 0.791158
vt 0.196573 0.791158
vt 0.201128 0.791158
vt 0.201128 0.791158
vt 0.196573 0.791158
vt 0.196573 0.791158
vt 0.201128 0.791158
vt 0.201128 0.791158
vt 0.196573 0.791158
vt 0.196573 0.791158
vt 0.201128 0.791158
vt 0.201128 0.791158
vt 0.196573 0.791158
vt 0.196573 0.791158
s 1
usemtl Palette
f 90/102/1 75/81/1 14/20/1 13/19/1 89/101/1
f 18/24/2 17/23/3 2/2/4 1/1/4
f 83/90/5 7/8/6 12/17/6 88/99/5
f 25/31/7 6/7/8 9/12/8 32/38/7
f 10/13/9 86/95/9 87/97/9 11/15/9
f 45/51/10 8/11/10 5/6/10 26/32/10
f 31/37/9 10/14/9 11/16/9 40/46/9
f 6/7/8 82/89/11 85/94/11 9/12/8
f 8/10/10 84/92/10 81/87/10 5/5/10
f 75/81/12 80/86/12 15/21/12 14/20/12
f 13/19/10 21/27/10 18/24/10 1/1/10
f 17/23/13 28/34/14 33/39/14 20/26/13
f 19/25/9 34/40/9 37/43/9 24/30/9
f 32/38/7 35/41/15 30/36/15 25/31/7
f 23/29/16 38/44/17 43/49/17 22/28/16
f 39/45/18 12/18/6 7/9/6 46/52/18
f 15/21/19 23/29/16 22/28/16 14/20/19
f 41/47/9 37/43/9 34/40/9 36/42/9
f 47/53/20 43/49/17 38/44/17 42/48/20
f 26/32/10 29/35/10 48/54/10 45/51/10
f 40/46/9 41/47/9 36/42/9 31/37/9
f 46/52/18 47/53/20 42/48/20 39/45/18
f 29/35/10 27/33/10 44/50/10 48/54/10
f 35/41/15 33/39/14 28/34/14 30/36/15
f 21/27/10 44/50/10 27/33/10 18/24/10
f 3/3/21 4/4/21 20/26/22 19/25/23
f 88/99/24 12/17/25 11/15/26 87/97/27
f 92/104/28 16/22/28 15/21/28 80/86/28 91/103/28
f 76/82/29 1/1/29 2/2/29 77/83/29
f 16/22/9 92/104/9 78/84/9 3/3/9
f 2/2/30 17/23/13 20/26/13 4/4/30
f 82/89/31 6/7/32 5/5/33 81/87/34
f 86/95/35 10/13/36 9/12/37 85/94/38
f 84/92/39 8/10/40 7/8/41 83/90/42
f 1/1/10 76/82/10 89/101/10 13/19/10
f 3/3/9 19/25/9 24/30/9 16/22/9
f 22/28/43 21/27/44 13/19/45 14/20/45
f 24/30/46 23/29/47 15/21/48 16/22/48
f 42/48/49 41/47/50 40/46/51 39/45/52
f 32/38/53 31/37/54 36/42/55 35/41/56
f 38/44/57 37/43/58 41/47/50 42/48/49
f 35/41/56 36/42/55 34/40/59 33/39/60
f 26/32/61 25/31/62 30/36/63 29/35/64
f 29/35/64 30/36/63 28/34/65 27/33/66
f 48/54/67 47/53/68 46/52/69 45/51/70
f 44/50/71 43/49/72 47/53/68 48/54/67
f 27/33/66 28/34/65 17/23/3 18/24/2
f 19/25/23 20/26/22 33/39/60 34/40/59
f 5/6/33 6/7/32 25/31/62 26/32/61
f 31/37/54 32/38/53 9/12/37 10/14/36
f 43/49/72 44/50/71 21/27/44 22/28/43
f 7/9/41 8/11/40 45/51/70 46/52/69
f 23/29/47 24/30/46 37/43/58 38/44/57
f 39/45/52 40/46/51 11/16/26 12/18/25
f 77/83/73 2/2/73 4/4/73 79/85/73
f 75/81/73 49/55/73 50/56/73 80/86/73
f 61/67/10 59/65/10 64/70/10 65/71/10
f 59/65/19 60/66/19 63/69/19 64/70/19
f 53/59/10 51/57/10 56/62/10 57/63/10
f 51/57/19 52/58/19 55/61/19 56/62/19
f 52/58/9 54/60/9 58/64/9 55/61/9
f 54/60/74 53/59/74 57/63/74 58/64/74
f 60/66/9 62/68/9 66/72/9 63/69/9
f 62/68/74 61/67/74 65/71/74 66/72/74
f 69/75/10 67/73/10 72/78/10 73/79/10
f 67/73/19 68/74/19 71/77/19 72/78/19
f 68/74/9 70/76/9 74/80/9 71/77/9
f 70/76/74 69/75/74 73/79/74 74/80/74
f 94/106/75 76/82/76 77/83/76 93/105/77
f 101/113/78 108/120/78 85/94/11 82/89/11
f 121/133/10 102/114/10 81/88/10 84/93/10
f 107/119/9 116/128/9 87/98/9 86/96/9
f 75/81/12 90/102/12 91/103/12 80/86/12
f 89/101/10 76/82/10 94/106/10 97/109/10
f 93/105/79 96/108/79 109/121/80 104/116/80
f 95/107/9 100/112/9 113/125/9 110/122/9
f 108/120/78 101/113/78 106/118/81 111/123/81
f 99/111/82 98/110/82 119/131/83 114/126/83
f 115/127/84 122/134/84 83/91/5 88/100/5
f 91/103/74 90/102/74 98/110/82 99/111/82
f 117/129/9 112/124/9 110/122/9 113/125/9
f 123/135/85 118/130/85 114/126/83 119/131/83
f 102/114/10 121/133/10 124/136/10 105/117/10
f 116/128/9 107/119/9 112/124/9 117/129/9
f 122/134/84 115/127/84 118/130/85 123/135/85
f 105/117/10 124/136/10 120/132/10 103/115/10
f 111/123/81 106/118/81 104/116/80 109/121/80
f 97/109/10 94/106/10 103/115/10 120/132/10
f 78/84/86 95/107/87 96/108/88 79/85/86
f 77/83/89 79/85/89 96/108/79 93/105/79
f 78/84/9 92/104/9 100/112/9 95/107/9
f 98/110/90 90/102/91 89/101/91 97/109/92
f 100/112/93 92/104/94 91/103/94 99/111/95
f 118/130/96 115/127/97 116/128/98 117/129/99
f 108/120/100 111/123/101 112/124/102 107/119/103
f 114/126/104 118/130/96 117/129/99 113/125/105
f 111/123/101 109/121/106 110/122/107 112/124/102
f 102/114/108 105/117/109 106/118/110 101/113/111
f 105/117/109 103/115/112 104/116/113 106/118/110
f 124/136/114 121/133/115 122/134/116 123/135/117
f 120/132/118 124/136/114 123/135/117 119/131/119
f 103/115/112 94/106/75 93/105/77 104/116/113
f 95/107/87 110/122/107 109/121/106 96/108/88
f 81/88/34 102/114/108 101/113/111 82/89/31
f 107/119/103 86/96/35 85/94/38 108/120/100
f 119/131/119 98/110/90 97/109/92 120/132/118
f 83/91/42 122/134/116 121/133/115 84/93/39
f 99/111/95 114/126/104 113/125/105 100/112/93
f 115/127/97 88/100/24 87/98/27 116/128/98
f 75/81/73 80/86/73 126/138/73 125/137/73
f 137/149/10 141/153/10 140/152/10 135/147/10
f 135/147/74 140/152/74 139/151/74 136/148/74
f 129/141/10 133/145/10 132/144/10 127/139/10
f 127/139/74 132/144/74 131/143/74 128/140/74
f 128/140/9 131/143/9 134/146/9 130/142/9
f 130/142/19 134/146/19 133/145/19 129/141/19
f 136/148/9 139/151/9 142/154/9 138/150/9
f 138/150/19 142/154/19 141/153/19 137/149/19
f 145/157/10 149/161/10 148/160/10 143/155/10
f 143/155/74 148/160/74 147/159/74 144/156/74
f 144/156/9 147/159/9 150/162/9 146/158/9
f 146/158/19 150/162/19 149/161/19 145/157/19
f 79/85/120 4/4/120 3/3/120 78/84/120
