# Blender 3.4.1
# www.blender.org
mtllib Bed__2__Sheets_Alt.mtl
o Bed_(2)_Sheets_Alt
v 1.068875 -0.294642 0.399580
v 1.136840 -0.129941 0.383171
v 1.071607 -0.269679 0.957553
v 1.068875 -0.277965 0.713259
v 1.136840 -0.129941 0.684916
v 1.139240 -0.129941 0.947783
v 0.736814 0.198726 0.370931
v 0.433433 0.213089 0.351590
v 0.736814 -0.289265 1.273612
v 0.368468 -0.295082 1.263767
v 0.736814 -0.294642 0.389723
v 0.727759 -0.129941 1.296826
v 0.318679 -0.129941 1.287443
v 0.367377 0.015476 0.394491
v 0.717590 0.015476 0.404964
v 0.727759 -0.129941 0.373143
v 0.736814 -0.277965 0.705107
v 0.742906 -0.269679 0.920962
v 0.393850 -0.295082 0.953386
v 0.762196 -0.289265 1.020045
v 0.736814 0.213306 0.672092
v 0.377249 0.228153 0.696534
v 0.738256 0.184392 0.946035
v 0.369923 0.209945 0.950937
v 1.127832 0.055558 0.381051
v 0.983774 0.198101 0.349816
v 1.041020 0.177397 0.358471
v 0.980268 0.160894 1.177617
v 1.126886 0.056042 1.159015
v 0.978178 0.056052 1.272167
v 1.077967 0.139135 1.168859
v 1.057973 0.129455 1.207131
v 1.079418 0.055895 1.235216
v 0.988162 0.139162 1.225980
v 1.118320 0.056014 0.701384
v 0.973319 0.198642 0.681362
v 1.070225 0.139061 0.694053
v 0.973708 0.184392 0.945973
v 1.119246 0.056072 0.948291
v 1.070779 0.139142 0.948314
v 0.929323 -0.289265 1.251405
v 1.080259 -0.289265 1.164475
v 1.024519 -0.289265 1.216906
v 0.960559 -0.129941 1.294165
v 1.146841 -0.129941 1.167695
v 1.098436 -0.129941 1.245763
v 0.374528 0.174997 1.189313
v 0.337443 0.056260 1.280909
v 0.362059 0.139205 1.239652
v 0.727128 0.056260 1.291104
v 0.742821 0.160894 1.198228
v 0.735706 0.139205 1.249606
v 0.000122 0.213089 0.351128
v 0.000122 -0.295082 0.954191
v 0.000122 -0.295082 1.273612
v -1.068631 -0.294642 0.399580
v 0.000122 0.213574 0.680783
v 0.000122 0.015476 0.394921
v -1.136596 -0.129941 0.383171
v 0.000122 0.209945 0.949003
v 0.000122 -0.129941 1.297887
v -1.071363 -0.269679 0.957553
v -1.068631 -0.277965 0.713259
v -1.136596 -0.129941 0.684916
v -1.138996 -0.129941 0.947783
v -0.736570 0.198726 0.370931
v -0.433189 0.213089 0.351590
v -0.736570 -0.289265 1.273612
v -0.368224 -0.295082 1.263767
v -0.736570 -0.294642 0.389723
v -0.727515 -0.129941 1.296826
v -0.318435 -0.129941 1.287443
v -0.367133 0.015476 0.394491
v -0.717346 0.015476 0.404964
v -0.727515 -0.129941 0.373143
v -0.736570 -0.277965 0.705107
v -0.742662 -0.269679 0.920962
v -0.393606 -0.295082 0.953386
v -0.761952 -0.289265 1.020045
v -0.736570 0.213306 0.672092
v -0.377005 0.228153 0.696534
v -0.738012 0.184392 0.946035
v -0.369678 0.209945 0.950937
v 0.000122 0.174997 1.198602
v 0.000122 0.056251 1.290301
v 0.000122 0.139202 1.249371
v -1.127588 0.055558 0.381051
v -0.983530 0.198101 0.349816
v -1.040776 0.177397 0.358471
v -0.980024 0.160894 1.177617
v -1.126642 0.056042 1.159015
v -0.977934 0.056052 1.272167
v -1.077723 0.139135 1.168859
v -1.057729 0.129455 1.207131
v -1.079174 0.055895 1.235216
v -0.987918 0.139162 1.225980
v -1.118076 0.056014 0.701384
v -0.973075 0.198642 0.681362
v -1.069981 0.139061 0.694053
v -0.973464 0.184392 0.945973
v -1.119002 0.056072 0.948291
v -1.070535 0.139142 0.948314
v -0.929079 -0.289265 1.251405
v -1.080015 -0.289265 1.164475
v -1.024275 -0.289265 1.216906
v -0.960315 -0.129941 1.294165
v -1.146597 -0.129941 1.167695
v -1.098192 -0.129941 1.245763
v -0.374284 0.174997 1.189313
v -0.337198 0.056260 1.280909
v -0.361814 0.139205 1.239652
v -0.726884 0.056260 1.291104
v -0.742577 0.160894 1.198228
v -0.735462 0.139205 1.249606
v -0.576628 0.240183 0.676003
v -0.040211 0.243465 0.650625
v -0.570968 0.217420 0.359383
v -0.020809 0.231319 0.358014
v -0.942761 0.219111 0.662412
v -0.963826 0.209888 0.356494
v 0.516042 0.231501 0.674995
v 0.527384 0.233996 0.365233
v 1.005633 0.194133 0.657748
v 1.016207 0.211333 0.363999
v 0.527220 0.181766 0.368586
v 0.515878 0.185982 0.697585
v -0.040374 0.203173 0.673214
v -0.020973 0.189360 0.361367
v -0.576792 0.201022 0.698592
v -0.571132 0.180250 0.362735
v -0.968050 0.176141 0.358922
v -0.948877 0.187945 0.684132
v 0.981137 0.169890 0.676377
v 0.998198 0.190442 0.363771
v 1.084422 0.145938 0.367916
v 1.094291 0.138718 0.662087
v 1.044736 0.139301 0.369365
v 1.048372 0.132502 0.682710
v 1.167768 -0.014789 0.365446
v 1.177637 -0.022010 0.659617
v 1.128082 -0.021427 0.366895
v 1.131718 -0.028226 0.680240
v -1.098738 0.153430 0.356913
v -1.090216 0.156807 0.662820
v -1.052181 0.147619 0.358847
v -1.047892 0.150912 0.684091
v -1.156888 -0.026699 0.358213
v -1.148366 -0.023322 0.664121
v -1.110330 -0.032510 0.360148
v -1.106042 -0.029217 0.685392
vn 0.9946 0.1033 -0.0065
vn -0.0000 -1.0000 -0.0000
vn -0.0245 0.0341 0.9991
vn 0.4575 0.8884 0.0375
vn -0.0014 -0.9986 0.0529
vn 0.9972 0.0733 0.0152
vn 0.9106 -0.4098 -0.0535
vn 0.0437 0.9982 -0.0420
vn 0.9938 0.1059 -0.0352
vn -0.0000 -0.2143 -0.9768
vn 0.9045 -0.4265 -0.0022
vn -0.0175 0.9995 -0.0245
vn 0.9176 -0.3973 0.0108
vn -0.0205 0.9989 0.0415
vn 0.0014 0.9899 0.1418
vn 0.0294 0.9964 0.0798
vn 0.0528 0.9917 0.1172
vn 0.0042 0.9953 0.0966
vn 0.0588 0.9943 0.0893
vn 0.0179 -0.9978 -0.0641
vn -0.0024 -0.9993 0.0360
vn 0.0401 -0.2065 -0.9776
vn 0.0292 -0.1393 0.9898
vn -0.0234 -0.1471 0.9888
vn -0.0333 -0.0508 -0.9982
vn 0.8436 0.1155 0.5244
vn 0.0267 -0.1043 -0.9942
vn 0.0571 -0.2062 0.9768
vn 0.0156 -0.9999 0.0014
vn 0.2292 0.9044 0.3599
vn 0.7725 0.4040 0.4899
vn 0.3027 0.4263 0.8525
vn 0.8347 0.5506 0.0067
vn 0.4739 0.8803 0.0232
vn 0.0361 0.9164 0.3987
vn 0.0751 0.4591 0.8852
vn 0.8646 0.5025 -0.0027
vn 0.3262 0.9445 0.0392
vn 0.8616 0.5067 -0.0296
vn 0.0310 0.9992 -0.0234
vn 0.7238 -0.3773 0.5777
vn 0.3190 -0.3068 0.8967
vn 0.3351 0.0834 0.9385
vn 0.0445 0.0722 0.9964
vn 0.0149 0.8152 0.5790
vn 0.0245 0.4409 0.8972
vn 0.0040 0.8703 0.4926
vn -0.0236 0.4500 0.8927
vn 0.0302 0.0364 0.9989
vn -0.9946 0.1033 -0.0065
vn 0.0245 0.0341 0.9991
vn -0.4575 0.8884 0.0375
vn 0.0014 -0.9986 0.0529
vn -0.9972 0.0733 0.0152
vn -0.9106 -0.4098 -0.0535
vn -0.0437 0.9982 -0.0420
vn -0.9938 0.1059 -0.0352
vn -0.9045 -0.4265 -0.0022
vn 0.0175 0.9995 -0.0245
vn -0.9176 -0.3973 0.0108
vn 0.0205 0.9989 0.0415
vn -0.0014 0.9899 0.1418
vn -0.0294 0.9964 0.0798
vn -0.0528 0.9917 0.1172
vn -0.0042 0.9953 0.0966
vn -0.0588 0.9943 0.0893
vn -0.0179 -0.9978 -0.0641
vn 0.0024 -0.9993 0.0360
vn -0.0401 -0.2065 -0.9776
vn -0.0292 -0.1393 0.9898
vn 0.0234 -0.1471 0.9888
vn 0.0333 -0.0508 -0.9982
vn -0.8436 0.1155 0.5244
vn -0.0267 -0.1043 -0.9942
vn -0.0571 -0.2062 0.9768
vn -0.0156 -0.9999 0.0014
vn -0.2292 0.9044 0.3599
vn -0.7725 0.4040 0.4899
vn -0.3027 0.4263 0.8525
vn -0.8347 0.5506 0.0067
vn -0.4739 0.8803 0.0232
vn -0.0361 0.9164 0.3987
vn -0.0751 0.4591 0.8852
vn -0.8646 0.5025 -0.0027
vn -0.3262 0.9445 0.0392
vn -0.8616 0.5067 -0.0296
vn -0.0310 0.9992 -0.0234
vn -0.7238 -0.3773 0.5777
vn -0.3190 -0.3068 0.8967
vn -0.3351 0.0834 0.9385
vn -0.0445 0.0722 0.9964
vn -0.0149 0.8152 0.5790
vn -0.0245 0.4409 0.8972
vn -0.0040 0.8703 0.4926
vn 0.0236 0.4500 0.8927
vn -0.0302 0.0364 0.9989
vn 0.0089 0.9998 -0.0156
vn -0.0365 0.9981 -0.0504
vn -0.0172 0.9982 -0.0579
vn 0.0619 0.9975 0.0348
vn -0.0568 0.5358 0.8424
vn 0.2436 0.5044 0.8284
vn 0.0128 -0.0711 -0.9974
vn 0.0097 -0.0818 -0.9966
vn 0.0386 0.4938 0.8687
vn 0.0625 0.4912 0.8688
vn -0.3877 0.9218 -0.0002
vn -0.0007 -0.0844 -0.9964
vn -0.0069 -0.0410 -0.9991
vn -0.0265 0.4658 0.8845
vn 0.8875 0.4605 -0.0185
vn -0.6103 -0.7907 -0.0476
vn 0.0121 -0.0695 -0.9975
vn 0.6087 0.7927 0.0337
vn 0.1419 -0.9895 -0.0260
vn 0.3818 0.1841 0.9057
vn -0.8877 -0.4603 0.0003
vn -0.0359 -0.0033 -0.9993
vn -0.4282 0.1447 0.8920
vn 0.0290 -0.0788 -0.9965
vn 0.3370 -0.9415 0.0097
vn -0.2488 0.6201 0.7441
vn -0.1339 -0.9909 0.0132
vn -0.9513 0.3073 0.0231
vn 0.0390 -0.0198 -0.9990
vn 0.9516 -0.3073 -0.0094
vt 0.059516 1.252603
vt 0.559523 0.015381
vt 0.045055 1.166993
vt 0.511043 0.000000
vt 0.280366 1.207117
vt 0.720202 0.018426
vt 0.183288 1.227734
vt 0.649423 0.016158
vt 0.163982 1.150403
vt 0.266076 1.133137
vt 0.429079 0.122755
vt 0.020024 0.856623
vt 0.008767 0.709321
vt 0.437066 0.211665
vt 0.523525 0.856686
vt 0.807601 0.120724
vt 0.531730 0.680567
vt 0.798650 0.229725
vt 0.562925 0.104032
vt 0.461703 0.847277
vt 0.467183 0.654717
vt 0.501002 0.225330
vt 0.482109 0.121386
vt 0.521483 0.112046
vt 0.643530 0.109117
vt 0.704225 0.112376
vt 0.704998 0.218015
vt 0.733760 0.109109
vt 0.138030 0.850137
vt 0.144125 0.679498
vt 0.242692 0.846499
vt 0.242638 0.675151
vt 0.458587 0.007634
vt 0.036186 1.077318
vt 0.420864 0.052359
vt 0.017084 0.977135
vt 0.425581 0.035460
vt 0.022101 1.006137
vt 0.330181 0.951322
vt 0.331188 1.034620
vt 0.383320 0.953609
vt 0.329649 0.994041
vt 0.344526 0.987701
vt 0.363033 1.019578
vt 0.374341 1.003089
vt 0.348922 0.954781
vt 0.161493 1.059996
vt 0.146139 0.961597
vt 0.154862 1.014857
vt 0.246472 0.954181
vt 0.255952 1.046309
vt 0.251496 1.002418
vt 0.803890 0.064089
vt 0.518454 0.950367
vt 0.780877 0.018828
vt 0.364092 1.192197
vt 0.795299 0.035863
vt 0.394738 1.192670
vt 0.516443 1.000518
vt 0.453244 0.954348
vt 0.346796 1.114393
vt 0.381975 1.106827
vt 0.446954 1.024225
vt 0.335018 0.677464
vt 0.394664 0.661390
vt 0.358756 0.672114
vt 0.391884 0.841784
vt 0.336934 0.846859
vt 0.357591 0.844009
vt 0.443554 0.340498
vt 0.008031 0.498578
vt 0.702798 0.340498
vt 0.800303 0.340498
vt 0.534223 0.504146
vt 0.070159 -0.254245
vt 0.559523 0.665615
vt 0.138161 0.499955
vt 0.502505 0.340498
vt 0.054491 -0.168954
vt 0.511043 0.680997
vt 0.242032 0.501054
vt 0.469259 0.503458
vt 0.290334 -0.204093
vt 0.720202 0.662571
vt 0.193561 -0.226760
vt 0.649423 0.664839
vt 0.173166 -0.149850
vt 0.275001 -0.130426
vt 0.429079 0.558242
vt 0.025080 0.140841
vt 0.011743 0.287882
vt 0.437066 0.469331
vt 0.528507 0.151431
vt 0.807601 0.560273
vt 0.534223 0.327698
vt 0.798650 0.451272
vt 0.562925 0.576965
vt 0.466561 0.159531
vt 0.469320 0.352178
vt 0.501002 0.455667
vt 0.482109 0.559610
vt 0.521483 0.568951
vt 0.643530 0.571880
vt 0.704225 0.568620
vt 0.704998 0.462981
vt 0.733760 0.571888
vt 0.142977 0.149822
vt 0.146661 0.320565
vt 0.247571 0.155675
vt 0.245097 0.326996
vt 0.338940 0.502079
vt 0.397890 0.502703
vt 0.362640 0.502330
vt 0.458587 0.673363
vt 0.044357 -0.079480
vt 0.420865 0.628638
vt 0.023842 0.020284
vt 0.425581 0.645537
vt 0.029268 -0.008607
vt 0.336529 0.052718
vt 0.338711 -0.030546
vt 0.389692 0.051556
vt 0.336599 0.009995
vt 0.351384 0.016648
vt 0.370339 -0.014832
vt 0.381413 0.001893
vt 0.355315 0.049656
vt 0.169400 -0.059509
vt 0.152658 0.038551
vt 0.162133 -0.014517
vt 0.252872 0.048089
vt 0.263651 -0.043825
vt 0.258576 -0.000035
vt 0.803890 0.616908
vt 0.524760 0.057657
vt 0.780877 0.662168
vt 0.373836 -0.187403
vt 0.795299 0.645134
vt 0.404485 -0.187227
vt 0.523458 0.007471
vt 0.459616 0.052297
vt 0.355444 -0.109976
vt 0.390511 -0.101668
vt 0.454313 -0.017703
vt 0.337496 0.326637
vt 0.396906 0.343971
vt 0.361155 0.332489
vt 0.396675 0.163546
vt 0.341805 0.157309
vt 0.362418 0.160595
vt 0.136754 0.247755
vt 0.949282 0.132127
vt 0.126801 0.487536
vt 0.949201 0.358152
vt 0.001923 0.250720
vt 0.838356 0.132920
vt 0.002431 0.496677
vt 0.825773 0.365787
vt 0.129872 0.083899
vt 0.920454 0.024463
vt -0.000174 0.075120
vt 0.866793 0.018572
vt 0.137786 0.736165
vt 0.949302 0.601618
vt 0.006219 0.741668
vt 0.834276 0.604329
vt 0.917403 0.761490
vt 0.131265 0.955639
vt 0.857962 0.762158
vt 0.006274 0.960369
vt 0.813930 0.606922
vt 0.969202 0.604775
vt 0.969202 0.358209
vt 0.807601 0.365348
vt 0.965764 0.129186
vt 0.824745 0.130229
vt 0.870404 0.008275
vt 0.006715 -0.219923
vt 0.145163 -0.222601
vt 0.918691 0.012642
vt 0.917116 0.768398
vt 0.138809 1.219225
vt 0.005672 1.212952
vt 0.861031 0.768387
vt 0.009957 1.002461
vt 0.874679 0.766857
vt 0.135021 1.002238
vt 0.903830 0.768708
vt 0.009698 1.182239
vt 0.873515 0.769438
vt 0.905649 0.770160
vt 0.142813 1.184985
vt 0.011899 1.083359
vt 0.879632 0.771467
vt 0.136964 1.083136
vt 0.898598 0.777436
vt 0.012047 1.101353
vt 0.880065 0.768520
vt 0.899809 0.772272
vt 0.145163 1.104099
vt -0.000676 0.009760
vt 0.881587 0.007420
vt 0.905307 0.011437
vt 0.129301 0.012359
vt 0.881095 0.007337
vt 0.004829 -0.180271
vt 0.906519 0.011575
vt 0.142926 -0.175414
vt -0.000128 -0.074834
vt 0.886237 0.000000
vt 0.901468 0.007762
vt 0.129849 -0.072235
vt 0.885666 0.004648
vt 0.001595 -0.095743
vt 0.901181 0.010597
vt 0.139693 -0.090886
s 0
usemtl Pattern_1
f 5/9/1 35/47/1 39/51/1 6/10/1
f 19/27/2 10/18/2 55/73/2 54/72/2
f 50/67/3 48/65/3 13/21/3 12/20/3
f 36/48/4 37/49/4 27/38/4 26/36/4
f 1/2/5 4/8/5 17/25/5 11/19/5
f 2/3/6 25/34/6 35/47/6 5/9/6
f 6/10/7 45/61/7 42/56/7 3/5/7
f 7/12/8 8/13/8 22/30/8 21/29/8
f 6/10/9 39/51/9 29/40/9 45/61/9
f 8/14/10 14/22/10 58/78/10 53/70/10
f 5/9/11 6/10/11 3/5/11 4/7/11
f 22/30/12 8/13/12 53/71/12 57/77/12
f 5/9/13 4/7/13 1/1/13 2/3/13
f 24/32/14 22/30/14 57/77/14 60/81/14
f 24/32/15 60/81/15 84/111/15 47/64/15
f 36/48/16 21/29/16 23/31/16 38/50/16
f 23/31/17 24/32/17 47/64/17 51/68/17
f 38/50/18 23/31/18 51/68/18 28/39/18
f 21/29/19 22/30/19 24/32/19 23/31/19
f 3/6/20 42/55/20 43/57/20 41/53/20 9/16/20 20/28/20 18/26/20
f 4/8/21 3/6/21 18/26/21 17/25/21
f 7/11/22 15/23/22 14/22/22 8/14/22
f 61/82/23 55/74/23 10/17/23 13/21/23
f 13/21/24 10/17/24 9/15/24 12/20/24
f 15/23/25 7/11/25 26/35/25 27/37/25 25/33/25 2/4/25 16/24/25
f 29/40/26 33/44/26 46/62/26 45/61/26
f 2/4/27 1/2/27 11/19/27 16/24/27
f 12/20/28 9/15/28 41/54/28 44/60/28
f 20/28/29 9/16/29 10/18/29 19/27/29
f 28/39/30 34/46/30 32/43/30 31/42/30
f 29/40/31 31/42/31 32/43/31 33/44/31
f 30/41/32 33/45/32 32/43/32 34/46/32
f 37/49/33 35/47/33 25/34/33 27/38/33
f 38/50/34 40/52/34 37/49/34 36/48/34
f 51/68/35 52/69/35 34/46/35 28/39/35
f 52/69/36 50/67/36 30/41/36 34/46/36
f 40/52/37 39/51/37 35/47/37 37/49/37
f 28/39/38 31/42/38 40/52/38 38/50/38
f 31/42/39 29/40/39 39/51/39 40/52/39
f 36/48/40 26/36/40 7/12/40 21/29/40
f 45/61/41 46/62/41 43/58/41 42/56/41
f 46/63/42 44/60/42 41/54/42 43/59/42
f 33/45/43 30/41/43 44/60/43 46/63/43
f 30/41/44 50/67/44 12/20/44 44/60/44
f 84/111/45 86/113/45 49/66/45 47/64/45
f 86/113/46 85/112/46 48/65/46 49/66/46
f 47/64/47 49/66/47 52/69/47 51/68/47
f 49/66/48 48/65/48 50/67/48 52/69/48
f 48/65/49 85/112/49 61/82/49 13/21/49
f 64/87/50 65/88/50 101/132/50 97/128/50
f 78/105/2 54/72/2 55/73/2 69/96/2
f 112/148/51 71/98/51 72/99/51 110/146/51
f 98/129/52 88/117/52 89/119/52 99/130/52
f 56/76/53 70/97/53 76/103/53 63/86/53
f 59/79/54 64/87/54 97/128/54 87/115/54
f 65/88/55 62/83/55 104/137/55 107/142/55
f 66/90/56 80/107/56 81/108/56 67/91/56
f 65/88/57 107/142/57 91/121/57 101/132/57
f 67/92/10 53/70/10 58/78/10 73/100/10
f 64/87/58 63/85/58 62/83/58 65/88/58
f 81/108/59 57/77/59 53/71/59 67/91/59
f 64/87/60 59/79/60 56/75/60 63/85/60
f 83/110/61 60/81/61 57/77/61 81/108/61
f 83/110/62 109/145/62 84/111/62 60/81/62
f 98/129/63 100/131/63 82/109/63 80/107/63
f 82/109/64 113/149/64 109/145/64 83/110/64
f 100/131/65 90/120/65 113/149/65 82/109/65
f 80/107/66 82/109/66 83/110/66 81/108/66
f 62/84/67 77/104/67 79/106/67 68/94/67 103/134/67 105/138/67 104/136/67
f 63/86/68 76/103/68 77/104/68 62/84/68
f 66/89/69 67/92/69 73/100/69 74/101/69
f 61/82/70 72/99/70 69/95/70 55/74/70
f 72/99/71 71/98/71 68/93/71 69/95/71
f 74/101/72 75/102/72 59/80/72 87/114/72 89/118/72 88/116/72 66/89/72
f 91/121/73 107/142/73 108/143/73 95/125/73
f 59/80/74 75/102/74 70/97/74 56/76/74
f 71/98/75 106/141/75 103/135/75 68/93/75
f 79/106/76 78/105/76 69/96/76 68/94/76
f 90/120/77 93/123/77 94/124/77 96/127/77
f 91/121/78 95/125/78 94/124/78 93/123/78
f 92/122/79 96/127/79 94/124/79 95/126/79
f 99/130/80 89/119/80 87/115/80 97/128/80
f 100/131/81 98/129/81 99/130/81 102/133/81
f 113/149/82 90/120/82 96/127/82 114/150/82
f 114/150/83 96/127/83 92/122/83 112/148/83
f 102/133/84 99/130/84 97/128/84 101/132/84
f 90/120/85 100/131/85 102/133/85 93/123/85
f 93/123/86 102/133/86 101/132/86 91/121/86
f 98/129/87 80/107/87 66/90/87 88/117/87
f 107/142/88 104/137/88 105/139/88 108/143/88
f 108/144/89 105/140/89 103/135/89 106/141/89
f 95/126/90 108/144/90 106/141/90 92/122/90
f 92/122/91 106/141/91 71/98/91 112/148/91
f 84/111/92 109/145/92 111/147/92 86/113/92
f 86/113/93 111/147/93 110/146/93 85/112/93
f 109/145/94 113/149/94 114/150/94 111/147/94
f 111/147/95 114/150/95 112/148/95 110/146/95
f 110/146/96 72/99/96 61/82/96 85/112/96
f 118/157/97 116/153/97 121/163/97 122/165/97
f 119/159/98 115/151/98 117/155/98 120/161/98
f 115/151/99 116/153/99 118/157/99 117/155/99
f 124/170/100 122/165/100 121/163/100 123/168/100
f 119/160/101 132/180/101 129/175/101 115/152/101
f 133/181/102 138/191/102 136/188/102 123/167/102
f 122/166/103 125/171/103 128/174/103 118/158/103
f 117/156/104 130/176/104 131/177/104 120/162/104
f 115/152/105 129/175/105 127/173/105 116/154/105
f 121/164/106 126/172/106 133/181/106 123/167/106
f 120/161/107 143/201/107 144/204/107 119/159/107
f 118/158/108 128/174/108 130/176/108 117/156/108
f 124/169/109 134/184/109 125/171/109 122/166/109
f 116/154/110 127/173/110 126/172/110 121/164/110
f 136/187/111 140/195/111 139/193/111 135/185/111
f 134/183/112 137/189/112 138/192/112 133/182/112
f 124/169/113 135/186/113 137/190/113 134/184/113
f 123/168/114 136/187/114 135/185/114 124/170/114
f 140/195/115 142/200/115 141/197/115 139/193/115
f 138/191/116 142/199/116 140/196/116 136/188/116
f 137/189/117 141/197/117 142/200/117 138/192/117
f 135/186/118 139/194/118 141/198/118 137/190/118
f 144/203/119 148/211/119 150/215/119 146/207/119
f 131/177/120 145/205/120 143/202/120 120/162/120
f 132/179/121 146/208/121 145/206/121 131/178/121
f 119/160/122 144/203/122 146/207/122 132/180/122
f 147/209/123 149/214/123 150/216/123 148/212/123
f 143/201/124 147/209/124 148/212/124 144/204/124
f 145/205/125 149/213/125 147/210/125 143/202/125
f 146/208/126 150/216/126 149/214/126 145/206/126
