# Blender 3.4.1
# www.blender.org
mtllib Big_Tree_1.mtl
o Big_Tree_1
v 0.000001 1.052144 0.000000
v 0.565422 2.019573 0.410798
v -0.215967 2.155537 0.664691
v -0.698897 2.018721 0.000000
v -0.215967 2.018714 -0.664690
v 0.565422 2.155538 -0.410797
v 0.215968 4.366198 0.664691
v -0.565420 4.439557 0.410798
v -0.565420 4.439557 -0.410797
v 0.215968 4.366198 -0.664690
v 0.698898 4.439545 0.000000
v 0.000001 6.188826 0.000000
v -0.126941 1.268931 0.390692
v 0.332345 1.268908 0.241459
v 0.205405 1.951028 0.632155
v 0.664690 1.951032 0.000000
v 0.332345 1.268908 -0.241459
v -0.410800 1.268397 0.000000
v -0.537745 1.950164 0.390694
v -0.126941 1.268541 -0.390692
v -0.537745 1.899245 -0.390693
v 0.205405 1.951028 -0.632155
v 0.743149 3.169340 0.241460
v 0.743149 3.092481 -0.241460
v 0.000001 3.007740 0.781392
v 0.459292 3.092479 0.632159
v -0.743148 3.090246 0.241460
v -0.459290 3.007737 0.632159
v -0.459290 3.090244 -0.632159
v -0.743148 3.169340 -0.241460
v 0.459292 3.007742 -0.632159
v 0.000001 3.007737 -0.781392
v 0.537747 4.672384 0.390694
v -0.205403 4.672388 0.632155
v -0.664688 4.692538 0.000000
v -0.205403 4.672388 -0.632155
v 0.537747 4.672384 -0.390693
v 0.126942 5.596965 0.390692
v 0.410802 5.647508 0.000000
v -0.332343 5.647516 0.241459
v -0.332343 5.596963 -0.241459
v 0.126942 5.647518 -0.390692
v -0.000000 0.000000 -0.136977
v -0.096858 0.000000 -0.096857
v -0.136977 0.000000 0.000000
v -0.096858 0.000000 0.096857
v -0.000000 0.000000 0.136977
v 0.096857 0.000000 0.096857
v 0.136977 0.000000 0.000000
v 0.096857 0.000000 -0.096857
v -0.084649 1.376118 -0.084649
v -0.000000 1.376118 -0.119711
v -0.119711 1.376118 0.000000
v -0.084649 1.376118 0.084648
v -0.000000 1.376118 0.119711
v 0.084648 1.376118 0.084648
v 0.119711 1.376118 0.000000
v 0.084648 1.376118 -0.084648
v 0.075942 0.688059 -0.075943
v 0.107399 0.688059 0.000000
v 0.075942 0.688059 0.075943
v -0.000000 0.688059 0.107399
v -0.075943 0.688059 0.075943
v -0.107399 0.688059 0.000000
v -0.075943 0.688059 -0.075943
v -0.000000 0.688059 -0.107399
vn 0.1688 -0.8376 0.5196
vn 0.8992 -0.3410 0.2742
vn -0.4411 -0.8379 0.3216
vn -0.4412 -0.8381 -0.3209
vn 0.1693 -0.8378 -0.5191
vn 0.9615 -0.1117 0.2510
vn 0.0095 -0.1380 0.9904
vn -0.9250 -0.1195 0.3606
vn -0.6184 -0.1168 -0.7772
vn 0.5745 -0.1380 -0.8068
vn 0.8121 -0.0398 0.5822
vn -0.3086 -0.0519 0.9498
vn -0.9992 -0.0398 -0.0065
vn -0.3157 -0.0429 -0.9479
vn 0.8131 -0.0494 -0.5800
vn 0.5007 0.2225 0.8366
vn -0.6116 0.2244 0.7587
vn -0.9020 0.2347 -0.3625
vn 0.0802 0.2138 -0.9736
vn 0.9407 0.2244 -0.2543
vn 0.6894 0.5232 -0.5009
vn 0.7658 0.3226 -0.5564
vn 0.5074 0.2138 -0.8348
vn -0.3165 0.5052 -0.8029
vn -0.3244 0.3301 -0.8865
vn -0.6145 0.2340 -0.7534
vn -0.8614 0.5052 -0.0529
vn -0.9411 0.3364 -0.0352
vn -0.9064 0.2250 0.3576
vn -0.2159 0.5052 0.8355
vn -0.2586 0.3301 0.9078
vn 0.0867 0.2225 0.9711
vn 0.6658 0.5052 0.5491
vn 0.7429 0.3301 0.5824
vn 0.9407 0.2244 0.2543
vn 0.9385 0.0905 -0.3332
vn 0.8031 0.0483 -0.5939
vn 0.5961 0.0877 -0.7981
vn -0.0132 0.0877 -0.9961
vn -0.3008 0.0483 -0.9525
vn -0.5634 0.0904 -0.8212
vn -0.9527 0.0948 -0.2886
vn -0.9987 0.0501 0.0082
vn -0.9541 0.0898 0.2858
vn -0.5614 0.0856 0.8231
vn -0.3087 0.0471 0.9500
vn -0.0132 0.0877 0.9961
vn 0.5928 0.0928 0.8000
vn 0.8032 0.0508 0.5935
vn 0.9390 0.0955 0.3304
vn 0.3089 0.0326 -0.9506
vn 0.3082 -0.0740 -0.9484
vn 0.0557 -0.1290 -0.9901
vn -0.8053 0.0338 -0.5919
vn -0.8135 -0.0636 -0.5781
vn -0.9302 -0.1093 -0.3503
vn -0.8054 0.0318 0.5919
vn -0.8141 -0.0712 0.5764
vn -0.5896 -0.1380 0.7958
vn 0.3032 0.0336 0.9523
vn 0.3201 -0.0712 0.9447
vn 0.5364 -0.1193 0.8355
vn 0.9994 0.0338 -0.0054
vn 0.9977 -0.0663 0.0106
vn 0.9479 -0.1270 -0.2923
vn 0.6177 -0.3011 -0.7265
vn 0.2781 -0.4379 -0.8549
vn 0.0178 -0.3412 -0.9398
vn -0.5307 -0.3456 -0.7739
vn -0.7157 -0.4661 -0.5201
vn -0.9000 -0.3456 -0.2656
vn -0.8886 -0.3412 0.3066
vn -0.7269 -0.4383 0.5287
vn -0.4995 -0.3012 0.8123
vn 0.8818 -0.3011 -0.3630
vn 0.8990 -0.4380 -0.0000
vn 0.5463 -0.8376 -0.0000
vn -0.0727 -0.3011 0.9508
vn 0.2778 -0.4380 0.8550
vn 0.5386 -0.3410 0.7704
vn -0.0000 -1.0000 -0.0000
vn 0.9238 -0.0165 -0.3826
vn 0.3826 -0.0165 0.9238
vn -0.9238 -0.0165 0.3826
vn -0.3826 -0.0165 -0.9238
vn 0.3826 -0.0165 -0.9238
vn 0.9238 -0.0165 0.3826
vn -0.3826 -0.0165 0.9238
vn -0.9238 -0.0165 -0.3826
vn -0.9232 0.0397 -0.3824
vn -0.3824 0.0397 0.9232
vn 0.9232 0.0397 0.3824
vn 0.3824 0.0397 -0.9232
vn -0.3824 0.0397 -0.9232
vn -0.9232 0.0397 0.3824
vn 0.3824 0.0397 0.9232
vn 0.9232 0.0397 -0.3824
vt 0.948713 0.868144
vt 0.985077 0.868144
vt 0.975986 0.868144
vt 0.966895 0.868144
vt 0.957804 0.868144
vt 0.953259 0.876017
vt 0.989622 0.876017
vt 0.944168 0.876017
vt 0.980531 0.876017
vt 0.971440 0.876017
vt 0.962349 0.876017
vt 0.948713 0.883890
vt 0.939622 0.883890
vt 0.985077 0.883890
vt 0.975986 0.883890
vt 0.966895 0.883890
vt 0.957804 0.883890
vt 0.962349 0.891763
vt 0.971440 0.891763
vt 0.980531 0.891763
vt 0.944168 0.891763
vt 0.953259 0.891763
vt 0.987349 0.872081
vt 0.946440 0.872081
vt 0.955531 0.872081
vt 0.950986 0.872081
vt 0.948713 0.876017
vt 0.957804 0.876017
vt 0.964622 0.872081
vt 0.960077 0.872081
vt 0.978258 0.872081
vt 0.982804 0.872081
vt 0.985077 0.876017
vt 0.969168 0.872081
vt 0.973713 0.872081
vt 0.975986 0.876017
vt 0.966895 0.876017
vt 0.955531 0.879954
vt 0.960077 0.879954
vt 0.946440 0.879954
vt 0.950986 0.879954
vt 0.982804 0.879954
vt 0.941895 0.879954
vt 0.987349 0.879954
vt 0.973713 0.879954
vt 0.978258 0.879954
vt 0.964622 0.879954
vt 0.969168 0.879954
vt 0.953259 0.883890
vt 0.944168 0.883890
vt 0.980531 0.883890
vt 0.971440 0.883890
vt 0.962349 0.883890
vt 0.946440 0.887827
vt 0.950986 0.887827
vt 0.960077 0.887827
vt 0.955531 0.887827
vt 0.982804 0.887827
vt 0.941895 0.887827
vt 0.973713 0.887827
vt 0.978258 0.887827
vt 0.964622 0.887827
vt 0.969168 0.887827
vt 0.959909 0.549909
vt 0.959909 0.549909
vt 0.959909 0.549909
vt 0.959909 0.549909
vt 0.959909 0.549909
vt 0.959909 0.549909
vt 0.959909 0.549909
vt 0.959909 0.549909
vt 0.959909 0.549909
vt 0.959909 0.549909
vt 0.959909 0.549909
vt 0.959909 0.549909
vt 0.959909 0.549909
vt 0.959909 0.549909
vt 0.959909 0.549909
vt 0.959909 0.549909
vt 0.959909 0.549909
vt 0.959909 0.549909
vt 0.959909 0.549909
vt 0.959909 0.549909
vt 0.959909 0.549909
vt 0.959909 0.549909
vt 0.959909 0.549909
vt 0.959909 0.549909
s 0
usemtl Palette
f 1/1/1 14/26/1 13/24/1
f 2/6/2 14/25/2 16/28/2
f 1/2/3 13/23/3 18/32/3
f 1/3/4 18/31/4 20/35/4
f 1/4/5 20/34/5 17/29/5
f 2/6/6 16/28/6 23/38/6
f 3/8/7 15/27/7 25/40/7
f 4/9/8 19/33/8 27/42/8
f 5/10/9 21/36/9 29/45/9
f 6/11/10 22/37/10 31/47/10
f 2/6/11 23/38/11 26/41/11
f 3/8/12 25/40/12 28/43/12
f 4/9/13 27/42/13 30/46/13
f 5/10/14 29/45/14 32/48/14
f 6/11/15 31/47/15 24/39/15
f 7/12/16 33/49/16 38/55/16
f 8/13/17 34/50/17 40/59/17
f 9/15/18 35/51/18 41/61/18
f 10/16/19 36/52/19 42/63/19
f 11/17/20 37/53/20 39/56/20
f 39/56/21 42/62/21 12/18/21
f 39/56/22 37/53/22 42/62/22
f 37/53/23 10/16/23 42/62/23
f 42/63/24 41/60/24 12/19/24
f 42/63/25 36/52/25 41/60/25
f 36/52/26 9/15/26 41/60/26
f 41/61/27 40/58/27 12/20/27
f 41/61/28 35/51/28 40/58/28
f 35/51/29 8/14/29 40/58/29
f 40/59/30 38/54/30 12/21/30
f 40/59/31 34/50/31 38/54/31
f 34/50/32 7/12/32 38/54/32
f 38/55/33 39/57/33 12/22/33
f 38/55/34 33/49/34 39/57/34
f 33/49/35 11/17/35 39/57/35
f 24/39/36 37/53/36 11/17/36
f 24/39/37 31/47/37 37/53/37
f 31/47/38 10/16/38 37/53/38
f 32/48/39 36/52/39 10/16/39
f 32/48/40 29/45/40 36/52/40
f 29/45/41 9/15/41 36/52/41
f 30/46/42 35/51/42 9/15/42
f 30/46/43 27/42/43 35/51/43
f 27/42/44 8/14/44 35/51/44
f 28/43/45 34/50/45 8/13/45
f 28/43/46 25/40/46 34/50/46
f 25/40/47 7/12/47 34/50/47
f 26/41/48 33/49/48 7/12/48
f 26/41/49 23/38/49 33/49/49
f 23/38/50 11/17/50 33/49/50
f 31/47/51 32/48/51 10/16/51
f 31/47/52 22/37/52 32/48/52
f 22/37/53 5/10/53 32/48/53
f 29/45/54 30/46/54 9/15/54
f 29/45/55 21/36/55 30/46/55
f 21/36/56 4/9/56 30/46/56
f 27/42/57 28/44/57 8/14/57
f 27/42/58 19/33/58 28/44/58
f 19/33/59 3/7/59 28/44/59
f 25/40/60 26/41/60 7/12/60
f 25/40/61 15/27/61 26/41/61
f 15/27/62 2/6/62 26/41/62
f 23/38/63 24/39/63 11/17/63
f 23/38/64 16/28/64 24/39/64
f 16/28/65 6/11/65 24/39/65
f 17/29/66 22/37/66 6/11/66
f 17/29/67 20/34/67 22/37/67
f 20/34/68 5/10/68 22/37/68
f 20/35/69 21/36/69 5/10/69
f 20/35/70 18/31/70 21/36/70
f 18/31/71 4/9/71 21/36/71
f 18/32/72 19/33/72 4/9/72
f 18/32/73 13/23/73 19/33/73
f 13/23/74 3/7/74 19/33/74
f 16/28/75 17/30/75 6/11/75
f 16/28/76 14/25/76 17/30/76
f 14/25/77 1/5/77 17/30/77
f 13/24/78 15/27/78 3/8/78
f 13/24/79 14/26/79 15/27/79
f 14/26/80 2/6/80 15/27/80
f 44/65/81 43/64/81 50/71/81 49/70/81 48/69/81 47/68/81 46/67/81 45/66/81
f 60/81/82 59/80/82 58/79/82 57/78/82
f 62/83/83 61/82/83 56/77/83 55/76/83
f 64/85/84 63/84/84 54/75/84 53/74/84
f 66/87/85 65/86/85 51/72/85 52/73/85
f 59/80/86 66/87/86 52/73/86 58/79/86
f 61/82/87 60/81/87 57/78/87 56/77/87
f 63/84/88 62/83/88 55/76/88 54/75/88
f 65/86/89 64/85/89 53/74/89 51/72/89
f 44/65/90 45/66/90 64/85/90 65/86/90
f 46/67/91 47/68/91 62/83/91 63/84/91
f 48/69/92 49/70/92 60/81/92 61/82/92
f 50/71/93 43/64/93 66/87/93 59/80/93
f 43/64/94 44/65/94 65/86/94 66/87/94
f 45/66/95 46/67/95 63/84/95 64/85/95
f 47/68/96 48/69/96 61/82/96 62/83/96
f 49/70/97 50/71/97 59/80/97 60/81/97
