# Blender 3.4.1
# www.blender.org
mtllib Blinds__Open_.mtl
o Blinds_(Open)
v 0.819083 0.754552 0.142590
v 0.819083 0.792254 0.031818
v -0.819083 0.792254 0.031818
v -0.819083 0.754552 0.142590
v -0.819083 0.780153 0.151303
v -0.819083 0.817855 0.040531
v 0.819083 0.780153 0.151303
v 0.819083 0.817855 0.040531
v 0.819083 0.713370 0.142589
v 0.819083 0.751072 0.031818
v -0.819083 0.751072 0.031818
v -0.819083 0.713370 0.142589
v -0.819083 0.738971 0.151303
v -0.819083 0.776673 0.040531
v 0.819083 0.738971 0.151303
v 0.819083 0.776673 0.040531
v 0.819083 0.671086 0.142590
v 0.819083 0.708788 0.031818
v -0.819083 0.708788 0.031818
v -0.819083 0.671086 0.142590
v -0.819083 0.696687 0.151303
v -0.819083 0.734389 0.040531
v 0.819083 0.696687 0.151303
v 0.819083 0.734389 0.040531
v 0.819083 0.631025 0.142590
v 0.819083 0.668727 0.031818
v -0.819083 0.668727 0.031818
v -0.819083 0.631025 0.142590
v -0.819083 0.656626 0.151303
v -0.819083 0.694328 0.040531
v 0.819083 0.656626 0.151303
v 0.819083 0.694328 0.040531
v 0.819083 0.589591 0.142590
v 0.819083 0.627293 0.031818
v -0.819083 0.627293 0.031818
v -0.819083 0.589591 0.142590
v -0.819083 0.615192 0.151303
v -0.819083 0.652894 0.040531
v 0.819083 0.615192 0.151303
v 0.819083 0.652894 0.040531
v 0.819083 0.549517 0.142590
v 0.819083 0.587219 0.031818
v -0.819083 0.587219 0.031818
v -0.819083 0.549517 0.142590
v -0.819083 0.575118 0.151303
v -0.819083 0.612820 0.040531
v 0.819083 0.575118 0.151303
v 0.819083 0.612820 0.040531
v -0.866127 0.804501 -0.031125
v 0.866127 0.804501 -0.031125
v -0.866127 0.928703 -0.031125
v 0.866127 0.928703 -0.031125
v -0.866127 0.804501 0.153539
v -0.866127 0.827602 0.176640
v -0.866127 0.811267 0.169874
v 0.866127 0.827602 0.176640
v 0.866127 0.804501 0.153539
v 0.866127 0.811267 0.169874
v -0.866127 0.905602 0.176640
v -0.866127 0.928703 0.153539
v -0.866127 0.921937 0.169874
v 0.866127 0.928703 0.153539
v 0.866127 0.905602 0.176640
v 0.866127 0.921937 0.169874
vn -0.0000 0.3222 -0.9467
vn -0.0000 -0.9467 -0.3222
vn -0.0000 -0.3222 0.9467
vn -1.0000 -0.0000 -0.0000
vn 1.0000 -0.0000 -0.0000
vn -0.0000 0.9467 0.3222
vn -0.0000 -0.0000 1.0000
vn -0.0000 1.0000 -0.0000
vn -0.0000 -1.0000 -0.0000
vn -0.0000 -0.3827 0.9239
vn -0.0000 -0.9239 0.3827
vn -0.0000 0.9239 0.3827
vn -0.0000 0.3827 0.9239
vt 0.285973 0.800536
vt 0.285973 0.785408
vt 0.301101 0.785408
vt 0.301101 0.800536
vt 0.301101 0.800536
vt 0.301101 0.785408
vt 0.285973 0.800536
vt 0.285973 0.785408
vt 0.285973 0.800536
vt 0.285973 0.785408
vt 0.301101 0.785408
vt 0.301101 0.800536
vt 0.301101 0.800536
vt 0.301101 0.785408
vt 0.285973 0.800536
vt 0.285973 0.785408
vt 0.285973 0.800536
vt 0.285973 0.785408
vt 0.301101 0.785408
vt 0.301101 0.800536
vt 0.301101 0.800536
vt 0.301101 0.785408
vt 0.285973 0.800536
vt 0.285973 0.785408
vt 0.285973 0.800536
vt 0.285973 0.785408
vt 0.301101 0.785408
vt 0.301101 0.800536
vt 0.301101 0.800536
vt 0.301101 0.785408
vt 0.285973 0.800536
vt 0.285973 0.785408
vt 0.285973 0.800536
vt 0.285973 0.785408
vt 0.301101 0.785408
vt 0.301101 0.800536
vt 0.301101 0.800536
vt 0.301101 0.785408
vt 0.285973 0.800536
vt 0.285973 0.785408
vt 0.285973 0.800536
vt 0.285973 0.785408
vt 0.301101 0.785408
vt 0.301101 0.800536
vt 0.301101 0.800536
vt 0.301101 0.785408
vt 0.285973 0.800536
vt 0.285973 0.785408
vt 0.131963 0.946397
vt 0.116835 0.946397
vt 0.131963 0.946397
vt 0.116835 0.946397
vt 0.131963 0.959238
vt 0.131963 0.961525
vt 0.131963 0.961302
vt 0.116835 0.961525
vt 0.116835 0.959238
vt 0.116835 0.961302
vt 0.131963 0.961525
vt 0.131963 0.959238
vt 0.131963 0.961302
vt 0.116835 0.959238
vt 0.116835 0.961525
vt 0.116835 0.961302
s 0
usemtl Palette
f 8/8/1 2/2/1 3/3/1 6/6/1
f 2/2/2 1/1/2 4/4/2 3/3/2
f 5/5/3 4/4/3 1/1/3 7/7/3
f 6/6/4 3/3/4 4/4/4 5/5/4
f 7/7/5 1/1/5 2/2/5 8/8/5
f 8/8/6 6/6/6 5/5/6 7/7/6
f 16/16/1 10/10/1 11/11/1 14/14/1
f 10/10/2 9/9/2 12/12/2 11/11/2
f 13/13/3 12/12/3 9/9/3 15/15/3
f 14/14/4 11/11/4 12/12/4 13/13/4
f 15/15/5 9/9/5 10/10/5 16/16/5
f 16/16/6 14/14/6 13/13/6 15/15/6
f 24/24/1 18/18/1 19/19/1 22/22/1
f 18/18/2 17/17/2 20/20/2 19/19/2
f 21/21/3 20/20/3 17/17/3 23/23/3
f 22/22/4 19/19/4 20/20/4 21/21/4
f 23/23/5 17/17/5 18/18/5 24/24/5
f 24/24/6 22/22/6 21/21/6 23/23/6
f 32/32/1 26/26/1 27/27/1 30/30/1
f 26/26/2 25/25/2 28/28/2 27/27/2
f 29/29/3 28/28/3 25/25/3 31/31/3
f 30/30/4 27/27/4 28/28/4 29/29/4
f 31/31/5 25/25/5 26/26/5 32/32/5
f 32/32/6 30/30/6 29/29/6 31/31/6
f 40/40/1 34/34/1 35/35/1 38/38/1
f 34/34/2 33/33/2 36/36/2 35/35/2
f 37/37/3 36/36/3 33/33/3 39/39/3
f 38/38/4 35/35/4 36/36/4 37/37/4
f 39/39/5 33/33/5 34/34/5 40/40/5
f 40/40/6 38/38/6 37/37/6 39/39/6
f 48/48/1 42/42/1 43/43/1 46/46/1
f 42/42/2 41/41/2 44/44/2 43/43/2
f 45/45/3 44/44/3 41/41/3 47/47/3
f 46/46/4 43/43/4 44/44/4 45/45/4
f 47/47/5 41/41/5 42/42/5 48/48/5
f 48/48/6 46/46/6 45/45/6 47/47/6
f 56/56/7 63/63/7 59/59/7 54/54/7
f 52/52/8 51/51/8 60/60/8 62/62/8
f 50/50/9 57/57/9 53/53/9 49/49/9
f 50/50/5 52/52/5 62/62/5 64/64/5 63/63/5 56/56/5 58/58/5 57/57/5
f 56/56/10 54/54/10 55/55/10 58/58/10
f 58/58/11 55/55/11 53/53/11 57/57/11
f 62/62/12 60/60/12 61/61/12 64/64/12
f 64/64/13 61/61/13 59/59/13 63/63/13
f 53/53/4 55/55/4 54/54/4 59/59/4 61/61/4 60/60/4 51/51/4 49/49/4
