# Blender 3.4.1
# www.blender.org
mtllib Book__Open_.mtl
o Book_(Open)
v 0.275505 -0.018168 -0.159930
v 0.275505 -0.018168 0.161339
v 0.275505 -0.031666 -0.159930
v 0.275505 -0.031666 0.161339
v 0.247160 -0.018168 -0.127473
v 0.247160 -0.018168 0.128882
v 0.282820 -0.034081 -0.166113
v 0.282820 -0.034081 0.167523
v 0.282820 -0.025086 -0.166113
v 0.282820 -0.025086 0.167523
v 0.125417 -0.020090 0.151879
v 0.125417 -0.020090 -0.150469
v 0.267507 -0.020090 -0.150469
v 0.267507 -0.020090 0.151879
v 0.267507 -0.000977 -0.150469
v 0.267507 -0.000977 0.151879
v 0.125417 0.003834 0.151879
v 0.125417 0.003834 -0.150469
v 0.063194 -0.020090 0.151879
v 0.028823 -0.020090 0.151879
v 0.028823 -0.020090 -0.150469
v 0.063194 -0.020090 -0.150469
v 0.028855 0.011502 0.151879
v 0.063190 0.017112 0.151879
v 0.063190 0.017112 -0.150469
v 0.028855 0.011502 -0.150469
v 0.000000 -0.018168 -0.159930
v -0.275505 -0.018168 -0.159930
v -0.275505 -0.018168 0.161339
v 0.000000 -0.018168 0.161339
v -0.275505 -0.031666 -0.159930
v -0.275505 -0.031666 0.161339
v 0.000000 -0.031666 -0.159930
v 0.000000 -0.031666 0.161339
v -0.247160 -0.018168 -0.127473
v -0.247160 -0.018168 0.128882
v 0.000000 -0.018168 -0.127473
v 0.000000 -0.018168 0.128882
v -0.282820 -0.034081 -0.166113
v -0.282820 -0.034081 0.167523
v -0.282820 -0.025086 -0.166113
v -0.282820 -0.025086 0.167523
v 0.000000 -0.025086 0.167523
v 0.000000 -0.025086 -0.166113
v 0.000000 -0.034081 0.167523
v 0.000000 -0.034081 -0.166113
v -0.125417 -0.020090 0.151879
v -0.125417 -0.020090 -0.150469
v -0.267507 -0.020090 -0.150469
v -0.267507 -0.020090 0.151879
v 0.000000 -0.020090 -0.150469
v 0.000000 -0.020090 0.151879
v -0.267507 -0.000977 -0.150469
v -0.267507 -0.000977 0.151879
v 0.000000 -0.001809 -0.150469
v 0.000000 -0.001809 0.151879
v -0.125417 0.003834 0.151879
v -0.125417 0.003834 -0.150469
v -0.063194 -0.020090 0.151879
v -0.028823 -0.020090 0.151879
v -0.028823 -0.020090 -0.150469
v -0.063194 -0.020090 -0.150469
v -0.028855 0.011502 0.151879
v -0.063190 0.017112 0.151879
v -0.063190 0.017112 -0.150469
v -0.028855 0.011502 -0.150469
vn -0.0000 -1.0000 -0.0000
vn 1.0000 -0.0000 -0.0000
vn -0.0000 -0.0000 -1.0000
vn -0.0000 -0.0000 1.0000
vn 0.2087 0.9780 -0.0000
vn -0.0000 1.0000 -0.0000
vn 0.0338 0.9994 -0.0000
vn -0.4189 0.9080 -0.0000
vn -0.1612 0.9869 -0.0000
vn -1.0000 -0.0000 -0.0000
vn -0.2087 0.9780 -0.0000
vn -0.0338 0.9994 -0.0000
vn 0.4189 0.9080 -0.0000
vn 0.1612 0.9869 -0.0000
vt 0.363876 0.872697
vt 0.363876 0.872697
vt 0.363876 0.872697
vt 0.363876 0.872697
vt 0.363876 0.872697
vt 0.363876 0.872697
vt 0.363876 0.872697
vt 0.363876 0.872697
vt 0.363876 0.872697
vt 0.363876 0.872697
vt 0.047732 0.877172
vt 0.047732 0.877172
vt 0.047732 0.877172
vt 0.047732 0.877172
vt 0.047732 0.877172
vt 0.047732 0.877172
vt 0.047732 0.877172
vt 0.047732 0.877172
vt 0.047732 0.877172
vt 0.047732 0.877172
vt 0.047732 0.877172
vt 0.047732 0.877172
vt 0.047732 0.877172
vt 0.047732 0.877172
vt 0.047732 0.877172
vt 0.047732 0.877172
vt 0.363876 0.872698
vt 0.363876 0.872697
vt 0.363876 0.872697
vt 0.363876 0.872698
vt 0.363876 0.872697
vt 0.363876 0.872697
vt 0.363876 0.872697
vt 0.363876 0.872697
vt 0.363876 0.872697
vt 0.363876 0.872697
vt 0.363876 0.872698
vt 0.363876 0.872698
vt 0.363876 0.872697
vt 0.363876 0.872697
vt 0.363876 0.872697
vt 0.363876 0.872697
vt 0.363876 0.872697
vt 0.363876 0.872697
vt 0.363876 0.872697
vt 0.363876 0.872697
vt 0.047732 0.877172
vt 0.047732 0.877172
vt 0.047732 0.877172
vt 0.047732 0.877172
vt 0.047732 0.877172
vt 0.047732 0.877172
vt 0.047732 0.877172
vt 0.047732 0.877172
vt 0.047732 0.877172
vt 0.047732 0.877172
vt 0.047732 0.877172
vt 0.047732 0.877172
vt 0.047732 0.877172
vt 0.047732 0.877172
vt 0.047732 0.877172
vt 0.047732 0.877172
vt 0.047732 0.877172
vt 0.047732 0.877172
vt 0.047732 0.877172
vt 0.047732 0.877172
s 0
usemtl Palette
f 4/4/1 34/34/1 33/33/1 3/3/1
f 1/1/2 2/2/2 4/4/2 3/3/2
f 27/27/3 1/1/3 3/3/3 33/33/3
f 2/2/4 30/30/4 34/34/4 4/4/4
f 24/24/4 19/19/4 11/11/4 17/17/4
f 55/55/3 26/26/3 21/21/3 51/51/3
f 24/24/5 17/17/5 18/18/5 25/25/5
f 2/2/6 1/1/6 5/5/6 6/6/6
f 30/30/6 2/2/6 6/6/6 38/38/6
f 1/1/6 27/27/6 37/37/6 5/5/6
f 10/10/6 9/9/6 44/44/6 43/43/6
f 7/7/2 9/9/2 10/10/2 8/8/2
f 8/8/4 10/10/4 43/43/4 45/45/4
f 46/46/3 44/44/3 9/9/3 7/7/3
f 45/45/1 46/46/1 7/7/1 8/8/1
f 16/16/2 14/14/2 13/13/2 15/15/2
f 18/18/3 15/15/3 13/13/3 12/12/3
f 17/17/4 11/11/4 14/14/4 16/16/4
f 17/17/7 16/16/7 15/15/7 18/18/7
f 25/25/3 18/18/3 12/12/3 22/22/3
f 56/56/8 23/23/8 26/26/8 55/55/8
f 24/24/9 25/25/9 26/26/9 23/23/9
f 19/19/4 24/24/4 23/23/4 20/20/4
f 25/25/3 22/22/3 21/21/3 26/26/3
f 56/56/4 52/52/4 20/20/4 23/23/4
f 32/32/1 31/31/1 33/33/1 34/34/1
f 28/28/10 31/31/10 32/32/10 29/29/10
f 27/27/3 33/33/3 31/31/3 28/28/3
f 29/29/4 32/32/4 34/34/4 30/30/4
f 64/64/4 57/57/4 47/47/4 59/59/4
f 55/55/3 51/51/3 61/61/3 66/66/3
f 64/64/11 65/65/11 58/58/11 57/57/11
f 29/29/6 36/36/6 35/35/6 28/28/6
f 30/30/6 38/38/6 36/36/6 29/29/6
f 28/28/6 35/35/6 37/37/6 27/27/6
f 42/42/6 43/43/6 44/44/6 41/41/6
f 39/39/10 40/40/10 42/42/10 41/41/10
f 40/40/4 45/45/4 43/43/4 42/42/4
f 46/46/3 39/39/3 41/41/3 44/44/3
f 45/45/1 40/40/1 39/39/1 46/46/1
f 54/54/10 53/53/10 49/49/10 50/50/10
f 58/58/3 48/48/3 49/49/3 53/53/3
f 57/57/4 54/54/4 50/50/4 47/47/4
f 57/57/12 58/58/12 53/53/12 54/54/12
f 65/65/3 62/62/3 48/48/3 58/58/3
f 56/56/13 55/55/13 66/66/13 63/63/13
f 64/64/14 63/63/14 66/66/14 65/65/14
f 59/59/4 60/60/4 63/63/4 64/64/4
f 65/65/3 66/66/3 61/61/3 62/62/3
f 56/56/4 63/63/4 60/60/4 52/52/4
