# Blender 3.4.1
# www.blender.org
mtllib Box_Ac.mtl
o Box_Ac
v -0.005000 -0.003177 -0.325000
v -0.005000 -0.003177 0.325000
v -0.005000 0.003177 -0.325000
v -0.005000 0.003177 0.325000
v 0.342181 -0.003177 -0.307689
v 0.342181 -0.003177 0.307689
v 0.342181 0.003177 -0.307689
v 0.342181 0.003177 0.307689
vn -0.0000 1.0000 -0.0000
vn 0.0498 -0.0000 -0.9988
vn 0.0498 -0.0000 0.9988
vn -1.0000 -0.0000 -0.0000
vn 1.0000 -0.0000 -0.0000
vn -0.0000 -1.0000 -0.0000
vt 0.533882 0.714380
vt 0.533882 0.699358
vt 0.533882 0.714380
vt 0.533882 0.699358
vt 0.534289 0.713972
vt 0.534289 0.699766
vt 0.534289 0.713972
vt 0.534289 0.699766
s 0
usemtl Palette
f 4/4/1 8/8/1 7/7/1 3/3/1
f 3/3/2 7/7/2 5/5/2 1/1/2
f 2/2/3 6/6/3 8/8/3 4/4/3
f 1/1/4 2/2/4 4/4/4 3/3/4
f 6/6/5 5/5/5 7/7/5 8/8/5
f 1/1/6 5/5/6 6/6/6 2/2/6
