# Blender 3.4.1
# www.blender.org
mtllib Box.mtl
o Box
v -0.325000 0.000000 0.325000
v 0.325000 0.000000 0.325000
v -0.325000 0.000000 -0.325000
v 0.325000 0.000000 -0.325000
v -0.307364 0.652048 -0.307364
v -0.307364 0.652048 0.307364
v 0.307364 0.652048 0.307364
v 0.307364 0.652048 -0.307364
v -0.325000 0.652048 -0.325000
v -0.325000 0.652048 0.325000
v 0.325000 0.652048 0.325000
v 0.325000 0.652048 -0.325000
v -0.307364 0.020724 -0.307364
v -0.307364 0.020724 0.307364
v 0.307364 0.020724 0.307364
v 0.307364 0.020724 -0.307364
vn -0.0000 -1.0000 -0.0000
vn 1.0000 -0.0000 -0.0000
vn -0.0000 -0.0000 -1.0000
vn -0.0000 -0.0000 1.0000
vn -1.0000 -0.0000 -0.0000
vn -0.0000 1.0000 -0.0000
vt 0.533882 0.699358
vt 0.548903 0.699358
vt 0.533882 0.714380
vt 0.548903 0.714380
vt 0.534289 0.713972
vt 0.616085 0.719105
vt 0.534289 0.699766
vt 0.616085 0.704898
vt 0.548495 0.699766
vt 0.630291 0.704898
vt 0.548495 0.713972
vt 0.630291 0.719105
vt 0.533882 0.714380
vt 0.533882 0.699358
vt 0.548903 0.699358
vt 0.548903 0.714380
vt 0.716522 0.720114
vt 0.616085 0.719105
vt 0.716522 0.705908
vt 0.616085 0.704898
vt 0.730728 0.705908
vt 0.630291 0.704898
vt 0.730728 0.720114
vt 0.630291 0.719105
s 0
usemtl Palette
f 1/1/1 3/3/1 4/4/1 2/2/1
f 5/6/2 6/8/2 14/20/2 13/18/2
f 4/4/3 3/3/3 9/13/3 12/16/3
f 1/1/4 2/2/4 11/15/4 10/14/4
f 2/2/2 4/4/2 12/16/2 11/15/2
f 3/3/5 1/1/5 10/14/5 9/13/5
f 6/7/6 5/5/6 9/13/6 10/14/6
f 7/9/6 6/7/6 10/14/6 11/15/6
f 8/11/6 7/9/6 11/15/6 12/16/6
f 5/5/6 8/11/6 12/16/6 9/13/6
f 14/19/6 15/21/6 16/23/6 13/17/6
f 8/12/4 5/6/4 13/18/4 16/24/4
f 6/8/3 7/10/3 15/22/3 14/20/3
f 7/10/5 8/12/5 16/24/5 15/22/5
