# Blender 3.4.1
# www.blender.org
mtllib Bread_Slice.mtl
o Bread_Slice
v -0.009149 -0.062861 -0.000000
v 0.009146 -0.062861 -0.000000
v -0.009149 -0.062861 0.046573
v -0.009149 -0.046574 0.062860
v -0.009149 -0.061044 0.055082
v -0.009149 -0.055083 0.061044
v -0.009149 -0.046574 -0.062861
v -0.009149 -0.062861 -0.046574
v -0.009149 -0.055083 -0.061044
v -0.009149 -0.061044 -0.055083
v -0.009149 0.043609 0.062860
v -0.009149 0.059896 0.046573
v -0.009149 0.052118 0.061044
v -0.009149 0.058079 0.055082
v -0.009149 0.059896 -0.046574
v -0.009149 0.043609 -0.062861
v -0.009149 0.058079 -0.055083
v -0.009149 0.052118 -0.061044
v 0.009146 0.059896 0.046573
v 0.009146 0.043609 0.062860
v 0.009146 0.058079 0.055082
v 0.009146 0.052118 0.061044
v 0.009146 -0.046574 0.062860
v 0.009146 -0.062861 0.046573
v 0.009146 -0.055083 0.061044
v 0.009146 -0.061044 0.055082
v 0.009146 -0.062861 -0.046574
v 0.009146 -0.046574 -0.062861
v 0.009146 -0.061044 -0.055083
v 0.009146 -0.055083 -0.061044
v 0.009146 0.043609 -0.062861
v 0.009146 0.059896 -0.046574
v 0.009146 0.052118 -0.061044
v 0.009146 0.058079 -0.055083
v -0.009149 0.061569 0.020286
v -0.009149 0.061569 -0.020287
v 0.009146 0.061569 -0.020287
v 0.009146 0.061569 0.020286
vn 1.0000 -0.0000 -0.0000
vn -0.0000 -1.0000 -0.0000
vn -0.0000 -0.0000 -1.0000
vn -1.0000 -0.0000 -0.0000
vn -0.0000 0.9780 -0.2088
vn -0.0000 0.7071 -0.7071
vn -0.0000 0.2088 -0.9780
vn -0.0000 -0.9780 -0.2088
vn -0.0000 -0.7071 -0.7071
vn -0.0000 -0.2088 -0.9780
vn -0.0000 -0.9780 0.2088
vn -0.0000 -0.7071 0.7071
vn -0.0000 -0.2088 0.9780
vn -0.0000 0.9780 0.2088
vn -0.0000 0.7071 0.7071
vn -0.0000 0.2088 0.9780
vn -0.0000 0.9980 -0.0635
vn -0.0000 -0.0000 1.0000
vn -0.0000 1.0000 -0.0000
vn -0.0000 0.9980 0.0635
vt 0.878109 0.936881
vt 0.466967 0.613398
vt 0.466967 0.613398
vt 0.878109 0.936881
vt 0.455044 0.613398
vt 0.866186 0.936881
vt 0.450618 0.617823
vt 0.861761 0.941306
vt 0.452882 0.613602
vt 0.864025 0.937084
vt 0.450822 0.615662
vt 0.861964 0.939145
vt 0.483315 0.617823
vt 0.894458 0.941306
vt 0.478890 0.613398
vt 0.890032 0.936881
vt 0.483111 0.615662
vt 0.894254 0.939145
vt 0.481051 0.613602
vt 0.892193 0.937084
vt 0.450618 0.641670
vt 0.861761 0.965152
vt 0.455043 0.646095
vt 0.866186 0.969578
vt 0.450822 0.643831
vt 0.861964 0.967313
vt 0.452882 0.645891
vt 0.864025 0.969374
vt 0.478890 0.646095
vt 0.890032 0.969578
vt 0.483315 0.641670
vt 0.894458 0.965152
vt 0.481051 0.645891
vt 0.892193 0.969374
vt 0.483111 0.643831
vt 0.894254 0.967313
vt 0.455044 0.646095
vt 0.866186 0.969578
vt 0.450618 0.641669
vt 0.861761 0.965152
vt 0.452882 0.645891
vt 0.864025 0.969374
vt 0.450822 0.643831
vt 0.861964 0.967313
vt 0.450618 0.617823
vt 0.861761 0.941306
vt 0.455044 0.613398
vt 0.866186 0.936881
vt 0.450822 0.615662
vt 0.861964 0.939145
vt 0.452882 0.613602
vt 0.864025 0.937084
vt 0.478890 0.613398
vt 0.890032 0.936881
vt 0.483315 0.617823
vt 0.894458 0.941306
vt 0.481051 0.613602
vt 0.892193 0.937084
vt 0.483111 0.615662
vt 0.894254 0.939145
vt 0.483315 0.641670
vt 0.894458 0.965152
vt 0.478890 0.646095
vt 0.890032 0.969578
vt 0.483111 0.643831
vt 0.894254 0.967313
vt 0.481051 0.645891
vt 0.892193 0.969374
vt 0.461773 0.646095
vt 0.872916 0.969578
vt 0.472160 0.646095
vt 0.883303 0.969578
vt 0.472160 0.646095
vt 0.883303 0.969578
vt 0.461773 0.646095
vt 0.872916 0.969578
s 0
usemtl Palette
f 2/3/1 27/53/1 29/57/1 30/59/1 28/55/1 31/61/1 33/65/1 34/67/1 32/63/1 37/73/1 38/75/1 19/37/1 21/41/1 22/43/1 20/39/1 23/45/1 25/49/1 26/51/1 24/47/1
f 3/6/2 1/1/2 2/4/2 24/48/2
f 16/32/3 31/62/3 28/56/3 7/14/3
f 1/1/2 8/16/2 27/54/2 2/4/2
f 35/69/4 36/71/4 15/29/4 17/33/4 18/35/4 16/31/4 7/13/4 9/17/4 10/19/4 8/15/4 1/2/4 3/5/4 5/9/4 6/11/4 4/7/4 11/21/4 13/25/4 14/27/4 12/23/4
f 15/30/5 32/64/5 34/68/5 17/34/5
f 17/34/6 34/68/6 33/66/6 18/36/6
f 18/36/7 33/66/7 31/62/7 16/32/7
f 27/54/8 8/16/8 10/20/8 29/58/8
f 29/58/9 10/20/9 9/18/9 30/60/9
f 30/60/10 9/18/10 7/14/10 28/56/10
f 3/6/11 24/48/11 26/52/11 5/10/11
f 5/10/12 26/52/12 25/50/12 6/12/12
f 6/12/13 25/50/13 23/46/13 4/8/13
f 19/38/14 12/24/14 14/28/14 21/42/14
f 21/42/15 14/28/15 13/26/15 22/44/15
f 22/44/16 13/26/16 11/22/16 20/40/16
f 15/30/17 36/72/17 37/74/17 32/64/17
f 4/8/18 23/46/18 20/40/18 11/22/18
f 35/70/19 38/76/19 37/74/19 36/72/19
f 35/70/20 12/24/20 19/38/20 38/76/20
