# Blender 3.4.1
# www.blender.org
mtllib Bush.mtl
o Bush
v 0.382915 0.314241 -0.012955
v -0.287120 0.316611 -0.229521
v -0.316789 0.349858 0.177810
v 0.042472 0.237754 0.383914
v -0.085942 0.037392 -0.306681
v -0.337821 0.075127 -0.101442
v -0.101794 0.023876 0.290138
v 0.119539 -0.008176 -0.087830
v 0.008511 0.542435 -0.005521
v -0.135198 0.358324 0.301133
v 0.340768 0.074032 -0.001712
v -0.231442 0.196261 -0.328933
v 0.231203 0.076671 -0.265263
v -0.252777 0.207030 0.294701
v -0.203800 0.004759 0.000186
v 0.240698 0.476700 -0.017037
v 0.272909 0.341383 0.186632
v 0.049321 0.469026 0.191686
v 0.299848 0.339122 -0.202736
v -0.392855 0.209639 0.099410
v 0.390165 0.184774 -0.122403
v 0.049237 0.228661 -0.387229
v 0.236041 0.189138 -0.310913
v 0.264651 0.057996 0.173983
v 0.100439 0.052356 0.309493
v -0.375201 0.197792 -0.139674
v -0.105948 0.339826 -0.325356
v -0.351700 0.363462 -0.027905
v -0.283745 0.074453 0.182567
v 0.381648 0.191377 0.113822
v 0.220334 0.189898 0.311056
v -0.196522 0.491066 0.105744
v -0.169797 0.470088 -0.136061
v 0.083338 0.472067 -0.202001
vn 0.7400 -0.2800 -0.6115
vn 0.1437 -0.9754 0.1669
vn 0.3541 0.5916 0.7243
vn -0.0761 -0.9880 -0.1343
vn -0.5599 -0.5937 -0.5780
vn -0.4358 0.6750 0.5954
vn -0.1637 -0.2823 -0.9452
vn 0.7806 -0.5550 0.2875
vn -0.0347 -0.3816 0.9237
vn -0.6219 0.6951 -0.3607
vn -0.2584 -0.2364 0.9367
vn 0.7212 -0.3678 0.5871
vn -0.0201 -0.9971 0.0728
vn -0.8130 -0.5617 0.1535
vn -0.9502 -0.3067 -0.0550
vn 0.1062 0.5927 -0.7984
vn 0.7338 0.6364 -0.2378
vn 0.2535 0.9373 -0.2391
vn 0.4733 0.7732 -0.4221
vn 0.3301 0.5419 -0.7729
vn -0.1036 0.9232 -0.3701
vn -0.1614 0.7867 -0.5958
vn -0.4084 0.6818 -0.6069
vn -0.8588 0.3646 -0.3598
vn -0.9776 0.1939 -0.0818
vn -0.9033 0.3899 0.1791
vn -0.8066 0.1132 0.5801
vn -0.7800 -0.2878 0.5557
vn -0.5428 -0.4649 0.6995
vn -0.5193 -0.8491 0.0969
vn -0.3649 -0.9118 0.1885
vn 0.4400 0.4739 0.7628
vn 0.7496 0.2449 0.6149
vn 0.8235 0.4033 0.3990
vn -0.5315 0.3809 0.7565
vn -0.3022 0.1952 0.9330
vn -0.2998 0.9470 -0.1153
vn -0.5588 0.8186 -0.1328
vn -0.7075 0.6871 0.1655
vn 0.3009 -0.2727 0.9138
vn 0.5622 -0.4976 0.6606
vn 0.9990 0.0261 0.0353
vn 0.9293 -0.3668 0.0438
vn 0.7059 -0.6417 -0.2999
vn -0.2225 0.2182 -0.9502
vn -0.4651 0.4259 -0.7761
vn -0.0407 0.9336 0.3560
vn -0.1328 0.8000 0.5852
vn 0.0739 0.6362 0.7680
vn -0.7890 0.1309 -0.6003
vn -0.7328 -0.3958 -0.5534
vn -0.3175 -0.9224 -0.2200
vn 0.2828 -0.3712 -0.8845
vn 0.1720 -0.4831 -0.8585
vn 0.2742 0.9184 0.2851
vn 0.4520 0.7743 0.4429
vn 0.7123 0.6313 0.3068
vn 0.1594 -0.9259 -0.3424
vn 0.1278 -0.9852 0.1139
vn 0.8780 0.3367 -0.3402
vn 0.7696 0.1243 -0.6263
vn 0.4179 0.4077 -0.8118
vn 0.4024 -0.8983 -0.1763
vn 0.3285 -0.9428 0.0562
vt 0.957804 0.883890
vt 0.975986 0.883890
vt 0.939622 0.883890
vt 0.985077 0.883890
vt 0.947296 0.881436
vt 0.972031 0.874994
vt 0.970850 0.874994
vt 0.978587 0.876017
vt 0.988875 0.874724
vt 0.944914 0.874724
vt 0.948713 0.868144
vt 0.975986 0.868144
vt 0.985077 0.868144
vt 0.965266 0.870965
vt 0.959433 0.870965
vt 0.962349 0.891763
vt 0.971440 0.891763
vt 0.980531 0.891763
vt 0.944168 0.891763
vt 0.953259 0.891763
vt 0.944168 0.883890
vt 0.957804 0.876017
vt 0.973713 0.879954
vt 0.964119 0.876017
vt 0.987349 0.879954
vt 0.941895 0.879954
vt 0.982804 0.872081
vt 0.978258 0.872081
vt 0.960077 0.887827
vt 0.955531 0.887827
vt 0.953259 0.883890
vt 0.946440 0.887827
vt 0.950986 0.887827
vt 0.962349 0.883890
vt 0.982804 0.879954
vt 0.960077 0.879954
vt 0.968437 0.881219
vt 0.964622 0.879954
vt 0.952676 0.875008
vt 0.953841 0.875008
vt 0.948713 0.876017
vt 0.978258 0.879954
vt 0.971440 0.883890
vt 0.980531 0.883890
vt 0.985077 0.876017
vt 0.955531 0.879954
vt 0.950986 0.879954
vt 0.982804 0.887827
vt 0.941895 0.887827
vt 0.973713 0.887827
vt 0.978258 0.887827
vt 0.964622 0.887827
vt 0.969168 0.887827
s 0
usemtl Palette
f 13/24/1 23/38/1 21/36/1
f 8/11/2 24/39/2 7/10/2
f 4/5/3 17/31/3 18/33/3
f 8/12/4 15/28/4 5/6/4
f 5/6/5 6/8/5 12/23/5
f 3/3/6 10/21/6 32/49/6
f 5/6/7 12/23/7 22/37/7
f 24/40/8 11/22/8 30/46/8
f 7/10/9 25/41/9 4/5/9
f 2/2/10 28/44/10 33/51/10
f 7/10/11 4/5/11 14/26/11
f 24/40/12 30/46/12 31/47/12
f 8/13/13 7/9/13 15/27/13
f 6/8/14 29/45/14 20/35/14
f 6/8/15 20/35/15 26/42/15
f 22/37/16 27/43/16 34/53/16
f 1/1/17 19/34/17 16/29/17
f 16/29/18 34/52/18 9/16/18
f 16/29/19 19/34/19 34/52/19
f 19/34/20 22/37/20 34/52/20
f 34/53/21 33/50/21 9/17/21
f 34/53/22 27/43/22 33/50/22
f 27/43/23 2/2/23 33/50/23
f 26/42/24 28/44/24 2/2/24
f 26/42/25 20/35/25 28/44/25
f 20/35/26 3/4/26 28/44/26
f 20/35/27 14/25/27 3/4/27
f 20/35/28 29/45/28 14/25/28
f 29/45/29 7/9/29 14/25/29
f 15/27/30 29/45/30 6/8/30
f 15/27/31 7/9/31 29/45/31
f 31/47/32 17/31/32 4/5/32
f 31/47/33 30/46/33 17/31/33
f 30/46/34 1/1/34 17/31/34
f 14/26/35 10/21/35 3/3/35
f 14/26/36 4/5/36 10/21/36
f 33/51/37 32/48/37 9/18/37
f 33/51/38 28/44/38 32/48/38
f 28/44/39 3/4/39 32/48/39
f 4/5/40 25/41/40 31/47/40
f 25/41/41 24/40/41 31/47/41
f 30/46/42 21/36/42 1/1/42
f 30/46/43 11/22/43 21/36/43
f 11/22/44 13/24/44 21/36/44
f 22/37/45 12/23/45 27/43/45
f 12/23/46 2/2/46 27/43/46
f 32/49/47 18/32/47 9/19/47
f 32/49/48 10/21/48 18/32/48
f 10/21/49 4/5/49 18/32/49
f 12/23/50 26/42/50 2/2/50
f 12/23/51 6/8/51 26/42/51
f 5/6/52 15/28/52 6/8/52
f 23/38/53 13/24/53 22/37/53
f 13/24/54 5/6/54 22/37/54
f 18/33/55 16/30/55 9/20/55
f 18/33/56 17/31/56 16/30/56
f 17/31/57 1/1/57 16/30/57
f 8/14/58 5/7/58 13/24/58
f 7/10/59 24/39/59 25/41/59
f 21/36/60 19/34/60 1/1/60
f 21/36/61 23/38/61 19/34/61
f 23/38/62 22/37/62 19/34/62
f 11/22/63 8/15/63 13/24/63
f 11/22/64 24/40/64 8/15/64
