# Blender 3.4.1
# www.blender.org
mtllib Ceiling_Lamp_1_Base.mtl
o Ceiling_Lamp_1_Base
v 0.025867 0.000405 -0.044802
v 0.044802 0.000405 -0.025866
v 0.051733 0.000405 -0.000000
v 0.044802 0.000405 0.025866
v 0.025867 0.000405 0.044802
v 0.000000 0.000405 0.051733
v -0.025866 0.000405 0.044802
v -0.044802 0.000405 0.025866
v -0.051733 0.000405 -0.000000
v -0.044802 0.000405 -0.025866
v 0.000000 0.000405 -0.051733
v -0.025866 0.000405 -0.044802
v 0.000000 -0.016047 -0.051733
v -0.025866 -0.016047 -0.044802
v -0.044802 -0.016047 -0.025866
v -0.051733 -0.016047 -0.000000
v -0.044802 -0.016047 0.025866
v -0.025866 -0.016047 0.044802
v 0.000000 -0.016047 0.051733
v 0.025867 -0.016047 0.044802
v 0.044802 -0.016047 0.025866
v 0.051733 -0.016047 -0.000000
v 0.044802 -0.016047 -0.025866
v 0.025867 -0.016047 -0.044802
v -0.053251 -0.000361 -0.015484
v -0.053251 -0.000361 0.015484
v 0.053251 -0.000361 0.015484
v 0.053251 -0.000361 -0.015484
v -0.053251 -0.065248 -0.015484
v -0.053251 -0.065248 0.015484
v 0.053251 -0.065248 0.015484
v 0.053251 -0.065248 -0.015484
v 0.043052 -0.065248 -0.015484
v 0.043052 -0.000361 -0.015484
v -0.043052 -0.000361 0.015484
v -0.043052 -0.065248 0.015484
v 0.043052 -0.000361 0.015484
v 0.043052 -0.065248 0.015484
v -0.043052 -0.000361 -0.015484
v -0.043052 -0.065248 -0.015484
vn -0.0000 -0.6532 0.7572
vn -0.0000 -0.0000 1.0000
vn -0.5000 -0.0000 0.8660
vn -0.3786 -0.6532 0.6557
vn -0.6557 -0.6532 0.3786
vn -0.8660 -0.0000 0.5000
vn -1.0000 -0.0000 -0.0000
vn -0.7572 -0.6532 -0.0000
vn -0.3786 -0.6532 -0.6557
vn -0.5000 -0.0000 -0.8660
vn -0.0000 -0.0000 -1.0000
vn -0.0000 -0.6532 -0.7572
vn -0.6557 -0.6532 -0.3786
vn -0.8660 -0.0000 -0.5000
vn 0.6557 -0.6532 -0.3786
vn 0.8660 -0.0000 -0.5000
vn 1.0000 -0.0000 -0.0000
vn 0.7572 -0.6532 -0.0000
vn 0.6557 -0.6532 0.3786
vn 0.8660 -0.0000 0.5000
vn 0.5000 -0.0000 0.8660
vn 0.3786 -0.6532 0.6557
vn 0.5000 -0.0000 -0.8660
vn 0.3786 -0.6532 -0.6557
vn -0.0000 -1.0000 -0.0000
vt 0.612758 0.799695
vt 0.616086 0.796367
vt 0.617304 0.791820
vt 0.616086 0.787274
vt 0.612758 0.783945
vt 0.608211 0.782727
vt 0.603664 0.783945
vt 0.600336 0.787274
vt 0.599118 0.791820
vt 0.600336 0.796367
vt 0.608211 0.800914
vt 0.603664 0.799695
vt 0.608211 0.800914
vt 0.603664 0.799695
vt 0.600336 0.796367
vt 0.599118 0.791820
vt 0.600336 0.787274
vt 0.603664 0.783945
vt 0.608211 0.782727
vt 0.612758 0.783945
vt 0.616086 0.787274
vt 0.617304 0.791820
vt 0.616086 0.796367
vt 0.612758 0.799695
vt 0.600336 0.796367
vt 0.600336 0.787274
vt 0.616086 0.787274
vt 0.616086 0.796367
vt 0.600336 0.796367
vt 0.600336 0.787274
vt 0.616086 0.787274
vt 0.616086 0.796367
vt 0.616086 0.796367
vt 0.616086 0.796367
vt 0.600336 0.787274
vt 0.600336 0.787274
vt 0.616086 0.787274
vt 0.616086 0.787274
vt 0.600336 0.796367
vt 0.600336 0.796367
s 1
usemtl Palette
f 19/19/1 6/6/2 7/7/3 18/18/4
f 17/17/5 8/8/6 9/9/7 16/16/8
f 14/14/9 12/12/10 11/11/11 13/13/12
f 18/18/4 7/7/3 8/8/6 17/17/5
f 15/15/13 10/10/14 12/12/10 14/14/9
f 16/16/8 9/9/7 10/10/14 15/15/13
f 23/23/15 2/2/16 3/3/17 22/22/18
f 21/21/19 4/4/20 5/5/21 20/20/22
f 20/20/22 5/5/21 6/6/2 19/19/1
f 13/13/12 11/11/11 1/1/23 24/24/24
f 22/22/18 3/3/17 4/4/20 21/21/19
f 24/24/24 1/1/23 2/2/16 23/23/15
s 0
f 13/13/25 24/24/25 23/23/25 22/22/25 21/21/25 20/20/25 19/19/25 18/18/25 17/17/25 16/16/25 15/15/25 14/14/25
f 31/31/17 32/32/17 28/28/17 27/27/17
f 35/35/17 36/36/17 40/40/17 39/39/17
f 34/34/7 33/33/7 38/38/7 37/37/7
f 29/29/25 40/40/25 36/36/25 30/30/25
f 32/32/11 33/33/11 34/34/11 28/28/11
f 31/31/25 38/38/25 33/33/25 32/32/25
f 27/27/2 37/37/2 38/38/2 31/31/2
f 25/25/11 39/39/11 40/40/11 29/29/11
f 30/30/2 36/36/2 35/35/2 26/26/2
f 29/29/7 30/30/7 26/26/7 25/25/7
