# Blender 3.4.1
# www.blender.org
mtllib Ceiling_Lamp_3.mtl
o Ceiling_Lamp_3
v -0.000000 -0.038497 -0.015810
v -0.011179 -0.038497 -0.011179
v -0.015810 -0.038497 -0.000000
v -0.011179 -0.038497 0.011179
v -0.000000 -0.038497 0.015810
v 0.011179 -0.038497 0.011179
v 0.015810 -0.038497 0.000000
v 0.011179 -0.038497 -0.011179
v -0.000000 0.151039 -0.012024
v -0.008502 0.151039 -0.008502
v -0.012024 0.151039 -0.000000
v -0.008502 0.151039 0.008502
v -0.000000 0.151039 0.012024
v 0.008502 0.151039 0.008502
v 0.012023 0.151039 0.000000
v 0.008502 0.151039 -0.008502
v 0.058550 0.034392 -0.141352
v 0.108186 0.034392 -0.108186
v 0.141352 0.034392 -0.058550
v 0.152999 0.034392 0.000000
v 0.141352 0.034392 0.058550
v 0.108186 0.034392 0.108186
v 0.058550 0.034392 0.141352
v 0.000000 0.034392 0.152999
v -0.058550 0.034392 0.141352
v -0.108186 0.034392 0.108186
v -0.141352 0.034392 0.058550
v -0.141352 0.034392 -0.058550
v -0.152999 0.034392 -0.000000
v -0.108186 0.034392 -0.108186
v -0.000000 0.034392 -0.152999
v -0.058550 0.034392 -0.141352
v 0.064284 0.034392 -0.155195
v 0.118781 0.034392 -0.118781
v 0.155195 0.034392 -0.064284
v 0.167982 0.034392 0.000000
v 0.155195 0.034392 0.064284
v 0.118781 0.034392 0.118781
v 0.064284 0.034392 0.155195
v 0.000000 0.034392 0.167982
v -0.064284 0.034392 0.155195
v -0.118781 0.034392 0.118781
v -0.155195 0.034392 0.064284
v -0.155195 0.034392 -0.064284
v -0.167982 0.034392 -0.000000
v -0.118781 0.034392 -0.118781
v -0.000000 0.034392 -0.167982
v -0.064284 0.034392 -0.155195
v -0.058550 -0.114801 -0.141352
v -0.000000 -0.114801 -0.152999
v -0.108186 -0.114801 -0.108186
v -0.152999 -0.114801 -0.000000
v -0.141352 -0.114801 -0.058550
v -0.141352 -0.114801 0.058550
v -0.108186 -0.114801 0.108186
v -0.058550 -0.114801 0.141352
v 0.000000 -0.114801 0.152999
v 0.058550 -0.114801 0.141352
v 0.108186 -0.114801 0.108186
v 0.141352 -0.114801 0.058550
v 0.152999 -0.114801 0.000000
v 0.141352 -0.114801 -0.058550
v 0.108186 -0.114801 -0.108186
v 0.058550 -0.114801 -0.141352
v -0.064284 -0.114801 -0.155195
v -0.000000 -0.114801 -0.167982
v -0.118781 -0.114801 -0.118781
v -0.167982 -0.114801 -0.000000
v -0.155195 -0.114801 -0.064284
v -0.155195 -0.114801 0.064284
v -0.118781 -0.114801 0.118781
v -0.064284 -0.114801 0.155195
v 0.000000 -0.114801 0.167982
v 0.064284 -0.114801 0.155195
v 0.118781 -0.114801 0.118781
v 0.155195 -0.114801 0.064284
v 0.167982 -0.114801 0.000000
v 0.155195 -0.114801 -0.064284
v 0.118781 -0.114801 -0.118781
v 0.064284 -0.114801 -0.155195
v -0.005827 -0.021768 0.160246
v 0.006879 -0.021768 0.160246
v -0.005827 -0.021768 0.007122
v -0.005827 -0.029485 0.007122
v -0.005827 -0.029485 0.160246
v 0.006879 -0.029485 0.160246
v -0.005827 -0.021768 -0.158705
v 0.006879 -0.021768 -0.158705
v -0.005827 -0.029485 -0.158705
v 0.006879 -0.029485 -0.158705
v 0.160002 -0.021768 0.007123
v 0.160002 -0.021768 -0.005583
v 0.006879 -0.021768 0.007123
v 0.006879 -0.021768 -0.005583
v 0.006879 -0.029485 0.007123
v 0.160002 -0.029485 0.007123
v 0.160002 -0.029485 -0.005583
v 0.006879 -0.029485 -0.005583
v -0.005827 -0.021768 -0.005583
v -0.158949 -0.021768 0.007123
v -0.158949 -0.021768 -0.005583
v -0.158949 -0.029485 0.007123
v -0.005827 -0.029485 -0.005583
v -0.158949 -0.029485 -0.005583
vn 0.5533 -0.6227 0.5533
vn 0.7824 -0.6227 -0.0000
vn 0.9998 0.0200 -0.0000
vn 0.7070 0.0200 0.7070
vn -0.0000 -0.6227 -0.7824
vn -0.5533 -0.6227 -0.5533
vn -0.7070 0.0200 -0.7070
vn -0.0000 0.0200 -0.9998
vn -0.7824 -0.6227 -0.0000
vn -0.9998 0.0200 -0.0000
vn -0.5533 -0.6227 0.5533
vn -0.7070 0.0200 0.7070
vn 0.5533 -0.6227 -0.5533
vn 0.7070 0.0200 -0.7070
vn -0.0000 -0.6227 0.7824
vn -0.0000 0.0200 0.9998
vn -0.0000 1.0000 -0.0000
vn -0.4647 -0.7538 0.4647
vn -0.6071 -0.7538 0.2515
vn -0.6071 0.7538 0.2515
vn -0.4647 0.7538 0.4647
vn -0.2515 -0.7538 -0.6071
vn -0.0000 -0.7538 -0.6571
vn -0.0000 0.7538 -0.6571
vn -0.2515 0.7538 -0.6071
vn 0.2515 -0.7538 -0.6071
vn 0.2515 0.7538 -0.6071
vn 0.4647 -0.7538 -0.4647
vn 0.4647 0.7538 -0.4647
vn 0.6071 -0.7538 -0.2515
vn 0.6071 0.7538 -0.2515
vn -0.6571 -0.7538 -0.0000
vn -0.6071 -0.7538 -0.2515
vn -0.6071 0.7538 -0.2515
vn -0.6571 0.7538 -0.0000
vn -0.4647 -0.7538 -0.4647
vn -0.4647 0.7538 -0.4647
vn 0.6571 -0.7538 -0.0000
vn 0.6571 0.7538 -0.0000
vn 0.6071 -0.7538 0.2515
vn 0.6071 0.7538 0.2515
vn 0.2515 -0.7538 0.6071
vn -0.0000 -0.7538 0.6571
vn -0.0000 0.7538 0.6571
vn 0.2515 0.7538 0.6071
vn -0.2515 -0.7538 0.6071
vn -0.2515 0.7538 0.6071
vn 0.4647 -0.7538 0.4647
vn 0.4647 0.7538 0.4647
vn -0.0000 -1.0000 -0.0000
vn 0.2856 -0.6657 0.6894
vn 0.2856 0.6657 0.6894
vn -0.0000 0.6657 0.7462
vn -0.0000 -0.6657 0.7462
vn 0.5276 -0.6657 0.5276
vn 0.5276 0.6657 0.5276
vn 0.6894 -0.6657 0.2856
vn 0.6894 0.6657 0.2856
vn 0.7462 -0.6657 -0.0000
vn 0.7462 0.6657 -0.0000
vn 0.6894 -0.6657 -0.2856
vn 0.6894 0.6657 -0.2856
vn 0.5276 -0.6657 -0.5276
vn 0.5276 0.6657 -0.5276
vn 0.2856 -0.6657 -0.6894
vn 0.2856 0.6657 -0.6894
vn -0.6894 -0.6657 0.2856
vn -0.6894 0.6657 0.2856
vn -0.7462 0.6657 -0.0000
vn -0.7462 -0.6657 -0.0000
vn -0.2856 -0.6657 0.6894
vn -0.2856 0.6657 0.6894
vn -0.5276 0.6657 0.5276
vn -0.5276 -0.6657 0.5276
vn -0.5276 -0.6657 -0.5276
vn -0.5276 0.6657 -0.5276
vn -0.2856 0.6657 -0.6894
vn -0.2856 -0.6657 -0.6894
vn -0.0000 -0.6657 -0.7462
vn -0.0000 0.6657 -0.7462
vn -0.6894 -0.6657 -0.2856
vn -0.6894 0.6657 -0.2856
vn 1.0000 -0.0000 -0.0000
vn -1.0000 -0.0000 -0.0000
vn -0.0000 -0.0000 -1.0000
vn -0.0000 -0.0000 1.0000
vt 0.201054 0.799522
vt 0.195557 0.797245
vt 0.193280 0.791748
vt 0.195557 0.786251
vt 0.201054 0.783974
vt 0.206551 0.786251
vt 0.208828 0.791748
vt 0.206551 0.797245
vt 0.201054 0.799522
vt 0.195557 0.797245
vt 0.193280 0.791748
vt 0.195557 0.786251
vt 0.201054 0.783974
vt 0.206551 0.786251
vt 0.208828 0.791748
vt 0.206551 0.797245
vt 0.374402 0.715300
vt 0.375822 0.714351
vt 0.376770 0.712932
vt 0.377104 0.711258
vt 0.376770 0.709583
vt 0.375822 0.708164
vt 0.374402 0.707215
vt 0.372728 0.706882
vt 0.371054 0.707215
vt 0.369634 0.708164
vt 0.368686 0.709583
vt 0.368686 0.712932
vt 0.368353 0.711258
vt 0.369634 0.714351
vt 0.372728 0.715633
vt 0.371054 0.715300
vt 0.375703 0.718440
vt 0.373636 0.716373
vt 0.378225 0.716755
vt 0.376158 0.714688
vt 0.379910 0.714233
vt 0.377843 0.712166
vt 0.380502 0.711258
vt 0.378435 0.709191
vt 0.379910 0.708283
vt 0.377843 0.706216
vt 0.378225 0.705761
vt 0.376158 0.703694
vt 0.375703 0.704075
vt 0.373636 0.702008
vt 0.372728 0.703484
vt 0.370661 0.701417
vt 0.369753 0.704075
vt 0.367686 0.702008
vt 0.367231 0.705761
vt 0.365164 0.703694
vt 0.365546 0.708283
vt 0.363479 0.706216
vt 0.365546 0.714233
vt 0.363479 0.712166
vt 0.364954 0.711258
vt 0.362887 0.709191
vt 0.367231 0.716755
vt 0.365164 0.714688
vt 0.372728 0.719032
vt 0.370661 0.716965
vt 0.369753 0.718440
vt 0.367686 0.716373
vt 0.371054 0.715300
vt 0.372728 0.715633
vt 0.369634 0.714351
vt 0.368353 0.711258
vt 0.368686 0.712932
vt 0.368686 0.709583
vt 0.369634 0.708164
vt 0.371054 0.707215
vt 0.372728 0.706882
vt 0.374402 0.707215
vt 0.375822 0.708164
vt 0.376770 0.709583
vt 0.377104 0.711258
vt 0.376770 0.712932
vt 0.375822 0.714351
vt 0.374402 0.715300
vt 0.369753 0.718440
vt 0.367686 0.716373
vt 0.372728 0.719032
vt 0.370661 0.716965
vt 0.367231 0.716755
vt 0.365164 0.714688
vt 0.364954 0.711258
vt 0.362887 0.709191
vt 0.365546 0.714233
vt 0.363479 0.712166
vt 0.365546 0.708283
vt 0.363479 0.706216
vt 0.367231 0.705761
vt 0.365164 0.703694
vt 0.369753 0.704075
vt 0.367686 0.702008
vt 0.372728 0.703484
vt 0.370661 0.701417
vt 0.375703 0.704075
vt 0.373636 0.702008
vt 0.378225 0.705761
vt 0.376158 0.703694
vt 0.379910 0.708283
vt 0.377843 0.706216
vt 0.380502 0.711258
vt 0.378435 0.709191
vt 0.379910 0.714233
vt 0.377843 0.712166
vt 0.378225 0.716755
vt 0.376158 0.714688
vt 0.375703 0.718440
vt 0.373636 0.716373
vt 0.178125 0.764796
vt 0.228125 0.764796
vt 0.178125 0.814796
vt 0.178125 0.764796
vt 0.178125 0.814796
vt 0.178125 0.764796
vt 0.178125 0.764796
vt 0.228125 0.764796
vt 0.178125 0.814796
vt 0.228125 0.814796
vt 0.178125 0.814796
vt 0.228125 0.814796
vt 0.178125 0.764796
vt 0.228125 0.764796
vt 0.228125 0.814796
vt 0.178125 0.814796
vt 0.228125 0.764796
vt 0.228125 0.814796
vt 0.228125 0.814796
vt 0.178125 0.814796
vt 0.178125 0.764796
vt 0.228125 0.764796
vt 0.228125 0.764796
vt 0.228125 0.814796
vt 0.178125 0.764796
vt 0.228125 0.764796
vt 0.178125 0.814796
vt 0.228125 0.814796
vt 0.178125 0.814796
vt 0.178125 0.764796
vt 0.228125 0.764796
vt 0.228125 0.814796
s 1
usemtl Palette
f 6/6/1 7/7/2 15/15/3 14/14/4
f 1/1/5 2/2/6 10/10/7 9/9/8
f 2/2/6 3/3/9 11/11/10 10/10/7
f 3/3/9 4/4/11 12/12/12 11/11/10
f 7/7/2 8/8/13 16/16/14 15/15/3
f 4/4/11 5/5/15 13/13/16 12/12/12
f 8/8/13 1/1/5 9/9/8 16/16/14
f 5/5/15 6/6/1 14/14/4 13/13/16
s 0
f 26/26/17 27/27/17 43/53/17 42/51/17
s 1
f 63/79/18 62/78/19 19/19/20 18/18/21
f 58/74/22 57/73/23 24/24/24 23/23/25
f 57/73/23 56/72/26 25/25/27 24/24/24
f 56/72/26 55/71/28 26/26/29 25/25/27
f 55/71/28 54/70/30 27/27/31 26/26/29
f 61/77/32 60/76/33 21/21/34 20/20/35
f 60/76/33 59/75/36 22/22/37 21/21/34
f 59/75/36 58/74/22 23/23/25 22/22/37
f 54/70/30 52/68/38 29/29/39 27/27/31
f 52/68/38 53/69/40 28/28/41 29/29/39
f 49/65/42 50/66/43 31/31/44 32/32/45
s 0
f 31/31/17 17/17/17 33/33/17 47/61/17
f 18/18/17 19/19/17 35/37/17 34/35/17
f 20/20/17 21/21/17 37/41/17 36/39/17
f 22/22/17 23/23/17 39/45/17 38/43/17
f 24/24/17 25/25/17 41/49/17 40/47/17
f 25/25/17 26/26/17 42/51/17 41/49/17
f 29/29/17 28/28/17 44/55/17 45/57/17
f 32/32/17 31/31/17 47/61/17 48/63/17
s 1
f 50/66/43 64/80/46 17/17/47 31/31/44
s 0
f 27/27/17 29/29/17 45/57/17 43/53/17
f 30/30/17 32/32/17 48/63/17 46/59/17
f 28/28/17 30/30/17 46/59/17 44/55/17
s 1
f 53/69/40 51/67/48 30/30/49 28/28/41
s 0
f 17/17/17 18/18/17 34/35/17 33/33/17
s 1
f 51/67/48 49/65/42 32/32/45 30/30/49
s 0
f 19/19/17 20/20/17 36/39/17 35/37/17
f 21/21/17 22/22/17 38/43/17 37/41/17
f 23/23/17 24/24/17 40/47/17 39/45/17
s 1
f 64/80/46 63/79/18 18/18/21 17/17/47
f 62/78/19 61/77/32 20/20/35 19/19/20
s 0
f 49/65/50 65/81/50 66/83/50 50/66/50
f 51/67/50 67/85/50 65/81/50 49/65/50
f 52/68/50 68/87/50 69/89/50 53/69/50
f 54/70/50 70/91/50 68/87/50 52/68/50
f 55/71/50 71/93/50 70/91/50 54/70/50
f 56/72/50 72/95/50 71/93/50 55/71/50
f 57/73/50 73/97/50 72/95/50 56/72/50
f 58/74/50 74/99/50 73/97/50 57/73/50
f 59/75/50 75/101/50 74/99/50 58/74/50
f 60/76/50 76/103/50 75/101/50 59/75/50
f 61/77/50 77/105/50 76/103/50 60/76/50
f 62/78/50 78/107/50 77/105/50 61/77/50
f 63/79/50 79/109/50 78/107/50 62/78/50
f 64/80/50 80/111/50 79/109/50 63/79/50
f 50/66/50 66/83/50 80/111/50 64/80/50
f 53/69/50 69/89/50 67/85/50 51/67/50
s 1
f 74/100/51 39/46/52 40/48/53 73/98/54
f 75/102/55 38/44/56 39/46/52 74/100/51
f 76/104/57 37/42/58 38/44/56 75/102/55
f 77/106/59 36/40/60 37/42/58 76/104/57
f 78/108/61 35/38/62 36/40/60 77/106/59
f 79/110/63 34/36/64 35/38/62 78/108/61
f 80/112/65 33/34/66 34/36/64 79/110/63
f 70/92/67 43/54/68 45/58/69 68/88/70
f 72/96/71 41/50/72 42/52/73 71/94/74
f 73/98/54 40/48/53 41/50/72 72/96/71
f 67/86/75 46/60/76 48/64/77 65/82/78
f 71/94/74 42/52/73 43/54/68 70/92/67
f 66/84/79 47/62/80 33/34/66 80/112/65
f 69/90/81 44/56/82 46/60/76 67/86/75
f 68/88/70 45/58/69 44/56/82 69/90/81
f 65/82/78 48/64/77 47/62/80 66/84/79
s 0
f 2/2/50 1/1/50 8/8/50 7/7/50 6/6/50 5/5/50 4/4/50 3/3/50
f 81/113/17 82/114/17 93/127/17 83/115/17
f 85/119/50 84/117/50 95/131/50 86/120/50
f 103/142/50 89/123/50 90/124/50 98/135/50
f 99/137/17 94/129/17 88/122/17 87/121/17
f 82/114/83 86/120/83 95/131/83 93/127/83
f 83/115/84 84/117/84 85/119/84 81/113/84
f 94/129/83 98/135/83 90/124/83 88/122/83
f 87/121/84 89/123/84 103/142/84 99/137/84
f 91/125/17 92/126/17 94/130/17 93/128/17
f 96/133/50 95/132/50 98/136/50 97/134/50
f 84/118/50 102/141/50 104/144/50 103/143/50
f 83/116/17 99/138/17 101/140/17 100/139/17
f 92/126/85 97/134/85 98/136/85 94/130/85
f 93/128/86 95/132/86 96/133/86 91/125/86
f 99/138/85 103/143/85 104/144/85 101/140/85
f 100/139/86 102/141/86 84/118/86 83/116/86
