# Blender 3.4.1
# www.blender.org
mtllib Ceiling_Lamp_2.mtl
o Ceiling_Lamp_2
v 0.057021 0.034392 -0.137661
v 0.105361 0.034392 -0.105361
v 0.137661 0.034392 -0.057021
v 0.149003 0.034392 0.000000
v 0.137661 0.034392 0.057021
v 0.105361 0.034392 0.105361
v 0.057021 0.034392 0.137661
v 0.000000 0.034392 0.149003
v -0.057021 0.034392 0.137661
v -0.105361 0.034392 0.105361
v -0.137661 0.034392 0.057021
v -0.137661 0.034392 -0.057021
v -0.149003 0.034392 -0.000000
v -0.105361 0.034392 -0.105361
v -0.000000 0.034392 -0.149003
v -0.057021 0.034392 -0.137661
v -0.057021 -0.073242 -0.137661
v -0.000000 -0.073242 -0.149003
v -0.105361 -0.073242 -0.105361
v -0.149003 -0.073242 -0.000000
v -0.137661 -0.073242 -0.057021
v -0.137661 -0.073242 0.057021
v -0.105361 -0.073242 0.105361
v -0.057021 -0.073242 0.137661
v 0.000000 -0.073242 0.149003
v 0.057021 -0.073242 0.137661
v 0.105361 -0.073242 0.105361
v 0.137661 -0.073242 0.057021
v 0.149003 -0.073242 0.000000
v 0.137661 -0.073242 -0.057021
v 0.105361 -0.073242 -0.105361
v 0.057021 -0.073242 -0.137661
v 0.063598 0.023876 -0.153540
v 0.117514 0.023876 -0.117514
v 0.153540 0.023876 -0.063598
v 0.166190 0.023876 0.000000
v 0.153540 0.023876 0.063598
v 0.117514 0.023876 0.117514
v 0.063598 0.023876 0.153540
v 0.000000 0.023876 0.166190
v -0.063598 0.023876 0.153540
v -0.117514 0.023876 0.117514
v -0.153540 0.023876 0.063598
v -0.153540 0.023876 -0.063598
v -0.166190 0.023876 -0.000000
v -0.117514 0.023876 -0.117514
v -0.000000 0.023876 -0.166190
v -0.063598 0.023876 -0.153540
v -0.153540 0.045449 -0.063598
v -0.117514 0.045449 -0.117514
v -0.000000 0.045449 -0.166190
v 0.063598 0.045449 -0.153540
v 0.153540 0.045449 -0.063598
v 0.166190 0.045449 0.000000
v 0.153540 0.045449 0.063598
v 0.117514 0.045449 0.117514
v 0.063598 0.045449 0.153540
v 0.000000 0.045449 0.166190
v -0.063598 0.045449 0.153540
v -0.117514 0.045449 0.117514
v -0.153540 0.045449 0.063598
v -0.166190 0.045449 -0.000000
v -0.063598 0.045449 -0.153540
v 0.117514 0.045449 -0.117514
v 0.057596 -0.085211 -0.139050
v 0.106424 -0.085211 -0.106424
v 0.139050 -0.085211 -0.057596
v 0.150507 -0.085211 0.000000
v 0.139050 -0.085211 0.057596
v 0.106424 -0.085211 0.106424
v 0.057596 -0.085211 0.139050
v 0.000000 -0.085211 0.150507
v -0.057596 -0.085211 0.139050
v -0.106424 -0.085211 0.106424
v -0.139050 -0.085211 0.057596
v -0.139050 -0.085211 -0.057596
v -0.150507 -0.085211 -0.000000
v -0.106424 -0.085211 -0.106424
v -0.000000 -0.085211 -0.150507
v -0.057596 -0.085211 -0.139050
v -0.153540 -0.063638 -0.063598
v -0.117514 -0.063638 -0.117514
v -0.000000 -0.063638 -0.166190
v 0.063598 -0.063638 -0.153540
v 0.153540 -0.063638 -0.063598
v 0.166190 -0.063638 0.000000
v 0.153540 -0.063638 0.063598
v 0.117514 -0.063638 0.117514
v 0.063598 -0.063638 0.153540
v 0.000000 -0.063638 0.166190
v -0.063598 -0.063638 0.153540
v -0.117514 -0.063638 0.117514
v -0.153540 -0.063638 0.063598
v -0.166190 -0.063638 -0.000000
v -0.063598 -0.063638 -0.153540
v 0.117514 -0.063638 -0.117514
v -0.153540 -0.085211 -0.063598
v -0.117514 -0.085211 -0.117514
v -0.000000 -0.085211 -0.166190
v 0.063598 -0.085211 -0.153540
v 0.153540 -0.085211 -0.063598
v 0.166190 -0.085211 0.000000
v 0.153540 -0.085211 0.063598
v 0.117514 -0.085211 0.117514
v 0.063598 -0.085211 0.153540
v 0.000000 -0.085211 0.166190
v -0.063598 -0.085211 0.153540
v -0.117514 -0.085211 0.117514
v -0.153540 -0.085211 0.063598
v -0.166190 -0.085211 -0.000000
v -0.063598 -0.085211 -0.153540
v 0.117514 -0.085211 -0.117514
v -0.084983 -0.103511 -0.035201
v -0.065043 -0.103511 -0.065043
v -0.000000 -0.103511 -0.091985
v 0.035201 -0.103511 -0.084983
v 0.084983 -0.103511 -0.035201
v 0.091985 -0.103511 -0.000000
v 0.084983 -0.103511 0.035201
v 0.065043 -0.103511 0.065043
v 0.035201 -0.103511 0.084983
v 0.000000 -0.103511 0.091985
v -0.035201 -0.103511 0.084983
v -0.065043 -0.103511 0.065043
v -0.084983 -0.103511 0.035201
v -0.091985 -0.103511 -0.000000
v -0.035201 -0.103511 -0.084983
v 0.065043 -0.103511 -0.065043
v -0.129452 -0.096496 -0.053621
v -0.099078 -0.096496 -0.099078
v -0.000000 -0.096496 -0.140118
v 0.053621 -0.096496 -0.129452
v 0.129452 -0.096496 -0.053621
v 0.140118 -0.096496 -0.000000
v 0.129452 -0.096496 0.053621
v 0.099078 -0.096496 0.099078
v 0.053621 -0.096496 0.129452
v 0.000000 -0.096496 0.140118
v -0.053621 -0.096496 0.129452
v -0.099078 -0.096496 0.099078
v -0.129452 -0.096496 0.053621
v -0.140118 -0.096496 -0.000000
v -0.053621 -0.096496 -0.129452
v 0.099078 -0.096496 -0.099078
v -0.015512 -0.095839 -0.015512
v 0.000000 -0.112754 -0.016302
v -0.011528 -0.112754 -0.011528
v -0.016302 -0.112754 0.000000
v -0.011528 -0.112754 0.011528
v 0.000000 -0.112754 0.016302
v 0.011528 -0.112754 0.011528
v 0.016303 -0.112754 0.000000
v 0.011528 -0.112754 -0.011528
v 0.000000 -0.095839 -0.021937
v -0.021937 -0.095839 0.000000
v -0.015512 -0.095839 0.015512
v 0.000000 -0.095839 0.021937
v 0.015512 -0.095839 0.015512
v 0.021937 -0.095839 0.000000
v 0.015512 -0.095839 -0.015512
vn -0.2856 -0.6657 -0.6894
vn -0.0000 -0.6657 -0.7462
vn 0.2856 -0.6657 -0.6894
vn 0.5276 -0.6657 -0.5276
vn 0.6894 -0.6657 -0.2856
vn 0.7462 -0.6657 -0.0000
vn 0.6894 -0.6657 0.2856
vn 0.5276 -0.6657 0.5276
vn 0.2856 -0.6657 0.6894
vn -0.0000 -0.6657 0.7462
vn -0.2856 -0.6657 0.6894
vn -0.5276 -0.6657 0.5276
vn -0.6894 -0.6657 0.2856
vn -0.7462 -0.6657 -0.0000
vn -0.6894 -0.6657 -0.2856
vn -0.5276 -0.6657 -0.5276
vn 0.1370 -0.9337 -0.3307
vn 0.2531 -0.9337 -0.2531
vn 0.3523 -0.8670 -0.3523
vn 0.1907 -0.8670 -0.4603
vn 0.1951 -0.0000 0.9808
vn 0.5556 -0.0000 0.8315
vn 0.8315 -0.0000 0.5556
vn 0.9808 -0.0000 0.1951
vn 0.9808 -0.0000 -0.1951
vn 0.8315 -0.0000 -0.5556
vn 0.5556 -0.0000 -0.8315
vn -0.9808 -0.0000 0.1951
vn -0.5556 -0.0000 0.8315
vn -0.1951 -0.0000 0.9808
vn -0.5556 -0.0000 -0.8315
vn -0.8315 -0.0000 0.5556
vn 0.1951 -0.0000 -0.9808
vn -0.8315 -0.0000 -0.5556
vn -0.9808 -0.0000 -0.1951
vn -0.1951 -0.0000 -0.9808
vn -0.6894 0.6657 0.2856
vn -0.7462 0.6657 -0.0000
vn -0.9239 -0.0000 0.3827
vn -1.0000 -0.0000 -0.0000
vn 1.0000 -0.0000 -0.0000
vn 0.9239 -0.0000 0.3827
vn -0.9239 -0.0000 -0.3827
vn 0.7071 -0.0000 0.7071
vn -0.7071 -0.0000 -0.7071
vn -0.3827 -0.0000 -0.9239
vn 0.3827 -0.0000 0.9239
vn -0.0000 -0.0000 -1.0000
vn -0.0000 -0.0000 1.0000
vn 0.3827 -0.0000 -0.9239
vn 0.7071 -0.0000 -0.7071
vn -0.3827 -0.0000 0.9239
vn 0.9239 -0.0000 -0.3827
vn -0.7071 -0.0000 0.7071
vn 0.7462 0.6657 -0.0000
vn 0.6894 0.6657 0.2856
vn -0.6894 0.6657 -0.2856
vn 0.5276 0.6657 0.5276
vn -0.5276 0.6657 -0.5276
vn -0.2856 0.6657 -0.6894
vn 0.2856 0.6657 0.6894
vn -0.0000 0.6657 -0.7462
vn -0.0000 0.6657 0.7462
vn 0.2856 0.6657 -0.6894
vn 0.5276 0.6657 -0.5276
vn -0.2856 0.6657 0.6894
vn 0.6894 0.6657 -0.2856
vn -0.5276 0.6657 0.5276
vn -0.2531 -0.9337 -0.2531
vn -0.3307 -0.9337 -0.1370
vn -0.0000 -0.9337 -0.3580
vn 0.3580 -0.9337 -0.0000
vn 0.3307 -0.9337 -0.1370
vn 0.3307 -0.9337 0.1370
vn 0.2531 -0.9337 0.2531
vn 0.1370 -0.9337 0.3307
vn -0.0000 -0.9337 0.3580
vn -0.1370 -0.9337 0.3307
vn -0.2531 -0.9337 0.2531
vn -0.3307 -0.9337 0.1370
vn -0.3580 -0.9337 -0.0000
vn -0.1370 -0.9337 -0.3307
vn -0.0751 -0.9967 -0.0311
vn -0.0575 -0.9967 -0.0575
vn -0.0311 -0.9967 -0.0751
vn -0.0000 -0.9967 -0.0813
vn 0.0311 -0.9967 -0.0751
vn 0.0575 -0.9967 -0.0575
vn 0.0751 -0.9967 -0.0311
vn 0.0813 -0.9967 -0.0000
vn 0.0751 -0.9967 0.0311
vn 0.0575 -0.9967 0.0575
vn 0.0311 -0.9967 0.0751
vn -0.0000 -0.9967 0.0813
vn -0.0311 -0.9967 0.0751
vn -0.0575 -0.9967 0.0575
vn -0.0751 -0.9967 0.0311
vn -0.0813 -0.9967 -0.0000
vn -0.1907 -0.8670 0.4603
vn -0.0000 -0.8670 0.4982
vn -0.3523 -0.8670 -0.3523
vn -0.4603 -0.8670 -0.1907
vn 0.4603 -0.8670 -0.1907
vn -0.3523 -0.8670 0.3523
vn -0.0000 -0.8670 -0.4982
vn -0.4603 -0.8670 0.1907
vn 0.4982 -0.8670 -0.0000
vn -0.4982 -0.8670 -0.0000
vn 0.4603 -0.8670 0.1907
vn 0.3523 -0.8670 0.3523
vn -0.1907 -0.8670 -0.4603
vn 0.1907 -0.8670 0.4603
vn -0.3658 -0.2941 0.8830
vn -0.8830 -0.2941 0.3658
vn -0.3658 -0.2941 -0.8830
vn 0.8830 -0.2941 0.3658
vn 0.8830 -0.2941 -0.3658
vn 0.3658 -0.2941 -0.8830
vn 0.3658 -0.2941 0.8830
vn -0.0000 -1.0000 -0.0000
vn -0.8830 -0.2941 -0.3658
vt 0.626587 0.965591
vt 0.629109 0.963906
vt 0.630794 0.961384
vt 0.631386 0.958409
vt 0.630794 0.955434
vt 0.629109 0.952912
vt 0.626587 0.951226
vt 0.623612 0.950635
vt 0.620637 0.951226
vt 0.618115 0.952912
vt 0.616429 0.955434
vt 0.616429 0.961384
vt 0.615838 0.958409
vt 0.618115 0.963906
vt 0.623612 0.966183
vt 0.620637 0.965591
vt 0.620637 0.965591
vt 0.623612 0.966183
vt 0.618115 0.963906
vt 0.615838 0.958409
vt 0.616429 0.961384
vt 0.616429 0.955434
vt 0.618115 0.952912
vt 0.620637 0.951226
vt 0.623612 0.950635
vt 0.626587 0.951226
vt 0.629109 0.952912
vt 0.630794 0.955434
vt 0.631386 0.958409
vt 0.630794 0.961384
vt 0.629109 0.963906
vt 0.626587 0.965591
vt 0.877450 0.636718
vt 0.879972 0.635033
vt 0.881657 0.632511
vt 0.882249 0.629536
vt 0.881657 0.626561
vt 0.879972 0.624039
vt 0.877450 0.622354
vt 0.874475 0.621762
vt 0.871500 0.622354
vt 0.868978 0.624039
vt 0.867293 0.626561
vt 0.867293 0.632511
vt 0.866701 0.629536
vt 0.868978 0.635033
vt 0.874475 0.637310
vt 0.871500 0.636718
vt 0.867293 0.632511
vt 0.868978 0.635033
vt 0.874475 0.637310
vt 0.877450 0.636718
vt 0.881657 0.632511
vt 0.882249 0.629536
vt 0.881657 0.626561
vt 0.879972 0.624039
vt 0.877450 0.622354
vt 0.874475 0.621762
vt 0.871500 0.622354
vt 0.868978 0.624039
vt 0.867293 0.626561
vt 0.866701 0.629536
vt 0.871500 0.636718
vt 0.879972 0.635033
vt 0.877169 0.636041
vt 0.623702 0.962309
vt 0.879453 0.634515
vt 0.625986 0.960783
vt 0.880980 0.632230
vt 0.627512 0.958499
vt 0.881516 0.629536
vt 0.628048 0.955805
vt 0.880980 0.626842
vt 0.627512 0.953110
vt 0.879453 0.624558
vt 0.625986 0.950826
vt 0.877169 0.623031
vt 0.623702 0.949300
vt 0.874475 0.622496
vt 0.621008 0.948764
vt 0.871781 0.623032
vt 0.618313 0.949300
vt 0.869497 0.624558
vt 0.616029 0.950826
vt 0.867970 0.626842
vt 0.614503 0.953110
vt 0.867970 0.632230
vt 0.614503 0.958499
vt 0.867434 0.629536
vt 0.613967 0.955805
vt 0.869496 0.634514
vt 0.616029 0.960783
vt 0.874475 0.636577
vt 0.621008 0.962845
vt 0.871781 0.636041
vt 0.618313 0.962309
vt 0.867293 0.632511
vt 0.868978 0.635033
vt 0.874475 0.637310
vt 0.877450 0.636718
vt 0.881657 0.632511
vt 0.882249 0.629536
vt 0.881657 0.626561
vt 0.879972 0.624039
vt 0.877450 0.622354
vt 0.874475 0.621762
vt 0.871500 0.622354
vt 0.868978 0.624039
vt 0.867293 0.626561
vt 0.866701 0.629536
vt 0.871500 0.636718
vt 0.879972 0.635033
vt 0.867293 0.632511
vt 0.868978 0.635033
vt 0.874475 0.637310
vt 0.877450 0.636718
vt 0.881657 0.632511
vt 0.882249 0.629536
vt 0.881657 0.626561
vt 0.879972 0.624039
vt 0.877450 0.622354
vt 0.874475 0.621762
vt 0.871500 0.622354
vt 0.868978 0.624039
vt 0.867293 0.626561
vt 0.866701 0.629536
vt 0.871500 0.636718
vt 0.879972 0.635033
vt 0.616737 0.957573
vt 0.617739 0.959073
vt 0.621008 0.960426
vt 0.622777 0.960075
vt 0.625278 0.957574
vt 0.625630 0.955805
vt 0.625278 0.954036
vt 0.624276 0.952536
vt 0.622777 0.951534
vt 0.621008 0.951183
vt 0.619239 0.951534
vt 0.617739 0.952536
vt 0.616737 0.954036
vt 0.616386 0.955805
vt 0.619239 0.960075
vt 0.624276 0.959073
vt 0.614503 0.958499
vt 0.616029 0.960783
vt 0.621008 0.962845
vt 0.623702 0.962309
vt 0.627512 0.958499
vt 0.628048 0.955805
vt 0.627512 0.953110
vt 0.625986 0.950826
vt 0.623702 0.949300
vt 0.621008 0.948764
vt 0.618313 0.949300
vt 0.616029 0.950826
vt 0.614503 0.953110
vt 0.613967 0.955805
vt 0.618313 0.962309
vt 0.625986 0.960783
vt 0.869614 0.638175
vt 0.881738 0.643197
vt 0.869614 0.638175
vt 0.864591 0.626050
vt 0.869614 0.613926
vt 0.881738 0.608904
vt 0.893862 0.613926
vt 0.898885 0.626050
vt 0.893862 0.638175
vt 0.881738 0.643197
vt 0.864591 0.626050
vt 0.869614 0.613926
vt 0.881738 0.608904
vt 0.893862 0.613926
vt 0.898885 0.626050
vt 0.893862 0.638175
s 1
usemtl Palette
f 44/44/15 46/46/16 48/48/1 47/47/2 33/33/3 34/34/4 35/35/5 36/36/6 37/37/7 38/38/8 39/39/9 40/40/10 41/41/11 42/42/12 43/43/13 45/45/14
f 110/126/14 109/125/13 93/109/37 94/110/38
f 45/45/14 43/43/13 61/61/39 62/62/40
f 37/37/7 36/36/6 54/54/41 55/55/42
f 44/44/15 45/45/14 62/62/40 49/49/43
f 38/38/8 37/37/7 55/55/42 56/56/44
f 48/48/1 46/46/16 50/50/45 63/63/46
f 39/39/9 38/38/8 56/56/44 57/57/47
f 47/47/2 48/48/1 63/63/46 51/51/48
f 40/40/10 39/39/9 57/57/47 58/58/49
f 34/34/4 33/33/3 52/52/50 64/64/51
f 41/41/11 40/40/10 58/58/49 59/59/52
f 46/46/16 44/44/15 49/49/43 50/50/45
f 35/35/5 34/34/4 64/64/51 53/53/53
f 42/42/12 41/41/11 59/59/52 60/60/54
f 33/33/3 47/47/2 51/51/48 52/52/50
f 43/43/13 42/42/12 60/60/54 61/61/39
f 36/36/6 35/35/5 53/53/53 54/54/41
f 103/119/7 102/118/6 86/102/55 87/103/56
f 97/113/15 110/126/14 94/110/38 81/97/57
f 104/120/8 103/119/7 87/103/56 88/104/58
f 111/127/1 98/114/16 82/98/59 95/111/60
f 105/121/9 104/120/8 88/104/58 89/105/61
f 99/115/2 111/127/1 95/111/60 83/99/62
f 106/122/10 105/121/9 89/105/61 90/106/63
f 112/128/4 100/116/3 84/100/64 96/112/65
f 107/123/11 106/122/10 90/106/63 91/107/66
f 98/114/16 97/113/15 81/97/57 82/98/59
f 101/117/5 112/128/4 96/112/65 85/101/67
f 108/124/12 107/123/11 91/107/66 92/108/68
f 100/116/3 99/115/2 83/99/62 84/100/64
f 109/125/13 108/124/12 92/108/68 93/109/37
f 102/118/6 101/117/5 85/101/67 86/102/55
f 82/98/59 81/97/57 94/110/38 93/109/37 92/108/68 91/107/66 90/106/63 89/105/61 88/104/58 87/103/56 86/102/55 85/101/67 96/112/65 84/100/64 83/99/62 95/111/60
f 78/91/69 76/87/70 97/113/15 98/114/16
f 65/65/17 79/93/71 99/115/2 100/116/3
f 68/71/72 67/69/73 101/117/5 102/118/6
f 69/73/74 68/71/72 102/118/6 103/119/7
f 70/75/75 69/73/74 103/119/7 104/120/8
f 71/77/76 70/75/75 104/120/8 105/121/9
f 72/79/77 71/77/76 105/121/9 106/122/10
f 73/81/78 72/79/77 106/122/10 107/123/11
f 74/83/79 73/81/78 107/123/11 108/124/12
f 75/85/80 74/83/79 108/124/12 109/125/13
f 77/89/81 75/85/80 109/125/13 110/126/14
f 76/87/70 77/89/81 110/126/14 97/113/15
f 80/95/82 78/91/69 98/114/16 111/127/1
f 79/93/71 80/95/82 111/127/1 99/115/2
f 66/67/18 65/65/17 100/116/3 112/128/4
f 67/69/73 66/67/18 112/128/4 101/117/5
s 0
f 149/165/113 150/166/113 157/173/113 156/172/113
f 148/164/114 149/165/114 156/172/114 155/171/114
f 146/162/115 147/163/115 145/161/115 154/170/115
f 151/167/116 152/168/116 159/175/116 158/174/116
f 152/168/117 153/169/117 160/176/117 159/175/117
f 153/169/118 146/162/118 154/170/118 160/176/118
f 150/166/119 151/167/119 158/174/119 157/173/119
f 146/162/120 153/169/120 152/168/120 151/167/120 150/166/120 149/165/120 148/164/120 147/163/120
f 147/163/121 148/164/121 155/171/121 145/161/121
s 1
usemtl LightAlt
f 17/17/1 18/18/2 32/32/3 31/31/4 30/30/5 29/29/6 28/28/7 27/27/8 26/26/9 25/25/10 24/24/11 23/23/12 22/22/13 20/20/14 21/21/15 19/19/16
f 65/66/17 66/68/18 144/160/19 132/148/20
s 0
f 26/26/21 7/7/21 8/8/21 25/25/21
f 27/27/22 6/6/22 7/7/22 26/26/22
f 28/28/23 5/5/23 6/6/23 27/27/23
f 29/29/24 4/4/24 5/5/24 28/28/24
f 30/30/25 3/3/25 4/4/25 29/29/25
f 31/31/26 2/2/26 3/3/26 30/30/26
f 32/32/27 1/1/27 2/2/27 31/31/27
f 22/22/28 11/11/28 13/13/28 20/20/28
f 24/24/29 9/9/29 10/10/29 23/23/29
f 25/25/30 8/8/30 9/9/30 24/24/30
f 19/19/31 14/14/31 16/16/31 17/17/31
f 23/23/32 10/10/32 11/11/32 22/22/32
f 18/18/33 15/15/33 1/1/33 32/32/33
f 21/21/34 12/12/34 14/14/34 19/19/34
f 20/20/35 13/13/35 12/12/35 21/21/35
f 17/17/36 16/16/36 15/15/36 18/18/36
s 1
f 113/129/83 114/130/84 127/143/85 115/131/86 116/132/87 128/144/88 117/133/89 118/134/90 119/135/91 120/136/92 121/137/93 122/138/94 123/139/95 124/140/96 125/141/97 126/142/98
f 72/80/77 73/82/78 139/155/99 138/154/100
f 76/88/70 78/92/69 130/146/101 129/145/102
f 66/68/18 67/70/73 133/149/103 144/160/19
f 73/82/78 74/84/79 140/156/104 139/155/99
f 79/94/71 65/66/17 132/148/20 131/147/105
f 74/84/79 75/86/80 141/157/106 140/156/104
f 67/70/73 68/72/72 134/150/107 133/149/103
f 75/86/80 77/90/81 142/158/108 141/157/106
f 68/72/72 69/74/74 135/151/109 134/150/107
f 77/90/81 76/88/70 129/145/102 142/158/108
f 69/74/74 70/76/75 136/152/110 135/151/109
f 78/92/69 80/96/82 143/159/111 130/146/101
f 70/76/75 71/78/76 137/153/112 136/152/110
f 80/96/82 79/94/71 131/147/105 143/159/111
f 71/78/76 72/80/77 138/154/100 137/153/112
f 114/130/84 113/129/83 129/145/102 130/146/101
f 116/132/87 115/131/86 131/147/105 132/148/20
f 118/134/90 117/133/89 133/149/103 134/150/107
f 119/135/91 118/134/90 134/150/107 135/151/109
f 120/136/92 119/135/91 135/151/109 136/152/110
f 121/137/93 120/136/92 136/152/110 137/153/112
f 122/138/94 121/137/93 137/153/112 138/154/100
f 123/139/95 122/138/94 138/154/100 139/155/99
f 124/140/96 123/139/95 139/155/99 140/156/104
f 125/141/97 124/140/96 140/156/104 141/157/106
f 126/142/98 125/141/97 141/157/106 142/158/108
f 113/129/83 126/142/98 142/158/108 129/145/102
f 127/143/85 114/130/84 130/146/101 143/159/111
f 115/131/86 127/143/85 143/159/111 131/147/105
f 128/144/88 116/132/87 132/148/20 144/160/19
f 117/133/89 128/144/88 144/160/19 133/149/103
