# Blender 3.4.1
# www.blender.org
mtllib Chair_Ac.mtl
o Chair_Ac
v -0.288640 -0.004520 -0.141420
v -0.264069 -0.004520 -0.165991
v -0.264069 -0.030468 -0.141420
v -0.281444 -0.004515 -0.158794
v -0.278255 -0.019450 -0.155606
v -0.264069 -0.022795 -0.158794
v -0.281444 -0.022795 -0.141420
v -0.264069 -0.005916 0.260742
v -0.288640 -0.005916 0.236171
v -0.264069 -0.030468 0.236171
v -0.281443 -0.005916 0.253545
v -0.278255 -0.020102 0.250357
v -0.281443 -0.023290 0.236171
v -0.264069 -0.023290 0.253545
v -0.288640 0.007982 -0.141420
v -0.264069 0.033905 -0.141420
v -0.264069 0.007982 -0.165991
v -0.281444 0.026297 -0.141420
v -0.278255 0.022947 -0.155606
v -0.264069 0.026297 -0.158794
v -0.281444 0.007989 -0.158794
v -0.264069 0.005916 0.260742
v -0.264069 0.030487 0.236171
v -0.288640 0.005916 0.236171
v -0.264069 0.023290 0.253545
v -0.278255 0.020102 0.250357
v -0.281443 0.023290 0.236171
v -0.281443 0.005916 0.253545
v -0.288640 -0.006885 0.110307
v -0.288640 -0.005916 -0.015556
v -0.281444 -0.023290 -0.015556
v -0.281443 -0.023517 0.110307
v -0.264069 -0.030468 -0.015556
v -0.264069 -0.030468 0.110307
v -0.264069 0.027864 0.110307
v -0.264069 0.030487 -0.015556
v -0.281444 0.023290 -0.015556
v -0.281443 0.020949 0.110307
v -0.288640 0.005916 -0.015556
v -0.288640 0.004375 0.110307
v -0.088023 -0.005442 0.260742
v -0.176046 -0.005894 0.260742
v -0.176046 -0.023289 0.253545
v -0.088023 -0.023006 0.253545
v -0.176046 -0.030468 0.236171
v -0.088023 -0.030468 0.236171
v -0.176046 -0.006862 -0.182949
v -0.127277 -0.006058 -0.233948
v -0.125562 -0.023324 -0.226997
v -0.176046 -0.023515 -0.175752
v -0.121421 -0.030468 -0.210215
v -0.176046 -0.030468 -0.158378
v -0.088023 0.031202 0.236171
v -0.176046 0.030567 0.236171
v -0.176046 0.023360 0.253545
v -0.088023 0.023952 0.253545
v -0.176046 0.005958 0.260742
v -0.088023 0.006475 0.260742
v -0.176046 0.027864 -0.158378
v -0.121421 0.030093 -0.210215
v -0.125562 0.022948 -0.226997
v -0.176046 0.021009 -0.175752
v -0.127277 0.005691 -0.233948
v -0.176046 0.004416 -0.182949
v -0.088023 0.030567 0.110307
v -0.176046 0.033905 0.110307
v -0.088023 0.033905 -0.015556
v -0.176046 0.030567 -0.015556
v 0.000000 -0.030468 -0.218689
v 0.000000 -0.006886 -0.243260
v 0.000000 -0.023518 -0.236063
v 0.000000 -0.005894 0.260742
v 0.000000 -0.030468 0.236171
v 0.000000 -0.023289 0.253545
v 0.288640 -0.004520 -0.141420
v 0.264069 -0.004520 -0.165991
v 0.264069 -0.030468 -0.141420
v 0.281444 -0.004515 -0.158794
v 0.278255 -0.019450 -0.155606
v 0.264069 -0.022795 -0.158794
v 0.281444 -0.022795 -0.141420
v 0.264069 -0.005916 0.260742
v 0.288640 -0.005916 0.236171
v 0.264069 -0.030468 0.236171
v 0.281443 -0.005916 0.253545
v 0.278255 -0.020102 0.250357
v 0.281443 -0.023290 0.236171
v 0.264069 -0.023290 0.253545
v 0.000000 0.004373 -0.243260
v 0.000000 0.027783 -0.218689
v 0.000000 0.020939 -0.236063
v 0.000000 0.030567 0.236171
v 0.000000 0.005958 0.260742
v 0.000000 0.023360 0.253545
v 0.288640 0.007982 -0.141420
v 0.264069 0.033905 -0.141420
v 0.264069 0.007982 -0.165991
v 0.281444 0.026297 -0.141420
v 0.278255 0.022947 -0.155606
v 0.264069 0.026297 -0.158794
v 0.281444 0.007989 -0.158794
v 0.264069 0.005916 0.260742
v 0.264069 0.030487 0.236171
v 0.288640 0.005916 0.236171
v 0.264069 0.023290 0.253545
v 0.278255 0.020102 0.250357
v 0.281443 0.023290 0.236171
v 0.281443 0.005916 0.253545
v 0.288640 -0.006885 0.110307
v 0.288640 -0.005916 -0.015556
v 0.281444 -0.023290 -0.015556
v 0.281443 -0.023517 0.110307
v 0.264069 -0.030468 -0.015556
v 0.264069 -0.030468 0.110307
v 0.264069 0.027864 0.110307
v 0.264069 0.030487 -0.015556
v 0.281444 0.023290 -0.015556
v 0.281443 0.020949 0.110307
v 0.288640 0.005916 -0.015556
v 0.288640 0.004375 0.110307
v 0.000000 0.033905 0.110307
v 0.000000 0.030567 -0.015556
v 0.088023 -0.005442 0.260742
v 0.176046 -0.005894 0.260742
v 0.176046 -0.023289 0.253545
v 0.088023 -0.023006 0.253545
v 0.176046 -0.030468 0.236171
v 0.088023 -0.030468 0.236171
v 0.176046 -0.006862 -0.182949
v 0.127277 -0.006058 -0.233948
v 0.125562 -0.023324 -0.226997
v 0.176046 -0.023515 -0.175752
v 0.121421 -0.030468 -0.210215
v 0.176046 -0.030468 -0.158378
v 0.088023 0.031202 0.236171
v 0.176046 0.030567 0.236171
v 0.176046 0.023360 0.253545
v 0.088023 0.023952 0.253545
v 0.176046 0.005958 0.260742
v 0.088023 0.006475 0.260742
v 0.176046 0.027864 -0.158378
v 0.121421 0.030093 -0.210215
v 0.125562 0.022948 -0.226997
v 0.176046 0.021009 -0.175752
v 0.127277 0.005691 -0.233948
v 0.176046 0.004416 -0.182949
v 0.088023 0.030567 0.110307
v 0.176046 0.033905 0.110307
v 0.088023 0.033905 -0.015556
v 0.176046 0.030567 -0.015556
vn -0.4857 -0.1884 -0.8536
vn -0.2732 -0.1723 -0.9464
vn -0.2665 0.1767 -0.9475
vn -0.4833 0.1836 -0.8560
vn -0.0026 1.0000 -0.0085
vn -0.0000 1.0000 -0.0094
vn -0.0000 0.9777 -0.2100
vn -0.1211 0.9674 -0.2223
vn -0.0000 -0.1934 0.9811
vn -0.0000 -0.1947 0.9809
vn -0.0000 0.1937 0.9811
vn -0.0000 0.1951 0.9808
vn -0.9798 -0.1998 -0.0000
vn -0.9669 -0.1808 0.1799
vn -0.9670 0.1823 0.1779
vn -0.9803 0.1977 -0.0000
vn -0.9683 -0.1730 -0.1804
vn -0.6974 -0.1650 -0.6974
vn -0.5854 -0.5610 -0.5854
vn -0.7046 -0.6869 -0.1782
vn -0.2448 -0.6916 -0.6796
vn -0.2031 -0.9639 -0.1721
vn -0.1794 -0.1793 0.9673
vn -0.6965 -0.1726 0.6965
vn -0.5772 -0.5776 0.5772
vn -0.1724 -0.6967 0.6963
vn -0.6938 -0.6991 0.1731
vn -0.1776 -0.9677 0.1792
vn -0.9685 0.1745 -0.1778
vn -0.7037 0.6903 -0.1683
vn -0.5852 0.5613 -0.5852
vn -0.6974 0.1647 -0.6974
vn -0.1787 0.9701 -0.1640
vn -0.2188 0.7013 -0.6785
vn -0.1794 0.1793 0.9673
vn -0.1728 0.6963 0.6966
vn -0.5773 0.5774 0.5774
vn -0.6965 0.1726 0.6965
vn -0.1866 0.9667 0.1754
vn -0.6932 0.7013 0.1661
vn 0.0004 -0.1948 0.9808
vn 0.0008 -0.7060 0.7082
vn 0.0004 -0.9805 0.1963
vn -0.9808 -0.1950 -0.0012
vn -0.7080 -0.7062 -0.0020
vn -0.1962 -0.9806 -0.0007
vn -0.4121 -0.1810 -0.8930
vn -0.0000 -0.1970 -0.9804
vn -0.0000 -0.7022 -0.7120
vn -0.3244 -0.6566 -0.6809
vn -0.0000 -0.9796 -0.2011
vn -0.1159 -0.9689 -0.2188
vn -0.0068 0.9800 0.1990
vn -0.0027 0.7061 0.7081
vn -0.0007 0.1944 0.9809
vn -0.1961 0.9805 0.0106
vn -0.7081 0.7059 0.0150
vn -0.9809 0.1946 0.0034
vn -0.0000 0.7005 -0.7136
vn -0.3251 0.6604 -0.6769
vn -0.0000 0.1952 -0.9808
vn -0.4123 0.1837 -0.8923
vn -0.7040 0.7102 -0.0000
vn -0.2092 0.9779 -0.0000
vn -0.7018 -0.7123 -0.0000
vn -0.1919 -0.9814 -0.0000
vn -0.0000 0.9796 0.2010
vn -0.0000 0.9795 0.2013
vn -0.0000 1.0000 0.0054
vn -0.0135 0.9999 0.0027
vn -0.0113 0.9999 -0.0038
vn -0.0000 -0.9802 0.1981
vn -0.0824 -0.9783 -0.1901
vn -0.3297 0.7199 -0.6108
vn -0.0630 0.9851 -0.1602
vn -0.0000 0.7053 0.7089
vn -0.0000 0.7069 0.7073
vn -0.3353 -0.7221 -0.6051
vn -0.0000 -0.7046 0.7096
vn -0.0000 -0.7038 0.7104
vn 0.4857 -0.1884 -0.8536
vn 0.4833 0.1836 -0.8560
vn 0.2665 0.1767 -0.9475
vn 0.2732 -0.1723 -0.9464
vn 0.0026 1.0000 -0.0085
vn 0.1211 0.9674 -0.2223
vn 0.9798 -0.1998 -0.0000
vn 0.9803 0.1977 -0.0000
vn 0.9670 0.1823 0.1779
vn 0.9669 -0.1808 0.1799
vn 0.9683 -0.1730 -0.1804
vn 0.7046 -0.6869 -0.1782
vn 0.5854 -0.5610 -0.5854
vn 0.6974 -0.1650 -0.6974
vn 0.2448 -0.6916 -0.6796
vn 0.2031 -0.9639 -0.1721
vn 0.1794 -0.1793 0.9673
vn 0.1724 -0.6967 0.6963
vn 0.5772 -0.5776 0.5772
vn 0.6965 -0.1726 0.6965
vn 0.6938 -0.6991 0.1731
vn 0.1776 -0.9677 0.1792
vn 0.9685 0.1745 -0.1778
vn 0.6974 0.1647 -0.6974
vn 0.5852 0.5613 -0.5852
vn 0.7037 0.6903 -0.1683
vn 0.1787 0.9701 -0.1640
vn 0.2188 0.7013 -0.6785
vn 0.1794 0.1793 0.9673
vn 0.6965 0.1726 0.6965
vn 0.5773 0.5774 0.5774
vn 0.1728 0.6963 0.6966
vn 0.1866 0.9667 0.1754
vn 0.6932 0.7013 0.1661
vn -0.0004 -0.1948 0.9808
vn -0.0008 -0.7060 0.7082
vn -0.0004 -0.9805 0.1963
vn 0.9808 -0.1950 -0.0012
vn 0.7080 -0.7062 -0.0020
vn 0.1962 -0.9806 -0.0007
vn 0.4121 -0.1810 -0.8930
vn 0.3244 -0.6566 -0.6809
vn 0.1159 -0.9689 -0.2188
vn 0.0068 0.9800 0.1990
vn 0.0027 0.7061 0.7081
vn 0.0007 0.1944 0.9809
vn 0.1961 0.9805 0.0106
vn 0.7081 0.7059 0.0150
vn 0.9809 0.1946 0.0034
vn 0.3251 0.6604 -0.6769
vn 0.4123 0.1837 -0.8923
vn 0.7040 0.7102 -0.0000
vn 0.2092 0.9779 -0.0000
vn 0.1919 -0.9814 -0.0000
vn 0.7018 -0.7123 -0.0000
vn 0.0113 0.9999 -0.0038
vn 0.0135 0.9999 0.0027
vn 0.0824 -0.9783 -0.1901
vn 0.3297 0.7199 -0.6108
vn 0.0630 0.9851 -0.1602
vn 0.3353 -0.7221 -0.6051
vt 0.372634 0.867300
vt 0.373543 0.867814
vt 0.373543 0.867300
vt 0.372634 0.867814
vt 0.372762 0.867742
vt 0.373543 0.867814
vt 0.372634 0.867300
vt 0.373543 0.857137
vt 0.372634 0.857651
vt 0.373543 0.857651
vt 0.372634 0.857137
vt 0.372762 0.857209
vt 0.372634 0.857651
vt 0.373543 0.857137
vt 0.372634 0.867300
vt 0.373543 0.867300
vt 0.373543 0.867814
vt 0.372634 0.867300
vt 0.372762 0.867742
vt 0.373543 0.867814
vt 0.372634 0.867814
vt 0.373543 0.857137
vt 0.373543 0.857651
vt 0.372634 0.857651
vt 0.373543 0.857137
vt 0.372762 0.857209
vt 0.372634 0.857651
vt 0.372634 0.857137
vt 0.372634 0.860868
vt 0.372634 0.864084
vt 0.372634 0.864084
vt 0.372634 0.860867
vt 0.373543 0.864084
vt 0.373543 0.860867
vt 0.373543 0.860867
vt 0.373543 0.864084
vt 0.372634 0.864084
vt 0.372634 0.860867
vt 0.372634 0.864084
vt 0.372634 0.860867
vt 0.380056 0.857137
vt 0.376799 0.857137
vt 0.376799 0.857137
vt 0.380056 0.857137
vt 0.376799 0.857651
vt 0.380056 0.857651
vt 0.376799 0.867814
vt 0.379567 0.867814
vt 0.379567 0.867814
vt 0.376799 0.867814
vt 0.379567 0.867300
vt 0.376799 0.867300
vt 0.380056 0.857651
vt 0.376799 0.857651
vt 0.376799 0.857137
vt 0.380056 0.857137
vt 0.376799 0.857137
vt 0.380056 0.857137
vt 0.376799 0.867300
vt 0.379567 0.867300
vt 0.379567 0.867815
vt 0.376799 0.867814
vt 0.379567 0.867814
vt 0.376799 0.867814
vt 0.380056 0.860867
vt 0.376799 0.860867
vt 0.380056 0.864084
vt 0.376799 0.864084
vt 0.383312 0.867300
vt 0.383312 0.867814
vt 0.383312 0.867814
vt 0.383312 0.857137
vt 0.383312 0.857651
vt 0.383312 0.857137
vt 0.372634 0.867300
vt 0.373543 0.867814
vt 0.373543 0.867300
vt 0.372634 0.867814
vt 0.372762 0.867742
vt 0.373543 0.867814
vt 0.372634 0.867300
vt 0.373543 0.857137
vt 0.372634 0.857651
vt 0.373543 0.857651
vt 0.372634 0.857137
vt 0.372762 0.857209
vt 0.372634 0.857651
vt 0.373543 0.857137
vt 0.383312 0.867814
vt 0.383312 0.867300
vt 0.383312 0.867814
vt 0.383312 0.857651
vt 0.383312 0.857137
vt 0.383312 0.857137
vt 0.372634 0.867300
vt 0.373543 0.867300
vt 0.373543 0.867814
vt 0.372634 0.867300
vt 0.372762 0.867742
vt 0.373543 0.867814
vt 0.372634 0.867814
vt 0.373543 0.857137
vt 0.373543 0.857651
vt 0.372634 0.857651
vt 0.373543 0.857137
vt 0.372762 0.857209
vt 0.372634 0.857651
vt 0.372634 0.857137
vt 0.372634 0.860868
vt 0.372634 0.864084
vt 0.372634 0.864084
vt 0.372634 0.860867
vt 0.373543 0.864084
vt 0.373543 0.860867
vt 0.373543 0.860867
vt 0.373543 0.864084
vt 0.372634 0.864084
vt 0.372634 0.860867
vt 0.372634 0.864084
vt 0.372634 0.860867
vt 0.383312 0.860868
vt 0.383312 0.864084
vt 0.380056 0.857137
vt 0.376799 0.857137
vt 0.376799 0.857137
vt 0.380056 0.857137
vt 0.376799 0.857651
vt 0.380056 0.857651
vt 0.376799 0.867814
vt 0.379567 0.867814
vt 0.379567 0.867814
vt 0.376799 0.867814
vt 0.379567 0.867300
vt 0.376799 0.867300
vt 0.380056 0.857651
vt 0.376799 0.857651
vt 0.376799 0.857137
vt 0.380056 0.857137
vt 0.376799 0.857137
vt 0.380056 0.857137
vt 0.376799 0.867300
vt 0.379567 0.867300
vt 0.379567 0.867815
vt 0.376799 0.867814
vt 0.379567 0.867814
vt 0.376799 0.867814
vt 0.380056 0.860867
vt 0.376799 0.860867
vt 0.380056 0.864084
vt 0.376799 0.864084
s 1
usemtl Palette
f 47/47/1 2/2/2 17/17/3 64/64/4
f 67/67/5 122/122/6 90/90/7 60/60/8
f 41/41/9 72/72/10 93/93/11 58/58/12
f 29/29/13 9/9/14 24/24/15 40/40/16
f 1/1/17 4/4/18 5/5/19 7/7/20
f 2/2/2 6/6/21 5/5/19 4/4/18
f 3/3/22 7/7/20 5/5/19 6/6/21
f 8/8/23 11/11/24 12/12/25 14/14/26
f 9/9/14 13/13/27 12/12/25 11/11/24
f 10/10/28 14/14/26 12/12/25 13/13/27
f 15/15/29 18/18/30 19/19/31 21/21/32
f 16/16/33 20/20/34 19/19/31 18/18/30
f 17/17/3 21/21/32 19/19/31 20/20/34
f 22/22/35 25/25/36 26/26/37 28/28/38
f 23/23/39 27/27/40 26/26/37 25/25/36
f 24/24/15 28/28/38 26/26/37 27/27/40
f 42/42/41 8/8/23 14/14/26 43/43/42
f 43/43/42 14/14/26 10/10/28 45/45/43
f 30/30/44 1/1/17 7/7/20 31/31/45
f 31/31/45 7/7/20 3/3/22 33/33/46
f 48/48/47 70/70/48 71/71/49 49/49/50
f 49/49/50 71/71/49 69/69/51 51/51/52
f 54/54/53 23/23/39 25/25/36 55/55/54
f 55/55/54 25/25/36 22/22/35 57/57/55
f 36/36/56 16/16/33 18/18/30 37/37/57
f 37/37/57 18/18/30 15/15/29 39/39/58
f 60/60/8 90/90/7 91/91/59 61/61/60
f 61/61/60 91/91/59 89/89/61 63/63/62
f 8/8/23 22/22/35 28/28/38 11/11/24
f 11/11/24 28/28/38 24/24/15 9/9/14
f 17/17/3 2/2/2 4/4/18 21/21/32
f 21/21/32 4/4/18 1/1/17 15/15/29
f 27/27/40 38/38/63 40/40/16 24/24/15
f 38/38/63 37/37/57 39/39/58 40/40/16
f 23/23/39 35/35/64 38/38/63 27/27/40
f 35/35/64 36/36/56 37/37/57 38/38/63
f 13/13/27 32/32/65 34/34/66 10/10/28
f 32/32/65 31/31/45 33/33/46 34/34/66
f 9/9/14 29/29/13 32/32/65 13/13/27
f 29/29/13 30/30/44 31/31/45 32/32/65
f 1/1/17 30/30/44 39/39/58 15/15/29
f 30/30/44 29/29/13 40/40/16 39/39/58
f 53/53/67 92/92/68 121/121/69 65/65/69
f 65/65/69 121/121/69 122/122/6 67/67/5
f 35/35/64 66/66/70 68/68/71 36/36/56
f 66/66/70 65/65/69 67/67/5 68/68/71
f 23/23/39 54/54/53 66/66/70 35/35/64
f 54/54/53 53/53/67 65/65/69 66/66/70
f 51/51/52 69/69/51 73/73/72 46/46/72 45/45/43 10/10/28 34/34/66 33/33/46 3/3/22 52/52/73
f 20/20/34 62/62/74 64/64/4 17/17/3
f 62/62/74 61/61/60 63/63/62 64/64/4
f 16/16/33 59/59/75 62/62/74 20/20/34
f 59/59/75 60/60/8 61/61/60 62/62/74
f 94/94/76 56/56/77 58/58/12 93/93/11
f 56/56/77 55/55/54 57/57/55 58/58/12
f 92/92/68 53/53/67 56/56/77 94/94/76
f 53/53/67 54/54/53 55/55/54 56/56/77
f 6/6/21 50/50/78 52/52/73 3/3/22
f 50/50/78 49/49/50 51/51/52 52/52/73
f 2/2/2 47/47/1 50/50/78 6/6/21
f 47/47/1 48/48/47 49/49/50 50/50/78
f 74/74/79 44/44/80 46/46/72 73/73/72
f 44/44/80 43/43/42 45/45/43 46/46/72
f 72/72/10 41/41/9 44/44/80 74/74/79
f 41/41/9 42/42/41 43/43/42 44/44/80
f 8/8/23 42/42/41 57/57/55 22/22/35
f 42/42/41 41/41/9 58/58/12 57/57/55
f 36/36/56 68/68/71 59/59/75 16/16/33
f 68/68/71 67/67/5 60/60/8 59/59/75
f 70/70/48 48/48/47 63/63/62 89/89/61
f 48/48/47 47/47/1 64/64/4 63/63/62
f 129/129/81 146/146/82 97/97/83 76/76/84
f 149/149/85 142/142/86 90/90/7 122/122/6
f 123/123/9 140/140/12 93/93/11 72/72/10
f 109/109/87 120/120/88 104/104/89 83/83/90
f 75/75/91 81/81/92 79/79/93 78/78/94
f 76/76/84 78/78/94 79/79/93 80/80/95
f 77/77/96 80/80/95 79/79/93 81/81/92
f 82/82/97 88/88/98 86/86/99 85/85/100
f 83/83/90 85/85/100 86/86/99 87/87/101
f 84/84/102 87/87/101 86/86/99 88/88/98
f 95/95/103 101/101/104 99/99/105 98/98/106
f 96/96/107 98/98/106 99/99/105 100/100/108
f 97/97/83 100/100/108 99/99/105 101/101/104
f 102/102/109 108/108/110 106/106/111 105/105/112
f 103/103/113 105/105/112 106/106/111 107/107/114
f 104/104/89 107/107/114 106/106/111 108/108/110
f 124/124/115 125/125/116 88/88/98 82/82/97
f 125/125/116 127/127/117 84/84/102 88/88/98
f 110/110/118 111/111/119 81/81/92 75/75/91
f 111/111/119 113/113/120 77/77/96 81/81/92
f 130/130/121 131/131/122 71/71/49 70/70/48
f 131/131/122 133/133/123 69/69/51 71/71/49
f 136/136/124 137/137/125 105/105/112 103/103/113
f 137/137/125 139/139/126 102/102/109 105/105/112
f 116/116/127 117/117/128 98/98/106 96/96/107
f 117/117/128 119/119/129 95/95/103 98/98/106
f 142/142/86 143/143/130 91/91/59 90/90/7
f 143/143/130 145/145/131 89/89/61 91/91/59
f 82/82/97 85/85/100 108/108/110 102/102/109
f 85/85/100 83/83/90 104/104/89 108/108/110
f 97/97/83 101/101/104 78/78/94 76/76/84
f 101/101/104 95/95/103 75/75/91 78/78/94
f 107/107/114 104/104/89 120/120/88 118/118/132
f 118/118/132 120/120/88 119/119/129 117/117/128
f 103/103/113 107/107/114 118/118/132 115/115/133
f 115/115/133 118/118/132 117/117/128 116/116/127
f 87/87/101 84/84/102 114/114/134 112/112/135
f 112/112/135 114/114/134 113/113/120 111/111/119
f 83/83/90 87/87/101 112/112/135 109/109/87
f 109/109/87 112/112/135 111/111/119 110/110/118
f 75/75/91 95/95/103 119/119/129 110/110/118
f 110/110/118 119/119/129 120/120/88 109/109/87
f 135/135/67 147/147/69 121/121/69 92/92/68
f 147/147/69 149/149/85 122/122/6 121/121/69
f 115/115/133 116/116/127 150/150/136 148/148/137
f 148/148/137 150/150/136 149/149/85 147/147/69
f 103/103/113 115/115/133 148/148/137 136/136/124
f 136/136/124 148/148/137 147/147/69 135/135/67
f 133/133/123 134/134/138 77/77/96 113/113/120 114/114/134 84/84/102 127/127/117 128/128/72 73/73/72 69/69/51
f 100/100/108 97/97/83 146/146/82 144/144/139
f 144/144/139 146/146/82 145/145/131 143/143/130
f 96/96/107 100/100/108 144/144/139 141/141/140
f 141/141/140 144/144/139 143/143/130 142/142/86
f 94/94/76 93/93/11 140/140/12 138/138/77
f 138/138/77 140/140/12 139/139/126 137/137/125
f 92/92/68 94/94/76 138/138/77 135/135/67
f 135/135/67 138/138/77 137/137/125 136/136/124
f 80/80/95 77/77/96 134/134/138 132/132/141
f 132/132/141 134/134/138 133/133/123 131/131/122
f 76/76/84 80/80/95 132/132/141 129/129/81
f 129/129/81 132/132/141 131/131/122 130/130/121
f 74/74/79 73/73/72 128/128/72 126/126/80
f 126/126/80 128/128/72 127/127/117 125/125/116
f 72/72/10 74/74/79 126/126/80 123/123/9
f 123/123/9 126/126/80 125/125/116 124/124/115
f 82/82/97 102/102/109 139/139/126 124/124/115
f 124/124/115 139/139/126 140/140/12 123/123/9
f 116/116/127 96/96/107 141/141/140 150/150/136
f 150/150/136 141/141/140 142/142/86 149/149/85
f 70/70/48 89/89/61 145/145/131 130/130/121
f 130/130/121 145/145/131 146/146/82 129/129/81
