# Blender 3.4.1
# www.blender.org
mtllib Controller__TV_.mtl
o Controller_(TV)
v -0.038186 0.008482 -0.180740
v -0.045803 0.011852 0.198153
v 0.045803 0.011852 0.198153
v 0.038187 0.008482 -0.180740
v -0.038505 0.016053 -0.038034
v -0.038505 0.016053 -0.023614
v -0.017298 0.016053 -0.023614
v -0.017298 0.016053 -0.038034
v -0.038505 0.010693 -0.038034
v -0.038505 0.010693 -0.023614
v -0.017298 0.010693 -0.023614
v -0.017298 0.010693 -0.038034
v -0.027519 0.016053 -0.168013
v -0.032397 0.016053 -0.166238
v -0.034993 0.016053 -0.161742
v -0.034091 0.016053 -0.156629
v -0.030114 0.016053 -0.153292
v -0.024923 0.016053 -0.153292
v -0.020946 0.016053 -0.156629
v -0.020045 0.016053 -0.161742
v -0.022640 0.016053 -0.166238
v -0.032397 0.007976 -0.166238
v -0.027519 0.007976 -0.168013
v -0.034993 0.007976 -0.161742
v -0.034091 0.007976 -0.156629
v -0.030114 0.007976 -0.153292
v -0.024923 0.007976 -0.153292
v -0.020946 0.007976 -0.156629
v -0.020045 0.007976 -0.161742
v -0.022640 0.007976 -0.166238
v -0.009777 0.016053 -0.038034
v -0.009777 0.016053 -0.023614
v 0.011430 0.016053 -0.023614
v 0.011430 0.016053 -0.038034
v -0.009777 0.010693 -0.038034
v -0.009777 0.010693 -0.023614
v 0.011430 0.010693 -0.023614
v 0.011430 0.010693 -0.038034
v 0.017350 0.016053 -0.038034
v 0.017350 0.016053 -0.023614
v 0.038557 0.016053 -0.023614
v 0.038557 0.016053 -0.038034
v 0.017350 0.010693 -0.038034
v 0.017350 0.010693 -0.023614
v 0.038557 0.010693 -0.023614
v 0.038557 0.010693 -0.038034
v -0.038505 0.016053 -0.015582
v -0.038505 0.016053 -0.001161
v -0.017298 0.016053 -0.001161
v -0.017298 0.016053 -0.015582
v -0.038505 0.010693 -0.015582
v -0.038505 0.010693 -0.001161
v -0.017298 0.010693 -0.001161
v -0.017298 0.010693 -0.015582
v -0.009777 0.016053 -0.015582
v -0.009777 0.016053 -0.001161
v 0.011430 0.016053 -0.001161
v 0.011430 0.016053 -0.015582
v -0.009777 0.010693 -0.015582
v -0.009777 0.010693 -0.001161
v 0.011430 0.010693 -0.001161
v 0.011430 0.010693 -0.015582
v 0.017350 0.016053 -0.015582
v 0.017350 0.016053 -0.001161
v 0.038557 0.016053 -0.001161
v 0.038557 0.016053 -0.015582
v 0.017350 0.010693 -0.015582
v 0.017350 0.010693 -0.001161
v 0.038557 0.010693 -0.001161
v 0.038557 0.010693 -0.015582
v -0.038505 0.016053 0.005770
v -0.038505 0.016053 0.020191
v -0.017298 0.016053 0.020191
v -0.017298 0.016053 0.005770
v -0.038505 0.010693 0.005770
v -0.038505 0.010693 0.020191
v -0.017298 0.010693 0.020191
v -0.017298 0.010693 0.005770
v -0.009777 0.016053 0.005770
v -0.009777 0.016053 0.020191
v 0.011430 0.016053 0.020191
v 0.011430 0.016053 0.005770
v -0.009777 0.010693 0.005770
v -0.009777 0.010693 0.020191
v 0.011430 0.010693 0.020191
v 0.011430 0.010693 0.005770
v 0.017350 0.016053 0.005770
v 0.017350 0.016053 0.020191
v 0.038557 0.016053 0.020191
v 0.038557 0.016053 0.005770
v 0.017350 0.010693 0.005770
v 0.017350 0.010693 0.020191
v 0.038557 0.010693 0.020191
v 0.038557 0.010693 0.005770
v -0.038505 0.016053 0.026205
v -0.038505 0.016053 0.040626
v -0.017298 0.016053 0.040626
v -0.017298 0.016053 0.026205
v -0.038505 0.010693 0.026205
v -0.038505 0.010693 0.040626
v -0.017298 0.010693 0.040626
v -0.017298 0.010693 0.026205
v -0.009777 0.016053 0.026205
v -0.009777 0.016053 0.040626
v 0.011430 0.016053 0.040626
v 0.011430 0.016053 0.026205
v -0.009777 0.010693 0.026205
v -0.009777 0.010693 0.040626
v 0.011430 0.010693 0.040626
v 0.011430 0.010693 0.026205
v 0.017350 0.016053 0.026205
v 0.017350 0.016053 0.040626
v 0.038557 0.016053 0.040626
v 0.038557 0.016053 0.026205
v 0.017350 0.010693 0.026205
v 0.017350 0.010693 0.040626
v 0.038557 0.010693 0.040626
v 0.038557 0.010693 0.026205
v -0.005983 0.016053 -0.166707
v -0.010021 0.016053 -0.165237
v -0.012171 0.016053 -0.161515
v -0.011424 0.016053 -0.157282
v -0.008132 0.016053 -0.154519
v -0.003833 0.016053 -0.154519
v -0.000541 0.016053 -0.157282
v 0.000205 0.016053 -0.161515
v -0.001944 0.016053 -0.165237
v -0.010021 0.007976 -0.165237
v -0.005983 0.007976 -0.166707
v -0.012171 0.007976 -0.161515
v -0.011424 0.007976 -0.157282
v -0.008132 0.007976 -0.154519
v -0.003833 0.007976 -0.154519
v -0.000541 0.007976 -0.157282
v 0.000205 0.007976 -0.161515
v -0.001944 0.007976 -0.165237
v -0.027959 0.016053 -0.095977
v -0.027959 0.016053 -0.087783
v -0.015851 0.016053 -0.083687
v -0.015851 0.016053 -0.100075
v -0.027959 0.010693 -0.095977
v -0.027959 0.010693 -0.087783
v -0.015851 0.010693 -0.083687
v -0.015851 0.010693 -0.100075
v 0.015903 0.016053 -0.100075
v 0.015903 0.016053 -0.083687
v 0.028010 0.016053 -0.087783
v 0.028010 0.016053 -0.095977
v 0.015903 0.010693 -0.100075
v 0.015903 0.010693 -0.083687
v 0.028010 0.010693 -0.087783
v 0.028010 0.010693 -0.095977
v -0.004069 0.010693 -0.119861
v 0.004125 0.010693 -0.119861
v 0.008222 0.010693 -0.107754
v -0.008167 0.010693 -0.107754
v -0.004069 0.016053 -0.119861
v 0.004125 0.016053 -0.119861
v 0.008222 0.016053 -0.107754
v -0.008167 0.016053 -0.107754
v -0.008167 0.010693 -0.076000
v 0.008222 0.010693 -0.076000
v 0.004125 0.010693 -0.063892
v -0.004069 0.010693 -0.063892
v -0.008167 0.016053 -0.076000
v 0.008222 0.016053 -0.076000
v 0.004125 0.016053 -0.063892
v -0.004069 0.016053 -0.063892
v -0.035894 -0.011852 0.188244
v -0.045803 -0.001943 0.198153
v 0.035894 -0.011852 0.188244
v 0.045803 -0.001943 0.198153
v -0.038186 0.001427 -0.180740
v -0.035894 -0.011852 -0.170831
v 0.035894 -0.011852 -0.170831
v 0.038187 0.001427 -0.180740
v 0.045803 0.011852 -0.180740
v -0.045803 0.011852 -0.180740
v -0.045803 -0.001943 -0.180740
v 0.045803 -0.001943 -0.180740
v -0.003299 0.016053 -0.100075
v -0.009381 0.016053 -0.093993
v -0.008101 0.016053 -0.098795
v -0.009381 0.016053 -0.089769
v -0.003299 0.016053 -0.083687
v -0.008101 0.016053 -0.084967
v 0.003243 0.016053 -0.083687
v 0.009325 0.016053 -0.089769
v 0.008045 0.016053 -0.084967
v 0.009325 0.016053 -0.093993
v 0.003243 0.016053 -0.100075
v 0.008045 0.016053 -0.098795
v -0.009381 0.010693 -0.093993
v -0.003299 0.010693 -0.100075
v -0.008101 0.010693 -0.098795
v -0.003299 0.010693 -0.083687
v -0.009381 0.010693 -0.089769
v -0.008101 0.010693 -0.084967
v 0.009325 0.010693 -0.089769
v 0.003243 0.010693 -0.083687
v 0.008045 0.010693 -0.084967
v 0.003243 0.010693 -0.100075
v 0.009325 0.010693 -0.093993
v 0.008045 0.010693 -0.098795
v 0.023628 0.010693 0.064076
v 0.031822 0.010693 0.064076
v 0.035918 0.010693 0.076184
v 0.019530 0.010693 0.076184
v 0.023628 0.016053 0.064076
v 0.031822 0.016053 0.064076
v 0.035918 0.016053 0.076184
v 0.019530 0.016053 0.076184
v 0.019530 0.010693 0.085743
v 0.035918 0.010693 0.085743
v 0.031822 0.010693 0.097850
v 0.023628 0.010693 0.097850
v 0.019530 0.016053 0.085743
v 0.035918 0.016053 0.085743
v 0.031822 0.016053 0.097850
v 0.023628 0.016053 0.097850
v -0.003046 0.010693 0.064076
v 0.005148 0.010693 0.064076
v 0.009244 0.010693 0.076184
v -0.007144 0.010693 0.076184
v -0.003046 0.016053 0.064076
v 0.005148 0.016053 0.064076
v 0.009244 0.016053 0.076184
v -0.007144 0.016053 0.076184
v -0.007144 0.010693 0.085743
v 0.009244 0.010693 0.085743
v 0.005148 0.010693 0.097850
v -0.003046 0.010693 0.097850
v -0.007144 0.016053 0.085743
v 0.009244 0.016053 0.085743
v 0.005148 0.016053 0.097850
v -0.003046 0.016053 0.097850
vn -0.0000 -0.0000 1.0000
vn -0.0000 1.0000 -0.0000
vn 1.0000 -0.0000 -0.0000
vn -0.0000 -0.0000 -1.0000
vn -0.0000 -1.0000 -0.0000
vn -1.0000 -0.0000 -0.0000
vn -0.8660 -0.0000 -0.5000
vn 0.3420 -0.0000 -0.9397
vn 0.6428 -0.0000 0.7660
vn -0.9848 -0.0000 0.1736
vn 0.9848 -0.0000 0.1736
vn -0.6428 -0.0000 0.7660
vn -0.3420 -0.0000 -0.9397
vn 0.8660 -0.0000 -0.5000
vn -0.3206 -0.0000 -0.9472
vn -0.3205 -0.0000 0.9472
vn 0.3206 -0.0000 -0.9472
vn 0.3205 -0.0000 0.9472
vn 0.9472 -0.0000 -0.3205
vn -0.9472 -0.0000 -0.3206
vn 0.9472 -0.0000 0.3205
vn -0.9472 -0.0000 0.3206
vn -0.7071 -0.7071 -0.0000
vn -0.0000 -0.7071 0.7071
vn 0.7071 -0.7071 -0.0000
vn -0.0000 -0.7071 -0.7071
vn -0.2576 -0.0000 -0.9663
vn -0.9663 -0.0000 -0.2576
vn 0.2576 -0.0000 -0.9663
vn 0.9663 -0.0000 -0.2576
vn 0.2576 -0.0000 0.9663
vn 0.9663 -0.0000 0.2576
vn -0.2576 -0.0000 0.9663
vn -0.9663 -0.0000 0.2576
vt 0.180101 0.967158
vt 0.099274 0.981286
vt 0.097434 0.931286
vt 0.147434 0.931286
vt 0.226422 0.967158
vt 0.145595 0.981286
vt 0.017571 0.985309
vt 0.017571 0.935309
vt 0.067571 0.935309
vt 0.067571 0.985309
vt 0.017571 0.985309
vt 0.017571 0.935309
vt 0.067571 0.935309
vt 0.067571 0.985309
vt 0.285413 0.867508
vt 0.285413 0.867508
vt 0.285413 0.867508
vt 0.285413 0.867508
vt 0.285413 0.867508
vt 0.285413 0.867508
vt 0.285413 0.867508
vt 0.285413 0.867508
vt 0.285413 0.867508
vt 0.285413 0.867508
vt 0.285413 0.867508
vt 0.285413 0.867508
vt 0.285413 0.867508
vt 0.285413 0.867508
vt 0.285413 0.867508
vt 0.285413 0.867508
vt 0.285413 0.867508
vt 0.285413 0.867508
vt 0.017571 0.985309
vt 0.017571 0.935309
vt 0.067571 0.935309
vt 0.067571 0.985309
vt 0.017571 0.985309
vt 0.017571 0.935309
vt 0.067571 0.935309
vt 0.067571 0.985309
vt 0.017571 0.985309
vt 0.017571 0.935309
vt 0.067571 0.935309
vt 0.067571 0.985309
vt 0.017571 0.985309
vt 0.017571 0.935309
vt 0.067571 0.935309
vt 0.067571 0.985309
vt 0.017571 0.985309
vt 0.017571 0.935309
vt 0.067571 0.935309
vt 0.067571 0.985309
vt 0.017571 0.985309
vt 0.017571 0.935309
vt 0.067571 0.935309
vt 0.067571 0.985309
vt 0.017571 0.985309
vt 0.017571 0.935309
vt 0.067571 0.935309
vt 0.067571 0.985309
vt 0.017571 0.985309
vt 0.017571 0.935309
vt 0.067571 0.935309
vt 0.067571 0.985309
vt 0.017571 0.985309
vt 0.017571 0.935309
vt 0.067571 0.935309
vt 0.067571 0.985309
vt 0.017571 0.985309
vt 0.017571 0.935309
vt 0.067571 0.935309
vt 0.067571 0.985309
vt 0.017571 0.985309
vt 0.017571 0.935309
vt 0.067571 0.935309
vt 0.067571 0.985309
vt 0.017571 0.985309
vt 0.017571 0.935309
vt 0.067571 0.935309
vt 0.067571 0.985309
vt 0.017571 0.985309
vt 0.017571 0.935309
vt 0.067571 0.935309
vt 0.067571 0.985309
vt 0.017571 0.985309
vt 0.017571 0.935309
vt 0.067571 0.935309
vt 0.067571 0.985309
vt 0.017571 0.985309
vt 0.017571 0.935309
vt 0.067571 0.935309
vt 0.067571 0.985309
vt 0.017571 0.985309
vt 0.017571 0.935309
vt 0.067571 0.935309
vt 0.067571 0.985309
vt 0.017571 0.985309
vt 0.017571 0.935309
vt 0.067571 0.935309
vt 0.067571 0.985309
vt 0.017571 0.985309
vt 0.017571 0.935309
vt 0.067571 0.935309
vt 0.067571 0.985309
vt 0.017571 0.985309
vt 0.017571 0.935309
vt 0.067571 0.935309
vt 0.067571 0.985309
vt 0.017571 0.985309
vt 0.017571 0.935309
vt 0.067571 0.935309
vt 0.067571 0.985309
vt 0.017571 0.985309
vt 0.017571 0.935309
vt 0.067571 0.935309
vt 0.067571 0.985309
vt 0.017571 0.985309
vt 0.017571 0.935309
vt 0.067571 0.935309
vt 0.067571 0.985309
vt 0.356968 0.878947
vt 0.356968 0.878947
vt 0.356968 0.878947
vt 0.356968 0.878947
vt 0.356968 0.878947
vt 0.356968 0.878947
vt 0.356968 0.878947
vt 0.356968 0.878947
vt 0.356968 0.878947
vt 0.356968 0.878947
vt 0.356968 0.878947
vt 0.356968 0.878947
vt 0.356968 0.878947
vt 0.356968 0.878947
vt 0.356968 0.878947
vt 0.356968 0.878947
vt 0.356968 0.878947
vt 0.356968 0.878947
vt 0.017571 0.985309
vt 0.017571 0.935309
vt 0.067571 0.935309
vt 0.067571 0.985309
vt 0.017571 0.985309
vt 0.017571 0.935309
vt 0.067571 0.935309
vt 0.067571 0.985309
vt 0.017571 0.985309
vt 0.017571 0.935309
vt 0.067571 0.935309
vt 0.067571 0.985309
vt 0.017571 0.985309
vt 0.017571 0.935309
vt 0.067571 0.935309
vt 0.067571 0.985309
vt 0.067571 0.985309
vt 0.067571 0.935309
vt 0.017571 0.935309
vt 0.017571 0.985309
vt 0.067571 0.985309
vt 0.067571 0.935309
vt 0.017571 0.935309
vt 0.017571 0.985309
vt 0.067571 0.985309
vt 0.067571 0.935309
vt 0.017571 0.935309
vt 0.017571 0.985309
vt 0.067571 0.985309
vt 0.067571 0.935309
vt 0.017571 0.935309
vt 0.017571 0.985309
vt 0.102843 0.932958
vt 0.097434 0.931286
vt 0.142026 0.932958
vt 0.147434 0.931286
vt 0.180100 0.967158
vt 0.099274 0.981286
vt 0.102843 0.979613
vt 0.142026 0.979613
vt 0.226422 0.967158
vt 0.145595 0.981286
vt 0.147434 0.981286
vt 0.097434 0.981286
vt 0.097434 0.981286
vt 0.147434 0.981286
vt 0.033828 0.985309
vt 0.017571 0.966752
vt 0.018712 0.984007
vt 0.017571 0.953865
vt 0.033828 0.935309
vt 0.018712 0.936611
vt 0.051314 0.935309
vt 0.067571 0.953865
vt 0.066431 0.936611
vt 0.067571 0.966752
vt 0.051314 0.985309
vt 0.066431 0.984007
vt 0.017571 0.966752
vt 0.033828 0.985309
vt 0.017571 0.985309
vt 0.033828 0.935309
vt 0.017571 0.953865
vt 0.017571 0.935309
vt 0.067571 0.953865
vt 0.051314 0.935309
vt 0.067571 0.935309
vt 0.051314 0.985309
vt 0.067571 0.966752
vt 0.067571 0.985309
vt 0.067571 0.985309
vt 0.067571 0.935309
vt 0.017571 0.935309
vt 0.017571 0.985309
vt 0.067571 0.985309
vt 0.067571 0.935309
vt 0.017571 0.935309
vt 0.017571 0.985309
vt 0.067571 0.985309
vt 0.067571 0.935309
vt 0.017571 0.935309
vt 0.017571 0.985309
vt 0.067571 0.985309
vt 0.067571 0.935309
vt 0.017571 0.935309
vt 0.017571 0.985309
vt 0.067571 0.985309
vt 0.067571 0.935309
vt 0.017571 0.935309
vt 0.017571 0.985309
vt 0.067571 0.985309
vt 0.067571 0.935309
vt 0.017571 0.935309
vt 0.017571 0.985309
vt 0.067571 0.985309
vt 0.067571 0.935309
vt 0.017571 0.935309
vt 0.017571 0.985309
vt 0.067571 0.985309
vt 0.067571 0.935309
vt 0.017571 0.935309
vt 0.017571 0.985309
s 0
usemtl Palette
f 170/172/1 172/174/1 3/4/1 2/3/1
f 2/3/2 3/4/2 177/181/2 178/182/2
f 172/174/3 180/184/3 177/181/3 3/4/3
f 176/179/4 173/175/4 1/1/4 4/5/4
f 169/171/5 174/177/5 175/178/5 171/173/5
f 6/8/2 7/9/2 8/10/2 5/7/2
f 8/10/4 12/14/4 9/11/4 5/7/4
f 6/8/1 10/12/1 11/13/1 7/9/1
f 7/9/3 11/13/3 12/14/3 8/10/3
f 5/7/6 9/11/6 10/12/6 6/8/6
f 14/16/2 15/17/2 16/18/2 17/19/2 18/20/2 19/21/2 20/22/2 21/23/2 13/15/2
f 14/16/7 22/24/7 24/26/7 15/17/7
f 21/23/8 30/32/8 23/25/8 13/15/8
f 18/20/9 27/29/9 28/30/9 19/21/9
f 15/17/10 24/26/10 25/27/10 16/18/10
f 19/21/11 28/30/11 29/31/11 20/22/11
f 16/18/12 25/27/12 26/28/12 17/19/12
f 13/15/13 23/25/13 22/24/13 14/16/13
f 20/22/14 29/31/14 30/32/14 21/23/14
f 17/19/1 26/28/1 27/29/1 18/20/1
f 32/34/2 33/35/2 34/36/2 31/33/2
f 34/36/4 38/40/4 35/37/4 31/33/4
f 32/34/1 36/38/1 37/39/1 33/35/1
f 33/35/3 37/39/3 38/40/3 34/36/3
f 31/33/6 35/37/6 36/38/6 32/34/6
f 40/42/2 41/43/2 42/44/2 39/41/2
f 42/44/4 46/48/4 43/45/4 39/41/4
f 40/42/1 44/46/1 45/47/1 41/43/1
f 41/43/3 45/47/3 46/48/3 42/44/3
f 39/41/6 43/45/6 44/46/6 40/42/6
f 48/50/2 49/51/2 50/52/2 47/49/2
f 50/52/4 54/56/4 51/53/4 47/49/4
f 48/50/1 52/54/1 53/55/1 49/51/1
f 49/51/3 53/55/3 54/56/3 50/52/3
f 47/49/6 51/53/6 52/54/6 48/50/6
f 56/58/2 57/59/2 58/60/2 55/57/2
f 58/60/4 62/64/4 59/61/4 55/57/4
f 56/58/1 60/62/1 61/63/1 57/59/1
f 57/59/3 61/63/3 62/64/3 58/60/3
f 55/57/6 59/61/6 60/62/6 56/58/6
f 64/66/2 65/67/2 66/68/2 63/65/2
f 66/68/4 70/72/4 67/69/4 63/65/4
f 64/66/1 68/70/1 69/71/1 65/67/1
f 65/67/3 69/71/3 70/72/3 66/68/3
f 63/65/6 67/69/6 68/70/6 64/66/6
f 72/74/2 73/75/2 74/76/2 71/73/2
f 74/76/4 78/80/4 75/77/4 71/73/4
f 72/74/1 76/78/1 77/79/1 73/75/1
f 73/75/3 77/79/3 78/80/3 74/76/3
f 71/73/6 75/77/6 76/78/6 72/74/6
f 80/82/2 81/83/2 82/84/2 79/81/2
f 82/84/4 86/88/4 83/85/4 79/81/4
f 80/82/1 84/86/1 85/87/1 81/83/1
f 81/83/3 85/87/3 86/88/3 82/84/3
f 79/81/6 83/85/6 84/86/6 80/82/6
f 88/90/2 89/91/2 90/92/2 87/89/2
f 90/92/4 94/96/4 91/93/4 87/89/4
f 88/90/1 92/94/1 93/95/1 89/91/1
f 89/91/3 93/95/3 94/96/3 90/92/3
f 87/89/6 91/93/6 92/94/6 88/90/6
f 96/98/2 97/99/2 98/100/2 95/97/2
f 98/100/4 102/104/4 99/101/4 95/97/4
f 96/98/1 100/102/1 101/103/1 97/99/1
f 97/99/3 101/103/3 102/104/3 98/100/3
f 95/97/6 99/101/6 100/102/6 96/98/6
f 104/106/2 105/107/2 106/108/2 103/105/2
f 106/108/4 110/112/4 107/109/4 103/105/4
f 104/106/1 108/110/1 109/111/1 105/107/1
f 105/107/3 109/111/3 110/112/3 106/108/3
f 103/105/6 107/109/6 108/110/6 104/106/6
f 112/114/2 113/115/2 114/116/2 111/113/2
f 114/116/4 118/120/4 115/117/4 111/113/4
f 112/114/1 116/118/1 117/119/1 113/115/1
f 113/115/3 117/119/3 118/120/3 114/116/3
f 111/113/6 115/117/6 116/118/6 112/114/6
f 120/122/2 121/123/2 122/124/2 123/125/2 124/126/2 125/127/2 126/128/2 127/129/2 119/121/2
f 120/122/7 128/130/7 130/132/7 121/123/7
f 127/129/8 136/138/8 129/131/8 119/121/8
f 124/126/9 133/135/9 134/136/9 125/127/9
f 121/123/10 130/132/10 131/133/10 122/124/10
f 125/127/11 134/136/11 135/137/11 126/128/11
f 122/124/12 131/133/12 132/134/12 123/125/12
f 119/121/13 129/131/13 128/130/13 120/122/13
f 126/128/14 135/137/14 136/138/14 127/129/14
f 123/125/1 132/134/1 133/135/1 124/126/1
f 138/140/2 139/141/2 140/142/2 137/139/2
f 140/142/15 144/146/15 141/143/15 137/139/15
f 138/140/16 142/144/16 143/145/16 139/141/16
f 139/141/3 143/145/3 144/146/3 140/142/3
f 137/139/6 141/143/6 142/144/6 138/140/6
f 146/148/2 147/149/2 148/150/2 145/147/2
f 148/150/17 152/154/17 149/151/17 145/147/17
f 146/148/18 150/152/18 151/153/18 147/149/18
f 147/149/3 151/153/3 152/154/3 148/150/3
f 145/147/6 149/151/6 150/152/6 146/148/6
f 158/160/4 154/156/4 153/155/4 157/159/4
f 159/161/19 155/157/19 154/156/19 158/160/19
f 157/159/20 153/155/20 156/158/20 160/162/20
f 159/161/2 158/160/2 157/159/2 160/162/2
f 160/162/1 156/158/1 155/157/1 159/161/1
f 191/195/4 202/206/4 194/198/4 181/185/4
f 185/189/1 196/200/1 200/204/1 187/191/1
f 188/192/3 199/203/3 203/207/3 190/194/3
f 184/188/2 186/190/2 185/189/2 187/191/2 189/193/2 188/192/2 190/194/2 192/196/2 191/195/2 181/185/2 183/187/2 182/186/2
f 166/168/4 162/164/4 161/163/4 165/167/4
f 167/169/21 163/165/21 162/164/21 166/168/21
f 165/167/22 161/163/22 164/166/22 168/170/22
f 167/169/2 166/168/2 165/167/2 168/170/2
f 168/170/1 164/166/1 163/165/1 167/169/1
f 174/177/23 169/171/23 170/172/23 179/183/23
f 169/171/24 171/173/24 172/174/24 170/172/24
f 171/173/25 175/178/25 180/184/25 172/174/25
f 175/178/26 174/177/26 179/183/26 180/184/26
f 179/183/6 170/172/6 2/3/6 178/182/6
f 4/6/4 1/2/4 178/182/4 177/181/4
f 173/176/4 176/180/4 180/184/4 179/183/4
f 1/2/4 173/176/4 179/183/4 178/182/4
f 176/180/4 4/6/4 177/181/4 180/184/4
f 181/185/27 194/198/27 195/199/27 183/187/27
f 183/187/28 195/199/28 193/197/28 182/186/28
f 202/206/29 191/195/29 192/196/29 204/208/29
f 204/208/30 192/196/30 190/194/30 203/207/30
f 187/191/31 200/204/31 201/205/31 189/193/31
f 189/193/32 201/205/32 199/203/32 188/192/32
f 196/200/33 185/189/33 186/190/33 198/202/33
f 198/202/34 186/190/34 184/188/34 197/201/34
f 182/186/6 193/197/6 197/201/6 184/188/6
f 210/214/4 206/210/4 205/209/4 209/213/4
f 211/215/19 207/211/19 206/210/19 210/214/19
f 209/213/20 205/209/20 208/212/20 212/216/20
f 211/215/2 210/214/2 209/213/2 212/216/2
f 212/216/1 208/212/1 207/211/1 211/215/1
f 218/222/4 214/218/4 213/217/4 217/221/4
f 219/223/21 215/219/21 214/218/21 218/222/21
f 217/221/22 213/217/22 216/220/22 220/224/22
f 219/223/2 218/222/2 217/221/2 220/224/2
f 220/224/1 216/220/1 215/219/1 219/223/1
f 226/230/4 222/226/4 221/225/4 225/229/4
f 227/231/19 223/227/19 222/226/19 226/230/19
f 225/229/20 221/225/20 224/228/20 228/232/20
f 227/231/2 226/230/2 225/229/2 228/232/2
f 228/232/1 224/228/1 223/227/1 227/231/1
f 234/238/4 230/234/4 229/233/4 233/237/4
f 235/239/21 231/235/21 230/234/21 234/238/21
f 233/237/22 229/233/22 232/236/22 236/240/22
f 235/239/2 234/238/2 233/237/2 236/240/2
f 236/240/1 232/236/1 231/235/1 235/239/1
