# Blender 3.4.1
# www.blender.org
mtllib Counter_Drawer.mtl
o Counter_Drawer
v 0.227614 -0.103421 0.233958
v 0.227614 0.089049 0.233958
v 0.227614 -0.103421 -0.274608
v 0.227614 0.089049 -0.274608
v 0.201129 0.089049 0.204782
v 0.201129 0.089049 -0.251231
v 0.201129 -0.088227 0.204782
v 0.201129 -0.088227 -0.251231
v -0.227614 -0.103421 0.233958
v -0.227614 0.089049 0.233958
v -0.227614 -0.103421 -0.274608
v -0.227614 0.089049 -0.274608
v -0.201129 0.089049 0.204782
v -0.201129 0.089049 -0.251231
v -0.201129 -0.088227 0.204782
v -0.201129 -0.088227 -0.251231
v 0.014725 -0.009005 0.229467
v 0.014726 0.008801 0.229467
v 0.014726 0.008801 0.255638
v 0.014725 -0.009005 0.255638
v -0.000000 0.015961 0.229466
v -0.000000 -0.016165 0.229466
v -0.014726 -0.009005 0.229467
v -0.014727 0.008801 0.229467
v -0.000000 -0.016165 0.255638
v -0.000000 0.015961 0.255638
v -0.014727 0.008801 0.255638
v -0.014726 -0.009005 0.255638
v 0.016081 0.018063 0.282576
v 0.023353 0.005689 0.282576
v 0.033409 0.009878 0.268679
v 0.024780 0.024600 0.268679
v 0.026470 0.005809 0.252956
v 0.017799 0.020537 0.252956
v 0.023353 -0.004095 0.282576
v 0.016081 -0.016469 0.282576
v 0.024780 -0.023006 0.268679
v 0.033409 -0.008284 0.268679
v 0.017799 -0.018943 0.252956
v 0.026470 -0.004215 0.252956
v -0.007204 0.023074 0.282576
v 0.007204 0.023074 0.282576
v 0.008554 0.033788 0.268679
v -0.008554 0.033788 0.268679
v 0.008584 0.025714 0.252956
v -0.008584 0.025714 0.252956
v -0.023353 0.005689 0.282576
v -0.016081 0.018063 0.282576
v -0.024780 0.024600 0.268679
v -0.033409 0.009878 0.268679
v -0.017800 0.020537 0.252956
v -0.026470 0.005809 0.252956
v -0.016081 -0.016469 0.282576
v -0.023353 -0.004095 0.282576
v -0.033409 -0.008284 0.268679
v -0.024780 -0.023006 0.268679
v -0.026470 -0.004215 0.252956
v -0.017800 -0.018943 0.252956
v 0.007204 -0.021480 0.282576
v -0.007204 -0.021480 0.282576
v -0.008554 -0.032194 0.268679
v 0.008554 -0.032194 0.268679
v -0.008584 -0.024120 0.252956
v 0.008584 -0.024120 0.252956
v -0.008604 -0.013803 0.252567
v -0.017586 0.000797 0.252579
v -0.008604 0.015397 0.252567
v 0.008603 0.015397 0.252567
v 0.017586 0.000797 0.252579
v 0.008603 -0.013803 0.252567
v -0.000000 0.000797 0.291821
vn 1.0000 -0.0000 -0.0000
vn -0.0000 -0.0000 -1.0000
vn -0.0000 1.0000 -0.0000
vn -1.0000 -0.0000 -0.0000
vn -0.0000 -0.0000 1.0000
vn -0.0000 -1.0000 -0.0000
vn 0.6750 -0.4224 0.6050
vn 0.8477 -0.5305 -0.0000
vn 0.8477 0.5304 -0.0000
vn 0.6750 0.4224 0.6050
vn -0.0000 -0.7841 0.6207
vn -0.0000 0.7841 0.6207
vn 0.0232 -0.0000 -0.9997
vn 0.5822 0.1456 -0.7999
vn 0.5822 -0.1456 -0.7999
vn 0.1678 0.6055 0.7779
vn 0.4334 0.4530 0.7791
vn 0.0113 0.0204 -0.9997
vn 0.1632 0.5753 -0.8015
vn 0.4113 0.4358 -0.8006
vn 0.9568 0.2756 0.0923
vn 0.9568 -0.2756 0.0923
vn 0.7095 -0.6988 0.0911
vn 0.4334 -0.4530 0.7791
vn 0.1678 -0.6055 0.7779
vn 0.2393 -0.9668 0.0900
vn 0.6053 0.1558 0.7806
vn 0.6053 -0.1558 0.7806
vn 0.2393 0.9668 0.0900
vn 0.7095 0.6988 0.0911
vn -0.2393 0.9668 0.0900
vn -0.7095 0.6988 0.0910
vn -0.4334 0.4530 0.7791
vn -0.1678 0.6055 0.7779
vn 0.0113 -0.0204 -0.9997
vn 0.4113 -0.4358 -0.8006
vn 0.1632 -0.5753 -0.8015
vn -0.6750 -0.4224 0.6050
vn -0.6750 0.4224 0.6050
vn -0.8477 0.5304 -0.0000
vn -0.8477 -0.5305 -0.0000
vn -0.9568 0.2756 0.0923
vn -0.9568 -0.2756 0.0923
vn -0.6053 -0.1558 0.7806
vn -0.6053 0.1558 0.7806
vn -0.0113 0.0204 -0.9997
vn -0.4113 0.4358 -0.8006
vn -0.1632 0.5753 -0.8015
vn -0.7095 -0.6988 0.0910
vn -0.2393 -0.9668 0.0900
vn -0.1678 -0.6055 0.7779
vn -0.4334 -0.4530 0.7791
vn -0.0232 -0.0000 -0.9997
vn -0.5822 -0.1456 -0.7999
vn -0.5822 0.1456 -0.7999
vn -0.0113 -0.0204 -0.9997
vn -0.1632 -0.5753 -0.8015
vn -0.4113 -0.4358 -0.8006
vt 0.275114 0.810216
vt 0.293282 0.810216
vt 0.275114 0.792047
vt 0.293282 0.792047
vt 0.293282 0.810216
vt 0.293282 0.792047
vt 0.293282 0.810216
vt 0.293282 0.792047
vt 0.275114 0.810216
vt 0.293282 0.810216
vt 0.275114 0.792047
vt 0.293282 0.792047
vt 0.293282 0.810216
vt 0.293282 0.792047
vt 0.293282 0.810216
vt 0.293282 0.792047
vt 0.300077 0.633390
vt 0.303719 0.633390
vt 0.286233 0.808262
vt 0.303719 0.633390
vt 0.282591 0.808262
vt 0.300077 0.633390
vt 0.305984 0.633675
vt 0.297812 0.633675
vt 0.300077 0.633390
vt 0.303719 0.633390
vt 0.280326 0.808547
vt 0.297812 0.633675
vt 0.288498 0.808547
vt 0.305984 0.633675
vt 0.286233 0.808262
vt 0.303719 0.633390
vt 0.282591 0.808262
vt 0.300077 0.633390
vt 0.304820 0.641846
vt 0.302256 0.645599
vt 0.300733 0.642375
vt 0.301085 0.634341
vt 0.304484 0.634341
vt 0.300616 0.624503
vt 0.304938 0.624503
vt 0.302231 0.622828
vt 0.295721 0.645465
vt 0.298266 0.641836
vt 0.294181 0.642389
vt 0.294537 0.634341
vt 0.297936 0.634341
vt 0.294083 0.624503
vt 0.298405 0.624503
vt 0.295710 0.622940
vt 0.307111 0.642356
vt 0.307111 0.642356
vt 0.307669 0.634341
vt 0.307669 0.634341
vt 0.307221 0.624503
vt 0.307221 0.624503
vt 0.300703 0.642344
vt 0.304812 0.641838
vt 0.302123 0.645465
vt 0.304484 0.634341
vt 0.301085 0.634341
vt 0.304938 0.624503
vt 0.302231 0.622828
vt 0.300616 0.624503
vt 0.294148 0.642364
vt 0.298257 0.641829
vt 0.295582 0.645358
vt 0.297936 0.634341
vt 0.294537 0.634341
vt 0.298405 0.624503
vt 0.295710 0.622940
vt 0.294083 0.624503
vt 0.291910 0.642356
vt 0.291910 0.642356
vt 0.291352 0.634341
vt 0.291352 0.634341
vt 0.291800 0.624503
vt 0.291800 0.624503
vt 0.292941 0.621094
vt 0.299511 0.621201
vt 0.294609 0.619635
vt 0.292992 0.614785
vt 0.306080 0.621094
vt 0.301094 0.619415
vt 0.292952 0.614666
vt 0.306080 0.621094
vt 0.301094 0.619415
vt 0.292950 0.614672
vt 0.299511 0.621201
vt 0.294609 0.619635
vt 0.291342 0.619497
vt 0.292941 0.621094
vt 0.306081 0.646966
vt 0.299511 0.646848
vt 0.292940 0.646966
vt 0.301297 0.648657
vt 0.294816 0.648425
s 0
usemtl Palette
f 3/3/1 4/4/1 2/2/1 1/1/1
f 3/3/2 11/11/2 12/12/2 4/4/2
f 12/12/3 14/14/3 6/6/3 4/4/3
f 2/2/3 4/4/3 6/6/3 5/5/3
f 5/5/4 6/6/4 8/8/4 7/7/4
f 5/5/3 13/13/3 10/10/3 2/2/3
f 14/14/5 16/16/5 8/8/5 6/6/5
f 7/7/2 15/15/2 13/13/2 5/5/2
f 9/9/5 1/1/5 2/2/5 10/10/5
f 1/1/6 9/9/6 11/11/6 3/3/6
f 11/11/4 9/9/4 10/10/4 12/12/4
f 10/10/3 13/13/3 14/14/3 12/12/3
f 13/13/1 15/15/1 16/16/1 14/14/1
f 8/8/3 16/16/3 15/15/3 7/7/3
f 25/27/5 20/21/5 19/19/5 26/29/5
s 1
f 20/22/7 17/17/8 18/18/9 19/20/10
f 25/28/11 22/24/6 17/17/8 20/22/7
f 19/20/10 18/18/9 21/23/3 26/30/12
f 69/89/13 33/40/14 40/49/15
f 42/52/16 71/93/5 29/35/17
f 68/86/18 45/55/19 34/41/20
f 33/40/14 31/38/21 38/47/22 40/49/15
f 37/46/23 36/45/24 59/73/25 62/76/26
f 30/37/27 71/94/5 35/44/28
f 45/55/19 43/53/29 32/39/30 34/41/20
f 43/53/29 42/52/16 29/35/17 32/39/30
f 44/54/31 49/60/32 48/58/33 41/51/34
f 36/45/24 71/95/5 59/73/25
f 70/92/35 39/48/36 64/78/37
f 39/48/36 37/46/23 62/76/26 64/78/37
s 0
f 25/27/5 26/29/5 27/31/5 28/33/5
s 1
f 28/34/38 27/32/39 24/26/40 23/25/41
f 25/28/11 28/34/38 23/25/41 22/24/6
f 27/32/39 26/30/12 21/23/3 24/26/40
f 50/61/42 55/68/43 54/66/44 47/57/45
f 41/51/34 48/58/33 71/93/5
f 67/83/46 51/62/47 46/56/48
f 46/56/48 51/62/47 49/60/32 44/54/31
f 56/69/49 61/75/50 60/74/51 53/65/52
f 47/57/45 54/66/44 71/94/5
f 66/80/53 57/70/54 52/64/55
f 52/64/55 57/70/54 55/68/43 50/61/42
f 53/65/52 60/74/51 71/95/5
f 65/79/56 63/77/57 58/72/58
f 58/72/58 63/77/57 61/75/50 56/69/49
f 65/79/56 66/81/53 67/82/46 68/85/18 69/88/13 70/91/35
f 42/52/16 43/53/29 44/54/31 41/51/34
f 43/53/29 45/55/19 46/56/48 44/54/31
f 30/37/27 31/38/21 32/39/30 29/35/17
f 31/38/21 33/40/14 34/41/20 32/39/30
f 36/45/24 37/46/23 38/47/22 35/44/28
f 37/46/23 39/48/36 40/49/15 38/47/22
f 60/74/51 61/75/50 62/76/26 59/73/25
f 61/75/50 63/77/57 64/78/37 62/76/26
f 63/77/57 65/79/56 70/92/35 64/78/37
f 71/93/5 42/52/16 41/51/34
f 45/55/19 68/86/18 67/83/46 46/56/48
f 71/94/5 30/37/27 29/36/17
f 33/40/14 69/89/13 68/87/18 34/42/20
f 71/95/5 36/45/24 35/43/28
f 39/48/36 70/92/35 69/90/13 40/50/15
f 71/95/5 60/74/51 59/73/25
f 48/58/33 49/60/32 50/61/42 47/57/45
f 49/60/32 51/62/47 52/64/55 50/61/42
f 54/66/44 55/68/43 56/69/49 53/65/52
f 55/68/43 57/70/54 58/72/58 56/69/49
f 71/96/5 48/59/33 47/57/45
f 51/63/47 67/84/46 66/80/53 52/64/55
f 71/97/5 54/67/44 53/65/52
f 57/71/54 66/81/53 65/79/56 58/72/58
f 31/38/21 30/37/27 35/44/28 38/47/22
