# Blender 3.4.1
# www.blender.org
mtllib Counter_Door_1.mtl
o Counter_Door_1
v -0.462782 0.825064 -0.013807
v -0.462782 0.007647 -0.013807
v 0.003000 0.007647 -0.013807
v 0.003000 0.825064 -0.013807
v 0.003000 0.007647 0.027741
v -0.462782 0.007647 0.027741
v 0.003000 0.825064 0.027741
v -0.462782 0.825064 0.027741
v -0.394823 0.705224 0.012875
v -0.394824 0.723030 0.012875
v -0.394823 0.723030 0.048700
v -0.394823 0.705224 0.048700
v -0.380097 0.730191 0.012875
v -0.380097 0.698064 0.012875
v -0.365371 0.705224 0.012875
v -0.365371 0.723030 0.012875
v -0.380097 0.698064 0.048700
v -0.380097 0.730191 0.048700
v -0.365371 0.723030 0.048700
v -0.365371 0.705224 0.048700
v -0.396179 0.732292 0.070811
v -0.403450 0.719918 0.070811
v -0.413507 0.724107 0.056915
v -0.404878 0.738829 0.056915
v -0.406568 0.720039 0.041191
v -0.397897 0.734767 0.041191
v -0.403450 0.710134 0.070811
v -0.396179 0.697761 0.070811
v -0.404878 0.691223 0.056915
v -0.413507 0.705946 0.056915
v -0.397897 0.695286 0.041191
v -0.406568 0.710014 0.041191
v -0.372894 0.737303 0.070811
v -0.387301 0.737303 0.070811
v -0.388652 0.748017 0.056915
v -0.371544 0.748017 0.056915
v -0.388682 0.739943 0.041191
v -0.371513 0.739943 0.041191
v -0.356744 0.719918 0.070811
v -0.364016 0.732292 0.070811
v -0.355318 0.738829 0.056915
v -0.346689 0.724107 0.056915
v -0.362298 0.734767 0.041191
v -0.353627 0.720039 0.041191
v -0.364016 0.697761 0.070811
v -0.356744 0.710134 0.070811
v -0.346689 0.705946 0.056915
v -0.355318 0.691223 0.056915
v -0.353627 0.710014 0.041191
v -0.362298 0.695286 0.041191
v -0.387301 0.692749 0.070811
v -0.372894 0.692749 0.070811
v -0.371544 0.682036 0.056915
v -0.388652 0.682036 0.056915
v -0.371513 0.690109 0.041191
v -0.388682 0.690109 0.041191
v -0.371494 0.700426 0.040802
v -0.362512 0.715026 0.040814
v -0.371494 0.729627 0.040802
v -0.388701 0.729627 0.040802
v -0.397683 0.715026 0.040814
v -0.388701 0.700426 0.040802
v -0.380097 0.715026 0.080056
v -0.442994 0.027436 0.027741
v -0.442994 0.805276 0.027741
v -0.016788 0.805276 0.027741
v -0.016788 0.027436 0.027741
v -0.442994 0.027436 0.017734
v -0.442994 0.805276 0.017734
v -0.016788 0.027436 0.017734
v -0.016788 0.805276 0.017734
vn -0.0000 -1.0000 -0.0000
vn -0.0000 1.0000 -0.0000
vn -0.0000 -0.0000 -1.0000
vn 1.0000 -0.0000 -0.0000
vn -1.0000 -0.0000 -0.0000
vn -0.0000 -0.0000 1.0000
vn -0.6750 -0.4224 0.6050
vn -0.6750 0.4224 0.6050
vn -0.8477 0.5304 -0.0000
vn -0.8477 -0.5305 -0.0000
vn -0.0000 -0.7841 0.6207
vn -0.0000 0.7841 0.6207
vn -0.0232 -0.0000 -0.9997
vn -0.5822 -0.1456 -0.7999
vn -0.5822 0.1456 -0.7999
vn -0.1678 0.6055 0.7779
vn -0.4334 0.4530 0.7791
vn -0.0113 0.0204 -0.9997
vn -0.4113 0.4358 -0.8006
vn -0.1632 0.5753 -0.8015
vn -0.9568 -0.2756 0.0923
vn -0.9568 0.2756 0.0923
vn -0.7095 -0.6988 0.0911
vn -0.2393 -0.9668 0.0900
vn -0.1678 -0.6055 0.7779
vn -0.4334 -0.4530 0.7791
vn -0.6053 0.1558 0.7806
vn -0.6053 -0.1558 0.7806
vn -0.7095 0.6988 0.0911
vn -0.2393 0.9668 0.0900
vn 0.2393 0.9668 0.0900
vn 0.1678 0.6055 0.7779
vn 0.4334 0.4530 0.7791
vn 0.7095 0.6988 0.0910
vn -0.0113 -0.0204 -0.9997
vn -0.1633 -0.5753 -0.8015
vn -0.4113 -0.4358 -0.8006
vn 0.6750 -0.4224 0.6050
vn 0.8477 -0.5305 -0.0000
vn 0.8477 0.5304 -0.0000
vn 0.6750 0.4224 0.6050
vn 0.9568 0.2756 0.0923
vn 0.6053 0.1558 0.7806
vn 0.6053 -0.1558 0.7806
vn 0.9568 -0.2756 0.0923
vn 0.0113 0.0204 -0.9997
vn 0.1632 0.5753 -0.8015
vn 0.4113 0.4358 -0.8006
vn 0.7095 -0.6988 0.0910
vn 0.4334 -0.4530 0.7791
vn 0.1678 -0.6055 0.7779
vn 0.2393 -0.9668 0.0900
vn 0.0232 -0.0000 -0.9997
vn 0.5822 0.1456 -0.7999
vn 0.5822 -0.1456 -0.7999
vn 0.0113 -0.0204 -0.9997
vn 0.4113 -0.4358 -0.8006
vn 0.1633 -0.5753 -0.8015
vt 0.304454 0.803712
vt 0.290553 0.803712
vt 0.290553 0.797273
vt 0.304454 0.797273
vt 0.290553 0.797273
vt 0.290553 0.803712
vt 0.304454 0.797273
vt 0.304454 0.803712
vt 0.300077 0.633390
vt 0.303719 0.633390
vt 0.286233 0.808262
vt 0.303719 0.633390
vt 0.282591 0.808262
vt 0.300077 0.633390
vt 0.305984 0.633675
vt 0.297812 0.633675
vt 0.300077 0.633390
vt 0.303719 0.633390
vt 0.280326 0.808547
vt 0.297812 0.633675
vt 0.288498 0.808547
vt 0.305984 0.633675
vt 0.286233 0.808262
vt 0.303719 0.633390
vt 0.282591 0.808262
vt 0.300077 0.633390
vt 0.308102 0.635284
vt 0.305537 0.639037
vt 0.304014 0.635813
vt 0.304366 0.627779
vt 0.307765 0.627779
vt 0.303897 0.617941
vt 0.308219 0.617941
vt 0.305513 0.616266
vt 0.299002 0.638903
vt 0.301548 0.635274
vt 0.297462 0.635827
vt 0.297818 0.627779
vt 0.301218 0.627779
vt 0.297364 0.617941
vt 0.301686 0.617941
vt 0.298991 0.616378
vt 0.310392 0.635794
vt 0.310392 0.635794
vt 0.310950 0.627779
vt 0.310950 0.627779
vt 0.310502 0.617941
vt 0.310502 0.617941
vt 0.303984 0.635782
vt 0.308094 0.635275
vt 0.305404 0.638903
vt 0.307765 0.627779
vt 0.304366 0.627779
vt 0.308219 0.617941
vt 0.305513 0.616266
vt 0.303897 0.617941
vt 0.297430 0.635801
vt 0.301539 0.635267
vt 0.298863 0.638796
vt 0.301218 0.627779
vt 0.297818 0.627779
vt 0.301686 0.617941
vt 0.298991 0.616378
vt 0.297364 0.617941
vt 0.295191 0.635794
vt 0.295191 0.635794
vt 0.294633 0.627779
vt 0.294633 0.627779
vt 0.295081 0.617941
vt 0.295081 0.617941
vt 0.296222 0.614532
vt 0.302792 0.614639
vt 0.297890 0.613073
vt 0.296273 0.608223
vt 0.309361 0.614532
vt 0.304375 0.612852
vt 0.296233 0.608103
vt 0.309361 0.614532
vt 0.304375 0.612852
vt 0.296231 0.608110
vt 0.302792 0.614639
vt 0.297890 0.613073
vt 0.294623 0.612935
vt 0.296222 0.614532
vt 0.309362 0.640404
vt 0.302792 0.640286
vt 0.296221 0.640404
vt 0.304578 0.642095
vt 0.298097 0.641863
vt 0.290885 0.803433
vt 0.304122 0.803433
vt 0.304122 0.797553
vt 0.290885 0.797553
vt 0.290885 0.803433
vt 0.304122 0.803433
vt 0.290885 0.797553
vt 0.304122 0.797553
s 0
usemtl Palette
f 6/6/1 2/2/1 3/3/1 5/5/1
f 7/7/2 4/4/2 1/1/2 8/8/2
f 1/1/3 4/4/3 3/3/3 2/2/3
f 5/5/4 3/3/4 4/4/4 7/7/4
f 2/2/5 6/6/5 8/8/5 1/1/5
f 65/91/1 69/95/1 71/97/1 66/92/1
f 17/19/6 18/21/6 11/11/6 12/13/6
s 1
f 12/14/7 11/12/8 10/10/9 9/9/10
f 17/20/11 12/14/7 9/9/10 14/16/1
f 11/12/8 18/22/12 13/15/2 10/10/9
f 61/81/13 32/41/14 25/32/15
f 34/44/16 21/27/17 63/85/6
f 60/78/18 26/33/19 37/47/20
f 25/32/15 32/41/14 30/39/21 23/30/22
f 29/38/23 54/68/24 51/65/25 28/37/26
f 22/29/27 27/36/28 63/86/6
f 37/47/20 26/33/19 24/31/29 35/45/30
f 35/45/30 24/31/29 21/27/17 34/44/16
f 36/46/31 33/43/32 40/50/33 41/52/34
f 28/37/26 51/65/25 63/87/6
f 62/84/35 56/70/36 31/40/37
f 31/40/37 56/70/36 54/68/24 29/38/23
s 0
f 17/19/6 20/25/6 19/23/6 18/21/6
s 1
f 20/26/38 15/17/39 16/18/40 19/24/41
f 17/20/11 14/16/1 15/17/39 20/26/38
f 19/24/41 16/18/40 13/15/2 18/22/12
f 42/53/42 39/49/43 46/58/44 47/60/45
f 33/43/32 63/85/6 40/50/33
f 59/75/46 38/48/47 43/54/48
f 38/48/47 36/46/31 41/52/34 43/54/48
f 48/61/49 45/57/50 52/66/51 53/67/52
f 39/49/43 63/86/6 46/58/44
f 58/72/53 44/56/54 49/62/55
f 44/56/54 42/53/42 47/60/45 49/62/55
f 45/57/50 63/87/6 52/66/51
f 57/71/56 50/64/57 55/69/58
f 50/64/57 48/61/49 53/67/52 55/69/58
f 57/71/56 62/83/35 61/80/13 60/77/18 59/74/46 58/73/53
f 34/44/16 33/43/32 36/46/31 35/45/30
f 35/45/30 36/46/31 38/48/47 37/47/20
f 22/29/27 21/27/17 24/31/29 23/30/22
f 23/30/22 24/31/29 26/33/19 25/32/15
f 28/37/26 27/36/28 30/39/21 29/38/23
f 29/38/23 30/39/21 32/41/14 31/40/37
f 52/66/51 51/65/25 54/68/24 53/67/52
f 53/67/52 54/68/24 56/70/36 55/69/58
f 55/69/58 56/70/36 62/84/35 57/71/56
f 63/85/6 33/43/32 34/44/16
f 37/47/20 38/48/47 59/75/46 60/78/18
f 63/86/6 21/28/17 22/29/27
f 25/32/15 26/34/19 60/79/18 61/81/13
f 63/87/6 27/35/28 28/37/26
f 31/40/37 32/42/14 61/82/13 62/84/35
f 63/87/6 51/65/25 52/66/51
f 40/50/33 39/49/43 42/53/42 41/52/34
f 41/52/34 42/53/42 44/56/54 43/54/48
f 46/58/44 45/57/50 48/61/49 47/60/45
f 47/60/45 48/61/49 50/64/57 49/62/55
f 63/88/6 39/49/43 40/51/33
f 43/55/48 44/56/54 58/72/53 59/76/46
f 63/89/6 45/57/50 46/59/44
f 49/63/55 50/64/57 57/71/56 58/73/53
f 23/30/22 30/39/21 27/36/28 22/29/27
s 0
f 6/6/6 64/90/6 65/91/6 8/8/6
f 8/8/6 65/91/6 66/92/6 7/7/6
f 7/7/6 66/92/6 67/93/6 5/5/6
f 5/5/6 67/93/6 64/90/6 6/6/6
f 68/94/6 70/96/6 71/97/6 69/95/6
f 64/90/4 68/94/4 69/95/4 65/91/4
f 66/92/5 71/97/5 70/96/5 67/93/5
f 67/93/2 70/96/2 68/94/2 64/90/2
