# Blender 3.4.1
# www.blender.org
mtllib Cup__Filled_.mtl
o Cup_(Filled)
v -0.032467 0.104362 -0.041482
v -0.008518 -0.000575 -0.056539
v -0.036787 -0.000575 -0.048964
v -0.057482 -0.000575 -0.028270
v -0.065056 -0.000575 -0.000000
v -0.057482 -0.000575 0.028269
v -0.036787 -0.000575 0.048963
v -0.008518 -0.000575 0.056538
v 0.019751 -0.000575 0.048963
v 0.040446 -0.000575 0.028269
v 0.048020 -0.000575 -0.000000
v 0.040446 -0.000575 -0.028270
v 0.019751 -0.000575 -0.048964
v -0.008518 0.104362 -0.047899
v -0.049999 0.104362 -0.023950
v -0.056417 0.104362 -0.000000
v -0.049999 0.104362 0.023949
v -0.032467 0.104362 0.041481
v -0.008518 0.104362 0.047898
v 0.015431 0.104362 0.041481
v 0.032963 0.104362 0.023949
v 0.039381 0.104362 -0.000000
v 0.032963 0.104362 -0.023950
v 0.015431 0.104362 -0.041482
v 0.041104 0.032970 0.009927
v 0.041104 0.032970 -0.009928
v 0.041104 0.024816 0.009927
v 0.041104 0.024816 -0.009928
v 0.041104 0.096779 -0.009928
v 0.041104 0.096779 0.009927
v -0.008518 0.115989 -0.056539
v 0.019751 0.115989 -0.048964
v 0.040446 0.115989 -0.028270
v 0.048020 0.115989 -0.000000
v 0.040446 0.115989 0.028269
v 0.019751 0.115989 0.048963
v -0.008518 0.115989 0.056538
v -0.036787 0.115989 0.048963
v -0.057482 0.115989 0.028269
v -0.065056 0.115989 -0.000000
v -0.057482 0.115989 -0.028270
v -0.036787 0.115989 -0.048964
v -0.008518 0.115989 -0.047899
v 0.015431 0.115989 -0.041482
v 0.032963 0.115989 -0.023950
v 0.039381 0.115989 -0.000000
v 0.032963 0.115989 0.023949
v 0.015431 0.115989 0.041481
v -0.008518 0.115989 0.047898
v -0.032467 0.115989 0.041481
v -0.049999 0.115989 0.023949
v -0.056417 0.115989 -0.000000
v -0.049999 0.115989 -0.023950
v -0.032467 0.115989 -0.041482
v 0.041104 0.088625 0.009927
v 0.041104 0.088625 -0.009928
v 0.085824 0.102092 0.009927
v 0.052270 0.103985 0.009927
v 0.069319 0.108091 0.009927
v 0.052270 0.103985 -0.009928
v 0.085824 0.102092 -0.009928
v 0.069319 0.108091 -0.009928
v 0.084288 0.093943 -0.009928
v 0.051013 0.095384 -0.009928
v 0.067863 0.099807 -0.009928
v 0.051013 0.095384 0.009927
v 0.084288 0.093943 0.009927
v 0.067863 0.099807 0.009927
v 0.050473 0.026416 -0.009928
v 0.083603 0.027666 -0.009928
v 0.067224 0.021852 -0.009928
v 0.083603 0.027666 0.009927
v 0.050473 0.026416 0.009927
v 0.067224 0.021852 0.009927
v 0.084419 0.019554 -0.009928
v 0.051154 0.018005 -0.009928
v 0.068015 0.013635 -0.009928
v 0.051154 0.018005 0.009927
v 0.084419 0.019554 0.009927
v 0.068015 0.013635 0.009927
v 0.102341 0.075261 0.009927
v 0.098498 0.087123 0.009927
v 0.098498 0.087123 -0.009928
v 0.102341 0.075261 -0.009928
v 0.094201 0.073738 -0.009928
v 0.089872 0.085983 -0.009928
v 0.089872 0.085983 0.009927
v 0.094201 0.073738 0.009927
v 0.089815 0.036323 -0.009928
v 0.094201 0.048525 -0.009928
v 0.094201 0.048525 0.009927
v 0.089815 0.036323 0.009927
v 0.102341 0.047546 -0.009928
v 0.098441 0.035735 -0.009928
v 0.098441 0.035735 0.009927
v 0.102341 0.047546 0.009927
vn 0.3786 -0.6532 0.6557
vn 0.3786 0.6532 0.6557
vn -0.0000 0.6532 0.7572
vn -0.0000 -0.6532 0.7572
vn -0.6557 -0.6532 -0.3786
vn -0.6557 0.6532 -0.3786
vn -0.3786 0.6532 -0.6557
vn -0.3786 -0.6532 -0.6557
vn 0.6557 -0.6532 -0.3786
vn 0.6557 0.6532 -0.3786
vn 0.7572 0.6532 -0.0000
vn 0.7572 -0.6532 -0.0000
vn -0.7572 -0.6532 -0.0000
vn -0.7572 0.6532 -0.0000
vn 0.6557 -0.6532 0.3786
vn 0.6557 0.6532 0.3786
vn -0.0000 -0.0000 -1.0000
vn -0.0000 0.6532 -0.7572
vn -0.0000 -0.6532 -0.7572
vn -0.3786 0.6532 0.6557
vn -0.3786 -0.6532 0.6557
vn 0.3786 -0.6532 -0.6557
vn 0.3786 0.6532 -0.6557
vn -0.6557 -0.6532 0.3786
vn -0.6557 0.6532 0.3786
vn -0.0000 1.0000 -0.0000
vn -0.0000 -1.0000 -0.0000
vn -0.6377 0.7703 -0.0000
vn -0.5523 0.7703 0.3189
vn 0.5523 0.7703 0.3189
vn 0.6377 0.7703 -0.0000
vn -0.3189 0.7703 0.5523
vn 0.5523 0.7703 -0.3189
vn -0.6513 0.3422 -0.6773
vn -0.4590 0.6104 -0.6456
vn -0.4590 0.6104 0.6456
vn -0.6513 0.3422 0.6773
vn -0.0000 0.7703 0.6377
vn -0.4632 -0.6080 -0.6448
vn -0.6536 -0.3367 -0.6778
vn -0.6536 -0.3367 0.6778
vn -0.4632 -0.6080 0.6448
vn 0.3189 0.7703 -0.5523
vn -0.7310 0.1274 -0.6704
vn -0.7310 0.1274 0.6704
vn -0.7308 -0.1254 0.6710
vn -0.7308 -0.1254 -0.6710
vn -0.3056 -0.6758 -0.6707
vn -0.3056 -0.6758 0.6707
vn -0.3293 -0.4859 0.8096
vn -0.3293 -0.4859 -0.8096
vn 0.3189 0.7703 0.5523
vn -0.5523 0.7703 -0.3189
vn -0.3189 0.7703 -0.5523
vn 0.4279 -0.6234 -0.6545
vn 0.6490 -0.3686 -0.6655
vn 0.6490 -0.3686 0.6655
vn 0.4279 -0.6234 0.6545
vn -0.0000 0.7703 -0.6377
vn 0.3148 0.6718 -0.6705
vn 0.4890 0.6991 -0.5216
vn 0.4890 0.6991 0.5216
vn 0.3148 0.6718 0.6705
vn -0.0000 -0.0000 1.0000
vn 0.3076 -0.6749 0.6707
vn 0.4791 -0.7025 0.5263
vn 0.4791 -0.7025 -0.5263
vn 0.3076 -0.6749 -0.6707
vn -0.2919 0.6813 0.6713
vn -0.2919 0.6813 -0.6713
vn -0.3205 0.4966 -0.8067
vn -0.3205 0.4966 0.8067
vn 0.4326 0.6210 0.6536
vn 0.4326 0.6210 -0.6536
vn 0.0428 0.7608 -0.6476
vn 0.0428 0.7608 0.6476
vn -0.0329 -0.7624 0.6463
vn -0.0329 -0.7624 -0.6463
vn -0.0287 0.7631 -0.6456
vn -0.0287 0.7631 0.6456
vn 0.0354 -0.7623 0.6463
vn 0.0354 -0.7623 -0.6463
vn 0.7302 -0.1174 -0.6730
vn 0.7300 0.1153 -0.6736
vn 0.7300 0.1153 0.6736
vn 0.7302 -0.1174 0.6730
vn 0.6517 0.3628 -0.6661
vn 0.6517 0.3628 0.6661
vt 0.695511 0.725660
vt 0.117386 0.896233
vt 0.126250 0.901806
vt 0.331923 0.250029
vt 0.331923 0.333353
vt 0.115788 0.899002
vt 0.331923 0.416676
vt 0.108128 0.891343
vt 0.331923 0.500000
vt 0.105325 0.880880
vt 0.331923 0.583324
vt 0.108128 0.870417
vt 0.331923 0.666647
vt 0.115788 0.862758
vt 0.331923 0.749971
vt 0.126250 0.859954
vt 0.331923 0.833295
vt 0.136713 0.862758
vt 0.144373 0.870417
vt 0.331923 0.916619
vt 0.331923 0.000058
vt 0.147176 0.880880
vt 0.331923 0.999942
vt 0.331923 0.083381
vt 0.144373 0.891343
vt 0.136713 0.899002
vt 0.331923 0.166705
vt 0.704375 0.728035
vt 0.126250 0.898608
vt 0.689022 0.719171
vt 0.110897 0.889744
vt 0.686647 0.710307
vt 0.108522 0.880880
vt 0.689022 0.701443
vt 0.110897 0.872016
vt 0.695511 0.694954
vt 0.117386 0.865527
vt 0.704375 0.692579
vt 0.126250 0.863152
vt 0.713239 0.694954
vt 0.135114 0.865527
vt 0.719728 0.701443
vt 0.141603 0.872016
vt 0.722103 0.710307
vt 0.143978 0.880880
vt 0.719728 0.719171
vt 0.141603 0.889744
vt 0.713239 0.725660
vt 0.135114 0.896233
vt 0.147176 0.880880
vt 0.144373 0.891343
vt 0.147176 0.880880
vt 0.144373 0.891343
vt 0.144373 0.891343
vt 0.147176 0.880880
vt 0.126250 0.901806
vt 0.000058 0.250029
vt 0.136713 0.899002
vt 0.000058 0.166705
vt 0.000058 0.083381
vt 0.144373 0.891343
vt 0.000058 0.000058
vt 0.000058 0.999942
vt 0.147176 0.880880
vt 0.000058 0.916619
vt 0.144373 0.870417
vt 0.000058 0.833295
vt 0.136713 0.862758
vt 0.000058 0.749971
vt 0.126250 0.859954
vt 0.000058 0.666647
vt 0.115788 0.862758
vt 0.000058 0.583324
vt 0.108128 0.870417
vt 0.000058 0.500000
vt 0.105325 0.880880
vt 0.000058 0.416676
vt 0.108128 0.891343
vt 0.000058 0.333353
vt 0.115788 0.899002
vt 0.126250 0.898608
vt 0.135114 0.896233
vt 0.141603 0.889744
vt 0.143978 0.880880
vt 0.141603 0.872016
vt 0.135114 0.865527
vt 0.126250 0.863152
vt 0.117386 0.865527
vt 0.110897 0.872016
vt 0.108522 0.880880
vt 0.110897 0.889744
vt 0.117386 0.896233
vt 0.147176 0.880880
vt 0.144373 0.891343
vt 0.147176 0.880880
vt 0.147176 0.880880
vt 0.147176 0.880880
vt 0.144373 0.891343
vt 0.144373 0.891343
vt 0.144373 0.891343
vt 0.144373 0.891343
vt 0.144373 0.891343
vt 0.144373 0.891343
vt 0.147176 0.880880
vt 0.147176 0.880880
vt 0.147176 0.880880
vt 0.144373 0.891343
vt 0.144373 0.891343
vt 0.144373 0.891343
vt 0.147176 0.880880
vt 0.147176 0.880880
vt 0.147176 0.880880
vt 0.144373 0.891343
vt 0.144373 0.891343
vt 0.144373 0.891343
vt 0.147176 0.880880
vt 0.147176 0.880880
vt 0.147176 0.880880
vt 0.147176 0.880880
vt 0.147176 0.880880
vt 0.144373 0.891343
vt 0.144373 0.891343
vt 0.144373 0.891343
vt 0.144373 0.891343
vt 0.147176 0.880880
vt 0.147176 0.880880
vt 0.144373 0.891343
vt 0.144373 0.891343
vt 0.147176 0.880880
vt 0.147176 0.880880
vt 0.144373 0.891343
vt 0.144373 0.891343
vt 0.147176 0.880880
vt 0.147176 0.880880
s 0
usemtl Palette
f 75/113/17 77/115/17 76/114/17 28/53/17 26/51/17 69/107/17 71/109/17 70/108/17 89/127/17 90/128/17 85/123/17 86/124/17 63/101/17 65/103/17 64/102/17 56/94/17 29/54/17 60/98/17 62/100/17 61/99/17 83/121/17 84/122/17 93/131/17 94/132/17
f 14/28/26 1/1/26 15/30/26 16/32/26 17/34/26 18/36/26 19/38/26 20/40/26 21/42/26 22/44/26 23/46/26 24/48/26
f 2/3/27 13/26/27 12/25/27 11/22/27 10/19/27 9/18/27 8/16/27 7/14/27 6/12/27 5/10/27 4/8/27 3/6/27
s 1
f 23/47/25 22/45/14 46/84/28 45/83/29
f 16/33/11 15/31/16 53/91/30 52/90/31
f 24/49/20 23/47/25 45/83/29 44/82/32
f 17/35/10 16/33/11 52/90/31 51/89/33
f 89/127/34 70/108/35 72/110/36 92/130/37
f 14/29/3 24/49/20 44/82/32 43/81/38
f 63/101/39 86/124/40 87/125/41 67/105/42
f 18/37/23 17/35/10 51/89/33 50/88/43
f 90/128/44 91/129/45 88/126/46 85/123/47
s 0
f 43/81/26 44/82/26 32/58/26 31/56/26
f 44/82/26 45/83/26 33/61/26 32/58/26
f 45/83/26 46/84/26 34/64/26 33/61/26
f 46/84/26 47/85/26 35/66/26 34/64/26
f 47/85/26 48/86/26 36/68/26 35/66/26
f 48/86/26 49/87/26 37/70/26 36/68/26
f 49/87/26 50/88/26 38/72/26 37/70/26
f 50/88/26 51/89/26 39/74/26 38/72/26
f 51/89/26 52/90/26 40/76/26 39/74/26
f 52/90/26 53/91/26 41/78/26 40/76/26
f 53/91/26 54/92/26 42/80/26 41/78/26
f 54/92/26 43/81/26 31/56/26 42/80/26
s 1
f 76/114/48 78/116/49 27/52/50 28/53/51
f 15/31/16 1/2/2 54/92/52 53/91/30
f 22/45/14 21/43/6 47/85/53 46/84/28
f 1/2/2 14/29/3 43/81/38 54/92/52
f 21/43/6 20/41/7 48/86/54 47/85/53
f 75/113/55 94/132/56 95/133/57 79/117/58
f 20/41/7 19/39/18 49/87/59 48/86/54
f 19/39/18 18/37/23 50/88/43 49/87/59
f 69/107/60 26/51/61 25/50/62 73/111/63
s 0
f 30/55/64 55/93/64 66/104/64 68/106/64 67/105/64 87/125/64 88/126/64 91/129/64 92/130/64 72/110/64 74/112/64 73/111/64 25/50/64 27/52/64 78/116/64 80/118/64 79/117/64 95/133/64 96/134/64 81/119/64 82/120/64 57/95/64 59/97/64 58/96/64
s 1
f 66/104/65 55/93/66 56/94/67 64/102/68
f 58/96/69 60/98/70 29/54/71 30/55/72
f 57/95/73 61/99/74 62/100/75 59/97/76
f 59/97/76 62/100/75 60/98/70 58/96/69
f 63/101/39 67/105/42 68/106/77 65/103/78
f 65/103/78 68/106/77 66/104/65 64/102/68
f 72/110/36 70/108/35 71/109/79 74/112/80
f 74/112/80 71/109/79 69/107/60 73/111/63
f 75/113/55 79/117/58 80/118/81 77/115/82
f 77/115/82 80/118/81 78/116/49 76/114/48
f 93/131/83 84/122/84 81/119/85 96/134/86
f 83/121/87 82/120/88 81/119/85 84/122/84
f 87/125/41 86/124/40 85/123/47 88/126/46
f 89/127/34 92/130/37 91/129/45 90/128/44
f 95/133/57 94/132/56 93/131/83 96/134/86
f 83/121/87 61/99/74 57/95/73 82/120/88
usemtl Custom_Cup
f 9/17/1 36/67/2 37/69/3 8/15/4
f 4/7/5 41/77/6 42/79/7 3/5/8
f 12/24/9 33/60/10 34/62/11 11/21/12
f 5/9/13 40/75/14 41/77/6 4/7/5
f 10/20/15 35/65/16 36/67/2 9/17/1
f 3/5/8 42/79/7 31/57/18 2/4/19
f 8/15/4 37/69/3 38/71/20 7/13/21
f 13/27/22 32/59/23 33/60/10 12/24/9
f 6/11/24 39/73/25 40/75/14 5/9/13
f 7/13/21 38/71/20 39/73/25 6/11/24
f 11/23/12 34/63/11 35/65/16 10/20/15
f 2/4/19 31/57/18 32/59/23 13/27/22
