# Blender 3.4.1
# www.blender.org
mtllib Door_Frame_3.mtl
o Door_Frame_3
v -0.568407 0.000000 0.138463
v -0.568407 0.000000 -0.138463
v 0.567532 0.000000 0.138463
v 0.567532 0.000000 -0.138463
v -0.464187 0.000000 -0.138463
v -0.464187 0.000000 0.138463
v -0.482464 2.020291 0.138463
v -0.482464 2.020291 -0.138463
v 0.481589 2.020291 -0.138463
v 0.463312 0.000000 -0.138463
v 0.463312 0.000000 0.138463
v 0.481589 2.020291 0.138463
v -0.568408 2.100655 0.138463
v -0.568408 2.100655 -0.138463
v 0.567531 2.100655 0.138463
v 0.567531 2.100655 -0.138463
v 0.380553 2.100655 0.122987
v 0.372611 2.163987 0.122987
v 0.017445 2.264671 0.122987
v 0.036300 2.244705 0.122987
v 0.054216 2.213994 0.122987
v 0.080776 2.194812 0.122987
v 0.116018 2.200450 0.122987
v 0.163305 2.217001 0.122987
v 0.188926 2.202056 0.122987
v 0.214145 2.170834 0.122987
v 0.237071 2.138465 0.122987
v 0.293997 2.126268 0.122987
v 0.337665 2.131726 0.122987
v 0.368007 2.156550 0.122987
v 0.380553 2.100655 0.000000
v 0.380553 2.191905 0.000000
v 0.021418 2.272030 0.000000
v 0.042700 2.249495 0.000000
v 0.060229 2.219448 0.000000
v 0.082764 2.203173 0.000000
v 0.114064 2.208181 0.000000
v 0.164141 2.225708 0.000000
v 0.194188 2.208181 0.000000
v 0.220480 2.175629 0.000000
v 0.241763 2.145582 0.000000
v 0.294346 2.134315 0.000000
v 0.334408 2.139323 0.000000
v 0.361952 2.161858 0.000000
v -0.379926 2.100655 0.122987
v -0.155606 2.084270 0.133705
v 0.000313 2.275787 0.122987
v -0.371984 2.163987 0.122987
v -0.016818 2.264671 0.122987
v -0.035673 2.244705 0.122987
v -0.053589 2.213994 0.122987
v -0.080150 2.194812 0.122987
v -0.115392 2.200450 0.122987
v -0.162679 2.217001 0.122987
v -0.188299 2.202056 0.122987
v -0.213518 2.170834 0.122987
v -0.236445 2.138465 0.122987
v -0.293371 2.126268 0.122987
v -0.337039 2.131726 0.122987
v -0.367381 2.156550 0.122987
v -0.379926 2.100655 0.000000
v 0.000313 2.275787 0.000000
v -0.379926 2.191905 0.000000
v -0.020791 2.272030 0.000000
v -0.042074 2.249495 0.000000
v -0.059602 2.219448 0.000000
v -0.082138 2.203173 0.000000
v -0.113437 2.208181 0.000000
v -0.163515 2.225708 0.000000
v -0.193561 2.208181 0.000000
v -0.219854 2.175629 0.000000
v -0.241136 2.145582 0.000000
v -0.293720 2.134315 0.000000
v -0.333782 2.139323 0.000000
v -0.361326 2.161858 0.000000
v 0.372611 2.100655 0.122987
v 0.380553 2.191905 0.122987
v 0.000313 2.267720 0.122987
v 0.021418 2.272030 0.122987
v 0.042700 2.249495 0.122987
v 0.060229 2.219448 0.122987
v 0.082764 2.203173 0.122987
v 0.114064 2.208181 0.122987
v 0.164141 2.225708 0.122987
v 0.194188 2.208181 0.122987
v 0.220480 2.175629 0.122987
v 0.241763 2.145582 0.122987
v 0.294346 2.134315 0.122987
v 0.334408 2.139323 0.122987
v 0.361952 2.161858 0.122987
v -0.371984 2.100655 0.122987
v -0.379926 2.191905 0.122987
v -0.020791 2.272030 0.122987
v -0.042074 2.249495 0.122987
v -0.059602 2.219448 0.122987
v -0.082138 2.203173 0.122987
v -0.113437 2.208181 0.122987
v -0.163515 2.225708 0.122987
v -0.193561 2.208181 0.122987
v -0.219854 2.175629 0.122987
v -0.241136 2.145582 0.122987
v -0.293720 2.134315 0.122987
v -0.333782 2.139323 0.122987
v -0.361326 2.161858 0.122987
v 0.000313 2.100655 0.118690
v 0.372611 2.100655 0.118690
v 0.000313 2.267720 0.118690
v -0.371984 2.100655 0.118690
v 0.372611 2.163987 0.118690
v 0.017445 2.264671 0.118690
v 0.036300 2.244705 0.118690
v 0.054216 2.213994 0.118690
v 0.080776 2.194812 0.118690
v 0.116018 2.200450 0.118690
v 0.163305 2.217001 0.118690
v 0.188926 2.202056 0.118690
v 0.214145 2.170834 0.118690
v 0.237071 2.138465 0.118690
v 0.293997 2.126268 0.118690
v 0.337665 2.131726 0.118690
v 0.368007 2.156550 0.118690
v -0.371984 2.163987 0.118690
v -0.016818 2.264671 0.118690
v -0.035673 2.244705 0.118690
v -0.053589 2.213994 0.118690
v -0.080150 2.194812 0.118690
v -0.115392 2.200450 0.118690
v -0.162679 2.217001 0.118690
v -0.188299 2.202056 0.118690
v -0.213518 2.170834 0.118690
v -0.236445 2.138465 0.118690
v -0.293371 2.126268 0.118690
v -0.337039 2.131726 0.118690
v -0.367381 2.156550 0.118690
v 0.154735 2.084270 0.133705
v -0.155606 2.084270 0.108685
v 0.154735 2.084270 0.108685
v -0.143235 2.111003 0.133705
v -0.101974 2.152264 0.133705
v -0.131150 2.140179 0.133705
v 0.101103 2.152264 0.133705
v 0.142364 2.111003 0.133705
v 0.130279 2.140179 0.133705
v -0.104435 2.164634 0.108685
v -0.155606 2.113463 0.108685
v -0.140618 2.149647 0.108685
v 0.154735 2.113463 0.108685
v 0.103564 2.164634 0.108685
v 0.139747 2.149647 0.108685
v -0.036633 2.164634 0.127612
v 0.035761 2.164634 0.127612
v -0.036633 2.164634 0.114777
v 0.035761 2.164634 0.114777
v -0.011350 2.229609 0.114777
v -0.024904 2.218681 0.114777
v -0.024904 2.218681 0.127612
v -0.011350 2.229609 0.127612
v 0.010478 2.229609 0.127612
v 0.024032 2.218681 0.127612
v 0.024032 2.218681 0.114777
v 0.010478 2.229609 0.114777
v -0.592769 -0.016832 0.111794
v -0.592769 -0.016832 -0.111794
v 0.591894 -0.016832 0.111794
v 0.591894 -0.016832 -0.111794
v -0.484079 -0.016832 -0.111794
v -0.484079 -0.016832 0.111794
v -0.503141 2.036466 0.111794
v -0.503141 2.036466 -0.111794
v 0.502265 2.036466 -0.111794
v 0.483204 -0.016832 -0.111794
v 0.483204 -0.016832 0.111794
v 0.502265 2.036466 0.111794
v -0.592770 2.118144 0.111794
v -0.592770 2.118144 -0.111794
v 0.591894 2.118144 0.111794
v 0.591894 2.118144 -0.111794
v -0.140618 2.149647 0.133705
v -0.155606 2.113463 0.133705
v -0.104435 2.164634 0.133705
v 0.154735 2.113463 0.133705
v 0.139747 2.149647 0.133705
v 0.103564 2.164634 0.133705
v -0.143235 2.084270 0.133705
v 0.142364 2.084270 0.133705
v 0.142364 2.084270 0.129812
v -0.143235 2.084270 0.129812
v -0.131150 2.140179 0.129812
v -0.143235 2.111003 0.129812
v -0.101974 2.152264 0.129812
v 0.142364 2.111003 0.129812
v 0.130279 2.140179 0.129812
v 0.101103 2.152264 0.129812
v -0.080671 2.097551 0.133705
v 0.079800 2.097551 0.133705
v -0.049782 2.132753 0.133705
v 0.048911 2.132753 0.133705
v -0.049782 2.132753 0.113148
v 0.048911 2.132753 0.113148
v -0.080671 2.097551 0.113148
v 0.079800 2.097551 0.113148
vn -0.0000 1.0000 -0.0000
vn -0.0000 -0.0000 1.0000
vn 1.0000 0.0090 -0.0000
vn -1.0000 0.0090 -0.0000
vn -0.0000 -1.0000 -0.0000
vn -0.0000 -0.0000 -1.0000
vn -1.0000 -0.0000 -0.0000
vn 1.0000 -0.0000 -0.0000
vn -0.7270 -0.6866 -0.0000
vn -0.1681 0.6650 0.7277
vn -0.2451 0.9695 -0.0000
vn 0.2313 0.9729 -0.0000
vn 0.1375 0.5785 0.8040
vn 0.2300 0.8083 0.5419
vn 0.2736 0.9618 -0.0000
vn -0.7520 0.6592 -0.0000
vn -0.5007 0.4389 0.7461
vn 0.0747 0.7780 0.6238
vn 0.0956 0.9954 -0.0000
vn 0.4845 0.5641 0.6686
vn 0.6516 0.7585 -0.0000
vn 0.7071 -0.0000 0.7071
vn 0.5694 0.4309 0.7001
vn 0.7974 0.6035 -0.0000
vn 0.3639 0.6740 0.6429
vn 0.4751 0.8799 -0.0000
vn -0.0000 0.7426 0.6697
vn 0.3312 0.5024 0.7987
vn 0.5504 0.8349 -0.0000
vn 0.5853 0.4380 0.6823
vn 0.8006 0.5992 -0.0000
vn 0.0288 0.6646 0.7467
vn 0.0434 0.9991 -0.0000
vn 0.4841 0.4391 0.7568
vn 0.7407 0.6719 -0.0000
vn -0.2490 0.5807 0.7751
vn -0.3940 0.9191 -0.0000
vn 0.1753 -0.9845 -0.0000
vn 0.1681 0.6650 0.7277
vn -0.1375 0.5785 0.8040
vn -0.2313 0.9729 -0.0000
vn 0.2451 0.9695 -0.0000
vn -0.2300 0.8083 0.5419
vn 0.5007 0.4389 0.7461
vn 0.7520 0.6592 -0.0000
vn -0.2736 0.9618 -0.0000
vn -0.0747 0.7780 0.6238
vn -0.0956 0.9954 -0.0000
vn -0.4845 0.5641 0.6686
vn -0.6516 0.7585 -0.0000
vn -0.7071 -0.0000 0.7071
vn -0.5694 0.4309 0.7001
vn -0.7974 0.6035 -0.0000
vn -0.3639 0.6740 0.6429
vn -0.4751 0.8799 -0.0000
vn -0.3312 0.5024 0.7987
vn -0.5504 0.8349 -0.0000
vn -0.5853 0.4380 0.6823
vn -0.8006 0.5992 -0.0000
vn -0.0288 0.6646 0.7467
vn -0.0434 0.9991 -0.0000
vn -0.4841 0.4391 0.7568
vn -0.7407 0.6719 -0.0000
vn 0.2490 0.5807 0.7751
vn 0.3940 0.9191 -0.0000
vn 0.7270 -0.6866 -0.0000
vn -0.8638 -0.5039 -0.0000
vn 0.8638 -0.5039 -0.0000
vn -0.5855 -0.8107 -0.0000
vn 0.5855 -0.8107 -0.0000
vn 0.1580 -0.9874 -0.0000
vn -0.1580 -0.9874 -0.0000
vn 0.3304 -0.9439 -0.0000
vn -0.3304 -0.9439 -0.0000
vn -0.5039 -0.8638 -0.0000
vn 0.5039 -0.8638 -0.0000
vn -0.7779 -0.6284 -0.0000
vn 0.7779 -0.6284 -0.0000
vn -0.8160 -0.5780 -0.0000
vn 0.8160 -0.5780 -0.0000
vn -0.2095 -0.9778 -0.0000
vn 0.2095 -0.9778 -0.0000
vn 0.1240 -0.9923 -0.0000
vn -0.1240 -0.9923 -0.0000
vn 0.6332 -0.7740 -0.0000
vn -0.6332 -0.7740 -0.0000
vn 0.8503 -0.5264 -0.0000
vn -0.8503 -0.5263 -0.0000
vn -0.1753 -0.9845 -0.0000
vn -0.9239 -0.3827 -0.0000
vn -0.9239 0.3827 -0.0000
vn -0.3827 0.9239 -0.0000
vn 0.9239 0.3827 -0.0000
vn 0.3827 0.9239 -0.0000
vn 0.9773 0.2121 -0.0000
vn -0.6277 0.7785 -0.0000
vn 0.6277 0.7785 -0.0000
vn -0.9773 0.2121 -0.0000
vn 0.9239 -0.3827 -0.0000
vn -0.3827 -0.9239 -0.0000
vn 0.3827 -0.9239 -0.0000
vn -0.7517 0.6596 -0.0000
vn 0.7517 0.6596 -0.0000
vt 0.365086 0.771736
vt 0.365086 0.786864
vt 0.365086 0.817119
vt 0.365086 0.801992
vt 0.365086 0.786864
vt 0.365086 0.771736
vt 0.395342 0.817119
vt 0.380214 0.771736
vt 0.395342 0.801992
vt 0.380214 0.786864
vt 0.380214 0.801992
vt 0.365086 0.801992
vt 0.365086 0.817119
vt 0.380214 0.817119
vt 0.394321 0.817119
vt 0.379662 0.771736
vt 0.394321 0.801992
vt 0.379662 0.786864
vt 0.381234 0.817119
vt 0.379662 0.817119
vt 0.381234 0.801992
vt 0.379662 0.801992
vt 0.453369 0.795407
vt 0.453505 0.795408
vt 0.459617 0.795407
vt 0.459293 0.795407
vt 0.458984 0.795408
vt 0.458527 0.795407
vt 0.457921 0.795407
vt 0.457107 0.795407
vt 0.456666 0.795407
vt 0.456232 0.795408
vt 0.455838 0.795407
vt 0.454858 0.795408
vt 0.454107 0.795407
vt 0.453585 0.795407
vt 0.453369 0.795407
vt 0.453369 0.795407
vt 0.459549 0.795407
vt 0.459183 0.795407
vt 0.458881 0.795408
vt 0.458493 0.795407
vt 0.457955 0.795407
vt 0.457093 0.795407
vt 0.456576 0.795407
vt 0.456123 0.795408
vt 0.455757 0.795407
vt 0.454852 0.795407
vt 0.454163 0.795407
vt 0.453689 0.795408
vt 0.453369 0.795407
vt 0.467476 0.795407
vt 0.459912 0.795407
vt 0.453505 0.795407
vt 0.459617 0.795407
vt 0.459293 0.795408
vt 0.458985 0.795408
vt 0.458527 0.795408
vt 0.457921 0.795407
vt 0.457107 0.795407
vt 0.456666 0.795408
vt 0.456232 0.795407
vt 0.455838 0.795407
vt 0.454858 0.795407
vt 0.454107 0.795407
vt 0.453585 0.795407
vt 0.453369 0.795407
vt 0.459912 0.795407
vt 0.453369 0.795407
vt 0.459549 0.795407
vt 0.459183 0.795407
vt 0.458881 0.795408
vt 0.458493 0.795407
vt 0.457955 0.795407
vt 0.457093 0.795407
vt 0.456576 0.795407
vt 0.456123 0.795408
vt 0.455757 0.795407
vt 0.454852 0.795407
vt 0.454163 0.795407
vt 0.453689 0.795408
vt 0.453505 0.795408
vt 0.453369 0.795407
vt 0.459912 0.795407
vt 0.459549 0.795407
vt 0.459183 0.795407
vt 0.458881 0.795408
vt 0.458493 0.795407
vt 0.457955 0.795407
vt 0.457093 0.795407
vt 0.456576 0.795407
vt 0.456123 0.795408
vt 0.455757 0.795407
vt 0.454852 0.795407
vt 0.454163 0.795407
vt 0.453689 0.795408
vt 0.453505 0.795408
vt 0.453369 0.795407
vt 0.459549 0.795407
vt 0.459183 0.795407
vt 0.458881 0.795408
vt 0.458493 0.795407
vt 0.457955 0.795407
vt 0.457093 0.795407
vt 0.456576 0.795407
vt 0.456123 0.795408
vt 0.455757 0.795407
vt 0.454852 0.795407
vt 0.454163 0.795407
vt 0.453689 0.795408
vt 0.378657 0.802651
vt 0.372251 0.802651
vt 0.453505 0.795408
vt 0.378657 0.802651
vt 0.459912 0.795407
vt 0.372251 0.802651
vt 0.453505 0.795408
vt 0.372251 0.802651
vt 0.453505 0.795408
vt 0.378363 0.802651
vt 0.459617 0.795407
vt 0.378038 0.802651
vt 0.459293 0.795407
vt 0.377730 0.802651
vt 0.458984 0.795408
vt 0.377273 0.802651
vt 0.458527 0.795407
vt 0.376666 0.802651
vt 0.457921 0.795407
vt 0.375852 0.802651
vt 0.457107 0.795407
vt 0.375412 0.802651
vt 0.456666 0.795407
vt 0.374978 0.802651
vt 0.456232 0.795408
vt 0.374583 0.802651
vt 0.455838 0.795407
vt 0.373603 0.802651
vt 0.454858 0.795408
vt 0.372852 0.802651
vt 0.454107 0.795407
vt 0.372330 0.802651
vt 0.453585 0.795407
vt 0.372251 0.802651
vt 0.453505 0.795407
vt 0.378363 0.802651
vt 0.459617 0.795407
vt 0.378038 0.802651
vt 0.459293 0.795408
vt 0.377730 0.802651
vt 0.458985 0.795408
vt 0.377273 0.802651
vt 0.458527 0.795408
vt 0.376666 0.802651
vt 0.457921 0.795407
vt 0.375852 0.802651
vt 0.457107 0.795407
vt 0.375412 0.802651
vt 0.456666 0.795408
vt 0.374977 0.802651
vt 0.456232 0.795407
vt 0.374583 0.802651
vt 0.455838 0.795407
vt 0.373603 0.802651
vt 0.454858 0.795407
vt 0.372852 0.802651
vt 0.454107 0.795407
vt 0.372330 0.802651
vt 0.453585 0.795407
vt 0.452348 0.795407
vt 0.467476 0.795407
vt 0.452348 0.795407
vt 0.466606 0.795408
vt 0.464331 0.795408
vt 0.465869 0.795408
vt 0.455493 0.795408
vt 0.453218 0.795408
vt 0.453955 0.795408
vt 0.464298 0.795408
vt 0.467105 0.795407
vt 0.466456 0.795407
vt 0.452719 0.795407
vt 0.455527 0.795408
vt 0.453369 0.795407
vt 0.290664 0.797845
vt 0.304505 0.784772
vt 0.295734 0.784772
vt 0.281893 0.797845
vt 0.304505 0.784772
vt 0.295734 0.784772
vt 0.302285 0.784772
vt 0.304505 0.784772
vt 0.290664 0.797845
vt 0.304505 0.784772
vt 0.288445 0.797845
vt 0.302285 0.784772
vt 0.284113 0.797845
vt 0.297953 0.784772
vt 0.281893 0.797845
vt 0.295734 0.784772
vt 0.295734 0.784772
vt 0.297953 0.784772
vt 0.280123 0.771064
vt 0.280123 0.786192
vt 0.280123 0.816447
vt 0.280123 0.801320
vt 0.280123 0.786192
vt 0.280123 0.771064
vt 0.310378 0.816447
vt 0.295250 0.771064
vt 0.310378 0.801320
vt 0.295250 0.786192
vt 0.295250 0.801320
vt 0.280123 0.801320
vt 0.280123 0.816447
vt 0.295250 0.816447
vt 0.309358 0.816447
vt 0.294699 0.771064
vt 0.309358 0.801320
vt 0.294699 0.786192
vt 0.296271 0.816447
vt 0.294699 0.816447
vt 0.296271 0.801320
vt 0.294699 0.801320
vt 0.466298 0.795408
vt 0.467105 0.795407
vt 0.464298 0.795408
vt 0.452719 0.795407
vt 0.453526 0.795408
vt 0.455527 0.795408
vt 0.466873 0.795407
vt 0.991591 0.929736
vt 0.452951 0.795407
vt 0.991591 0.929736
vt 0.043939 0.872774
vt 0.452951 0.795407
vt 0.991591 0.929736
vt 0.057860 0.872774
vt 0.466873 0.795407
vt 0.991591 0.929736
vt 0.056856 0.872774
vt 0.465869 0.795408
vt 0.057594 0.872774
vt 0.466606 0.795408
vt 0.055319 0.872774
vt 0.464331 0.795408
vt 0.044205 0.872774
vt 0.453218 0.795408
vt 0.044943 0.872774
vt 0.453955 0.795408
vt 0.046480 0.872774
vt 0.455493 0.795408
vt 0.292765 0.787511
vt 0.283927 0.787511
vt 0.292731 0.787511
vt 0.283960 0.787511
vt 0.292731 0.787511
vt 0.283960 0.787511
vt 0.292765 0.787511
vt 0.283927 0.787511
s 0
usemtl Palette
f 16/21/1 14/17/1 13/15/1 15/19/1
f 15/20/2 12/14/2 11/13/2 3/3/2
f 13/15/2 7/7/2 12/14/2 15/19/2
f 6/6/3 5/5/3 8/10/3 7/8/3
f 10/12/4 11/13/4 12/14/4 9/11/4
f 9/11/5 12/14/5 7/7/5 8/9/5
f 16/21/6 9/11/6 8/9/6 14/17/6
f 1/1/7 13/16/7 14/18/7 2/2/7
f 4/4/6 10/12/6 9/11/6 16/22/6
f 4/4/8 16/22/8 15/20/8 3/3/8
f 14/18/6 8/10/6 5/5/6 2/2/6
f 1/1/2 6/6/2 7/8/2 13/16/2
f 20/26/9 19/25/9 110/121/9 111/123/9
s 1
f 83/89/10 37/43/11 36/42/12 82/88/13
f 77/83/14 32/38/15 44/50/16 90/96/17
f 84/90/18 38/44/19 37/43/11 83/89/10
f 85/91/20 39/45/21 38/44/19 84/90/18
f 17/23/22 31/37/8 32/38/15 77/83/14
f 86/92/23 40/46/24 39/45/21 85/91/20
f 79/85/25 33/39/26 62/68/1 47/53/27
f 87/93/28 41/47/29 40/46/24 86/92/23
f 80/86/30 34/40/31 33/39/26 79/85/25
f 88/94/32 42/48/33 41/47/29 87/93/28
f 81/87/34 35/41/35 34/40/31 80/86/30
f 89/95/36 43/49/37 42/48/33 88/94/32
f 82/88/13 36/42/12 35/41/35 81/87/34
f 90/96/17 44/50/16 43/49/37 89/95/36
s 0
f 78/84/38 49/55/38 123/147/38 107/115/38
s 1
f 97/103/39 96/102/40 67/73/41 68/74/42
f 92/98/43 104/110/44 75/81/45 63/69/46
f 98/104/47 97/103/39 68/74/42 69/75/48
f 99/105/49 98/104/47 69/75/48 70/76/50
f 45/51/51 92/98/43 63/69/46 61/67/7
f 100/106/52 99/105/49 70/76/50 71/77/53
f 93/99/54 47/53/27 62/68/1 64/70/55
f 101/107/56 100/106/52 71/77/53 72/78/57
f 94/100/58 93/99/54 64/70/55 65/71/59
f 102/108/60 101/107/56 72/78/57 73/79/61
f 95/101/62 94/100/58 65/71/59 66/72/63
f 103/109/64 102/108/60 73/79/61 74/80/65
f 96/102/40 95/101/62 66/72/63 67/73/41
f 104/110/44 103/109/64 74/80/65 75/81/45
s 0
f 18/24/2 76/82/2 17/23/2 77/83/2
f 78/84/2 19/25/2 79/85/2 47/53/2
f 19/25/2 20/26/2 80/86/2 79/85/2
f 20/26/2 21/27/2 81/87/2 80/86/2
f 21/27/2 22/28/2 82/88/2 81/87/2
f 22/28/2 23/29/2 83/89/2 82/88/2
f 23/29/2 24/30/2 84/90/2 83/89/2
f 24/30/2 25/31/2 85/91/2 84/90/2
f 25/31/2 26/32/2 86/92/2 85/91/2
f 26/32/2 27/33/2 87/93/2 86/92/2
f 27/33/2 28/34/2 88/94/2 87/93/2
f 28/34/2 29/35/2 89/95/2 88/94/2
f 29/35/2 30/36/2 90/96/2 89/95/2
f 30/36/2 18/24/2 77/83/2 90/96/2
f 91/97/2 48/54/2 92/98/2 45/51/2
f 49/55/2 78/84/2 47/53/2 93/99/2
f 50/56/2 49/55/2 93/99/2 94/100/2
f 51/57/2 50/56/2 94/100/2 95/101/2
f 52/58/2 51/57/2 95/101/2 96/102/2
f 53/59/2 52/58/2 96/102/2 97/103/2
f 54/60/2 53/59/2 97/103/2 98/104/2
f 55/61/2 54/60/2 98/104/2 99/105/2
f 56/62/2 55/61/2 99/105/2 100/106/2
f 57/63/2 56/62/2 100/106/2 101/107/2
f 58/64/2 57/63/2 101/107/2 102/108/2
f 59/65/2 58/64/2 102/108/2 103/109/2
f 60/66/2 59/65/2 103/109/2 104/110/2
f 48/54/2 60/66/2 104/110/2 92/98/2
f 105/111/2 106/112/2 109/118/2 121/142/2 120/140/2 119/138/2 118/136/2 117/134/2 116/132/2 115/130/2 114/128/2 113/126/2 112/124/2 111/122/2 110/120/2 107/114/2
f 105/111/2 107/114/2 123/146/2 124/148/2 125/150/2 126/152/2 127/154/2 128/156/2 129/158/2 130/160/2 131/162/2 132/164/2 133/166/2 134/168/2 122/144/2 108/116/2
f 49/55/66 50/56/66 124/149/66 123/147/66
f 21/27/67 20/26/67 111/123/67 112/125/67
f 50/56/68 51/57/68 125/151/68 124/149/68
f 22/28/69 21/27/69 112/125/69 113/127/69
f 51/57/70 52/58/70 126/153/70 125/151/70
f 23/29/71 22/28/71 113/127/71 114/129/71
f 52/58/72 53/59/72 127/155/72 126/153/72
f 24/30/73 23/29/73 114/129/73 115/131/73
f 53/59/74 54/60/74 128/157/74 127/155/74
f 25/31/75 24/30/75 115/131/75 116/133/75
f 54/60/76 55/61/76 129/159/76 128/157/76
f 26/32/77 25/31/77 116/133/77 117/135/77
f 55/61/78 56/62/78 130/161/78 129/159/78
f 27/33/79 26/32/79 117/135/79 118/137/79
f 56/62/80 57/63/80 131/163/80 130/161/80
f 28/34/81 27/33/81 118/137/81 119/139/81
f 57/63/82 58/64/82 132/165/82 131/163/82
f 183/230/1 148/183/1 144/179/1 180/227/1
f 29/35/83 28/34/83 119/139/83 120/141/83
f 58/64/84 59/65/84 133/167/84 132/165/84
f 30/36/85 29/35/85 120/141/85 121/143/85
f 59/65/86 60/66/86 134/169/86 133/167/86
f 18/24/87 30/36/87 121/143/87 109/119/87
f 76/82/7 18/24/7 109/119/7 106/113/7
f 60/66/88 48/54/88 122/145/88 134/169/88
f 48/54/8 91/97/8 108/117/8 122/145/8
f 19/25/89 78/84/89 107/115/89 110/121/89
f 135/170/8 137/172/8 147/182/8 181/228/8
f 142/177/90 143/178/90 192/250/90 191/248/90
f 179/226/91 178/225/91 146/181/91 145/180/91
f 178/225/92 180/227/92 144/179/92 146/181/92
f 147/182/93 149/184/93 182/229/93 181/228/93
f 149/184/94 148/183/94 183/230/94 182/229/94
f 179/226/7 145/180/7 136/171/7 46/52/7
f 151/187/5 150/186/5 152/189/5 153/190/5
f 152/189/6 155/192/6 154/191/6 161/202/6 160/201/6 153/190/6
f 153/190/95 160/201/95 159/200/95 151/187/95
f 158/198/1 161/202/1 154/191/1 157/196/1
f 151/188/2 159/199/2 158/197/2 157/195/2 156/193/2 150/185/2
f 154/191/96 155/192/96 156/194/96 157/196/96
f 158/198/97 159/200/97 160/201/97 161/202/97
f 150/186/98 156/194/98 155/192/98 152/189/98
f 177/223/1 175/219/1 174/217/1 176/221/1
f 176/222/2 173/216/2 172/215/2 164/205/2
f 174/217/2 168/209/2 173/216/2 176/221/2
f 177/223/6 170/213/6 169/211/6 175/219/6
f 162/203/7 174/218/7 175/220/7 163/204/7
f 165/206/6 171/214/6 170/213/6 177/224/6
f 165/206/8 177/224/8 176/222/8 164/205/8
f 175/220/6 169/212/6 166/207/6 163/204/6
f 162/203/2 167/208/2 168/210/2 174/218/2
f 138/173/2 140/175/2 178/225/2 179/226/2
f 140/175/2 139/174/2 180/227/2 178/225/2
f 143/178/2 142/177/2 181/228/2 182/229/2
f 141/176/2 143/178/2 182/229/2 183/230/2
f 184/231/2 138/173/2 179/226/2 46/52/2
f 139/174/2 141/176/2 183/230/2 180/227/2
f 142/177/2 185/233/2 135/170/2 181/228/2
f 189/243/2 187/238/2 186/235/2 191/247/2 192/249/2 193/251/2 190/245/2 188/241/2
f 140/175/99 138/173/99 189/244/99 188/242/99
f 141/176/5 139/174/5 190/246/5 193/252/5
f 143/178/100 141/176/100 193/252/100 192/250/100
f 139/174/101 140/175/101 188/242/101 190/246/101
f 185/233/7 142/177/7 191/248/7 186/236/7
f 138/173/8 184/231/8 187/239/8 189/244/8
f 184/232/1 185/234/1 186/237/1 187/240/1
f 194/253/2 195/254/2 197/256/2 196/255/2
f 196/255/102 198/257/102 200/259/102 194/253/102
f 197/256/1 199/258/1 198/257/1 196/255/1
f 195/254/103 201/260/103 199/258/103 197/256/103
