# Blender 3.4.1
# www.blender.org
mtllib Door_Handle_2.mtl
o Door_Handle_2
v -0.000001 0.015993 -0.050891
v -0.000001 0.015993 0.018337
v 0.011308 0.011309 -0.050891
v 0.011308 0.011309 0.018337
v 0.015993 0.000000 -0.050891
v 0.015993 -0.000000 0.018337
v 0.011308 -0.011309 -0.050891
v 0.011308 -0.011309 0.018337
v -0.000001 -0.015993 -0.050891
v -0.000001 -0.015993 0.018337
v -0.011310 -0.011309 -0.050891
v -0.011310 -0.011309 0.018337
v -0.015994 0.000000 -0.050891
v -0.015994 0.000000 0.018337
v -0.011310 0.011309 -0.050891
v -0.011310 0.011309 0.018337
v 0.000000 0.033611 0.082168
v 0.000000 0.058216 0.065503
v 0.000000 0.067222 0.042738
v 0.000000 0.058216 0.019973
v 0.000000 0.033611 0.003308
v 0.029108 0.016806 0.082168
v 0.050417 0.029108 0.065503
v 0.058216 0.033611 0.042738
v 0.050417 0.029108 0.019973
v 0.029108 0.016806 0.003308
v 0.029108 -0.016806 0.082168
v 0.050417 -0.029108 0.065503
v 0.058216 -0.033611 0.042738
v 0.050417 -0.029108 0.019973
v 0.029108 -0.016806 0.003308
v 0.000000 -0.000000 0.088268
v -0.000000 -0.033611 0.082168
v -0.000000 -0.058216 0.065503
v -0.000000 -0.067222 0.042738
v -0.000000 -0.058216 0.019973
v -0.000000 -0.033611 0.003308
v 0.000000 0.000000 -0.002792
v -0.029108 -0.016806 0.082168
v -0.050417 -0.029108 0.065503
v -0.058216 -0.033611 0.042738
v -0.050417 -0.029108 0.019973
v -0.029108 -0.016806 0.003308
v -0.029108 0.016806 0.082168
v -0.050417 0.029108 0.065503
v -0.058216 0.033611 0.042738
v -0.050417 0.029108 0.019973
v -0.029108 0.016806 0.003308
vn 0.3827 0.9239 -0.0000
vn 0.9239 0.3827 -0.0000
vn 0.9239 -0.3827 -0.0000
vn 0.3827 -0.9239 -0.0000
vn -0.3827 -0.9239 -0.0000
vn -0.9239 -0.3827 -0.0000
vn -0.9239 0.3827 -0.0000
vn -0.3827 0.9239 -0.0000
vn -0.0000 -0.0000 -1.0000
vn -0.0000 0.4332 -0.9013
vn 0.3752 0.2166 -0.9013
vn -0.0000 0.8125 -0.5830
vn -0.0000 1.0000 -0.0000
vn 0.8660 0.5000 -0.0000
vn 0.7036 0.4062 -0.5830
vn -0.0000 0.8125 0.5830
vn -0.0000 0.4332 0.9013
vn 0.3752 0.2166 0.9013
vn 0.7036 0.4062 0.5830
vn -0.0000 -0.0000 1.0000
vn 0.7036 -0.4062 -0.5830
vn 0.3752 -0.2166 -0.9013
vn 0.7036 -0.4062 0.5830
vn 0.8660 -0.5000 -0.0000
vn 0.3752 -0.2166 0.9013
vn -0.0000 -0.8125 -0.5830
vn -0.0000 -0.4332 -0.9013
vn -0.0000 -0.8125 0.5830
vn -0.0000 -1.0000 -0.0000
vn -0.0000 -0.4332 0.9013
vn -0.7036 -0.4062 -0.5830
vn -0.3752 -0.2166 -0.9013
vn -0.7036 -0.4062 0.5830
vn -0.8660 -0.5000 -0.0000
vn -0.3752 -0.2166 0.9013
vn -0.7036 0.4062 -0.5830
vn -0.3752 0.2166 -0.9013
vn -0.7036 0.4062 0.5830
vn -0.8660 0.5000 -0.0000
vn -0.3752 0.2166 0.9013
vt 0.313033 0.635003
vt 0.272770 0.635003
vt 0.313033 0.655135
vt 0.272770 0.655135
vt 0.308000 0.635003
vt 0.308000 0.655135
vt 0.302967 0.635003
vt 0.302967 0.655135
vt 0.297934 0.635003
vt 0.297934 0.655135
vt 0.292901 0.635003
vt 0.292901 0.655135
vt 0.287869 0.635003
vt 0.287869 0.655135
vt 0.282836 0.635003
vt 0.282836 0.655135
vt 0.277803 0.635003
vt 0.277803 0.655135
vt 0.302941 0.649593
vt 0.302941 0.642882
vt 0.302941 0.636172
vt 0.302941 0.629461
vt 0.302941 0.622751
vt 0.296230 0.649593
vt 0.296230 0.642882
vt 0.296230 0.636172
vt 0.296230 0.629461
vt 0.296230 0.622751
vt 0.289520 0.649593
vt 0.289520 0.642882
vt 0.289520 0.636172
vt 0.289520 0.629461
vt 0.289520 0.622751
vt 0.299585 0.656303
vt 0.292875 0.656303
vt 0.286165 0.656303
vt 0.279454 0.656303
vt 0.313006 0.656303
vt 0.306296 0.656303
vt 0.282809 0.649593
vt 0.282809 0.642882
vt 0.282809 0.636172
vt 0.282809 0.629461
vt 0.282809 0.622751
vt 0.299585 0.616040
vt 0.292875 0.616040
vt 0.286165 0.616040
vt 0.279454 0.616040
vt 0.313006 0.616040
vt 0.306296 0.616040
vt 0.276099 0.649593
vt 0.316362 0.649593
vt 0.276099 0.642882
vt 0.316362 0.642882
vt 0.276099 0.636172
vt 0.316362 0.636172
vt 0.276099 0.629461
vt 0.316362 0.629461
vt 0.276099 0.622751
vt 0.316362 0.622751
vt 0.309651 0.649593
vt 0.309651 0.642882
vt 0.309651 0.636172
vt 0.309651 0.629461
vt 0.309651 0.622751
s 0
usemtl Palette
f 1/1/1 2/3/1 4/6/1 3/5/1
f 3/5/2 4/6/2 6/8/2 5/7/2
f 5/7/3 6/8/3 8/10/3 7/9/3
f 7/9/4 8/10/4 10/12/4 9/11/4
f 9/11/5 10/12/5 12/14/5 11/13/5
f 11/13/6 12/14/6 14/16/6 13/15/6
f 13/15/7 14/16/7 16/18/7 15/17/7
f 15/17/8 16/18/8 2/4/8 1/2/8
s 1
f 38/45/9 21/23/10 26/28/11
f 20/22/12 19/21/13 24/26/14 25/27/15
f 18/20/16 17/19/17 22/24/18 23/25/19
f 21/23/10 20/22/12 25/27/15 26/28/11
f 19/21/13 18/20/16 23/25/19 24/26/14
f 17/19/17 32/34/20 22/24/18
f 26/28/11 25/27/15 30/32/21 31/33/22
f 24/26/14 23/25/19 28/30/23 29/31/24
f 22/24/18 32/35/20 27/29/25
f 38/46/9 26/28/11 31/33/22
f 25/27/15 24/26/14 29/31/24 30/32/21
f 23/25/19 22/24/18 27/29/25 28/30/23
f 31/33/22 30/32/21 36/43/26 37/44/27
f 29/31/24 28/30/23 34/41/28 35/42/29
f 27/29/25 32/36/20 33/40/30
f 38/47/9 31/33/22 37/44/27
f 30/32/21 29/31/24 35/42/29 36/43/26
f 28/30/23 27/29/25 33/40/30 34/41/28
f 37/44/27 36/43/26 42/57/31 43/59/32
f 35/42/29 34/41/28 40/53/33 41/55/34
f 33/40/30 32/37/20 39/51/35
f 38/48/9 37/44/27 43/59/32
f 36/43/26 35/42/29 41/55/34 42/57/31
f 34/41/28 33/40/30 39/51/35 40/53/33
f 43/60/32 42/58/31 47/64/36 48/65/37
f 41/56/34 40/54/33 45/62/38 46/63/39
f 39/52/35 32/38/20 44/61/40
f 38/49/9 43/60/32 48/65/37
f 42/58/31 41/56/34 46/63/39 47/64/36
f 40/54/33 39/52/35 44/61/40 45/62/38
f 46/63/39 45/62/38 18/20/16 19/21/13
f 44/61/40 32/39/20 17/19/17
f 38/50/9 48/65/37 21/23/10
f 47/64/36 46/63/39 19/21/13 20/22/12
f 45/62/38 44/61/40 17/19/17 18/20/16
f 48/65/37 47/64/36 20/22/12 21/23/10
