# Blender 3.4.1
# www.blender.org
mtllib Door_2.mtl
o Door_2
v 0.000000 -0.004540 0.043540
v 0.000000 2.020341 0.043540
v 0.000000 -0.004540 -0.043537
v 0.000000 2.020341 -0.043537
v -1.002907 -0.004540 0.043540
v -1.002907 2.020341 0.043540
v -1.002907 -0.004540 -0.043537
v -1.002907 2.020341 -0.043537
v -0.940913 1.968820 -0.043537
v -0.061992 1.968820 -0.043537
v -0.061992 0.046981 -0.043537
v -0.940913 0.046981 -0.043537
v -0.061992 1.968820 0.043540
v -0.940913 1.968820 0.043540
v -0.061992 0.046981 0.043540
v -0.940913 0.046981 0.043540
v -0.940913 1.261741 0.043539
v -0.940913 0.894929 0.043539
v -0.940913 1.261741 -0.043538
v -0.940913 0.894929 -0.043538
v -0.838402 1.217924 0.043539
v -0.881901 1.261741 0.043539
v -0.881901 1.261741 -0.043538
v -0.838402 1.217924 -0.043538
v -0.881901 0.894929 0.043539
v -0.838402 0.938746 0.043539
v -0.838402 0.938746 -0.043538
v -0.881901 0.894929 -0.043538
vn 1.0000 -0.0000 -0.0000
vn -0.0000 -0.0000 -1.0000
vn -1.0000 -0.0000 -0.0000
vn -0.0000 -0.0000 1.0000
vn -0.0000 -1.0000 -0.0000
vn -0.0000 1.0000 -0.0000
vn 0.7097 0.7045 -0.0000
vn 0.7097 -0.7045 -0.0000
vt 0.546119 0.702431
vt 0.546119 0.733076
vt 0.538458 0.725415
vt 0.553780 0.702431
vt 0.561441 0.725415
vt 0.553780 0.733076
vt 0.538458 0.717753
vt 0.546119 0.710092
vt 0.553780 0.710092
vt 0.561441 0.717753
vt 0.546119 0.725415
vt 0.553780 0.725415
vt 0.546119 0.717753
vt 0.553780 0.717753
vt 0.553780 0.720238
vt 0.552648 0.716258
vt 0.552648 0.711588
vt 0.553780 0.707607
vt 0.561441 0.720238
vt 0.546119 0.707607
vt 0.538458 0.720238
vt 0.547252 0.711588
vt 0.546119 0.720238
vt 0.547252 0.716258
vt 0.553780 0.704916
vt 0.561441 0.722930
vt 0.552648 0.731580
vt 0.553780 0.722930
vt 0.552648 0.726910
vt 0.547252 0.731580
vt 0.546119 0.704916
vt 0.538458 0.722930
vt 0.546119 0.722930
vt 0.547252 0.726910
vt 0.553780 0.720238
vt 0.546119 0.720238
vt 0.553780 0.722930
vt 0.546119 0.722930
vt 0.552865 0.720238
vt 0.553780 0.720238
vt 0.553780 0.722930
vt 0.552865 0.722930
vt 0.546119 0.720238
vt 0.547034 0.720238
vt 0.547034 0.722930
vt 0.546119 0.722930
s 0
usemtl Palette
f 1/1/1 3/8/1 4/9/1 2/4/1
f 10/17/2 9/16/2 8/14/2 4/9/2
f 3/8/2 11/22/2 10/17/2 4/9/2
f 7/13/3 5/11/3 6/12/3 8/14/3
f 2/6/4 13/27/4 15/30/4 1/2/4
f 15/30/4 16/34/4 5/11/4 1/2/4
f 3/7/5 1/3/5 5/11/5 7/13/5
f 8/14/6 6/12/6 2/5/6 4/10/6
f 15/31/3 13/25/3 10/18/3 11/20/3
f 12/23/1 9/15/1 14/28/1 16/33/1
f 16/33/6 15/32/6 11/21/6 12/23/6
f 10/19/5 13/26/5 14/28/5 9/15/5
f 16/34/4 14/29/4 6/12/4 5/11/4
f 14/29/4 13/27/4 2/6/4 6/12/4
f 9/16/2 12/24/2 7/13/2 8/14/2
f 12/24/2 11/22/2 3/8/2 7/13/2
f 17/35/4 18/36/4 25/43/4 26/44/4 21/39/4 22/40/4
f 20/38/2 19/37/2 23/41/2 24/42/2 27/45/2 28/46/2
f 18/36/5 20/38/5 28/46/5 25/43/5
f 26/44/1 27/45/1 24/42/1 21/39/1
f 21/39/7 24/42/7 23/41/7 22/40/7
f 25/43/8 28/46/8 27/45/8 26/44/8
f 19/37/6 17/35/6 22/40/6 23/41/6
