# Blender 3.4.1
# www.blender.org
mtllib Door_4.mtl
o Door_4
v 0.000000 -0.004540 0.043539
v 0.000000 2.020341 0.043539
v -1.002907 -0.004540 0.043539
v -1.002907 2.020341 0.043539
v -0.133266 0.137077 0.043539
v -0.869640 0.137077 0.043539
v -0.869640 1.878725 0.043539
v -0.133266 1.878725 0.043539
v -0.311299 0.304208 0.043539
v -0.691608 0.304208 0.043539
v -0.311299 1.711594 0.043539
v -0.691608 1.711594 0.043539
v -0.311299 0.656054 0.043539
v -0.311299 1.007901 0.043539
v -0.311299 1.359747 0.043539
v -0.691608 1.359747 0.043539
v -0.691608 1.007901 0.043539
v -0.691608 0.656054 0.043539
v -0.348224 0.339763 0.043539
v -0.654683 0.339763 0.043539
v -0.654683 0.620498 0.043539
v -0.348224 0.620498 0.043539
v -0.348224 1.395303 0.043539
v -0.654683 1.395303 0.043539
v -0.654683 1.676038 0.043539
v -0.348224 1.676038 0.043539
v -0.348224 0.691610 0.043539
v -0.654683 0.691610 0.043539
v -0.654683 0.972345 0.043539
v -0.348224 0.972345 0.043539
v -0.348224 1.043457 0.043539
v -0.654683 1.043457 0.043539
v -0.654683 1.324191 0.043539
v -0.348224 1.324191 0.043539
v -0.348224 0.339763 0.027602
v -0.654683 0.339763 0.027602
v -0.348224 0.620498 0.027602
v -0.654683 0.620498 0.027602
v -0.654683 1.395303 0.027602
v -0.348224 1.395303 0.027602
v -0.348224 1.676038 0.027602
v -0.654683 1.676038 0.027602
v -0.654683 0.691610 0.027602
v -0.348224 0.691610 0.027602
v -0.348224 0.972345 0.027602
v -0.654683 0.972345 0.027602
v -0.654683 1.043457 0.027602
v -0.348224 1.043457 0.027602
v -0.348224 1.324191 0.027602
v -0.654683 1.324191 0.027602
v 0.000000 -0.004540 -0.043539
v 0.000000 2.020341 -0.043539
v -1.002907 -0.004540 -0.043539
v -1.002907 2.020341 -0.043539
v -0.133266 0.137077 -0.043539
v -0.869640 0.137077 -0.043539
v -0.869640 1.878725 -0.043539
v -0.133266 1.878725 -0.043539
v -0.133266 0.137077 0.000000
v -0.869640 0.137077 0.000000
v -0.133266 1.878725 0.000000
v -0.869640 1.878725 0.000000
v -0.311299 0.304208 -0.043539
v -0.691608 0.304208 -0.043539
v -0.311299 1.711594 -0.043539
v -0.691608 1.711594 -0.043539
v -0.311299 0.656054 -0.043539
v -0.311299 1.007901 -0.043539
v -0.311299 1.359747 -0.043539
v -0.691608 1.359747 -0.043539
v -0.691608 1.007901 -0.043539
v -0.691608 0.656054 -0.043539
v -0.348224 0.339763 -0.043539
v -0.654683 0.339763 -0.043539
v -0.654683 0.620498 -0.043539
v -0.348224 0.620498 -0.043539
v -0.348224 1.395303 -0.043539
v -0.654683 1.395303 -0.043539
v -0.654683 1.676038 -0.043539
v -0.348224 1.676038 -0.043539
v -0.348224 0.691610 -0.043539
v -0.654683 0.691610 -0.043539
v -0.654683 0.972345 -0.043539
v -0.348224 0.972345 -0.043539
v -0.348224 1.043457 -0.043539
v -0.654683 1.043457 -0.043539
v -0.654683 1.324191 -0.043539
v -0.348224 1.324191 -0.043539
v -0.348224 0.339763 -0.027602
v -0.654683 0.339763 -0.027602
v -0.348224 0.620498 -0.027602
v -0.654683 0.620498 -0.027602
v -0.654683 1.395303 -0.027602
v -0.348224 1.395303 -0.027602
v -0.348224 1.676038 -0.027602
v -0.654683 1.676038 -0.027602
v -0.654683 0.691610 -0.027602
v -0.348224 0.691610 -0.027602
v -0.348224 0.972345 -0.027602
v -0.654683 0.972345 -0.027602
v -0.654683 1.043457 -0.027602
v -0.348224 1.043457 -0.027602
v -0.348224 1.324191 -0.027602
v -0.654683 1.324191 -0.027602
vn 1.0000 -0.0000 -0.0000
vn -1.0000 -0.0000 -0.0000
vn -0.0000 1.0000 -0.0000
vn -0.0000 -1.0000 -0.0000
vn -0.0000 -0.0000 1.0000
vn -0.0000 -0.0000 -1.0000
vt 0.860292 0.946329
vt 0.852631 0.969312
vt 0.867953 0.946329
vt 0.875615 0.969312
vt 0.860292 0.969312
vt 0.867953 0.969312
vt 0.854495 0.969312
vt 0.860062 0.969312
vt 0.868184 0.969312
vt 0.873750 0.969312
vt 0.856829 0.969312
vt 0.859911 0.969312
vt 0.871416 0.969312
vt 0.868334 0.969312
vt 0.860476 0.969312
vt 0.864123 0.969312
vt 0.867770 0.969312
vt 0.866229 0.969312
vt 0.864123 0.969312
vt 0.862017 0.969312
vt 0.857465 0.969312
vt 0.859857 0.969312
vt 0.861623 0.969312
vt 0.860289 0.969312
vt 0.867956 0.969312
vt 0.866623 0.969312
vt 0.868389 0.969312
vt 0.870781 0.969312
vt 0.860962 0.969312
vt 0.862112 0.969312
vt 0.863878 0.969312
vt 0.863786 0.969312
vt 0.864459 0.969312
vt 0.864368 0.969312
vt 0.866133 0.969312
vt 0.867284 0.969312
vt 0.706579 0.965178
vt 0.857465 0.969312
vt 0.708971 0.965178
vt 0.859857 0.969312
vt 0.709404 0.965178
vt 0.860289 0.969312
vt 0.710737 0.965178
vt 0.861623 0.969312
vt 0.715737 0.965178
vt 0.866623 0.969312
vt 0.717071 0.965178
vt 0.867956 0.969312
vt 0.719895 0.965178
vt 0.870781 0.969312
vt 0.717503 0.965178
vt 0.868389 0.969312
vt 0.711227 0.965178
vt 0.862112 0.969312
vt 0.710076 0.965178
vt 0.860962 0.969312
vt 0.712901 0.965178
vt 0.863786 0.969312
vt 0.712992 0.965178
vt 0.863878 0.969312
vt 0.713482 0.965178
vt 0.864368 0.969312
vt 0.713574 0.965178
vt 0.864459 0.969312
vt 0.716398 0.965178
vt 0.867284 0.969312
vt 0.715248 0.965178
vt 0.866133 0.969312
vt 0.860292 0.946329
vt 0.852631 0.969312
vt 0.867953 0.946329
vt 0.875615 0.969312
vt 0.860292 0.969312
vt 0.867953 0.969312
vt 0.854495 0.969312
vt 0.860062 0.969312
vt 0.868184 0.969312
vt 0.873750 0.969312
vt 0.854495 0.969312
vt 0.860062 0.969312
vt 0.873750 0.969312
vt 0.868184 0.969312
vt 0.856829 0.969312
vt 0.859911 0.969312
vt 0.871416 0.969312
vt 0.868334 0.969312
vt 0.860476 0.969312
vt 0.864123 0.969312
vt 0.867770 0.969312
vt 0.866229 0.969312
vt 0.864123 0.969312
vt 0.862017 0.969312
vt 0.857465 0.969312
vt 0.859857 0.969312
vt 0.861623 0.969312
vt 0.860289 0.969312
vt 0.867956 0.969312
vt 0.866623 0.969312
vt 0.868389 0.969312
vt 0.870781 0.969312
vt 0.860962 0.969312
vt 0.862112 0.969312
vt 0.863878 0.969312
vt 0.863786 0.969312
vt 0.864459 0.969312
vt 0.864368 0.969312
vt 0.866133 0.969312
vt 0.867284 0.969312
vt 0.706579 0.965178
vt 0.857465 0.969312
vt 0.708971 0.965178
vt 0.859857 0.969312
vt 0.709404 0.965178
vt 0.860289 0.969312
vt 0.710737 0.965178
vt 0.861623 0.969312
vt 0.715737 0.965178
vt 0.866623 0.969312
vt 0.717071 0.965178
vt 0.867956 0.969312
vt 0.719895 0.965178
vt 0.870781 0.969312
vt 0.717503 0.965178
vt 0.868389 0.969312
vt 0.711227 0.965178
vt 0.862112 0.969312
vt 0.710076 0.965178
vt 0.860962 0.969312
vt 0.712901 0.965178
vt 0.863786 0.969312
vt 0.712992 0.965178
vt 0.863878 0.969312
vt 0.713482 0.965178
vt 0.864368 0.969312
vt 0.713574 0.965178
vt 0.864459 0.969312
vt 0.716398 0.965178
vt 0.867284 0.969312
vt 0.715248 0.965178
vt 0.866133 0.969312
s 0
usemtl Palette
f 51/69/1 52/71/1 2/3/1 1/1/1
f 8/10/2 61/81/2 59/79/2 5/7/2
f 2/4/3 52/72/3 54/74/3 4/6/3
f 3/5/4 53/73/4 51/70/4 1/2/4
f 1/2/5 5/7/5 6/8/5 3/5/5
f 3/5/5 6/8/5 7/9/5 4/6/5
f 4/6/5 7/9/5 8/10/5 2/4/5
f 2/4/5 8/10/5 5/7/5 1/2/5
f 14/16/1 68/88/1 69/89/1 15/17/1
f 6/8/1 60/80/1 62/82/1 7/9/1
f 5/7/3 59/79/3 60/80/3 6/8/3
f 7/9/4 62/82/4 61/81/4 8/10/4
f 21/23/4 38/44/4 37/42/4 22/24/4
f 9/11/1 63/83/1 67/87/1 13/15/1
f 13/15/1 67/87/1 68/88/1 14/16/1
f 18/20/2 72/92/2 64/84/2 10/12/2
f 34/36/2 49/66/2 48/64/2 31/33/2
f 15/17/1 69/89/1 65/85/1 11/13/1
f 12/14/2 66/86/2 70/90/2 16/18/2
f 16/18/2 70/90/2 71/91/2 17/19/2
f 24/26/1 39/46/1 42/52/1 25/27/1
f 30/32/2 45/58/2 44/56/2 27/29/2
f 11/13/3 65/85/3 66/86/3 12/14/3
f 17/19/2 71/91/2 72/92/2 18/20/2
f 9/11/5 19/21/5 20/22/5 10/12/5
f 10/12/5 20/22/5 21/23/5 18/20/5
f 18/20/5 21/23/5 22/24/5 13/15/5
f 13/15/5 22/24/5 19/21/5 9/11/5
f 15/17/5 23/25/5 24/26/5 16/18/5
f 16/18/5 24/26/5 25/27/5 12/14/5
f 12/14/5 25/27/5 26/28/5 11/13/5
f 11/13/5 26/28/5 23/25/5 15/17/5
f 13/15/5 27/29/5 28/30/5 18/20/5
f 18/20/5 28/30/5 29/31/5 17/19/5
f 17/19/5 29/31/5 30/32/5 14/16/5
f 14/16/5 30/32/5 27/29/5 13/15/5
f 14/16/5 31/33/5 32/34/5 17/19/5
f 17/19/5 32/34/5 33/35/5 16/18/5
f 16/18/5 33/35/5 34/36/5 15/17/5
f 15/17/5 34/36/5 31/33/5 14/16/5
f 35/37/5 37/41/5 38/43/5 36/39/5
f 40/47/5 41/49/5 42/51/5 39/45/5
f 44/55/5 45/57/5 46/59/5 43/53/5
f 48/63/5 49/65/5 50/67/5 47/61/5
f 28/30/1 43/54/1 46/60/1 29/31/1
f 25/27/4 42/52/4 41/50/4 26/28/4
f 32/34/1 47/62/1 50/68/1 33/35/1
f 29/31/4 46/60/4 45/58/4 30/32/4
f 33/35/4 50/68/4 49/66/4 34/36/4
f 19/21/3 35/38/3 36/40/3 20/22/3
f 23/25/3 40/48/3 39/46/3 24/26/3
f 22/24/2 37/42/2 35/38/2 19/21/2
f 27/29/3 44/56/3 43/54/3 28/30/3
f 26/28/2 41/50/2 40/48/2 23/25/2
f 31/33/3 48/64/3 47/62/3 32/34/3
f 20/22/1 36/40/1 38/44/1 21/23/1
f 58/78/2 55/75/2 59/79/2 61/81/2
f 51/70/6 53/73/6 56/76/6 55/75/6
f 53/73/6 54/74/6 57/77/6 56/76/6
f 54/74/6 52/72/6 58/78/6 57/77/6
f 52/72/6 51/70/6 55/75/6 58/78/6
f 56/76/1 57/77/1 62/82/1 60/80/1
f 55/75/3 56/76/3 60/80/3 59/79/3
f 57/77/4 58/78/4 61/81/4 62/82/4
f 75/95/4 76/96/4 91/114/4 92/116/4
f 88/108/2 85/105/2 102/136/2 103/138/2
f 78/98/1 79/99/1 96/124/1 93/118/1
f 84/104/2 81/101/2 98/128/2 99/130/2
f 63/83/6 64/84/6 74/94/6 73/93/6
f 64/84/6 72/92/6 75/95/6 74/94/6
f 72/92/6 67/87/6 76/96/6 75/95/6
f 67/87/6 63/83/6 73/93/6 76/96/6
f 69/89/6 70/90/6 78/98/6 77/97/6
f 70/90/6 66/86/6 79/99/6 78/98/6
f 66/86/6 65/85/6 80/100/6 79/99/6
f 65/85/6 69/89/6 77/97/6 80/100/6
f 67/87/6 72/92/6 82/102/6 81/101/6
f 72/92/6 71/91/6 83/103/6 82/102/6
f 71/91/6 68/88/6 84/104/6 83/103/6
f 68/88/6 67/87/6 81/101/6 84/104/6
f 68/88/6 71/91/6 86/106/6 85/105/6
f 71/91/6 70/90/6 87/107/6 86/106/6
f 70/90/6 69/89/6 88/108/6 87/107/6
f 69/89/6 68/88/6 85/105/6 88/108/6
f 89/109/6 90/111/6 92/115/6 91/113/6
f 94/119/6 93/117/6 96/123/6 95/121/6
f 98/127/6 97/125/6 100/131/6 99/129/6
f 102/135/6 101/133/6 104/139/6 103/137/6
f 82/102/1 83/103/1 100/132/1 97/126/1
f 79/99/4 80/100/4 95/122/4 96/124/4
f 86/106/1 87/107/1 104/140/1 101/134/1
f 83/103/4 84/104/4 99/130/4 100/132/4
f 87/107/4 88/108/4 103/138/4 104/140/4
f 73/93/3 74/94/3 90/112/3 89/110/3
f 77/97/3 78/98/3 93/118/3 94/120/3
f 76/96/2 73/93/2 89/110/2 91/114/2
f 81/101/3 82/102/3 97/126/3 98/128/3
f 80/100/2 77/97/2 94/120/2 95/122/2
f 85/105/3 86/106/3 101/134/3 102/136/3
f 74/94/1 75/95/1 92/116/1 90/112/1
f 4/6/2 54/74/2 53/73/2 3/5/2
f 10/12/4 64/84/4 63/83/4 9/11/4
