# Blender 3.4.1
# www.blender.org
mtllib Door_Frame_2.mtl
o Door_Frame_2
v -0.567969 0.000000 0.138463
v -0.567969 2.100655 0.138463
v -0.567969 0.000000 -0.138463
v -0.567969 2.100655 -0.138463
v 0.567969 0.000000 0.138463
v 0.567969 2.100655 0.138463
v 0.567969 0.000000 -0.138463
v 0.567969 2.100655 -0.138463
v -0.463749 0.000000 -0.138463
v -0.463749 0.000000 0.138463
v -0.482027 2.020291 0.138463
v -0.482027 2.020291 -0.138463
v 0.482027 2.020291 -0.138463
v 0.463749 0.000000 -0.138463
v 0.463749 0.000000 0.138463
v 0.482027 2.020291 0.138463
v -0.604709 0.000000 0.119292
v -0.604709 2.139203 0.119292
v -0.604709 0.000000 -0.119292
v -0.604709 2.139203 -0.119292
v 0.604709 0.000000 0.119292
v 0.604709 2.139203 0.119292
v 0.604709 0.000000 -0.119292
v 0.604709 2.139203 -0.119292
v -0.493748 0.000000 -0.119292
v -0.493748 0.000000 0.119292
v -0.513207 2.055945 0.119292
v -0.513207 2.055945 -0.119292
v 0.513207 2.055945 -0.119292
v 0.493748 0.000000 -0.119292
v 0.493748 0.000000 0.119292
v 0.513207 2.055945 0.119292
v -0.539322 2.073867 0.138463
v -0.510674 2.047079 0.138463
v -0.498489 0.000000 0.138463
v -0.533229 0.000000 0.138463
v 0.533229 0.000000 0.138463
v 0.498489 0.000000 0.138463
v 0.510674 2.047079 0.138463
v 0.539322 2.073867 0.138463
v 0.539322 2.073867 -0.138463
v 0.510674 2.047079 -0.138463
v 0.498489 0.000000 -0.138463
v 0.533229 0.000000 -0.138463
v -0.533229 0.000000 -0.138463
v -0.498489 0.000000 -0.138463
v -0.510674 2.047079 -0.138463
v -0.539322 2.073867 -0.138463
v -0.539322 2.073867 0.125999
v -0.510674 2.047079 0.125999
v -0.498489 0.000000 0.125999
v -0.533229 0.000000 0.125999
v 0.533229 0.000000 0.125999
v 0.498489 0.000000 0.125999
v 0.510674 2.047079 0.125999
v 0.539322 2.073867 0.125999
v 0.539322 2.073867 -0.125999
v 0.510674 2.047079 -0.125999
v 0.498489 0.000000 -0.125999
v 0.533229 0.000000 -0.125999
v -0.533229 0.000000 -0.125999
v -0.498489 0.000000 -0.125999
v -0.510674 2.047079 -0.125999
v -0.539322 2.073867 -0.125999
vn -1.0000 -0.0000 -0.0000
vn 1.0000 -0.0000 -0.0000
vn -0.0000 1.0000 -0.0000
vn 1.0000 0.0090 -0.0000
vn -1.0000 0.0090 -0.0000
vn -0.0000 -1.0000 -0.0000
vn -0.0000 -0.0000 -1.0000
vn -0.0000 -0.0000 1.0000
vn 1.0000 0.0095 -0.0000
vn -1.0000 0.0095 -0.0000
vn 1.0000 0.0029 -0.0000
vn -1.0000 -0.0060 -0.0000
vn -1.0000 0.0029 -0.0000
vn 1.0000 -0.0060 -0.0000
vt 0.362593 0.766815
vt 0.392848 0.812198
vt 0.377721 0.766815
vt 0.362593 0.781942
vt 0.358459 0.788143
vt 0.377721 0.781942
vt 0.392848 0.797070
vt 0.388714 0.803271
vt 0.373587 0.788143
vt 0.362593 0.812198
vt 0.377721 0.812198
vt 0.362593 0.797070
vt 0.358459 0.803271
vt 0.377721 0.797070
vt 0.373587 0.803271
vt 0.358459 0.784009
vt 0.358459 0.768881
vt 0.373587 0.768881
vt 0.388714 0.814265
vt 0.373587 0.784009
vt 0.388714 0.799137
vt 0.373587 0.799137
vt 0.358459 0.799137
vt 0.358459 0.814265
vt 0.373587 0.814265
vt 0.362593 0.768881
vt 0.370861 0.768881
vt 0.377721 0.768881
vt 0.392848 0.814265
vt 0.385988 0.768881
vt 0.401116 0.814265
vt 0.362593 0.784009
vt 0.370861 0.784009
vt 0.377721 0.784009
vt 0.392848 0.799137
vt 0.385988 0.784009
vt 0.401116 0.799137
vt 0.362593 0.814265
vt 0.370861 0.814265
vt 0.377721 0.814265
vt 0.385988 0.814265
vt 0.362593 0.799137
vt 0.370861 0.799137
vt 0.377721 0.799137
vt 0.385988 0.799137
vt 0.612484 0.784199
vt 0.370861 0.784009
vt 0.612484 0.769071
vt 0.370861 0.768881
vt 0.627611 0.769071
vt 0.642739 0.814454
vt 0.385988 0.768881
vt 0.401116 0.814265
vt 0.627611 0.784199
vt 0.642739 0.799327
vt 0.385988 0.784009
vt 0.401116 0.799137
vt 0.627611 0.799327
vt 0.385988 0.799137
vt 0.612484 0.799327
vt 0.370861 0.799137
vt 0.612484 0.814454
vt 0.370861 0.814265
vt 0.627611 0.814454
vt 0.385988 0.814265
vt 0.392848 0.812198
vt 0.377721 0.766814
vt 0.480961 0.812600
vt 0.465834 0.767217
vt 0.373587 0.768881
vt 0.388714 0.814265
vt 0.480961 0.812600
vt 0.465834 0.767217
vt 0.358459 0.768881
vt 0.450706 0.767217
vt 0.362593 0.766814
vt 0.450706 0.767217
vt 0.362593 0.812198
vt 0.450706 0.812600
vt 0.358459 0.814265
vt 0.450706 0.812600
vt 0.373587 0.814265
vt 0.465834 0.812600
vt 0.377721 0.812198
vt 0.465834 0.812600
vt 0.373587 0.803271
vt 0.465834 0.797473
vt 0.373587 0.799137
vt 0.465834 0.797473
vt 0.358459 0.799137
vt 0.450706 0.797473
vt 0.358459 0.803271
vt 0.450706 0.797473
vt 0.450706 0.782345
vt 0.358459 0.788143
vt 0.358459 0.784009
vt 0.450706 0.782345
vt 0.373587 0.784009
vt 0.388714 0.799137
vt 0.480961 0.797473
vt 0.465834 0.782345
vt 0.465834 0.782345
vt 0.388714 0.803271
vt 0.373587 0.788143
vt 0.480961 0.797473
vt 0.480961 0.812600
vt 0.476828 0.816734
vt 0.461700 0.771351
vt 0.465834 0.767217
vt 0.480961 0.812600
vt 0.465834 0.767217
vt 0.476828 0.816734
vt 0.461700 0.771351
vt 0.450706 0.767217
vt 0.446572 0.771351
vt 0.446572 0.771351
vt 0.450706 0.767217
vt 0.446572 0.816734
vt 0.450706 0.812600
vt 0.446572 0.816734
vt 0.450706 0.812600
vt 0.461700 0.816734
vt 0.465834 0.812600
vt 0.461700 0.816734
vt 0.465834 0.812600
vt 0.461700 0.801607
vt 0.465834 0.797473
vt 0.461700 0.801607
vt 0.465834 0.797473
vt 0.446572 0.801607
vt 0.450706 0.797473
vt 0.446572 0.801607
vt 0.450706 0.797473
vt 0.450706 0.782345
vt 0.446572 0.786479
vt 0.446572 0.786479
vt 0.450706 0.782345
vt 0.480961 0.797473
vt 0.476828 0.801607
vt 0.461700 0.786479
vt 0.465834 0.782345
vt 0.465834 0.782345
vt 0.480961 0.797473
vt 0.476828 0.801607
vt 0.461700 0.786479
s 0
usemtl Palette
f 1/1/1 2/3/1 4/6/1 3/4/1
f 7/12/2 8/14/2 6/11/2 5/10/2
f 8/14/3 4/7/3 2/2/3 6/11/3
f 10/17/4 9/16/4 12/20/4 11/18/4
f 14/23/5 15/24/5 16/25/5 13/22/5
f 13/22/6 16/25/6 11/19/6 12/21/6
f 43/90/7 14/23/7 13/22/7 42/88/7
f 47/98/7 12/20/7 9/16/7 46/96/7
f 35/74/8 10/17/8 11/18/8 34/70/8
f 39/82/8 16/25/8 15/24/8 38/80/8
f 42/88/7 13/22/7 12/21/7 47/99/7
f 34/71/8 11/19/8 16/25/8 39/82/8
f 17/26/1 18/28/1 20/34/1 19/32/1
f 23/42/2 24/44/2 22/40/2 21/38/2
f 24/44/3 20/35/3 18/29/3 22/40/3
f 26/48/9 25/46/9 28/54/9 27/50/9
f 30/60/10 31/62/10 32/64/10 29/58/10
f 29/58/6 32/64/6 27/51/6 28/55/6
f 23/43/7 30/61/7 29/59/7 24/45/7
f 20/36/7 28/56/7 25/47/7 19/33/7
f 17/27/8 26/49/8 27/52/8 18/30/8
f 22/41/8 32/65/8 31/63/8 21/39/8
f 24/45/7 29/59/7 28/57/7 20/37/7
f 18/31/8 27/53/8 32/65/8 22/41/8
f 2/2/8 33/66/8 40/84/8 6/11/8
f 45/94/11 48/102/11 64/142/11 61/134/11
f 6/11/8 40/84/8 37/78/8 5/10/8
f 34/72/3 39/83/3 55/123/3 50/110/3
f 1/1/8 36/76/8 33/67/8 2/3/8
f 42/89/3 47/100/3 63/138/3 58/129/3
f 8/15/7 41/86/7 48/103/7 4/8/7
f 40/85/6 33/68/6 49/106/6 56/125/6
f 4/9/7 48/104/7 45/95/7 3/5/7
f 48/105/6 41/87/6 57/127/6 64/143/6
f 7/13/7 44/92/7 41/86/7 8/15/7
f 35/75/12 34/73/12 50/111/12 51/114/12
f 49/107/8 50/112/8 55/122/8 56/124/8
f 56/124/8 55/122/8 54/120/8 53/118/8
f 52/116/8 51/115/8 50/113/8 49/108/8
f 57/126/7 58/128/7 63/139/7 64/144/7
f 64/145/7 63/140/7 62/136/7 61/135/7
f 60/132/7 59/130/7 58/128/7 57/126/7
f 37/79/13 40/85/13 56/125/13 53/119/13
f 47/101/12 46/97/12 62/137/12 63/141/12
f 39/83/14 38/81/14 54/121/14 55/123/14
f 41/87/13 44/93/13 60/133/13 57/127/13
f 33/69/11 36/77/11 52/117/11 49/109/11
f 43/91/14 42/89/14 58/129/14 59/131/14
