# Blender 3.4.1
# www.blender.org
mtllib Door_1.mtl
o Door_1
v 0.000000 -0.004540 0.043539
v 0.000000 2.020341 0.043539
v -1.014519 -0.004540 0.043539
v -1.014519 2.020341 0.043539
v -0.501453 -0.004540 0.043539
v -0.501453 2.020341 0.043539
v -0.411844 0.081747 0.043539
v -0.411844 1.934054 0.043539
v -0.089610 1.934054 0.043539
v -0.089610 0.081747 0.043539
v -0.913297 0.081747 0.043539
v -0.913297 1.934054 0.043539
v -0.591063 1.934054 0.043539
v -0.591063 0.081747 0.043539
v -0.411844 1.934054 0.026295
v -0.411844 0.081747 0.026295
v -0.089610 0.081747 0.026295
v -0.089610 1.934054 0.026295
v -0.913297 1.934054 0.026295
v -0.913297 0.081747 0.026295
v -0.591063 0.081747 0.026295
v -0.591063 1.934054 0.026295
v -0.319355 0.170805 0.026295
v -0.319355 1.844996 0.026295
v -0.182098 1.844996 0.026295
v -0.182098 0.170805 0.026295
v -0.820809 0.170805 0.026295
v -0.820809 1.844996 0.026295
v -0.683551 1.844996 0.026295
v -0.683551 0.170805 0.026295
v -0.319355 1.844996 0.043072
v -0.319355 0.170805 0.043072
v -0.182098 0.170805 0.043072
v -0.182098 1.844996 0.043072
v -0.820809 1.844996 0.043072
v -0.820809 0.170805 0.043072
v -0.683551 0.170805 0.043072
v -0.683551 1.844996 0.043072
v 0.000000 -0.004540 -0.043539
v 0.000000 2.020341 -0.043539
v -1.014519 -0.004540 -0.043539
v -1.014519 2.020341 -0.043539
v -0.501453 -0.004540 -0.043539
v -0.501453 2.020341 -0.043539
v -0.411844 0.081747 -0.043539
v -0.411844 1.934054 -0.043539
v -0.089610 1.934054 -0.043539
v -0.089610 0.081747 -0.043539
v -0.913297 0.081747 -0.043539
v -0.913297 1.934054 -0.043539
v -0.591063 1.934054 -0.043539
v -0.591063 0.081747 -0.043539
v -0.411844 1.934054 -0.026295
v -0.411844 0.081747 -0.026295
v -0.089610 0.081747 -0.026295
v -0.089610 1.934054 -0.026295
v -0.913297 1.934054 -0.026295
v -0.913297 0.081747 -0.026295
v -0.591063 0.081747 -0.026295
v -0.591063 1.934054 -0.026295
v -0.319355 0.170805 -0.026295
v -0.319355 1.844996 -0.026295
v -0.182098 1.844996 -0.026295
v -0.182098 0.170805 -0.026295
v -0.820809 0.170805 -0.026295
v -0.820809 1.844996 -0.026295
v -0.683551 1.844996 -0.026295
v -0.683551 0.170805 -0.026295
v -0.319355 1.844996 -0.043072
v -0.319355 0.170805 -0.043072
v -0.182098 0.170805 -0.043072
v -0.182098 1.844996 -0.043072
v -0.820809 1.844996 -0.043072
v -0.820809 0.170805 -0.043072
v -0.683551 0.170805 -0.043072
v -0.683551 1.844996 -0.043072
vn 1.0000 -0.0000 -0.0000
vn -0.0000 -1.0000 -0.0000
vn -0.0000 1.0000 -0.0000
vn -1.0000 -0.0000 -0.0000
vn -0.0000 -0.0000 1.0000
vn -0.0000 -0.0000 -1.0000
vt 0.288200 0.768239
vt 0.280539 0.791222
vt 0.288200 0.798883
vt 0.295861 0.768239
vt 0.303523 0.791222
vt 0.295861 0.798883
vt 0.288200 0.791222
vt 0.295861 0.791222
vt 0.284370 0.791222
vt 0.288200 0.795053
vt 0.295861 0.795053
vt 0.299692 0.791222
vt 0.288527 0.795738
vt 0.295535 0.795737
vt 0.295535 0.798199
vt 0.288527 0.798199
vt 0.288527 0.791907
vt 0.295535 0.791907
vt 0.295535 0.794368
vt 0.288527 0.794369
vt 0.295535 0.795737
vt 0.295535 0.797378
vt 0.288527 0.795738
vt 0.288527 0.797378
vt 0.288527 0.798199
vt 0.288527 0.799839
vt 0.295535 0.798199
vt 0.295535 0.799839
vt 0.295535 0.791907
vt 0.295535 0.793547
vt 0.288527 0.791907
vt 0.288527 0.793548
vt 0.288527 0.794369
vt 0.288527 0.796009
vt 0.295535 0.794368
vt 0.295535 0.796009
vt 0.288864 0.798084
vt 0.288864 0.796444
vt 0.295198 0.798084
vt 0.295198 0.796444
vt 0.295198 0.799133
vt 0.295198 0.797492
vt 0.288864 0.799133
vt 0.288864 0.797493
vt 0.288864 0.794254
vt 0.288864 0.792614
vt 0.295198 0.794254
vt 0.295198 0.792613
vt 0.295198 0.795302
vt 0.295198 0.793662
vt 0.288864 0.795302
vt 0.288864 0.793662
vt 0.295198 0.796444
vt 0.288864 0.796444
vt 0.288864 0.797493
vt 0.295198 0.797492
vt 0.295198 0.792613
vt 0.288864 0.792614
vt 0.288864 0.793662
vt 0.295198 0.793662
vt 0.288200 0.768239
vt 0.280539 0.791222
vt 0.288200 0.798883
vt 0.295861 0.768239
vt 0.303523 0.791222
vt 0.295861 0.798883
vt 0.288200 0.791222
vt 0.295861 0.791222
vt 0.284370 0.791222
vt 0.288200 0.795053
vt 0.295861 0.795053
vt 0.299692 0.791222
vt 0.288527 0.795738
vt 0.295535 0.795737
vt 0.295535 0.798199
vt 0.288527 0.798199
vt 0.288527 0.791907
vt 0.295535 0.791907
vt 0.295535 0.794368
vt 0.288527 0.794369
vt 0.295535 0.795737
vt 0.295535 0.797378
vt 0.288527 0.795738
vt 0.288527 0.797378
vt 0.288527 0.798199
vt 0.288527 0.799839
vt 0.295535 0.798199
vt 0.295535 0.799839
vt 0.295535 0.791907
vt 0.295535 0.793547
vt 0.288527 0.791907
vt 0.288527 0.793548
vt 0.288527 0.794369
vt 0.288527 0.796009
vt 0.295535 0.794368
vt 0.295535 0.796009
vt 0.288864 0.798084
vt 0.288864 0.796444
vt 0.295198 0.798084
vt 0.295198 0.796444
vt 0.295198 0.799133
vt 0.295198 0.797492
vt 0.288864 0.799133
vt 0.288864 0.797493
vt 0.288864 0.794254
vt 0.288864 0.792614
vt 0.295198 0.794254
vt 0.295198 0.792613
vt 0.295198 0.795302
vt 0.295198 0.793662
vt 0.288864 0.795302
vt 0.288864 0.793662
vt 0.295198 0.796444
vt 0.288864 0.796444
vt 0.288864 0.797493
vt 0.295198 0.797492
vt 0.295198 0.792613
vt 0.288864 0.792614
vt 0.288864 0.793662
vt 0.295198 0.793662
s 0
usemtl Palette
f 39/61/1 40/64/1 2/4/1 1/1/1
f 7/13/1 16/23/1 15/21/1 8/14/1
f 3/7/2 41/67/2 43/69/2 5/9/2
f 2/5/3 40/65/3 44/72/3 6/12/3
f 5/9/2 43/69/2 39/62/2 1/2/2
f 4/8/4 42/68/4 41/67/4 3/7/4
f 13/19/4 22/35/4 21/33/4 14/20/4
f 5/10/5 7/13/5 8/14/5 6/11/5
f 6/11/5 8/14/5 9/15/5 2/6/5
f 2/6/5 9/15/5 10/16/5 1/3/5
f 1/3/5 10/16/5 7/13/5 5/10/5
f 3/7/5 11/17/5 12/18/5 4/8/5
f 4/8/5 12/18/5 13/19/5 6/11/5
f 6/11/5 13/19/5 14/20/5 5/10/5
f 5/10/5 14/20/5 11/17/5 3/7/5
f 25/42/1 34/56/1 33/55/1 26/44/1
f 30/52/2 37/59/2 36/58/2 27/46/2
f 14/20/3 21/33/3 20/31/3 11/17/3
f 9/15/4 18/27/4 17/25/4 10/16/4
f 10/16/3 17/25/3 16/23/3 7/13/3
f 12/18/2 19/29/2 22/35/2 13/19/2
f 11/17/1 20/31/1 19/29/1 12/18/1
f 8/14/2 15/21/2 18/27/2 9/15/2
f 16/24/5 23/37/5 24/39/5 15/22/5
f 15/22/5 24/39/5 25/41/5 18/28/5
f 18/28/5 25/41/5 26/43/5 17/26/5
f 17/26/5 26/43/5 23/37/5 16/24/5
f 20/32/5 27/45/5 28/47/5 19/30/5
f 19/30/5 28/47/5 29/49/5 22/36/5
f 22/36/5 29/49/5 30/51/5 21/34/5
f 21/34/5 30/51/5 27/45/5 20/32/5
f 32/54/5 33/55/5 34/56/5 31/53/5
f 36/58/5 37/59/5 38/60/5 35/57/5
f 26/44/2 33/55/2 32/54/2 23/38/2
f 28/48/3 35/57/3 38/60/3 29/50/3
f 27/46/4 36/58/4 35/57/4 28/48/4
f 24/40/3 31/53/3 34/56/3 25/42/3
f 29/50/1 38/60/1 37/59/1 30/52/1
f 23/38/4 32/54/4 31/53/4 24/40/4
f 45/73/1 46/74/1 53/81/1 54/83/1
f 51/79/4 52/80/4 59/93/4 60/95/4
f 43/70/6 44/71/6 46/74/6 45/73/6
f 44/71/6 40/66/6 47/75/6 46/74/6
f 40/66/6 39/63/6 48/76/6 47/75/6
f 39/63/6 43/70/6 45/73/6 48/76/6
f 41/67/6 42/68/6 50/78/6 49/77/6
f 42/68/6 44/71/6 51/79/6 50/78/6
f 44/71/6 43/70/6 52/80/6 51/79/6
f 43/70/6 41/67/6 49/77/6 52/80/6
f 63/102/1 64/104/1 71/115/1 72/116/1
f 68/112/2 65/106/2 74/118/2 75/119/2
f 52/80/3 49/77/3 58/91/3 59/93/3
f 47/75/4 48/76/4 55/85/4 56/87/4
f 48/76/3 45/73/3 54/83/3 55/85/3
f 50/78/2 51/79/2 60/95/2 57/89/2
f 49/77/1 50/78/1 57/89/1 58/91/1
f 46/74/2 47/75/2 56/87/2 53/81/2
f 54/84/6 53/82/6 62/99/6 61/97/6
f 53/82/6 56/88/6 63/101/6 62/99/6
f 56/88/6 55/86/6 64/103/6 63/101/6
f 55/86/6 54/84/6 61/97/6 64/103/6
f 58/92/6 57/90/6 66/107/6 65/105/6
f 57/90/6 60/96/6 67/109/6 66/107/6
f 60/96/6 59/94/6 68/111/6 67/109/6
f 59/94/6 58/92/6 65/105/6 68/111/6
f 70/114/6 69/113/6 72/116/6 71/115/6
f 74/118/6 73/117/6 76/120/6 75/119/6
f 64/104/2 61/98/2 70/114/2 71/115/2
f 66/108/3 67/110/3 76/120/3 73/117/3
f 65/106/4 66/108/4 73/117/4 74/118/4
f 62/100/3 63/102/3 72/116/3 69/113/3
f 67/110/1 68/112/1 75/119/1 76/120/1
f 61/98/4 62/100/4 69/113/4 70/114/4
f 6/12/3 44/72/3 42/68/3 4/8/3
