# Blender 3.4.1
# www.blender.org
mtllib Door_Handle_4.mtl
o Door_Handle_4
v -0.031624 0.137856 -0.041159
v 0.054713 0.137856 -0.041159
v 0.054713 -0.137856 -0.041159
v -0.031624 -0.137856 -0.041159
v 0.016947 -0.117782 -0.003549
v 0.016947 0.117782 -0.003549
v -0.016948 -0.117782 -0.003549
v -0.016948 0.117782 -0.003549
v -0.031624 -0.137856 -0.003549
v 0.031624 -0.137856 -0.003549
v 0.031624 0.137856 -0.003549
v -0.031624 0.137856 -0.003549
v -0.016948 -0.117782 -0.024520
v 0.016947 -0.117782 -0.024520
v 0.016947 0.117782 -0.024520
v -0.016948 0.117782 -0.024520
vn -0.0000 -1.0000 -0.0000
vn -0.0000 1.0000 -0.0000
vn 0.8522 -0.0000 0.5232
vn -1.0000 -0.0000 -0.0000
vn -0.0000 -0.0000 1.0000
vn 1.0000 -0.0000 -0.0000
vt 0.859842 0.964797
vt 0.859842 0.964797
vt 0.859842 0.964797
vt 0.859842 0.964797
vt 0.859842 0.964797
vt 0.560138 0.712631
vt 0.859842 0.964797
vt 0.560138 0.712632
vt 0.859842 0.964797
vt 0.560138 0.712632
vt 0.859842 0.964797
vt 0.560138 0.712631
vt 0.859842 0.964797
vt 0.859842 0.964797
vt 0.859842 0.964797
vt 0.859842 0.964797
vt 0.611811 0.716765
vt 0.560138 0.712632
vt 0.611811 0.716765
vt 0.560138 0.712631
vt 0.611811 0.716765
vt 0.560138 0.712632
vt 0.611811 0.716765
vt 0.560138 0.712631
s 0
usemtl Palette
f 10/14/1 9/13/1 4/4/1 3/3/1
f 12/16/2 11/15/2 2/2/2 1/1/2
f 11/15/3 10/14/3 3/3/3 2/2/3
f 9/13/4 12/16/4 1/1/4 4/4/4
f 5/6/2 14/20/2 13/18/2 7/10/2
f 7/9/5 9/13/5 10/14/5 5/5/5
f 6/7/5 11/15/5 12/16/5 8/11/5
f 5/5/5 10/14/5 11/15/5 6/7/5
f 8/11/5 12/16/5 9/13/5 7/9/5
f 14/19/5 15/21/5 16/23/5 13/17/5
f 7/10/6 13/18/6 16/24/6 8/12/6
f 8/12/1 16/24/1 15/22/1 6/8/1
f 6/8/4 15/22/4 14/20/4 5/6/4
