# Blender 3.4.1
# www.blender.org
mtllib Drawer_2__Old_.mtl
o Drawer_2_(Old)
v 0.500000 0.067316 -0.299910
v 0.500000 0.067316 0.299910
v 0.543192 1.847630 -0.305125
v 0.543192 1.847630 0.125333
v 0.460181 1.095489 -0.252298
v 0.460181 1.019540 -0.252298
v 0.460181 0.095489 -0.252298
v 0.460181 0.095489 0.299910
v 0.460181 1.095489 0.299910
v 0.460181 1.019540 0.299910
v 0.500000 1.019540 -0.299910
v 0.500000 1.095489 -0.299910
v 0.500000 1.019540 0.299910
v 0.500000 1.095489 0.299910
v 0.460181 0.417008 -0.252298
v 0.460181 0.398021 -0.252298
v 0.460181 0.398021 0.283895
v 0.460181 0.417008 0.283895
v 0.460181 0.769540 -0.252298
v 0.460181 0.845489 -0.252298
v 0.460181 1.760794 0.099910
v 0.500000 1.760794 0.099910
v 0.500000 1.760794 -0.299910
v 0.460181 1.760794 -0.252298
v 0.460181 1.095489 0.099910
v 0.500000 1.095489 0.099910
v 0.460181 0.845489 0.299910
v 0.460181 0.769540 0.299910
v 0.019199 0.845489 -0.258854
v 0.019199 1.019540 0.299910
v 0.019199 1.019540 -0.258854
v 0.019199 0.845489 0.299910
v 0.506698 1.111045 -0.308483
v 0.506698 1.077999 0.305947
v 0.506698 1.111045 0.305947
v 0.506698 1.077999 -0.308483
v 0.513066 1.090625 -0.316205
v 0.513066 1.090625 0.313669
v 0.510847 1.760794 0.108068
v 0.528112 1.778058 0.125333
v 0.528112 1.778058 -0.305125
v 0.510847 1.760794 -0.305125
v 0.509190 0.067316 -0.306993
v 0.509190 0.067316 0.306993
v 0.503416 0.046165 -0.300011
v 0.503416 0.046165 0.300011
v 0.478919 0.046165 0.241215
v 0.478919 0.046165 0.273161
v 0.447872 0.046165 0.241215
v 0.447872 0.046165 0.273161
v 0.478919 0.012693 0.241215
v 0.478919 0.012693 0.273161
v 0.447872 0.012693 0.241215
v 0.447872 0.012693 0.273161
v 0.478919 0.046165 -0.271268
v 0.478919 0.046165 -0.239322
v 0.447872 0.046165 -0.271268
v 0.447872 0.046165 -0.239322
v 0.478919 0.012693 -0.271268
v 0.478919 0.012693 -0.239322
v 0.447872 0.012693 -0.271268
v 0.447872 0.012693 -0.239322
v 0.512079 0.056740 0.310487
v 0.512079 0.056740 -0.310487
v 0.562327 1.859796 -0.318187
v 0.562327 1.859796 0.144138
v 0.550322 1.821364 0.144138
v 0.562327 1.833369 0.144138
v 0.562327 1.833369 -0.318187
v 0.550322 1.821364 -0.318187
v 0.475331 1.426475 -0.252298
v 0.475331 1.426475 0.092820
v 0.475331 1.443407 -0.252298
v 0.475331 1.443407 0.092820
v -0.500000 0.067316 -0.299910
v -0.500000 0.067316 0.299910
v -0.543192 1.847630 -0.305125
v -0.543192 1.847630 0.125333
v 0.000000 0.067316 -0.299910
v -0.460181 1.095489 -0.252298
v -0.460181 1.019540 -0.252298
v -0.460181 0.095489 -0.252298
v -0.460181 0.095489 0.299910
v -0.460181 1.095489 0.299910
v -0.460181 1.019540 0.299910
v -0.500000 1.019540 -0.299910
v -0.500000 1.095489 -0.299910
v -0.500000 1.019540 0.299910
v -0.500000 1.095489 0.299910
v 0.000000 1.019540 -0.299910
v 0.000000 1.095489 -0.299910
v -0.460181 0.417008 -0.252298
v -0.460181 0.398021 -0.252298
v -0.460181 0.398021 0.283895
v -0.460181 0.417008 0.283895
v -0.460181 0.769540 -0.252298
v -0.460181 0.845489 -0.252298
v -0.460181 1.760794 0.099910
v -0.500000 1.760794 0.099910
v -0.500000 1.760794 -0.299910
v 0.000000 1.760794 -0.299910
v -0.460181 1.760794 -0.252298
v -0.460181 1.095489 0.099910
v -0.500000 1.095489 0.099910
v -0.460181 0.845489 0.299910
v -0.460181 0.769540 0.299910
v -0.019199 0.845489 -0.258854
v -0.019199 1.019540 0.299910
v -0.019199 1.019540 -0.258854
v -0.019199 0.845489 0.299910
v -0.506698 1.111045 -0.308483
v -0.506698 1.077999 0.305947
v -0.506698 1.111045 0.305947
v -0.506698 1.077999 -0.308483
v -0.513066 1.090625 -0.316205
v -0.513066 1.090625 0.313669
v -0.510847 1.760794 0.108068
v -0.528112 1.778058 0.125333
v -0.528112 1.778058 -0.305125
v -0.510847 1.760794 -0.305125
v -0.509190 0.067316 -0.306993
v -0.509190 0.067316 0.306993
v -0.503416 0.046165 -0.300011
v -0.503416 0.046165 0.300011
v -0.478919 0.046165 0.241215
v -0.478919 0.046165 0.273161
v -0.447872 0.046165 0.241215
v -0.447872 0.046165 0.273161
v -0.478919 0.012693 0.241215
v -0.478919 0.012693 0.273161
v -0.447872 0.012693 0.241215
v -0.447872 0.012693 0.273161
v -0.478919 0.046165 -0.271268
v -0.478919 0.046165 -0.239322
v -0.447872 0.046165 -0.271268
v -0.447872 0.046165 -0.239322
v -0.478919 0.012693 -0.271268
v -0.478919 0.012693 -0.239322
v -0.447872 0.012693 -0.271268
v -0.447872 0.012693 -0.239322
v -0.512079 0.056740 0.310487
v -0.512079 0.056740 -0.310487
v -0.562327 1.859796 -0.318187
v -0.562327 1.859796 0.144138
v -0.550322 1.821364 0.144138
v -0.562327 1.833369 0.144138
v -0.562327 1.833369 -0.318187
v -0.550322 1.821364 -0.318187
v -0.475331 1.426475 -0.252298
v -0.475331 1.426475 0.092820
v -0.475331 1.443407 -0.252298
v -0.475331 1.443407 0.092820
vn -0.0000 -0.0000 -1.0000
vn -0.0000 -0.0000 1.0000
vn 0.9773 -0.2118 -0.0000
vn -0.0000 1.0000 -0.0000
vn -0.0000 -1.0000 -0.0000
vn 1.0000 -0.0000 -0.0000
vn -1.0000 -0.0000 -0.0000
vn -0.0000 0.3537 0.9354
vn -0.0000 -0.5217 -0.8531
vn -0.0000 0.3537 -0.9354
vn 0.8929 -0.4503 -0.0000
vn 0.9547 0.2977 -0.0000
vn -0.0000 -0.7071 0.7071
vn -0.0000 -0.5217 0.8531
vn 0.7071 -0.7071 -0.0000
vn -0.0000 -0.7037 0.7105
vn 0.7736 -0.6337 -0.0000
vn -0.0000 0.3137 -0.9495
vn -0.0000 0.3137 0.9495
vn -0.0000 -0.7037 -0.7105
vn 0.9647 0.2635 -0.0000
vn -0.9773 -0.2118 -0.0000
vn -0.8929 -0.4503 -0.0000
vn -0.9547 0.2977 -0.0000
vn -0.7071 -0.7071 -0.0000
vn -0.7736 -0.6337 -0.0000
vn -0.9647 0.2635 -0.0000
vt 0.871383 0.958539
vt 0.871383 0.973705
vt 0.886549 0.958539
vt 0.886549 0.973705
vt 0.881249 0.956472
vt 0.881249 0.956472
vt 0.881249 0.956472
vt 0.870779 0.973705
vt 0.881249 0.972860
vt 0.881249 0.972860
vt 0.870779 0.973705
vt 0.870779 0.973705
vt 0.881249 0.972860
vt 0.871383 0.958539
vt 0.871383 0.958539
vt 0.871383 0.973705
vt 0.871383 0.973705
vt 0.881249 0.956472
vt 0.881249 0.956472
vt 0.881249 0.972860
vt 0.870779 0.973705
vt 0.870779 0.973705
vt 0.881249 0.972860
vt 0.881249 0.956472
vt 0.881249 0.956472
vt 0.881249 0.967471
vt 0.874222 0.968038
vt 0.871383 0.969004
vt 0.871383 0.958539
vt 0.881249 0.956472
vt 0.881249 0.967471
vt 0.874222 0.968038
vt 0.871383 0.969004
vt 0.870779 0.973704
vt 0.881249 0.972860
vt 0.870779 0.973704
vt 0.881249 0.972860
vt 0.871383 0.958539
vt 0.871383 0.969004
vt 0.871383 0.958539
vt 0.871383 0.969004
vt 0.886549 0.958539
vt 0.946444 0.955934
vt 0.886411 0.973705
vt 0.946307 0.971100
vt 0.886549 0.973705
vt 0.946444 0.971100
vt 0.886411 0.973705
vt 0.946307 0.971100
vt 0.946376 0.963517
vt 0.946376 0.971100
vt 0.886616 0.973704
vt 0.886438 0.973705
vt 0.886438 0.970689
vt 0.886616 0.973705
vt 0.962528 0.948122
vt 0.962528 0.963288
vt 0.962528 0.948122
vt 0.962528 0.963288
vt 0.871383 0.958539
vt 0.871383 0.973705
vt 0.863800 0.958539
vt 0.863800 0.973705
vt 0.871383 0.958539
vt 0.871383 0.973705
vt 0.863800 0.958539
vt 0.863800 0.973705
vt 0.871383 0.958539
vt 0.871383 0.973705
vt 0.863800 0.958539
vt 0.863800 0.973705
vt 0.871383 0.958539
vt 0.871383 0.973705
vt 0.863800 0.958539
vt 0.863800 0.973705
vt 0.962528 0.963288
vt 0.962528 0.948122
vt 0.956242 0.953330
vt 0.958846 0.953330
vt 0.956242 0.968496
vt 0.958846 0.968496
vt 0.956274 0.968496
vt 0.956166 0.968496
vt 0.956166 0.961685
vt 0.956309 0.968496
vt 0.956274 0.965545
vt 0.945857 0.955129
vt 0.886549 0.958539
vt 0.886549 0.973705
vt 0.886549 0.958539
vt 0.886549 0.973705
vt 0.871383 0.958539
vt 0.871383 0.973705
vt 0.886549 0.958539
vt 0.886549 0.973705
vt 0.863800 0.958539
vt 0.881249 0.956472
vt 0.881249 0.956472
vt 0.881249 0.956472
vt 0.870779 0.973705
vt 0.881249 0.972860
vt 0.881249 0.972860
vt 0.870779 0.973705
vt 0.870779 0.973705
vt 0.881249 0.972860
vt 0.871383 0.958539
vt 0.871383 0.958539
vt 0.871383 0.973705
vt 0.871383 0.973705
vt 0.863800 0.958539
vt 0.863800 0.958539
vt 0.881249 0.956472
vt 0.881249 0.956472
vt 0.881249 0.972860
vt 0.870779 0.973705
vt 0.870779 0.973705
vt 0.881249 0.972860
vt 0.881249 0.956472
vt 0.881249 0.956472
vt 0.881249 0.967471
vt 0.874222 0.968038
vt 0.871383 0.969004
vt 0.871383 0.958539
vt 0.863800 0.958539
vt 0.881249 0.956472
vt 0.881249 0.967471
vt 0.874222 0.968038
vt 0.871383 0.969004
vt 0.870779 0.973704
vt 0.881249 0.972860
vt 0.870779 0.973704
vt 0.881249 0.972860
vt 0.871383 0.958539
vt 0.871383 0.969004
vt 0.871383 0.958539
vt 0.871383 0.969004
vt 0.886549 0.958539
vt 0.946444 0.955934
vt 0.886411 0.973705
vt 0.946307 0.971100
vt 0.886549 0.973705
vt 0.946444 0.971100
vt 0.886411 0.973705
vt 0.946307 0.971100
vt 0.946376 0.963517
vt 0.946376 0.971100
vt 0.886616 0.973704
vt 0.886438 0.973705
vt 0.886438 0.970689
vt 0.886616 0.973705
vt 0.962528 0.948122
vt 0.962528 0.963288
vt 0.962528 0.948122
vt 0.962528 0.963288
vt 0.871383 0.958539
vt 0.871383 0.973705
vt 0.863800 0.958539
vt 0.863800 0.973705
vt 0.871383 0.958539
vt 0.871383 0.973705
vt 0.863800 0.958539
vt 0.863800 0.973705
vt 0.871383 0.958539
vt 0.871383 0.973705
vt 0.863800 0.958539
vt 0.863800 0.973705
vt 0.871383 0.958539
vt 0.871383 0.973705
vt 0.863800 0.958539
vt 0.863800 0.973705
vt 0.962528 0.963288
vt 0.962528 0.948122
vt 0.956242 0.953330
vt 0.958846 0.953330
vt 0.956242 0.968496
vt 0.958846 0.968496
vt 0.945857 0.958080
vt 0.956274 0.968496
vt 0.956166 0.968496
vt 0.956166 0.961685
vt 0.956309 0.968496
vt 0.965159 0.969571
vt 0.956274 0.965545
vt 0.886549 0.958539
vt 0.886549 0.973705
vt 0.886549 0.958539
vt 0.886549 0.973705
s 0
usemtl Palette
f 42/55/1 120/150/1 119/149/1 77/94/1 3/3/1 41/54/1
f 84/103/2 85/104/2 10/12/2 9/11/2
f 3/3/3 4/4/3 40/53/3 41/54/3
f 76/93/2 2/2/2 8/8/2 83/100/2
f 83/101/4 8/9/4 7/7/4 82/99/4
f 111/137/4 113/141/4 35/46/4 33/42/4
f 1/1/1 79/96/1 90/110/1 11/14/1
f 84/102/4 9/10/4 25/31/4 103/126/4
f 17/20/5 94/114/5 93/113/5 16/19/5
f 2/2/6 1/1/6 11/14/6 13/16/6
f 90/110/1 91/111/1 12/15/1 11/14/1
f 10/12/2 8/8/2 2/2/2 13/16/2
f 11/14/6 12/15/6 26/33/6 13/16/6
f 10/12/2 13/16/2 14/17/2 9/11/2
f 10/13/5 85/105/5 81/98/5 6/6/5
f 95/116/2 94/115/2 17/21/2 18/22/2
f 95/117/4 18/23/4 15/18/4 92/112/4
f 24/30/2 102/125/2 80/97/2 5/5/2
f 9/11/4 14/17/4 26/33/4 25/32/4
f 5/5/4 80/97/4 103/126/4 25/31/4
f 43/56/4 121/151/4 122/152/4 44/57/4
f 5/5/7 25/31/7 21/26/7 24/30/7
f 12/15/1 91/111/1 101/124/1 23/29/1
f 26/33/6 12/15/6 23/29/6 22/28/6
f 13/16/6 26/33/6 14/17/6
f 25/32/2 26/33/2 22/28/2 21/27/2
f 105/129/2 106/131/2 28/36/2 27/34/2
f 28/37/5 106/132/5 96/118/5 19/24/5
f 6/6/2 81/98/2 82/99/2 7/7/2
f 105/130/4 27/35/4 20/25/4 97/119/4
f 6/6/7 7/7/7 8/9/7 10/13/7
f 32/41/6 29/38/6 31/40/6 30/39/6
f 35/47/8 113/142/8 116/146/8 38/51/8
f 36/49/9 114/144/9 115/145/9 37/50/9
f 37/50/10 115/145/10 111/138/10 33/43/10
f 112/139/5 114/143/5 36/48/5 34/44/5
f 37/50/11 38/51/11 34/45/11 36/49/11
f 33/43/12 35/47/12 38/51/12 37/50/12
f 118/148/13 117/147/13 39/52/13 40/53/13
f 38/51/14 116/146/14 112/140/14 34/45/14
f 4/4/2 78/95/2 118/148/2 40/53/2
f 39/52/15 42/55/15 41/54/15 40/53/15
f 117/147/5 120/150/5 42/55/5 39/52/5
f 46/59/5 124/154/5 123/153/5 45/58/5
f 141/171/16 124/154/16 46/59/16 63/76/16
f 64/77/17 63/76/17 46/59/17 45/58/17
f 64/77/18 142/172/18 121/151/18 43/56/18
f 149/184/5 71/88/5 72/89/5 150/185/5
f 49/62/4 50/63/4 48/61/4 47/60/4
f 53/66/5 51/64/5 52/65/5 54/67/5
f 48/61/2 50/63/2 54/67/2 52/65/2
f 49/62/1 47/60/1 51/64/1 53/66/1
f 50/63/7 49/62/7 53/66/7 54/67/7
f 47/60/6 48/61/6 52/65/6 51/64/6
f 57/70/4 58/71/4 56/69/4 55/68/4
f 61/74/5 59/72/5 60/73/5 62/75/5
f 56/69/2 58/71/2 62/75/2 60/73/2
f 57/70/1 55/68/1 59/72/1 61/74/1
f 58/71/7 57/70/7 61/74/7 62/75/7
f 55/68/6 56/69/6 60/73/6 59/72/6
f 122/152/19 141/171/19 63/76/19 44/57/19
f 45/58/20 123/153/20 142/172/20 64/77/20
f 43/56/21 44/57/21 63/76/21 64/77/21
f 70/85/1 148/181/1 147/180/1 143/173/1 65/78/1 69/84/1
f 66/80/2 144/175/2 146/179/2 145/177/2 67/82/2 68/83/2
f 65/78/6 66/80/6 68/83/6 69/84/6
f 69/84/15 68/83/15 67/82/15 70/86/15
f 67/82/5 145/177/5 148/182/5 70/87/5
f 151/186/4 152/187/4 74/91/4 73/90/4
f 74/91/2 152/187/2 150/185/2 72/89/2
f 77/94/22 119/149/22 118/148/22 78/95/22
f 75/92/1 86/106/1 90/110/1 79/96/1
f 76/93/7 88/108/7 86/106/7 75/92/7
f 90/110/1 86/106/1 87/107/1 91/111/1
f 85/104/2 88/108/2 76/93/2 83/100/2
f 86/106/7 88/108/7 104/128/7 87/107/7
f 85/104/2 84/103/2 89/109/2 88/108/2
f 84/103/4 103/127/4 104/128/4 89/109/4
f 80/97/6 102/125/6 98/120/6 103/126/6
f 87/107/1 100/123/1 101/124/1 91/111/1
f 104/128/7 99/122/7 100/123/7 87/107/7
f 88/108/7 89/109/7 104/128/7
f 103/127/2 98/121/2 99/122/2 104/128/2
f 81/98/6 85/105/6 83/101/6 82/99/6
f 110/136/7 108/134/7 109/135/7 107/133/7
f 115/145/23 114/144/23 112/140/23 116/146/23
f 111/138/24 115/145/24 116/146/24 113/142/24
f 117/147/25 118/148/25 119/149/25 120/150/25
f 142/172/26 123/153/26 124/154/26 141/171/26
f 127/157/4 125/155/4 126/156/4 128/158/4
f 131/161/5 132/162/5 130/160/5 129/159/5
f 126/156/2 130/160/2 132/162/2 128/158/2
f 127/157/1 131/161/1 129/159/1 125/155/1
f 128/158/6 132/162/6 131/161/6 127/157/6
f 125/155/7 129/159/7 130/160/7 126/156/7
f 135/165/4 133/163/4 134/164/4 136/166/4
f 139/169/5 140/170/5 138/168/5 137/167/5
f 134/164/2 138/168/2 140/170/2 136/166/2
f 135/165/1 139/169/1 137/167/1 133/163/1
f 136/166/6 140/170/6 139/169/6 135/165/6
f 133/163/7 137/167/7 138/168/7 134/164/7
f 121/151/27 142/172/27 141/171/27 122/152/27
f 143/173/7 147/180/7 146/179/7 144/175/7
f 147/180/25 148/183/25 145/178/25 146/179/25
f 77/94/4 78/95/4 4/4/4 3/3/4
f 143/174/4 144/176/4 66/81/4 65/79/4
f 30/39/2 108/134/2 110/136/2 32/41/2
