# Blender 3.4.1
# www.blender.org
mtllib Drawer_1__Small_.mtl
o Drawer_1_(Small)
v 0.500000 0.012693 -0.299910
v 0.500000 0.012693 0.299910
v 0.500000 1.808236 -0.299910
v 0.500000 1.760794 0.099910
v 0.500000 1.808236 0.099910
v 0.500000 1.760794 -0.299910
v 0.460181 1.095489 -0.252298
v 0.460181 0.845489 -0.252298
v 0.460181 1.019540 -0.252298
v 0.460181 0.769540 -0.252298
v 0.460181 0.095489 -0.252298
v 0.460181 0.095489 0.299910
v 0.460181 1.095489 0.299910
v 0.460181 0.845489 0.299910
v 0.460181 0.769540 0.299910
v 0.460181 1.019540 0.299910
v 0.500000 0.769540 -0.299910
v 0.500000 0.845489 -0.299910
v 0.500000 1.019540 -0.299910
v 0.500000 1.095489 -0.299910
v 0.500000 0.769540 0.299910
v 0.500000 0.845489 0.299910
v 0.500000 1.019540 0.299910
v 0.500000 1.095489 0.299910
v 0.460181 0.417008 -0.252298
v 0.460181 0.398021 -0.252298
v 0.460181 0.398021 0.283895
v 0.460181 0.417008 0.283895
v 0.500000 1.095489 -0.299910
v 0.460181 1.095489 -0.299910
v 0.460181 1.095489 0.099910
v 0.500000 1.095489 0.099910
v 0.500000 1.760794 0.099910
v 0.460181 1.760794 0.099910
v 0.460181 1.760794 -0.299910
v 0.500000 1.760794 -0.299910
v -0.500000 0.012693 -0.299910
v -0.500000 0.012693 0.299910
v -0.500000 1.808236 -0.299910
v -0.500000 1.760794 0.099910
v -0.500000 1.808236 0.099910
v -0.500000 1.760794 -0.299910
v -0.460181 1.095489 -0.252298
v -0.460181 0.845489 -0.252298
v -0.460181 1.019540 -0.252298
v -0.460181 0.769540 -0.252298
v -0.460181 0.095489 -0.252298
v -0.460181 0.095489 0.299910
v -0.460181 1.095489 0.299910
v -0.460181 0.845489 0.299910
v -0.460181 0.769540 0.299910
v -0.460181 1.019540 0.299910
v -0.500000 0.769540 -0.299910
v -0.500000 0.845489 -0.299910
v -0.500000 1.019540 -0.299910
v -0.500000 1.095489 -0.299910
v -0.500000 0.769540 0.299910
v -0.500000 0.845489 0.299910
v -0.500000 1.019540 0.299910
v -0.500000 1.095489 0.299910
v -0.460181 0.417008 -0.252298
v -0.460181 0.398021 -0.252298
v -0.460181 0.398021 0.283895
v -0.460181 0.417008 0.283895
v -0.500000 1.095489 -0.299910
v -0.460181 1.095489 -0.299910
v -0.460181 1.095489 0.099910
v -0.500000 1.095489 0.099910
v -0.500000 1.760794 0.099910
v -0.460181 1.760794 0.099910
v -0.460181 1.760794 -0.299910
v -0.500000 1.760794 -0.299910
vn -0.0000 1.0000 -0.0000
vn -0.0000 -0.0000 1.0000
vn -0.0000 -0.0000 -1.0000
vn -0.0000 -1.0000 -0.0000
vn -1.0000 -0.0000 -0.0000
vn 1.0000 -0.0000 -0.0000
vt 0.283399 0.786228
vt 0.283399 0.801394
vt 0.298565 0.786228
vt 0.298427 0.801394
vt 0.298565 0.801394
vt 0.298427 0.801394
vt 0.293266 0.784161
vt 0.293266 0.784161
vt 0.293266 0.784161
vt 0.293266 0.784161
vt 0.293266 0.784161
vt 0.293266 0.800549
vt 0.282795 0.801394
vt 0.293266 0.800549
vt 0.282795 0.801394
vt 0.293266 0.800549
vt 0.282795 0.801394
vt 0.293266 0.800549
vt 0.282795 0.801394
vt 0.293266 0.800549
vt 0.282795 0.801394
vt 0.283399 0.786228
vt 0.283399 0.786228
vt 0.283399 0.786228
vt 0.283399 0.786228
vt 0.283399 0.801394
vt 0.283399 0.801394
vt 0.283399 0.801394
vt 0.283399 0.801394
vt 0.293266 0.784161
vt 0.293266 0.784161
vt 0.293266 0.800549
vt 0.282795 0.801394
vt 0.282795 0.801394
vt 0.293266 0.800549
vt 0.283399 0.786228
vt 0.293266 0.784161
vt 0.293266 0.800549
vt 0.283399 0.801394
vt 0.283399 0.801394
vt 0.293266 0.800549
vt 0.293266 0.784161
vt 0.283399 0.786228
vt 0.283399 0.786228
vt 0.283399 0.801394
vt 0.298565 0.786228
vt 0.298427 0.801394
vt 0.298565 0.801394
vt 0.298427 0.801394
vt 0.293266 0.784161
vt 0.293266 0.784161
vt 0.293266 0.784161
vt 0.293266 0.784161
vt 0.293266 0.784161
vt 0.293266 0.800549
vt 0.282795 0.801394
vt 0.293266 0.800549
vt 0.282795 0.801394
vt 0.293266 0.800549
vt 0.282795 0.801394
vt 0.293266 0.800549
vt 0.282795 0.801394
vt 0.293266 0.800549
vt 0.282795 0.801394
vt 0.283399 0.786228
vt 0.283399 0.786228
vt 0.283399 0.786228
vt 0.283399 0.786228
vt 0.283399 0.801394
vt 0.283399 0.801394
vt 0.283399 0.801394
vt 0.283399 0.801394
vt 0.293266 0.784161
vt 0.293266 0.784161
vt 0.293266 0.800549
vt 0.282795 0.801394
vt 0.282795 0.801394
vt 0.293266 0.800549
vt 0.283399 0.786228
vt 0.293266 0.784161
vt 0.293266 0.800549
vt 0.283399 0.801394
vt 0.283399 0.801394
vt 0.293266 0.800549
vt 0.293266 0.784161
vt 0.283399 0.786228
s 0
usemtl Palette
f 48/55/1 12/12/1 11/11/1 47/54/1
f 49/58/2 52/64/2 16/21/2 13/15/2
f 6/6/3 42/49/3 39/46/3 3/3/3
f 2/2/4 38/45/4 37/44/4 1/1/4
f 16/20/4 52/63/4 45/52/4 9/9/4
f 15/18/4 51/61/4 46/53/4 10/10/4
f 5/5/2 41/48/2 40/47/2 4/4/2
f 40/47/4 42/49/4 6/6/4 4/4/4
f 9/9/5 8/8/5 14/16/5 16/20/5
f 50/59/1 14/16/1 8/8/1 44/51/1
f 38/45/2 2/2/2 12/13/2 48/56/2
f 49/57/1 13/14/1 7/7/1 43/50/1
f 17/22/3 53/65/3 54/66/3 18/23/3
f 18/23/3 54/66/3 55/67/3 19/24/3
f 19/24/3 55/67/3 56/68/3 20/25/3
f 27/32/4 63/75/4 62/74/4 26/31/4
f 17/22/6 18/23/6 22/27/6 21/26/6
f 18/23/6 19/24/6 23/28/6 22/27/6
f 19/24/6 20/25/6 24/29/6 23/28/6
f 15/19/2 21/26/2 22/27/2 14/17/2
f 22/27/2 23/28/2 16/21/2 14/17/2
f 9/9/2 45/52/2 44/51/2 8/8/2
f 16/21/2 23/28/2 24/29/2 13/15/2
f 50/60/2 51/62/2 15/19/2 14/17/2
f 64/77/2 63/76/2 27/33/2 28/34/2
f 64/78/1 28/35/1 25/30/1 61/73/1
f 10/10/2 46/53/2 47/54/2 11/11/2
f 15/18/5 10/10/5 11/11/5 12/12/5
f 2/2/6 1/1/6 17/22/6 21/26/6
f 15/19/2 12/13/2 2/2/2 21/26/2
f 43/50/1 7/7/1 20/25/1 56/68/1
f 37/44/3 53/65/3 17/22/3 1/1/3
f 13/15/1 24/29/1 20/25/1 7/7/1
f 3/3/6 5/5/6 4/4/6 6/6/6
f 29/36/3 30/37/3 35/42/3 36/43/3
f 31/38/2 32/39/2 33/40/2 34/41/2
f 32/39/6 29/36/6 36/43/6 33/40/6
f 30/37/5 31/38/5 34/41/5 35/42/5
f 45/52/6 52/63/6 50/59/6 44/51/6
f 53/65/5 57/69/5 58/70/5 54/66/5
f 54/66/5 58/70/5 59/71/5 55/67/5
f 55/67/5 59/71/5 60/72/5 56/68/5
f 51/62/2 50/60/2 58/70/2 57/69/2
f 58/70/2 50/60/2 52/64/2 59/71/2
f 52/64/2 49/58/2 60/72/2 59/71/2
f 51/61/6 48/55/6 47/54/6 46/53/6
f 38/45/5 57/69/5 53/65/5 37/44/5
f 51/62/2 57/69/2 38/45/2 48/56/2
f 49/58/1 43/50/1 56/68/1 60/72/1
f 39/46/5 42/49/5 40/47/5 41/48/5
f 65/79/3 72/86/3 71/85/3 66/80/3
f 67/81/2 70/84/2 69/83/2 68/82/2
f 68/82/5 69/83/5 72/86/5 65/79/5
f 66/80/6 71/85/6 70/84/6 67/81/6
f 39/46/1 41/48/1 5/5/1 3/3/1
