# Blender 3.4.1
# www.blender.org
mtllib Drawer_Door_3__Old_.mtl
o Drawer_Door_3_(Old)
v 0.004223 0.046625 -0.035422
v -0.463041 0.046625 -0.035422
v 0.004223 0.784808 -0.035422
v -0.463041 0.784808 -0.035422
v 0.004223 0.046625 0.013687
v 0.004223 0.784808 0.013687
v -0.463041 0.046625 0.013687
v -0.463041 0.784808 0.013687
v -0.229409 0.046625 0.013687
v -0.229409 0.784808 0.013687
v -0.258785 0.755432 0.013687
v -0.433666 0.755432 0.013687
v -0.433666 0.089272 0.013687
v -0.258785 0.089272 0.013687
v -0.025152 0.755432 0.013687
v -0.200034 0.755432 0.013687
v -0.200034 0.089272 0.013687
v -0.025152 0.089272 0.013687
v -0.258785 0.755432 0.023046
v -0.433666 0.755432 0.023046
v -0.258785 0.089272 0.023046
v -0.433666 0.089272 0.023046
v -0.025152 0.755432 0.023046
v -0.200034 0.755432 0.023046
v -0.025152 0.089272 0.023046
v -0.200034 0.089272 0.023046
v -0.397309 0.380578 0.023046
v -0.295142 0.380578 0.023046
v -0.163677 0.380578 0.023046
v -0.061509 0.380578 0.023046
v -0.295142 0.380578 0.011735
v -0.397309 0.380578 0.011735
v -0.061509 0.380578 0.011735
v -0.163677 0.380578 0.011735
v 0.013095 0.041153 -0.043800
v -0.471914 0.041153 -0.043800
v 0.013095 0.041153 0.022215
v -0.471914 0.041153 0.022215
v -0.471914 0.060098 -0.043800
v -0.471914 0.060098 0.022215
v 0.013095 0.060098 -0.043800
v 0.013095 0.060098 0.022215
v -0.404798 0.643038 0.055192
v -0.423172 0.643038 0.055192
v -0.404798 0.622328 0.055192
v -0.423172 0.622328 0.055192
v -0.404798 0.643038 -0.002058
v -0.423172 0.643038 -0.002058
v -0.404798 0.622328 -0.002058
v -0.423172 0.622328 -0.002058
v -0.398525 0.672459 0.061431
v -0.429444 0.672459 0.061431
v -0.398525 0.493471 0.061431
v -0.429444 0.493471 0.061431
v -0.398525 0.636661 0.067447
v -0.398525 0.600864 0.069848
v -0.398525 0.565066 0.061280
v -0.398525 0.529269 0.053334
v -0.429444 0.529269 0.053334
v -0.429444 0.565066 0.061280
v -0.429444 0.600864 0.069848
v -0.429444 0.636661 0.067447
v -0.400229 0.662564 0.045595
v -0.427740 0.662564 0.045595
v -0.400229 0.535155 0.038390
v -0.400229 0.503303 0.045595
v -0.427740 0.630712 0.050948
v -0.427740 0.503303 0.045595
v -0.400229 0.630712 0.050948
v -0.400229 0.598860 0.053084
v -0.400229 0.567007 0.045460
v -0.427740 0.535155 0.038390
v -0.427740 0.567008 0.045460
v -0.427740 0.598860 0.053084
v -0.303774 0.713524 0.023046
v -0.295142 0.704892 0.023046
v -0.289485 0.720044 0.023046
v -0.397309 0.704892 0.023046
v -0.388677 0.713524 0.023046
v -0.402966 0.720044 0.023046
v -0.070141 0.713524 0.023046
v -0.061509 0.704892 0.023046
v -0.055853 0.720044 0.023046
v -0.163677 0.704892 0.023046
v -0.155045 0.713524 0.023046
v -0.169333 0.720044 0.023046
v -0.295142 0.704892 0.011735
v -0.303774 0.713524 0.011735
v -0.388677 0.713524 0.011735
v -0.397309 0.704892 0.011735
v -0.061509 0.704892 0.011735
v -0.070141 0.713524 0.011735
v -0.155045 0.713524 0.011735
v -0.163677 0.704892 0.011735
vn -0.0000 1.0000 -0.0000
vn -0.0000 -0.0000 -1.0000
vn 1.0000 -0.0000 -0.0000
vn -1.0000 -0.0000 -0.0000
vn -0.0000 -0.0000 1.0000
vn -0.0000 -1.0000 -0.0000
vn 0.8017 -0.0049 0.5977
vn -0.8017 -0.0049 0.5977
vn -0.5702 -0.6731 0.4709
vn 0.5702 -0.6731 0.4709
vn 0.5844 0.7442 0.3236
vn -0.5844 0.7442 0.3236
vn -0.7298 0.0791 0.6791
vn 0.7298 0.0791 0.6791
vn -0.7084 -0.0604 0.7032
vn 0.7084 -0.0604 0.7032
vn -0.7459 -0.1497 0.6490
vn 0.7459 -0.1497 0.6490
vn 0.6236 0.0015 -0.7817
vn 0.5810 -0.4557 -0.6744
vn -0.5810 -0.4557 -0.6744
vn -0.6236 0.0015 -0.7817
vn 0.5653 0.3236 -0.7588
vn 0.6818 -0.0847 -0.7266
vn -0.6818 -0.0847 -0.7266
vn -0.5653 0.3236 -0.7588
vn 0.7033 0.0613 -0.7083
vn -0.7033 0.0613 -0.7083
vn 0.6665 0.1675 -0.7264
vn -0.6665 0.1675 -0.7264
vn -0.7071 -0.7071 -0.0000
vn 0.7071 -0.7071 -0.0000
vt 0.554613 0.702030
vt 0.962692 0.960060
vt 0.550071 0.702030
vt 0.958150 0.960060
vt 0.554613 0.702030
vt 0.962692 0.960060
vt 0.550071 0.702030
vt 0.958150 0.960060
vt 0.962692 0.976448
vt 0.952221 0.977293
vt 0.962692 0.976448
vt 0.952221 0.977293
vt 0.945242 0.977293
vt 0.958150 0.976448
vt 0.945242 0.977293
vt 0.948732 0.977293
vt 0.960421 0.976448
vt 0.948732 0.977293
vt 0.948293 0.977293
vt 0.540214 0.719263
vt 0.945681 0.977293
vt 0.537602 0.719263
vt 0.945681 0.977293
vt 0.537602 0.719263
vt 0.948293 0.977293
vt 0.540214 0.719263
vt 0.951782 0.977293
vt 0.543703 0.719263
vt 0.949170 0.977293
vt 0.541091 0.719263
vt 0.949170 0.977293
vt 0.541091 0.719263
vt 0.951782 0.977293
vt 0.543703 0.719263
vt 0.540214 0.719263
vt 0.537602 0.719263
vt 0.540214 0.719263
vt 0.537602 0.719263
vt 0.543703 0.719263
vt 0.541091 0.719263
vt 0.543703 0.719263
vt 0.541091 0.719263
vt 0.538145 0.719263
vt 0.539671 0.719263
vt 0.541634 0.719263
vt 0.543160 0.719263
vt 0.539671 0.719263
vt 0.635754 0.642525
vt 0.538145 0.719263
vt 0.634228 0.642525
vt 0.639243 0.642525
vt 0.543160 0.719263
vt 0.637717 0.642525
vt 0.541634 0.719263
vt 0.962692 0.960060
vt 0.958150 0.960060
vt 0.962692 0.976448
vt 0.958150 0.976448
vt 0.958150 0.960060
vt 0.958150 0.976448
vt 0.962692 0.960060
vt 0.962692 0.976448
vt 0.539671 0.719263
vt 0.538145 0.719263
vt 0.539671 0.719263
vt 0.538145 0.719263
vt 0.539671 0.719263
vt 0.538145 0.719263
vt 0.539671 0.719263
vt 0.538145 0.719263
vt 0.290792 0.636912
vt 0.289266 0.636912
vt 0.290792 0.636912
vt 0.289266 0.636912
vt 0.290792 0.636912
vt 0.290792 0.636912
vt 0.290792 0.636912
vt 0.290792 0.636912
vt 0.289266 0.636912
vt 0.289266 0.636912
vt 0.289266 0.636912
vt 0.289266 0.636912
vt 0.290792 0.636912
vt 0.289266 0.636912
vt 0.290792 0.636912
vt 0.290792 0.636912
vt 0.289266 0.636912
vt 0.289266 0.636912
vt 0.290792 0.636912
vt 0.290792 0.636912
vt 0.290792 0.636912
vt 0.289266 0.636912
vt 0.289266 0.636912
vt 0.289266 0.636912
vt 0.539542 0.719263
vt 0.539671 0.719263
vt 0.539755 0.719263
vt 0.538145 0.719263
vt 0.538145 0.719263
vt 0.538274 0.719263
vt 0.538060 0.719263
vt 0.543031 0.719263
vt 0.543160 0.719263
vt 0.543245 0.719263
vt 0.541634 0.719263
vt 0.541634 0.719263
vt 0.541763 0.719263
vt 0.541550 0.719263
vt 0.635754 0.642525
vt 0.539671 0.719263
vt 0.635625 0.642524
vt 0.539542 0.719263
vt 0.634357 0.642524
vt 0.538274 0.719263
vt 0.634228 0.642525
vt 0.538145 0.719263
vt 0.639243 0.642525
vt 0.543160 0.719263
vt 0.639114 0.642525
vt 0.543031 0.719263
vt 0.637846 0.642524
vt 0.541763 0.719263
vt 0.637717 0.642525
vt 0.541634 0.719263
s 0
usemtl Palette
f 6/11/1 3/6/1 4/8/1 8/14/1 10/17/1
f 4/7/2 3/5/2 1/1/2 2/3/2
f 3/6/3 6/12/3 5/9/3 1/2/3
f 2/4/4 7/13/4 8/14/4 4/8/4
f 12/22/4 13/24/4 22/38/4 20/36/4
f 15/28/1 16/30/1 24/40/1 23/39/1
f 10/18/5 8/15/5 12/21/5 11/19/5
f 8/15/5 7/13/5 13/23/5 12/21/5
f 7/13/5 9/16/5 14/25/5 13/23/5
f 9/16/5 10/18/5 11/19/5 14/25/5
f 6/12/5 10/18/5 16/29/5 15/27/5
f 10/18/5 9/16/5 17/31/5 16/29/5
f 9/16/5 5/10/5 18/33/5 17/31/5
f 5/10/5 6/12/5 15/27/5 18/33/5
f 78/98/3 27/43/3 32/49/3 90/116/3
f 27/43/1 28/44/1 31/47/1 32/49/1
f 17/32/6 18/34/6 25/41/6 26/42/6
f 11/20/1 12/22/1 20/36/1 19/35/1
f 18/34/3 15/28/3 23/39/3 25/41/3
f 13/24/6 14/26/6 21/37/6 22/38/6
f 14/26/3 11/20/3 19/35/3 21/37/3
f 16/30/4 17/32/4 26/42/4 24/40/4
f 28/44/4 76/96/4 87/110/4 31/47/4
f 81/102/6 85/107/6 93/122/6 92/120/6
f 22/38/5 21/37/5 28/44/5 27/43/5
f 19/35/5 20/36/5 80/101/5 79/100/5 75/95/5 77/97/5
f 30/46/4 82/103/4 91/118/4 33/52/4
f 87/109/5 88/111/5 89/113/5 90/115/5 32/50/5 31/48/5
f 26/42/5 25/41/5 30/46/5 29/45/5
f 23/39/5 24/40/5 86/108/5 85/107/5 81/102/5 83/104/5
f 91/117/5 92/119/5 93/121/5 94/123/5 34/53/5 33/51/5
f 24/40/5 26/42/5 29/45/5 84/105/5 86/108/5
f 25/41/5 23/39/5 83/104/5 82/103/5 30/46/5
f 20/36/5 22/38/5 27/43/5 78/98/5 80/101/5
f 29/45/1 30/46/1 33/52/1 34/54/1
f 21/37/5 19/35/5 77/97/5 76/96/5 28/44/5
f 84/105/3 29/45/3 34/54/3 94/124/3
f 36/56/6 35/55/6 37/57/6 38/58/6
f 39/59/1 40/60/1 42/62/1 41/61/1
f 35/55/3 41/61/3 42/62/3 37/57/3
f 36/56/2 39/59/2 41/61/2 35/55/2
f 38/58/4 40/60/4 39/59/4 36/56/4
f 37/57/5 42/62/5 40/60/5 38/58/5
s 1
f 58/78/7 59/79/8 54/74/9 53/73/10
s 0
f 44/64/4 48/68/4 50/70/4 46/66/4
f 43/63/1 47/67/1 48/68/1 44/64/1
f 46/66/6 50/70/6 49/69/6 45/65/6
f 45/65/3 49/69/3 47/67/3 43/63/3
s 1
f 51/71/11 52/72/12 62/82/13 55/75/14
f 55/75/14 62/82/13 61/81/15 56/76/16
f 56/76/16 61/81/15 60/80/17 57/77/18
f 57/77/18 60/80/17 59/79/8 58/78/7
f 65/85/19 66/86/20 68/88/21 72/92/22
f 63/83/23 69/89/24 67/87/25 64/84/26
f 69/89/24 70/90/27 74/94/28 67/87/25
f 70/90/27 71/91/29 73/93/30 74/94/28
f 71/91/29 65/85/19 72/92/22 73/93/30
f 55/75/14 56/76/16 70/90/27 69/89/24
f 62/82/13 52/72/12 64/84/26 67/87/25
f 59/79/8 60/80/17 73/93/30 72/92/22
f 56/76/16 57/77/18 71/91/29 70/90/27
f 53/73/10 54/74/9 68/88/21 66/86/20
f 60/80/17 61/81/15 74/94/28 73/93/30
f 52/72/12 51/71/11 63/83/23 64/84/26
f 57/77/18 58/78/7 65/85/19 71/91/29
f 51/71/11 55/75/14 69/89/24 63/83/23
f 61/81/15 62/82/13 67/87/25 74/94/28
f 58/78/7 53/73/10 66/86/20 65/85/19
f 54/74/9 59/79/8 72/92/22 68/88/21
s 0
f 75/95/5 76/96/5 77/97/5
f 78/98/5 79/99/5 80/101/5
f 81/102/5 82/103/5 83/104/5
f 84/105/5 85/106/5 86/108/5
f 75/95/31 88/112/31 87/110/31 76/96/31
f 93/122/32 85/107/32 84/105/32 94/124/32
f 91/118/31 82/103/31 81/102/31 92/120/31
f 89/114/32 79/100/32 78/98/32 90/116/32
f 75/95/6 79/100/6 89/114/6 88/112/6
