# Blender 3.4.1
# www.blender.org
mtllib Drawer_Ac_1__Small_.mtl
o Drawer_Ac_1_(Small)
v 0.260742 -0.012462 0.352244
v 0.260742 0.146389 0.352244
v 0.260742 -0.012462 -0.221269
v 0.260742 0.146389 -0.221269
v 0.280533 0.142520 0.367937
v 0.280533 0.173164 0.367937
v 0.280533 0.144394 0.334325
v 0.280533 0.191758 0.334325
v 0.231058 0.146389 0.352244
v 0.231058 0.146389 -0.183458
v 0.231058 0.002731 0.352244
v 0.231058 0.002731 -0.183458
v 0.277931 0.155493 0.365561
v 0.277931 -0.017110 0.365561
v 0.277931 0.155493 0.337032
v 0.277931 -0.017110 0.337032
v 0.280533 0.144394 0.351131
v 0.280533 0.168991 0.351131
v -0.260742 -0.012462 0.352244
v -0.260742 0.146389 0.352244
v -0.260742 -0.012462 -0.221269
v -0.260742 0.146389 -0.221269
v -0.280533 0.142520 0.367937
v -0.280533 0.173164 0.367937
v -0.280533 0.144394 0.334325
v -0.280533 0.191758 0.334325
v -0.231058 0.146389 0.352244
v -0.231058 0.146389 -0.183458
v -0.231058 0.002731 0.352244
v -0.231058 0.002731 -0.183458
v 0.000000 0.146389 -0.221269
v 0.000000 -0.012462 0.352244
v 0.000000 -0.012462 -0.221269
v -0.277931 0.155493 0.365561
v 0.000000 0.146389 -0.183458
v -0.277931 -0.017110 0.365561
v 0.000000 0.002731 -0.183458
v 0.000000 0.002731 0.352244
v -0.277931 0.155493 0.337032
v -0.277931 -0.017110 0.337032
v -0.280533 0.144394 0.351131
v -0.280533 0.168991 0.351131
vn -0.0000 -0.0000 -1.0000
vn 1.0000 -0.0000 -0.0000
vn -0.0000 -1.0000 -0.0000
vn -0.0000 -0.0000 1.0000
vn -0.0000 1.0000 -0.0000
vn -1.0000 -0.0000 -0.0000
vn -0.0000 0.9705 -0.2410
vn -0.0000 -0.9938 -0.1108
vn -0.0000 0.5939 0.8045
vt 0.293266 0.802330
vt 0.311434 0.802330
vt 0.293266 0.784161
vt 0.311434 0.784161
vt 0.372354 0.798673
vt 0.386977 0.798673
vt 0.372354 0.784050
vt 0.386977 0.784050
vt 0.311434 0.802330
vt 0.311434 0.784161
vt 0.311434 0.802330
vt 0.311434 0.784161
vt 0.294160 0.792584
vt 0.279536 0.792584
vt 0.294160 0.792584
vt 0.279536 0.792584
vt 0.372354 0.791362
vt 0.386977 0.791362
vt 0.293266 0.802330
vt 0.311434 0.802330
vt 0.293266 0.784161
vt 0.311434 0.784161
vt 0.372354 0.798673
vt 0.386977 0.798673
vt 0.372354 0.784050
vt 0.386977 0.784050
vt 0.311434 0.802330
vt 0.311434 0.784161
vt 0.311434 0.802330
vt 0.311434 0.784161
vt 0.311434 0.779619
vt 0.288724 0.802330
vt 0.293266 0.779619
vt 0.288724 0.784161
vt 0.294160 0.792584
vt 0.311434 0.779619
vt 0.279536 0.792584
vt 0.311434 0.779619
vt 0.311434 0.806872
vt 0.294160 0.792584
vt 0.279536 0.792584
vt 0.372354 0.791362
vt 0.386977 0.791362
s 0
usemtl Palette
f 33/33/1 31/31/1 4/4/1 3/3/1
f 3/3/2 4/4/2 2/2/2 1/1/2
f 33/34/3 3/3/3 1/1/3 32/32/3
f 17/17/2 18/18/2 6/6/2 5/5/2
f 23/23/4 5/5/4 6/6/4 24/24/4
f 14/14/2 16/16/2 15/15/2 13/13/2
f 2/2/5 4/4/5 10/10/5 9/9/5
f 9/9/6 10/10/6 12/12/6 11/11/6
f 36/37/4 14/14/4 13/13/4 34/35/4
f 37/38/5 38/39/5 11/11/5 12/12/5
f 10/10/4 35/36/4 37/38/4 12/12/4
f 4/4/5 31/31/5 35/36/5 10/10/5
f 42/43/7 24/24/7 6/6/7 18/18/7
f 5/5/8 23/23/8 41/42/8 17/17/8
f 14/14/3 36/37/3 40/41/3 16/16/3
f 34/35/5 13/13/5 15/15/5 39/40/5
f 7/7/1 25/25/1 26/26/1 8/8/1
f 26/26/9 42/43/9 18/18/9 8/8/9
f 17/17/3 41/42/3 25/25/3 7/7/3
f 7/7/2 8/8/2 18/18/2 17/17/2
f 33/33/1 21/21/1 22/22/1 31/31/1
f 21/21/6 19/19/6 20/20/6 22/22/6
f 33/34/3 32/32/3 19/19/3 21/21/3
f 41/42/6 23/23/6 24/24/6 42/43/6
f 36/37/6 34/35/6 39/40/6 40/41/6
f 20/20/5 27/27/5 28/28/5 22/22/5
f 27/27/2 29/29/2 30/30/2 28/28/2
f 37/38/5 30/30/5 29/29/5 38/39/5
f 28/28/4 30/30/4 37/38/4 35/36/4
f 22/22/5 28/28/5 35/36/5 31/31/5
f 25/25/6 41/42/6 42/43/6 26/26/6
f 40/41/1 39/40/1 15/15/1 16/16/1
