# Blender 3.4.1
# www.blender.org
mtllib Drawer_A_Ac.mtl
o Drawer_A_Ac
v 0.586587 0.058052 0.280617
v 0.608862 -0.125631 0.302892
v 0.628709 0.086768 0.342874
v 0.628709 -0.154347 0.342874
v 0.128332 -0.005679 0.336165
v 0.128332 -0.061900 0.336165
v 0.128332 -0.005679 0.383052
v 0.128332 -0.061900 0.383052
v 0.628709 0.086768 0.302892
v 0.628709 -0.154347 0.302892
v 0.586587 0.058052 -0.260766
v 0.608862 -0.125631 -0.283041
v 0.608862 0.058052 0.302892
v 0.608862 0.058052 -0.283041
v 0.586587 -0.089785 0.280617
v 0.586587 -0.089785 -0.260766
v -0.586587 0.058052 0.280617
v -0.608862 -0.125631 0.302892
v -0.628709 0.086768 0.342874
v -0.628709 -0.154347 0.342874
v -0.128332 -0.005679 0.336165
v -0.128332 -0.061900 0.336165
v -0.128332 -0.005679 0.383052
v -0.128332 -0.061900 0.383052
v -0.628709 0.086768 0.302892
v -0.628709 -0.154347 0.302892
v -0.586587 0.058052 -0.260766
v -0.608862 -0.125631 -0.283041
v -0.608862 0.058052 0.302892
v -0.608862 0.058052 -0.283041
v -0.586587 -0.089785 0.280617
v -0.586587 -0.089785 -0.260766
vn -0.0000 1.0000 -0.0000
vn 1.0000 -0.0000 -0.0000
vn -0.0000 -1.0000 -0.0000
vn -0.0000 -0.0000 1.0000
vn -0.0000 -0.0000 -1.0000
vn -1.0000 -0.0000 -0.0000
vt 0.801806 0.959605
vt 0.535172 0.695038
vt 0.789335 0.959336
vt 0.803154 0.959097
vt 0.787988 0.959097
vt 0.131511 0.874930
vt 0.116345 0.874930
vt 0.131511 0.874930
vt 0.116345 0.874930
vt 0.803154 0.959097
vt 0.787988 0.959097
vt 0.801806 0.959605
vt 0.535173 0.695038
vt 0.789335 0.959336
vt 0.801806 0.959336
vt 0.801806 0.959336
vt 0.535172 0.695038
vt 0.535173 0.695038
vt 0.801806 0.959605
vt 0.535172 0.695038
vt 0.789335 0.959336
vt 0.803154 0.959097
vt 0.787988 0.959097
vt 0.131511 0.874930
vt 0.116345 0.874930
vt 0.131511 0.874930
vt 0.116345 0.874930
vt 0.803154 0.959097
vt 0.787988 0.959097
vt 0.801806 0.959605
vt 0.535173 0.695038
vt 0.789335 0.959336
vt 0.801806 0.959336
vt 0.801806 0.959336
vt 0.535172 0.695038
vt 0.535173 0.695038
s 0
usemtl Palette
f 25/28/1 19/22/1 3/4/1 9/10/1
f 10/11/2 9/10/2 3/4/2 4/5/2
f 4/5/3 20/23/3 26/29/3 10/11/3
f 24/27/4 8/9/4 7/8/4 23/26/4
f 21/24/1 23/26/1 7/8/1 5/6/1
f 6/7/2 5/6/2 7/8/2 8/9/2
f 8/9/3 24/27/3 22/25/3 6/7/3
f 27/31/4 32/36/4 16/18/4 11/13/4
f 13/15/2 2/3/2 12/14/2 14/16/2
f 2/3/5 13/15/5 9/10/5 10/11/5
f 29/33/5 25/28/5 9/10/5 13/15/5
f 30/34/5 14/16/5 12/14/5 28/32/5
f 18/21/3 28/32/3 12/14/3 2/3/3
f 17/19/1 29/33/1 13/15/1 1/1/1
f 14/16/1 30/34/1 27/30/1 11/12/1
f 16/18/1 32/36/1 31/35/1 15/17/1
f 11/12/1 1/1/1 13/15/1 14/16/1
f 15/17/5 31/35/5 17/20/5 1/2/5
f 10/11/5 26/29/5 18/21/5 2/3/5
f 1/2/6 11/13/6 16/18/6 15/17/6
f 26/29/6 20/23/6 19/22/6 25/28/6
f 22/25/6 24/27/6 23/26/6 21/24/6
f 29/33/6 30/34/6 28/32/6 18/21/6
f 18/21/5 26/29/5 25/28/5 29/33/5
f 27/30/1 30/34/1 29/33/1 17/19/1
f 17/20/2 31/35/2 32/36/2 27/31/2
f 20/23/4 4/5/4 3/4/4 19/22/4
