# Blender 3.4.1
# www.blender.org
mtllib Drawer_Ac_3__Old__.mtl
o Drawer_Ac_3_(Old)_
v 0.214797 -0.012462 0.352244
v 0.214797 0.146389 0.352244
v 0.214797 -0.012462 -0.221269
v 0.214797 0.146389 -0.221269
v 0.185251 0.146389 0.352244
v 0.185251 0.146389 -0.183458
v 0.185251 0.002731 0.352244
v 0.185251 0.002731 -0.183458
v 0.226076 0.167631 0.365561
v 0.226076 -0.020441 0.365561
v 0.226076 0.167631 0.334832
v 0.226076 -0.020441 0.334832
v 0.023309 0.140992 0.365561
v 0.023309 0.006199 0.365561
v 0.023309 0.006199 0.360274
v 0.023309 0.140992 0.360274
v 0.173259 0.079192 0.359745
v 0.173259 0.120496 0.359745
v 0.048741 0.120496 0.359745
v 0.048741 0.079192 0.359745
v 0.173259 0.120496 0.365561
v 0.173259 0.079192 0.365561
v 0.048741 0.079192 0.365561
v 0.048741 0.120496 0.365561
v 0.198691 0.025565 0.365561
v 0.179325 0.006199 0.365561
v 0.212385 -0.007495 0.365561
v 0.193019 0.011871 0.365561
v 0.179325 0.140992 0.365561
v 0.198691 0.121626 0.365561
v 0.212385 0.154685 0.365561
v 0.193019 0.135319 0.365561
v 0.198691 0.121626 0.360274
v 0.179325 0.140992 0.360274
v 0.193019 0.135319 0.360274
v 0.179325 0.006199 0.360274
v 0.198691 0.025565 0.360274
v 0.193019 0.011871 0.360274
v 0.173259 0.022469 0.359745
v 0.173259 0.063772 0.359745
v 0.048741 0.063772 0.359745
v 0.048741 0.022469 0.359745
v 0.173259 0.063772 0.365561
v 0.173259 0.022469 0.365561
v 0.048741 0.022469 0.365561
v 0.048741 0.063772 0.365561
v 0.027571 0.098156 0.370114
v 0.027571 0.049034 0.370114
v 0.027571 0.049034 0.358603
v 0.027571 0.098156 0.358603
v 0.013231 0.062716 0.363396
v 0.013231 0.078715 0.363396
v 0.013231 0.078715 0.386911
v 0.013231 0.062716 0.386911
v 0.020225 0.082976 0.410039
v 0.028377 0.087682 0.396629
v 0.020225 0.082976 0.387599
v 0.020225 0.060253 0.410039
v 0.028377 0.055547 0.396629
v 0.020225 0.060253 0.387599
v 0.220694 0.160972 0.371438
v 0.220694 -0.013782 0.371438
v 0.233735 0.174012 0.348736
v 0.233735 -0.026822 0.348736
v 0.233735 0.174012 0.371438
v 0.233735 -0.026822 0.371438
v 0.220694 0.160972 0.363363
v 0.220694 -0.013782 0.363363
v -0.214797 -0.012462 0.352244
v -0.214797 0.146389 0.352244
v -0.214797 -0.012462 -0.221269
v -0.214797 0.146389 -0.221269
v -0.185251 0.146389 0.352244
v -0.185251 0.146389 -0.183458
v -0.185251 0.002731 0.352244
v -0.185251 0.002731 -0.183458
v 0.000000 0.146389 -0.221269
v 0.000000 -0.012462 0.352244
v 0.000000 -0.012462 -0.221269
v -0.226076 0.167631 0.365561
v 0.000000 0.146389 -0.183458
v -0.226076 -0.020441 0.365561
v 0.000000 0.002731 -0.183458
v 0.000000 0.002731 0.352244
v 0.000000 -0.020441 0.365561
v 0.000000 0.167631 0.365561
v -0.226076 0.167631 0.334832
v -0.226076 -0.020441 0.334832
v -0.023309 0.140992 0.365561
v -0.023309 0.006199 0.365561
v -0.023309 0.006199 0.360274
v -0.023309 0.140992 0.360274
v -0.173259 0.079192 0.359745
v -0.173259 0.120496 0.359745
v -0.048741 0.120496 0.359745
v -0.048741 0.079192 0.359745
v -0.173259 0.120496 0.365561
v -0.173259 0.079192 0.365561
v -0.048741 0.079192 0.365561
v -0.048741 0.120496 0.365561
v -0.198691 0.025565 0.365561
v -0.179325 0.006199 0.365561
v -0.212385 -0.007495 0.365561
v -0.193019 0.011871 0.365561
v -0.179325 0.140992 0.365561
v -0.198691 0.121626 0.365561
v -0.212385 0.154685 0.365561
v -0.193019 0.135319 0.365561
v -0.198691 0.121626 0.360274
v -0.179325 0.140992 0.360274
v -0.193019 0.135319 0.360274
v -0.179325 0.006199 0.360274
v -0.198691 0.025565 0.360274
v -0.193019 0.011871 0.360274
v -0.173259 0.022469 0.359745
v -0.173259 0.063772 0.359745
v -0.048741 0.063772 0.359745
v -0.048741 0.022469 0.359745
v -0.173259 0.063772 0.365561
v -0.173259 0.022469 0.365561
v -0.048741 0.022469 0.365561
v -0.048741 0.063772 0.365561
v 0.000000 0.040540 0.370114
v 0.000000 0.106651 0.370114
v -0.027571 0.098156 0.370114
v -0.027571 0.049034 0.370114
v -0.027571 0.049034 0.358603
v -0.027571 0.098156 0.358603
v 0.000000 0.085148 0.363396
v 0.000000 0.106650 0.358603
v 0.000000 0.056283 0.363396
v 0.000000 0.040540 0.358603
v -0.013231 0.062716 0.363396
v -0.013231 0.078715 0.363396
v 0.000000 0.056283 0.386910
v 0.000000 0.085148 0.386910
v -0.013231 0.078715 0.386911
v -0.013231 0.062716 0.386911
v 0.000000 0.094337 0.410039
v 0.000000 0.103750 0.396629
v 0.000000 0.094337 0.387599
v -0.020225 0.082976 0.410039
v -0.028377 0.087682 0.396629
v -0.020225 0.082976 0.387599
v -0.020225 0.060253 0.410039
v -0.028377 0.055547 0.396629
v -0.020225 0.060253 0.387599
v 0.000000 0.048891 0.410039
v 0.000000 0.039479 0.396629
v 0.000000 0.048891 0.387599
v 0.000000 0.071614 0.386899
v 0.000000 0.071614 0.416377
v -0.220694 0.160972 0.371438
v -0.220694 -0.013782 0.371438
v -0.233735 0.174012 0.348736
v -0.233735 -0.026822 0.348736
v -0.233735 0.174012 0.371438
v -0.233735 -0.026822 0.371438
v -0.220694 0.160972 0.363363
v -0.220694 -0.013782 0.363363
vn -0.0000 -0.0000 -1.0000
vn 1.0000 -0.0000 -0.0000
vn -0.0000 -1.0000 -0.0000
vn -0.0000 1.0000 -0.0000
vn -1.0000 -0.0000 -0.0000
vn -0.0000 -0.0000 1.0000
vn -0.3827 -0.9239 -0.0000
vn -0.9239 -0.3827 -0.0000
vn -0.3827 0.9239 -0.0000
vn -0.9239 0.3827 -0.0000
vn 0.2944 0.9557 -0.0000
vn 0.2944 -0.9557 -0.0000
vn 0.4373 -0.8993 -0.0000
vn 0.4373 0.8993 -0.0000
vn -0.0000 0.4783 -0.8782
vn 0.4131 0.2418 -0.8780
vn -0.0000 0.9967 -0.0816
vn -0.0000 0.6420 0.7667
vn 0.5531 0.3232 0.7678
vn 0.8613 0.5016 -0.0815
vn 0.4131 -0.2418 -0.8780
vn 0.5531 -0.3232 0.7678
vn 0.8613 -0.5016 -0.0815
vn -0.0000 -0.4783 -0.8782
vn -0.0000 -0.6420 0.7667
vn -0.0000 -0.9967 -0.0816
vn 0.3827 -0.9239 -0.0000
vn 0.9239 -0.3827 -0.0000
vn 0.3827 0.9239 -0.0000
vn 0.9239 0.3827 -0.0000
vn -0.2944 0.9557 -0.0000
vn -0.2944 -0.9557 -0.0000
vn -0.4373 -0.8993 -0.0000
vn -0.4373 0.8993 -0.0000
vn -0.4131 0.2418 -0.8780
vn -0.8613 0.5016 -0.0815
vn -0.5531 0.3232 0.7678
vn -0.4131 -0.2418 -0.8780
vn -0.8613 -0.5016 -0.0815
vn -0.5531 -0.3232 0.7678
vt 0.554613 0.720199
vt 0.572781 0.720199
vt 0.554613 0.702030
vt 0.572781 0.702030
vt 0.572781 0.720199
vt 0.572781 0.702030
vt 0.572781 0.720199
vt 0.572781 0.702030
vt 0.553866 0.692407
vt 0.539243 0.692407
vt 0.553866 0.692407
vt 0.539243 0.692407
vt 0.551987 0.698951
vt 0.541122 0.698951
vt 0.541122 0.698951
vt 0.637205 0.622212
vt 0.551987 0.698951
vt 0.648070 0.622212
vt 0.543172 0.694012
vt 0.549937 0.694012
vt 0.549937 0.698113
vt 0.543172 0.698113
vt 0.549937 0.694012
vt 0.543172 0.694012
vt 0.543172 0.698113
vt 0.549937 0.698113
vt 0.542683 0.693175
vt 0.541122 0.693175
vt 0.541122 0.693813
vt 0.540018 0.692724
vt 0.541579 0.693175
vt 0.541122 0.693175
vt 0.551987 0.693813
vt 0.551987 0.693175
vt 0.550426 0.693175
vt 0.553091 0.692724
vt 0.551987 0.693362
vt 0.551987 0.693175
vt 0.646509 0.616436
vt 0.550426 0.693175
vt 0.648070 0.617074
vt 0.551987 0.693813
vt 0.648070 0.616436
vt 0.551987 0.693175
vt 0.637205 0.617074
vt 0.541122 0.693813
vt 0.638766 0.616436
vt 0.542683 0.693175
vt 0.637205 0.616436
vt 0.541122 0.693175
vt 0.543172 0.694012
vt 0.549937 0.694012
vt 0.549937 0.698113
vt 0.543172 0.698113
vt 0.549937 0.694012
vt 0.543172 0.694012
vt 0.543172 0.698113
vt 0.549937 0.698113
vt 0.551987 0.698951
vt 0.541122 0.698951
vt 0.541122 0.698951
vt 0.551987 0.698951
vt 0.544096 0.712558
vt 0.547739 0.712558
vt 0.039334 0.879037
vt 0.547739 0.712558
vt 0.035692 0.879037
vt 0.544096 0.712558
vt 0.302417 0.643547
vt 0.302417 0.631047
vt 0.302417 0.618547
vt 0.294083 0.643547
vt 0.294083 0.631047
vt 0.294083 0.618547
vt 0.955787 0.956053
vt 0.943063 0.956053
vt 0.956737 0.955645
vt 0.942114 0.955645
vt 0.956737 0.955645
vt 0.942114 0.955645
vt 0.955787 0.956053
vt 0.943063 0.956053
vt 0.554613 0.720199
vt 0.572781 0.720199
vt 0.554613 0.702030
vt 0.572781 0.702030
vt 0.572781 0.720199
vt 0.572781 0.702030
vt 0.572781 0.720199
vt 0.572781 0.702030
vt 0.572781 0.697488
vt 0.550071 0.720199
vt 0.554613 0.697488
vt 0.550071 0.702030
vt 0.553866 0.692407
vt 0.572781 0.697488
vt 0.539243 0.692407
vt 0.572781 0.697488
vt 0.572781 0.724741
vt 0.539243 0.699719
vt 0.553866 0.699719
vt 0.553866 0.692407
vt 0.539243 0.692407
vt 0.551987 0.698951
vt 0.541122 0.698951
vt 0.541122 0.698951
vt 0.637205 0.622212
vt 0.551987 0.698951
vt 0.648070 0.622212
vt 0.543172 0.694012
vt 0.549937 0.694012
vt 0.549937 0.698113
vt 0.543172 0.698113
vt 0.549937 0.694012
vt 0.543172 0.694012
vt 0.543172 0.698113
vt 0.549937 0.698113
vt 0.542683 0.693175
vt 0.541122 0.693175
vt 0.541122 0.693813
vt 0.540018 0.692724
vt 0.541579 0.693175
vt 0.541122 0.693175
vt 0.551987 0.693813
vt 0.551987 0.693175
vt 0.550426 0.693175
vt 0.553091 0.692724
vt 0.551987 0.693362
vt 0.551987 0.693175
vt 0.646509 0.616436
vt 0.550426 0.693175
vt 0.648070 0.617074
vt 0.551987 0.693813
vt 0.648070 0.616436
vt 0.551987 0.693175
vt 0.637205 0.617074
vt 0.541122 0.693813
vt 0.638766 0.616436
vt 0.542683 0.693175
vt 0.637205 0.616436
vt 0.541122 0.693175
vt 0.543172 0.694012
vt 0.549937 0.694012
vt 0.549937 0.698113
vt 0.543172 0.698113
vt 0.549937 0.694012
vt 0.543172 0.694012
vt 0.543172 0.698113
vt 0.549937 0.698113
vt 0.541122 0.698951
vt 0.539243 0.699719
vt 0.551987 0.698951
vt 0.553866 0.699719
vt 0.551987 0.698951
vt 0.541122 0.698951
vt 0.541122 0.698951
vt 0.551987 0.698951
vt 0.550004 0.712843
vt 0.551987 0.698951
vt 0.541832 0.712843
vt 0.541122 0.698951
vt 0.544096 0.712558
vt 0.547739 0.712558
vt 0.033427 0.879322
vt 0.541832 0.712843
vt 0.041599 0.879322
vt 0.550004 0.712843
vt 0.039334 0.879037
vt 0.547739 0.712558
vt 0.035692 0.879037
vt 0.544096 0.712558
vt 0.310750 0.643547
vt 0.310750 0.631047
vt 0.310750 0.618547
vt 0.302417 0.643547
vt 0.302417 0.631047
vt 0.302417 0.618547
vt 0.294083 0.643547
vt 0.294083 0.631047
vt 0.294083 0.618547
vt 0.285750 0.643547
vt 0.285750 0.631047
vt 0.285750 0.618547
vt 0.306583 0.606047
vt 0.298250 0.606047
vt 0.289917 0.606047
vt 0.306583 0.656047
vt 0.298250 0.656047
vt 0.289917 0.656047
vt 0.955787 0.956053
vt 0.943063 0.956053
vt 0.956737 0.955645
vt 0.942114 0.955645
vt 0.956737 0.955645
vt 0.942114 0.955645
vt 0.955787 0.956053
vt 0.943063 0.956053
s 0
usemtl Palette
f 79/93/1 77/91/1 4/4/1 3/3/1
f 3/3/2 4/4/2 2/2/2 1/1/2
f 79/94/3 3/3/3 1/1/3 78/92/3
f 10/10/2 12/12/2 11/11/2 9/9/2
f 2/2/4 4/4/4 6/6/4 5/5/4
f 5/5/5 6/6/5 8/8/5 7/7/5
f 85/100/3 82/97/3 88/103/3 12/12/3 10/10/3
f 83/98/4 84/99/4 7/7/4 8/8/4
f 6/6/6 81/96/6 83/98/6 8/8/6
f 4/4/4 77/91/4 81/96/4 6/6/4
f 85/100/6 10/10/6 27/30/6 26/29/6 14/14/6
f 80/95/4 86/101/4 9/9/4 11/11/4 87/102/4
f 156/193/1 155/192/1 63/77/1 64/78/1
f 14/14/4 26/29/4 36/46/4 15/15/4
f 86/101/6 85/100/6 14/14/6 13/13/6
f 29/33/3 13/13/3 16/17/3 34/42/3
f 18/20/4 19/21/4 24/26/4 21/23/4
f 13/13/2 14/14/2 15/15/2 16/17/2
f 25/27/5 30/35/5 33/40/5 37/48/5
f 9/9/6 86/101/6 13/13/6 29/33/6 31/36/6
f 22/24/6 21/23/6 24/26/6 23/25/6
f 17/19/2 18/20/2 21/23/2 22/24/2
f 19/21/5 20/22/5 23/25/5 24/26/5
f 20/22/3 17/19/3 22/24/3 23/25/3
f 25/27/6 28/31/6 27/30/6
f 28/31/6 26/28/6 27/30/6
f 29/33/6 32/37/6 31/36/6
f 32/37/6 30/34/6 31/36/6
f 15/16/6 36/45/6 38/49/6 37/47/6 33/39/6 35/43/6 34/41/6 16/18/6
f 29/33/7 34/42/7 35/44/7 32/38/7
f 32/38/8 35/44/8 33/40/8 30/35/8
f 36/46/9 26/29/9 28/32/9 38/50/9
f 38/50/10 28/32/10 25/27/10 37/48/10
f 10/10/6 9/9/6 31/36/6 30/35/6 25/27/6 27/30/6
f 40/52/4 41/53/4 46/58/4 43/55/4
f 44/56/6 43/55/6 46/58/6 45/57/6
f 39/51/2 40/52/2 43/55/2 44/56/2
f 41/53/5 42/54/5 45/57/5 46/58/5
f 42/54/3 39/51/3 44/56/3 45/57/3
f 47/59/2 48/60/2 49/61/2 50/62/2
f 47/59/11 50/62/11 130/159/11 124/152/11
f 49/61/12 48/60/12 123/150/12 132/161/12
f 135/164/6 54/67/6 53/65/6 136/166/6
f 54/68/2 51/63/2 52/64/2 53/66/2
f 124/153/6 123/151/6 48/60/6 47/59/6
f 135/165/13 131/160/13 51/63/13 54/68/13
f 53/66/14 52/64/14 129/158/14 136/167/14
s 1
f 151/184/1 141/174/15 57/71/16
f 140/173/17 139/172/18 55/69/19 56/70/20
f 141/174/15 140/173/17 56/70/20 57/71/16
f 139/172/18 152/187/6 55/69/19
f 151/185/1 57/71/16 60/74/21
f 56/70/20 55/69/19 58/72/22 59/73/23
f 57/71/16 56/70/20 59/73/23 60/74/21
f 55/69/19 152/188/6 58/72/22
f 151/186/1 60/74/21 150/183/24
f 59/73/23 58/72/22 148/181/25 149/182/26
f 60/74/21 59/73/23 149/182/26 150/183/24
f 58/72/22 152/189/6 148/181/25
s 0
f 62/76/5 61/75/5 67/81/5 68/82/5
f 63/77/4 155/192/4 157/194/4 65/79/4
f 65/79/2 66/80/2 64/78/2 63/77/2
f 158/195/3 156/193/3 64/78/3 66/80/3
f 65/79/6 157/194/6 153/190/6 61/75/6
f 154/191/6 158/195/6 66/80/6 62/76/6
f 68/82/4 160/197/4 154/191/4 62/76/4
f 61/75/6 62/76/6 66/80/6 65/79/6
f 153/190/3 159/196/3 67/81/3 61/75/3
f 79/93/1 71/85/1 72/86/1 77/91/1
f 71/85/5 69/83/5 70/84/5 72/86/5
f 79/94/3 78/92/3 69/83/3 71/85/3
f 82/97/5 80/95/5 87/102/5 88/103/5
f 70/84/4 73/87/4 74/88/4 72/86/4
f 73/87/2 75/89/2 76/90/2 74/88/2
f 83/98/4 76/90/4 75/89/4 84/99/4
f 74/88/6 76/90/6 83/98/6 81/96/6
f 72/86/4 74/88/4 81/96/4 77/91/4
f 85/100/6 90/105/6 102/120/6 103/121/6 82/97/6
f 90/105/4 91/106/4 112/137/4 102/120/4
f 86/101/6 89/104/6 90/105/6 85/100/6
f 105/124/3 110/133/3 92/108/3 89/104/3
f 94/111/4 97/114/4 100/117/4 95/112/4
f 89/104/5 92/108/5 91/106/5 90/105/5
f 101/118/2 113/139/2 109/131/2 106/126/2
f 80/95/6 107/127/6 105/124/6 89/104/6 86/101/6
f 98/115/6 99/116/6 100/117/6 97/114/6
f 93/110/5 98/115/5 97/114/5 94/111/5
f 95/112/2 100/117/2 99/116/2 96/113/2
f 96/113/3 99/116/3 98/115/3 93/110/3
f 101/118/6 103/121/6 104/122/6
f 104/122/6 103/121/6 102/119/6
f 105/124/6 107/127/6 108/128/6
f 108/128/6 107/127/6 106/125/6
f 91/107/6 92/109/6 110/132/6 111/134/6 109/130/6 113/138/6 114/140/6 112/136/6
f 105/124/27 108/129/27 111/135/27 110/133/27
f 108/129/28 106/126/28 109/131/28 111/135/28
f 112/137/29 114/141/29 104/123/29 102/120/29
f 114/141/30 113/139/30 101/118/30 104/123/30
f 82/97/6 103/121/6 101/118/6 106/126/6 107/127/6 80/95/6
f 116/143/4 119/146/4 122/149/4 117/144/4
f 120/147/6 121/148/6 122/149/6 119/146/6
f 115/142/5 120/147/5 119/146/5 116/143/5
f 117/144/2 122/149/2 121/148/2 118/145/2
f 118/145/3 121/148/3 120/147/3 115/142/3
f 125/154/5 128/157/5 127/156/5 126/155/5
f 125/154/31 124/152/31 130/159/31 128/157/31
f 127/156/32 132/161/32 123/150/32 126/155/32
f 135/164/6 136/166/6 137/168/6 138/170/6
f 138/171/5 137/169/5 134/163/5 133/162/5
f 124/153/6 125/154/6 126/155/6 123/151/6
f 135/165/33 138/171/33 133/162/33 131/160/33
f 137/169/34 136/167/34 129/158/34 134/163/34
s 1
f 151/184/1 144/177/35 141/174/15
f 140/173/17 143/176/36 142/175/37 139/172/18
f 141/174/15 144/177/35 143/176/36 140/173/17
f 139/172/18 142/175/37 152/187/6
f 151/185/1 147/180/38 144/177/35
f 143/176/36 146/179/39 145/178/40 142/175/37
f 144/177/35 147/180/38 146/179/39 143/176/36
f 142/175/37 145/178/40 152/188/6
f 151/186/1 150/183/24 147/180/38
f 146/179/39 149/182/26 148/181/25 145/178/40
f 147/180/38 150/183/24 149/182/26 146/179/39
f 145/178/40 148/181/25 152/189/6
s 0
f 154/191/2 160/197/2 159/196/2 153/190/2
f 157/194/5 155/192/5 156/193/5 158/195/5
f 153/190/6 157/194/6 158/195/6 154/191/6
f 88/103/1 87/102/1 11/11/1 12/12/1
