# Blender 3.4.1
# www.blender.org
mtllib Drawer-Cabinet.mtl
o Drawer-Cabinet
v 0.300000 0.012693 -0.299910
v 0.300000 0.012693 0.299910
v 0.300000 2.036415 0.299910
v 0.300000 2.036415 -0.299910
v 0.260181 1.988972 0.299910
v 0.260181 0.095489 -0.252298
v 0.260181 0.095489 0.299910
v 0.260181 1.988972 -0.253085
v 0.260181 1.371110 0.299910
v 0.260181 1.095489 -0.252298
v 0.260181 1.269540 -0.252298
v 0.260181 0.845489 -0.252298
v 0.260181 1.019540 -0.252298
v 0.260181 0.769540 -0.252298
v 0.260181 1.095489 0.299910
v 0.260181 1.269540 0.299910
v 0.260181 0.845489 0.299910
v 0.260181 0.769540 0.299910
v 0.260181 1.019540 0.299910
v 0.260181 1.371110 -0.253085
v -0.300000 0.012693 -0.299910
v -0.300000 0.012693 0.299910
v -0.300000 2.036415 0.299910
v -0.300000 2.036415 -0.299910
v -0.260181 1.988972 0.299910
v -0.260181 0.095489 -0.252298
v -0.260181 0.095489 0.299910
v -0.260181 1.988972 -0.253085
v -0.260181 1.371110 0.299910
v -0.260181 1.095489 -0.252298
v -0.260181 1.269540 -0.252298
v -0.260181 0.845489 -0.252298
v -0.260181 1.019540 -0.252298
v -0.260181 0.769540 -0.252298
v -0.260181 1.095489 0.299910
v -0.260181 1.269540 0.299910
v -0.260181 0.845489 0.299910
v -0.260181 0.769540 0.299910
v -0.260181 1.019540 0.299910
v -0.260181 1.371110 -0.253085
vn -0.0000 -1.0000 -0.0000
vn 1.0000 -0.0000 -0.0000
vn -0.0000 -0.0000 1.0000
vn -0.0000 -0.0000 -1.0000
vn -0.0000 1.0000 -0.0000
vn -1.0000 -0.0000 -0.0000
vn -0.0000 0.0004 1.0000
vt 0.283399 0.786228
vt 0.283399 0.801394
vt 0.283537 0.801394
vt 0.283537 0.801394
vt 0.298427 0.801394
vt 0.293266 0.784161
vt 0.282795 0.801394
vt 0.293266 0.800549
vt 0.298427 0.801394
vt 0.283537 0.801394
vt 0.293266 0.784161
vt 0.293266 0.784161
vt 0.293266 0.784161
vt 0.293266 0.784161
vt 0.293266 0.784161
vt 0.282795 0.801394
vt 0.293266 0.800549
vt 0.293266 0.800549
vt 0.293266 0.800549
vt 0.282795 0.801394
vt 0.293266 0.800549
vt 0.282795 0.801394
vt 0.282795 0.801394
vt 0.293266 0.800549
vt 0.283537 0.801394
vt 0.283399 0.786228
vt 0.283399 0.801394
vt 0.283537 0.801394
vt 0.283537 0.801394
vt 0.298427 0.801394
vt 0.293266 0.784161
vt 0.282795 0.801394
vt 0.293266 0.800549
vt 0.298427 0.801394
vt 0.283537 0.801394
vt 0.293266 0.784161
vt 0.293266 0.784161
vt 0.293266 0.784161
vt 0.293266 0.784161
vt 0.293266 0.784161
vt 0.282795 0.801394
vt 0.293266 0.800549
vt 0.293266 0.800549
vt 0.293266 0.800549
vt 0.282795 0.801394
vt 0.293266 0.800549
vt 0.282795 0.801394
vt 0.282795 0.801394
vt 0.293266 0.800549
vt 0.283537 0.801394
s 0
usemtl Palette
f 22/27/1 21/26/1 1/1/1 2/2/1
f 3/3/2 2/2/2 1/1/2 4/4/2
f 22/27/3 2/2/3 7/7/3 27/32/3
f 24/29/4 4/4/4 1/1/4 21/26/4
f 3/3/3 23/28/3 25/30/3 5/5/3
f 24/29/5 23/28/5 3/3/5 4/4/5
f 6/6/6 7/8/6 5/5/6 8/9/6
f 35/41/3 39/48/3 19/23/3 15/16/3
f 25/30/1 28/34/1 8/9/1 5/5/1
f 2/2/3 3/3/3 5/5/3 7/7/3
f 26/31/7 6/6/7 8/9/7 28/34/7
f 18/21/1 38/46/1 34/40/1 14/15/1
f 37/44/5 17/19/5 12/13/5 32/38/5
f 19/24/1 39/49/1 33/39/1 13/14/1
f 9/10/3 29/35/3 36/43/3 16/18/3
f 20/25/5 40/50/5 29/35/5 9/10/5
f 16/18/1 36/43/1 31/37/1 11/12/1
f 37/45/3 38/47/3 18/22/3 17/20/3
f 35/42/5 15/17/5 10/11/5 30/36/5
f 23/28/6 24/29/6 21/26/6 22/27/6
f 26/31/2 28/34/2 25/30/2 27/33/2
f 22/27/3 27/32/3 25/30/3 23/28/3
f 27/33/5 7/8/5 6/6/5 26/31/5
