# Blender 3.4.1
# www.blender.org
mtllib Drawer_A.mtl
o Drawer_A
v 0.738299 0.949037 -0.375000
v 0.738299 0.090877 -0.375000
v 0.618899 0.823555 0.323051
v 0.618899 0.245132 0.323051
v 0.636672 -0.001885 0.307022
v 0.636672 0.123807 0.307022
v 0.636672 -0.001885 0.218136
v 0.636672 0.123807 0.218136
v 0.725558 -0.001885 0.307022
v 0.725558 0.123807 0.307022
v 0.725558 -0.001885 0.218136
v 0.725558 0.123807 0.218136
v 0.636672 -0.001885 -0.277130
v 0.636672 0.123807 -0.277130
v 0.636672 -0.001885 -0.366017
v 0.636672 0.123807 -0.366017
v 0.725558 -0.001885 -0.277130
v 0.725558 0.123807 -0.277130
v 0.725558 -0.001885 -0.366017
v 0.725558 0.123807 -0.366017
v 0.618899 0.620132 0.323051
v 0.738299 0.519957 -0.375000
v 0.738299 0.949037 0.323051
v 0.618899 0.448555 0.323051
v 0.738299 0.519957 0.323051
v 0.738299 0.090877 0.323051
v 0.618899 0.823555 -0.331633
v 0.618899 0.620132 -0.331633
v 0.618899 0.448555 -0.331633
v 0.618899 0.245132 -0.331633
v -0.738299 0.949037 -0.375000
v -0.738299 0.090877 -0.375000
v -0.618899 0.823555 0.323051
v -0.618899 0.245132 0.323051
v -0.636672 -0.001885 0.307022
v -0.636672 0.123807 0.307022
v -0.636672 -0.001885 0.218136
v -0.636672 0.123807 0.218136
v -0.725558 -0.001885 0.307022
v -0.725558 0.123807 0.307022
v -0.725558 -0.001885 0.218136
v -0.725558 0.123807 0.218136
v -0.636672 -0.001885 -0.277130
v -0.636672 0.123807 -0.277130
v -0.636672 -0.001885 -0.366017
v -0.636672 0.123807 -0.366017
v -0.725558 -0.001885 -0.277130
v -0.725558 0.123807 -0.277130
v -0.725558 -0.001885 -0.366017
v -0.725558 0.123807 -0.366017
v -0.618899 0.620132 0.323051
v -0.738299 0.519957 -0.375000
v -0.738299 0.949037 0.323051
v -0.618899 0.448555 0.323051
v -0.738299 0.519957 0.323051
v -0.738299 0.090877 0.323051
v -0.618899 0.823555 -0.331633
v -0.618899 0.620132 -0.331633
v -0.618899 0.448555 -0.331633
v -0.618899 0.245132 -0.331633
vn -0.0000 -0.0000 -1.0000
vn 1.0000 -0.0000 -0.0000
vn -0.0000 -0.0000 1.0000
vn -0.0000 1.0000 -0.0000
vn -1.0000 -0.0000 -0.0000
vn -0.0000 -1.0000 -0.0000
vt 0.964374 0.951165
vt 0.949208 0.951165
vt 0.963410 0.966891
vt 0.950350 0.966995
vt 0.290179 0.612922
vt 0.290179 0.655718
vt 0.279479 0.645019
vt 0.300877 0.612922
vt 0.300877 0.655718
vt 0.290179 0.623621
vt 0.279479 0.634320
vt 0.300877 0.623621
vt 0.290179 0.645019
vt 0.300877 0.645019
vt 0.290179 0.634320
vt 0.300877 0.634320
vt 0.290179 0.612922
vt 0.290179 0.655718
vt 0.279479 0.645019
vt 0.300877 0.612922
vt 0.300877 0.655718
vt 0.290179 0.623621
vt 0.279479 0.634320
vt 0.300877 0.623621
vt 0.290179 0.645019
vt 0.300877 0.645019
vt 0.290179 0.634320
vt 0.300877 0.634320
vt 0.957756 0.966891
vt 0.956791 0.951165
vt 0.964374 0.966331
vt 0.955649 0.966995
vt 0.956791 0.966331
vt 0.949208 0.966331
vt 0.963410 0.966891
vt 0.957756 0.966891
vt 0.955649 0.966995
vt 0.950350 0.966995
vt 0.964374 0.951165
vt 0.949208 0.951165
vt 0.963410 0.966891
vt 0.950350 0.966995
vt 0.290179 0.612922
vt 0.290179 0.655718
vt 0.279479 0.645019
vt 0.300877 0.612922
vt 0.300877 0.655718
vt 0.290179 0.623621
vt 0.279479 0.634320
vt 0.300877 0.623621
vt 0.290179 0.645019
vt 0.300877 0.645019
vt 0.290179 0.634320
vt 0.300877 0.634320
vt 0.290179 0.612922
vt 0.290179 0.655718
vt 0.279479 0.645019
vt 0.300877 0.612922
vt 0.300877 0.655718
vt 0.290179 0.623621
vt 0.279479 0.634320
vt 0.300877 0.623621
vt 0.290179 0.645019
vt 0.300877 0.645019
vt 0.290179 0.634320
vt 0.300877 0.634320
vt 0.957756 0.966891
vt 0.956791 0.951165
vt 0.964374 0.966331
vt 0.955649 0.966995
vt 0.956791 0.966331
vt 0.949208 0.966331
vt 0.963410 0.966891
vt 0.957756 0.966891
vt 0.955649 0.966995
vt 0.950350 0.966995
s 0
usemtl Palette
f 22/30/1 52/68/1 31/39/1 1/1/1
f 22/30/2 1/1/2 23/31/2 25/33/2
f 23/31/3 53/69/3 33/41/3 3/3/3
f 28/36/4 58/74/4 51/67/4 21/29/4
f 30/38/4 60/76/4 34/42/4 4/4/4
f 5/5/5 6/8/5 8/12/5 7/10/5
f 7/10/1 8/12/1 12/16/1 11/15/1
f 11/15/2 12/16/2 10/14/2 9/13/2
f 9/13/3 10/14/3 6/9/3 5/6/3
f 7/11/6 11/15/6 9/13/6 5/7/6
f 13/17/5 14/20/5 16/24/5 15/22/5
f 15/22/1 16/24/1 20/28/1 19/27/1
f 19/27/2 20/28/2 18/26/2 17/25/2
f 17/25/3 18/26/3 14/21/3 13/18/3
f 15/23/6 19/27/6 17/25/6 13/19/6
f 54/70/6 59/75/6 29/37/6 24/32/6
f 2/2/2 22/30/2 25/33/2 26/34/2
f 26/34/6 56/72/6 32/40/6 2/2/6
f 51/67/3 55/71/3 25/33/3 21/29/3
f 3/3/3 21/29/3 25/33/3 23/31/3
f 34/42/3 56/72/3 26/34/3 4/4/3
f 24/32/3 4/4/3 26/34/3 25/33/3
f 25/33/3 55/71/3 54/70/3 24/32/3
f 60/76/3 30/38/3 29/37/3 59/75/3
f 33/41/6 57/73/6 27/35/6 3/3/6
f 58/74/3 28/36/3 27/35/3 57/73/3
f 4/4/5 24/32/5 29/37/5 30/38/5
f 21/29/5 3/3/5 27/35/5 28/36/5
f 2/2/1 32/40/1 52/68/1 22/30/1
f 52/68/5 55/71/5 53/69/5 31/39/5
f 35/43/2 37/48/2 38/50/2 36/46/2
f 37/48/1 41/53/1 42/54/1 38/50/1
f 41/53/5 39/51/5 40/52/5 42/54/5
f 39/51/3 35/44/3 36/47/3 40/52/3
f 37/49/6 35/45/6 39/51/6 41/53/6
f 43/55/2 45/60/2 46/62/2 44/58/2
f 45/60/1 49/65/1 50/66/1 46/62/1
f 49/65/5 47/63/5 48/64/5 50/66/5
f 47/63/3 43/56/3 44/59/3 48/64/3
f 45/61/6 43/57/6 47/63/6 49/65/6
f 32/40/5 56/72/5 55/71/5 52/68/5
f 33/41/3 53/69/3 55/71/3 51/67/3
f 54/70/3 55/71/3 56/72/3 34/42/3
f 34/42/2 60/76/2 59/75/2 54/70/2
f 51/67/2 58/74/2 57/73/2 33/41/2
f 31/39/4 53/69/4 23/31/4 1/1/4
