# Blender 3.4.1
# www.blender.org
mtllib Drawer_Door_2__Old_-_Small_.mtl
o Drawer_Door_2_(Old_-_Small)
v 0.003761 0.047931 -0.035072
v 0.003761 0.778526 -0.035072
v 0.003761 0.047931 0.000646
v 0.003761 0.778526 0.000646
v -0.255842 0.047931 0.000646
v -0.255842 0.778526 0.000646
v -0.022398 0.752367 0.000646
v -0.229683 0.752367 0.000646
v -0.229683 0.079497 0.000646
v -0.022398 0.079497 0.000646
v -0.039624 0.735142 0.010004
v -0.039624 0.096723 0.010004
v -0.194175 0.096723 0.010004
v -0.204986 0.292262 0.053558
v -0.216941 0.292262 0.053558
v -0.204986 0.278787 0.053558
v -0.216941 0.278787 0.053558
v -0.204986 0.292262 -0.003692
v -0.216941 0.292262 -0.003692
v -0.204986 0.278787 -0.003692
v -0.216941 0.278787 -0.003692
v -0.203138 0.325747 0.048390
v -0.218789 0.325747 0.048390
v -0.203138 0.138118 0.048169
v -0.218789 0.138118 0.048169
v -0.198714 0.315640 0.032555
v -0.223213 0.315640 0.032555
v -0.198714 0.148404 0.031710
v -0.223213 0.148404 0.031710
v -0.022398 0.752367 0.010004
v -0.229683 0.752367 0.010004
v -0.022398 0.079497 0.010004
v -0.229683 0.079497 0.010004
v -0.194175 0.607458 0.010004
v -0.194175 0.479774 0.010004
v -0.194175 0.352090 0.010004
v -0.194175 0.224407 0.010004
v -0.039624 0.607458 0.010004
v -0.039624 0.479774 0.010004
v -0.039624 0.352090 0.010004
v -0.039624 0.224407 0.010004
v -0.187428 0.614205 0.010004
v -0.046371 0.614205 0.010004
v -0.187428 0.600711 0.010004
v -0.187428 0.486521 0.010004
v -0.046371 0.486521 0.010004
v -0.046371 0.600711 0.010004
v -0.187428 0.473027 0.010004
v -0.187428 0.358837 0.010004
v -0.046371 0.358837 0.010004
v -0.046371 0.473027 0.010004
v -0.187428 0.345343 0.010004
v -0.187428 0.231154 0.010004
v -0.046371 0.231154 0.010004
v -0.046371 0.345343 0.010004
v -0.187428 0.217660 0.010004
v -0.187428 0.103470 0.010004
v -0.046371 0.103470 0.010004
v -0.046371 0.217660 0.010004
v -0.187428 0.614205 0.001032
v -0.046371 0.614205 0.001032
v -0.187428 0.600711 0.001032
v -0.187428 0.486521 0.001032
v -0.046371 0.600711 0.001032
v -0.046371 0.486521 0.001032
v -0.187428 0.473027 0.001032
v -0.187428 0.358837 0.001032
v -0.046371 0.473027 0.001032
v -0.046371 0.358837 0.001032
v -0.187428 0.345343 0.001032
v -0.187428 0.231154 0.001032
v -0.046371 0.345343 0.001032
v -0.046371 0.231154 0.001032
v -0.187428 0.217660 0.001032
v -0.187428 0.103470 0.001032
v -0.046371 0.217660 0.001032
v -0.046371 0.103470 0.001032
v -0.187428 0.702798 0.010004
v -0.161831 0.728395 0.010004
v -0.194144 0.735110 0.010004
v -0.179931 0.720898 0.010004
v -0.071968 0.728395 0.010004
v -0.046371 0.702798 0.010004
v -0.053868 0.720897 0.010004
v -0.161831 0.728395 0.001032
v -0.187428 0.702798 0.001032
v -0.179931 0.720898 0.001032
v -0.046371 0.702798 0.001032
v -0.071968 0.728395 0.001032
v -0.053868 0.720897 0.001032
v -0.203138 0.234652 0.057795
v -0.203138 0.270875 0.065091
v -0.218789 0.270875 0.065091
v -0.218789 0.234652 0.057795
v -0.198714 0.268533 0.048343
v -0.198714 0.233265 0.041013
v -0.223213 0.233265 0.041013
v -0.223213 0.268533 0.048343
v -0.203138 0.304534 0.054019
v -0.218789 0.304534 0.054019
v -0.223213 0.297830 0.038670
v -0.198714 0.297830 0.038670
v -0.203138 0.166799 0.040014
v -0.203138 0.197802 0.039378
v -0.218789 0.197802 0.039378
v -0.218789 0.166799 0.040014
v -0.198714 0.203567 0.024525
v -0.198714 0.172929 0.024804
v -0.223213 0.172929 0.024804
v -0.223213 0.203567 0.024525
v -0.255842 0.047931 -0.035072
v -0.255842 0.778526 -0.035072
vn 1.0000 -0.0000 -0.0000
vn -0.0000 1.0000 -0.0000
vn -0.0000 -0.0000 1.0000
vn -0.0000 -1.0000 -0.0000
vn -1.0000 -0.0000 -0.0000
vn -0.0000 -0.0000 -1.0000
vn 0.6173 0.2264 0.7534
vn -0.6173 0.2264 0.7534
vn -0.5672 0.0504 0.8220
vn 0.5672 0.0504 0.8220
vn -0.7926 -0.1982 -0.5766
vn 0.7926 -0.1982 -0.5766
vn 0.8574 -0.0326 -0.5135
vn -0.8574 -0.0326 -0.5135
vn 0.5811 -0.2609 0.7709
vn 0.6504 -0.1654 0.7414
vn 0.7392 0.1644 -0.6532
vn 0.8357 0.1857 -0.5169
vn 0.6128 0.1256 0.7802
vn -0.6128 0.1256 0.7802
vn -0.4859 -0.6905 0.5359
vn 0.4859 -0.6905 0.5359
vn -0.6504 -0.1654 0.7414
vn -0.5811 -0.2609 0.7709
vn -0.8357 0.1857 -0.5169
vn -0.7392 0.1644 -0.6532
vn -0.4910 0.8026 0.3387
vn -0.6707 0.2871 -0.6839
vn 0.7728 -0.0979 -0.6271
vn 0.7448 -0.4499 -0.4929
vn -0.7448 -0.4499 -0.4929
vn -0.7728 -0.0979 -0.6271
vn 0.6707 0.2871 -0.6839
vn 0.4910 0.8026 0.3387
vn 0.3827 -0.9239 -0.0000
vn 0.9239 -0.3827 -0.0000
vn -0.9239 -0.3827 -0.0000
vn -0.3827 -0.9239 -0.0000
vt 0.293266 0.784161
vt 0.282795 0.801394
vt 0.293266 0.784161
vt 0.282795 0.801394
vt 0.293266 0.800549
vt 0.282795 0.801394
vt 0.282795 0.801394
vt 0.279306 0.801394
vt 0.279306 0.801394
vt 0.282356 0.801394
vt 0.272971 0.805727
vt 0.279744 0.801394
vt 0.270359 0.805727
vt 0.279744 0.801394
vt 0.270359 0.805727
vt 0.282356 0.801394
vt 0.272971 0.805727
vt 0.272682 0.805727
vt 0.282067 0.801394
vt 0.272682 0.805727
vt 0.282067 0.801394
vt 0.270648 0.805727
vt 0.280033 0.801394
vt 0.278324 0.801394
vt 0.276798 0.801394
vt 0.278324 0.801394
vt 0.276798 0.801394
vt 0.278324 0.801394
vt 0.276798 0.801394
vt 0.278324 0.801394
vt 0.276798 0.801394
vt 0.307032 0.642986
vt 0.305506 0.642986
vt 0.307032 0.642986
vt 0.305506 0.642986
vt 0.307032 0.642986
vt 0.305506 0.642986
vt 0.307032 0.642986
vt 0.305506 0.642986
vt 0.272971 0.805727
vt 0.270359 0.805727
vt 0.272971 0.805727
vt 0.270359 0.805727
vt 0.270648 0.805727
vt 0.280033 0.801394
vt 0.270648 0.805727
vt 0.280033 0.801394
vt 0.270648 0.805727
vt 0.280033 0.801394
vt 0.270648 0.805727
vt 0.280033 0.801394
vt 0.272682 0.805727
vt 0.282067 0.801394
vt 0.272682 0.805727
vt 0.282067 0.801394
vt 0.272682 0.805727
vt 0.282067 0.801394
vt 0.272682 0.805727
vt 0.282067 0.801394
vt 0.280146 0.801394
vt 0.281954 0.801394
vt 0.280146 0.801394
vt 0.280146 0.801394
vt 0.281954 0.801394
vt 0.281954 0.801394
vt 0.280146 0.801394
vt 0.280146 0.801394
vt 0.281954 0.801394
vt 0.281954 0.801394
vt 0.280146 0.801394
vt 0.280146 0.801394
vt 0.281954 0.801394
vt 0.281954 0.801394
vt 0.280146 0.801394
vt 0.280146 0.801394
vt 0.281954 0.801394
vt 0.281954 0.801394
vt 0.275969 0.787498
vt 0.280146 0.801394
vt 0.277777 0.787498
vt 0.281954 0.801394
vt 0.280146 0.801394
vt 0.275969 0.787498
vt 0.280146 0.801394
vt 0.275969 0.787498
vt 0.277777 0.787498
vt 0.281954 0.801394
vt 0.277777 0.787498
vt 0.281954 0.801394
vt 0.275969 0.787498
vt 0.280146 0.801394
vt 0.275969 0.787498
vt 0.280146 0.801394
vt 0.277777 0.787498
vt 0.281954 0.801394
vt 0.277777 0.787498
vt 0.281954 0.801394
vt 0.275969 0.787498
vt 0.280146 0.801394
vt 0.275969 0.787498
vt 0.280146 0.801394
vt 0.277777 0.787498
vt 0.281954 0.801394
vt 0.277777 0.787498
vt 0.281954 0.801394
vt 0.275969 0.787498
vt 0.280146 0.801394
vt 0.275969 0.787498
vt 0.280146 0.801394
vt 0.277777 0.787498
vt 0.281954 0.801394
vt 0.277777 0.787498
vt 0.281954 0.801394
vt 0.280146 0.801394
vt 0.280537 0.801394
vt 0.270648 0.805727
vt 0.280034 0.801394
vt 0.280146 0.801394
vt 0.281525 0.801394
vt 0.281954 0.801394
vt 0.281884 0.801394
vt 0.276399 0.787498
vt 0.280576 0.801394
vt 0.275969 0.787498
vt 0.280146 0.801394
vt 0.276011 0.787498
vt 0.280188 0.801394
vt 0.277777 0.787498
vt 0.281954 0.801394
vt 0.277348 0.787498
vt 0.281525 0.801394
vt 0.277735 0.787498
vt 0.281912 0.801394
vt 0.307032 0.642986
vt 0.307032 0.642986
vt 0.305506 0.642986
vt 0.305506 0.642986
vt 0.307032 0.642986
vt 0.307032 0.642986
vt 0.305506 0.642986
vt 0.305506 0.642986
vt 0.307032 0.642986
vt 0.305506 0.642986
vt 0.305506 0.642986
vt 0.307032 0.642986
vt 0.307032 0.642986
vt 0.307032 0.642986
vt 0.305506 0.642986
vt 0.305506 0.642986
vt 0.307032 0.642986
vt 0.307032 0.642986
vt 0.305506 0.642986
vt 0.305506 0.642986
vt 0.279306 0.801394
vt 0.279306 0.801394
s 0
usemtl Palette
f 2/3/1 4/7/1 3/5/1 1/1/1
f 7/11/2 8/13/2 31/41/2 30/40/2
f 4/7/3 6/9/3 8/12/3 7/10/3
f 6/9/3 5/8/3 9/14/3 8/12/3
f 5/8/3 3/6/3 10/16/3 9/14/3
f 3/6/3 4/7/3 7/10/3 10/16/3
f 9/15/4 10/17/4 32/42/4 33/43/4
f 10/17/1 7/11/1 30/40/1 32/42/1
f 8/13/5 9/15/5 33/43/5 31/41/5
f 1/2/6 111/154/6 112/155/6 2/4/6
s 1
f 99/142/7 100/143/8 93/136/9 92/135/10
s 0
f 15/25/5 19/29/5 21/31/5 17/27/5
f 14/24/2 18/28/2 19/29/2 15/25/2
f 17/27/4 21/31/4 20/30/4 16/26/4
f 16/26/1 20/30/1 18/28/1 14/24/1
s 1
f 101/144/11 102/145/12 95/138/13 98/141/14
f 91/134/15 104/147/16 107/150/17 96/139/18
f 103/146/19 106/149/20 25/35/21 24/34/22
f 105/148/23 94/137/24 97/140/25 110/153/26
f 102/145/12 99/142/7 92/135/10 95/138/13
f 100/143/8 23/33/27 27/37/28 101/144/11
f 108/151/29 28/38/30 29/39/31 109/152/32
f 96/139/18 107/150/17 110/153/26 97/140/25
f 24/34/22 25/35/21 29/39/31 28/38/30
f 26/36/33 102/145/12 101/144/11 27/37/28
f 23/33/27 22/32/34 26/36/33 27/37/28
f 25/35/21 106/149/20 109/152/32 29/39/31
f 100/143/8 101/144/11 98/141/14 93/136/9
s 0
f 80/116/3 11/18/3 30/40/3 31/41/3
f 11/18/3 38/52/3 39/54/3 40/56/3 41/58/3 12/20/3 32/42/3 30/40/3
f 13/22/3 37/50/3 36/48/3 35/46/3 34/44/3 80/116/3 31/41/3 33/43/3
f 12/20/3 13/22/3 33/43/3 32/42/3
f 52/70/1 53/71/1 71/101/1 70/99/1
f 45/63/2 46/64/2 65/89/2 63/84/2
f 47/65/4 44/62/4 62/82/4 64/87/4
f 58/76/5 59/77/5 76/111/5 77/113/5
f 44/62/1 45/63/1 63/84/1 62/82/1
f 82/119/4 79/115/4 85/123/4 89/131/4
f 34/45/3 38/53/3 43/61/3 42/60/3
f 80/117/3 34/45/3 42/60/3 78/114/3
f 34/45/3 35/47/3 45/63/3 44/62/3
f 35/47/3 39/55/3 46/64/3 45/63/3
f 39/55/3 38/53/3 47/65/3 46/64/3
f 38/53/3 34/45/3 44/62/3 47/65/3
f 35/47/3 36/49/3 49/67/3 48/66/3
f 36/49/3 40/57/3 50/68/3 49/67/3
f 40/57/3 39/55/3 51/69/3 50/68/3
f 39/55/3 35/47/3 48/66/3 51/69/3
f 36/49/3 37/51/3 53/71/3 52/70/3
f 37/51/3 41/59/3 54/72/3 53/71/3
f 41/59/3 40/57/3 55/73/3 54/72/3
f 40/57/3 36/49/3 52/70/3 55/73/3
f 37/51/3 13/23/3 57/75/3 56/74/3
f 13/23/3 12/21/3 58/76/3 57/75/3
f 12/21/3 41/59/3 59/77/3 58/76/3
f 41/59/3 37/51/3 56/74/3 59/77/3
f 85/122/3 87/126/3 86/124/3 60/78/3 61/80/3 88/128/3 90/132/3 89/130/3
f 62/83/3 63/85/3 65/88/3 64/86/3
f 66/90/3 67/92/3 69/96/3 68/94/3
f 70/98/3 71/100/3 73/104/3 72/102/3
f 74/106/3 75/108/3 77/112/3 76/110/3
f 46/64/5 47/65/5 64/87/5 65/89/5
f 55/73/4 52/70/4 70/99/4 72/103/4
f 53/71/2 54/72/2 73/105/2 71/101/2
f 11/19/3 80/117/3 79/115/3 82/119/3
f 54/72/5 55/73/5 72/103/5 73/105/5
f 43/61/5 83/120/5 88/129/5 61/81/5
f 42/60/2 43/61/2 61/81/2 60/79/2
f 48/66/1 49/67/1 67/93/1 66/91/1
f 38/53/3 11/19/3 83/120/3 43/61/3
f 51/69/4 48/66/4 66/91/4 68/95/4
f 49/67/2 50/68/2 69/97/2 67/93/2
f 56/74/1 57/75/1 75/109/1 74/107/1
f 50/68/5 51/69/5 68/95/5 69/97/5
f 59/77/4 56/74/4 74/107/4 76/111/4
f 57/75/2 58/76/2 77/113/2 75/109/2
f 78/114/3 81/118/3 80/117/3
f 81/118/3 79/115/3 80/117/3
f 82/119/3 84/121/3 11/19/3
f 84/121/3 83/120/3 11/19/3
f 85/123/35 79/115/35 81/118/35 87/127/35
f 87/127/36 81/118/36 78/114/36 86/125/36
f 88/129/37 83/120/37 84/121/37 90/133/37
f 90/133/38 84/121/38 82/119/38 89/131/38
f 78/114/1 42/60/1 60/79/1 86/125/1
s 1
f 92/135/10 93/136/9 94/137/24 91/134/15
f 96/139/18 97/140/25 98/141/14 95/138/13
f 91/134/15 96/139/18 95/138/13 92/135/10
f 93/136/9 98/141/14 97/140/25 94/137/24
f 22/32/34 23/33/27 100/143/8 99/142/7
f 22/32/34 99/142/7 102/145/12 26/36/33
f 104/147/16 105/148/23 106/149/20 103/146/19
f 108/151/29 109/152/32 110/153/26 107/150/17
f 109/152/32 106/149/20 105/148/23 110/153/26
f 103/146/19 108/151/29 107/150/17 104/147/16
f 103/146/19 24/34/22 28/38/30 108/151/29
s 0
f 5/8/5 6/9/5 112/155/5 111/154/5
f 6/9/2 4/7/2 2/4/2 112/155/2
f 3/6/4 5/8/4 111/154/4 1/2/4
s 1
f 94/137/24 105/148/23 104/147/16 91/134/15
