# Blender 3.4.1
# www.blender.org
mtllib Drawer_1.mtl
o Drawer_1
v 0.500000 0.012693 -0.299910
v 0.500000 0.012693 0.299910
v 0.500000 2.487307 -0.299910
v 0.500000 2.012693 -0.299910
v 0.451314 2.439864 0.299910
v 0.451314 2.036415 0.299910
v 0.500000 2.487307 0.299910
v 0.500000 2.012693 0.299910
v 0.451314 2.439864 -0.299910
v 0.451314 2.036415 -0.299910
v 0.500000 1.323667 -0.299910
v 0.451314 1.988972 0.299910
v 0.451314 1.371110 0.299910
v 0.500000 1.323667 0.299910
v 0.451314 1.988972 -0.299910
v 0.451314 1.371110 -0.299910
v 0.460181 1.095489 -0.252298
v 0.460181 1.269540 -0.252298
v 0.460181 0.845489 -0.252298
v 0.460181 1.019540 -0.252298
v 0.460181 0.595489 -0.252298
v 0.460181 0.769540 -0.252298
v 0.460181 0.345489 -0.252298
v 0.460181 0.519540 -0.252298
v 0.460181 0.095489 -0.252298
v 0.460181 0.269540 -0.252298
v 0.460181 0.269540 0.299910
v 0.460181 0.095489 0.299910
v 0.460181 1.095489 0.299910
v 0.460181 1.269540 0.299910
v 0.460181 0.845489 0.299910
v 0.460181 0.769540 0.299910
v 0.460181 1.019540 0.299910
v 0.460181 0.345489 0.299910
v 0.460181 0.519540 0.299910
v 0.460181 0.595489 0.299910
v 0.500000 0.269540 -0.299910
v 0.500000 0.345489 -0.299910
v 0.500000 0.519540 -0.299910
v 0.500000 0.595489 -0.299910
v 0.500000 0.769540 -0.299910
v 0.500000 0.845489 -0.299910
v 0.500000 1.019540 -0.299910
v 0.500000 1.095489 -0.299910
v 0.500000 1.269540 -0.299910
v 0.500000 0.269540 0.299910
v 0.500000 0.345489 0.299910
v 0.500000 0.519540 0.299910
v 0.500000 0.595489 0.299910
v 0.500000 0.769540 0.299910
v 0.500000 0.845489 0.299910
v 0.500000 1.019540 0.299910
v 0.500000 1.095489 0.299910
v 0.500000 1.269540 0.299910
v -0.500000 0.012693 -0.299910
v -0.500000 0.012693 0.299910
v -0.500000 2.487307 -0.299910
v -0.500000 2.012693 -0.299910
v -0.451314 2.439864 0.299910
v -0.451314 2.036415 0.299910
v -0.500000 2.487307 0.299910
v -0.500000 2.012693 0.299910
v -0.451314 2.439864 -0.299910
v -0.451314 2.036415 -0.299910
v -0.500000 1.323667 -0.299910
v -0.451314 1.988972 0.299910
v -0.451314 1.371110 0.299910
v -0.500000 1.323667 0.299910
v -0.451314 1.988972 -0.299910
v -0.451314 1.371110 -0.299910
v -0.460181 1.095489 -0.252298
v -0.460181 1.269540 -0.252298
v -0.460181 0.845489 -0.252298
v -0.460181 1.019540 -0.252298
v -0.460181 0.595489 -0.252298
v -0.460181 0.769540 -0.252298
v -0.460181 0.345489 -0.252298
v -0.460181 0.519540 -0.252298
v -0.460181 0.095489 -0.252298
v -0.460181 0.269540 -0.252298
v -0.460181 0.269540 0.299910
v -0.460181 0.095489 0.299910
v -0.460181 1.095489 0.299910
v -0.460181 1.269540 0.299910
v -0.460181 0.845489 0.299910
v -0.460181 0.769540 0.299910
v -0.460181 1.019540 0.299910
v -0.460181 0.345489 0.299910
v -0.460181 0.519540 0.299910
v -0.460181 0.595489 0.299910
v -0.500000 0.269540 -0.299910
v -0.500000 0.345489 -0.299910
v -0.500000 0.519540 -0.299910
v -0.500000 0.595489 -0.299910
v -0.500000 0.769540 -0.299910
v -0.500000 0.845489 -0.299910
v -0.500000 1.019540 -0.299910
v -0.500000 1.095489 -0.299910
v -0.500000 1.269540 -0.299910
v -0.500000 0.269540 0.299910
v -0.500000 0.345489 0.299910
v -0.500000 0.519540 0.299910
v -0.500000 0.595489 0.299910
v -0.500000 0.769540 0.299910
v -0.500000 0.845489 0.299910
v -0.500000 1.019540 0.299910
v -0.500000 1.095489 0.299910
v -0.500000 1.269540 0.299910
vn -0.0000 -0.0000 -1.0000
vn 1.0000 -0.0000 -0.0000
vn -0.0000 -0.0000 1.0000
vn -0.0000 1.0000 -0.0000
vn -1.0000 -0.0000 -0.0000
vn -0.0000 -1.0000 -0.0000
vt 0.283399 0.786228
vt 0.283399 0.801394
vt 0.298565 0.786228
vt 0.298565 0.786228
vt 0.283399 0.786228
vt 0.298427 0.801394
vt 0.283537 0.801394
vt 0.298565 0.801394
vt 0.298565 0.801394
vt 0.283399 0.801394
vt 0.298427 0.801394
vt 0.283537 0.801394
vt 0.283399 0.786228
vt 0.298427 0.801394
vt 0.283537 0.801394
vt 0.283399 0.801394
vt 0.298427 0.801394
vt 0.283537 0.801394
vt 0.293266 0.784161
vt 0.293266 0.784161
vt 0.293266 0.784161
vt 0.293266 0.784161
vt 0.293266 0.784161
vt 0.293266 0.784161
vt 0.293266 0.784161
vt 0.293266 0.784161
vt 0.293266 0.784161
vt 0.293266 0.784161
vt 0.282795 0.801394
vt 0.293266 0.800549
vt 0.293266 0.800549
vt 0.282795 0.801394
vt 0.293266 0.800549
vt 0.282795 0.801394
vt 0.293266 0.800549
vt 0.282795 0.801394
vt 0.293266 0.800549
vt 0.282795 0.801394
vt 0.293266 0.800549
vt 0.282795 0.801394
vt 0.293266 0.800549
vt 0.282795 0.801394
vt 0.293266 0.800549
vt 0.282795 0.801394
vt 0.293266 0.800549
vt 0.282795 0.801394
vt 0.293266 0.800549
vt 0.282795 0.801394
vt 0.283399 0.786228
vt 0.283399 0.786228
vt 0.283399 0.786228
vt 0.283399 0.786228
vt 0.283399 0.786228
vt 0.283399 0.786228
vt 0.283399 0.786228
vt 0.283399 0.786228
vt 0.283399 0.786228
vt 0.283399 0.801394
vt 0.283399 0.801394
vt 0.283399 0.801394
vt 0.283399 0.801394
vt 0.283399 0.801394
vt 0.283399 0.801394
vt 0.283399 0.801394
vt 0.283399 0.801394
vt 0.283399 0.801394
vt 0.283399 0.786228
vt 0.283399 0.801394
vt 0.298565 0.786228
vt 0.283399 0.786228
vt 0.298565 0.786228
vt 0.298427 0.801394
vt 0.283537 0.801394
vt 0.298565 0.801394
vt 0.283399 0.801394
vt 0.298565 0.801394
vt 0.298427 0.801394
vt 0.283537 0.801394
vt 0.283399 0.786228
vt 0.298427 0.801394
vt 0.283537 0.801394
vt 0.283399 0.801394
vt 0.298427 0.801394
vt 0.283537 0.801394
vt 0.293266 0.784161
vt 0.293266 0.784161
vt 0.293266 0.784161
vt 0.293266 0.784161
vt 0.293266 0.784161
vt 0.293266 0.784161
vt 0.293266 0.784161
vt 0.293266 0.784161
vt 0.293266 0.784161
vt 0.293266 0.784161
vt 0.293266 0.800549
vt 0.282795 0.801394
vt 0.293266 0.800549
vt 0.282795 0.801394
vt 0.293266 0.800549
vt 0.282795 0.801394
vt 0.293266 0.800549
vt 0.282795 0.801394
vt 0.293266 0.800549
vt 0.282795 0.801394
vt 0.293266 0.800549
vt 0.282795 0.801394
vt 0.293266 0.800549
vt 0.282795 0.801394
vt 0.293266 0.800549
vt 0.282795 0.801394
vt 0.293266 0.800549
vt 0.282795 0.801394
vt 0.293266 0.800549
vt 0.282795 0.801394
vt 0.283399 0.786228
vt 0.283399 0.786228
vt 0.283399 0.786228
vt 0.283399 0.786228
vt 0.283399 0.786228
vt 0.283399 0.786228
vt 0.283399 0.786228
vt 0.283399 0.786228
vt 0.283399 0.786228
vt 0.283399 0.801394
vt 0.283399 0.801394
vt 0.283399 0.801394
vt 0.283399 0.801394
vt 0.283399 0.801394
vt 0.283399 0.801394
vt 0.283399 0.801394
vt 0.283399 0.801394
vt 0.283399 0.801394
s 0
usemtl Palette
f 65/79/1 70/84/1 16/18/1 11/13/1
f 45/57/2 11/13/2 14/16/2 54/66/2
f 15/17/1 69/83/1 58/71/1 4/4/1
f 27/29/3 46/58/3 47/59/3 34/44/3
f 4/5/2 3/3/2 7/8/2 8/10/2
f 8/9/3 62/76/3 66/80/3 12/14/3
f 9/11/1 63/77/1 57/69/1 3/3/1
f 67/81/3 68/82/3 14/16/3 13/15/3
f 5/6/3 6/7/3 8/10/3 7/8/3
f 10/12/4 64/78/4 60/73/4 6/7/4
f 26/28/3 80/94/3 79/93/3 25/27/3
f 4/5/1 10/12/1 9/11/1 3/3/1
f 6/7/5 5/6/5 9/11/5 10/12/5
f 45/57/1 99/123/1 65/79/1 11/13/1
f 22/24/3 76/90/3 75/89/3 21/23/3
f 11/13/2 4/4/2 8/9/2 14/16/2
f 16/18/4 70/84/4 67/81/4 13/15/4
f 90/114/3 89/112/3 35/46/3 36/48/3
f 12/14/3 13/15/3 14/16/3 8/9/3
f 90/113/4 36/47/4 21/23/4 75/89/4
f 83/100/3 87/108/3 33/42/3 29/34/3
f 11/13/1 16/18/1 15/17/1 4/4/1
f 13/15/5 12/14/5 15/17/5 16/18/5
f 82/97/4 28/31/4 25/27/4 79/93/4
f 60/73/3 62/75/3 8/10/3 6/7/3
f 68/82/3 84/102/3 30/36/3 14/16/3
f 24/26/3 78/92/3 77/91/3 23/25/3
f 18/20/5 17/19/5 29/33/5 30/35/5
f 66/80/6 69/83/6 15/17/6 12/14/6
f 7/8/3 61/74/3 59/72/3 5/6/3
f 59/72/6 63/77/6 9/11/6 5/6/6
f 20/22/5 19/21/5 31/37/5 33/41/5
f 30/35/6 84/101/6 72/86/6 18/20/6
f 2/2/6 56/68/6 55/67/6 1/1/6
f 56/68/3 2/2/3 28/32/3 82/98/3
f 22/24/5 21/23/5 36/47/5 32/39/5
f 20/22/3 74/88/3 73/87/3 19/21/3
f 88/110/3 81/96/3 27/29/3 34/44/3
f 32/39/6 86/105/6 76/90/6 22/24/6
f 24/26/5 23/25/5 34/43/5 35/45/5
f 85/103/4 31/37/4 19/21/4 73/87/4
f 83/99/4 29/33/4 17/19/4 71/85/4
f 35/45/6 89/111/6 78/92/6 24/26/6
f 26/28/5 25/27/5 28/31/5 27/30/5
f 33/41/6 87/107/6 74/88/6 20/22/6
f 88/109/4 34/43/4 23/25/4 77/91/4
f 37/49/1 91/115/1 92/116/1 38/50/1
f 38/50/1 92/116/1 93/117/1 39/51/1
f 39/51/1 93/117/1 94/118/1 40/52/1
f 40/52/1 94/118/1 95/119/1 41/53/1
f 41/53/1 95/119/1 96/120/1 42/54/1
f 42/54/1 96/120/1 97/121/1 43/55/1
f 43/55/1 97/121/1 98/122/1 44/56/1
f 44/56/1 98/122/1 99/123/1 45/57/1
f 1/1/2 37/49/2 46/58/2 2/2/2
f 37/49/2 38/50/2 47/59/2 46/58/2
f 38/50/2 39/51/2 48/60/2 47/59/2
f 39/51/2 40/52/2 49/61/2 48/60/2
f 40/52/2 41/53/2 50/62/2 49/61/2
f 41/53/2 42/54/2 51/63/2 50/62/2
f 42/54/2 43/55/2 52/64/2 51/63/2
f 43/55/2 44/56/2 53/65/2 52/64/2
f 44/56/2 45/57/2 54/66/2 53/65/2
f 34/44/3 47/59/3 48/60/3 35/46/3
f 46/58/3 27/29/3 28/32/3 2/2/3
f 1/1/1 55/67/1 91/115/1 37/49/1
f 35/46/3 48/60/3 49/61/3 36/48/3
f 49/61/3 50/62/3 32/40/3 36/48/3
f 57/69/4 61/74/4 7/8/4 3/3/4
f 32/40/3 50/62/3 51/63/3 31/38/3
f 51/63/3 52/64/3 33/42/3 31/38/3
f 58/70/1 64/78/1 10/12/1 4/5/1
f 33/42/3 52/64/3 53/65/3 29/34/3
f 53/65/3 54/66/3 30/36/3 29/34/3
f 85/104/3 86/106/3 32/40/3 31/38/3
f 30/36/3 54/66/3 14/16/3
f 27/30/6 81/95/6 80/94/6 26/28/6
f 99/123/5 108/132/5 68/82/5 65/79/5
f 81/96/3 88/110/3 101/125/3 100/124/3
f 58/70/5 62/75/5 61/74/5 57/69/5
f 59/72/3 61/74/3 62/75/3 60/73/3
f 58/70/1 57/69/1 63/77/1 64/78/1
f 60/73/2 64/78/2 63/77/2 59/72/2
f 65/79/5 68/82/5 62/76/5 58/71/5
f 66/80/3 62/76/3 68/82/3 67/81/3
f 65/79/1 58/71/1 69/83/1 70/84/1
f 67/81/2 70/84/2 69/83/2 66/80/2
f 72/86/2 84/101/2 83/99/2 71/85/2
f 74/88/2 87/107/2 85/103/2 73/87/2
f 76/90/2 86/105/2 90/113/2 75/89/2
f 78/92/2 89/111/2 88/109/2 77/91/2
f 80/94/2 81/95/2 82/97/2 79/93/2
f 55/67/5 56/68/5 100/124/5 91/115/5
f 91/115/5 100/124/5 101/125/5 92/116/5
f 92/116/5 101/125/5 102/126/5 93/117/5
f 93/117/5 102/126/5 103/127/5 94/118/5
f 94/118/5 103/127/5 104/128/5 95/119/5
f 95/119/5 104/128/5 105/129/5 96/120/5
f 96/120/5 105/129/5 106/130/5 97/121/5
f 97/121/5 106/130/5 107/131/5 98/122/5
f 98/122/5 107/131/5 108/132/5 99/123/5
f 88/110/3 89/112/3 102/126/3 101/125/3
f 100/124/3 56/68/3 82/98/3 81/96/3
f 89/112/3 90/114/3 103/127/3 102/126/3
f 103/127/3 90/114/3 86/106/3 104/128/3
f 86/106/3 85/104/3 105/129/3 104/128/3
f 105/129/3 85/104/3 87/108/3 106/130/3
f 87/108/3 83/100/3 107/131/3 106/130/3
f 107/131/3 83/100/3 84/102/3 108/132/3
f 84/102/3 68/82/3 108/132/3
f 18/20/3 72/86/3 71/85/3 17/19/3
