# Blender 3.4.1
# www.blender.org
mtllib Faucet_Ac_1_-_Base.mtl
o Faucet_Ac_1_-_Base
v -0.000000 0.007896 -0.031624
v -0.015812 0.007896 -0.027387
v -0.027387 0.007896 -0.015812
v -0.031624 0.007896 -0.000000
v -0.027387 0.007896 0.015812
v -0.015812 0.007896 0.027387
v -0.000000 0.007896 0.031624
v 0.015812 0.007896 0.027387
v 0.027387 0.007896 0.015812
v 0.031624 0.007896 -0.000000
v 0.027387 0.007896 -0.015812
v 0.015812 0.007896 -0.027387
v -0.015812 -0.004560 -0.027387
v -0.000000 -0.004560 -0.031624
v -0.027387 -0.004560 -0.015812
v -0.031624 -0.004560 -0.000000
v -0.027387 -0.004560 0.015812
v -0.015812 -0.004560 0.027387
v -0.000000 -0.004560 0.031624
v 0.015812 -0.004560 0.027387
v 0.027387 -0.004560 0.015812
v 0.031624 -0.004560 -0.000000
v 0.027387 -0.004560 -0.015812
v 0.015812 -0.004560 -0.027387
v -0.015465 0.007896 0.015486
v 0.015465 0.007896 0.015486
v -0.015465 0.007896 -0.015444
v 0.015465 0.007896 -0.015444
v -0.009324 0.046474 -0.010003
v -0.009324 0.056969 0.010046
v 0.009324 0.056969 0.010046
v 0.009324 0.046474 -0.010003
v -0.015465 0.043626 -0.015444
v -0.015465 0.059817 0.015486
v 0.015465 0.059817 0.015486
v 0.015465 0.043626 -0.015444
v 0.006441 0.062577 -0.003677
v 0.006441 0.068003 0.010046
v -0.006443 0.068003 0.010046
v -0.006443 0.062577 -0.003677
vn -0.0000 1.0000 -0.0000
vn -0.6557 0.6532 0.3786
vn -0.7572 0.6532 -0.0000
vn -1.0000 -0.0000 -0.0000
vn -0.8660 -0.0000 0.5000
vn 0.3786 0.6532 -0.6557
vn 0.6557 0.6532 -0.3786
vn 0.8660 -0.0000 -0.5000
vn 0.5000 -0.0000 -0.8660
vn -0.3786 0.6532 -0.6557
vn -0.0000 0.6532 -0.7572
vn -0.0000 -0.0000 -1.0000
vn -0.5000 -0.0000 -0.8660
vn 0.6557 0.6532 0.3786
vn 0.3786 0.6532 0.6557
vn 0.5000 -0.0000 0.8660
vn 0.8660 -0.0000 0.5000
vn -0.3786 0.6532 0.6557
vn -0.5000 -0.0000 0.8660
vn -0.6557 0.6532 -0.3786
vn -0.8660 -0.0000 -0.5000
vn 0.7572 0.6532 -0.0000
vn 1.0000 -0.0000 -0.0000
vn -0.0000 0.6532 0.7572
vn -0.0000 -0.0000 1.0000
vn -0.0000 -1.0000 -0.0000
vn -0.9669 0.2307 -0.1088
vn -0.0000 0.8860 -0.4638
vn -0.0000 0.3657 -0.9307
vn -0.0000 0.9299 -0.3677
vn 0.9669 0.2308 -0.1088
vt 0.213542 0.781983
vt 0.213542 0.781983
vt 0.213542 0.781983
vt 0.213542 0.781983
vt 0.213542 0.781983
vt 0.213542 0.781983
vt 0.213542 0.781983
vt 0.213542 0.781983
vt 0.213542 0.781983
vt 0.213542 0.781983
vt 0.213542 0.781983
vt 0.213542 0.781983
vt 0.213542 0.781983
vt 0.213542 0.781983
vt 0.213542 0.781983
vt 0.213542 0.781983
vt 0.213542 0.781983
vt 0.213542 0.781983
vt 0.213542 0.781983
vt 0.213542 0.781983
vt 0.213542 0.781983
vt 0.213542 0.781983
vt 0.213542 0.781983
vt 0.213542 0.781983
vt 0.101302 0.858546
vt 0.151302 0.858546
vt 0.101302 0.908546
vt 0.151302 0.908546
vt 0.111229 0.899751
vt 0.111229 0.867341
vt 0.141375 0.867341
vt 0.141375 0.899751
vt 0.101302 0.908546
vt 0.101302 0.858546
vt 0.151302 0.858546
vt 0.151302 0.908546
vt 0.141375 0.899751
vt 0.141375 0.867341
vt 0.111229 0.867341
vt 0.111229 0.899751
s 0
usemtl Palette
f 2/2/1 3/3/1 4/4/1 5/5/1 6/6/1 7/7/1 8/8/1 9/9/1 10/10/1 11/11/1 12/12/1 1/1/1
s 1
f 5/5/2 4/4/3 16/16/4 17/17/5
f 12/12/6 11/11/7 23/23/8 24/24/9
f 2/2/10 1/1/11 14/14/12 13/13/13
f 9/9/14 8/8/15 20/20/16 21/21/17
f 6/6/18 5/5/2 17/17/5 18/18/19
f 1/1/11 12/12/6 24/24/9 14/14/12
f 3/3/20 2/2/10 13/13/13 15/15/21
f 10/10/22 9/9/14 21/21/17 22/22/23
f 7/7/24 6/6/18 18/18/19 19/19/25
f 4/4/3 3/3/20 15/15/21 16/16/4
f 11/11/7 10/10/22 22/22/23 23/23/8
f 8/8/15 7/7/24 19/19/25 20/20/16
s 0
f 25/25/26 27/27/26 28/28/26 26/26/26
f 28/28/12 27/27/12 33/33/12 36/36/12
f 25/25/25 26/26/25 35/35/25 34/34/25
f 26/26/23 28/28/23 36/36/23 35/35/23
f 27/27/4 25/25/4 34/34/4 33/33/4
f 29/29/27 30/30/27 39/39/27 40/40/27
f 30/30/28 29/29/28 33/33/28 34/34/28
f 31/31/28 30/30/28 34/34/28 35/35/28
f 32/32/28 31/31/28 35/35/28 36/36/28
f 29/29/28 32/32/28 36/36/28 33/33/28
f 32/32/29 29/29/29 40/40/29 37/37/29
f 30/30/25 31/31/25 38/38/25 39/39/25
f 40/40/30 39/39/30 38/38/30 37/37/30
f 31/31/31 32/32/31 37/37/31 38/38/31
