# Blender 3.4.1
# www.blender.org
mtllib Faucet_1.mtl
o Faucet_1
v -0.052560 0.010520 0.039139
v 0.052560 0.010520 0.039139
v -0.023254 0.010520 -0.033653
v 0.023254 0.010520 -0.033653
v -0.023254 -0.005266 -0.045417
v -0.052560 -0.005266 0.039139
v 0.052560 -0.005266 0.039139
v 0.023254 -0.005266 -0.045417
v -0.025914 0.010623 0.019445
v 0.025914 0.010623 0.019445
v -0.018510 0.010520 -0.019436
v 0.018510 0.010520 -0.019436
v -0.018510 0.108185 0.168529
v 0.018510 0.108185 0.168529
v 0.025914 0.076958 0.168529
v -0.025914 0.076958 0.168529
v -0.025914 0.076958 0.050451
v 0.025914 0.076958 0.050451
v 0.018510 0.108083 0.023593
v -0.018510 0.108083 0.023593
v 0.000000 0.072279 0.131130
v -0.011712 0.072279 0.135982
v -0.016563 0.072279 0.147694
v -0.011712 0.072279 0.159406
v 0.000000 0.072279 0.164257
v 0.011712 0.072279 0.159406
v 0.016563 0.072279 0.147694
v 0.011712 0.072279 0.135982
v -0.011712 0.080753 0.135982
v -0.000000 0.080753 0.131130
v -0.016563 0.080753 0.147694
v -0.011712 0.080753 0.159406
v 0.000000 0.080753 0.164257
v 0.011712 0.080753 0.159406
v 0.016563 0.080753 0.147694
v 0.011712 0.080753 0.135982
vn -0.0000 1.0000 -0.0000
vn -0.0000 0.5975 -0.8018
vn -0.0000 -0.0000 1.0000
vn 0.9293 0.1290 -0.3461
vn -0.9293 0.1290 -0.3461
vn -0.0000 0.4035 -0.9150
vn 0.9799 0.0822 -0.1819
vn -0.0000 -0.4234 0.9059
vn -0.0000 1.0000 -0.0007
vn -0.0000 -1.0000 -0.0000
vn -0.9799 0.0822 -0.1819
vn 0.9729 0.2310 -0.0001
vn -0.9729 0.2310 -0.0001
vn 0.9239 -0.0000 0.3827
vn -0.3827 -0.0000 0.9239
vn -0.9239 -0.0000 -0.3827
vn 0.9239 -0.0000 -0.3827
vn 0.3827 -0.0000 0.9239
vn -0.9239 -0.0000 0.3827
vn -0.3827 -0.0000 -0.9239
vn 0.3827 -0.0000 -0.9239
vt 0.188542 0.770004
vt 0.238542 0.770004
vt 0.188542 0.820004
vt 0.238542 0.820004
vt 0.188542 0.820004
vt 0.188542 0.770004
vt 0.238542 0.770004
vt 0.238542 0.820004
vt 0.123698 0.888754
vt 0.123698 0.888754
vt 0.123698 0.888754
vt 0.123698 0.888754
vt 0.123698 0.888754
vt 0.123698 0.888754
vt 0.123698 0.888754
vt 0.123698 0.888754
vt 0.123698 0.888754
vt 0.123698 0.888754
vt 0.123698 0.888754
vt 0.123698 0.888754
vt 0.120873 0.963292
vt 0.123698 0.888754
vt 0.120873 0.963292
vt 0.123698 0.888754
vt 0.120873 0.963292
vt 0.123698 0.888754
vt 0.120873 0.963292
vt 0.123698 0.888754
vt 0.120873 0.963292
vt 0.123698 0.888754
vt 0.120873 0.963292
vt 0.123698 0.888754
vt 0.120873 0.963292
vt 0.123698 0.888754
vt 0.120873 0.963292
vt 0.123698 0.888754
vt 0.123698 0.888754
vt 0.123698 0.888754
vt 0.123698 0.888754
vt 0.123698 0.888754
vt 0.123698 0.888754
vt 0.123698 0.888754
vt 0.123698 0.888754
vt 0.123698 0.888754
s 0
usemtl Palette
f 1/1/1 2/2/1 4/4/1 3/3/1
f 4/4/2 8/8/2 5/5/2 3/3/2
f 1/1/3 6/6/3 7/7/3 2/2/3
f 2/2/4 7/7/4 8/8/4 4/4/4
f 3/3/5 5/5/5 6/6/5 1/1/5
f 12/12/6 11/11/6 20/20/6 19/19/6
f 10/10/7 12/12/7 19/19/7 18/18/7
f 16/16/3 15/15/3 14/14/3 13/13/3
f 9/9/8 10/10/8 18/18/8 17/17/8
f 20/20/9 13/13/9 14/14/9 19/19/9
f 17/17/10 18/18/10 15/15/10 16/16/10
f 11/11/11 9/9/11 17/17/11 20/20/11
f 18/18/12 19/19/12 14/14/12 15/15/12
f 20/20/13 17/17/13 16/16/13 13/13/13
f 22/23/10 21/21/10 28/35/10 27/33/10 26/31/10 25/29/10 24/27/10 23/25/10
f 26/32/14 27/34/14 35/43/14 34/42/14
f 24/28/15 25/30/15 33/41/15 32/40/15
f 22/24/16 23/26/16 31/39/16 29/37/16
f 27/34/17 28/36/17 36/44/17 35/43/17
f 25/30/18 26/32/18 34/42/18 33/41/18
f 23/26/19 24/28/19 32/40/19 31/39/19
f 21/22/20 22/24/20 29/37/20 30/38/20
f 28/36/21 21/22/21 30/38/21 36/44/21
