# Blender 3.4.1
# www.blender.org
mtllib Faucet_Ac_4_-_Top.mtl
o Faucet_Ac_4_-_Top
v -0.000000 -0.021994 -0.035235
v -0.013484 -0.021994 -0.032553
v -0.024915 -0.021994 -0.024915
v -0.032553 -0.021994 -0.013484
v -0.035235 -0.021994 -0.000000
v -0.032553 -0.021994 0.013484
v -0.024915 -0.021994 0.024915
v -0.013484 -0.021994 0.032553
v -0.000000 -0.021994 0.035235
v 0.013484 -0.021994 0.032553
v 0.024915 -0.021994 0.024915
v 0.032553 -0.021994 0.013484
v 0.035235 -0.021994 -0.000000
v 0.032553 -0.021994 -0.013484
v 0.024915 -0.021994 -0.024915
v 0.013484 -0.021994 -0.032553
v -0.006196 0.033488 -0.014959
v 0.000000 0.033488 -0.016192
v -0.011449 0.033488 -0.011449
v -0.014959 0.033488 -0.006196
v -0.016192 0.033488 -0.000000
v -0.014959 0.033488 0.006196
v -0.011449 0.033488 0.011449
v -0.006196 0.033488 0.014959
v 0.000000 0.033488 0.016191
v 0.006196 0.033488 0.014959
v 0.011449 0.033488 0.011449
v 0.014959 0.033488 0.006196
v 0.016192 0.033488 -0.000000
v 0.014959 0.033488 -0.006196
v 0.011449 0.033488 -0.011449
v 0.006196 0.033488 -0.014959
v 0.030408 0.011295 -0.012596
v 0.032914 0.011295 -0.000000
v -0.023273 0.011295 0.023273
v -0.030408 0.011295 0.012595
v 0.023273 0.011295 -0.023274
v -0.012596 0.011295 0.030408
v 0.012596 0.011295 -0.030408
v -0.000000 0.011295 0.032914
v -0.012596 0.011295 -0.030408
v -0.000000 0.011295 -0.032914
v 0.012596 0.011295 0.030408
v -0.023273 0.011295 -0.023274
v 0.023273 0.011295 0.023273
v -0.030408 0.011295 -0.012596
v 0.030408 0.011295 0.012595
v -0.032914 0.011295 -0.000000
v -0.010856 0.033488 -0.026209
v 0.000000 0.033488 -0.028368
v -0.020059 0.033488 -0.020059
v -0.026208 0.033488 -0.010856
v -0.028368 0.033488 -0.000000
v -0.026208 0.033488 0.010856
v -0.020059 0.033488 0.020059
v -0.010856 0.033488 0.026208
v 0.000000 0.033488 0.028368
v 0.010856 0.033488 0.026208
v 0.020059 0.033488 0.020059
v 0.026208 0.033488 0.010856
v 0.028368 0.033488 -0.000000
v 0.026208 0.033488 -0.010856
v 0.020059 0.033488 -0.020059
v 0.010856 0.033488 -0.026209
v -0.006196 0.029590 -0.014959
v 0.000000 0.029590 -0.016192
v -0.011449 0.029590 -0.011449
v -0.014959 0.029590 -0.006196
v -0.016192 0.029590 -0.000000
v -0.014959 0.029590 0.006196
v -0.011449 0.029590 0.011449
v -0.006196 0.029590 0.014959
v 0.000000 0.029590 0.016191
v 0.006196 0.029590 0.014959
v 0.011449 0.029590 0.011449
v 0.014959 0.029590 0.006196
v 0.016192 0.029590 -0.000000
v 0.014959 0.029590 -0.006196
v 0.011449 0.029590 -0.011449
v 0.006196 0.029590 -0.014959
vn -0.0000 -1.0000 -0.0000
vn -0.4647 0.7538 0.4647
vn -0.2515 0.7538 0.6071
vn -0.2856 0.6657 0.6894
vn -0.5276 0.6657 0.5276
vn 0.9909 0.1343 -0.0000
vn 0.9155 0.1343 -0.3792
vn 0.6237 0.7377 -0.2584
vn 0.6751 0.7377 -0.0000
vn -0.9155 0.1343 0.3792
vn -0.7007 0.1343 0.7007
vn -0.4774 0.7377 0.4774
vn -0.6237 0.7377 0.2584
vn 0.7007 0.1343 -0.7007
vn 0.4774 0.7377 -0.4774
vn -0.3792 0.1343 0.9155
vn -0.2584 0.7377 0.6237
vn 0.3792 0.1343 -0.9155
vn 0.2584 0.7377 -0.6237
vn -0.0000 0.1343 0.9909
vn -0.0000 0.7377 0.6751
vn -0.0000 0.1343 -0.9909
vn -0.3792 0.1343 -0.9155
vn -0.2584 0.7377 -0.6237
vn -0.0000 0.7377 -0.6751
vn 0.3792 0.1343 0.9155
vn 0.2584 0.7377 0.6237
vn -0.7007 0.1343 -0.7007
vn -0.4774 0.7377 -0.4774
vn 0.7007 0.1343 0.7007
vn 0.4774 0.7377 0.4774
vn -0.9155 0.1343 -0.3792
vn -0.6237 0.7377 -0.2584
vn 0.9155 0.1343 0.3792
vn 0.6237 0.7377 0.2584
vn -0.9909 0.1343 -0.0000
vn -0.6751 0.7377 -0.0000
vn -0.7686 -0.6397 -0.0000
vn -0.7101 -0.6397 0.2941
vn 0.7101 -0.6397 0.2941
vn 0.7686 -0.6397 -0.0000
vn -0.7101 -0.6397 -0.2941
vn 0.5435 -0.6397 0.5435
vn -0.5435 -0.6397 -0.5435
vn 0.2941 -0.6397 0.7101
vn -0.2941 -0.6397 -0.7101
vn -0.0000 -0.6397 0.7686
vn 0.2941 -0.6397 -0.7101
vn -0.0000 -0.6397 -0.7686
vn -0.2941 -0.6397 0.7101
vn 0.5435 -0.6397 -0.5435
vn -0.5435 -0.6397 0.5435
vn 0.7101 -0.6397 -0.2941
vn -0.0000 1.0000 -0.0000
vn 0.2515 0.7538 -0.6071
vn -0.0000 0.7538 -0.6571
vn -0.0000 0.6657 -0.7462
vn 0.2856 0.6657 -0.6894
vn -0.0000 0.7538 0.6571
vn 0.2515 0.7538 0.6071
vn 0.2856 0.6657 0.6894
vn -0.0000 0.6657 0.7462
vn -0.2515 0.7538 -0.6071
vn -0.2856 0.6657 -0.6894
vn 0.4647 0.7538 0.4647
vn 0.5276 0.6657 0.5276
vn -0.4647 0.7538 -0.4647
vn -0.5276 0.6657 -0.5276
vn 0.6071 0.7538 0.2515
vn 0.6894 0.6657 0.2856
vn -0.6071 0.7538 -0.2515
vn -0.6894 0.6657 -0.2856
vn 0.6571 0.7538 -0.0000
vn 0.7462 0.6657 -0.0000
vn -0.6571 0.7538 -0.0000
vn -0.7462 0.6657 -0.0000
vn 0.6071 0.7538 -0.2515
vn 0.6894 0.6657 -0.2856
vn -0.6071 0.7538 0.2515
vn -0.6894 0.6657 0.2856
vn 0.4647 0.7538 -0.4647
vn 0.5276 0.6657 -0.5276
vt 0.224408 0.785569
vt 0.128632 0.874111
vt 0.224408 0.785569
vt 0.128632 0.874111
vt 0.224408 0.785569
vt 0.128632 0.874111
vt 0.224408 0.785569
vt 0.128632 0.874111
vt 0.224408 0.785569
vt 0.128632 0.874111
vt 0.224408 0.785569
vt 0.128632 0.874111
vt 0.224408 0.785569
vt 0.128632 0.874111
vt 0.224408 0.785569
vt 0.128632 0.874111
vt 0.224408 0.785569
vt 0.128632 0.874111
vt 0.224408 0.785569
vt 0.128632 0.874111
vt 0.224408 0.785569
vt 0.128632 0.874111
vt 0.224408 0.785569
vt 0.128632 0.874111
vt 0.224408 0.785569
vt 0.128632 0.874111
vt 0.224408 0.785569
vt 0.128632 0.874111
vt 0.224408 0.785569
vt 0.128632 0.874111
vt 0.224408 0.785569
vt 0.128632 0.874111
vt 0.128632 0.874111
vt 0.128632 0.874111
vt 0.128632 0.874111
vt 0.128632 0.874111
vt 0.128632 0.874111
vt 0.128632 0.874111
vt 0.128632 0.874111
vt 0.128632 0.874111
vt 0.128632 0.874111
vt 0.128632 0.874111
vt 0.128632 0.874111
vt 0.128632 0.874111
vt 0.128632 0.874111
vt 0.128632 0.874111
vt 0.128632 0.874111
vt 0.128632 0.874111
vt 0.128632 0.874111
vt 0.128632 0.874111
vt 0.128632 0.874111
vt 0.128632 0.874111
vt 0.128632 0.874111
vt 0.128632 0.874111
vt 0.128632 0.874111
vt 0.128632 0.874111
vt 0.128632 0.874111
vt 0.128632 0.874111
vt 0.128632 0.874111
vt 0.128632 0.874111
vt 0.128632 0.874111
vt 0.128632 0.874111
vt 0.128632 0.874111
vt 0.128632 0.874111
vt 0.128632 0.874111
vt 0.128632 0.874111
vt 0.128632 0.874111
vt 0.128632 0.874111
vt 0.128632 0.874111
vt 0.128632 0.874111
vt 0.128632 0.874111
vt 0.128632 0.874111
vt 0.128632 0.874111
vt 0.128632 0.874111
vt 0.128632 0.874111
vt 0.128632 0.874111
vt 0.128632 0.874111
vt 0.128632 0.874111
vt 0.128632 0.874111
vt 0.128632 0.874111
vt 0.128632 0.874111
vt 0.128632 0.874111
vt 0.128632 0.874111
vt 0.128632 0.874111
vt 0.128632 0.874111
vt 0.128632 0.874111
vt 0.128632 0.874111
vt 0.128632 0.874111
vt 0.128632 0.874111
vt 0.128632 0.874111
vt 0.128632 0.874111
vt 0.128632 0.874111
vt 0.128632 0.874111
vt 0.128632 0.874111
vt 0.128632 0.874111
vt 0.128632 0.874111
s 0
usemtl Palette
f 2/3/1 1/1/1 16/31/1 15/29/1 14/27/1 13/25/1 12/23/1 11/21/1 10/19/1 9/17/1 8/15/1 7/13/1 6/11/1 5/9/1 4/7/1 3/5/1
s 1
f 31/47/2 32/48/3 80/96/4 79/95/5
f 34/50/6 33/49/7 62/78/8 61/77/9
f 36/52/10 35/51/11 55/71/12 54/70/13
f 33/49/7 37/53/14 63/79/15 62/78/8
f 35/51/11 38/54/16 56/72/17 55/71/12
f 37/53/14 39/55/18 64/80/19 63/79/15
f 38/54/16 40/56/20 57/73/21 56/72/17
f 42/58/22 41/57/23 49/65/24 50/66/25
f 39/55/18 42/58/22 50/66/25 64/80/19
f 40/56/20 43/59/26 58/74/27 57/73/21
f 41/57/23 44/60/28 51/67/29 49/65/24
f 43/59/26 45/61/30 59/75/31 58/74/27
f 44/60/28 46/62/32 52/68/33 51/67/29
f 45/61/30 47/63/34 60/76/35 59/75/31
f 46/62/32 48/64/36 53/69/37 52/68/33
f 47/63/34 34/50/6 61/77/9 60/76/35
f 48/64/36 36/52/10 54/70/13 53/69/37
f 5/10/38 6/12/39 36/52/10 48/64/36
f 12/24/40 13/26/41 34/50/6 47/63/34
f 4/8/42 5/10/38 48/64/36 46/62/32
f 11/22/43 12/24/40 47/63/34 45/61/30
f 3/6/44 4/8/42 46/62/32 44/60/28
f 10/20/45 11/22/43 45/61/30 43/59/26
f 2/4/46 3/6/44 44/60/28 41/57/23
f 9/18/47 10/20/45 43/59/26 40/56/20
f 16/32/48 1/2/49 42/58/22 39/55/18
f 1/2/49 2/4/46 41/57/23 42/58/22
f 8/16/50 9/18/47 40/56/20 38/54/16
f 15/30/51 16/32/48 39/55/18 37/53/14
f 7/14/52 8/16/50 38/54/16 35/51/11
f 14/28/53 15/30/51 37/53/14 33/49/7
f 6/12/39 7/14/52 35/51/11 36/52/10
f 13/26/41 14/28/53 33/49/7 34/50/6
s 0
f 17/33/54 18/34/54 50/66/54 49/65/54
f 19/35/54 17/33/54 49/65/54 51/67/54
f 20/36/54 19/35/54 51/67/54 52/68/54
f 21/37/54 20/36/54 52/68/54 53/69/54
f 22/38/54 21/37/54 53/69/54 54/70/54
f 23/39/54 22/38/54 54/70/54 55/71/54
f 24/40/54 23/39/54 55/71/54 56/72/54
f 25/41/54 24/40/54 56/72/54 57/73/54
f 26/42/54 25/41/54 57/73/54 58/74/54
f 27/43/54 26/42/54 58/74/54 59/75/54
f 28/44/54 27/43/54 59/75/54 60/76/54
f 29/45/54 28/44/54 60/76/54 61/77/54
f 30/46/54 29/45/54 61/77/54 62/78/54
f 31/47/54 30/46/54 62/78/54 63/79/54
f 32/48/54 31/47/54 63/79/54 64/80/54
f 18/34/54 32/48/54 64/80/54 50/66/54
f 65/81/54 67/83/54 68/84/54 69/85/54 70/86/54 71/87/54 72/88/54 73/89/54 74/90/54 75/91/54 76/92/54 77/93/54 78/94/54 79/95/54 80/96/54 66/82/54
s 1
f 24/40/55 25/41/56 73/89/57 72/88/58
f 18/34/59 17/33/60 65/81/61 66/82/62
f 32/48/3 18/34/59 66/82/62 80/96/4
f 25/41/56 26/42/63 74/90/64 73/89/57
f 17/33/60 19/35/65 67/83/66 65/81/61
f 26/42/63 27/43/67 75/91/68 74/90/64
f 19/35/65 20/36/69 68/84/70 67/83/66
f 27/43/67 28/44/71 76/92/72 75/91/68
f 20/36/69 21/37/73 69/85/74 68/84/70
f 28/44/71 29/45/75 77/93/76 76/92/72
f 21/37/73 22/38/77 70/86/78 69/85/74
f 29/45/75 30/46/79 78/94/80 77/93/76
f 22/38/77 23/39/81 71/87/82 70/86/78
f 30/46/79 31/47/2 79/95/5 78/94/80
f 23/39/81 24/40/55 72/88/58 71/87/82
