# Blender 3.4.1
# www.blender.org
mtllib Faucet_Ac_2_-_Base.mtl
o Faucet_Ac_2_-_Base
v -0.015812 -0.004560 -0.027387
v -0.000000 -0.004560 -0.031624
v -0.027387 -0.004560 -0.015812
v -0.031624 -0.004560 -0.000000
v -0.027387 -0.004560 0.015812
v -0.015812 -0.004560 0.027387
v -0.000000 -0.004560 0.031624
v 0.015812 -0.004560 0.027387
v 0.027387 -0.004560 0.015812
v 0.031624 -0.004560 -0.000000
v 0.027387 -0.004560 -0.015812
v 0.015812 -0.004560 -0.027387
v -0.000000 0.007896 -0.028199
v -0.000000 0.004588 -0.031624
v -0.015812 0.004588 -0.027387
v -0.014100 0.007896 -0.024421
v -0.027387 0.004588 -0.015812
v -0.024422 0.007896 -0.014100
v -0.031624 0.004588 -0.000000
v -0.028200 0.007896 -0.000000
v -0.027387 0.004588 0.015812
v -0.024422 0.007896 0.014100
v -0.015812 0.004588 0.027387
v -0.014100 0.007896 0.024421
v -0.000000 0.004588 0.031624
v -0.000000 0.007896 0.028199
v 0.015812 0.004588 0.027387
v 0.014099 0.007896 0.024421
v 0.027387 0.004588 0.015812
v 0.024421 0.007896 0.014100
v 0.031624 0.004588 -0.000000
v 0.028199 0.007896 -0.000000
v 0.027387 0.004588 -0.015812
v 0.024421 0.007896 -0.014100
v 0.015812 0.004588 -0.027387
v 0.014099 0.007896 -0.024421
v -0.000000 0.051936 -0.008435
v -0.005965 0.051936 -0.005965
v -0.008435 0.051936 0.000000
v -0.005965 0.051936 0.005965
v 0.000000 0.051936 0.008435
v 0.005965 0.051936 0.005965
v 0.008435 0.051936 -0.000000
v 0.005965 0.051936 -0.005965
v -0.010560 0.003966 -0.010560
v -0.000001 0.003966 -0.014934
v -0.014934 0.003966 0.000000
v -0.010560 0.003966 0.010560
v -0.000001 0.003966 0.014934
v 0.010559 0.003966 0.010560
v 0.014933 0.003966 -0.000000
v 0.010559 0.003966 -0.010560
v 0.008435 0.018653 -0.000000
v 0.005965 0.018653 -0.005965
v 0.000000 0.018653 0.008435
v 0.005965 0.018653 0.005965
v -0.008435 0.018653 0.000000
v -0.005965 0.018653 0.005965
v -0.000000 0.018653 -0.008435
v -0.005965 0.018653 -0.005965
v 0.013674 0.013100 0.000000
v -0.000000 0.013100 0.013674
v -0.013674 0.013100 0.000000
v -0.000000 0.013100 -0.013674
v 0.009669 0.013100 -0.009669
v 0.009669 0.013100 0.009669
v -0.009669 0.013100 0.009669
v -0.009669 0.013100 -0.009669
vn -0.0000 0.3692 -0.9293
vn 0.4647 0.3692 -0.8048
vn 0.5000 -0.0000 -0.8660
vn -0.0000 -0.0000 -1.0000
vn -0.4647 0.3692 0.8048
vn -0.8048 0.3692 0.4647
vn -0.8660 -0.0000 0.5000
vn -0.5000 -0.0000 0.8660
vn -0.0000 1.0000 -0.0000
vn 0.9293 0.3692 -0.0000
vn 0.8048 0.3692 0.4647
vn 0.8660 -0.0000 0.5000
vn 1.0000 -0.0000 -0.0000
vn -0.0000 0.3692 0.9293
vn -0.0000 -0.0000 1.0000
vn -0.8048 0.3692 -0.4647
vn -0.4647 0.3692 -0.8048
vn -0.5000 -0.0000 -0.8660
vn -0.8660 -0.0000 -0.5000
vn -0.9293 0.3692 -0.0000
vn -1.0000 -0.0000 -0.0000
vn 0.8048 0.3692 -0.4647
vn 0.8660 -0.0000 -0.5000
vn 0.4647 0.3692 0.8048
vn 0.5000 -0.0000 0.8660
vn -0.2129 0.9049 -0.3687
vn -0.0000 0.9049 -0.4257
vn -0.3687 0.9049 -0.2129
vn -0.4257 0.9049 -0.0000
vn -0.3687 0.9049 0.2129
vn -0.2129 0.9049 0.3687
vn -0.0000 0.9049 0.4257
vn 0.2129 0.9049 0.3687
vn 0.3687 0.9049 0.2129
vn 0.4257 0.9049 -0.0000
vn 0.3687 0.9049 -0.2129
vn 0.2129 0.9049 -0.3687
vn 0.6464 0.4053 -0.6464
vn 0.9142 0.4053 -0.0000
vn 0.9906 0.1366 -0.0000
vn 0.7005 0.1366 -0.7005
vn 0.6464 0.4053 0.6464
vn -0.0000 0.4054 0.9142
vn -0.0000 0.1366 0.9906
vn 0.7005 0.1366 0.7005
vn -0.6464 0.4054 0.6464
vn -0.9141 0.4054 -0.0000
vn -0.9906 0.1367 -0.0000
vn -0.7005 0.1367 0.7005
vn -0.6464 0.4054 -0.6464
vn -0.0000 0.4054 -0.9142
vn -0.0000 0.1367 -0.9906
vn -0.7005 0.1367 -0.7005
vn -0.9239 -0.0000 -0.3827
vn -0.3827 -0.0000 0.9239
vn 0.9239 -0.0000 0.3827
vn 0.3827 -0.0000 -0.9239
vn -0.3827 -0.0000 -0.9239
vn -0.9239 -0.0000 0.3827
vn 0.3827 -0.0000 0.9239
vn 0.9239 -0.0000 -0.3827
vn -0.9147 0.4042 -0.0000
vn -0.6468 0.4042 -0.6468
vn -0.0000 0.4042 0.9147
vn -0.6468 0.4042 0.6468
vn 0.9147 0.4042 -0.0000
vn 0.6468 0.4042 0.6468
vn -0.0000 0.4042 -0.9147
vn 0.6468 0.4042 -0.6468
vt 0.213542 0.781983
vt 0.213542 0.781983
vt 0.213542 0.781983
vt 0.213542 0.781983
vt 0.213542 0.781983
vt 0.213542 0.781983
vt 0.213542 0.781983
vt 0.213542 0.781983
vt 0.213542 0.781983
vt 0.213542 0.781983
vt 0.213542 0.781983
vt 0.213542 0.781983
vt 0.213542 0.781983
vt 0.213542 0.781983
vt 0.213542 0.781983
vt 0.213542 0.781983
vt 0.213542 0.781983
vt 0.213542 0.781983
vt 0.213542 0.781983
vt 0.213542 0.781983
vt 0.213542 0.781983
vt 0.213542 0.781983
vt 0.213542 0.781983
vt 0.213542 0.781983
vt 0.213542 0.781983
vt 0.213542 0.781983
vt 0.213542 0.781983
vt 0.213542 0.781983
vt 0.213542 0.781983
vt 0.213542 0.781983
vt 0.213542 0.781983
vt 0.213542 0.781983
vt 0.213542 0.781983
vt 0.213542 0.781983
vt 0.213542 0.781983
vt 0.213542 0.781983
vt 0.147135 0.886150
vt 0.147135 0.886150
vt 0.147135 0.886150
vt 0.147135 0.886150
vt 0.147135 0.886150
vt 0.147135 0.886150
vt 0.147135 0.886150
vt 0.147135 0.886150
vt 0.147135 0.886150
vt 0.147135 0.886150
vt 0.147135 0.886150
vt 0.147135 0.886150
vt 0.147135 0.886150
vt 0.147135 0.886150
vt 0.147135 0.886150
vt 0.147135 0.886150
vt 0.147135 0.886150
vt 0.147135 0.886150
vt 0.147135 0.886150
vt 0.147135 0.886150
vt 0.147135 0.886150
vt 0.147135 0.886150
vt 0.147135 0.886150
vt 0.147135 0.886150
vt 0.147135 0.886150
vt 0.147135 0.886150
vt 0.147135 0.886150
vt 0.147135 0.886150
vt 0.147135 0.886150
vt 0.147135 0.886150
vt 0.147135 0.886150
vt 0.147135 0.886150
s 1
usemtl Palette
f 14/14/1 35/35/2 12/12/3 2/2/4
f 23/23/5 21/21/6 5/5/7 6/6/8
s 0
f 16/16/9 18/18/9 20/20/9 22/22/9 24/24/9 26/26/9 28/28/9 30/30/9 32/32/9 34/34/9 36/36/9 13/13/9
s 1
f 31/31/10 29/29/11 9/9/12 10/10/13
f 25/25/14 23/23/5 6/6/8 7/7/15
f 17/17/16 15/15/17 1/1/18 3/3/19
f 19/19/20 17/17/16 3/3/19 4/4/21
f 33/33/22 31/31/10 10/10/13 11/11/23
f 27/27/24 25/25/14 7/7/15 8/8/25
f 21/21/6 19/19/20 4/4/21 5/5/7
f 35/35/2 33/33/22 11/11/23 12/12/3
f 29/29/11 27/27/24 8/8/25 9/9/12
f 16/16/26 13/13/27 14/14/1 15/15/17
f 18/18/28 16/16/26 15/15/17 17/17/16
f 20/20/29 18/18/28 17/17/16 19/19/20
f 22/22/30 20/20/29 19/19/20 21/21/6
f 24/24/31 22/22/30 21/21/6 23/23/5
f 26/26/32 24/24/31 23/23/5 25/25/14
f 28/28/33 26/26/32 25/25/14 27/27/24
f 30/30/34 28/28/33 27/27/24 29/29/11
f 32/32/35 30/30/34 29/29/11 31/31/10
f 34/34/36 32/32/35 31/31/10 33/33/22
f 36/36/37 34/34/36 33/33/22 35/35/2
f 13/13/27 36/36/37 35/35/2 14/14/1
f 15/15/17 14/14/1 2/2/4 1/1/18
f 65/65/38 61/61/39 51/51/40 52/52/41
f 66/66/42 62/62/43 49/49/44 50/50/45
f 67/67/46 63/63/47 47/47/48 48/48/49
f 68/68/50 64/64/51 46/46/52 45/45/53
f 64/64/51 65/65/38 52/52/41 46/46/52
f 61/61/39 66/66/42 50/50/45 51/51/40
f 62/62/43 67/67/46 48/48/49 49/49/44
f 63/63/47 68/68/50 45/45/53 47/47/48
s 0
f 39/39/54 38/38/54 60/60/54 57/57/54
f 41/41/55 40/40/55 58/58/55 55/55/55
f 43/43/56 42/42/56 56/56/56 53/53/56
f 37/37/57 44/44/57 54/54/57 59/59/57
f 38/38/58 37/37/58 59/59/58 60/60/58
f 40/40/59 39/39/59 57/57/59 58/58/59
f 42/42/60 41/41/60 55/55/60 56/56/60
f 44/44/61 43/43/61 53/53/61 54/54/61
s 1
f 57/57/62 60/60/63 68/68/50 63/63/47
f 55/55/64 58/58/65 67/67/46 62/62/43
f 53/53/66 56/56/67 66/66/42 61/61/39
f 59/59/68 54/54/69 65/65/38 64/64/51
f 60/60/63 59/59/68 64/64/51 68/68/50
f 58/58/65 57/57/62 63/63/47 67/67/46
f 56/56/67 55/55/64 62/62/43 66/66/42
f 54/54/69 53/53/66 61/61/39 65/65/38
