# Blender 3.4.1
# www.blender.org
mtllib Floor__Alt_.mtl
o Floor_(Alt)
v -0.999999 0.000000 1.000000
v 0.999999 0.000000 1.000000
v -0.999999 0.000000 -1.000000
v 0.999999 0.000000 -1.000000
v -0.999999 -0.080000 -1.000000
v -0.999999 -0.080000 1.000000
v 0.999999 -0.080000 1.000000
v 0.999999 -0.080000 -1.000000
v 0.652162 0.000000 -1.000000
v -0.652162 0.000000 -1.000000
v 0.652162 0.000000 -0.250000
v -0.652162 0.000000 -0.250000
v 0.652162 -0.035787 -1.000000
v -0.652162 -0.035787 -1.000000
v 0.652162 -0.035787 -0.250000
v -0.652162 -0.035787 -0.250000
vn -0.0000 1.0000 -0.0000
vn -0.0000 -1.0000 -0.0000
vn 1.0000 -0.0000 -0.0000
vn -1.0000 -0.0000 -0.0000
vn -0.0000 -0.0000 1.0000
vn -0.0000 -0.0000 -1.0000
vt 0.025391 0.959961
vt 0.000000 0.000000
vt 0.030273 0.947266
vt 1.000000 0.000000
vt 0.041016 0.975586
vt 0.000000 0.999023
vt 0.043945 0.943359
vt 1.000000 0.999023
vt 0.041016 0.976562
vt 0.275610 0.970907
vt 0.275610 0.938736
vt 0.024414 0.959961
vt 0.307781 0.938736
vt 0.029297 0.946289
vt 0.043945 0.942383
vt 0.307781 0.970907
vt 0.828125 0.999023
vt 0.044922 0.944336
vt 0.043945 0.971680
vt 0.175781 0.999023
vt 0.828125 0.625000
vt 0.040039 0.948242
vt 0.175781 0.625000
vt 0.039062 0.965820
vt 0.828125 0.999023
vt 0.044922 0.944336
vt 0.298940 0.970907
vt 0.175781 0.999023
vt 0.044922 0.972656
vt 0.282449 0.970907
vt 0.828125 0.625000
vt 0.040039 0.948242
vt 0.175781 0.625000
vt 0.039062 0.965820
s 0
usemtl Wooden_Floor_(2)
f 1/2/1 2/4/1 11/21/1 12/23/1
f 6/11/2 5/10/2 8/16/2 7/13/2
f 2/3/3 7/14/3 8/15/3 4/7/3
f 3/5/4 5/9/4 6/12/4 1/1/4
f 1/1/5 6/12/5 7/14/5 2/3/5
f 14/28/1 16/33/1 15/31/1 13/25/1
f 10/19/3 12/24/3 16/34/3 14/29/3
f 8/15/6 13/26/6 9/18/6 4/7/6
f 10/19/6 14/29/6 5/9/6 3/5/6
f 12/23/1 10/20/1 3/6/1 1/2/1
f 11/21/1 2/4/1 4/8/1 9/17/1
f 11/22/4 9/18/4 13/26/4 15/32/4
f 12/24/6 11/22/6 15/32/6 16/34/6
f 5/10/6 14/30/6 13/27/6 8/16/6
