# Blender 3.4.1
# www.blender.org
mtllib Flower_Wall_Pot_2.mtl
o Flower_Wall_Pot_2
v 0.466688 -0.048897 0.241528
v 0.480310 0.180481 0.241945
v 0.480310 0.180481 0.040469
v 0.466688 -0.048897 0.043733
v 0.522792 0.180481 -0.010028
v 0.522792 0.180481 0.292442
v 0.471033 0.151568 0.044710
v 0.471033 0.148973 0.237703
v 0.471781 0.156246 0.109041
v 0.471781 0.161630 0.173372
v 0.327058 0.148973 0.237703
v 0.183082 0.152735 0.237703
v 0.327058 0.157436 0.044710
v 0.183082 0.157436 0.044710
v 0.327058 0.143590 0.109041
v 0.327058 0.153060 0.173372
v 0.183082 0.166037 0.109041
v 0.183082 0.162205 0.173372
v 0.338785 -0.079236 0.265502
v 0.338785 -0.079975 0.016658
v 0.338785 -0.047953 0.042193
v 0.338785 -0.048693 0.251629
v 0.298334 -0.047953 0.042193
v 0.298334 -0.048693 0.251629
v 0.298334 -0.079236 0.265502
v 0.298334 -0.079975 0.016658
v 0.338785 0.011458 0.010633
v 0.338785 -0.001380 -0.024500
v 0.298334 0.011458 0.010633
v 0.298334 -0.001380 -0.024500
v 0.338785 0.164138 -0.030071
v 0.338785 0.151299 -0.065204
v 0.298334 0.164138 -0.030071
v 0.298334 0.151299 -0.065204
v 0.338785 0.196825 -0.052827
v 0.338785 0.164969 -0.072431
v 0.298334 0.196825 -0.052827
v 0.298334 0.164969 -0.072431
v 0.338785 0.209779 -0.090797
v 0.338785 0.172690 -0.095645
v 0.298334 0.209779 -0.090797
v 0.298334 0.172690 -0.095645
v 0.338785 0.207803 -0.261540
v 0.338785 0.171516 -0.252463
v 0.298334 0.207803 -0.261540
v 0.298334 0.171516 -0.252463
v 0.338785 0.186446 -0.286458
v 0.338785 0.161196 -0.258861
v 0.298334 0.186446 -0.286458
v 0.298334 0.161196 -0.258861
v 0.338785 -0.041843 0.254480
v 0.338785 -0.057494 0.284152
v 0.298334 -0.041843 0.254480
v 0.298334 -0.057494 0.284152
v 0.338785 -0.027030 0.255990
v 0.338785 -0.027221 0.274976
v 0.298334 -0.027030 0.255990
v 0.298334 -0.027221 0.274976
v 0.338785 0.143001 -0.293505
v 0.338785 0.129816 -0.269612
v 0.298334 0.143001 -0.293505
v 0.298334 0.129816 -0.269612
v 0.338785 0.215987 -0.176168
v 0.338785 0.179299 -0.174054
v 0.298334 0.179299 -0.174054
v 0.298334 0.215987 -0.176168
v -0.466688 -0.048897 0.241528
v -0.480310 0.180481 0.241945
v -0.480310 0.180481 0.040469
v -0.466688 -0.048897 0.043733
v 0.000000 -0.048897 0.241528
v 0.000000 0.180481 0.241945
v 0.000000 0.180481 0.040469
v 0.000000 -0.048897 0.043733
v -0.522792 0.180481 -0.010028
v -0.522792 0.180481 0.292442
v 0.000000 0.180481 0.292442
v 0.000000 0.180481 -0.010028
v 0.000000 0.151568 0.044710
v 0.000000 0.152735 0.237703
v -0.471033 0.151568 0.044710
v -0.471033 0.148973 0.237703
v 0.000000 0.166037 0.109041
v 0.000000 0.158118 0.173372
v -0.471781 0.156246 0.109041
v -0.471781 0.161630 0.173372
v -0.327058 0.148973 0.237703
v -0.183082 0.152735 0.237703
v -0.327058 0.157436 0.044710
v -0.183082 0.157436 0.044710
v -0.327058 0.143590 0.109041
v -0.327058 0.153060 0.173372
v -0.183082 0.166037 0.109041
v -0.183082 0.162205 0.173372
v -0.338785 -0.079236 0.265502
v -0.338785 -0.079975 0.016658
v -0.338785 -0.047953 0.042193
v -0.338785 -0.048693 0.251629
v -0.298334 -0.047953 0.042193
v -0.298334 -0.048693 0.251629
v -0.298334 -0.079236 0.265502
v -0.298334 -0.079975 0.016658
v -0.338785 0.011458 0.010633
v -0.338785 -0.001380 -0.024500
v -0.298334 0.011458 0.010633
v -0.298334 -0.001380 -0.024500
v -0.338785 0.164138 -0.030071
v -0.338785 0.151299 -0.065204
v -0.298334 0.164138 -0.030071
v -0.298334 0.151299 -0.065204
v -0.338785 0.196825 -0.052827
v -0.338785 0.164969 -0.072431
v -0.298334 0.196825 -0.052827
v -0.298334 0.164969 -0.072431
v -0.338785 0.209779 -0.090797
v -0.338785 0.172690 -0.095645
v -0.298334 0.209779 -0.090797
v -0.298334 0.172690 -0.095645
v -0.338785 0.207803 -0.261540
v -0.338785 0.171516 -0.252463
v -0.298334 0.207803 -0.261540
v -0.298334 0.171516 -0.252463
v -0.338785 0.186446 -0.286458
v -0.338785 0.161196 -0.258861
v -0.298334 0.186446 -0.286458
v -0.298334 0.161196 -0.258861
v -0.338785 -0.041843 0.254480
v -0.338785 -0.057494 0.284152
v -0.298334 -0.041843 0.254480
v -0.298334 -0.057494 0.284152
v -0.338785 -0.027030 0.255990
v -0.338785 -0.027221 0.274976
v -0.298334 -0.027030 0.255990
v -0.298334 -0.027221 0.274976
v -0.338785 0.143001 -0.293505
v -0.338785 0.129816 -0.269612
v -0.298334 0.143001 -0.293505
v -0.298334 0.129816 -0.269612
v -0.338785 0.215987 -0.176168
v -0.338785 0.179299 -0.174054
v -0.298334 0.179299 -0.174054
v -0.298334 0.215987 -0.176168
vn -0.0000 -1.0000 -0.0000
vn 0.9714 -0.2376 -0.0000
vn -0.0000 -0.2282 -0.9736
vn -0.0000 0.1665 0.9860
vn -0.0000 -0.2167 0.9762
vn -0.0000 1.0000 -0.0000
vn -0.0111 0.9933 0.1147
vn -0.9415 0.3370 0.0025
vn 0.0006 0.1424 -0.9898
vn -0.0294 0.9912 0.1288
vn 0.0445 0.9935 0.1047
vn -0.0234 0.9972 0.0712
vn -0.0727 0.9908 -0.1144
vn 0.0777 0.9962 0.0406
vn 0.1090 0.9931 -0.0435
vn -0.0158 0.9842 -0.1765
vn -0.0111 0.9958 0.0909
vn 1.0000 -0.0000 -0.0000
vn -1.0000 -0.0000 -0.0000
vn -0.0000 0.3843 -0.9232
vn -0.0000 1.0000 0.0035
vn -0.0000 -1.0000 0.0030
vn -0.0000 0.2576 0.9663
vn -0.0000 0.4691 0.8831
vn -0.0000 -0.4639 -0.8859
vn -0.0000 -0.4674 -0.8841
vn -0.0000 -0.2576 -0.9663
vn -0.0000 0.9464 0.3229
vn -0.0000 0.5713 0.8207
vn -0.0000 -0.9489 -0.3156
vn -0.0000 -0.5269 0.8499
vn -0.0000 -0.9951 0.0988
vn -0.0000 0.9954 -0.0954
vn -0.0000 -0.3241 0.9460
vn -0.0000 0.7593 -0.6508
vn -0.0000 0.2901 0.9570
vn -0.0000 -0.6511 0.7590
vn -0.0000 0.9999 0.0100
vn -0.0000 0.1014 -0.9948
vn -0.0000 -0.8755 -0.4831
vn -0.0000 0.1601 -0.9871
vn -0.0000 0.9974 0.0725
vn -0.0000 -0.9965 -0.0840
vn -0.9714 -0.2376 -0.0000
vn 0.0111 0.9933 0.1147
vn 0.9415 0.3370 0.0025
vn -0.0006 0.1424 -0.9898
vn 0.0294 0.9912 0.1288
vn -0.0445 0.9935 0.1047
vn 0.0234 0.9972 0.0712
vn 0.0727 0.9908 -0.1144
vn -0.0777 0.9962 0.0406
vn -0.1090 0.9931 -0.0435
vn 0.0158 0.9842 -0.1765
vn 0.0111 0.9958 0.0909
vt 0.383365 0.870272
vt 0.383365 0.870143
vt 0.383365 0.870143
vt 0.383365 0.870272
vt 0.383365 0.870271
vt 0.383365 0.870271
vt 0.383365 0.870143
vt 0.974997 0.875327
vt 0.383365 0.870143
vt 0.974997 0.875327
vt 0.383365 0.870143
vt 0.974997 0.875327
vt 0.383365 0.870143
vt 0.974997 0.875327
vt 0.383365 0.869473
vt 0.974997 0.874657
vt 0.383365 0.868803
vt 0.974997 0.873988
vt 0.383365 0.869473
vt 0.974997 0.874657
vt 0.383365 0.868803
vt 0.974997 0.873988
vt 0.974997 0.874657
vt 0.974997 0.874657
vt 0.974997 0.873988
vt 0.974997 0.873988
vt 0.627649 0.794393
vt 0.627649 0.794393
vt 0.627649 0.794393
vt 0.627649 0.794393
vt 0.627649 0.794393
vt 0.627649 0.794393
vt 0.627649 0.794393
vt 0.627649 0.794393
vt 0.627649 0.794393
vt 0.627649 0.794393
vt 0.627649 0.794393
vt 0.627649 0.794393
vt 0.627649 0.794393
vt 0.627649 0.794393
vt 0.627649 0.794393
vt 0.627649 0.794393
vt 0.627649 0.794393
vt 0.627649 0.794393
vt 0.627649 0.794393
vt 0.627649 0.794393
vt 0.627649 0.794393
vt 0.627649 0.794393
vt 0.627649 0.794393
vt 0.627649 0.794393
vt 0.627649 0.794393
vt 0.627649 0.794393
vt 0.627649 0.794393
vt 0.627649 0.794393
vt 0.627649 0.794393
vt 0.627649 0.794393
vt 0.627649 0.794393
vt 0.627649 0.794393
vt 0.627649 0.794393
vt 0.627649 0.794393
vt 0.627649 0.794393
vt 0.627649 0.794393
vt 0.627649 0.794393
vt 0.627649 0.794393
vt 0.627649 0.794393
vt 0.627649 0.794393
vt 0.627649 0.794393
vt 0.627649 0.794393
vt 0.627649 0.794393
vt 0.627649 0.794393
vt 0.627649 0.794393
vt 0.627649 0.794393
vt 0.627649 0.794393
vt 0.627649 0.794393
vt 0.383365 0.870272
vt 0.383365 0.870143
vt 0.383365 0.870143
vt 0.383365 0.870272
vt 0.383365 0.868134
vt 0.383365 0.868134
vt 0.383365 0.868134
vt 0.383365 0.868134
vt 0.383365 0.870271
vt 0.383365 0.870271
vt 0.383365 0.868134
vt 0.383365 0.868134
vt 0.383365 0.868134
vt 0.974997 0.873318
vt 0.974997 0.873318
vt 0.383365 0.868134
vt 0.383365 0.870143
vt 0.974997 0.875327
vt 0.383365 0.870143
vt 0.974997 0.875327
vt 0.974997 0.873318
vt 0.974997 0.873318
vt 0.383365 0.870143
vt 0.974997 0.875327
vt 0.383365 0.870143
vt 0.974997 0.875327
vt 0.383365 0.869473
vt 0.974997 0.874657
vt 0.383365 0.868803
vt 0.974997 0.873988
vt 0.383365 0.869473
vt 0.974997 0.874657
vt 0.383365 0.868803
vt 0.974997 0.873988
vt 0.974997 0.874657
vt 0.974997 0.874657
vt 0.974997 0.873988
vt 0.974997 0.873988
vt 0.627649 0.794393
vt 0.627649 0.794393
vt 0.627649 0.794393
vt 0.627649 0.794393
vt 0.627649 0.794393
vt 0.627649 0.794393
vt 0.627649 0.794393
vt 0.627649 0.794393
vt 0.627649 0.794393
vt 0.627649 0.794393
vt 0.627649 0.794393
vt 0.627649 0.794393
vt 0.627649 0.794393
vt 0.627649 0.794393
vt 0.627649 0.794393
vt 0.627649 0.794393
vt 0.627649 0.794393
vt 0.627649 0.794393
vt 0.627649 0.794393
vt 0.627649 0.794393
vt 0.627649 0.794393
vt 0.627649 0.794393
vt 0.627649 0.794393
vt 0.627649 0.794393
vt 0.627649 0.794393
vt 0.627649 0.794393
vt 0.627649 0.794393
vt 0.627649 0.794393
vt 0.627649 0.794393
vt 0.627649 0.794393
vt 0.627649 0.794393
vt 0.627649 0.794393
vt 0.627649 0.794393
vt 0.627649 0.794393
vt 0.627649 0.794393
vt 0.627649 0.794393
vt 0.627649 0.794393
vt 0.627649 0.794393
vt 0.627649 0.794393
vt 0.627649 0.794393
vt 0.627649 0.794393
vt 0.627649 0.794393
vt 0.627649 0.794393
vt 0.627649 0.794393
vt 0.627649 0.794393
vt 0.627649 0.794393
vt 0.627649 0.794393
vt 0.627649 0.794393
s 0
usemtl Palette
f 74/82/1 4/4/1 1/1/1 71/79/1
f 4/4/2 5/5/2 6/6/2 1/1/2
f 4/4/3 74/82/3 78/86/3 5/5/3
f 3/3/4 73/81/4 79/87/4 14/21/4 13/19/4 7/7/4
f 1/1/5 6/6/5 77/85/5 71/79/5
f 3/3/6 2/2/6 6/6/6 5/5/6
f 2/2/6 72/80/6 77/85/6 6/6/6
f 73/81/6 3/3/6 5/5/6 78/86/6
f 18/26/7 84/96/7 80/89/7 12/18/7
f 2/2/8 3/3/8 7/7/8 9/11/8 10/13/8 8/9/8
f 72/80/9 2/2/9 8/9/9 11/15/9 12/17/9 80/90/9
f 10/14/10 16/24/10 11/16/10 8/10/10
f 16/24/11 18/26/11 12/18/11 11/16/11
f 7/8/12 13/20/12 15/23/12 9/12/12
f 9/12/13 15/23/13 16/24/13 10/14/13
f 13/20/14 14/22/14 17/25/14 15/23/14
f 15/23/15 17/25/15 18/26/15 16/24/15
f 14/22/16 79/88/16 83/95/16 17/25/16
f 17/25/17 83/95/17 84/96/17 18/26/17
f 20/28/18 21/29/18 22/30/18 19/27/18
f 26/34/19 25/33/19 24/32/19 23/31/19
f 24/32/20 53/61/20 51/59/20 22/30/20
f 21/29/21 23/31/21 24/32/21 22/30/21
f 20/28/18 28/36/18 27/35/18 21/29/18
f 19/27/22 25/33/22 26/34/22 20/28/22
f 27/35/23 31/39/23 33/41/23 29/37/23
f 21/29/24 27/35/24 29/37/24 23/31/24
f 26/34/25 30/38/25 28/36/25 20/28/25
f 23/31/19 29/37/19 30/38/19 26/34/19
f 34/42/26 38/46/26 36/44/26 32/40/26
f 28/36/18 32/40/18 31/39/18 27/35/18
f 30/38/27 34/42/27 32/40/27 28/36/27
f 29/37/19 33/41/19 34/42/19 30/38/19
f 35/43/28 39/47/28 41/49/28 37/45/28
f 33/41/19 37/45/19 38/46/19 34/42/19
f 31/39/29 35/43/29 37/45/29 33/41/29
f 32/40/18 36/44/18 35/43/18 31/39/18
f 64/72/18 44/52/18 43/51/18 63/71/18
f 36/44/18 40/48/18 39/47/18 35/43/18
f 38/46/30 42/50/30 40/48/30 36/44/30
f 37/45/19 41/49/19 42/50/19 38/46/19
f 46/54/31 50/58/31 48/56/31 44/52/31
f 65/73/32 46/54/32 44/52/32 64/72/32
f 66/74/19 45/53/19 46/54/19 65/73/19
f 63/71/33 43/51/33 45/53/33 66/74/33
f 50/58/34 62/70/34 60/68/34 48/56/34
f 45/53/19 49/57/19 50/58/19 46/54/19
f 43/51/35 47/55/35 49/57/35 45/53/35
f 44/52/18 48/56/18 47/55/18 43/51/18
f 52/60/36 56/64/36 58/66/36 54/62/36
f 19/27/37 52/60/37 54/62/37 25/33/37
f 25/33/19 54/62/19 53/61/19 24/32/19
f 22/30/18 51/59/18 52/60/18 19/27/18
f 55/63/38 57/65/38 58/66/38 56/64/38
f 51/59/18 55/63/18 56/64/18 52/60/18
f 53/61/39 57/65/39 55/63/39 51/59/39
f 54/62/19 58/66/19 57/65/19 53/61/19
f 60/68/40 62/70/40 61/69/40 59/67/40
f 49/57/19 61/69/19 62/70/19 50/58/19
f 47/55/41 59/67/41 61/69/41 49/57/41
f 48/56/18 60/68/18 59/67/18 47/55/18
f 39/47/42 63/71/42 66/74/42 41/49/42
f 41/49/19 66/74/19 65/73/19 42/50/19
f 42/50/43 65/73/43 64/72/43 40/48/43
f 40/48/18 64/72/18 63/71/18 39/47/18
f 74/82/1 71/79/1 67/75/1 70/78/1
f 70/78/44 67/75/44 76/84/44 75/83/44
f 70/78/3 75/83/3 78/86/3 74/82/3
f 69/77/4 81/91/4 89/105/4 90/107/4 79/87/4 73/81/4
f 67/75/5 71/79/5 77/85/5 76/84/5
f 69/77/6 75/83/6 76/84/6 68/76/6
f 68/76/6 76/84/6 77/85/6 72/80/6
f 73/81/6 78/86/6 75/83/6 69/77/6
f 94/112/45 88/104/45 80/89/45 84/96/45
f 68/76/46 82/93/46 86/99/46 85/97/46 81/91/46 69/77/46
f 72/80/47 80/90/47 88/103/47 87/101/47 82/93/47 68/76/47
f 86/100/48 82/94/48 87/102/48 92/110/48
f 92/110/49 87/102/49 88/104/49 94/112/49
f 81/92/50 85/98/50 91/109/50 89/106/50
f 85/98/51 86/100/51 92/110/51 91/109/51
f 89/106/52 91/109/52 93/111/52 90/108/52
f 91/109/53 92/110/53 94/112/53 93/111/53
f 90/108/54 93/111/54 83/95/54 79/88/54
f 93/111/55 94/112/55 84/96/55 83/95/55
f 96/114/19 95/113/19 98/116/19 97/115/19
f 102/120/18 99/117/18 100/118/18 101/119/18
f 100/118/20 98/116/20 127/145/20 129/147/20
f 97/115/21 98/116/21 100/118/21 99/117/21
f 96/114/19 97/115/19 103/121/19 104/122/19
f 95/113/22 96/114/22 102/120/22 101/119/22
f 103/121/23 105/123/23 109/127/23 107/125/23
f 97/115/24 99/117/24 105/123/24 103/121/24
f 102/120/25 96/114/25 104/122/25 106/124/25
f 99/117/18 102/120/18 106/124/18 105/123/18
f 110/128/26 108/126/26 112/130/26 114/132/26
f 104/122/19 103/121/19 107/125/19 108/126/19
f 106/124/27 104/122/27 108/126/27 110/128/27
f 105/123/18 106/124/18 110/128/18 109/127/18
f 111/129/28 113/131/28 117/135/28 115/133/28
f 109/127/18 110/128/18 114/132/18 113/131/18
f 107/125/29 109/127/29 113/131/29 111/129/29
f 108/126/19 107/125/19 111/129/19 112/130/19
f 140/158/19 139/157/19 119/137/19 120/138/19
f 112/130/19 111/129/19 115/133/19 116/134/19
f 114/132/30 112/130/30 116/134/30 118/136/30
f 113/131/18 114/132/18 118/136/18 117/135/18
f 122/140/31 120/138/31 124/142/31 126/144/31
f 141/159/32 140/158/32 120/138/32 122/140/32
f 142/160/18 141/159/18 122/140/18 121/139/18
f 139/157/33 142/160/33 121/139/33 119/137/33
f 126/144/34 124/142/34 136/154/34 138/156/34
f 121/139/18 122/140/18 126/144/18 125/143/18
f 119/137/35 121/139/35 125/143/35 123/141/35
f 120/138/19 119/137/19 123/141/19 124/142/19
f 128/146/36 130/148/36 134/152/36 132/150/36
f 95/113/37 101/119/37 130/148/37 128/146/37
f 101/119/18 100/118/18 129/147/18 130/148/18
f 98/116/19 95/113/19 128/146/19 127/145/19
f 131/149/38 132/150/38 134/152/38 133/151/38
f 127/145/19 128/146/19 132/150/19 131/149/19
f 129/147/39 127/145/39 131/149/39 133/151/39
f 130/148/18 129/147/18 133/151/18 134/152/18
f 136/154/40 135/153/40 137/155/40 138/156/40
f 125/143/18 126/144/18 138/156/18 137/155/18
f 123/141/41 125/143/41 137/155/41 135/153/41
f 124/142/19 123/141/19 135/153/19 136/154/19
f 115/133/42 117/135/42 142/160/42 139/157/42
f 117/135/18 118/136/18 141/159/18 142/160/18
f 118/136/43 116/134/43 140/158/43 141/159/43
f 116/134/19 115/133/19 139/157/19 140/158/19
