# Blender 3.4.1
# www.blender.org
mtllib Flower_Wall_Pot.mtl
o Flower_Wall_Pot
v 0.417161 -0.062849 0.187767
v 0.443101 0.180481 0.193607
v 0.443101 0.180481 0.020136
v 0.417161 -0.062849 -0.010028
v 0.473265 0.180481 -0.010028
v 0.473265 0.180481 0.223771
v 0.434215 0.139220 0.023530
v 0.434215 0.139220 0.190213
v -0.417161 -0.062849 0.187767
v -0.443101 0.180481 0.193607
v -0.443101 0.180481 0.020136
v -0.417161 -0.062849 -0.010028
v -0.473265 0.180481 -0.010028
v -0.473265 0.180481 0.223771
v -0.434215 0.139220 0.023530
v -0.434215 0.139220 0.190213
vn -0.0000 1.0000 -0.0000
vn 0.9744 -0.2247 -0.0000
vn -0.0000 -0.1464 0.9892
vn -0.0000 0.0820 -0.9966
vn -0.0000 -1.0000 -0.0000
vn -0.0000 0.0820 0.9966
vn -0.9776 0.2105 -0.0000
vn -0.9744 -0.2247 -0.0000
vn 0.9776 0.2105 -0.0000
vn -0.0000 -0.0000 -1.0000
vt 0.130571 0.963938
vt 0.130571 0.963827
vt 0.130571 0.963827
vt 0.130571 0.963938
vt 0.130571 0.963937
vt 0.130571 0.963937
vt 0.971716 0.865502
vt 0.130571 0.963827
vt 0.971716 0.865502
vt 0.130571 0.963827
vt 0.130571 0.963938
vt 0.130571 0.963827
vt 0.130571 0.963827
vt 0.130571 0.963938
vt 0.130571 0.963937
vt 0.130571 0.963937
vt 0.971716 0.865502
vt 0.130571 0.963827
vt 0.971716 0.865502
vt 0.130571 0.963827
s 0
usemtl Palette
f 10/12/1 14/16/1 6/6/1 2/2/1
f 4/4/2 5/5/2 6/6/2 1/1/2
f 9/11/3 1/1/3 6/6/3 14/16/3
f 8/10/4 16/20/4 10/12/4 2/2/4
f 1/1/5 9/11/5 12/14/5 4/4/5
f 3/3/1 2/2/1 6/6/1 5/5/1
f 5/5/1 13/15/1 11/13/1 3/3/1
f 15/17/1 16/19/1 8/9/1 7/7/1
f 11/13/6 15/18/6 7/8/6 3/3/6
f 2/2/7 3/3/7 7/8/7 8/10/7
f 12/14/8 9/11/8 14/16/8 13/15/8
f 11/13/1 13/15/1 14/16/1 10/12/1
f 10/12/9 16/20/9 15/18/9 11/13/9
f 12/14/10 13/15/10 5/5/10 4/4/10
