# Blender 3.4.1
# www.blender.org
mtllib Flower_Wall_Pot_3.mtl
o Flower_Wall_Pot_3
v 0.270328 -0.066088 0.192238
v 0.283950 0.157896 0.241695
v 0.283950 0.200978 0.044878
v 0.270328 -0.023793 -0.000982
v 0.326432 0.211776 -0.004450
v 0.326432 0.147098 0.291023
v 0.274673 0.171826 0.042839
v 0.274673 0.128023 0.230814
v 0.275421 0.162641 0.106683
v 0.275421 0.154143 0.170677
v 0.175194 0.128023 0.230814
v 0.096214 0.131698 0.231618
v 0.175194 0.177558 0.044094
v 0.096214 0.177558 0.044094
v 0.186977 0.176923 0.100186
v 0.174543 0.150408 0.176698
v 0.096214 0.169615 0.108776
v 0.094397 0.163727 0.189084
v 0.223918 -0.100944 0.217372
v 0.223918 -0.063139 -0.021271
v 0.223918 -0.033266 0.004264
v 0.223918 -0.070417 0.196585
v 0.183467 -0.033266 0.004264
v 0.183467 -0.070417 0.196585
v 0.183467 -0.100944 0.217372
v 0.183467 -0.063139 -0.021271
v 0.183467 0.171273 -0.073592
v 0.183467 0.205657 -0.058866
v 0.223918 0.171273 -0.073592
v 0.223918 0.205657 -0.058866
v 0.239993 -0.058560 0.204834
v 0.239993 -0.080013 0.230623
v 0.167391 -0.058560 0.204834
v 0.167391 -0.080013 0.230623
v 0.237220 -0.046648 0.204403
v 0.237220 -0.027998 0.223388
v 0.170164 -0.046648 0.204403
v 0.170164 -0.027998 0.223388
v 0.223918 0.040734 -0.033480
v 0.223918 -0.000550 -0.020283
v 0.223918 -0.013962 -0.060164
v 0.223918 0.032575 -0.069984
v 0.183467 -0.000550 -0.020283
v 0.183467 0.040734 -0.033480
v 0.183467 0.032575 -0.069984
v 0.183467 -0.013962 -0.060164
v 0.183467 0.171642 -0.219038
v 0.183467 0.205288 -0.232476
v 0.223918 0.171642 -0.219038
v 0.223918 0.205288 -0.232476
v 0.183467 0.157411 -0.250769
v 0.183467 0.169779 -0.262781
v 0.223918 0.157411 -0.250769
v 0.223918 0.169779 -0.262781
v 0.223918 0.164602 -0.020252
v 0.223918 0.121784 -0.014717
v 0.223918 0.118689 -0.049972
v 0.223918 0.149252 -0.052578
v 0.183467 0.121784 -0.014717
v 0.183467 0.164602 -0.020252
v 0.183467 0.149252 -0.052578
v 0.183467 0.118689 -0.049972
v 0.305191 0.224645 0.024939
v 0.305191 0.170765 0.271084
v -0.270328 -0.066088 0.192238
v -0.283950 0.157896 0.241695
v -0.283950 0.200978 0.044878
v -0.270328 -0.023793 -0.000982
v 0.000000 -0.066088 0.192238
v 0.000000 0.157896 0.241695
v 0.000000 0.200978 0.044878
v 0.000000 -0.023793 -0.000982
v -0.326432 0.211776 -0.004450
v -0.326432 0.147098 0.291023
v 0.000000 0.147098 0.291023
v 0.000000 0.211776 -0.004450
v 0.000000 0.171826 0.042839
v 0.000000 0.131698 0.231618
v -0.274673 0.171826 0.042839
v -0.274673 0.128023 0.230814
v 0.000000 0.184953 0.108776
v 0.000000 0.159696 0.175054
v -0.275421 0.162641 0.106683
v -0.275421 0.154143 0.170677
v -0.175194 0.128023 0.230814
v -0.096214 0.131698 0.231618
v -0.175194 0.177558 0.044094
v -0.096214 0.177558 0.044094
v -0.186977 0.176923 0.100186
v -0.174543 0.150408 0.176698
v -0.096214 0.169615 0.108776
v -0.094397 0.163727 0.189084
v -0.223918 -0.100944 0.217372
v -0.223918 -0.063139 -0.021271
v -0.223918 -0.033266 0.004264
v -0.223918 -0.070417 0.196585
v -0.183467 -0.033266 0.004264
v -0.183467 -0.070417 0.196585
v -0.183467 -0.100944 0.217372
v -0.183467 -0.063139 -0.021271
v -0.183467 0.171273 -0.073592
v -0.183467 0.205657 -0.058866
v -0.223918 0.171273 -0.073592
v -0.223918 0.205657 -0.058866
v -0.239993 -0.058560 0.204834
v -0.239993 -0.080013 0.230623
v -0.167391 -0.058560 0.204834
v -0.167391 -0.080013 0.230623
v -0.237220 -0.046648 0.204403
v -0.237220 -0.027998 0.223388
v -0.170164 -0.046648 0.204403
v -0.170164 -0.027998 0.223388
v -0.223918 0.040734 -0.033480
v -0.223918 -0.000550 -0.020283
v -0.223918 -0.013962 -0.060164
v -0.223918 0.032575 -0.069984
v -0.183467 -0.000550 -0.020283
v -0.183467 0.040734 -0.033480
v -0.183467 0.032575 -0.069984
v -0.183467 -0.013962 -0.060164
v -0.183467 0.171642 -0.219038
v -0.183467 0.205288 -0.232476
v -0.223918 0.171642 -0.219038
v -0.223918 0.205288 -0.232476
v -0.183467 0.157411 -0.250769
v -0.183467 0.169779 -0.262781
v -0.223918 0.157411 -0.250769
v -0.223918 0.169779 -0.262781
v -0.223918 0.164602 -0.020252
v -0.223918 0.121784 -0.014717
v -0.223918 0.118689 -0.049972
v -0.223918 0.149252 -0.052578
v -0.183467 0.121784 -0.014717
v -0.183467 0.164602 -0.020252
v -0.183467 0.149252 -0.052578
v -0.183467 0.118689 -0.049972
v -0.305191 0.224645 0.024939
v -0.305191 0.170765 0.271084
v 0.000000 0.170765 0.271084
v 0.000000 0.224645 0.024939
vn -0.0000 -0.9769 -0.2138
vn 0.9714 -0.2321 -0.0508
vn -0.0000 -0.0147 -0.9999
vn -0.0000 -0.0487 0.9988
vn -0.0000 -0.4204 0.9073
vn 0.6639 0.7305 0.1599
vn -0.0000 0.6443 0.7648
vn -0.0000 0.9160 -0.4011
vn -0.0562 0.8535 0.5180
vn -0.9415 0.3287 0.0745
vn 0.0010 0.3499 -0.9368
vn -0.0054 0.9205 0.3908
vn 0.1325 0.8651 0.4837
vn 0.1037 0.9921 0.0704
vn 0.0533 0.9678 0.2459
vn -0.0391 0.9964 0.0746
vn 0.0598 0.9765 0.2072
vn 0.0501 0.9980 -0.0396
vn 0.0426 0.9772 0.2081
vn 1.0000 -0.0000 -0.0000
vn -1.0000 -0.0000 -0.0000
vn -0.0000 0.5711 -0.8209
vn -0.0000 0.9818 0.1897
vn -0.0000 0.6851 0.7284
vn -0.0000 -0.9877 -0.1565
vn -0.0000 -0.2255 0.9742
vn -0.0000 0.6002 0.7999
vn -0.0000 -0.6203 -0.7844
vn -0.0000 0.1378 0.9905
vn -0.0000 -0.5349 0.8449
vn -0.7625 -0.4318 -0.4819
vn 0.7625 -0.4317 -0.4818
vn -0.0000 0.7134 -0.7008
vn 0.9962 0.0871 0.0054
vn -0.0000 -0.0362 -0.9993
vn -0.9962 0.0871 0.0055
vn -0.0000 0.3045 0.9525
vn -0.0000 -0.2065 -0.9785
vn -0.0000 0.2264 -0.9740
vn -0.0000 -0.6904 -0.7235
vn -0.0000 -1.0000 -0.0025
vn -0.0000 1.0000 -0.0021
vn -0.0000 0.6492 -0.7607
vn -0.0000 -0.9124 0.4092
vn -0.0000 0.1282 0.9917
vn -0.0000 -0.0850 -0.9964
vn -0.6639 0.7305 0.1599
vn -0.9714 -0.2321 -0.0508
vn 0.0562 0.8535 0.5180
vn 0.9415 0.3287 0.0745
vn -0.0010 0.3499 -0.9368
vn 0.0054 0.9205 0.3908
vn -0.1325 0.8651 0.4837
vn -0.1037 0.9921 0.0704
vn -0.0533 0.9678 0.2459
vn 0.0391 0.9964 0.0746
vn -0.0598 0.9765 0.2072
vn -0.0501 0.9980 -0.0396
vn -0.0426 0.9772 0.2081
vn 0.7625 -0.4318 -0.4819
vn -0.7625 -0.4317 -0.4818
vn -0.9962 0.0871 0.0054
vn 0.9962 0.0871 0.0055
vt 0.383365 0.870272
vt 0.383365 0.870143
vt 0.383365 0.870143
vt 0.383365 0.870272
vt 0.383365 0.870271
vt 0.383365 0.870271
vt 0.383365 0.870143
vt 0.974997 0.875327
vt 0.383365 0.870143
vt 0.974997 0.875327
vt 0.383365 0.870143
vt 0.974997 0.875327
vt 0.383365 0.870143
vt 0.974997 0.875327
vt 0.383365 0.869473
vt 0.974997 0.874657
vt 0.383365 0.868803
vt 0.974997 0.873988
vt 0.383365 0.869473
vt 0.974997 0.874657
vt 0.383365 0.868803
vt 0.974997 0.873988
vt 0.974997 0.874657
vt 0.974997 0.874657
vt 0.974997 0.873988
vt 0.974997 0.873988
vt 0.627649 0.794393
vt 0.627649 0.794393
vt 0.627649 0.794393
vt 0.627649 0.794393
vt 0.627649 0.794393
vt 0.627649 0.794393
vt 0.627649 0.794393
vt 0.627649 0.794393
vt 0.627649 0.794393
vt 0.627649 0.794393
vt 0.627649 0.794393
vt 0.627649 0.794393
vt 0.627649 0.794393
vt 0.627649 0.794393
vt 0.627649 0.794393
vt 0.627649 0.794393
vt 0.627649 0.794393
vt 0.627649 0.794393
vt 0.627649 0.794393
vt 0.627649 0.794393
vt 0.627649 0.794393
vt 0.627649 0.794393
vt 0.627649 0.794393
vt 0.627649 0.794393
vt 0.627649 0.794393
vt 0.627649 0.794393
vt 0.627649 0.794393
vt 0.627649 0.794393
vt 0.627649 0.794393
vt 0.627649 0.794393
vt 0.627649 0.794393
vt 0.627649 0.794393
vt 0.627649 0.794393
vt 0.627649 0.794393
vt 0.627649 0.794393
vt 0.627649 0.794393
vt 0.627649 0.794393
vt 0.627649 0.794393
vt 0.627649 0.794393
vt 0.627649 0.794393
vt 0.627649 0.794393
vt 0.627649 0.794393
vt 0.627649 0.794393
vt 0.627649 0.794393
vt 0.383365 0.870207
vt 0.383365 0.870207
vt 0.383365 0.870272
vt 0.383365 0.870143
vt 0.383365 0.870143
vt 0.383365 0.870272
vt 0.383365 0.868134
vt 0.383365 0.868134
vt 0.383365 0.868134
vt 0.383365 0.868134
vt 0.383365 0.870271
vt 0.383365 0.870271
vt 0.383365 0.868134
vt 0.383365 0.868134
vt 0.383365 0.868134
vt 0.974997 0.873318
vt 0.974997 0.873318
vt 0.383365 0.868134
vt 0.383365 0.870143
vt 0.974997 0.875327
vt 0.383365 0.870143
vt 0.974997 0.875327
vt 0.974997 0.873318
vt 0.974997 0.873318
vt 0.383365 0.870143
vt 0.974997 0.875327
vt 0.383365 0.870143
vt 0.974997 0.875327
vt 0.383365 0.869473
vt 0.974997 0.874657
vt 0.383365 0.868803
vt 0.974997 0.873988
vt 0.383365 0.869473
vt 0.974997 0.874657
vt 0.383365 0.868803
vt 0.974997 0.873988
vt 0.974997 0.874657
vt 0.974997 0.874657
vt 0.974997 0.873988
vt 0.974997 0.873988
vt 0.627649 0.794393
vt 0.627649 0.794393
vt 0.627649 0.794393
vt 0.627649 0.794393
vt 0.627649 0.794393
vt 0.627649 0.794393
vt 0.627649 0.794393
vt 0.627649 0.794393
vt 0.627649 0.794393
vt 0.627649 0.794393
vt 0.627649 0.794393
vt 0.627649 0.794393
vt 0.627649 0.794393
vt 0.627649 0.794393
vt 0.627649 0.794393
vt 0.627649 0.794393
vt 0.627649 0.794393
vt 0.627649 0.794393
vt 0.627649 0.794393
vt 0.627649 0.794393
vt 0.627649 0.794393
vt 0.627649 0.794393
vt 0.627649 0.794393
vt 0.627649 0.794393
vt 0.627649 0.794393
vt 0.627649 0.794393
vt 0.627649 0.794393
vt 0.627649 0.794393
vt 0.627649 0.794393
vt 0.627649 0.794393
vt 0.627649 0.794393
vt 0.627649 0.794393
vt 0.627649 0.794393
vt 0.627649 0.794393
vt 0.627649 0.794393
vt 0.627649 0.794393
vt 0.627649 0.794393
vt 0.627649 0.794393
vt 0.627649 0.794393
vt 0.627649 0.794393
vt 0.627649 0.794393
vt 0.627649 0.794393
vt 0.627649 0.794393
vt 0.627649 0.794393
vt 0.383365 0.870207
vt 0.383365 0.870207
vt 0.383365 0.868134
vt 0.383365 0.868134
s 0
usemtl Palette
f 72/80/1 4/4/1 1/1/1 69/77/1
f 4/4/2 5/5/2 6/6/2 1/1/2
f 4/4/3 72/80/3 76/84/3 5/5/3
f 3/3/4 71/79/4 77/85/4 14/21/4 13/19/4 7/7/4
f 1/1/5 6/6/5 75/83/5 69/77/5
f 63/71/6 64/72/6 6/6/6 5/5/6
f 64/72/7 139/157/7 75/83/7 6/6/7
f 140/158/8 63/71/8 5/5/8 76/84/8
f 18/26/9 82/94/9 78/87/9 12/18/9
f 2/2/10 3/3/10 7/7/10 9/11/10 10/13/10 8/9/10
f 70/78/11 2/2/11 8/9/11 11/15/11 12/17/11 78/88/11
f 10/14/12 16/24/12 11/16/12 8/10/12
f 16/24/13 18/26/13 12/18/13 11/16/13
f 7/8/14 13/20/14 15/23/14 9/12/14
f 9/12/15 15/23/15 16/24/15 10/14/15
f 13/20/16 14/22/16 17/25/16 15/23/16
f 15/23/17 17/25/17 18/26/17 16/24/17
f 14/22/18 77/86/18 81/93/18 17/25/18
f 17/25/19 81/93/19 82/94/19 18/26/19
f 20/28/20 21/29/20 22/30/20 19/27/20
f 26/34/21 25/33/21 24/32/21 23/31/21
f 24/32/22 33/41/22 31/39/22 22/30/22
f 21/29/23 23/31/23 24/32/23 22/30/23
f 60/68/24 55/63/24 30/38/24 28/36/24
f 19/27/25 25/33/25 26/34/25 20/28/25
f 61/69/21 60/68/21 28/36/21 27/35/21
f 20/28/20 41/49/20 40/48/20 21/29/20
f 39/47/26 56/64/26 59/67/26 44/52/26
f 21/29/27 40/48/27 43/51/27 23/31/27
f 26/34/28 46/54/28 41/49/28 20/28/28
f 23/31/21 43/51/21 46/54/21 26/34/21
f 32/40/29 36/44/29 38/46/29 34/42/29
f 19/27/30 32/40/30 34/42/30 25/33/30
f 25/33/31 34/42/31 33/41/31 24/32/31
f 22/30/32 31/39/32 32/40/32 19/27/32
f 35/43/33 37/45/33 38/46/33 36/44/33
f 31/39/34 35/43/34 36/44/34 32/40/34
f 33/41/35 37/45/35 35/43/35 31/39/35
f 34/42/36 38/46/36 37/45/36 33/41/36
f 40/48/20 41/49/20 42/50/20 39/47/20
f 44/52/21 45/53/21 46/54/21 43/51/21
f 43/51/37 40/48/37 39/47/37 44/52/37
f 45/53/38 42/50/38 41/49/38 46/54/38
f 55/63/20 58/66/20 29/37/20 30/38/20
f 45/53/39 62/70/39 57/65/39 42/50/39
f 44/52/21 59/67/21 62/70/21 45/53/21
f 58/66/40 61/69/40 27/35/40 29/37/40
f 29/37/41 27/35/41 47/55/41 49/57/41
f 30/38/20 29/37/20 49/57/20 50/58/20
f 27/35/21 28/36/21 48/56/21 47/55/21
f 28/36/42 30/38/42 50/58/42 48/56/42
f 47/55/21 48/56/21 52/60/21 51/59/21
f 48/56/43 50/58/43 54/62/43 52/60/43
f 49/57/44 47/55/44 51/59/44 53/61/44
f 50/58/20 49/57/20 53/61/20 54/62/20
f 56/64/20 57/65/20 58/66/20 55/63/20
f 60/68/21 61/69/21 62/70/21 59/67/21
f 59/67/45 56/64/45 55/63/45 60/68/45
f 61/69/46 58/66/46 57/65/46 62/70/46
f 42/50/20 57/65/20 56/64/20 39/47/20
f 71/79/7 3/3/7 63/71/7 140/158/7
f 2/2/8 70/78/8 139/157/8 64/72/8
f 3/3/47 2/2/47 64/72/47 63/71/47
f 72/80/1 69/77/1 65/73/1 68/76/1
f 68/76/48 65/73/48 74/82/48 73/81/48
f 68/76/3 73/81/3 76/84/3 72/80/3
f 67/75/4 79/89/4 87/103/4 88/105/4 77/85/4 71/79/4
f 65/73/5 69/77/5 75/83/5 74/82/5
f 137/155/47 73/81/47 74/82/47 138/156/47
f 138/156/7 74/82/7 75/83/7 139/157/7
f 140/158/8 76/84/8 73/81/8 137/155/8
f 92/110/49 86/102/49 78/87/49 82/94/49
f 66/74/50 80/91/50 84/97/50 83/95/50 79/89/50 67/75/50
f 70/78/51 78/88/51 86/101/51 85/99/51 80/91/51 66/74/51
f 84/98/52 80/92/52 85/100/52 90/108/52
f 90/108/53 85/100/53 86/102/53 92/110/53
f 79/90/54 83/96/54 89/107/54 87/104/54
f 83/96/55 84/98/55 90/108/55 89/107/55
f 87/104/56 89/107/56 91/109/56 88/106/56
f 89/107/57 90/108/57 92/110/57 91/109/57
f 88/106/58 91/109/58 81/93/58 77/86/58
f 91/109/59 92/110/59 82/94/59 81/93/59
f 94/112/21 93/111/21 96/114/21 95/113/21
f 100/118/20 97/115/20 98/116/20 99/117/20
f 98/116/22 96/114/22 105/123/22 107/125/22
f 95/113/23 96/114/23 98/116/23 97/115/23
f 134/152/24 102/120/24 104/122/24 129/147/24
f 93/111/25 94/112/25 100/118/25 99/117/25
f 135/153/20 101/119/20 102/120/20 134/152/20
f 94/112/21 95/113/21 114/132/21 115/133/21
f 113/131/26 118/136/26 133/151/26 130/148/26
f 95/113/27 97/115/27 117/135/27 114/132/27
f 100/118/28 94/112/28 115/133/28 120/138/28
f 97/115/20 100/118/20 120/138/20 117/135/20
f 106/124/29 108/126/29 112/130/29 110/128/29
f 93/111/30 99/117/30 108/126/30 106/124/30
f 99/117/60 98/116/60 107/125/60 108/126/60
f 96/114/61 93/111/61 106/124/61 105/123/61
f 109/127/33 110/128/33 112/130/33 111/129/33
f 105/123/62 106/124/62 110/128/62 109/127/62
f 107/125/35 105/123/35 109/127/35 111/129/35
f 108/126/63 107/125/63 111/129/63 112/130/63
f 114/132/21 113/131/21 116/134/21 115/133/21
f 118/136/20 117/135/20 120/138/20 119/137/20
f 117/135/37 118/136/37 113/131/37 114/132/37
f 119/137/38 120/138/38 115/133/38 116/134/38
f 129/147/21 104/122/21 103/121/21 132/150/21
f 119/137/39 116/134/39 131/149/39 136/154/39
f 118/136/20 119/137/20 136/154/20 133/151/20
f 132/150/40 103/121/40 101/119/40 135/153/40
f 103/121/41 123/141/41 121/139/41 101/119/41
f 104/122/21 124/142/21 123/141/21 103/121/21
f 101/119/20 121/139/20 122/140/20 102/120/20
f 102/120/42 122/140/42 124/142/42 104/122/42
f 121/139/20 125/143/20 126/144/20 122/140/20
f 122/140/43 126/144/43 128/146/43 124/142/43
f 123/141/44 127/145/44 125/143/44 121/139/44
f 124/142/21 128/146/21 127/145/21 123/141/21
f 130/148/21 129/147/21 132/150/21 131/149/21
f 134/152/20 133/151/20 136/154/20 135/153/20
f 133/151/45 134/152/45 129/147/45 130/148/45
f 135/153/46 136/154/46 131/149/46 132/150/46
f 116/134/21 113/131/21 130/148/21 131/149/21
f 71/79/7 140/158/7 137/155/7 67/75/7
f 66/74/8 138/156/8 139/157/8 70/78/8
f 67/75/6 137/155/6 138/156/6 66/74/6
