# Blender 3.4.1
# www.blender.org
mtllib Fridge__Freezer_Door_.mtl
o Fridge_(Freezer_Door)
v -0.000584 0.000000 0.072122
v -0.043256 0.050191 -0.001995
v -0.000584 0.447159 0.072122
v -0.043256 0.404487 -0.001995
v -0.456000 0.000000 0.094434
v -0.911416 0.000000 0.072122
v -0.456000 0.050191 -0.001995
v -0.868744 0.050191 -0.001995
v -0.456000 0.447159 0.094434
v -0.911416 0.447159 0.072122
v -0.456000 0.404487 -0.001995
v -0.868744 0.404487 -0.001995
v -0.456000 0.000000 -0.001995
v -0.000584 0.000000 -0.001995
v -0.456000 0.447159 -0.001995
v -0.000584 0.447159 -0.001995
v -0.911416 0.000000 -0.001995
v -0.911416 0.447159 -0.001995
v -0.456000 0.404487 0.058225
v -0.456000 0.050191 0.058225
v -0.043256 0.050191 0.058225
v -0.043256 0.404487 0.058225
v -0.868744 0.050191 0.058225
v -0.868744 0.404487 0.058225
v -0.199305 0.104685 -0.049641
v -0.520446 0.104685 -0.049641
v -0.199305 0.090712 0.058225
v -0.520446 0.090712 0.058225
v -0.520446 0.118247 -0.049641
v -0.520446 0.118247 0.058225
v -0.520446 0.162527 -0.049641
v -0.199305 0.118247 -0.049641
v -0.199305 0.162527 -0.049641
v -0.199305 0.118247 0.058225
v -0.212557 0.162527 -0.036775
v -0.507194 0.162527 -0.036775
v -0.507194 0.162527 0.066845
v -0.520446 0.162527 0.066845
v -0.199305 0.162527 0.066845
v -0.212557 0.162527 0.066845
v -0.202713 0.181170 -0.046332
v -0.199305 0.177795 -0.049641
v -0.520446 0.177795 -0.049641
v -0.517037 0.181170 -0.046332
v -0.212557 0.177795 -0.036775
v -0.209149 0.181170 -0.040084
v -0.510602 0.181170 -0.040084
v -0.507194 0.177795 -0.036775
v -0.507194 0.177795 0.066845
v -0.510601 0.181170 0.066845
v -0.517039 0.181170 0.066845
v -0.520446 0.177795 0.066845
v -0.199305 0.177795 0.066845
v -0.202712 0.181170 0.066845
v -0.209150 0.181170 0.066845
v -0.212557 0.177795 0.066845
v -0.406875 0.030487 0.099405
v -0.406875 0.068031 0.099405
v -0.456000 0.030487 0.101812
v -0.505125 0.030487 0.099405
v -0.456000 0.068031 0.101812
v -0.505125 0.068031 0.099405
v -0.456000 0.030487 0.090534
v -0.406875 0.030487 0.088127
v -0.456000 0.068031 0.090534
v -0.406875 0.068031 0.088127
v -0.505125 0.030487 0.088127
v -0.505125 0.068031 0.088127
vn -0.0000 -1.0000 -0.0000
vn -0.0000 1.0000 -0.0000
vn 1.0000 -0.0000 -0.0000
vn 0.0489 -0.0000 0.9988
vn -1.0000 -0.0000 -0.0000
vn -0.0489 -0.0000 0.9988
vn -0.0000 -0.0000 -1.0000
vn -0.0000 -0.0000 1.0000
vn -0.0000 -0.9917 -0.1285
vn -0.0000 0.7000 -0.7141
vn -0.0000 0.7000 0.7141
vn 0.7037 0.7105 -0.0000
vn -0.7037 0.7105 -0.0000
vt 0.299596 0.795803
vt 0.130325 0.875463
vt 0.291096 0.791564
vt 0.299596 0.795803
vt 0.130325 0.875463
vt 0.291096 0.791564
vt 0.299596 0.795803
vt 0.299596 0.795803
vt 0.130325 0.875462
vt 0.291096 0.791563
vt 0.291096 0.791564
vt 0.130325 0.875463
vt 0.299596 0.795803
vt 0.299596 0.795803
vt 0.130325 0.875462
vt 0.291096 0.791563
vt 0.130325 0.875462
vt 0.291096 0.791563
vt 0.299596 0.795803
vt 0.130325 0.875462
vt 0.299596 0.795803
vt 0.130325 0.875463
vt 0.299596 0.795803
vt 0.130325 0.875462
vt 0.299596 0.795803
vt 0.130325 0.875463
vt 0.299596 0.795803
vt 0.130325 0.875463
vt 0.299596 0.795803
vt 0.130325 0.875463
vt 0.228865 0.796764
vt 0.291096 0.791563
vt 0.228865 0.796764
vt 0.291096 0.791563
vt 0.228865 0.796764
vt 0.291096 0.791564
vt 0.228865 0.796764
vt 0.291096 0.791564
vt 0.291096 0.791564
vt 0.228865 0.796764
vt 0.228865 0.796764
vt 0.291096 0.791563
vt 0.130325 0.875463
vt 0.130325 0.875463
vt 0.130325 0.875463
vt 0.130325 0.875463
vt 0.130325 0.875463
vt 0.130325 0.875463
vt 0.386585 0.802704
vt 0.130325 0.875463
vt 0.386585 0.802704
vt 0.130325 0.875463
vt 0.386585 0.802703
vt 0.386585 0.802704
vt 0.386585 0.802704
vt 0.386585 0.802704
vt 0.386585 0.802704
vt 0.386585 0.802703
vt 0.386585 0.802703
vt 0.386585 0.802704
vt 0.386585 0.802704
vt 0.386585 0.802704
vt 0.386585 0.802703
vt 0.386585 0.802703
vt 0.386585 0.802704
vt 0.386585 0.802704
vt 0.386585 0.802704
vt 0.386585 0.802704
vt 0.386585 0.802704
vt 0.386585 0.802704
vt 0.386585 0.802704
vt 0.386585 0.802704
vt 0.386585 0.802704
vt 0.386585 0.802703
vt 0.213439 0.794484
vt 0.101679 0.888483
vt 0.213439 0.794484
vt 0.101679 0.888483
vt 0.213439 0.794483
vt 0.101679 0.888483
vt 0.213439 0.794484
vt 0.101679 0.888483
vt 0.213439 0.794483
vt 0.101679 0.888483
vt 0.213439 0.794484
vt 0.101679 0.888483
vt 0.101679 0.888483
vt 0.101679 0.888483
vt 0.101679 0.888483
vt 0.101679 0.888483
vt 0.101679 0.888483
vt 0.101679 0.888483
s 0
usemtl Palette
f 1/1/1 5/7/1 13/19/1 14/21/1
f 3/4/2 16/25/2 15/23/2 9/13/2
f 14/21/3 16/25/3 3/4/3 1/1/3
f 8/11/2 23/39/2 20/34/2 7/10/2
f 1/1/4 3/4/4 9/13/4 5/7/4
f 6/8/1 17/27/1 13/19/1 5/7/1
f 10/14/2 9/13/2 15/23/2 18/29/2
f 17/27/5 6/8/5 10/14/5 18/29/5
f 12/18/3 24/42/3 23/39/3 8/11/3
f 6/8/6 5/7/6 9/13/6 10/14/6
f 2/2/7 14/22/7 13/20/7 7/9/7
f 11/15/7 15/24/7 16/26/7 4/5/7
f 4/5/7 16/26/7 14/22/7 2/2/7
f 7/9/7 13/20/7 17/28/7 8/12/7
f 12/17/7 18/30/7 15/24/7 11/15/7
f 8/12/7 17/28/7 18/30/7 12/17/7
f 20/33/7 19/31/7 22/37/7 21/35/7
f 20/33/7 23/40/7 24/41/7 19/31/7
f 4/6/1 22/38/1 19/32/1 11/16/1
f 11/16/1 19/32/1 24/42/1 12/18/1
f 2/3/5 21/36/5 22/38/5 4/6/5
f 7/10/2 20/34/2 21/36/2 2/3/2
f 32/50/2 29/47/2 30/48/2 34/52/2
f 47/65/2 44/62/2 51/69/2 50/68/2
f 35/53/8 45/63/8 48/66/8 36/54/8
f 25/43/3 32/50/3 34/52/3 27/45/3
f 25/43/7 26/44/7 29/47/7 32/50/7
f 28/46/5 30/48/5 29/47/5 26/44/5
f 46/64/2 55/73/2 54/72/2 41/59/2
f 31/49/5 38/56/5 52/70/5 43/61/5
f 27/45/9 28/46/9 26/44/9 25/43/9
f 45/63/5 35/53/5 40/58/5 56/74/5
f 31/49/1 36/54/1 37/55/1 38/56/1
f 41/59/2 44/62/2 47/65/2 46/64/2
f 33/51/1 35/53/1 36/54/1 31/49/1
f 33/51/7 31/49/7 43/61/7 42/60/7
f 36/54/3 48/66/3 49/67/3 37/55/3
f 35/53/1 33/51/1 39/57/1 40/58/1
f 42/60/10 43/61/10 44/62/10 41/59/10
f 46/64/11 47/65/11 48/66/11 45/63/11
f 41/59/12 54/72/12 53/71/12 42/60/12
f 47/65/12 50/68/12 49/67/12 48/66/12
f 51/69/13 44/62/13 43/61/13 52/70/13
f 55/73/13 46/64/13 45/63/13 56/74/13
f 42/60/3 53/71/3 39/57/3 33/51/3
f 57/75/4 58/77/4 61/83/4 59/79/4
f 60/81/6 59/79/6 61/83/6 62/85/6
f 61/84/2 65/89/2 68/92/2 62/86/2
f 58/78/2 66/90/2 65/89/2 61/84/2
f 62/86/5 68/92/5 67/91/5 60/82/5
f 60/82/1 67/91/1 63/87/1 59/80/1
f 57/76/3 64/88/3 66/90/3 58/78/3
f 59/80/1 63/87/1 64/88/1 57/76/1
