# Blender 3.4.1
# www.blender.org
mtllib Fridge.mtl
o Fridge
v 0.438705 0.025093 -0.437787
v 0.419027 1.855230 0.286545
v 0.419027 0.123900 0.286545
v 0.438705 1.874907 -0.437787
v 0.463798 1.466616 -0.437787
v 0.419027 1.489485 0.286545
v 0.463798 1.900000 0.286545
v 0.419027 1.445683 0.286545
v 0.463798 0.000000 0.286545
v 0.463798 1.466616 0.286545
v 0.419027 1.855230 -0.278248
v 0.419027 1.489485 -0.278248
v 0.419027 0.123900 -0.278248
v 0.419027 1.445683 -0.278248
v 0.463798 0.000000 -0.437787
v 0.463798 1.900000 -0.437787
v 0.438705 1.466616 -0.437787
v 0.438705 1.466616 -0.423297
v 0.438705 0.025093 -0.423297
v 0.438705 1.874907 -0.423297
v 0.350001 0.397770 -0.432554
v 0.061412 0.397770 -0.432554
v 0.061412 0.132987 -0.432554
v 0.350001 0.132987 -0.432554
v 0.350001 0.397770 -0.413103
v 0.061412 0.397770 -0.413103
v 0.061412 0.132987 -0.413103
v 0.350001 0.132987 -0.413103
v -0.438705 0.025093 -0.437787
v -0.419027 1.855230 0.286545
v -0.419027 0.123900 0.286545
v -0.438705 1.874907 -0.437787
v -0.463798 1.466616 -0.437787
v -0.419027 1.489485 0.286545
v -0.463798 1.900000 0.286545
v -0.419027 1.445683 0.286545
v -0.463798 0.000000 0.286545
v -0.463798 1.466616 0.286545
v -0.419027 1.855230 -0.278248
v -0.419027 1.489485 -0.278248
v -0.419027 0.123900 -0.278248
v -0.419027 1.445683 -0.278248
v -0.463798 0.000000 -0.437787
v -0.463798 1.900000 -0.437787
v -0.438705 1.466616 -0.437787
v -0.438705 1.466616 -0.423297
v -0.438705 0.025093 -0.423297
v -0.438705 1.874907 -0.423297
v -0.350001 0.397770 -0.432554
v -0.061412 0.397770 -0.432554
v -0.061412 0.132987 -0.432554
v -0.350001 0.132987 -0.432554
v -0.350001 0.397770 -0.413103
v -0.061412 0.397770 -0.413103
v -0.061412 0.132987 -0.413103
v -0.350001 0.132987 -0.413103
vn -0.0000 1.0000 -0.0000
vn 1.0000 -0.0000 -0.0000
vn -0.0000 -0.0000 1.0000
vn -1.0000 -0.0000 -0.0000
vn -0.0000 -1.0000 -0.0000
vn -0.0000 -0.0000 -1.0000
vt 0.286575 0.795803
vt 0.286575 0.795803
vt 0.112096 0.891088
vt 0.104283 0.891088
vt 0.112096 0.891088
vt 0.286575 0.795803
vt 0.104283 0.891088
vt 0.286575 0.795803
vt 0.286575 0.795803
vt 0.286575 0.795803
vt 0.112096 0.891088
vt 0.104283 0.891088
vt 0.286575 0.795803
vt 0.112096 0.891087
vt 0.286575 0.795803
vt 0.104283 0.891087
vt 0.286575 0.795803
vt 0.286575 0.795803
vt 0.112096 0.891088
vt 0.104283 0.891088
vt 0.112096 0.891088
vt 0.104283 0.891088
vt 0.112096 0.891088
vt 0.104283 0.891088
vt 0.112096 0.891087
vt 0.104283 0.891087
vt 0.286575 0.795803
vt 0.286575 0.795803
vt 0.286575 0.795803
vt 0.061315 0.949681
vt 0.286575 0.795803
vt 0.286575 0.795803
vt 0.061315 0.949681
vt 0.061315 0.949681
vt 0.286575 0.795803
vt 0.389189 0.802703
vt 0.389189 0.802703
vt 0.389189 0.802703
vt 0.389189 0.802704
vt 0.389189 0.802703
vt 0.389189 0.802703
vt 0.389189 0.802703
vt 0.389189 0.802704
vt 0.286575 0.795803
vt 0.112096 0.891088
vt 0.286575 0.795803
vt 0.104283 0.891088
vt 0.112096 0.891088
vt 0.286575 0.795803
vt 0.104283 0.891088
vt 0.286575 0.795803
vt 0.286575 0.795803
vt 0.112096 0.891088
vt 0.286575 0.795803
vt 0.104283 0.891088
vt 0.286575 0.795803
vt 0.112096 0.891087
vt 0.286575 0.795803
vt 0.104283 0.891087
vt 0.286575 0.795803
vt 0.286575 0.795803
vt 0.112096 0.891088
vt 0.104283 0.891088
vt 0.112096 0.891088
vt 0.104283 0.891088
vt 0.112096 0.891088
vt 0.104283 0.891088
vt 0.112096 0.891087
vt 0.104283 0.891087
vt 0.286575 0.795803
vt 0.286575 0.795803
vt 0.286575 0.795803
vt 0.061315 0.949681
vt 0.286575 0.795803
vt 0.061315 0.949681
vt 0.286575 0.795803
vt 0.061315 0.949681
vt 0.286575 0.795803
vt 0.389189 0.802703
vt 0.389189 0.802703
vt 0.389189 0.802703
vt 0.389189 0.802704
vt 0.389189 0.802703
vt 0.389189 0.802703
vt 0.389189 0.802703
vt 0.389189 0.802704
s 0
usemtl Palette
f 35/56/1 7/13/1 16/28/1 44/71/1
f 1/1/1 29/44/1 47/76/1 19/32/1
f 31/48/1 3/5/1 13/23/1 41/66/1
f 15/27/2 5/9/2 10/18/2 9/17/2
f 5/9/2 16/28/2 7/13/2 10/18/2
f 30/46/3 2/2/3 7/13/3 35/56/3
f 1/1/4 19/32/4 18/31/4 17/29/4
f 8/14/5 36/57/5 42/68/5 14/25/5
f 6/10/3 34/54/3 38/61/3 10/18/3
f 3/6/3 31/49/3 37/60/3 9/17/3
f 6/10/3 10/18/3 7/13/3 2/2/3
f 36/58/3 8/15/3 10/18/3 38/61/3
f 3/6/3 9/17/3 10/18/3 8/15/3
f 40/64/3 12/21/3 11/19/3 39/62/3
f 41/66/3 13/23/3 14/25/3 42/68/3
f 2/3/5 30/45/5 39/62/5 11/19/5
f 34/53/1 6/11/1 12/21/1 40/64/1
f 29/44/6 1/1/6 15/27/6 43/70/6
f 8/16/4 14/26/4 13/24/4 3/7/4
f 2/4/4 11/20/4 12/22/4 6/12/4
f 4/8/6 32/51/6 44/71/6 16/28/6
f 19/33/6 47/75/6 46/73/6 18/30/6
f 17/29/6 5/9/6 15/27/6 1/1/6
f 4/8/6 16/28/6 5/9/6 17/29/6
f 32/51/5 4/8/5 20/35/5 48/78/5
f 18/30/6 46/73/6 48/77/6 20/34/6
f 17/29/4 18/31/4 20/35/4 4/8/4
f 23/38/6 22/37/6 21/36/6 24/39/6
f 23/38/5 24/39/5 28/43/5 27/42/5
f 21/36/1 22/37/1 26/41/1 25/40/1
f 24/39/2 21/36/2 25/40/2 28/43/2
f 22/37/4 23/38/4 27/42/4 26/41/4
f 43/70/4 37/60/4 38/61/4 33/52/4
f 33/52/4 38/61/4 35/56/4 44/71/4
f 29/44/2 45/72/2 46/74/2 47/76/2
f 34/54/3 30/46/3 35/56/3 38/61/3
f 31/49/3 36/58/3 38/61/3 37/60/3
f 36/59/2 31/50/2 41/67/2 42/69/2
f 30/47/2 34/55/2 40/65/2 39/63/2
f 45/72/6 29/44/6 43/70/6 33/52/6
f 32/51/6 45/72/6 33/52/6 44/71/6
f 45/72/2 32/51/2 48/78/2 46/74/2
f 51/81/6 52/82/6 49/79/6 50/80/6
f 51/81/5 55/85/5 56/86/5 52/82/5
f 49/79/1 53/83/1 54/84/1 50/80/1
f 52/82/4 56/86/4 53/83/4 49/79/4
f 50/80/2 54/84/2 55/85/2 51/81/2
f 37/60/5 43/70/5 15/27/5 9/17/5
