# Blender 3.4.1
# www.blender.org
mtllib Gamer_Chair_Base_Bottom.mtl
o Gamer_Chair_Base_Bottom
v -0.016447 0.454413 0.018829
v -0.022972 0.454413 0.003075
v -0.016447 0.454413 -0.012678
v -0.029845 0.454413 0.031986
v -0.041821 0.454413 0.003075
v -0.029845 0.454413 -0.025837
v -0.029845 0.334570 0.031986
v -0.041821 0.334570 0.003075
v -0.029845 0.334570 -0.025837
v -0.038222 0.334570 0.040363
v -0.053667 0.334570 0.003075
v -0.038222 0.334570 -0.034213
v -0.038222 0.184101 0.040363
v -0.053667 0.184101 0.003075
v -0.038222 0.184101 -0.034213
v 0.000000 0.454413 0.025354
v 0.016447 0.454413 0.018829
v 0.022972 0.454413 0.003075
v 0.016447 0.454413 -0.012678
v -0.000000 0.454413 -0.019203
v 0.000000 0.454413 0.043961
v 0.029845 0.454413 0.031986
v 0.041821 0.454413 0.003074
v 0.029845 0.454413 -0.025837
v -0.000000 0.454413 -0.037812
v 0.000000 0.334570 0.043961
v 0.029845 0.334570 0.031986
v 0.041821 0.334570 0.003074
v 0.029845 0.334570 -0.025837
v -0.000000 0.334570 -0.037812
v 0.000000 0.334570 0.055808
v 0.038222 0.334570 0.040363
v 0.053667 0.334570 0.003075
v 0.038222 0.334570 -0.034213
v -0.000000 0.334570 -0.049658
v 0.000000 0.184101 0.055808
v 0.038222 0.184101 0.040363
v 0.053667 0.184101 0.003075
v 0.038222 0.184101 -0.034213
v -0.000000 0.184101 -0.049658
v -0.023553 0.232324 -0.029719
v -0.023553 0.199404 -0.029719
v -0.011047 0.096141 -0.367353
v -0.011047 0.119888 -0.367353
v -0.005974 0.108016 -0.353725
v -0.005975 0.108016 -0.364470
v -0.005974 0.072816 -0.353725
v -0.005975 0.072816 -0.364470
v 0.023553 0.232324 -0.029719
v 0.023553 0.199404 -0.029719
v 0.011047 0.096141 -0.367353
v 0.011047 0.119888 -0.367353
v -0.000000 0.108016 -0.353725
v 0.005974 0.108016 -0.353725
v 0.005974 0.108016 -0.364470
v -0.000000 0.072816 -0.353725
v 0.005974 0.072816 -0.353725
v 0.005974 0.072816 -0.364470
v -0.029694 0.232324 0.008967
v -0.029694 0.199404 0.008967
v -0.352786 0.096141 -0.103013
v -0.352786 0.119888 -0.103013
v -0.338257 0.108016 -0.103626
v -0.348477 0.108016 -0.106946
v -0.338257 0.072816 -0.103626
v -0.348477 0.072816 -0.106946
v -0.015138 0.232324 -0.035833
v -0.015138 0.199404 -0.035833
v -0.345959 0.096141 -0.124026
v -0.345959 0.119888 -0.124026
v -0.336411 0.108016 -0.109308
v -0.334565 0.108016 -0.114990
v -0.344785 0.108016 -0.118310
v -0.336411 0.072816 -0.109308
v -0.334565 0.072816 -0.114990
v -0.344785 0.072816 -0.118310
v 0.005201 0.232324 0.026762
v 0.005201 0.199404 0.026762
v -0.206987 0.096141 0.303686
v -0.206987 0.119888 0.303686
v -0.203080 0.108016 0.289679
v -0.209396 0.108016 0.298372
v -0.203080 0.072816 0.289679
v -0.209396 0.072816 0.298372
v -0.032908 0.232324 -0.000926
v -0.032908 0.199404 -0.000926
v -0.224861 0.096141 0.290699
v -0.224861 0.119888 0.290699
v -0.207913 0.108016 0.286167
v -0.212747 0.108016 0.282655
v -0.219063 0.108016 0.291349
v -0.207913 0.072816 0.286167
v -0.212747 0.072816 0.282655
v -0.219063 0.072816 0.291349
v 0.032908 0.232324 -0.000926
v 0.032908 0.199404 -0.000926
v 0.224862 0.096141 0.290699
v 0.224862 0.119888 0.290699
v 0.212747 0.108016 0.282655
v 0.219063 0.108016 0.291348
v 0.212747 0.072816 0.282655
v 0.219063 0.072816 0.291348
v -0.005201 0.232324 0.026762
v -0.005201 0.199404 0.026762
v 0.206987 0.096141 0.303686
v 0.206987 0.119888 0.303686
v 0.207914 0.108016 0.286167
v 0.203080 0.108016 0.289678
v 0.209396 0.108016 0.298372
v 0.207914 0.072816 0.286167
v 0.203080 0.072816 0.289678
v 0.209396 0.072816 0.298372
v 0.015138 0.232324 -0.035833
v 0.015138 0.199404 -0.035833
v 0.345959 0.096141 -0.124026
v 0.345959 0.119888 -0.124026
v 0.334565 0.108016 -0.114990
v 0.344784 0.108016 -0.118311
v 0.334565 0.072816 -0.114990
v 0.344784 0.072816 -0.118311
v 0.029694 0.232324 0.008967
v 0.029694 0.199404 0.008967
v 0.352786 0.096141 -0.103013
v 0.352786 0.119888 -0.103013
v 0.336411 0.108016 -0.109308
v 0.338257 0.108016 -0.103626
v 0.348477 0.108016 -0.106947
v 0.336411 0.072816 -0.109308
v 0.338257 0.072816 -0.103626
v 0.348477 0.072816 -0.106947
v -0.100893 0.149506 0.165224
v -0.100893 0.121173 0.165224
v -0.128885 0.149506 0.144887
v -0.128885 0.121173 0.144887
v 0.128885 0.149506 0.144887
v 0.128885 0.121173 0.144887
v 0.100893 0.149506 0.165224
v 0.100893 0.121173 0.165224
v 0.180548 0.149506 -0.079930
v 0.180548 0.121173 -0.079930
v 0.191240 0.149506 -0.047023
v 0.191240 0.121173 -0.047023
v -0.017300 0.149506 -0.198536
v -0.017300 0.121173 -0.198536
v 0.017300 0.149506 -0.198536
v 0.017300 0.121173 -0.198536
v -0.191240 0.149506 -0.047023
v -0.191240 0.121173 -0.047023
v -0.180548 0.149506 -0.079930
v -0.180548 0.121173 -0.079930
vn -0.0000 1.0000 -0.0000
vn -0.5464 0.6293 -0.5526
vn -0.0000 0.6321 -0.7749
vn -0.0000 0.8013 -0.5983
vn -0.4166 0.8056 -0.4212
vn -0.5464 0.6293 0.5526
vn -0.7764 0.6303 -0.0000
vn -0.5944 0.8042 -0.0000
vn -0.4166 0.8056 0.4212
vn -0.0000 0.6321 0.7749
vn -0.0000 0.8013 0.5983
vn -0.5470 0.6295 -0.5518
vn -0.5470 -0.6295 -0.5518
vn -0.7764 -0.6303 -0.0000
vn -0.0000 0.6317 0.7752
vn -0.5470 0.6295 0.5518
vn -0.5470 -0.6295 0.5518
vn -0.0000 -0.6317 0.7752
vn -0.0000 0.6317 -0.7752
vn -0.0000 -0.6317 -0.7752
vn -0.0000 -1.0000 -0.0000
vn 0.5464 0.6293 -0.5526
vn 0.4166 0.8056 -0.4212
vn 0.5464 0.6293 0.5526
vn 0.4166 0.8056 0.4212
vn 0.5944 0.8042 -0.0000
vn 0.7764 0.6303 -0.0000
vn 0.7764 -0.6303 -0.0000
vn 0.5470 -0.6295 -0.5518
vn 0.5470 0.6295 -0.5518
vn 0.5470 -0.6295 0.5518
vn 0.5470 0.6295 0.5518
vn -0.0000 0.9850 -0.1728
vn -0.0000 -0.9073 0.4205
vn -0.0000 -0.0000 -1.0000
vn -0.9993 -0.0000 -0.0370
vn -0.0000 -0.0000 1.0000
vn -1.0000 -0.0000 -0.0000
vn 0.9993 -0.0000 -0.0370
vn 1.0000 -0.0000 -0.0000
vn -0.1624 0.9853 -0.0528
vn 0.3958 -0.9093 0.1286
vn -0.9511 -0.0000 -0.3090
vn -0.3275 -0.0000 0.9449
vn 0.9511 -0.0000 0.3090
vn -0.3090 -0.0000 0.9511
vn 0.2576 -0.0000 -0.9663
vn 0.3090 -0.0000 -0.9511
vn -0.0984 0.9859 0.1355
vn 0.2406 -0.9124 -0.3311
vn -0.5878 -0.0000 0.8090
vn 0.7938 -0.0000 0.6082
vn 0.5878 -0.0000 -0.8090
vn 0.8090 -0.0000 0.5878
vn -0.8353 -0.0000 -0.5498
vn -0.8090 -0.0000 -0.5878
vn 0.0984 0.9859 0.1355
vn -0.2406 -0.9124 -0.3311
vn 0.5878 -0.0000 0.8090
vn 0.8353 -0.0000 -0.5498
vn -0.5878 -0.0000 -0.8090
vn 0.8090 -0.0000 -0.5878
vn -0.7938 -0.0000 0.6082
vn -0.8090 -0.0000 0.5878
vn 0.1624 0.9853 -0.0528
vn -0.3958 -0.9093 0.1286
vn 0.9511 -0.0000 -0.3090
vn -0.2576 -0.0000 -0.9663
vn -0.9511 -0.0000 0.3090
vn -0.3090 -0.0000 -0.9511
vn 0.3275 -0.0000 0.9449
vn 0.3090 -0.0000 0.9511
vn 0.0835 -0.9899 -0.1150
vn -0.2522 0.9033 0.3471
vn -0.0835 -0.9899 -0.1150
vn 0.2522 0.9033 0.3471
vn -0.1378 -0.9894 0.0448
vn 0.4147 0.8999 -0.1347
vn -0.0000 -0.9892 0.1467
vn -0.0000 0.8978 -0.4404
vn 0.1378 -0.9894 0.0448
vn -0.4147 0.8999 -0.1347
vt 0.052813 0.972660
vt 0.046563 0.972660
vt 0.040313 0.972660
vt 0.052813 0.972660
vt 0.046563 0.972660
vt 0.040313 0.972660
vt 0.052813 0.972660
vt 0.124206 0.970375
vt 0.046563 0.972660
vt 0.117956 0.970375
vt 0.040313 0.972660
vt 0.111706 0.970375
vt 0.124206 0.970375
vt 0.117956 0.970375
vt 0.111706 0.970375
vt 0.124206 0.970375
vt 0.117956 0.970375
vt 0.111706 0.970375
vt 0.059063 0.972660
vt 0.052813 0.972660
vt 0.046563 0.972660
vt 0.040313 0.972660
vt 0.034063 0.972660
vt 0.059063 0.972660
vt 0.052813 0.972660
vt 0.046563 0.972660
vt 0.040313 0.972660
vt 0.034063 0.972660
vt 0.059063 0.972660
vt 0.130456 0.970375
vt 0.052813 0.972660
vt 0.124206 0.970375
vt 0.046563 0.972660
vt 0.117956 0.970375
vt 0.040313 0.972660
vt 0.111706 0.970375
vt 0.034063 0.972660
vt 0.105456 0.970375
vt 0.130456 0.970375
vt 0.124206 0.970375
vt 0.117956 0.970375
vt 0.111706 0.970375
vt 0.105456 0.970375
vt 0.130456 0.970375
vt 0.124206 0.970375
vt 0.117956 0.970375
vt 0.111706 0.970375
vt 0.105456 0.970375
vt 0.134828 0.975753
vt 0.134828 0.975753
vt 0.134828 0.975753
vt 0.134828 0.975753
vt 0.047809 0.965017
vt 0.047809 0.965017
vt 0.047809 0.965017
vt 0.047809 0.965017
vt 0.134828 0.975753
vt 0.134828 0.975753
vt 0.134828 0.975753
vt 0.134828 0.975753
vt 0.063443 0.965017
vt 0.047809 0.965017
vt 0.047809 0.965017
vt 0.063443 0.965017
vt 0.047809 0.965017
vt 0.047809 0.965017
vt 0.134828 0.975753
vt 0.134828 0.975753
vt 0.134828 0.975753
vt 0.134828 0.975753
vt 0.047809 0.965017
vt 0.047809 0.965017
vt 0.047809 0.965017
vt 0.047809 0.965017
vt 0.134828 0.975753
vt 0.134828 0.975753
vt 0.134828 0.975753
vt 0.134828 0.975753
vt 0.063443 0.965017
vt 0.047809 0.965017
vt 0.047809 0.965017
vt 0.063443 0.965017
vt 0.047809 0.965017
vt 0.047809 0.965017
vt 0.134828 0.975753
vt 0.134828 0.975753
vt 0.134828 0.975753
vt 0.134828 0.975753
vt 0.047809 0.965017
vt 0.047809 0.965017
vt 0.047809 0.965017
vt 0.047809 0.965017
vt 0.134828 0.975753
vt 0.134828 0.975753
vt 0.134828 0.975753
vt 0.134828 0.975753
vt 0.063443 0.965017
vt 0.047809 0.965017
vt 0.047809 0.965017
vt 0.063443 0.965017
vt 0.047809 0.965017
vt 0.047809 0.965017
vt 0.134828 0.975753
vt 0.134828 0.975753
vt 0.134828 0.975753
vt 0.134828 0.975753
vt 0.047809 0.965017
vt 0.047809 0.965017
vt 0.047809 0.965017
vt 0.047809 0.965017
vt 0.134828 0.975753
vt 0.134828 0.975753
vt 0.134828 0.975753
vt 0.134828 0.975753
vt 0.063443 0.965017
vt 0.047809 0.965017
vt 0.047809 0.965017
vt 0.063443 0.965017
vt 0.047809 0.965017
vt 0.047809 0.965017
vt 0.134828 0.975753
vt 0.134828 0.975753
vt 0.134828 0.975753
vt 0.134828 0.975753
vt 0.047809 0.965017
vt 0.047809 0.965017
vt 0.047809 0.965017
vt 0.047809 0.965017
vt 0.134828 0.975753
vt 0.134828 0.975753
vt 0.134828 0.975753
vt 0.134828 0.975753
vt 0.063443 0.965017
vt 0.047809 0.965017
vt 0.047809 0.965017
vt 0.063443 0.965017
vt 0.047809 0.965017
vt 0.047809 0.965017
vt 0.134828 0.975753
vt 0.134828 0.975753
vt 0.134828 0.975753
vt 0.134828 0.975753
vt 0.134828 0.975753
vt 0.134828 0.975753
vt 0.134828 0.975753
vt 0.134828 0.975753
vt 0.134828 0.975753
vt 0.134828 0.975753
vt 0.134828 0.975753
vt 0.134828 0.975753
vt 0.134828 0.975753
vt 0.134828 0.975753
vt 0.134828 0.975753
vt 0.134828 0.975753
vt 0.134828 0.975753
vt 0.134828 0.975753
vt 0.134828 0.975753
vt 0.134828 0.975753
s 0
usemtl Palette
f 3/3/1 20/23/1 25/28/1 6/6/1
f 1/1/1 2/2/1 5/5/1 4/4/1
f 16/19/1 1/1/1 4/4/1 21/24/1
f 2/2/1 3/3/1 6/6/1 5/5/1
s 1
f 6/6/2 25/28/3 30/37/4 9/11/5
f 4/4/6 5/5/7 8/9/8 7/7/9
f 5/5/7 6/6/2 9/11/5 8/9/8
f 21/24/10 4/4/6 7/7/9 26/29/11
s 0
f 8/10/1 9/12/1 12/15/1 11/14/1
f 26/30/1 7/8/1 10/13/1 31/39/1
f 9/12/1 30/38/1 35/43/1 12/15/1
f 7/8/1 8/10/1 11/14/1 10/13/1
s 1
f 11/14/7 12/15/12 15/18/13 14/17/14
f 31/39/15 10/13/16 13/16/17 36/44/18
f 12/15/12 35/43/19 40/48/20 15/18/13
f 10/13/16 11/14/7 14/17/14 13/16/17
s 0
f 13/16/21 14/17/21 15/18/21 40/48/21 36/44/21
f 19/22/1 24/27/1 25/28/1 20/23/1
f 17/20/1 22/25/1 23/26/1 18/21/1
f 16/19/1 21/24/1 22/25/1 17/20/1
f 18/21/1 23/26/1 24/27/1 19/22/1
s 1
f 24/27/22 29/35/23 30/37/4 25/28/3
f 22/25/24 27/31/25 28/33/26 23/26/27
f 23/26/27 28/33/26 29/35/23 24/27/22
f 21/24/10 26/29/11 27/31/25 22/25/24
s 0
f 28/34/1 33/41/1 34/42/1 29/36/1
f 26/30/1 31/39/1 32/40/1 27/32/1
f 29/36/1 34/42/1 35/43/1 30/38/1
f 27/32/1 32/40/1 33/41/1 28/34/1
s 1
f 33/41/27 38/46/28 39/47/29 34/42/30
f 31/39/15 36/44/18 37/45/31 32/40/32
f 34/42/30 39/47/29 40/48/20 35/43/19
f 32/40/32 37/45/31 38/46/28 33/41/27
s 0
f 37/45/21 36/44/21 40/48/21 39/47/21 38/46/21
f 145/153/33 52/60/33 44/52/33 143/151/33
f 144/152/34 146/154/34 50/58/34 42/50/34
f 55/63/35 58/66/35 48/56/35 46/54/35
f 144/152/36 143/151/36 44/52/36 43/51/36
f 53/61/37 45/53/37 47/55/37 56/64/37
f 45/53/38 46/54/38 48/56/38 47/55/38
f 146/154/39 51/59/39 52/60/39 145/153/39
f 53/61/37 56/64/37 57/65/37 54/62/37
f 54/62/40 57/65/40 58/66/40 55/63/40
f 44/52/35 52/60/35 51/59/35 43/51/35
f 149/157/41 70/78/41 62/70/41 147/155/41
f 148/156/42 150/158/42 68/76/42 60/68/42
f 73/81/43 76/84/43 66/74/43 64/72/43
f 148/156/44 147/155/44 62/70/44 61/69/44
f 71/79/45 63/71/45 65/73/45 74/82/45
f 63/71/46 64/72/46 66/74/46 65/73/46
f 150/158/47 69/77/47 70/78/47 149/157/47
f 71/79/45 74/82/45 75/83/45 72/80/45
f 72/80/48 75/83/48 76/84/48 73/81/48
f 62/70/43 70/78/43 69/77/43 61/69/43
f 133/141/49 88/96/49 80/88/49 131/139/49
f 132/140/50 134/142/50 86/94/50 78/86/50
f 91/99/51 94/102/51 84/92/51 82/90/51
f 132/140/52 131/139/52 80/88/52 79/87/52
f 89/97/53 81/89/53 83/91/53 92/100/53
f 81/89/54 82/90/54 84/92/54 83/91/54
f 134/142/55 87/95/55 88/96/55 133/141/55
f 89/97/53 92/100/53 93/101/53 90/98/53
f 90/98/56 93/101/56 94/102/56 91/99/56
f 80/88/51 88/96/51 87/95/51 79/87/51
f 137/145/57 106/114/57 98/106/57 135/143/57
f 136/144/58 138/146/58 104/112/58 96/104/58
f 109/117/59 112/120/59 102/110/59 100/108/59
f 136/144/60 135/143/60 98/106/60 97/105/60
f 107/115/61 99/107/61 101/109/61 110/118/61
f 99/107/62 100/108/62 102/110/62 101/109/62
f 138/146/63 105/113/63 106/114/63 137/145/63
f 107/115/61 110/118/61 111/119/61 108/116/61
f 108/116/64 111/119/64 112/120/64 109/117/64
f 98/106/59 106/114/59 105/113/59 97/105/59
f 141/149/65 124/132/65 116/124/65 139/147/65
f 140/148/66 142/150/66 122/130/66 114/122/66
f 127/135/67 130/138/67 120/128/67 118/126/67
f 140/148/68 139/147/68 116/124/68 115/123/68
f 125/133/69 117/125/69 119/127/69 128/136/69
f 117/125/70 118/126/70 120/128/70 119/127/70
f 142/150/71 123/131/71 124/132/71 141/149/71
f 125/133/69 128/136/69 129/137/69 126/134/69
f 126/134/72 129/137/72 130/138/72 127/135/72
f 116/124/67 124/132/67 123/131/67 115/123/67
f 86/94/55 134/142/55 133/141/55 85/93/55
f 78/86/52 77/85/52 131/139/52 132/140/52
f 79/87/73 87/95/73 134/142/73 132/140/73
f 85/93/74 133/141/74 131/139/74 77/85/74
f 104/112/63 138/146/63 137/145/63 103/111/63
f 96/104/60 95/103/60 135/143/60 136/144/60
f 97/105/75 105/113/75 138/146/75 136/144/75
f 103/111/76 137/145/76 135/143/76 95/103/76
f 122/130/71 142/150/71 141/149/71 121/129/71
f 114/122/68 113/121/68 139/147/68 140/148/68
f 115/123/77 123/131/77 142/150/77 140/148/77
f 121/129/78 141/149/78 139/147/78 113/121/78
f 50/58/39 146/154/39 145/153/39 49/57/39
f 42/50/36 41/49/36 143/151/36 144/152/36
f 43/51/79 51/59/79 146/154/79 144/152/79
f 49/57/80 145/153/80 143/151/80 41/49/80
f 68/76/47 150/158/47 149/157/47 67/75/47
f 60/68/44 59/67/44 147/155/44 148/156/44
f 61/69/81 69/77/81 150/158/81 148/156/81
f 67/75/82 149/157/82 147/155/82 59/67/82
