# Blender 3.4.1
# www.blender.org
mtllib Gamer_Chair_Ac.mtl
o Gamer_Chair_Ac
v -0.208284 0.060981 0.012347
v -0.208630 0.039624 0.040244
v -0.208024 -0.071111 -0.001228
v -0.207678 -0.053307 -0.024395
v -0.207535 -0.012242 -0.036564
v -0.208284 -0.071111 0.017260
v -0.208773 -0.018215 0.051807
v -0.208630 -0.053522 0.041919
v -0.192761 -0.012413 0.064558
v -0.192211 -0.071943 0.022204
v -0.192600 -0.052148 0.052436
v -0.191918 -0.071943 -0.000461
v -0.191368 -0.005690 -0.043783
v -0.191529 -0.051906 -0.028865
v -0.192211 0.076717 0.016181
v -0.192761 0.012708 0.064336
v -0.192600 0.052681 0.050383
v -0.191368 0.025791 -0.047556
v -0.191918 0.082531 -0.009241
v -0.191529 0.066962 -0.038765
v -0.208773 0.004106 0.051625
v -0.208024 0.066147 -0.008389
v -0.207678 0.052001 -0.032321
v -0.207535 0.015731 -0.039641
v -0.220164 -0.051038 -0.003538
v -0.220319 -0.051038 0.008439
v -0.220164 0.030583 -0.008176
v -0.220319 0.027511 0.005256
v -0.220610 -0.019584 0.030817
v -0.220610 -0.006310 0.030700
v -0.219959 0.021036 -0.023088
v -0.219959 -0.040451 -0.018545
v -0.220525 -0.040579 0.024413
v -0.219874 -0.016031 -0.026428
v -0.219874 0.000603 -0.028421
v -0.220525 0.014811 0.023328
v -0.146250 -0.014140 0.073730
v -0.146113 -0.058205 0.060300
v -0.145781 -0.080200 0.026804
v -0.145061 -0.006779 -0.046305
v -0.145199 -0.057990 -0.029776
v -0.145531 -0.080200 0.001694
v -0.145781 0.084582 0.019980
v -0.146113 0.057985 0.058026
v -0.146250 0.013620 0.073491
v -0.145531 0.091151 -0.008267
v -0.145199 0.074413 -0.041055
v -0.145061 0.028181 -0.050516
v -0.088310 -0.017144 0.068404
v -0.087671 -0.059617 -0.031584
v -0.087873 -0.081084 -0.001184
v -0.088025 0.078189 0.016299
v -0.087671 0.068676 -0.042614
v -0.087587 0.023730 -0.051658
v -0.088227 -0.059759 0.055429
v -0.088025 -0.081084 0.023072
v -0.087587 -0.010138 -0.047552
v -0.088227 0.052537 0.053234
v -0.088310 0.009586 0.068181
v -0.087873 0.084689 -0.011087
v 0.208284 0.060981 0.012347
v 0.208630 0.039624 0.040244
v 0.208024 -0.071111 -0.001228
v 0.207678 -0.053307 -0.024395
v 0.207535 -0.012242 -0.036564
v 0.208284 -0.071111 0.017260
v 0.208773 -0.018215 0.051807
v 0.208630 -0.053522 0.041919
v 0.000000 -0.011478 -0.046562
v 0.000000 -0.080115 -0.001723
v 0.000000 -0.059337 -0.031121
v 0.000000 -0.080115 0.021729
v 0.000000 -0.018080 0.065567
v 0.000000 -0.059368 0.053020
v 0.192761 -0.012413 0.064558
v 0.192211 -0.071943 0.022204
v 0.192600 -0.052148 0.052436
v 0.191918 -0.071943 -0.000461
v 0.191368 -0.005690 -0.043783
v 0.191529 -0.051906 -0.028865
v 0.192211 0.076717 0.016181
v 0.192761 0.012708 0.064336
v 0.192600 0.052681 0.050383
v 0.000000 0.007624 0.065365
v 0.000000 0.074052 0.014884
v 0.000000 0.049313 0.050899
v 0.000000 0.080589 -0.011760
v 0.000000 0.021431 -0.050594
v 0.000000 0.065425 -0.042039
v 0.191368 0.025791 -0.047556
v 0.191918 0.082531 -0.009241
v 0.191529 0.066962 -0.038765
v 0.208773 0.004106 0.051625
v 0.208024 0.066147 -0.008389
v 0.207678 0.052001 -0.032321
v 0.207535 0.015731 -0.039641
v 0.220164 -0.051038 -0.003538
v 0.220319 -0.051038 0.008439
v 0.220164 0.030583 -0.008176
v 0.220319 0.027511 0.005256
v 0.220610 -0.019584 0.030817
v 0.220610 -0.006310 0.030700
v 0.219959 0.021036 -0.023088
v 0.219959 -0.040451 -0.018545
v 0.220525 -0.040579 0.024413
v 0.219874 -0.016031 -0.026428
v 0.219874 0.000603 -0.028421
v 0.220525 0.014811 0.023328
v 0.146250 -0.014140 0.073730
v 0.146113 -0.058205 0.060300
v 0.145781 -0.080200 0.026804
v 0.145061 -0.006779 -0.046305
v 0.145199 -0.057990 -0.029776
v 0.145531 -0.080200 0.001694
v 0.145781 0.084582 0.019980
v 0.146113 0.057985 0.058026
v 0.146250 0.013620 0.073491
v 0.145531 0.091151 -0.008267
v 0.145199 0.074413 -0.041055
v 0.145061 0.028181 -0.050516
v 0.088310 -0.017144 0.068404
v 0.087671 -0.059617 -0.031584
v 0.087873 -0.081084 -0.001184
v 0.088025 0.078189 0.016299
v 0.087671 0.068676 -0.042614
v 0.087587 0.023730 -0.051658
v 0.088227 -0.059759 0.055429
v 0.088025 -0.081084 0.023072
v 0.087587 -0.010138 -0.047552
v 0.088227 0.052537 0.053234
v 0.088310 0.009586 0.068181
v 0.087873 0.084689 -0.011087
vn -0.0132 -0.2158 -0.9764
vn -0.0027 0.0359 -0.9994
vn -0.0000 0.0345 -0.9994
vn -0.0000 -0.2160 -0.9764
vn -0.6364 -0.4989 0.5884
vn -0.9562 -0.1757 0.2341
vn -0.9556 -0.2863 0.0695
vn -0.5292 -0.8199 0.2184
vn -0.0565 -0.1403 0.9885
vn -0.0458 0.1730 0.9838
vn -0.4286 0.1643 0.8884
vn -0.3983 -0.1173 0.9097
vn -0.4483 0.8856 -0.1215
vn -0.8304 0.5496 -0.0914
vn -0.8331 0.5040 0.2278
vn -0.4549 0.8159 0.3568
vn 0.0870 0.9098 0.4058
vn -0.0000 0.9126 0.4089
vn -0.0000 0.9931 -0.1177
vn 0.0754 0.9896 -0.1223
vn 0.0567 -0.1452 0.9878
vn 0.0372 -0.6033 0.7967
vn -0.0000 -0.6002 0.7999
vn -0.0000 -0.1445 0.9895
vn 0.0093 -0.9592 0.2826
vn -0.0000 -0.9583 0.2859
vn -0.0459 -0.2129 -0.9760
vn -0.0680 -0.5977 -0.7988
vn -0.1363 -0.5565 -0.8196
vn -0.1980 -0.1945 -0.9607
vn -0.0912 -0.9528 -0.2897
vn -0.1047 -0.9450 -0.3099
vn 0.0840 0.6014 0.7945
vn -0.0000 0.6034 0.7975
vn 0.0685 0.1683 0.9833
vn -0.0000 0.1687 0.9857
vn -0.0367 0.9930 -0.1120
vn -0.0440 0.6242 -0.7800
vn -0.3854 0.5617 -0.7321
vn -0.0423 0.0479 -0.9980
vn -0.2688 0.0596 -0.9613
vn -0.0106 -0.9521 -0.3057
vn -0.0000 -0.9526 -0.3044
vn -0.7304 -0.1081 0.6744
vn -0.3262 -0.5392 0.7764
vn -0.8118 0.3398 0.4749
vn -0.4478 0.5476 0.7068
vn -0.1844 -0.9356 0.3010
vn -0.4624 -0.8437 -0.2727
vn -0.7725 0.0979 0.6275
vn -0.4348 -0.5572 -0.7075
vn -0.5852 0.0334 -0.8102
vn -0.7575 0.3467 -0.5531
vn -0.4581 -0.1867 -0.8691
vn -0.9616 -0.0445 0.2708
vn -0.9657 0.0359 0.2570
vn -0.9716 0.1271 0.1996
vn -0.9814 0.1756 0.0774
vn -0.9780 0.2015 -0.0550
vn -0.9408 0.1269 -0.3142
vn -0.8916 -0.0135 -0.4526
vn -0.8802 -0.1049 -0.4628
vn -0.8819 -0.2278 -0.4127
vn -0.9327 -0.3251 -0.1563
vn -0.0937 -0.9513 0.2938
vn 0.0333 0.5968 -0.8017
vn -0.0359 0.6048 0.7955
vn -0.0303 0.9127 0.4076
vn -0.0179 -0.5925 -0.8054
vn -0.0772 -0.5920 0.8023
vn -0.0000 -0.5924 -0.8056
vn -0.0000 0.5991 -0.8007
vn 0.0132 -0.2158 -0.9764
vn 0.0027 0.0359 -0.9994
vn 0.6364 -0.4989 0.5884
vn 0.5292 -0.8199 0.2184
vn 0.9556 -0.2863 0.0695
vn 0.9562 -0.1757 0.2341
vn 0.0565 -0.1403 0.9885
vn 0.3983 -0.1173 0.9097
vn 0.4286 0.1643 0.8884
vn 0.0458 0.1730 0.9838
vn 0.4483 0.8856 -0.1215
vn 0.4549 0.8159 0.3568
vn 0.8331 0.5040 0.2278
vn 0.8304 0.5496 -0.0914
vn -0.0870 0.9098 0.4058
vn -0.0754 0.9896 -0.1223
vn -0.0567 -0.1452 0.9878
vn -0.0372 -0.6033 0.7967
vn -0.0093 -0.9592 0.2826
vn 0.0459 -0.2129 -0.9760
vn 0.1980 -0.1945 -0.9607
vn 0.1363 -0.5565 -0.8196
vn 0.0680 -0.5977 -0.7988
vn 0.1047 -0.9450 -0.3099
vn 0.0912 -0.9528 -0.2897
vn -0.0840 0.6014 0.7945
vn -0.0685 0.1683 0.9833
vn 0.0367 0.9930 -0.1120
vn 0.3854 0.5617 -0.7321
vn 0.0440 0.6242 -0.7800
vn 0.2688 0.0596 -0.9613
vn 0.0423 0.0479 -0.9980
vn 0.0106 -0.9521 -0.3057
vn 0.3262 -0.5392 0.7764
vn 0.7304 -0.1081 0.6744
vn 0.4478 0.5476 0.7068
vn 0.8118 0.3398 0.4749
vn 0.1844 -0.9356 0.3010
vn 0.4624 -0.8437 -0.2727
vn 0.7725 0.0979 0.6275
vn 0.4348 -0.5572 -0.7075
vn 0.7575 0.3467 -0.5531
vn 0.5852 0.0334 -0.8102
vn 0.4581 -0.1867 -0.8691
vn 0.9616 -0.0445 0.2708
vn 0.9327 -0.3251 -0.1563
vn 0.8819 -0.2278 -0.4127
vn 0.8802 -0.1049 -0.4628
vn 0.8916 -0.0135 -0.4526
vn 0.9408 0.1269 -0.3142
vn 0.9780 0.2015 -0.0550
vn 0.9814 0.1756 0.0774
vn 0.9716 0.1271 0.1996
vn 0.9657 0.0359 0.2570
vn 0.0937 -0.9513 0.2938
vn -0.0333 0.5968 -0.8017
vn 0.0359 0.6048 0.7955
vn 0.0303 0.9127 0.4076
vn 0.0179 -0.5925 -0.8054
vn 0.0772 -0.5920 0.8023
vt 0.140880 0.948264
vt 0.140883 0.944630
vt 0.140880 0.950405
vt 0.140880 0.954040
vt 0.140880 0.954433
vt 0.140880 0.948264
vt 0.140880 0.944236
vt 0.140883 0.944630
vt 0.140880 0.944236
vt 0.140880 0.948264
vt 0.140883 0.944630
vt 0.140880 0.950405
vt 0.140880 0.954433
vt 0.140880 0.954040
vt 0.140880 0.948264
vt 0.140880 0.944236
vt 0.140883 0.944630
vt 0.140880 0.954433
vt 0.140880 0.950405
vt 0.140880 0.954040
vt 0.140880 0.944236
vt 0.140880 0.950405
vt 0.140880 0.954040
vt 0.140880 0.954433
vt 0.140880 0.950405
vt 0.140880 0.948264
vt 0.140880 0.950405
vt 0.140880 0.948264
vt 0.140880 0.944236
vt 0.140880 0.944236
vt 0.140880 0.954040
vt 0.140880 0.954040
vt 0.140883 0.944630
vt 0.140880 0.954433
vt 0.140880 0.954433
vt 0.140883 0.944630
vt 0.142023 0.944236
vt 0.284143 0.868772
vt 0.142025 0.944539
vt 0.284146 0.869075
vt 0.142023 0.948264
vt 0.284143 0.872800
vt 0.142022 0.954433
vt 0.284143 0.878969
vt 0.142022 0.954130
vt 0.284143 0.878666
vt 0.142023 0.950405
vt 0.284143 0.874941
vt 0.142023 0.948264
vt 0.284143 0.872800
vt 0.142025 0.944539
vt 0.284146 0.869075
vt 0.142023 0.944236
vt 0.284143 0.868772
vt 0.142023 0.950405
vt 0.284143 0.874941
vt 0.142022 0.954130
vt 0.284143 0.878666
vt 0.142022 0.954433
vt 0.284143 0.878969
vt 0.143443 0.944236
vt 0.285564 0.868772
vt 0.285564 0.878778
vt 0.143443 0.954242
vt 0.143443 0.950405
vt 0.285564 0.874941
vt 0.143443 0.948264
vt 0.285564 0.872800
vt 0.285563 0.878778
vt 0.143443 0.954242
vt 0.143443 0.954433
vt 0.285564 0.878969
vt 0.143444 0.944427
vt 0.285565 0.868963
vt 0.143443 0.948264
vt 0.285564 0.872800
vt 0.143443 0.954433
vt 0.285564 0.878969
vt 0.143444 0.944427
vt 0.285565 0.868963
vt 0.143443 0.944236
vt 0.285564 0.868772
vt 0.143443 0.950405
vt 0.285564 0.874941
vt 0.140880 0.948264
vt 0.140883 0.944630
vt 0.140880 0.950405
vt 0.140880 0.954040
vt 0.140880 0.954433
vt 0.140880 0.948264
vt 0.140880 0.944236
vt 0.140883 0.944630
vt 0.145853 0.954433
vt 0.145854 0.950405
vt 0.145854 0.954433
vt 0.145854 0.948264
vt 0.145854 0.944236
vt 0.145854 0.944236
vt 0.140880 0.944236
vt 0.140880 0.948264
vt 0.140883 0.944630
vt 0.140880 0.950405
vt 0.140880 0.954433
vt 0.140880 0.954040
vt 0.140880 0.948264
vt 0.140880 0.944236
vt 0.140883 0.944630
vt 0.145854 0.944236
vt 0.145854 0.948264
vt 0.145854 0.944236
vt 0.145854 0.950405
vt 0.145854 0.954433
vt 0.145854 0.954433
vt 0.140880 0.954433
vt 0.140880 0.950405
vt 0.140880 0.954040
vt 0.140880 0.944236
vt 0.140880 0.950405
vt 0.140880 0.954040
vt 0.140880 0.954433
vt 0.140880 0.950405
vt 0.140880 0.948264
vt 0.140880 0.950405
vt 0.140880 0.948264
vt 0.140880 0.944236
vt 0.140880 0.944236
vt 0.140880 0.954040
vt 0.140880 0.954040
vt 0.140883 0.944630
vt 0.140880 0.954433
vt 0.140880 0.954433
vt 0.140883 0.944630
vt 0.142023 0.944236
vt 0.284143 0.868772
vt 0.142025 0.944539
vt 0.284146 0.869075
vt 0.142023 0.948264
vt 0.284143 0.872800
vt 0.142022 0.954433
vt 0.284143 0.878969
vt 0.142022 0.954130
vt 0.284143 0.878666
vt 0.142023 0.950405
vt 0.284143 0.874941
vt 0.142023 0.948264
vt 0.284143 0.872800
vt 0.142025 0.944539
vt 0.284146 0.869075
vt 0.142023 0.944236
vt 0.284143 0.868772
vt 0.142023 0.950405
vt 0.284143 0.874941
vt 0.142022 0.954130
vt 0.284143 0.878666
vt 0.142022 0.954433
vt 0.284143 0.878969
vt 0.143443 0.944236
vt 0.285564 0.868772
vt 0.285564 0.878778
vt 0.143443 0.954242
vt 0.143443 0.950405
vt 0.285564 0.874941
vt 0.143443 0.948264
vt 0.285564 0.872800
vt 0.285563 0.878778
vt 0.143443 0.954242
vt 0.143443 0.954433
vt 0.285564 0.878969
vt 0.143444 0.944427
vt 0.285565 0.868963
vt 0.143443 0.948264
vt 0.285564 0.872800
vt 0.143443 0.954433
vt 0.285564 0.878969
vt 0.143444 0.944427
vt 0.285565 0.868963
vt 0.143443 0.944236
vt 0.285564 0.868772
vt 0.143443 0.950405
vt 0.285564 0.874941
s 1
usemtl Palette
f 57/77/1 54/71/2 88/112/3 69/93/4
f 8/8/5 33/33/6 26/26/7 6/6/8
f 37/37/9 45/53/10 16/16/11 9/9/12
f 19/19/13 22/22/14 1/1/15 15/15/16
f 52/67/17 85/109/18 87/111/19 60/83/20
f 49/61/21 55/73/22 74/98/23 73/97/24
f 55/73/22 56/75/25 72/96/26 74/98/23
f 40/43/27 41/45/28 14/14/29 13/13/30
f 41/45/28 42/47/31 12/12/32 14/14/29
f 52/67/17 58/79/33 86/110/34 85/109/18
f 58/79/33 59/81/35 84/108/36 86/110/34
f 46/55/37 47/57/38 20/20/39 19/19/13
f 47/57/38 48/59/40 18/18/41 20/20/39
f 56/75/25 51/65/42 70/94/43 72/96/26
f 9/9/12 7/7/44 8/8/5 11/11/45
f 15/15/16 1/1/15 2/2/46 17/17/47
f 11/11/45 8/8/5 6/6/8 10/10/48
f 10/10/48 6/6/8 3/3/49 12/12/32
f 17/17/47 2/2/46 21/21/50 16/16/11
f 12/12/32 3/3/49 4/4/51 14/14/29
f 18/18/41 24/24/52 23/23/53 20/20/39
f 14/14/29 4/4/51 5/5/54 13/13/30
f 16/16/11 21/21/50 7/7/44 9/9/12
f 20/20/39 23/23/53 22/22/14 19/19/13
f 13/13/30 5/5/54 24/24/52 18/18/41
f 29/29/55 30/30/56 36/36/57 28/28/58 27/27/59 31/31/60 35/35/61 34/34/62 32/32/63 25/25/64 26/26/7 33/33/6
f 21/21/50 30/30/56 29/29/55 7/7/44
f 1/1/15 28/28/58 36/36/57 2/2/46
f 7/7/44 29/29/55 33/33/6 8/8/5
f 23/23/53 31/31/60 27/27/59 22/22/14
f 2/2/46 36/36/57 30/30/56 21/21/50
f 6/6/8 26/26/7 25/25/64 3/3/49
f 4/4/51 32/32/63 34/34/62 5/5/54
f 3/3/49 25/25/64 32/32/63 4/4/51
f 24/24/52 35/35/61 31/31/60 23/23/53
f 22/22/14 27/27/59 28/28/58 1/1/15
f 5/5/54 34/34/62 35/35/61 24/24/52
f 10/10/48 12/12/32 42/47/31 39/41/65
f 53/69/66 54/72/2 48/60/40 47/58/38
f 60/84/20 53/69/66 47/58/38 46/56/37
f 17/17/47 16/16/11 45/53/10 44/51/67
f 15/15/16 17/17/47 44/51/67 43/49/68
f 50/63/69 51/66/42 42/48/31 41/46/28
f 57/78/1 50/63/69 41/46/28 40/44/27
f 11/11/45 10/10/48 39/41/65 38/39/70
f 9/9/12 11/11/45 38/39/70 37/37/9
f 15/15/16 43/49/68 46/55/37 19/19/13
f 49/62/21 59/82/35 45/54/10 37/38/9
f 13/13/30 18/18/41 48/59/40 40/43/27
f 73/97/24 84/108/36 59/81/35 49/61/21
f 69/93/4 71/95/71 50/64/69 57/77/1
f 71/95/71 70/94/43 51/65/42 50/64/69
f 87/111/19 89/113/72 53/70/66 60/83/20
f 89/113/72 88/112/3 54/71/2 53/70/66
f 39/42/65 42/48/31 51/66/42 56/76/25
f 44/52/67 45/54/10 59/82/35 58/80/33
f 43/50/68 44/52/67 58/80/33 52/68/17
f 38/40/70 39/42/65 56/76/25 55/74/22
f 37/38/9 38/40/70 55/74/22 49/62/21
f 43/50/68 52/68/17 60/84/20 46/56/37
f 40/44/27 48/60/40 54/72/2 57/78/1
f 129/173/73 69/93/4 88/112/3 126/167/74
f 68/92/75 66/90/76 98/122/77 105/129/78
f 109/133/79 75/99/80 82/106/81 117/149/82
f 91/115/83 81/105/84 61/85/85 94/118/86
f 124/163/87 132/179/88 87/111/19 85/109/18
f 121/157/89 73/97/24 74/98/23 127/169/90
f 127/169/90 74/98/23 72/96/26 128/171/91
f 112/139/92 79/103/93 80/104/94 113/141/95
f 113/141/95 80/104/94 78/102/96 114/143/97
f 124/163/87 85/109/18 86/110/34 130/175/98
f 130/175/98 86/110/34 84/108/36 131/177/99
f 118/151/100 91/115/83 92/116/101 119/153/102
f 119/153/102 92/116/101 90/114/103 120/155/104
f 128/171/91 72/96/26 70/94/43 123/161/105
f 75/99/80 77/101/106 68/92/75 67/91/107
f 81/105/84 83/107/108 62/86/109 61/85/85
f 77/101/106 76/100/110 66/90/76 68/92/75
f 76/100/110 78/102/96 63/87/111 66/90/76
f 83/107/108 82/106/81 93/117/112 62/86/109
f 78/102/96 80/104/94 64/88/113 63/87/111
f 90/114/103 92/116/101 95/119/114 96/120/115
f 80/104/94 79/103/93 65/89/116 64/88/113
f 82/106/81 75/99/80 67/91/107 93/117/112
f 92/116/101 91/115/83 94/118/86 95/119/114
f 79/103/93 90/114/103 96/120/115 65/89/116
f 101/125/117 105/129/78 98/122/77 97/121/118 104/128/119 106/130/120 107/131/121 103/127/122 99/123/123 100/124/124 108/132/125 102/126/126
f 93/117/112 67/91/107 101/125/117 102/126/126
f 61/85/85 62/86/109 108/132/125 100/124/124
f 67/91/107 68/92/75 105/129/78 101/125/117
f 95/119/114 94/118/86 99/123/123 103/127/122
f 62/86/109 93/117/112 102/126/126 108/132/125
f 66/90/76 63/87/111 97/121/118 98/122/77
f 64/88/113 65/89/116 106/130/120 104/128/119
f 63/87/111 64/88/113 104/128/119 97/121/118
f 96/120/115 95/119/114 103/127/122 107/131/121
f 94/118/86 61/85/85 100/124/124 99/123/123
f 65/89/116 96/120/115 107/131/121 106/130/120
f 76/100/110 111/137/127 114/143/97 78/102/96
f 125/165/128 119/154/102 120/156/104 126/168/74
f 132/180/88 118/152/100 119/154/102 125/165/128
f 83/107/108 116/147/129 117/149/82 82/106/81
f 81/105/84 115/145/130 116/147/129 83/107/108
f 122/159/131 113/142/95 114/144/97 123/162/105
f 129/174/73 112/140/92 113/142/95 122/159/131
f 77/101/106 110/135/132 111/137/127 76/100/110
f 75/99/80 109/133/79 110/135/132 77/101/106
f 81/105/84 91/115/83 118/151/100 115/145/130
f 121/158/89 109/134/79 117/150/82 131/178/99
f 79/103/93 112/139/92 120/155/104 90/114/103
f 73/97/24 121/157/89 131/177/99 84/108/36
f 69/93/4 129/173/73 122/160/131 71/95/71
f 71/95/71 122/160/131 123/161/105 70/94/43
f 87/111/19 132/179/88 125/166/128 89/113/72
f 89/113/72 125/166/128 126/167/74 88/112/3
f 111/138/127 128/172/91 123/162/105 114/144/97
f 116/148/129 130/176/98 131/178/99 117/150/82
f 115/146/130 124/164/87 130/176/98 116/148/129
f 110/136/132 127/170/90 128/172/91 111/138/127
f 109/134/79 121/158/89 127/170/90 110/136/132
f 115/146/130 118/152/100 132/180/88 124/164/87
f 112/140/92 129/174/73 126/168/74 120/156/104
