# Blender 3.4.1
# www.blender.org
mtllib Gamer_Chair_Wheel.mtl
o Gamer_Chair_Wheel
v 0.021189 -0.012018 0.025912
v -0.021189 -0.012018 0.025912
v 0.021189 -0.030341 0.018322
v -0.021189 -0.030341 0.018322
v 0.021189 -0.037930 -0.000000
v -0.021189 -0.037930 -0.000000
v 0.021189 -0.030341 -0.018323
v -0.021189 -0.030341 -0.018322
v 0.021189 -0.012018 -0.025912
v -0.021189 -0.012018 -0.025912
v 0.021189 0.006304 -0.018323
v -0.021189 0.006304 -0.018322
v 0.021189 0.013893 -0.000000
v -0.021189 0.013893 -0.000000
v 0.021189 0.006304 0.018322
v -0.021189 0.006304 0.018322
v 0.021189 -0.042862 0.030844
v 0.021189 -0.012018 0.043619
v -0.021189 -0.012018 0.043619
v -0.021189 -0.042862 0.030844
v 0.021189 -0.055638 -0.000000
v -0.021189 -0.055638 -0.000000
v 0.021189 -0.042862 -0.030844
v -0.021189 -0.042862 -0.030844
v 0.021189 -0.012018 -0.043620
v -0.021189 -0.012018 -0.043620
v 0.021189 0.018825 -0.030844
v -0.021189 0.018825 -0.030844
v 0.021189 0.031601 -0.000000
v -0.021189 0.031601 -0.000000
v 0.021189 0.018825 0.030844
v -0.021189 0.018825 0.030844
v 0.016504 -0.030341 0.018322
v 0.016504 -0.012018 0.025912
v -0.016504 -0.012018 0.025912
v -0.016504 -0.030341 0.018322
v 0.016504 -0.037930 -0.000000
v -0.016504 -0.037930 -0.000000
v 0.016504 -0.030341 -0.018323
v -0.016504 -0.030341 -0.018322
v 0.016504 -0.012018 -0.025912
v -0.016504 -0.012018 -0.025912
v 0.016504 0.006304 -0.018323
v -0.016504 0.006304 -0.018322
v 0.016504 0.013893 -0.000000
v -0.016504 0.013893 -0.000000
v 0.016504 0.006304 0.018322
v -0.016504 0.006304 0.018322
vn 0.6303 -0.0000 0.7764
vn -0.6303 -0.0000 0.7764
vn -0.6303 -0.5490 0.5490
vn 0.6303 -0.5490 0.5490
vn -0.6303 -0.7764 -0.0000
vn 0.6303 -0.7764 -0.0000
vn -0.6303 -0.5490 -0.5490
vn 0.6303 -0.5490 -0.5490
vn -0.6303 -0.0000 -0.7764
vn 0.6303 -0.0000 -0.7764
vn -0.0000 0.3827 0.9239
vn -0.0000 -0.3827 -0.9239
vn -0.6303 0.5490 -0.5490
vn 0.6303 0.5490 -0.5490
vn -0.6303 0.7764 -0.0000
vn 0.6303 0.7764 -0.0000
vn -0.6303 0.5490 0.5490
vn 0.6303 0.5490 0.5490
vn 1.0000 -0.0000 -0.0000
vn -1.0000 -0.0000 -0.0000
vn -0.0000 0.3827 -0.9239
vn -0.0000 -0.3827 0.9239
vn -0.0000 0.9239 -0.3827
vn -0.0000 -0.9239 0.3827
vn -0.0000 0.9239 0.3827
vn -0.0000 -0.9239 -0.3827
vt 0.111765 0.938163
vt 0.111765 0.983213
vt 0.125599 0.938163
vt 0.125599 0.983213
vt 0.127828 0.938163
vt 0.127828 0.983213
vt 0.124734 0.938163
vt 0.124734 0.983213
vt 0.120759 0.938163
vt 0.120759 0.983213
vt 0.116605 0.938163
vt 0.116605 0.983213
vt 0.112630 0.938163
vt 0.112630 0.983213
vt 0.109536 0.938163
vt 0.109537 0.983213
vt 0.138392 0.938163
vt 0.144023 0.938163
vt 0.098973 0.938163
vt 0.144023 0.983213
vt 0.098973 0.983213
vt 0.138392 0.983213
vt 0.132760 0.938163
vt 0.132760 0.983213
vt 0.127129 0.938163
vt 0.127129 0.983213
vt 0.121498 0.938163
vt 0.121498 0.983213
vt 0.115867 0.938163
vt 0.115867 0.983213
vt 0.110235 0.938163
vt 0.110235 0.983213
vt 0.104604 0.938163
vt 0.104604 0.983213
vt 0.382331 0.850372
vt 0.125599 0.938163
vt 0.368496 0.850372
vt 0.111765 0.938163
vt 0.368496 0.895422
vt 0.111765 0.983213
vt 0.382331 0.895422
vt 0.125599 0.983213
vt 0.384559 0.850372
vt 0.127828 0.938163
vt 0.384559 0.895422
vt 0.127828 0.983213
vt 0.381466 0.850372
vt 0.124734 0.938163
vt 0.381466 0.895422
vt 0.124734 0.983213
vt 0.377490 0.850372
vt 0.120759 0.938163
vt 0.377491 0.895422
vt 0.120759 0.983213
vt 0.373337 0.850372
vt 0.116605 0.938163
vt 0.373337 0.895422
vt 0.116605 0.983213
vt 0.369361 0.850372
vt 0.112630 0.938163
vt 0.369361 0.895422
vt 0.112630 0.983213
vt 0.366268 0.850372
vt 0.109536 0.938163
vt 0.366268 0.895422
vt 0.109537 0.983213
s 1
usemtl Palette
f 18/18/1 19/20/2 20/22/3 17/17/4
f 17/17/4 20/22/3 22/24/5 21/23/6
f 21/23/6 22/24/5 24/26/7 23/25/8
f 23/25/8 24/26/7 26/28/9 25/27/10
s 0
f 10/10/11 8/8/11 40/50/11 42/54/11
f 15/15/12 1/1/12 34/38/12 47/64/12
s 1
f 26/28/9 28/30/13 27/29/14 25/27/10
f 28/30/13 30/32/15 29/31/16 27/29/14
f 30/32/15 32/34/17 31/33/18 29/31/16
f 32/34/17 19/21/2 18/19/1 31/33/18
s 0
f 3/3/19 1/1/19 18/19/19 17/17/19
f 2/2/20 4/4/20 20/22/20 19/21/20
f 5/5/19 3/3/19 17/17/19 21/23/19
f 4/4/20 6/6/20 22/24/20 20/22/20
f 7/7/19 5/5/19 21/23/19 23/25/19
f 6/6/20 8/8/20 24/26/20 22/24/20
f 9/9/19 7/7/19 23/25/19 25/27/19
f 8/8/20 10/10/20 26/28/20 24/26/20
f 11/11/19 9/9/19 25/27/19 27/29/19
f 10/10/20 12/12/20 28/30/20 26/28/20
f 13/13/19 11/11/19 27/29/19 29/31/19
f 12/12/20 14/14/20 30/32/20 28/30/20
f 15/15/19 13/13/19 29/31/19 31/33/19
f 14/14/20 16/16/20 32/34/20 30/32/20
f 1/1/19 15/15/19 31/33/19 18/19/19
f 16/16/20 2/2/20 19/21/20 32/34/20
f 35/39/20 48/65/20 46/61/20 44/57/20 42/53/20 40/49/20 38/45/20 36/41/20
f 33/35/19 37/43/19 39/47/19 41/51/19 43/55/19 45/59/19 47/63/19 34/37/19
f 1/1/21 3/3/21 33/36/21 34/38/21
f 2/2/12 16/16/12 48/66/12 35/40/12
f 9/9/22 11/11/22 43/56/22 41/52/22
f 4/4/21 2/2/21 35/40/21 36/42/21
f 12/12/22 10/10/22 42/54/22 44/58/22
f 3/3/23 5/5/23 37/44/23 33/36/23
f 11/11/24 13/13/24 45/60/24 43/56/24
f 6/6/23 4/4/23 36/42/23 38/46/23
f 14/14/24 12/12/24 44/58/24 46/62/24
f 5/5/25 7/7/25 39/48/25 37/44/25
f 13/13/26 15/15/26 47/64/26 45/60/26
f 8/8/25 6/6/25 38/46/25 40/50/25
f 16/16/26 14/14/26 46/62/26 48/66/26
f 7/7/11 9/9/11 41/52/11 39/48/11
