# Blender 3.4.1
# www.blender.org
mtllib Glass__Filled__Alt.mtl
o Glass_(Filled)_Alt
v -0.014652 0.173832 -0.035376
v 0.000002 0.173832 -0.038291
v -0.027074 0.173832 -0.027076
v -0.035375 0.173832 -0.014653
v -0.038289 0.173832 0.000000
v -0.035375 0.173832 0.014653
v -0.027074 0.173832 0.027076
v -0.014652 0.173832 0.035376
v 0.000002 0.173832 0.038291
v 0.014655 0.173832 0.035376
v 0.027078 0.173832 0.027076
v 0.035378 0.173832 0.014653
v 0.038293 0.173832 0.000000
v 0.035378 0.173832 -0.014653
v 0.027078 0.173832 -0.027076
v 0.014655 0.173832 -0.035376
v 0.000002 0.173832 -0.042284
v 0.016183 0.173832 -0.039065
v 0.029901 0.173832 -0.029899
v 0.039067 0.173832 -0.016181
v 0.042286 0.173832 0.000000
v 0.039067 0.173832 0.016181
v 0.029901 0.173832 0.029899
v 0.016183 0.173832 0.039065
v 0.000002 0.173832 0.042284
v -0.016180 0.173832 0.039065
v -0.029898 0.173832 0.029899
v -0.039064 0.173832 0.016181
v -0.042282 0.173832 0.000000
v -0.039064 0.173832 -0.016181
v -0.029898 0.173832 -0.029899
v -0.016180 0.173832 -0.039065
v 0.000002 0.000357 -0.038797
v 0.014849 0.000357 -0.035844
v 0.027435 0.000357 -0.027433
v 0.035845 0.000357 -0.014847
v 0.038799 0.000357 0.000000
v 0.035845 0.000357 0.014847
v 0.027435 0.000357 0.027434
v 0.014849 0.000357 0.035844
v 0.000002 0.000357 0.038797
v -0.014845 0.000357 0.035844
v -0.027432 0.000357 0.027434
v -0.035842 0.000357 0.014847
v -0.038795 0.000357 0.000000
v -0.035842 0.000357 -0.014847
v -0.027432 0.000357 -0.027433
v -0.014845 0.000357 -0.035843
v -0.031253 0.020610 -0.012946
v -0.023920 0.020610 0.023921
v 0.019720 0.044021 -0.019718
v 0.026481 0.017911 -0.026479
v -0.010670 0.044021 -0.025763
v -0.014329 0.017911 -0.034597
v 0.034598 0.017911 0.014331
v 0.025764 0.044021 0.010671
v -0.012945 0.020610 0.031255
v -0.033828 0.020610 0.000000
v 0.023923 0.020610 -0.023921
v -0.019716 0.044021 0.019718
v -0.026478 0.017911 0.026479
v 0.031256 0.020610 0.012946
v 0.000002 0.017911 0.037447
v 0.000002 0.044021 0.027886
v -0.034595 0.017911 -0.014330
v -0.025761 0.044021 -0.010671
v 0.033831 0.020610 0.000000
v 0.012948 0.020610 -0.031254
v 0.034598 0.017911 -0.014330
v 0.025764 0.044021 -0.010671
v 0.000002 0.044021 -0.027885
v 0.000002 0.017911 -0.037447
v 0.012948 0.020610 0.031255
v 0.026481 0.017911 0.026479
v 0.019720 0.044021 0.019718
v -0.034595 0.017911 0.014331
v -0.025761 0.044021 0.010671
v -0.031253 0.020610 0.012946
v -0.012945 0.020610 -0.031254
v 0.031256 0.020610 -0.012946
v 0.014332 0.017911 -0.034597
v 0.010673 0.044021 -0.025763
v -0.026478 0.017911 -0.026479
v -0.019716 0.044021 -0.019718
v 0.000002 0.020610 -0.033830
v -0.027884 0.044021 0.000000
v -0.037446 0.017911 0.000000
v -0.023920 0.020610 -0.023921
v -0.014329 0.017911 0.034597
v -0.010670 0.044021 0.025763
v 0.023923 0.020610 0.023921
v 0.010673 0.044021 0.025763
v 0.014332 0.017911 0.034597
v 0.000002 0.020610 0.033830
v 0.027887 0.044021 0.000000
v 0.037449 0.017911 0.000000
v -0.034398 0.160786 -0.014249
v -0.026327 0.160786 0.026329
v 0.028014 0.131524 -0.028012
v -0.015158 0.131524 -0.036600
v 0.036602 0.131524 0.015160
v -0.014247 0.160786 0.034400
v -0.037233 0.160786 0.000000
v 0.026330 0.160786 -0.026329
v -0.028010 0.131524 0.028012
v 0.034402 0.160786 0.014249
v 0.000002 0.131524 0.039615
v -0.036598 0.131524 -0.015160
v 0.037236 0.160786 0.000000
v 0.014251 0.160786 -0.034400
v 0.036602 0.131524 -0.015160
v 0.000002 0.131524 -0.039615
v 0.014251 0.160786 0.034400
v 0.028014 0.131524 0.028012
v -0.036598 0.131524 0.015160
v -0.034398 0.160786 0.014249
v -0.014247 0.160786 -0.034400
v 0.034402 0.160786 -0.014249
v 0.015162 0.131524 -0.036600
v -0.028010 0.131524 -0.028012
v 0.000002 0.160786 -0.037234
v -0.039613 0.131524 0.000000
v -0.026327 0.160786 -0.026329
v -0.015158 0.131524 0.036600
v 0.026330 0.160786 0.026329
v 0.015162 0.131524 0.036600
v 0.000002 0.160786 0.037234
v 0.039617 0.131524 0.000000
v 0.024485 0.090619 -0.024484
v 0.021450 0.059714 -0.021448
v -0.013249 0.090619 -0.031989
v -0.011606 0.059714 -0.028023
v 0.028025 0.059714 0.011608
v 0.031991 0.090619 0.013251
v -0.024482 0.090619 0.024484
v -0.021446 0.059714 0.021448
v 0.000002 0.059714 0.030332
v 0.000002 0.090619 0.034625
v -0.028022 0.059714 -0.011608
v -0.031988 0.090619 -0.013250
v 0.028025 0.059714 -0.011608
v 0.031991 0.090619 -0.013250
v 0.000002 0.090619 -0.034625
v 0.000002 0.059714 -0.030332
v 0.021450 0.059714 0.021448
v 0.024485 0.090619 0.024484
v -0.028022 0.059714 0.011608
v -0.031988 0.090619 0.013251
v 0.011609 0.059714 -0.028023
v 0.013252 0.090619 -0.031989
v -0.021446 0.059714 -0.021448
v -0.024482 0.090619 -0.024484
v -0.034623 0.090619 0.000000
v -0.030330 0.059714 0.000000
v -0.011606 0.059714 0.028023
v -0.013249 0.090619 0.031990
v 0.013252 0.090619 0.031990
v 0.011609 0.059714 0.028023
v 0.034627 0.090619 0.000000
v 0.030334 0.059714 0.000000
vn -0.0000 0.7792 -0.6267
vn -0.2398 0.7792 -0.5790
vn -0.2751 0.6952 -0.6641
vn -0.0000 0.6952 -0.7188
vn -0.0000 1.0000 -0.0000
vn -0.3742 0.2088 0.9035
vn -0.6915 0.2088 0.6915
vn -0.5451 -0.6370 0.5451
vn -0.2950 -0.6370 0.7122
vn -0.0000 0.2088 0.9780
vn -0.0000 -0.6370 0.7708
vn -0.4432 0.7792 0.4432
vn -0.2398 0.7792 0.5790
vn -0.2751 0.6952 0.6641
vn -0.5083 0.6952 0.5083
vn 0.4432 0.7792 -0.4432
vn 0.2398 0.7792 -0.5790
vn 0.2751 0.6952 -0.6641
vn 0.5083 0.6952 -0.5083
vn -0.4432 0.7792 -0.4432
vn -0.5790 0.7792 -0.2398
vn -0.6641 0.6952 -0.2751
vn -0.5083 0.6952 -0.5083
vn -0.5790 0.7792 0.2398
vn -0.6641 0.6952 0.2751
vn 0.7082 0.6422 -0.2933
vn 0.7665 0.6422 -0.0000
vn 0.9958 -0.0917 -0.0000
vn 0.9200 -0.0917 -0.3811
vn 0.3742 0.2088 -0.9035
vn 0.6915 0.2088 -0.6915
vn 0.5451 -0.6370 -0.5451
vn 0.2950 -0.6370 -0.7122
vn 0.2398 0.7792 0.5790
vn 0.4432 0.7792 0.4432
vn 0.5083 0.6952 0.5083
vn 0.2751 0.6952 0.6641
vn 0.6267 0.7792 -0.0000
vn 0.5790 0.7792 -0.2398
vn 0.6641 0.6952 -0.2751
vn 0.7188 0.6952 -0.0000
vn -0.0000 0.7792 0.6267
vn -0.0000 0.6952 0.7188
vn -0.6267 0.7792 -0.0000
vn -0.7188 0.6952 -0.0000
vn 0.9035 0.2088 0.3742
vn 0.6915 0.2088 0.6915
vn 0.5451 -0.6370 0.5451
vn 0.7122 -0.6370 0.2950
vn -0.7665 0.6422 -0.0000
vn -0.7082 0.6422 -0.2933
vn -0.9200 -0.0917 -0.3811
vn -0.9958 -0.0917 -0.0000
vn 0.7041 -0.0917 0.7041
vn 0.3811 -0.0917 0.9200
vn 0.3795 -0.1292 0.9161
vn 0.7012 -0.1292 0.7012
vn -0.6996 -0.1457 -0.6996
vn -0.3786 -0.1457 -0.9140
vn -0.3807 0.1012 -0.9191
vn -0.7035 0.1012 -0.7035
vn -0.6915 0.2088 -0.6915
vn -0.3742 0.2088 -0.9035
vn -0.2950 -0.6370 -0.7122
vn -0.5451 -0.6370 -0.5451
vn 0.3786 -0.1457 -0.9140
vn 0.6996 -0.1457 -0.6996
vn 0.7035 0.1012 -0.7035
vn 0.3807 0.1012 -0.9191
vn -0.7035 0.1012 0.7035
vn -0.3807 0.1012 0.9191
vn -0.3786 -0.1457 0.9140
vn -0.6996 -0.1457 0.6996
vn -0.0000 -1.0000 -0.0000
vn -0.0000 0.6422 -0.7665
vn 0.2933 0.6422 -0.7082
vn 0.3811 -0.0917 -0.9200
vn -0.0000 -0.0917 -0.9958
vn 0.7082 0.6422 0.2933
vn 0.5420 0.6422 0.5420
vn 0.9200 -0.0917 0.3811
vn -0.0000 0.6422 0.7665
vn -0.2933 0.6422 0.7082
vn -0.3811 -0.0917 0.9200
vn -0.0000 -0.0917 0.9958
vn -0.3811 -0.0917 -0.9200
vn -0.0000 -0.1292 -0.9916
vn -0.3795 -0.1292 -0.9161
vn 0.9161 -0.1292 0.3795
vn 0.9916 -0.1292 -0.0000
vn 0.5420 0.6422 -0.5420
vn 0.7041 -0.0917 -0.7041
vn 0.6641 0.6952 0.2751
vn -0.5420 0.6422 -0.5420
vn -0.7041 -0.0917 -0.7041
vn -0.7082 0.6422 0.2933
vn -0.9200 -0.0917 0.3811
vn 0.9161 -0.1292 -0.3795
vn 0.3795 -0.1292 -0.9161
vn -0.5420 0.6422 0.5420
vn -0.7041 -0.0917 0.7041
vn 0.2933 0.6422 0.7082
vn -0.7012 -0.1292 -0.7012
vn -0.9161 -0.1292 -0.3795
vn -0.9916 -0.1292 -0.0000
vn -0.9161 -0.1292 0.3795
vn -0.0000 -0.1292 0.9916
vn -0.3795 -0.1292 0.9161
vn -0.2933 0.6422 -0.7082
vn -0.7012 -0.1292 0.7012
vn -0.9035 0.2088 0.3742
vn -0.9780 0.2088 -0.0000
vn -0.7708 -0.6370 -0.0000
vn -0.7122 -0.6370 0.2950
vn -0.0000 0.2088 -0.9780
vn -0.0000 -0.6370 -0.7708
vn 0.3742 0.2088 0.9035
vn 0.2950 -0.6370 0.7122
vn 0.9035 0.2088 -0.3742
vn 0.7122 -0.6370 -0.2950
vn -0.9035 0.2088 -0.3742
vn -0.7122 -0.6370 -0.2950
vn 0.5790 0.7792 0.2398
vn 0.9780 0.2088 -0.0000
vn 0.7708 -0.6370 -0.0000
vn 0.7012 -0.1292 -0.7012
vn -0.9191 0.1012 0.3807
vn -0.9949 0.1012 -0.0000
vn 0.7035 0.1012 0.7035
vn 0.3807 0.1012 0.9191
vn -0.9191 0.1012 -0.3807
vn -0.0000 0.1012 0.9949
vn 0.9191 0.1012 0.3807
vn -0.0000 0.1012 -0.9949
vn 0.9191 0.1012 -0.3807
vn 0.9949 0.1012 -0.0000
vn -0.9140 -0.1457 0.3786
vn -0.9893 -0.1457 -0.0000
vn -0.0000 -0.1457 -0.9893
vn 0.6996 -0.1457 0.6996
vn 0.3786 -0.1457 0.9140
vn 0.9140 -0.1457 -0.3786
vn -0.9140 -0.1457 -0.3786
vn -0.0000 -0.1457 0.9893
vn 0.9140 -0.1457 0.3786
vn 0.9893 -0.1457 -0.0000
vt 0.124776 0.906295
vt 0.131782 0.907689
vt 0.118836 0.902326
vt 0.114867 0.896387
vt 0.113474 0.889381
vt 0.114867 0.882374
vt 0.118836 0.876435
vt 0.124776 0.872466
vt 0.131782 0.871072
vt 0.138788 0.872466
vt 0.144728 0.876435
vt 0.148697 0.882374
vt 0.150090 0.889380
vt 0.148697 0.896387
vt 0.144728 0.902326
vt 0.138788 0.906295
vt 0.131782 0.909598
vt 0.139519 0.908059
vt 0.146078 0.903676
vt 0.150460 0.897117
vt 0.151999 0.889380
vt 0.150460 0.881644
vt 0.146078 0.875085
vt 0.139519 0.870702
vt 0.131782 0.869163
vt 0.124045 0.870702
vt 0.117486 0.875085
vt 0.113104 0.881644
vt 0.111565 0.889380
vt 0.113104 0.897117
vt 0.117486 0.903676
vt 0.124045 0.908059
vt 0.131782 0.909598
vt 0.139519 0.908059
vt 0.146078 0.903676
vt 0.150460 0.897117
vt 0.151999 0.889380
vt 0.150460 0.881644
vt 0.146078 0.875085
vt 0.139519 0.870702
vt 0.131782 0.869163
vt 0.124045 0.870702
vt 0.117486 0.875085
vt 0.113104 0.881644
vt 0.111565 0.889380
vt 0.113104 0.897117
vt 0.117486 0.903676
vt 0.124045 0.908059
vt 0.146078 0.903676
vt 0.146092 0.903690
vt 0.124045 0.908059
vt 0.124038 0.908077
vt 0.150478 0.881636
vt 0.150460 0.881644
vt 0.117486 0.875085
vt 0.117472 0.875071
vt 0.131782 0.869144
vt 0.131782 0.869163
vt 0.113086 0.897125
vt 0.113104 0.897117
vt 0.150478 0.897125
vt 0.150460 0.897117
vt 0.131782 0.909598
vt 0.131782 0.909617
vt 0.146092 0.875071
vt 0.146078 0.875085
vt 0.113086 0.881636
vt 0.113104 0.881644
vt 0.139526 0.908077
vt 0.139519 0.908059
vt 0.117472 0.903690
vt 0.117486 0.903676
vt 0.111565 0.889380
vt 0.111545 0.889380
vt 0.124038 0.870684
vt 0.124045 0.870702
vt 0.139519 0.870702
vt 0.139526 0.870684
vt 0.151999 0.889380
vt 0.152019 0.889380
vt 0.695356 0.881227
vt 0.114867 0.896387
vt 0.698541 0.865215
vt 0.118836 0.876435
vt 0.146078 0.903676
vt 0.124045 0.908059
vt 0.150460 0.881644
vt 0.124776 0.872466
vt 0.703307 0.862030
vt 0.694237 0.875604
vt 0.113474 0.889381
vt 0.144728 0.902326
vt 0.719319 0.885993
vt 0.117486 0.875085
vt 0.148697 0.882374
vt 0.722504 0.869981
vt 0.131782 0.869163
vt 0.113104 0.897117
vt 0.150090 0.889380
vt 0.723622 0.875604
vt 0.138788 0.906295
vt 0.714552 0.889178
vt 0.150460 0.897117
vt 0.131782 0.909598
vt 0.138788 0.872466
vt 0.714552 0.862030
vt 0.146078 0.875085
vt 0.113104 0.881644
vt 0.695356 0.869982
vt 0.114867 0.882374
vt 0.703307 0.889178
vt 0.124776 0.906295
vt 0.148697 0.896387
vt 0.722504 0.881227
vt 0.139519 0.908059
vt 0.117486 0.903676
vt 0.708930 0.890296
vt 0.131782 0.907689
vt 0.111565 0.889380
vt 0.698541 0.885993
vt 0.118836 0.902326
vt 0.124045 0.870702
vt 0.144728 0.876435
vt 0.719319 0.865215
vt 0.139519 0.870702
vt 0.131782 0.871072
vt 0.708930 0.860912
vt 0.151999 0.889380
vt 0.146078 0.903676
vt 0.146078 0.903676
vt 0.124045 0.908059
vt 0.124045 0.908059
vt 0.150460 0.881644
vt 0.150460 0.881644
vt 0.117486 0.875085
vt 0.117486 0.875085
vt 0.131782 0.869163
vt 0.131782 0.869163
vt 0.113104 0.897117
vt 0.113104 0.897117
vt 0.150460 0.897117
vt 0.150460 0.897117
vt 0.131782 0.909598
vt 0.131782 0.909598
vt 0.146078 0.875085
vt 0.146078 0.875085
vt 0.113104 0.881644
vt 0.113104 0.881644
vt 0.139519 0.908059
vt 0.139519 0.908059
vt 0.117486 0.903676
vt 0.117486 0.903676
vt 0.111565 0.889380
vt 0.111565 0.889380
vt 0.124045 0.870702
vt 0.124045 0.870702
vt 0.139519 0.870702
vt 0.139519 0.870702
vt 0.151999 0.889380
vt 0.151999 0.889380
s 1
usemtl Palette
f 9/9/1 10/10/2 113/105/3 127/126/4
s 0
f 2/2/5 16/16/5 18/18/5 17/17/5
f 16/16/5 15/15/5 19/19/5 18/18/5
f 15/15/5 14/14/5 20/20/5 19/19/5
f 14/14/5 13/13/5 21/21/5 20/20/5
f 13/13/5 12/12/5 22/22/5 21/21/5
f 12/12/5 11/11/5 23/23/5 22/22/5
f 11/11/5 10/10/5 24/24/5 23/23/5
f 10/10/5 9/9/5 25/25/5 24/24/5
f 9/9/5 8/8/5 26/26/5 25/25/5
f 8/8/5 7/7/5 27/27/5 26/26/5
f 7/7/5 6/6/5 28/28/5 27/27/5
f 6/6/5 5/5/5 29/29/5 28/28/5
f 5/5/5 4/4/5 30/30/5 29/29/5
f 4/4/5 3/3/5 31/31/5 30/30/5
f 3/3/5 1/1/5 32/32/5 31/31/5
f 1/1/5 2/2/5 17/17/5 32/32/5
s 1
f 89/75/6 61/56/7 43/43/8 42/42/9
f 63/57/10 89/75/6 42/42/9 41/41/11
f 15/15/12 16/16/13 110/101/14 104/92/15
f 7/7/16 8/8/17 102/88/18 98/84/19
f 11/11/20 12/12/21 106/95/22 125/123/23
f 14/14/24 15/15/12 104/92/15 118/113/25
f 20/20/26 21/21/27 128/128/28 111/103/29
f 81/69/30 52/50/31 35/35/32 34/34/33
f 1/1/34 3/3/35 123/121/36 117/112/37
f 5/5/38 6/6/39 116/110/40 103/91/41
f 16/16/13 2/2/42 121/118/43 110/101/14
f 8/8/17 9/9/1 127/126/4 102/88/18
f 13/13/44 14/14/24 118/113/25 109/99/45
f 55/53/46 74/65/47 39/39/48 38/38/49
f 29/29/50 30/30/51 108/98/52 122/119/53
f 114/107/54 126/125/55 157/157/56 146/146/57
f 151/151/58 132/132/59 53/51/60 84/72/61
f 83/71/62 54/52/63 48/48/64 47/47/65
f 149/149/66 130/130/67 51/49/68 82/70/69
f 60/55/70 90/76/71 155/155/72 136/136/73
f 10/10/2 11/11/20 125/123/23 113/105/3
s 0
f 33/33/74 34/34/74 35/35/74 36/36/74 37/37/74 38/38/74 39/39/74 40/40/74 41/41/74 42/42/74 43/43/74 44/44/74 45/45/74 46/46/74 47/47/74 48/48/74
s 1
f 17/17/75 18/18/76 119/115/77 112/104/78
f 22/22/79 23/23/80 114/107/54 101/87/81
f 12/12/21 13/13/44 109/99/45 106/95/22
f 25/25/82 26/26/83 124/122/84 107/97/85
f 100/86/86 112/104/78 143/143/87 131/131/88
f 128/128/28 101/87/81 134/134/89 159/159/90
f 19/19/91 20/20/26 111/103/29 99/85/92
f 104/93/15 110/102/14 121/117/43 117/111/37 123/120/36 97/81/93 103/90/41 116/109/40 98/83/19 102/89/18 127/127/4 113/106/3 125/124/23 106/96/22 109/100/45 118/114/25
f 30/30/51 31/31/94 120/116/95 108/98/52
f 28/28/96 29/29/50 122/119/53 115/108/97
f 111/103/29 128/128/28 159/159/90 142/142/98
f 21/21/27 22/22/79 101/87/81 128/128/28
f 112/104/78 119/115/77 150/150/99 143/143/87
f 27/27/100 28/28/96 115/108/97 105/94/101
f 23/23/80 24/24/102 126/125/55 114/107/54
f 108/98/52 120/116/95 152/152/103 140/140/104
f 115/108/97 122/119/53 153/153/105 148/148/106
f 126/125/55 107/97/85 138/138/107 157/157/56
f 24/24/102 25/25/82 107/97/85 126/125/55
f 101/87/81 114/107/54 146/146/57 134/134/89
f 107/97/85 124/122/84 156/156/108 138/138/107
f 32/32/109 17/17/75 112/104/78 100/86/86
f 105/94/101 115/108/97 148/148/106 135/135/110
f 76/67/111 87/74/112 45/45/113 44/44/114
f 54/52/63 72/64/115 33/33/116 48/48/64
f 61/56/7 76/67/111 44/44/114 43/43/8
f 74/65/47 93/78/117 40/40/118 39/39/48
f 52/50/31 69/61/119 36/36/120 35/35/32
f 6/6/39 7/7/16 98/84/19 116/110/40
f 2/2/42 1/1/34 117/112/37 121/118/43
f 65/59/121 83/71/62 47/47/65 46/46/122
f 122/119/53 108/98/52 140/140/104 153/153/105
f 3/3/35 4/4/123 97/82/93 123/121/36
f 31/31/94 32/32/109 100/86/86 120/116/95
f 69/61/119 96/80/124 37/37/125 36/36/120
f 87/74/112 65/59/121 46/46/122 45/45/113
f 72/64/115 81/69/30 34/34/33 33/33/116
f 26/26/83 27/27/100 105/94/101 124/122/84
f 96/80/124 55/53/46 38/38/49 37/37/125
f 93/78/117 63/57/10 41/41/11 40/40/118
f 18/18/76 19/19/91 99/85/92 119/115/77
f 99/85/92 111/103/29 142/142/98 129/129/126
f 87/74/112 76/67/111 77/68/127 86/73/128
f 54/52/63 83/71/62 84/72/61 53/51/60
f 61/56/7 89/75/6 90/76/71 60/55/70
f 93/78/117 74/65/47 75/66/129 92/77/130
f 52/50/31 81/69/30 82/70/69 51/49/68
f 83/71/62 65/59/121 66/60/131 84/72/61
f 89/75/6 63/57/10 64/58/132 90/76/71
f 74/65/47 55/53/46 56/54/133 75/66/129
f 72/64/115 54/52/63 53/51/60 71/63/134
f 96/80/124 69/61/119 70/62/135 95/79/136
f 65/59/121 87/74/112 86/73/128 66/60/131
f 81/69/30 72/64/115 71/63/134 82/70/69
f 76/67/111 61/56/7 60/55/70 77/68/127
f 55/53/46 96/80/124 95/79/136 56/54/133
f 63/57/10 93/78/117 92/77/130 64/58/132
f 69/61/119 52/50/31 51/49/68 70/62/135
f 4/4/123 5/5/38 103/91/41 97/82/93
f 86/73/128 77/68/127 147/147/137 154/154/138
f 132/132/59 144/144/139 71/63/134 53/51/60
f 77/68/127 60/55/70 136/136/73 147/147/137
f 92/77/130 75/66/129 145/145/140 158/158/141
f 130/130/67 141/141/142 70/62/135 51/49/68
f 139/139/143 151/151/58 84/72/61 66/60/131
f 90/76/71 64/58/132 137/137/144 155/155/72
f 75/66/129 56/54/133 133/133/145 145/145/140
f 120/116/95 100/86/86 131/131/88 152/152/103
f 141/141/142 160/160/146 95/79/136 70/62/135
f 154/154/138 139/139/143 66/60/131 86/73/128
f 144/144/139 149/149/66 82/70/69 71/63/134
f 124/122/84 105/94/101 135/135/110 156/156/108
f 56/54/133 95/79/136 160/160/146 133/133/145
f 64/58/132 92/77/130 158/158/141 137/137/144
f 119/115/77 99/85/92 129/129/126 150/150/99
f 154/154/138 147/147/137 148/148/106 153/153/105
f 132/132/59 151/151/58 152/152/103 131/131/88
f 136/136/73 155/155/72 156/156/108 135/135/110
f 158/158/141 145/145/140 146/146/57 157/157/56
f 130/130/67 149/149/66 150/150/99 129/129/126
f 151/151/58 139/139/143 140/140/104 152/152/103
f 155/155/72 137/137/144 138/138/107 156/156/108
f 145/145/140 133/133/145 134/134/89 146/146/57
f 144/144/139 132/132/59 131/131/88 143/143/87
f 160/160/146 141/141/142 142/142/98 159/159/90
f 139/139/143 154/154/138 153/153/105 140/140/104
f 149/149/66 144/144/139 143/143/87 150/150/99
f 147/147/137 136/136/73 135/135/110 148/148/106
f 133/133/145 160/160/146 159/159/90 134/134/89
f 137/137/144 158/158/141 157/157/56 138/138/107
f 141/141/142 130/130/67 129/129/126 142/142/98
l 50 78
l 58 49
l 49 88
l 91 73
l 94 57
l 73 94
l 57 50
l 67 62
l 78 58
l 62 91
l 68 59
l 80 67
l 79 85
l 88 79
l 59 80
l 85 68
