# Blender 3.4.1
# www.blender.org
mtllib Glass__Filled_.mtl
o Glass_(Filled)
v -0.014652 0.154703 -0.035376
v 0.000002 0.154703 -0.038291
v -0.027074 0.154703 -0.027076
v -0.035375 0.154703 -0.014653
v -0.038289 0.154703 0.000000
v -0.035375 0.154703 0.014653
v -0.027074 0.154703 0.027076
v -0.014652 0.154703 0.035376
v 0.000002 0.154703 0.038291
v 0.014655 0.154703 0.035376
v 0.027078 0.154703 0.027076
v 0.035378 0.154703 0.014653
v 0.038293 0.154703 0.000000
v 0.035378 0.154703 -0.014653
v 0.027078 0.154703 -0.027076
v 0.014655 0.154703 -0.035376
v 0.000002 0.154703 -0.042284
v 0.016183 0.154703 -0.039065
v 0.029901 0.154703 -0.029899
v 0.039067 0.154703 -0.016181
v 0.042286 0.154703 0.000000
v 0.039067 0.154703 0.016181
v 0.029901 0.154703 0.029899
v 0.016183 0.154703 0.039065
v 0.000002 0.154703 0.042284
v -0.016180 0.154703 0.039065
v -0.029898 0.154703 0.029899
v -0.039064 0.154703 0.016181
v -0.042282 0.154703 0.000000
v -0.039064 0.154703 -0.016181
v -0.029898 0.154703 -0.029899
v -0.016180 0.154703 -0.039065
v 0.014655 0.137721 -0.035376
v 0.027078 0.137721 -0.027076
v 0.035378 0.137721 -0.014653
v 0.038293 0.137721 0.000000
v 0.035378 0.137721 0.014653
v 0.027078 0.137721 0.027076
v 0.014655 0.137721 0.035376
v 0.000002 0.137721 0.038291
v -0.014652 0.137721 0.035376
v -0.027074 0.137721 0.027076
v -0.035375 0.137721 0.014653
v -0.038289 0.137721 0.000000
v -0.035375 0.137721 -0.014653
v -0.027074 0.137721 -0.027076
v 0.000002 0.137721 -0.038291
v -0.014652 0.137721 -0.035376
v 0.000002 0.000000 -0.042284
v 0.016183 0.000000 -0.039065
v 0.029901 0.000000 -0.029899
v 0.039067 0.000000 -0.016181
v 0.042286 0.000000 0.000000
v 0.039067 0.000000 0.016181
v 0.029901 0.000000 0.029899
v 0.016183 0.000000 0.039065
v 0.000002 0.000000 0.042284
v -0.016180 0.000000 0.039065
v -0.029898 0.000000 0.029899
v -0.039064 0.000000 0.016181
v -0.042282 0.000000 0.000000
v -0.039064 0.000000 -0.016181
v -0.029898 0.000000 -0.029899
v -0.016180 0.000000 -0.039065
vn -0.2515 0.7538 -0.6071
vn -0.4647 0.7538 -0.4647
vn -0.5276 0.6657 -0.5276
vn -0.2856 0.6657 -0.6894
vn -0.0000 1.0000 -0.0000
vn -0.6071 0.7538 0.2515
vn -0.4647 0.7538 0.4647
vn -0.5276 0.6657 0.5276
vn -0.6894 0.6657 0.2856
vn 0.5276 0.6657 0.5276
vn 0.6894 0.6657 0.2856
vn 0.7462 0.6657 -0.0000
vn 0.6894 0.6657 -0.2856
vn 0.5276 0.6657 -0.5276
vn 0.2856 0.6657 -0.6894
vn -0.0000 0.6657 -0.7462
vn -0.6894 0.6657 -0.2856
vn -0.7462 0.6657 -0.0000
vn -0.2856 0.6657 0.6894
vn -0.0000 0.6657 0.7462
vn 0.2856 0.6657 0.6894
vn 0.4647 0.7538 -0.4647
vn 0.2515 0.7538 -0.6071
vn 0.4647 0.7538 0.4647
vn 0.6071 0.7538 0.2515
vn -0.2515 0.7538 0.6071
vn -0.6071 0.7538 -0.2515
vn -0.0000 0.7538 -0.6571
vn 0.6571 0.7538 -0.0000
vn -0.0000 0.7538 0.6571
vn 0.2515 0.7538 0.6071
vn -0.6571 0.7538 -0.0000
vn 0.6071 0.7538 -0.2515
vn -0.7462 -0.6657 -0.0000
vn -0.6894 -0.6657 0.2856
vn 0.6894 -0.6657 0.2856
vn 0.7462 -0.6657 -0.0000
vn -0.6894 -0.6657 -0.2856
vn 0.5276 -0.6657 0.5276
vn -0.5276 -0.6657 -0.5276
vn 0.2856 -0.6657 0.6894
vn -0.2856 -0.6657 -0.6894
vn -0.0000 -0.6657 0.7462
vn 0.2856 -0.6657 -0.6894
vn -0.0000 -0.6657 -0.7462
vn -0.2856 -0.6657 0.6894
vn 0.5276 -0.6657 -0.5276
vn -0.5276 -0.6657 0.5276
vn 0.6894 -0.6657 -0.2856
vn -0.0000 -1.0000 -0.0000
vt 0.281026 0.808407
vt 0.288032 0.809800
vt 0.275086 0.804438
vt 0.271117 0.798498
vt 0.269724 0.791492
vt 0.271117 0.784485
vt 0.275086 0.778546
vt 0.281026 0.774577
vt 0.288032 0.773184
vt 0.295038 0.774577
vt 0.300978 0.778546
vt 0.304947 0.784485
vt 0.306340 0.791492
vt 0.304947 0.798498
vt 0.300978 0.804438
vt 0.295038 0.808406
vt 0.288032 0.811709
vt 0.295769 0.810170
vt 0.302328 0.805788
vt 0.306710 0.799229
vt 0.308249 0.791492
vt 0.306710 0.783755
vt 0.302328 0.777196
vt 0.295769 0.772813
vt 0.288032 0.771274
vt 0.280295 0.772813
vt 0.273736 0.777196
vt 0.269354 0.783755
vt 0.267815 0.791492
vt 0.269354 0.799229
vt 0.273736 0.805788
vt 0.280295 0.810170
vt 0.712462 0.880819
vt 0.295038 0.808406
vt 0.717229 0.877634
vt 0.300978 0.804438
vt 0.720414 0.872867
vt 0.304947 0.798498
vt 0.721532 0.867245
vt 0.306340 0.791492
vt 0.720414 0.861622
vt 0.304947 0.784485
vt 0.717229 0.856856
vt 0.300978 0.778546
vt 0.712462 0.853671
vt 0.295038 0.774577
vt 0.706840 0.852552
vt 0.288032 0.773184
vt 0.701217 0.853671
vt 0.281026 0.774577
vt 0.696451 0.856856
vt 0.275086 0.778546
vt 0.693266 0.861622
vt 0.271117 0.784485
vt 0.692148 0.867245
vt 0.269724 0.791492
vt 0.693266 0.872867
vt 0.271117 0.798498
vt 0.696451 0.877634
vt 0.275086 0.804438
vt 0.706840 0.881937
vt 0.288032 0.809800
vt 0.701217 0.880819
vt 0.281026 0.808407
vt 0.288032 0.811709
vt 0.295769 0.810170
vt 0.302328 0.805788
vt 0.306710 0.799229
vt 0.308249 0.791492
vt 0.306710 0.783755
vt 0.302328 0.777196
vt 0.295769 0.772813
vt 0.288032 0.771274
vt 0.280295 0.772813
vt 0.273736 0.777196
vt 0.269354 0.783755
vt 0.267815 0.791492
vt 0.269354 0.799229
vt 0.273736 0.805788
vt 0.280295 0.810170
s 1
usemtl Palette
f 10/10/1 11/11/2 38/44/3 39/46/4
s 0
f 2/2/5 16/16/5 18/18/5 17/17/5
f 16/16/5 15/15/5 19/19/5 18/18/5
f 15/15/5 14/14/5 20/20/5 19/19/5
f 14/14/5 13/13/5 21/21/5 20/20/5
f 13/13/5 12/12/5 22/22/5 21/21/5
f 12/12/5 11/11/5 23/23/5 22/22/5
f 11/11/5 10/10/5 24/24/5 23/23/5
f 10/10/5 9/9/5 25/25/5 24/24/5
f 9/9/5 8/8/5 26/26/5 25/25/5
f 8/8/5 7/7/5 27/27/5 26/26/5
f 7/7/5 6/6/5 28/28/5 27/27/5
f 6/6/5 5/5/5 29/29/5 28/28/5
f 5/5/5 4/4/5 30/30/5 29/29/5
f 4/4/5 3/3/5 31/31/5 30/30/5
f 3/3/5 1/1/5 32/32/5 31/31/5
f 1/1/5 2/2/5 17/17/5 32/32/5
s 1
f 14/14/6 15/15/7 34/36/8 35/38/9
f 46/59/10 45/57/11 44/55/12 43/53/13 42/51/14 41/49/15 40/47/16 39/45/4 38/43/3 37/41/17 36/39/18 35/37/9 34/35/8 33/33/19 47/61/20 48/63/21
f 7/7/22 8/8/23 41/50/15 42/52/14
f 3/3/24 4/4/25 45/58/11 46/60/10
f 15/15/7 16/16/26 33/34/19 34/36/8
f 11/11/2 12/12/27 37/42/17 38/44/3
f 8/8/23 9/9/28 40/48/16 41/50/15
f 4/4/25 5/5/29 44/56/12 45/58/11
f 2/2/30 1/1/31 48/64/21 47/62/20
f 12/12/27 13/13/32 36/40/18 37/42/17
f 16/16/26 2/2/30 47/62/20 33/34/19
f 5/5/29 6/6/33 43/54/13 44/56/12
f 9/9/28 10/10/1 39/46/4 40/48/16
f 13/13/32 14/14/6 35/38/9 36/40/18
f 1/1/31 3/3/24 46/60/10 48/64/21
f 6/6/33 7/7/22 42/52/14 43/54/13
f 28/28/9 29/29/18 61/77/34 60/76/35
f 21/21/12 22/22/11 54/70/36 53/69/37
f 29/29/18 30/30/17 62/78/38 61/77/34
f 22/22/11 23/23/10 55/71/39 54/70/36
f 30/30/17 31/31/3 63/79/40 62/78/38
f 23/23/10 24/24/21 56/72/41 55/71/39
f 31/31/3 32/32/4 64/80/42 63/79/40
f 24/24/21 25/25/20 57/73/43 56/72/41
f 17/17/16 18/18/15 50/66/44 49/65/45
f 32/32/4 17/17/16 49/65/45 64/80/42
f 25/25/20 26/26/19 58/74/46 57/73/43
f 18/18/15 19/19/14 51/67/47 50/66/44
f 26/26/19 27/27/8 59/75/48 58/74/46
f 19/19/14 20/20/13 52/68/49 51/67/47
f 27/27/8 28/28/9 60/76/35 59/75/48
f 20/20/13 21/21/12 53/69/37 52/68/49
s 0
f 49/65/50 50/66/50 51/67/50 52/68/50 53/69/50 54/70/50 55/71/50 56/72/50 57/73/50 58/74/50 59/75/50 60/76/50 61/77/50 62/78/50 63/79/50 64/80/50
