# Blender 3.4.1
# www.blender.org
mtllib Glass__Empty__Alt.mtl
o Glass_(Empty)_Alt
v -0.014652 0.173832 -0.035376
v 0.000002 0.173832 -0.038291
v -0.027074 0.173832 -0.027076
v -0.035375 0.173832 -0.014653
v -0.038289 0.173832 0.000000
v -0.035375 0.173832 0.014653
v -0.027074 0.173832 0.027076
v -0.014652 0.173832 0.035376
v 0.000002 0.173832 0.038291
v 0.014655 0.173832 0.035376
v 0.027078 0.173832 0.027076
v 0.035378 0.173832 0.014653
v 0.038293 0.173832 0.000000
v 0.035378 0.173832 -0.014653
v 0.027078 0.173832 -0.027076
v 0.014655 0.173832 -0.035376
v 0.000002 0.173832 -0.042284
v 0.016183 0.173832 -0.039065
v 0.029901 0.173832 -0.029899
v 0.039067 0.173832 -0.016181
v 0.042286 0.173832 0.000000
v 0.039067 0.173832 0.016181
v 0.029901 0.173832 0.029899
v 0.016183 0.173832 0.039065
v 0.000002 0.173832 0.042284
v -0.016180 0.173832 0.039065
v -0.029898 0.173832 0.029899
v -0.039064 0.173832 0.016181
v -0.042282 0.173832 0.000000
v -0.039064 0.173832 -0.016181
v -0.029898 0.173832 -0.029899
v -0.016180 0.173832 -0.039065
v 0.013447 0.008301 -0.032459
v 0.024845 0.008301 -0.024843
v 0.032461 0.008301 -0.013445
v 0.035135 0.008301 0.000000
v 0.032461 0.008301 0.013445
v 0.024845 0.008301 0.024843
v 0.013447 0.008301 0.032459
v 0.000002 0.008301 0.035133
v -0.013443 0.008301 0.032459
v -0.024841 0.008301 0.024843
v -0.032457 0.008301 0.013445
v -0.035131 0.008301 0.000000
v -0.032457 0.008301 -0.013445
v -0.024841 0.008301 -0.024843
v 0.000002 0.008301 -0.035133
v -0.013443 0.008301 -0.032459
v 0.000002 0.000357 -0.038797
v 0.014849 0.000357 -0.035844
v 0.027435 0.000357 -0.027433
v 0.035845 0.000357 -0.014847
v 0.038799 0.000357 0.000000
v 0.035845 0.000357 0.014847
v 0.027435 0.000357 0.027434
v 0.014849 0.000357 0.035844
v 0.000002 0.000357 0.038797
v -0.014845 0.000357 0.035844
v -0.027432 0.000357 0.027434
v -0.035842 0.000357 0.014847
v -0.038795 0.000357 0.000000
v -0.035842 0.000357 -0.014847
v -0.027432 0.000357 -0.027433
v -0.014845 0.000357 -0.035843
v -0.023833 0.044118 -0.009873
v -0.031253 0.020610 -0.012946
v -0.018241 0.044118 0.018242
v -0.023920 0.020610 0.023921
v 0.019720 0.044021 -0.019718
v 0.026481 0.017911 -0.026479
v -0.010670 0.044021 -0.025763
v -0.014329 0.017911 -0.034597
v 0.034598 0.017911 0.014331
v 0.025764 0.044021 0.010671
v -0.009871 0.044118 0.023835
v -0.012945 0.020610 0.031255
v -0.025797 0.044118 0.000000
v -0.033828 0.020610 0.000000
v 0.023923 0.020610 -0.023921
v 0.018244 0.044118 -0.018242
v -0.019716 0.044021 0.019718
v -0.026478 0.017911 0.026479
v 0.031256 0.020610 0.012946
v 0.023836 0.044118 0.009873
v 0.000002 0.017911 0.037447
v 0.000002 0.044021 0.027886
v -0.034595 0.017911 -0.014330
v -0.025761 0.044021 -0.010671
v 0.025800 0.044118 0.000000
v 0.033831 0.020610 0.000000
v 0.009874 0.044118 -0.023835
v 0.012948 0.020610 -0.031254
v 0.034598 0.017911 -0.014330
v 0.025764 0.044021 -0.010671
v 0.000002 0.044021 -0.027885
v 0.000002 0.017911 -0.037447
v 0.012948 0.020610 0.031255
v 0.009874 0.044118 0.023835
v 0.026481 0.017911 0.026479
v 0.019720 0.044021 0.019718
v -0.034595 0.017911 0.014331
v -0.025761 0.044021 0.010671
v -0.031253 0.020610 0.012946
v -0.023833 0.044118 0.009873
v -0.009871 0.044118 -0.023835
v -0.012945 0.020610 -0.031254
v 0.023836 0.044118 -0.009873
v 0.031256 0.020610 -0.012946
v 0.014332 0.017911 -0.034597
v 0.010673 0.044021 -0.025763
v -0.026478 0.017911 -0.026479
v -0.019716 0.044021 -0.019718
v 0.000002 0.044118 -0.025798
v 0.000002 0.020610 -0.033830
v -0.027884 0.044021 0.000000
v -0.037446 0.017911 0.000000
v -0.023920 0.020610 -0.023921
v -0.018241 0.044118 -0.018242
v -0.014329 0.017911 0.034597
v -0.010670 0.044021 0.025763
v 0.018244 0.044118 0.018242
v 0.023923 0.020610 0.023921
v 0.010673 0.044021 0.025763
v 0.014332 0.017911 0.034597
v 0.000002 0.044118 0.025799
v 0.000002 0.020610 0.033830
v 0.027887 0.044021 0.000000
v 0.037449 0.017911 0.000000
v -0.033145 0.131562 -0.013730
v -0.025368 0.131562 0.025370
v 0.028014 0.131524 -0.028012
v -0.015158 0.131524 -0.036600
v 0.036602 0.131524 0.015160
v -0.013728 0.131562 0.033147
v -0.035876 0.131562 0.000000
v 0.025371 0.131562 -0.025369
v -0.028010 0.131524 0.028012
v 0.033149 0.131562 0.013730
v 0.000002 0.131524 0.039615
v -0.036598 0.131524 -0.015160
v 0.035880 0.131562 0.000000
v 0.013732 0.131562 -0.033147
v 0.036602 0.131524 -0.015160
v 0.000002 0.131524 -0.039615
v 0.013732 0.131562 0.033147
v 0.028014 0.131524 0.028012
v -0.036598 0.131524 0.015160
v -0.033145 0.131562 0.013730
v -0.013728 0.131562 -0.033147
v 0.033149 0.131562 -0.013730
v 0.015162 0.131524 -0.036600
v -0.028010 0.131524 -0.028012
v 0.000002 0.131562 -0.035878
v -0.039613 0.131524 0.000000
v -0.025368 0.131562 -0.025369
v -0.015158 0.131524 0.036600
v 0.025371 0.131562 0.025370
v 0.015162 0.131524 0.036600
v 0.000002 0.131562 0.035878
v 0.039617 0.131524 0.000000
v 0.024485 0.090619 -0.024484
v 0.021450 0.059714 -0.021448
v -0.013249 0.090619 -0.031989
v -0.011606 0.059714 -0.028023
v 0.028025 0.059714 0.011608
v 0.031991 0.090619 0.013251
v -0.024482 0.090619 0.024484
v -0.021446 0.059714 0.021448
v 0.000002 0.059714 0.030332
v 0.000002 0.090619 0.034625
v -0.028022 0.059714 -0.011608
v -0.031988 0.090619 -0.013250
v 0.028025 0.059714 -0.011608
v 0.031991 0.090619 -0.013250
v 0.000002 0.090619 -0.034625
v 0.000002 0.059714 -0.030332
v 0.021450 0.059714 0.021448
v 0.024485 0.090619 0.024484
v -0.028022 0.059714 0.011608
v -0.031988 0.090619 0.013251
v 0.011609 0.059714 -0.028023
v 0.013252 0.090619 -0.031989
v -0.021446 0.059714 -0.021448
v -0.024482 0.090619 -0.024484
v -0.034623 0.090619 0.000000
v -0.030330 0.059714 0.000000
v -0.011606 0.059714 0.028023
v -0.013249 0.090619 0.031990
v 0.013252 0.090619 0.031990
v 0.011609 0.059714 0.028023
v 0.034627 0.090619 0.000000
v 0.030334 0.059714 0.000000
vn -0.0000 0.7719 -0.6358
vn -0.2433 0.7719 -0.5874
vn -0.3813 0.0855 -0.9205
vn -0.0000 0.0855 -0.9963
vn -0.0000 1.0000 -0.0000
vn -0.3742 0.2088 0.9035
vn -0.6915 0.2088 0.6915
vn -0.5451 -0.6370 0.5451
vn -0.2950 -0.6370 0.7122
vn 0.5514 0.6261 0.5514
vn 0.7204 0.6261 0.2984
vn 0.7797 0.6261 -0.0000
vn 0.7204 0.6261 -0.2984
vn 0.5514 0.6261 -0.5514
vn 0.2984 0.6261 -0.7204
vn -0.0000 0.6261 -0.7798
vn -0.2984 0.6261 -0.7204
vn -0.5514 0.6261 -0.5514
vn -0.7204 0.6261 -0.2984
vn -0.7798 0.6261 -0.0000
vn -0.7204 0.6261 0.2984
vn -0.5514 0.6261 0.5514
vn -0.2984 0.6261 0.7204
vn -0.0000 0.6261 0.7798
vn 0.2984 0.6261 0.7204
vn 0.7028 -0.1101 -0.7028
vn 0.7045 0.0855 -0.7045
vn 0.3813 0.0855 -0.9205
vn 0.3804 -0.1101 -0.9183
vn 0.6909 -0.2128 0.6909
vn 0.9027 -0.2128 0.3739
vn -0.6909 -0.2128 0.6909
vn -0.3739 -0.2128 0.9027
vn -0.0000 0.2088 0.9780
vn -0.0000 -0.6370 0.7708
vn -0.4496 0.7719 0.4495
vn -0.2433 0.7719 0.5874
vn -0.3813 0.0855 0.9205
vn -0.7045 0.0855 0.7045
vn 0.4495 0.7719 -0.4495
vn 0.2433 0.7719 -0.5874
vn -0.0000 -0.2128 0.9771
vn 0.3739 -0.2128 0.9027
vn -0.4496 0.7719 -0.4495
vn -0.5874 0.7719 -0.2433
vn -0.9205 0.0855 -0.3813
vn -0.7045 0.0855 -0.7045
vn -0.5874 0.7719 0.2433
vn -0.9205 0.0855 0.3813
vn 0.7082 0.6422 -0.2933
vn 0.7665 0.6422 -0.0000
vn 0.9958 -0.0917 -0.0000
vn 0.9200 -0.0917 -0.3811
vn 0.3742 0.2088 -0.9035
vn 0.6915 0.2088 -0.6915
vn 0.5451 -0.6370 -0.5451
vn 0.2950 -0.6370 -0.7122
vn 0.2433 0.7719 0.5874
vn 0.4495 0.7719 0.4495
vn 0.7045 0.0855 0.7045
vn 0.3813 0.0855 0.9205
vn 0.6358 0.7719 -0.0000
vn 0.5874 0.7719 -0.2433
vn 0.9205 0.0855 -0.3813
vn 0.9963 0.0855 -0.0000
vn -0.0000 0.7719 0.6358
vn -0.0000 0.0855 0.9963
vn -0.6358 0.7719 -0.0000
vn -0.9963 0.0855 -0.0000
vn 0.9035 0.2088 0.3742
vn 0.6915 0.2088 0.6915
vn 0.5451 -0.6370 0.5451
vn 0.7122 -0.6370 0.2950
vn -0.7665 0.6422 -0.0000
vn -0.7082 0.6422 -0.2933
vn -0.9200 -0.0917 -0.3811
vn -0.9958 -0.0917 -0.0000
vn 0.7041 -0.0917 0.7041
vn 0.3811 -0.0917 0.9200
vn 0.3795 -0.1292 0.9161
vn 0.7012 -0.1292 0.7012
vn -0.6996 -0.1457 -0.6996
vn -0.3786 -0.1457 -0.9140
vn -0.3807 0.1012 -0.9191
vn -0.7035 0.1012 -0.7035
vn -0.6915 0.2088 -0.6915
vn -0.3742 0.2088 -0.9035
vn -0.2950 -0.6370 -0.7122
vn -0.5451 -0.6370 -0.5451
vn 0.3786 -0.1457 -0.9140
vn 0.6996 -0.1457 -0.6996
vn 0.7035 0.1012 -0.7035
vn 0.3807 0.1012 -0.9191
vn -0.7035 0.1012 0.7035
vn -0.3807 0.1012 0.9191
vn -0.3786 -0.1457 0.9140
vn -0.6996 -0.1457 0.6996
vn -0.0000 -1.0000 -0.0000
vn -0.0000 0.6422 -0.7665
vn 0.2933 0.6422 -0.7082
vn 0.3811 -0.0917 -0.9200
vn -0.0000 -0.0917 -0.9958
vn 0.7082 0.6422 0.2933
vn 0.5420 0.6422 0.5420
vn 0.9200 -0.0917 0.3811
vn -0.9183 -0.1100 -0.3804
vn -0.9939 -0.1100 -0.0000
vn -0.0000 0.6422 0.7665
vn -0.2933 0.6422 0.7082
vn -0.3811 -0.0917 0.9200
vn -0.0000 -0.0917 0.9958
vn -0.3811 -0.0917 -0.9200
vn -0.0000 -0.1292 -0.9916
vn -0.3795 -0.1292 -0.9161
vn 0.9161 -0.1292 0.3795
vn 0.9916 -0.1292 -0.0000
vn 0.5420 0.6422 -0.5420
vn 0.7041 -0.0917 -0.7041
vn 0.3804 -0.1100 0.9183
vn 0.7028 -0.1101 0.7028
vn -0.5420 0.6422 -0.5420
vn -0.7041 -0.0917 -0.7041
vn -0.7082 0.6422 0.2933
vn -0.9200 -0.0917 0.3811
vn 0.9027 -0.2128 -0.3739
vn 0.6909 -0.2128 -0.6909
vn 0.9161 -0.1292 -0.3795
vn -0.7028 -0.1100 0.7028
vn -0.3804 -0.1100 0.9183
vn 0.3795 -0.1292 -0.9161
vn -0.5420 0.6422 0.5420
vn -0.7041 -0.0917 0.7041
vn 0.2933 0.6422 0.7082
vn -0.7012 -0.1292 -0.7012
vn -0.9161 -0.1292 -0.3795
vn -0.9916 -0.1292 -0.0000
vn -0.9161 -0.1292 0.3795
vn -0.0000 -0.1292 0.9916
vn -0.3795 -0.1292 0.9161
vn -0.2933 0.6422 -0.7082
vn -0.7012 -0.1292 0.7012
vn -0.9035 0.2088 0.3742
vn -0.9780 0.2088 -0.0000
vn -0.7708 -0.6370 -0.0000
vn -0.7122 -0.6370 0.2950
vn -0.0000 0.2088 -0.9780
vn -0.0000 -0.6370 -0.7708
vn 0.9771 -0.2128 -0.0000
vn -0.9027 -0.2128 -0.3739
vn -0.9771 -0.2128 -0.0000
vn 0.3739 -0.2128 -0.9027
vn 0.3742 0.2088 0.9035
vn 0.2950 -0.6370 0.7122
vn 0.9035 0.2088 -0.3742
vn 0.7122 -0.6370 -0.2950
vn -0.9035 0.2088 -0.3742
vn -0.7122 -0.6370 -0.2950
vn -0.3739 -0.2128 -0.9027
vn -0.6909 -0.2128 -0.6909
vn 0.5874 0.7719 0.2433
vn 0.9205 0.0855 0.3813
vn -0.9027 -0.2128 0.3739
vn 0.9780 0.2088 -0.0000
vn 0.7708 -0.6370 -0.0000
vn -0.0000 -0.2128 -0.9771
vn 0.7012 -0.1292 -0.7012
vn -0.0000 -0.1100 0.9939
vn -0.9191 0.1012 0.3807
vn -0.9949 0.1012 -0.0000
vn 0.9183 -0.1101 0.3804
vn 0.9183 -0.1101 -0.3804
vn 0.7035 0.1012 0.7035
vn 0.3807 0.1012 0.9191
vn -0.9191 0.1012 -0.3807
vn -0.0000 0.1012 0.9949
vn -0.3804 -0.1100 -0.9183
vn -0.7028 -0.1100 -0.7028
vn 0.9939 -0.1101 -0.0000
vn -0.9183 -0.1100 0.3804
vn 0.9191 0.1012 0.3807
vn -0.0000 0.1012 -0.9949
vn 0.9191 0.1012 -0.3807
vn 0.9949 0.1012 -0.0000
vn -0.0000 -0.1100 -0.9939
vn -0.9140 -0.1457 0.3786
vn -0.9893 -0.1457 -0.0000
vn -0.0000 -0.1457 -0.9893
vn 0.6996 -0.1457 0.6996
vn 0.3786 -0.1457 0.9140
vn 0.9140 -0.1457 -0.3786
vn -0.9140 -0.1457 -0.3786
vn -0.0000 -0.1457 0.9893
vn 0.9140 -0.1457 0.3786
vn 0.9893 -0.1457 -0.0000
vt 0.282266 0.809504
vt 0.289272 0.810898
vt 0.276326 0.805536
vt 0.272357 0.799596
vt 0.270964 0.792590
vt 0.272357 0.785583
vt 0.276326 0.779644
vt 0.282266 0.775675
vt 0.289272 0.774281
vt 0.296278 0.775675
vt 0.302218 0.779644
vt 0.306187 0.785583
vt 0.307580 0.792590
vt 0.306187 0.799596
vt 0.302218 0.805535
vt 0.296278 0.809504
vt 0.289272 0.812807
vt 0.297009 0.811268
vt 0.303568 0.806885
vt 0.307950 0.800326
vt 0.309489 0.792590
vt 0.307950 0.784853
vt 0.303568 0.778294
vt 0.297009 0.773911
vt 0.289272 0.772372
vt 0.281535 0.773911
vt 0.274976 0.778294
vt 0.270594 0.784853
vt 0.269055 0.792590
vt 0.270594 0.800326
vt 0.274976 0.806885
vt 0.281535 0.811268
vt 0.296278 0.809504
vt 0.302218 0.805535
vt 0.306187 0.799596
vt 0.307580 0.792590
vt 0.306187 0.785583
vt 0.302218 0.779644
vt 0.296278 0.775675
vt 0.289272 0.774281
vt 0.282266 0.775675
vt 0.276326 0.779644
vt 0.272357 0.785583
vt 0.270964 0.792590
vt 0.272357 0.799596
vt 0.276326 0.805536
vt 0.289272 0.810898
vt 0.282266 0.809504
vt 0.289272 0.812807
vt 0.297009 0.811268
vt 0.303568 0.806885
vt 0.307950 0.800326
vt 0.309489 0.792590
vt 0.307950 0.784853
vt 0.303568 0.778294
vt 0.297009 0.773911
vt 0.289272 0.772372
vt 0.281535 0.773911
vt 0.274976 0.778294
vt 0.270594 0.784853
vt 0.269055 0.792590
vt 0.270594 0.800326
vt 0.274976 0.806885
vt 0.281535 0.811268
vt 0.272357 0.799596
vt 0.272348 0.799600
vt 0.276326 0.779644
vt 0.276319 0.779637
vt 0.303568 0.806885
vt 0.303582 0.806899
vt 0.281535 0.811268
vt 0.281528 0.811286
vt 0.307968 0.784845
vt 0.307950 0.784853
vt 0.282266 0.775675
vt 0.282262 0.775666
vt 0.270964 0.792590
vt 0.270954 0.792590
vt 0.302225 0.805542
vt 0.302218 0.805535
vt 0.274976 0.778294
vt 0.274962 0.778280
vt 0.306196 0.785580
vt 0.306187 0.785583
vt 0.289272 0.772353
vt 0.289272 0.772372
vt 0.270576 0.800334
vt 0.270594 0.800326
vt 0.307580 0.792590
vt 0.307590 0.792590
vt 0.296278 0.809504
vt 0.296282 0.809513
vt 0.307968 0.800334
vt 0.307950 0.800326
vt 0.289272 0.812807
vt 0.289272 0.812826
vt 0.296282 0.775666
vt 0.296278 0.775675
vt 0.303582 0.778280
vt 0.303568 0.778294
vt 0.270576 0.784845
vt 0.270594 0.784853
vt 0.272348 0.785580
vt 0.272357 0.785583
vt 0.282266 0.809504
vt 0.282262 0.809513
vt 0.306187 0.799596
vt 0.306196 0.799600
vt 0.297016 0.811286
vt 0.297009 0.811268
vt 0.274962 0.806899
vt 0.274976 0.806885
vt 0.289272 0.810898
vt 0.289272 0.810908
vt 0.269055 0.792590
vt 0.269035 0.792590
vt 0.276319 0.805543
vt 0.276326 0.805536
vt 0.281528 0.773893
vt 0.281535 0.773911
vt 0.302218 0.779644
vt 0.302225 0.779637
vt 0.297009 0.773911
vt 0.297016 0.773893
vt 0.289272 0.774281
vt 0.289272 0.774272
vt 0.309489 0.792590
vt 0.309509 0.792590
vt 0.272357 0.799596
vt 0.276326 0.779644
vt 0.303568 0.806885
vt 0.281535 0.811268
vt 0.307950 0.784853
vt 0.282266 0.775675
vt 0.270964 0.792590
vt 0.302218 0.805535
vt 0.274976 0.778294
vt 0.306187 0.785583
vt 0.289272 0.772372
vt 0.270594 0.800326
vt 0.307580 0.792590
vt 0.296278 0.809504
vt 0.307950 0.800326
vt 0.289272 0.812807
vt 0.296278 0.775675
vt 0.303568 0.778294
vt 0.270594 0.784853
vt 0.272357 0.785583
vt 0.282266 0.809504
vt 0.306187 0.799596
vt 0.297009 0.811268
vt 0.274976 0.806885
vt 0.289272 0.810898
vt 0.269055 0.792590
vt 0.276326 0.805536
vt 0.281535 0.773911
vt 0.302218 0.779644
vt 0.297009 0.773911
vt 0.289272 0.774281
vt 0.309489 0.792590
vt 0.303568 0.806885
vt 0.303568 0.806885
vt 0.281535 0.811268
vt 0.281535 0.811268
vt 0.307950 0.784853
vt 0.307950 0.784853
vt 0.274976 0.778294
vt 0.274976 0.778294
vt 0.289272 0.772372
vt 0.289272 0.772372
vt 0.270594 0.800326
vt 0.270594 0.800326
vt 0.307950 0.800326
vt 0.307950 0.800326
vt 0.289272 0.812807
vt 0.289272 0.812807
vt 0.303568 0.778294
vt 0.303568 0.778294
vt 0.270594 0.784853
vt 0.270594 0.784853
vt 0.297009 0.811268
vt 0.297009 0.811268
vt 0.274976 0.806885
vt 0.274976 0.806885
vt 0.269055 0.792590
vt 0.269055 0.792590
vt 0.281535 0.773911
vt 0.281535 0.773911
vt 0.297009 0.773911
vt 0.297009 0.773911
vt 0.309489 0.792590
vt 0.309489 0.792590
s 1
usemtl Palette
f 9/9/1 10/10/2 145/145/3 159/159/4
s 0
f 2/2/5 16/16/5 18/18/5 17/17/5
f 16/16/5 15/15/5 19/19/5 18/18/5
f 15/15/5 14/14/5 20/20/5 19/19/5
f 14/14/5 13/13/5 21/21/5 20/20/5
f 13/13/5 12/12/5 22/22/5 21/21/5
f 12/12/5 11/11/5 23/23/5 22/22/5
f 11/11/5 10/10/5 24/24/5 23/23/5
f 10/10/5 9/9/5 25/25/5 24/24/5
f 9/9/5 8/8/5 26/26/5 25/25/5
f 8/8/5 7/7/5 27/27/5 26/26/5
f 7/7/5 6/6/5 28/28/5 27/27/5
f 6/6/5 5/5/5 29/29/5 28/28/5
f 5/5/5 4/4/5 30/30/5 29/29/5
f 4/4/5 3/3/5 31/31/5 30/30/5
f 3/3/5 1/1/5 32/32/5 31/31/5
f 1/1/5 2/2/5 17/17/5 32/32/5
s 1
f 119/119/6 82/82/7 59/59/8 58/58/9
f 46/46/10 45/45/11 44/44/12 43/43/13 42/42/14 41/41/15 40/40/16 39/39/17 38/38/18 37/37/19 36/36/20 35/35/21 34/34/22 33/33/23 47/47/24 48/48/25
f 67/67/26 130/130/27 134/134/28 75/75/29
f 117/117/30 66/66/31 45/45/11 46/46/10
f 79/79/32 92/92/33 33/33/23 34/34/22
f 85/85/34 119/119/6 58/58/9 57/57/35
f 15/15/36 16/16/37 142/142/38 136/136/39
f 7/7/40 8/8/41 134/134/28 130/130/27
f 114/114/42 106/106/43 48/48/25 47/47/24
f 11/11/44 12/12/45 138/138/46 157/157/47
f 14/14/48 15/15/36 136/136/39 150/150/49
f 20/20/50 21/21/51 160/160/52 143/143/53
f 109/109/54 70/70/55 51/51/56 50/50/57
f 1/1/58 3/3/59 155/155/60 149/149/61
f 5/5/62 6/6/63 148/148/64 135/135/65
f 16/16/37 2/2/66 153/153/67 142/142/38
f 8/8/41 9/9/1 159/159/4 134/134/28
f 13/13/68 14/14/48 150/150/49 141/141/69
f 73/73/70 99/99/71 55/55/72 54/54/73
f 29/29/74 30/30/75 140/140/76 154/154/77
f 146/146/78 158/158/79 189/189/80 178/178/81
f 183/183/82 164/164/83 71/71/84 112/112/85
f 111/111/86 72/72/87 64/64/88 63/63/89
f 181/181/90 162/162/91 69/69/92 110/110/93
f 81/81/94 120/120/95 187/187/96 168/168/97
f 10/10/2 11/11/44 157/157/47 145/145/3
s 0
f 49/49/98 50/50/98 51/51/98 52/52/98 53/53/98 54/54/98 55/55/98 56/56/98 57/57/98 58/58/98 59/59/98 60/60/98 61/61/98 62/62/98 63/63/98 64/64/98
s 1
f 17/17/99 18/18/100 151/151/101 144/144/102
f 22/22/103 23/23/104 146/146/78 133/133/105
f 12/12/45 13/13/68 141/141/69 138/138/46
f 84/84/106 138/138/46 141/141/69 89/89/107
f 25/25/108 26/26/109 156/156/110 139/139/111
f 132/132/112 144/144/102 175/175/113 163/163/114
f 160/160/52 133/133/105 166/166/115 191/191/116
f 19/19/117 20/20/50 143/143/53 131/131/118
f 105/105/119 149/149/61 155/155/60 118/118/120
f 30/30/75 31/31/121 152/152/122 140/140/76
f 28/28/123 29/29/74 154/154/77 147/147/124
f 103/103/125 68/68/126 42/42/14 43/43/13
f 143/143/53 160/160/52 191/191/116 174/174/127
f 80/80/128 136/136/39 142/142/38 91/91/129
f 21/21/51 22/22/103 133/133/105 160/160/52
f 144/144/102 151/151/101 182/182/130 175/175/113
f 27/27/131 28/28/123 147/147/124 137/137/132
f 23/23/104 24/24/133 158/158/79 146/146/78
f 140/140/76 152/152/122 184/184/134 172/172/135
f 147/147/124 154/154/77 185/185/136 180/180/137
f 158/158/79 139/139/111 170/170/138 189/189/80
f 24/24/133 25/25/108 139/139/111 158/158/79
f 133/133/105 146/146/78 178/178/81 166/166/115
f 139/139/111 156/156/110 188/188/139 170/170/138
f 32/32/140 17/17/99 144/144/102 132/132/112
f 137/137/132 147/147/124 180/180/137 167/167/141
f 92/92/33 114/114/42 47/47/24 33/33/23
f 101/101/142 116/116/143 61/61/144 60/60/145
f 72/72/87 96/96/146 49/49/147 64/64/88
f 82/82/7 101/101/142 60/60/145 59/59/8
f 66/66/31 78/78/148 44/44/12 45/45/11
f 83/83/149 90/90/150 36/36/20 37/37/19
f 68/68/126 76/76/151 41/41/15 42/42/14
f 99/99/71 124/124/152 56/56/153 55/55/72
f 70/70/55 93/93/154 52/52/155 51/51/56
f 6/6/63 7/7/40 130/130/27 148/148/64
f 106/106/43 117/117/30 46/46/10 48/48/25
f 2/2/66 1/1/58 149/149/61 153/153/67
f 87/87/156 111/111/86 63/63/89 62/62/157
f 154/154/77 140/140/76 172/172/135 185/185/136
f 97/97/158 122/122/159 38/38/18 39/39/17
f 3/3/59 4/4/160 129/129/161 155/155/60
f 90/90/150 108/108/162 35/35/21 36/36/20
f 31/31/121 32/32/140 132/132/112 152/152/122
f 93/93/154 128/128/163 53/53/164 52/52/155
f 108/108/162 79/79/32 34/34/22 35/35/21
f 76/76/151 126/126/165 40/40/16 41/41/15
f 126/126/165 97/97/158 39/39/17 40/40/16
f 116/116/143 87/87/156 62/62/157 61/61/144
f 96/96/146 109/109/54 50/50/57 49/49/147
f 26/26/109 27/27/131 137/137/132 156/156/110
f 122/122/159 83/83/149 37/37/19 38/38/18
f 78/78/148 103/103/125 43/43/13 44/44/12
f 128/128/163 73/73/70 54/54/73 53/53/164
f 124/124/152 85/85/34 57/57/35 56/56/153
f 18/18/100 19/19/117 131/131/118 151/151/101
f 131/131/118 143/143/53 174/174/127 161/161/166
f 92/92/33 79/79/32 80/80/128 91/91/129
f 114/114/42 92/92/33 91/91/129 113/113/167
f 116/116/143 101/101/142 102/102/168 115/115/169
f 72/72/87 111/111/86 112/112/85 71/71/84
f 82/82/7 119/119/6 120/120/95 81/81/94
f 66/66/31 117/117/30 118/118/120 65/65/170
f 90/90/150 83/83/149 84/84/106 89/89/107
f 68/68/126 103/103/125 104/104/171 67/67/26
f 124/124/152 99/99/71 100/100/172 123/123/173
f 70/70/55 109/109/54 110/110/93 69/69/92
f 76/76/151 68/68/126 67/67/26 75/75/29
f 106/106/43 114/114/42 113/113/167 105/105/119
f 117/117/30 106/106/43 105/105/119 118/118/120
f 111/111/86 87/87/156 88/88/174 112/112/85
f 119/119/6 85/85/34 86/86/175 120/120/95
f 122/122/159 97/97/158 98/98/176 121/121/177
f 78/78/148 66/66/31 65/65/170 77/77/178
f 108/108/162 90/90/150 89/89/107 107/107/179
f 99/99/71 73/73/70 74/74/180 100/100/172
f 96/96/146 72/72/87 71/71/84 95/95/181
f 128/128/163 93/93/154 94/94/182 127/127/183
f 79/79/32 108/108/162 107/107/179 80/80/128
f 126/126/165 76/76/151 75/75/29 125/125/184
f 97/97/158 126/126/165 125/125/184 98/98/176
f 87/87/156 116/116/143 115/115/169 88/88/174
f 109/109/54 96/96/146 95/95/181 110/110/93
f 101/101/142 82/82/7 81/81/94 102/102/168
f 83/83/149 122/122/159 121/121/177 84/84/106
f 103/103/125 78/78/148 77/77/178 104/104/171
f 73/73/70 128/128/163 127/127/183 74/74/180
f 85/85/34 124/124/152 123/123/173 86/86/175
f 93/93/154 70/70/55 69/69/92 94/94/182
f 4/4/160 5/5/62 135/135/65 129/129/161
f 91/91/129 142/142/38 153/153/67 113/113/167
f 118/118/120 155/155/60 129/129/161 65/65/170
f 115/115/169 102/102/168 179/179/185 186/186/186
f 164/164/83 176/176/187 95/95/181 71/71/84
f 102/102/168 81/81/94 168/168/97 179/179/185
f 89/89/107 141/141/69 150/150/49 107/107/179
f 104/104/171 148/148/64 130/130/27 67/67/26
f 113/113/167 153/153/67 149/149/61 105/105/119
f 123/123/173 100/100/172 177/177/188 190/190/189
f 162/162/91 173/173/190 94/94/182 69/69/92
f 98/98/176 145/145/3 157/157/47 121/121/177
f 171/171/191 183/183/82 112/112/85 88/88/174
f 120/120/95 86/86/175 169/169/192 187/187/96
f 129/129/161 135/135/65 77/77/178 65/65/170
f 107/107/179 150/150/49 136/136/39 80/80/128
f 100/100/172 74/74/180 165/165/193 177/177/188
f 152/152/122 132/132/112 163/163/114 184/184/134
f 173/173/190 192/192/194 127/127/183 94/94/182
f 75/75/29 134/134/28 159/159/4 125/125/184
f 125/125/184 159/159/4 145/145/3 98/98/176
f 121/121/177 157/157/47 138/138/46 84/84/106
f 186/186/186 171/171/191 88/88/174 115/115/169
f 176/176/187 181/181/90 110/110/93 95/95/181
f 156/156/110 137/137/132 167/167/141 188/188/139
f 77/77/178 135/135/65 148/148/64 104/104/171
f 74/74/180 127/127/183 192/192/194 165/165/193
f 86/86/175 123/123/173 190/190/189 169/169/192
f 151/151/101 131/131/118 161/161/166 182/182/130
f 186/186/186 179/179/185 180/180/137 185/185/136
f 164/164/83 183/183/82 184/184/134 163/163/114
f 168/168/97 187/187/96 188/188/139 167/167/141
f 190/190/189 177/177/188 178/178/81 189/189/80
f 162/162/91 181/181/90 182/182/130 161/161/166
f 183/183/82 171/171/191 172/172/135 184/184/134
f 187/187/96 169/169/192 170/170/138 188/188/139
f 177/177/188 165/165/193 166/166/115 178/178/81
f 176/176/187 164/164/83 163/163/114 175/175/113
f 192/192/194 173/173/190 174/174/127 191/191/116
f 171/171/191 186/186/186 185/185/136 172/172/135
f 181/181/90 176/176/187 175/175/113 182/182/130
f 179/179/185 168/168/97 167/167/141 180/180/137
f 165/165/193 192/192/194 191/191/116 166/166/115
f 169/169/192 190/190/189 189/189/80 170/170/138
f 173/173/190 162/162/91 161/161/166 174/174/127
