# Blender 3.4.1
# www.blender.org
mtllib Hair_Brush.mtl
o Hair_Brush
v 0.000001 0.007576 -0.014711
v 0.000001 -0.003466 -0.014711
v -0.012215 -0.003466 -0.009046
v -0.021157 -0.003466 0.006433
v -0.024431 -0.003466 0.027576
v -0.021157 -0.003466 0.048720
v -0.012215 -0.003466 0.064198
v 0.000001 -0.003466 0.069864
v 0.012217 -0.003466 0.064198
v 0.021159 -0.003466 0.048720
v 0.024433 -0.003466 0.027576
v 0.021159 -0.003466 0.006433
v 0.012217 -0.003466 -0.009046
v -0.012215 0.007576 -0.009046
v -0.021157 0.007576 0.006433
v -0.024431 0.007576 0.027576
v -0.021157 0.007576 0.048720
v -0.012215 0.007576 0.064198
v 0.000001 0.007576 0.069864
v 0.012217 0.007576 0.064198
v 0.021159 0.007576 0.048720
v 0.024433 0.007576 0.027576
v 0.021159 0.007576 0.006433
v 0.012217 0.007576 -0.009046
v 0.000001 0.021404 -0.011409
v -0.010297 0.021404 -0.006186
v -0.017836 0.021404 0.008084
v -0.020596 0.021404 0.027576
v -0.017836 0.021404 0.047069
v -0.010297 0.021404 0.061339
v 0.000001 0.021404 0.066562
v 0.010300 0.021404 0.061339
v 0.017839 0.021404 0.047069
v 0.020598 0.021404 0.027576
v 0.017839 0.021404 0.008084
v 0.010300 0.021404 -0.006186
v 0.000001 0.003328 -0.004378
v 0.008442 0.003328 -0.000097
v 0.014622 0.003328 0.011599
v 0.016884 0.003328 0.027576
v 0.014622 0.003328 0.043553
v 0.008442 0.003328 0.055250
v 0.000001 0.003328 0.059531
v -0.008440 0.003328 0.055250
v -0.014619 0.003328 0.043553
v -0.016881 0.003328 0.027576
v -0.014619 0.003328 0.011599
v -0.008440 0.003328 -0.000097
v -0.011114 0.005233 -0.151406
v -0.011114 -0.000040 -0.151406
v 0.011113 -0.000040 -0.151406
v 0.011113 0.005233 -0.151406
v -0.006633 0.006032 -0.007245
v 0.006633 0.006032 -0.007245
v -0.006633 -0.000839 -0.007245
v 0.006633 -0.000839 -0.007245
v -0.006633 -0.000839 -0.141087
v 0.006633 -0.000839 -0.141087
v -0.006633 0.006032 -0.141087
v 0.006633 0.006032 -0.141087
v -0.013122 0.007242 -0.151406
v 0.013122 0.007242 -0.151406
v -0.013122 -0.002049 -0.151406
v 0.013122 -0.002049 -0.151406
v -0.005956 0.005233 -0.156716
v 0.005955 0.005233 -0.156716
v -0.005956 -0.000040 -0.156716
v 0.005955 -0.000040 -0.156716
v -0.005036 -0.000579 -0.071251
v -0.005036 0.005772 -0.071251
v 0.005036 0.005772 -0.071251
v 0.005036 -0.000579 -0.071251
vn -0.5155 -0.6451 0.5640
vn -0.0000 -0.6235 0.7818
vn -0.0000 0.6235 0.7818
vn -0.5155 0.6451 0.5640
vn 0.5155 -0.6451 0.5640
vn 0.7019 -0.6679 0.2473
vn 0.7019 0.6679 0.2473
vn 0.5155 0.6451 0.5640
vn -0.7385 -0.6742 -0.0000
vn -0.7019 -0.6679 0.2473
vn -0.7019 0.6679 0.2473
vn -0.7385 0.6742 -0.0000
vn -0.0000 -0.6235 -0.7818
vn -0.5155 -0.6451 -0.5640
vn -0.5155 0.6451 -0.5640
vn -0.0000 0.6235 -0.7818
vn 0.7385 -0.6742 -0.0000
vn 0.7385 0.6742 -0.0000
vn -0.7019 -0.6679 -0.2473
vn -0.7019 0.6679 -0.2473
vn 0.5155 -0.6451 -0.5640
vn 0.5155 0.6451 -0.5640
vn 0.7019 -0.6679 -0.2473
vn 0.7019 0.6679 -0.2473
vn -0.0000 1.0000 -0.0000
vn -0.0000 -1.0000 -0.0000
vn -0.9702 -0.1994 0.1374
vn 0.4273 -0.3278 0.8426
vn 0.9702 -0.1994 -0.1374
vn -0.9702 -0.1994 -0.1374
vn -0.4273 -0.3278 0.8426
vn 0.9702 -0.1994 0.1374
vn -0.8581 -0.2409 -0.4534
vn 0.4273 -0.3278 -0.8426
vn -0.8581 -0.2409 0.4534
vn 0.8581 -0.2409 0.4534
vn -0.4273 -0.3278 -0.8426
vn 0.8581 -0.2409 -0.4534
vn 0.7173 -0.0000 -0.6967
vn -0.0000 -1.0000 -0.0041
vn -0.9997 -0.0000 -0.0249
vn -0.0000 1.0000 -0.0041
vn 0.9997 -0.0000 -0.0249
vn 0.8465 -0.0000 0.5324
vn -0.0000 0.9932 0.1165
vn -0.8465 -0.0000 0.5324
vn -0.0000 -0.9932 0.1165
vn -0.0000 -0.0000 -1.0000
vn -0.7173 -0.0000 -0.6967
vn 0.9997 -0.0000 0.0229
vn -0.0000 1.0000 0.0037
vn -0.9997 -0.0000 0.0229
vn -0.0000 -1.0000 0.0037
vt 0.791109 0.989711
vt 0.791109 0.989711
vt 0.778609 0.986362
vt 0.769458 0.977211
vt 0.766109 0.964711
vt 0.769458 0.952211
vt 0.778609 0.943060
vt 0.791109 0.939711
vt 0.803609 0.943060
vt 0.812759 0.952211
vt 0.816109 0.964711
vt 0.812759 0.977211
vt 0.803609 0.986362
vt 0.778609 0.986362
vt 0.769458 0.977211
vt 0.766109 0.964711
vt 0.769458 0.952211
vt 0.778609 0.943060
vt 0.791109 0.939711
vt 0.803609 0.943060
vt 0.812759 0.952211
vt 0.816109 0.964711
vt 0.812759 0.977211
vt 0.803609 0.986362
vt 0.040365 0.904640
vt 0.027865 0.901290
vt 0.018714 0.892140
vt 0.015365 0.879640
vt 0.018714 0.867140
vt 0.027865 0.857989
vt 0.040365 0.854640
vt 0.052865 0.857989
vt 0.062015 0.867140
vt 0.065365 0.879640
vt 0.062015 0.892140
vt 0.052865 0.901290
vt 0.040365 0.904640
vt 0.052865 0.901290
vt 0.062015 0.892140
vt 0.065365 0.879640
vt 0.062015 0.867140
vt 0.052865 0.857989
vt 0.040365 0.854640
vt 0.027865 0.857989
vt 0.018714 0.867140
vt 0.015365 0.879640
vt 0.018714 0.892140
vt 0.027865 0.901290
vt 0.792066 0.989454
vt 0.792066 0.989454
vt 0.802652 0.986618
vt 0.802652 0.986618
vt 0.791109 0.989711
vt 0.803609 0.986362
vt 0.791109 0.989711
vt 0.803609 0.986362
vt 0.791109 0.989711
vt 0.803609 0.986362
vt 0.791109 0.989711
vt 0.803609 0.986362
vt 0.791109 0.989711
vt 0.803609 0.986362
vt 0.791109 0.989711
vt 0.803609 0.986362
vt 0.792066 0.989454
vt 0.802652 0.986618
vt 0.792066 0.989454
vt 0.802652 0.986618
vt 0.791109 0.989711
vt 0.791109 0.989711
vt 0.803609 0.986362
vt 0.803609 0.986362
s 1
usemtl Palette
f 7/7/1 8/8/2 19/19/3 18/18/4
f 9/9/5 10/10/6 21/21/7 20/20/8
f 5/5/9 6/6/10 17/17/11 16/16/12
f 2/2/13 3/3/14 14/14/15 1/1/16
f 10/10/6 11/11/17 22/22/18 21/21/7
f 3/3/14 4/4/19 15/15/20 14/14/15
f 8/8/2 9/9/5 20/20/8 19/19/3
f 13/13/21 2/2/13 1/1/16 24/24/22
f 6/6/10 7/7/1 18/18/4 17/17/11
f 11/11/17 12/12/23 23/23/24 22/22/18
s 0
f 1/1/25 14/14/25 15/15/25 16/16/25 17/17/25 18/18/25 19/19/25 20/20/25 21/21/25 22/22/25 23/23/25 24/24/25
s 1
f 12/12/23 13/13/21 24/24/22 23/23/24
s 0
f 2/2/26 13/13/26 12/12/26 11/11/26 10/10/26 9/9/26 8/8/26 7/7/26 6/6/26 5/5/26 4/4/26 3/3/26
s 1
f 4/4/19 5/5/9 16/16/12 15/15/20
s 0
f 25/25/25 26/26/25 27/27/25 28/28/25 29/29/25 30/30/25 31/31/25 32/32/25 33/33/25 34/34/25 35/35/25 36/36/25
f 28/28/27 46/46/27 45/45/27 29/29/27
f 31/31/28 43/43/28 42/42/28 32/32/28
f 34/34/29 40/40/29 39/39/29 35/35/29
f 27/27/30 47/47/30 46/46/30 28/28/30
f 30/30/31 44/44/31 43/43/31 31/31/31
f 33/33/32 41/41/32 40/40/32 34/34/32
f 26/26/33 48/48/33 47/47/33 27/27/33
f 36/36/34 38/38/34 37/37/34 25/25/34
f 29/29/35 45/45/35 44/44/35 30/30/35
f 32/32/36 42/42/36 41/41/36 33/33/36
f 25/25/37 37/37/37 48/48/37 26/26/37
f 35/35/38 39/39/38 38/38/38 36/36/38
f 51/51/39 68/68/39 66/66/39 52/52/39
f 72/72/40 56/56/40 55/55/40 69/69/40
f 69/69/41 55/55/41 53/53/41 70/70/41
f 70/70/42 53/53/42 54/54/42 71/71/42
f 71/71/43 54/54/43 56/56/43 72/72/43
f 62/62/44 60/60/44 58/58/44 64/64/44
f 61/61/45 59/59/45 60/60/45 62/62/45
f 63/63/46 57/57/46 59/59/46 61/61/46
f 64/64/47 58/58/47 57/57/47 63/63/47
f 49/49/48 61/61/48 62/62/48 52/52/48
f 51/51/48 64/64/48 63/63/48 50/50/48
f 50/50/48 63/63/48 61/61/48 49/49/48
f 52/52/48 62/62/48 64/64/48 51/51/48
f 68/68/48 67/67/48 65/65/48 66/66/48
f 50/50/26 67/67/26 68/68/26 51/51/26
f 49/49/49 65/65/49 67/67/49 50/50/49
f 52/52/25 66/66/25 65/65/25 49/49/25
f 60/60/50 71/71/50 72/72/50 58/58/50
f 59/59/51 70/70/51 71/71/51 60/60/51
f 57/57/52 69/69/52 70/70/52 59/59/52
f 58/58/53 72/72/53 69/69/53 57/57/53
