# Blender 3.4.1
# www.blender.org
mtllib Kitchen_Knob_001.mtl
o Kitchen_Knob.001
v 0.000001 -0.016760 -0.038780
v -0.019390 -0.016760 -0.033585
v -0.033584 -0.016760 -0.019390
v -0.038780 -0.016760 0.000000
v -0.033584 -0.016760 0.019390
v -0.019390 -0.016760 0.033585
v 0.000001 -0.016760 0.038780
v 0.019391 -0.016760 0.033585
v 0.033585 -0.016760 0.019390
v 0.038781 -0.016760 -0.000000
v 0.033585 -0.016760 -0.019390
v 0.019391 -0.016760 -0.033585
v -0.019390 0.026929 -0.033585
v -0.016339 0.032822 -0.028301
v 0.000001 0.032822 -0.032679
v 0.000001 0.026929 -0.038780
v -0.033584 0.026929 -0.019390
v -0.028301 0.032822 -0.016340
v -0.038780 0.026929 0.000000
v -0.032679 0.032822 0.000000
v -0.033584 0.026929 0.019390
v -0.028301 0.032822 0.016340
v -0.019390 0.026929 0.033585
v -0.016339 0.032822 0.028301
v 0.000001 0.026929 0.038780
v 0.000001 0.032822 0.032679
v 0.019391 0.026929 0.033585
v 0.016340 0.032822 0.028301
v 0.033585 0.026929 0.019390
v 0.028302 0.032822 0.016340
v 0.038781 0.026929 -0.000000
v 0.032680 0.032822 -0.000000
v 0.033585 0.026929 -0.019390
v 0.028302 0.032822 -0.016340
v 0.019391 0.026929 -0.033585
v 0.016340 0.032822 -0.028301
v -0.009353 0.025010 -0.029523
v -0.009353 0.025010 0.029523
v 0.009352 0.025010 0.029523
v 0.009352 0.025010 -0.029523
v -0.005370 0.054472 0.000000
v 0.005370 0.054472 0.000000
v -0.005370 0.027015 0.000000
v 0.005370 0.027015 0.000000
v -0.008694 0.056476 0.023435
v -0.009353 0.050388 0.029523
v 0.009352 0.050388 0.029523
v 0.008693 0.056476 0.023435
v -0.009353 0.050388 -0.029523
v -0.008694 0.056476 -0.023435
v 0.008693 0.056476 -0.023435
v 0.009352 0.050388 -0.029523
vn -0.0000 -1.0000 -0.0000
vn -0.3786 -0.6532 -0.6557
vn -0.6557 -0.6532 -0.3786
vn -0.8048 0.3692 -0.4647
vn -0.4647 0.3692 -0.8048
vn 0.7572 -0.6532 -0.0000
vn 0.6557 -0.6532 -0.3786
vn 0.8048 0.3692 -0.4647
vn 0.9293 0.3692 -0.0000
vn -0.0000 -0.6532 0.7572
vn 0.3786 -0.6532 0.6557
vn 0.4647 0.3692 0.8048
vn -0.0000 0.3692 0.9293
vn -0.7572 -0.6532 -0.0000
vn -0.6557 -0.6532 0.3786
vn -0.8048 0.3692 0.4647
vn -0.9293 0.3692 -0.0000
vn 0.3786 -0.6532 -0.6557
vn 0.4647 0.3692 -0.8048
vn 0.6557 -0.6532 0.3786
vn 0.8048 0.3692 0.4647
vn -0.3786 -0.6532 0.6557
vn -0.4647 0.3692 0.8048
vn -0.2129 0.9049 -0.3687
vn -0.3687 0.9049 -0.2129
vn -0.4257 0.9049 -0.0000
vn -0.3687 0.9049 0.2129
vn -0.2129 0.9049 0.3687
vn -0.0000 0.9049 0.4257
vn 0.2129 0.9049 0.3687
vn 0.3687 0.9049 0.2129
vn 0.4257 0.9049 -0.0000
vn 0.3687 0.9049 -0.2129
vn 0.2129 0.9049 -0.3687
vn -0.0000 0.9049 -0.4257
vn -0.0000 -0.6532 -0.7572
vn -0.0000 0.3692 -0.9293
vn 0.9910 -0.0028 0.1341
vn -0.0000 0.9964 0.0852
vn -0.9910 -0.0028 0.1341
vn -0.9910 -0.0028 -0.1341
vn 0.9910 -0.0028 -0.1341
vn -0.0000 -0.0000 -1.0000
vn -0.0000 -0.0000 1.0000
vn -0.0000 0.7071 0.7071
vn -0.0000 0.7071 -0.7071
vn -0.0000 0.9964 -0.0852
vt 0.286430 0.780488
vt 0.286430 0.780488
vt 0.286430 0.780488
vt 0.286430 0.780488
vt 0.286430 0.780488
vt 0.286430 0.780488
vt 0.286430 0.780488
vt 0.286430 0.780488
vt 0.286430 0.780488
vt 0.286430 0.780488
vt 0.286430 0.780488
vt 0.286430 0.780488
vt 0.286430 0.780488
vt 0.286430 0.780487
vt 0.286430 0.780488
vt 0.286430 0.780488
vt 0.286430 0.780488
vt 0.286429 0.780488
vt 0.286430 0.780488
vt 0.286429 0.780488
vt 0.286430 0.780488
vt 0.286429 0.780487
vt 0.286430 0.780488
vt 0.286429 0.780488
vt 0.286430 0.780488
vt 0.286429 0.780488
vt 0.286430 0.780488
vt 0.286429 0.780488
vt 0.286430 0.780488
vt 0.286430 0.780488
vt 0.286430 0.780488
vt 0.286429 0.780488
vt 0.286430 0.780488
vt 0.286430 0.780488
vt 0.286430 0.780488
vt 0.286430 0.780488
vt 0.267434 0.819759
vt 0.267434 0.769759
vt 0.317434 0.769759
vt 0.317434 0.819759
vt 0.267434 0.794759
vt 0.317434 0.794759
vt 0.267434 0.794759
vt 0.317434 0.794759
vt 0.267434 0.774915
vt 0.267434 0.769759
vt 0.317434 0.769759
vt 0.317434 0.774915
vt 0.267434 0.819759
vt 0.267434 0.814604
vt 0.317434 0.814604
vt 0.317434 0.819759
s 0
usemtl Palette
f 2/2/1 1/1/1 12/12/1 11/11/1 10/10/1 9/9/1 8/8/1 7/7/1 6/6/1 5/5/1 4/4/1 3/3/1
s 1
f 2/2/2 3/3/3 17/17/4 13/13/5
f 10/10/6 11/11/7 33/33/8 31/31/9
f 7/7/10 8/8/11 27/27/12 25/25/13
f 4/4/14 5/5/15 21/21/16 19/19/17
f 11/11/7 12/12/18 35/35/19 33/33/8
f 8/8/11 9/9/20 29/29/21 27/27/12
f 5/5/15 6/6/22 23/23/23 21/21/16
f 14/14/24 18/18/25 20/20/26 22/22/27 24/24/28 26/26/29 28/28/30 30/30/31 32/32/32 34/34/33 36/36/34 15/15/35
f 9/9/20 10/10/6 31/31/9 29/29/21
f 6/6/22 7/7/10 25/25/13 23/23/23
f 3/3/3 4/4/14 19/19/17 17/17/4
f 12/12/18 1/1/36 16/16/37 35/35/19
f 14/14/24 15/15/35 16/16/37 13/13/5
f 18/18/25 14/14/24 13/13/5 17/17/4
f 20/20/26 18/18/25 17/17/4 19/19/17
f 22/22/27 20/20/26 19/19/17 21/21/16
f 24/24/28 22/22/27 21/21/16 23/23/23
f 26/26/29 24/24/28 23/23/23 25/25/13
f 28/28/30 26/26/29 25/25/13 27/27/12
f 30/30/31 28/28/30 27/27/12 29/29/21
f 32/32/32 30/30/31 29/29/21 31/31/9
f 34/34/33 32/32/32 31/31/9 33/33/8
f 36/36/34 34/34/33 33/33/8 35/35/19
f 15/15/35 36/36/34 35/35/19 16/16/37
f 1/1/36 2/2/2 13/13/5 16/16/37
s 0
f 42/42/38 44/44/38 40/40/38 52/52/38 51/51/38
f 41/41/39 42/42/39 51/51/39 50/50/39
f 49/49/40 37/37/40 43/43/40 41/41/40 50/50/40
f 41/41/41 43/43/41 38/38/41 46/46/41 45/45/41
f 47/47/42 39/39/42 44/44/42 42/42/42 48/48/42
f 52/52/43 40/40/43 37/37/43 49/49/43
f 46/46/44 38/38/44 39/39/44 47/47/44
f 45/45/45 46/46/45 47/47/45 48/48/45
f 51/51/46 52/52/46 49/49/46 50/50/46
f 45/45/47 48/48/47 42/42/47 41/41/47
