# Blender 3.4.1
# www.blender.org
mtllib Knife__Big_.mtl
o Knife_(Big)
v 0.015390 0.001282 -0.105311
v 0.015390 0.001282 -0.007016
v -0.026294 0.001282 -0.007016
v -0.026294 0.001282 -0.238026
v -0.026294 -0.001282 -0.238026
v -0.026294 -0.001282 -0.007016
v 0.015390 -0.001282 -0.007016
v 0.015390 -0.001282 -0.105311
v -0.023713 -0.004355 -0.012829
v 0.011541 -0.004355 -0.012829
v 0.015390 0.001282 -0.120025
v -0.023354 0.001282 -0.234616
v 0.013493 0.001282 -0.143744
v 0.007990 0.001282 -0.169542
v -0.000581 0.001282 -0.194893
v -0.011382 0.001282 -0.217316
v -0.023354 -0.001282 -0.234616
v 0.015390 -0.001282 -0.120025
v -0.011382 -0.001282 -0.217316
v -0.000581 -0.001282 -0.194893
v 0.007990 -0.001282 -0.169542
v 0.013493 -0.001282 -0.143744
v 0.001186 -0.004355 0.058223
v 0.011541 0.004355 -0.012829
v -0.023713 0.004355 -0.012829
v 0.001186 0.004355 0.058223
v 0.004987 0.004355 0.016650
v 0.004987 0.004355 0.045680
v 0.006584 0.004355 0.031926
v 0.004987 -0.004355 0.097099
v 0.004987 -0.004355 0.070575
v 0.006584 -0.004355 0.083430
v 0.004987 -0.004355 0.045680
v 0.004987 -0.004355 0.016650
v 0.006584 -0.004355 0.031926
v 0.004987 0.004355 0.070575
v 0.004987 0.004355 0.097099
v 0.006584 0.004355 0.083430
v -0.023713 -0.004355 0.109496
v -0.021429 -0.004355 0.111962
v -0.001099 -0.004355 0.111962
v 0.001770 -0.004355 0.109592
v 0.001770 0.004355 0.109592
v -0.001099 0.004355 0.111962
v -0.021429 0.004355 0.111962
v -0.023713 0.004355 0.109496
v 0.011148 -0.006411 -0.010629
v -0.021467 -0.006411 -0.010629
v 0.011148 0.006411 -0.010629
v -0.021467 0.006411 -0.010629
v 0.005620 -0.006411 0.082782
v 0.004192 -0.006411 0.095989
v 0.004192 0.006411 0.095989
v 0.005620 0.006411 0.082782
v 0.004192 -0.006411 0.070319
v 0.004192 0.006411 0.070319
v 0.005620 -0.006411 0.033006
v 0.004192 -0.006411 0.046200
v 0.004192 0.006411 0.046200
v 0.005620 0.006411 0.033006
v 0.004192 -0.006411 0.018374
v 0.004192 0.006411 0.018374
v 0.000794 0.006411 0.058336
v 0.000794 -0.006411 0.058336
v -0.019424 -0.006411 0.110329
v -0.021467 -0.006411 0.107931
v -0.021467 0.006411 0.107931
v -0.019424 0.006411 0.110329
v -0.001249 0.006411 0.110329
v 0.001316 0.006411 0.108023
v 0.001316 -0.006411 0.108023
v -0.001249 -0.006411 0.110329
vn -0.0000 1.0000 -0.0000
vn -0.2919 -0.5451 -0.7859
vn -0.5774 -0.5774 0.5774
vn -0.5774 0.5774 0.5774
vn -0.2919 0.5451 -0.7859
vn 0.5774 -0.5774 0.5774
vn 0.7071 -0.7071 -0.0000
vn 0.7071 0.7071 -0.0000
vn 0.5774 0.5774 0.5774
vn -0.0000 -1.0000 -0.0000
vn -0.0000 -0.0000 1.0000
vn 0.9558 -0.0000 -0.2941
vn 0.7153 -0.6982 -0.0285
vn 0.7153 0.6982 -0.0285
vn 0.5684 -0.6954 -0.4397
vn 0.5684 0.6954 -0.4397
vn 0.6256 0.6899 -0.3642
vn 0.6256 -0.6899 -0.3642
vn 0.6670 0.6935 -0.2722
vn 0.6670 -0.6935 -0.2722
vn 0.6940 0.6943 -0.1906
vn 0.6940 -0.6943 -0.1906
vn 0.7136 0.6927 -0.1042
vn 0.7136 -0.6927 -0.1042
vn 0.9570 -0.0000 0.2900
vn -0.0000 -0.0000 -1.0000
vn 0.9684 -0.0000 0.2493
vn 0.8983 0.4277 0.1011
vn -1.0000 -0.0000 -0.0000
vn 0.9932 -0.0000 0.1161
vn 0.9924 -0.0000 -0.1233
vn 0.9933 -0.0000 0.1154
vn 0.9946 -0.0000 -0.1040
vn 0.9762 -0.0000 0.2170
vn -0.7337 -0.0000 0.6795
vn 0.6368 -0.0000 0.7710
vn 0.5378 0.5659 0.6250
vn 0.9265 0.2580 -0.2741
vn -0.0000 0.6220 0.7830
vn 0.9347 -0.2280 0.2726
vn 0.8844 0.4119 0.2197
vn -0.0000 0.7307 -0.6827
vn 0.8919 -0.4432 -0.0902
vn 0.5378 -0.5659 0.6250
vn 0.9223 -0.3705 -0.1102
vn 0.9265 -0.2580 -0.2741
vn -0.0000 -0.7307 -0.6827
vn 0.8919 0.4432 -0.0902
vn 0.9223 0.3704 -0.1102
vn -0.4579 -0.7902 0.4073
vn -0.6751 -0.7377 -0.0000
vn 0.9722 -0.0664 0.2246
vn -0.0000 -0.6221 0.7830
vn 0.9284 -0.3567 0.1042
vn -0.4579 0.7902 0.4073
vn 0.8983 -0.4277 0.1011
vn 0.9722 0.0664 0.2246
vn 0.8844 -0.4119 0.2196
vn 0.9347 0.2280 0.2726
vn -0.6751 0.7377 -0.0000
vn 0.9284 0.3567 0.1042
vt 0.132199 0.887599
vt 0.132199 0.873149
vt 0.125110 0.873150
vt 0.125110 0.901767
vt 0.125110 0.901767
vt 0.125110 0.873150
vt 0.132199 0.873149
vt 0.132199 0.887599
vt 0.126081 0.965896
vt 0.126081 0.965896
vt 0.132199 0.889422
vt 0.125610 0.901505
vt 0.132091 0.892324
vt 0.131779 0.895418
vt 0.130024 0.898637
vt 0.127785 0.900223
vt 0.125610 0.901505
vt 0.132199 0.889422
vt 0.127785 0.900223
vt 0.130024 0.898637
vt 0.131779 0.895418
vt 0.132091 0.892324
vt 0.126081 0.965896
vt 0.126081 0.965896
vt 0.126081 0.965896
vt 0.126081 0.965896
vt 0.126081 0.965896
vt 0.126081 0.965896
vt 0.126081 0.965896
vt 0.126081 0.965896
vt 0.126081 0.965896
vt 0.126081 0.965896
vt 0.126081 0.965896
vt 0.126081 0.965896
vt 0.126081 0.965896
vt 0.126081 0.965896
vt 0.126081 0.965896
vt 0.126081 0.965896
vt 0.126081 0.965896
vt 0.126081 0.965896
vt 0.126081 0.965896
vt 0.126081 0.965896
vt 0.126081 0.965896
vt 0.126081 0.965896
vt 0.126081 0.965896
vt 0.126081 0.965896
vt 0.126081 0.965896
vt 0.126081 0.965896
vt 0.126081 0.965896
vt 0.126081 0.965896
vt 0.126081 0.965896
vt 0.126081 0.965896
vt 0.126081 0.965896
vt 0.126081 0.965896
vt 0.126081 0.965896
vt 0.126081 0.965896
vt 0.126081 0.965896
vt 0.126081 0.965896
vt 0.126081 0.965896
vt 0.126081 0.965896
vt 0.126081 0.965896
vt 0.126081 0.965896
vt 0.126081 0.965896
vt 0.126081 0.965896
vt 0.126081 0.965896
vt 0.126081 0.965896
vt 0.126081 0.965896
vt 0.126081 0.965896
vt 0.126081 0.965896
vt 0.126081 0.965896
vt 0.126081 0.965896
vt 0.126081 0.965896
s 0
usemtl Palette
f 4/4/1 3/3/1 2/2/1 1/1/1 11/11/1 13/13/1 14/14/1 15/15/1 16/16/1 12/12/1
s 1
f 5/5/2 6/6/3 3/3/4 4/4/5
f 7/7/6 8/8/7 1/1/8 2/2/9
s 0
f 5/5/10 17/17/10 19/19/10 20/20/10 21/21/10 22/22/10 18/18/10 8/8/10 7/7/10 6/6/10
f 6/6/11 7/7/11 2/2/11 3/3/11
f 23/23/12 26/26/12 36/36/12 31/31/12
s 1
f 8/8/7 18/18/13 11/11/14 1/1/8
f 17/17/15 12/12/16 16/16/17 19/19/18
f 19/19/18 16/16/17 15/15/19 20/20/20
f 20/20/20 15/15/19 14/14/21 21/21/22
f 21/21/22 14/14/21 13/13/23 22/22/24
f 22/22/24 13/13/23 11/11/14 18/18/13
f 17/17/15 5/5/2 4/4/5 12/12/16
s 0
f 33/33/25 28/28/25 26/26/25 23/23/25
f 9/9/26 25/25/26 24/24/26 10/10/26
f 30/30/27 37/37/27 43/43/27 42/42/27
f 41/41/11 44/44/11 45/45/11 40/40/11
f 38/38/28 54/54/28 53/53/28 37/37/28
f 39/39/29 46/46/29 25/25/29 9/9/29
f 30/30/30 32/32/30 38/38/30 37/37/30
f 32/32/31 31/31/31 36/36/31 38/38/31
f 33/33/32 35/35/32 29/29/32 28/28/32
f 35/35/33 34/34/33 27/27/33 29/29/33
f 10/10/34 24/24/34 27/27/34 34/34/34
f 39/39/35 40/40/35 45/45/35 46/46/35
f 43/43/36 44/44/36 41/41/36 42/42/36
f 43/43/37 70/70/37 69/69/37 44/44/37
f 68/68/1 69/69/1 70/70/1 53/53/1 54/54/1 56/56/1 63/63/1 59/59/1 60/60/1 62/62/1 49/49/1 50/50/1 67/67/1
f 66/66/10 48/48/10 47/47/10 61/61/10 57/57/10 58/58/10 64/64/10 55/55/10 51/51/10 52/52/10 71/71/10 72/72/10 65/65/10
f 26/26/38 63/63/38 56/56/38 36/36/38
f 44/44/39 69/69/39 68/68/39 45/45/39
f 23/23/40 64/64/40 58/58/40 33/33/40
f 37/37/41 53/53/41 70/70/41 43/43/41
f 25/25/42 50/50/42 49/49/42 24/24/42
f 35/35/43 57/57/43 61/61/43 34/34/43
f 41/41/44 72/72/44 71/71/44 42/42/44
f 32/32/45 51/51/45 55/55/45 31/31/45
f 31/31/46 55/55/46 64/64/46 23/23/46
f 10/10/47 47/47/47 48/48/47 9/9/47
f 27/27/48 62/62/48 60/60/48 29/29/48
f 36/36/49 56/56/49 54/54/49 38/38/49
f 39/39/50 66/66/50 65/65/50 40/40/50
f 9/9/51 48/48/51 66/66/51 39/39/51
f 34/34/52 61/61/52 47/47/52 10/10/52
f 40/40/53 65/65/53 72/72/53 41/41/53
f 33/33/54 58/58/54 57/57/54 35/35/54
f 45/45/55 68/68/55 67/67/55 46/46/55
f 30/30/56 52/52/56 51/51/56 32/32/56
f 24/24/57 49/49/57 62/62/57 27/27/57
f 42/42/58 71/71/58 52/52/58 30/30/58
f 28/28/59 59/59/59 63/63/59 26/26/59
f 46/46/60 67/67/60 50/50/60 25/25/60
f 29/29/61 60/60/61 59/59/61 28/28/61
