# Blender 3.4.1
# www.blender.org
mtllib Ladder_1_Base.mtl
o Ladder_1_Base
v 0.169067 0.121875 0.020105
v 0.169067 0.121875 -0.020105
v 0.224124 0.008930 0.030546
v 0.224124 0.008930 -0.030546
v 0.165640 0.008930 0.030546
v 0.165640 0.008930 -0.030546
v 0.224124 1.500000 0.030546
v 0.165640 1.500000 0.030546
v 0.224124 1.500000 -0.030546
v 0.165640 1.500000 -0.030546
v 0.169067 0.178125 0.020105
v 0.169067 0.178125 -0.020105
v 0.169067 0.421875 0.020105
v 0.169067 0.421875 -0.020105
v 0.169067 0.478125 0.020105
v 0.169067 0.478125 -0.020105
v 0.169067 0.721875 0.020105
v 0.169067 0.721875 -0.020105
v 0.169067 0.778125 0.020105
v 0.169067 0.778125 -0.020105
v 0.169067 1.021875 0.020105
v 0.169067 1.021875 -0.020105
v 0.169067 1.078125 0.020105
v 0.169067 1.078125 -0.020105
v 0.169067 1.321875 0.020105
v 0.169067 1.321875 -0.020105
v 0.169067 1.378125 0.020105
v 0.169067 1.378125 -0.020105
v 0.234301 0.000000 0.041177
v 0.234301 0.000000 -0.041177
v 0.155463 0.000000 0.041177
v 0.155463 0.000000 -0.041177
v 0.234301 0.069418 0.041177
v 0.155463 0.069418 0.041177
v 0.234301 0.069418 -0.041177
v 0.155463 0.069418 -0.041177
v -0.169067 0.121875 0.020105
v -0.169067 0.121875 -0.020105
v -0.224124 0.008930 0.030546
v -0.224124 0.008930 -0.030546
v -0.165640 0.008930 0.030546
v -0.165640 0.008930 -0.030546
v -0.224124 1.500000 0.030546
v -0.165640 1.500000 0.030546
v -0.224124 1.500000 -0.030546
v -0.165640 1.500000 -0.030546
v -0.169067 0.178125 0.020105
v -0.169067 0.178125 -0.020105
v -0.169067 0.421875 0.020105
v -0.169067 0.421875 -0.020105
v -0.169067 0.478125 0.020105
v -0.169067 0.478125 -0.020105
v -0.169067 0.721875 0.020105
v -0.169067 0.721875 -0.020105
v -0.169067 0.778125 0.020105
v -0.169067 0.778125 -0.020105
v -0.169067 1.021875 0.020105
v -0.169067 1.021875 -0.020105
v -0.169067 1.078125 0.020105
v -0.169067 1.078125 -0.020105
v -0.169067 1.321875 0.020105
v -0.169067 1.321875 -0.020105
v -0.169067 1.378125 0.020105
v -0.169067 1.378125 -0.020105
v -0.234301 0.000000 0.041177
v -0.234301 0.000000 -0.041177
v -0.155463 0.000000 0.041177
v -0.155463 0.000000 -0.041177
v -0.234301 0.069418 0.041177
v -0.155463 0.069418 0.041177
v -0.234301 0.069418 -0.041177
v -0.155463 0.069418 -0.041177
vn -0.0000 1.0000 -0.0000
vn -0.0000 -0.0000 -1.0000
vn -0.0000 -0.0000 1.0000
vn -1.0000 -0.0000 -0.0000
vn 1.0000 -0.0000 -0.0000
vn -0.0000 -1.0000 -0.0000
vt 0.383092 0.778801
vt 0.383092 0.809389
vt 0.383092 0.778801
vt 0.383092 0.809389
vt 0.367797 0.778801
vt 0.367797 0.809389
vt 0.383092 0.778801
vt 0.367797 0.778801
vt 0.383092 0.809389
vt 0.367797 0.809389
vt 0.383092 0.778801
vt 0.383092 0.809389
vt 0.383092 0.778801
vt 0.383092 0.809389
vt 0.383092 0.778801
vt 0.383092 0.809389
vt 0.383092 0.778801
vt 0.383092 0.809389
vt 0.383092 0.778801
vt 0.383092 0.809389
vt 0.383092 0.778801
vt 0.383092 0.809389
vt 0.383092 0.778801
vt 0.383092 0.809389
vt 0.383092 0.778801
vt 0.383092 0.809389
vt 0.383092 0.778801
vt 0.383092 0.809389
vt 0.219721 0.869554
vt 0.219721 0.900142
vt 0.204427 0.869554
vt 0.204427 0.900142
vt 0.219721 0.869554
vt 0.204427 0.869554
vt 0.219721 0.900142
vt 0.204427 0.900142
vt 0.383092 0.778801
vt 0.383092 0.809389
vt 0.383092 0.778801
vt 0.383092 0.809389
vt 0.367797 0.778801
vt 0.367797 0.809389
vt 0.383092 0.778801
vt 0.367797 0.778801
vt 0.383092 0.809389
vt 0.367797 0.809389
vt 0.383092 0.778801
vt 0.383092 0.809389
vt 0.383092 0.778801
vt 0.383092 0.809389
vt 0.383092 0.778801
vt 0.383092 0.809389
vt 0.383092 0.778801
vt 0.383092 0.809389
vt 0.383092 0.778801
vt 0.383092 0.809389
vt 0.383092 0.778801
vt 0.383092 0.809389
vt 0.383092 0.778801
vt 0.383092 0.809389
vt 0.383092 0.778801
vt 0.383092 0.809389
vt 0.383092 0.778801
vt 0.383092 0.809389
vt 0.219721 0.869554
vt 0.219721 0.900142
vt 0.204427 0.869554
vt 0.204427 0.900142
vt 0.219721 0.869554
vt 0.204427 0.869554
vt 0.219721 0.900142
vt 0.204427 0.900142
s 0
usemtl Palette
f 12/12/1 48/48/1 47/47/1 11/11/1
f 34/34/1 33/33/1 35/35/1 36/36/1
f 8/8/1 7/7/1 9/9/1 10/10/1
f 4/4/2 6/6/2 10/10/2 9/9/2
f 5/5/3 3/3/3 7/7/3 8/8/3
f 6/6/4 5/5/4 8/8/4 10/10/4
f 3/3/5 4/4/5 9/9/5 7/7/5
f 11/11/3 47/47/3 37/37/3 1/1/3
f 13/13/6 49/49/6 50/50/6 14/14/6
f 38/38/2 48/48/2 12/12/2 2/2/2
f 16/16/1 52/52/1 51/51/1 15/15/1
f 15/15/3 51/51/3 49/49/3 13/13/3
f 17/17/6 53/53/6 54/54/6 18/18/6
f 50/50/2 52/52/2 16/16/2 14/14/2
f 20/20/1 56/56/1 55/55/1 19/19/1
f 19/19/3 55/55/3 53/53/3 17/17/3
f 21/21/6 57/57/6 58/58/6 22/22/6
f 54/54/2 56/56/2 20/20/2 18/18/2
f 24/24/1 60/60/1 59/59/1 23/23/1
f 23/23/3 59/59/3 57/57/3 21/21/3
f 25/25/6 61/61/6 62/62/6 26/26/6
f 58/58/2 60/60/2 24/24/2 22/22/2
f 28/28/1 64/64/1 63/63/1 27/27/1
f 27/27/3 63/63/3 61/61/3 25/25/3
f 62/62/2 64/64/2 28/28/2 26/26/2
f 31/31/6 32/32/6 30/30/6 29/29/6
f 30/30/5 35/35/5 33/33/5 29/29/5
f 32/32/2 36/36/2 35/35/2 30/30/2
f 29/29/3 33/33/3 34/34/3 31/31/3
f 31/31/4 34/34/4 36/36/4 32/32/4
f 70/70/1 72/72/1 71/71/1 69/69/1
f 44/44/1 46/46/1 45/45/1 43/43/1
f 40/40/2 45/45/2 46/46/2 42/42/2
f 41/41/3 44/44/3 43/43/3 39/39/3
f 42/42/5 46/46/5 44/44/5 41/41/5
f 39/39/4 43/43/4 45/45/4 40/40/4
f 67/67/6 65/65/6 66/66/6 68/68/6
f 66/66/4 65/65/4 69/69/4 71/71/4
f 68/68/2 66/66/2 71/71/2 72/72/2
f 65/65/3 67/67/3 70/70/3 69/69/3
f 67/67/5 68/68/5 72/72/5 70/70/5
f 1/1/6 37/37/6 38/38/6 2/2/6
