# Blender 3.4.1
# www.blender.org
mtllib Lamp_3.mtl
o Lamp_3
v -0.000000 0.011576 -0.008875
v -0.006275 0.011576 -0.006275
v -0.008875 0.011576 -0.000000
v -0.006275 0.011576 0.006275
v -0.000000 0.011576 0.008875
v 0.006275 0.011576 0.006275
v 0.008875 0.011576 0.000000
v 0.006275 0.011576 -0.006275
v -0.000000 0.908186 -0.008875
v -0.006275 0.908186 -0.006275
v -0.008875 0.908186 -0.000000
v -0.006275 0.908186 0.006275
v -0.000000 0.908186 0.008875
v 0.006275 0.908186 0.006275
v 0.008875 0.908186 0.000000
v 0.006275 0.908186 -0.006275
v 0.025055 0.940901 -0.060488
v 0.046295 0.940901 -0.046295
v 0.060488 0.940901 -0.025055
v 0.065471 0.940901 0.000000
v 0.060488 0.940901 0.025055
v 0.046295 0.940901 0.046295
v 0.025055 0.940901 0.060488
v 0.000000 0.940901 0.065471
v -0.025055 0.940901 0.060488
v -0.046295 0.940901 0.046295
v -0.060488 0.940901 0.025055
v -0.060488 0.940901 -0.025055
v -0.065471 0.940901 -0.000000
v -0.046295 0.940901 -0.046295
v 0.000000 0.940901 -0.065471
v -0.025055 0.940901 -0.060488
v 0.029421 0.940901 -0.071028
v 0.054363 0.940901 -0.054363
v 0.071028 0.940901 -0.029421
v 0.076880 0.940901 -0.000000
v 0.071028 0.940901 0.029421
v 0.054363 0.940901 0.054363
v 0.029421 0.940901 0.071028
v 0.000000 0.940901 0.076880
v -0.029421 0.940901 0.071028
v -0.054363 0.940901 0.054363
v -0.071028 0.940901 0.029421
v -0.071028 0.940901 -0.029421
v -0.076880 0.940901 -0.000000
v -0.054363 0.940901 -0.054363
v 0.000000 0.940901 -0.076880
v -0.029421 0.940901 -0.071028
v 0.000000 -0.002285 -0.069576
v 0.026625 -0.002285 -0.064280
v 0.049197 -0.002285 -0.049197
v 0.064280 -0.002285 -0.026625
v 0.069576 -0.002285 0.000000
v 0.064280 -0.002285 0.026625
v 0.049197 -0.002285 0.049197
v 0.026625 -0.002285 0.064280
v 0.000000 -0.002285 0.069576
v -0.026625 -0.002285 0.064280
v -0.049197 -0.002285 0.049197
v -0.064280 -0.002285 0.026625
v -0.069576 -0.002285 -0.000000
v -0.064280 -0.002285 -0.026625
v -0.049197 -0.002285 -0.049197
v -0.026625 -0.002285 -0.064280
v -0.025452 0.007145 -0.061446
v -0.047029 0.007145 -0.047029
v -0.061446 0.007145 -0.025452
v -0.066509 0.007145 -0.000000
v -0.061446 0.007145 0.025452
v -0.047029 0.007145 0.047029
v -0.025452 0.007145 0.061446
v 0.000000 0.007145 0.066509
v 0.025452 0.007145 0.061446
v 0.047029 0.007145 0.047029
v 0.061446 0.007145 0.025452
v 0.066509 0.007145 0.000000
v 0.061446 0.007145 -0.025452
v 0.047029 0.007145 -0.047029
v 0.025452 0.007145 -0.061446
v 0.000000 0.007145 -0.066509
v -0.002724 0.019715 -0.006576
v -0.000000 0.019715 -0.007118
v -0.005033 0.019715 -0.005033
v -0.007118 0.019715 -0.000000
v -0.006576 0.019715 -0.002724
v -0.006576 0.019715 0.002724
v -0.005033 0.019715 0.005033
v -0.002724 0.019715 0.006576
v -0.000000 0.019715 0.007118
v 0.002724 0.019715 0.006576
v 0.005033 0.019715 0.005033
v 0.006576 0.019715 0.002724
v 0.007118 0.019715 0.000000
v 0.006576 0.019715 -0.002724
v 0.005033 0.019715 -0.005033
v 0.002724 0.019715 -0.006576
v -0.019397 0.028406 -0.046828
v -0.000000 0.028406 -0.050686
v -0.035840 0.028406 -0.035841
v -0.050686 0.028406 -0.000000
v -0.046828 0.028406 -0.019397
v -0.046828 0.028406 0.019397
v -0.035840 0.028406 0.035841
v -0.019397 0.028406 0.046828
v -0.000000 0.028406 0.050686
v 0.019397 0.028406 0.046828
v 0.035840 0.028406 0.035840
v 0.046828 0.028406 0.019397
v 0.050686 0.028406 0.000000
v 0.046828 0.028406 -0.019397
v 0.035840 0.028406 -0.035840
v 0.019397 0.028406 -0.046828
v -0.025055 0.226319 -0.060488
v 0.000000 0.226319 -0.065471
v -0.046295 0.226319 -0.046295
v -0.065471 0.226319 -0.000000
v -0.060488 0.226319 -0.025055
v -0.060488 0.226319 0.025055
v -0.046295 0.226319 0.046295
v -0.025055 0.226319 0.060488
v 0.000000 0.226319 0.065471
v 0.025055 0.226319 0.060488
v 0.046295 0.226319 0.046295
v 0.060488 0.226319 0.025055
v 0.065471 0.226319 0.000000
v 0.060488 0.226319 -0.025055
v 0.046295 0.226319 -0.046295
v 0.025055 0.226319 -0.060488
v -0.029421 0.226319 -0.071028
v 0.000000 0.226319 -0.076880
v -0.054363 0.226319 -0.054363
v -0.076880 0.226319 -0.000000
v -0.071028 0.226319 -0.029421
v -0.071028 0.226319 0.029421
v -0.054363 0.226319 0.054363
v -0.029421 0.226319 0.071028
v 0.000000 0.226319 0.076880
v 0.029421 0.226319 0.071028
v 0.054363 0.226319 0.054363
v 0.071028 0.226319 0.029421
v 0.076880 0.226319 -0.000000
v 0.071028 0.226319 -0.029421
v 0.054363 0.226319 -0.054363
v 0.029421 0.226319 -0.071028
v 0.054363 0.249543 -0.054363
v 0.054363 0.265464 -0.054363
v 0.029421 0.249543 0.071028
v 0.029421 0.265464 0.071028
v -0.071028 0.249543 -0.029421
v -0.071028 0.265464 -0.029421
v -0.029421 0.265464 -0.071028
v -0.029421 0.249543 -0.071028
v 0.000000 0.249543 -0.076880
v 0.000000 0.265464 -0.076880
v 0.071028 0.249543 0.029421
v 0.071028 0.265464 0.029421
v 0.076880 0.249543 -0.000000
v 0.076880 0.265464 -0.000000
v -0.071028 0.249543 0.029421
v -0.071028 0.265464 0.029421
v -0.054363 0.249543 -0.054363
v -0.054363 0.265464 -0.054363
v -0.054363 0.249543 0.054363
v -0.054363 0.265464 0.054363
v -0.076880 0.249543 -0.000000
v -0.076880 0.265464 -0.000000
v 0.029421 0.265464 -0.071028
v 0.029421 0.249543 -0.071028
v 0.071028 0.249543 -0.029421
v 0.071028 0.265464 -0.029421
v 0.054363 0.249543 0.054363
v 0.054363 0.265464 0.054363
v -0.029421 0.249543 0.071028
v -0.029421 0.265464 0.071028
v 0.000000 0.249543 0.076880
v 0.000000 0.265464 0.076880
vn 0.7071 -0.0000 0.7071
vn 1.0000 -0.0000 -0.0000
vn 0.7764 0.6303 -0.0000
vn 0.5490 0.6303 0.5490
vn -0.0000 -0.0000 -1.0000
vn -0.7071 -0.0000 -0.7071
vn -0.5490 0.6303 -0.5490
vn -0.0000 0.6303 -0.7764
vn -1.0000 -0.0000 -0.0000
vn -0.7764 0.6303 -0.0000
vn -0.7071 -0.0000 0.7071
vn -0.5490 0.6303 0.5490
vn 0.7071 -0.0000 -0.7071
vn 0.5490 0.6303 -0.5490
vn -0.0000 -0.0000 1.0000
vn -0.0000 0.6303 0.7764
vn -0.0000 1.0000 -0.0000
vn -0.4647 -0.7538 0.4647
vn -0.6071 -0.7538 0.2515
vn -0.6071 0.7538 0.2515
vn -0.4647 0.7538 0.4647
vn -0.2515 -0.7538 -0.6071
vn -0.0000 -0.7538 -0.6571
vn -0.0000 0.7538 -0.6571
vn -0.2515 0.7538 -0.6071
vn 0.2515 -0.7538 -0.6071
vn 0.2515 0.7538 -0.6071
vn 0.4647 -0.7538 -0.4647
vn 0.4647 0.7538 -0.4647
vn 0.6071 -0.7538 -0.2515
vn 0.6071 0.7538 -0.2515
vn -0.3827 -0.0000 -0.9239
vn -0.2856 0.6657 -0.6894
vn -0.0000 0.6657 -0.7462
vn -0.6571 -0.7538 -0.0000
vn -0.6071 -0.7538 -0.2515
vn -0.6071 0.7538 -0.2515
vn -0.6571 0.7538 -0.0000
vn -0.4647 -0.7538 -0.4647
vn -0.4647 0.7538 -0.4647
vn 0.6571 -0.7538 -0.0000
vn 0.6571 0.7538 -0.0000
vn 0.6071 -0.7538 0.2515
vn 0.6071 0.7538 0.2515
vn 0.2515 -0.7538 0.6071
vn -0.0000 -0.7538 0.6571
vn -0.0000 0.7538 0.6571
vn 0.2515 0.7538 0.6071
vn -0.9239 -0.0000 -0.3827
vn -0.7462 0.6657 -0.0000
vn -0.6894 0.6657 -0.2856
vn -0.5276 0.6657 -0.5276
vn 0.3827 -0.0000 -0.9239
vn 0.2856 0.6657 -0.6894
vn -0.9239 -0.0000 0.3827
vn -0.5276 0.6657 0.5276
vn -0.6894 0.6657 0.2856
vn -0.2515 -0.7538 0.6071
vn -0.2515 0.7538 0.6071
vn 0.4647 -0.7538 0.4647
vn 0.4647 0.7538 0.4647
vn -0.3827 -0.0000 0.9239
vn -0.0000 0.6657 0.7462
vn -0.2856 0.6657 0.6894
vn 0.5276 0.6657 -0.5276
vn 0.9239 -0.0000 -0.3827
vn 0.6894 0.6657 -0.2856
vn 0.7462 0.6657 -0.0000
vn 0.9239 -0.0000 0.3827
vn 0.6894 0.6657 0.2856
vn 0.5276 0.6657 0.5276
vn 0.3827 -0.0000 0.9239
vn 0.2856 0.6657 0.6894
vn -0.5932 -0.5442 -0.5932
vn -0.6310 0.4512 -0.6310
vn -0.3415 0.4512 -0.8245
vn -0.3211 -0.5442 -0.7751
vn -0.3211 -0.5442 0.7751
vn -0.3415 0.4512 0.8245
vn -0.6310 0.4512 0.6310
vn -0.5932 -0.5442 0.5932
vn -0.7751 -0.5442 0.3211
vn -0.8245 0.4512 0.3415
vn -0.8924 0.4512 -0.0000
vn -0.8390 -0.5442 -0.0000
vn 0.5932 -0.5442 0.5932
vn 0.6310 0.4512 0.6310
vn 0.3415 0.4512 0.8245
vn 0.3211 -0.5442 0.7751
vn 0.3211 -0.5442 -0.7751
vn 0.3415 0.4512 -0.8245
vn 0.6310 0.4512 -0.6310
vn 0.5932 -0.5442 -0.5932
vn -0.7751 -0.5442 -0.3211
vn -0.8245 0.4512 -0.3415
vn -0.0000 -0.5442 0.8390
vn -0.0000 0.4512 0.8924
vn 0.7751 -0.5442 -0.3211
vn 0.8245 0.4512 -0.3415
vn 0.8924 0.4512 -0.0000
vn 0.8390 -0.5442 -0.0000
vn -0.0000 0.4512 -0.8924
vn -0.0000 -0.5442 -0.8390
vn 0.7751 -0.5442 0.3211
vn 0.8245 0.4512 0.3415
vn -0.2929 0.9102 -0.2929
vn -0.1585 0.9102 -0.3827
vn 0.3827 0.9102 0.1585
vn 0.2929 0.9102 0.2929
vn -0.4142 0.9102 -0.0000
vn -0.3827 0.9102 -0.1585
vn 0.4142 0.9102 -0.0000
vn -0.3827 0.9102 0.1585
vn 0.3827 0.9102 -0.1585
vn -0.2929 0.9102 0.2929
vn 0.2929 0.9102 -0.2929
vn -0.1585 0.9102 0.3827
vn 0.1585 0.9102 -0.3827
vn -0.0000 0.9102 0.4142
vn -0.0000 0.9102 -0.4142
vn 0.1585 0.9102 0.3827
vn 0.0749 0.9807 0.1807
vn -0.0000 0.9807 0.1956
vn 0.1383 0.9807 0.1383
vn 0.1956 0.9807 -0.0000
vn 0.1807 0.9807 0.0749
vn 0.1807 0.9807 -0.0749
vn 0.1383 0.9807 -0.1383
vn 0.0749 0.9807 -0.1807
vn -0.0000 0.9807 -0.1956
vn -0.0749 0.9807 -0.1807
vn -0.1383 0.9807 -0.1383
vn -0.1807 0.9807 -0.0749
vn -0.1956 0.9807 -0.0000
vn -0.1807 0.9807 0.0749
vn -0.1383 0.9807 0.1383
vn -0.0749 0.9807 0.1807
vn -0.0000 -1.0000 -0.0000
vn -0.0000 -0.6657 0.7462
vn 0.2856 -0.6657 0.6894
vn 0.5276 -0.6657 0.5276
vn 0.6894 -0.6657 0.2856
vn 0.7462 -0.6657 -0.0000
vn 0.6894 -0.6657 -0.2856
vn 0.5276 -0.6657 -0.5276
vn 0.2856 -0.6657 -0.6894
vn -0.7462 -0.6657 -0.0000
vn -0.6894 -0.6657 0.2856
vn -0.5276 -0.6657 0.5276
vn -0.2856 -0.6657 0.6894
vn -0.2856 -0.6657 -0.6894
vn -0.5276 -0.6657 -0.5276
vn -0.0000 -0.6657 -0.7462
vn -0.6894 -0.6657 -0.2856
vt 0.201054 0.799522
vt 0.195557 0.797245
vt 0.193280 0.791748
vt 0.195557 0.786251
vt 0.201054 0.783974
vt 0.206551 0.786251
vt 0.208828 0.791748
vt 0.206551 0.797245
vt 0.201054 0.799522
vt 0.195557 0.797245
vt 0.193280 0.791748
vt 0.195557 0.786251
vt 0.201054 0.783974
vt 0.206551 0.786251
vt 0.208828 0.791748
vt 0.206551 0.797245
vt 0.374402 0.715300
vt 0.375822 0.714351
vt 0.376770 0.712932
vt 0.377104 0.711258
vt 0.376770 0.709583
vt 0.375822 0.708164
vt 0.374402 0.707215
vt 0.372728 0.706882
vt 0.371054 0.707215
vt 0.369634 0.708164
vt 0.368686 0.709583
vt 0.368686 0.712932
vt 0.368353 0.711258
vt 0.369634 0.714351
vt 0.372728 0.715633
vt 0.371054 0.715300
vt 0.375703 0.718440
vt 0.373636 0.716373
vt 0.378225 0.716755
vt 0.376158 0.714688
vt 0.379910 0.714233
vt 0.377843 0.712166
vt 0.380502 0.711258
vt 0.378435 0.709191
vt 0.379910 0.708283
vt 0.377843 0.706216
vt 0.378225 0.705761
vt 0.376158 0.703694
vt 0.375703 0.704075
vt 0.373636 0.702008
vt 0.372728 0.703484
vt 0.370661 0.701417
vt 0.369753 0.704075
vt 0.367686 0.702008
vt 0.367231 0.705761
vt 0.365164 0.703694
vt 0.365546 0.708283
vt 0.363479 0.706216
vt 0.363479 0.712166
vt 0.365546 0.714233
vt 0.364954 0.711258
vt 0.362887 0.709191
vt 0.365164 0.714688
vt 0.367231 0.716755
vt 0.370661 0.716965
vt 0.372728 0.719032
vt 0.367686 0.716373
vt 0.369753 0.718440
vt 0.120389 0.985032
vt 0.126590 0.987099
vt 0.126996 0.983718
vt 0.133197 0.985785
vt 0.132598 0.979975
vt 0.138798 0.982042
vt 0.136340 0.974374
vt 0.142541 0.976440
vt 0.137655 0.967766
vt 0.143855 0.969833
vt 0.136340 0.961159
vt 0.142541 0.963226
vt 0.132598 0.955557
vt 0.138798 0.957624
vt 0.126996 0.951815
vt 0.133197 0.953882
vt 0.120389 0.950500
vt 0.126590 0.952567
vt 0.113781 0.951815
vt 0.119982 0.953882
vt 0.108180 0.955557
vt 0.114381 0.957624
vt 0.104437 0.961159
vt 0.110638 0.963226
vt 0.103123 0.967766
vt 0.109324 0.969833
vt 0.104437 0.974374
vt 0.110638 0.976440
vt 0.108180 0.979975
vt 0.114381 0.982042
vt 0.113781 0.983718
vt 0.119982 0.985785
vt 0.113781 0.983718
vt 0.033702 0.978272
vt 0.108180 0.979975
vt 0.028100 0.974529
vt 0.104437 0.974374
vt 0.024358 0.968928
vt 0.103123 0.967766
vt 0.023043 0.962321
vt 0.104437 0.961159
vt 0.024358 0.955713
vt 0.108180 0.955558
vt 0.028100 0.950112
vt 0.113781 0.951815
vt 0.033702 0.946369
vt 0.120389 0.950500
vt 0.040309 0.945055
vt 0.126996 0.951815
vt 0.046917 0.946369
vt 0.132598 0.955557
vt 0.052518 0.950112
vt 0.136340 0.961159
vt 0.056261 0.955713
vt 0.137655 0.967766
vt 0.057575 0.962321
vt 0.136340 0.974374
vt 0.056261 0.968928
vt 0.132598 0.979975
vt 0.052518 0.974529
vt 0.126996 0.983718
vt 0.046917 0.978272
vt 0.120389 0.985032
vt 0.040309 0.979586
vt 0.041468 0.969503
vt 0.044443 0.970095
vt 0.038946 0.967818
vt 0.036669 0.962321
vt 0.037261 0.965296
vt 0.037261 0.959346
vt 0.038946 0.956824
vt 0.041468 0.955138
vt 0.044443 0.954547
vt 0.047418 0.955138
vt 0.049940 0.956823
vt 0.051625 0.959346
vt 0.052217 0.962321
vt 0.051626 0.965296
vt 0.049940 0.967818
vt 0.047418 0.969503
vt 0.033702 0.978272
vt 0.037836 0.978272
vt 0.040309 0.979586
vt 0.044443 0.979586
vt 0.028100 0.974529
vt 0.032234 0.974529
vt 0.023043 0.962321
vt 0.027177 0.962321
vt 0.024358 0.968928
vt 0.028492 0.968928
vt 0.024358 0.955713
vt 0.028492 0.955713
vt 0.028100 0.950112
vt 0.032234 0.950112
vt 0.033702 0.946369
vt 0.037836 0.946369
vt 0.040309 0.945055
vt 0.044443 0.945055
vt 0.046917 0.946369
vt 0.051050 0.946369
vt 0.052518 0.950112
vt 0.056652 0.950112
vt 0.056261 0.955713
vt 0.060395 0.955713
vt 0.057575 0.962321
vt 0.061709 0.962321
vt 0.056261 0.968928
vt 0.060395 0.968928
vt 0.052518 0.974529
vt 0.056652 0.974529
vt 0.046917 0.978272
vt 0.051050 0.978272
vt 0.371054 0.715300
vt 0.372728 0.715633
vt 0.369634 0.714351
vt 0.368353 0.711258
vt 0.368686 0.712932
vt 0.368686 0.709583
vt 0.369634 0.708164
vt 0.371054 0.707215
vt 0.372728 0.706882
vt 0.374402 0.707215
vt 0.375822 0.708164
vt 0.376770 0.709583
vt 0.377104 0.711258
vt 0.376770 0.712932
vt 0.375822 0.714351
vt 0.374402 0.715300
vt 0.369753 0.718440
vt 0.367686 0.716373
vt 0.372728 0.719032
vt 0.370661 0.716965
vt 0.367231 0.716755
vt 0.365164 0.714688
vt 0.364954 0.711258
vt 0.362887 0.709191
vt 0.365546 0.714233
vt 0.363479 0.712166
vt 0.365546 0.708283
vt 0.363479 0.706216
vt 0.367231 0.705761
vt 0.365164 0.703694
vt 0.369753 0.704075
vt 0.367686 0.702008
vt 0.372728 0.703484
vt 0.370661 0.701417
vt 0.375703 0.704075
vt 0.373636 0.702008
vt 0.378225 0.705761
vt 0.376158 0.703694
vt 0.379910 0.708283
vt 0.377843 0.706216
vt 0.380502 0.711258
vt 0.378435 0.709191
vt 0.379910 0.714233
vt 0.377843 0.712166
vt 0.378225 0.716755
vt 0.376158 0.714688
vt 0.375703 0.718440
vt 0.373636 0.716373
vt 0.376158 0.714688
vt 0.469170 0.706420
vt 0.376158 0.714688
vt 0.469170 0.706420
vt 0.373636 0.702008
vt 0.466648 0.693740
vt 0.373636 0.702008
vt 0.466648 0.693741
vt 0.363479 0.712166
vt 0.456490 0.703898
vt 0.363479 0.712166
vt 0.456490 0.703898
vt 0.367686 0.716373
vt 0.460698 0.708105
vt 0.367686 0.716373
vt 0.460698 0.708105
vt 0.370661 0.716965
vt 0.463673 0.708697
vt 0.370661 0.716965
vt 0.463673 0.708697
vt 0.377843 0.706216
vt 0.470855 0.697948
vt 0.377843 0.706216
vt 0.470855 0.697948
vt 0.378435 0.709191
vt 0.471447 0.700923
vt 0.378435 0.709191
vt 0.471447 0.700923
vt 0.363479 0.706216
vt 0.456490 0.697948
vt 0.363479 0.706216
vt 0.456490 0.697948
vt 0.365164 0.714688
vt 0.458176 0.706420
vt 0.365164 0.714688
vt 0.458176 0.706420
vt 0.365164 0.703694
vt 0.458176 0.695426
vt 0.365164 0.703694
vt 0.458176 0.695426
vt 0.362887 0.709191
vt 0.455899 0.700923
vt 0.362887 0.709191
vt 0.455899 0.700923
vt 0.373636 0.716373
vt 0.466648 0.708105
vt 0.373636 0.716373
vt 0.466648 0.708105
vt 0.377843 0.712166
vt 0.470855 0.703898
vt 0.377843 0.712166
vt 0.470855 0.703898
vt 0.376158 0.703694
vt 0.469170 0.695426
vt 0.376158 0.703694
vt 0.469170 0.695426
vt 0.367686 0.702008
vt 0.460698 0.693741
vt 0.367686 0.702008
vt 0.460698 0.693741
vt 0.370661 0.701417
vt 0.463673 0.693149
vt 0.370661 0.701417
vt 0.463673 0.693149
s 1
usemtl Palette
f 6/6/1 7/7/2 15/15/3 14/14/4
f 1/1/5 2/2/6 10/10/7 9/9/8
f 2/2/6 3/3/9 11/11/10 10/10/7
f 3/3/9 4/4/11 12/12/12 11/11/10
f 7/7/2 8/8/13 16/16/14 15/15/3
f 4/4/11 5/5/15 13/13/16 12/12/12
f 8/8/13 1/1/5 9/9/8 16/16/14
f 5/5/15 6/6/1 14/14/4 13/13/16
s 0
f 26/26/17 27/27/17 43/53/17 42/51/17
s 1
f 127/191/18 126/190/19 19/19/20 18/18/21
f 122/186/22 121/185/23 24/24/24 23/23/25
f 121/185/23 120/184/26 25/25/27 24/24/24
f 120/184/26 119/183/28 26/26/29 25/25/27
f 119/183/28 118/182/30 27/27/31 26/26/29
f 154/243/5 151/237/32 48/63/33 47/61/34
f 125/189/35 124/188/36 21/21/37 20/20/38
f 124/188/36 123/187/39 22/22/40 21/21/37
f 123/187/39 122/186/22 23/23/25 22/22/40
f 118/182/30 116/180/41 29/29/42 27/27/31
f 116/180/41 117/181/43 28/28/44 29/29/42
f 113/177/45 114/178/46 31/31/47 32/32/48
f 150/235/49 166/267/9 45/58/50 44/55/51
f 162/259/6 150/235/49 44/55/51 46/59/52
f 167/269/53 154/243/5 47/61/34 33/34/54
s 0
f 31/31/17 17/17/17 33/33/17 47/62/17
f 18/18/17 19/19/17 35/37/17 34/35/17
f 20/20/17 21/21/17 37/41/17 36/39/17
f 22/22/17 23/23/17 39/45/17 38/43/17
f 24/24/17 25/25/17 41/49/17 40/47/17
f 25/25/17 26/26/17 42/51/17 41/49/17
f 29/29/17 28/28/17 44/56/17 45/57/17
f 32/32/17 31/31/17 47/62/17 48/64/17
s 1
f 160/255/55 164/263/11 42/52/56 43/54/57
f 114/178/46 128/192/58 17/17/59 31/31/47
s 0
f 27/27/17 29/29/17 45/57/17 43/53/17
s 1
f 151/237/32 162/259/6 46/59/52 48/63/33
s 0
f 30/30/17 32/32/17 48/64/17 46/60/17
f 28/28/17 30/30/17 46/60/17 44/56/17
s 1
f 117/181/43 115/179/60 30/30/61 28/28/44
s 0
f 17/17/17 18/18/17 34/35/17 33/33/17
s 1
f 174/283/62 176/287/15 40/48/63 41/50/64
f 115/179/60 113/177/45 32/32/48 30/30/61
s 0
f 19/19/17 20/20/17 36/39/17 35/37/17
s 1
f 164/263/11 174/283/62 41/50/64 42/52/56
s 0
f 21/21/17 22/22/17 38/43/17 37/41/17
s 1
f 166/267/9 160/255/55 43/54/57 45/58/50
s 0
f 23/23/17 24/24/17 40/47/17 39/45/17
s 1
f 128/192/58 127/191/18 18/18/21 17/17/59
f 126/190/19 125/189/35 20/20/38 19/19/20
f 146/227/13 167/269/53 33/34/54 34/36/65
f 170/275/66 146/227/13 34/36/65 35/38/67
f 158/251/2 170/275/66 35/38/67 36/40/68
f 156/247/69 158/251/2 36/40/68 37/42/70
f 172/279/1 156/247/69 37/42/70 38/44/71
f 148/231/72 172/279/1 38/44/71 39/46/73
f 176/287/15 148/231/72 39/46/73 40/48/63
f 63/93/74 66/99/75 65/97/76 64/95/77
f 58/83/78 71/109/79 70/107/80 59/85/81
f 60/87/82 69/105/83 68/103/84 61/89/85
f 55/77/86 74/115/87 73/113/88 56/79/89
f 50/67/90 79/125/91 78/123/92 51/69/93
f 62/91/94 67/101/95 66/99/75 63/93/74
f 57/81/96 72/111/97 71/109/79 58/83/78
f 52/71/98 77/121/99 76/119/100 53/73/101
f 64/95/77 65/97/76 80/127/102 49/65/103
f 59/85/81 70/107/80 69/105/83 60/87/82
f 54/75/104 75/117/105 74/115/87 55/77/86
f 49/65/103 80/127/102 79/125/91 50/67/90
f 61/89/85 68/103/84 67/101/95 62/91/94
f 56/79/89 73/113/88 72/111/97 57/81/96
f 51/69/93 78/123/92 77/121/99 52/71/98
f 53/73/101 76/119/100 75/117/105 54/75/104
f 66/100/75 99/149/106 97/145/107 65/98/76
f 75/118/105 108/167/108 107/165/109 74/116/87
f 68/104/84 100/151/110 101/153/111 67/102/95
f 76/120/100 109/169/112 108/167/108 75/118/105
f 69/106/83 102/155/113 100/151/110 68/104/84
f 77/122/99 110/171/114 109/169/112 76/120/100
f 70/108/80 103/157/115 102/155/113 69/106/83
f 78/124/92 111/173/116 110/171/114 77/122/99
f 71/110/79 104/159/117 103/157/115 70/108/80
f 79/126/91 112/175/118 111/173/116 78/124/92
f 72/112/97 105/161/119 104/159/117 71/110/79
f 80/128/102 98/147/120 112/175/118 79/126/91
f 73/114/88 106/163/121 105/161/119 72/112/97
f 65/98/76 97/145/107 98/147/120 80/128/102
f 67/102/95 101/153/111 99/149/106 66/100/75
f 74/116/87 107/165/109 106/163/121 73/114/88
f 81/129/122 82/130/123 98/148/120 97/146/107
f 83/131/124 81/129/122 97/146/107 99/150/106
f 84/132/125 85/133/126 101/154/111 100/152/110
f 86/134/127 84/132/125 100/152/110 102/156/113
f 87/135/128 86/134/127 102/156/113 103/158/115
f 88/136/129 87/135/128 103/158/115 104/160/117
f 89/137/130 88/136/129 104/160/117 105/162/119
f 90/138/131 89/137/130 105/162/119 106/164/121
f 91/139/132 90/138/131 106/164/121 107/166/109
f 92/140/133 91/139/132 107/166/109 108/168/108
f 93/141/134 92/140/133 108/168/108 109/170/112
f 94/142/135 93/141/134 109/170/112 110/172/114
f 95/143/136 94/142/135 110/172/114 111/174/116
f 96/144/137 95/143/136 111/174/116 112/176/118
f 82/130/123 96/144/137 112/176/118 98/148/120
f 85/133/126 83/131/124 99/150/106 101/154/111
s 0
f 49/66/138 50/68/138 51/70/138 52/72/138 53/74/138 54/76/138 55/78/138 56/80/138 57/82/138 58/84/138 59/86/138 60/88/138 61/90/138 62/92/138 63/94/138 64/96/138
f 113/177/138 129/193/138 130/195/138 114/178/138
f 115/179/138 131/197/138 129/193/138 113/177/138
f 116/180/138 132/199/138 133/201/138 117/181/138
f 118/182/138 134/203/138 132/199/138 116/180/138
f 119/183/138 135/205/138 134/203/138 118/182/138
f 120/184/138 136/207/138 135/205/138 119/183/138
f 121/185/138 137/209/138 136/207/138 120/184/138
f 122/186/138 138/211/138 137/209/138 121/185/138
f 123/187/138 139/213/138 138/211/138 122/186/138
f 124/188/138 140/215/138 139/213/138 123/187/138
f 125/189/138 141/217/138 140/215/138 124/188/138
f 126/190/138 142/219/138 141/217/138 125/189/138
f 127/191/138 143/221/138 142/219/138 126/190/138
f 128/192/138 144/223/138 143/221/138 127/191/138
f 114/178/138 130/195/138 144/223/138 128/192/138
f 117/181/138 133/201/138 131/197/138 115/179/138
s 1
f 137/210/139 138/212/140 147/229/72 175/285/15
f 175/286/15 147/230/72 148/232/72 176/288/15
f 138/212/140 139/214/141 171/277/1 147/229/72
f 147/230/72 171/278/1 172/280/1 148/232/72
f 139/214/141 140/216/142 155/245/69 171/277/1
f 171/278/1 155/246/69 156/248/69 172/280/1
f 140/216/142 141/218/143 157/249/2 155/245/69
f 155/246/69 157/250/2 158/252/2 156/248/69
f 141/218/143 142/220/144 169/273/66 157/249/2
f 157/250/2 169/274/66 170/276/66 158/252/2
f 142/220/144 143/222/145 145/225/13 169/273/66
f 169/274/66 145/226/13 146/228/13 170/276/66
f 143/222/145 144/224/146 168/271/53 145/225/13
f 145/226/13 168/272/53 167/270/53 146/228/13
f 132/200/147 134/204/148 159/253/55 165/265/9
f 165/266/9 159/254/55 160/256/55 166/268/9
f 135/206/149 136/208/150 173/281/62 163/261/11
f 163/262/11 173/282/62 174/284/62 164/264/11
f 136/208/150 137/210/139 175/285/15 173/281/62
f 173/282/62 175/286/15 176/288/15 174/284/62
f 129/194/151 131/198/152 161/257/6 152/239/32
f 152/240/32 161/258/6 162/260/6 151/238/32
f 134/204/148 135/206/149 163/261/11 159/253/55
f 159/254/55 163/262/11 164/264/11 160/256/55
f 144/224/146 130/196/153 153/241/5 168/271/53
f 168/272/53 153/242/5 154/244/5 167/270/53
f 131/198/152 133/202/154 149/233/49 161/257/6
f 161/258/6 149/234/49 150/236/49 162/260/6
f 133/202/154 132/200/147 165/265/9 149/233/49
f 149/234/49 165/266/9 166/268/9 150/236/49
f 130/196/153 129/194/151 152/239/32 153/241/5
f 153/242/5 152/240/32 151/238/32 154/244/5
f 10/10/7 11/11/10 12/12/12 13/13/16 14/14/4 15/15/3 16/16/14 9/9/8
