# Blender 3.4.1
# www.blender.org
mtllib Laptop_Base.mtl
o Laptop_Base
v 0.232762 0.005437 0.166400
v 0.232762 0.005437 -0.166400
v 0.241658 0.030960 0.172760
v 0.241658 0.030960 -0.172760
v 0.188720 0.018773 -0.172560
v 0.128746 0.018773 -0.172560
v 0.188720 0.021374 -0.158063
v 0.191013 0.037500 -0.163644
v 0.128746 0.021374 -0.158063
v 0.128746 0.037500 -0.163644
v 0.191013 0.036052 -0.171715
v 0.190355 0.030272 -0.176541
v 0.128746 0.030272 -0.176541
v 0.128746 0.036052 -0.171715
v -0.232762 0.005437 0.166400
v -0.232762 0.005437 -0.166400
v -0.241658 0.030960 0.172760
v -0.241658 0.030960 -0.172760
v 0.000000 0.005437 0.177059
v 0.000000 0.005437 -0.166400
v 0.000000 0.030960 0.183419
v 0.000000 0.030960 -0.172760
v -0.188720 0.018773 -0.172560
v -0.128746 0.018773 -0.172560
v -0.188720 0.021374 -0.158063
v -0.191013 0.037500 -0.163644
v -0.128746 0.021374 -0.158063
v -0.128746 0.037500 -0.163644
v -0.191013 0.036052 -0.171715
v -0.190355 0.030272 -0.176541
v -0.128746 0.030272 -0.176541
v -0.128746 0.036052 -0.171715
v 0.106954 0.034691 0.022365
v 0.106954 0.034691 -0.093119
v 0.106954 0.034691 -0.113699
v 0.106954 0.034691 -0.098723
v 0.115149 0.034691 -0.113699
v 0.115149 0.034691 -0.098723
v 0.205821 0.034691 -0.113699
v 0.205821 0.034691 -0.098723
v 0.205821 0.034691 0.022365
v 0.205821 0.034691 -0.093119
v 0.115149 0.034691 0.022365
v 0.115149 0.034691 -0.093119
v 0.054918 0.033344 0.062877
v 0.054918 0.033344 0.126261
v 0.054918 0.034691 0.039402
v 0.106954 0.034691 0.039402
v 0.054918 0.034691 0.022365
v 0.054918 0.034691 -0.093119
v -0.054918 0.033344 0.126261
v -0.054918 0.033344 0.062877
v -0.003942 0.033344 0.128929
v -0.003942 0.033344 0.146719
v -0.054918 0.033344 0.146719
v -0.054918 0.033344 0.128929
v 0.054918 0.033344 0.128929
v 0.054918 0.033344 0.146719
v 0.003942 0.033344 0.146719
v 0.003942 0.033344 0.128929
v 0.115149 0.025659 -0.113699
v 0.115149 0.025659 -0.098723
v 0.106954 0.025659 0.022365
v 0.106954 0.025659 -0.093119
v 0.205821 0.025659 -0.098723
v 0.054918 0.025659 0.022365
v 0.054918 0.025659 -0.093119
v 0.205821 0.025659 -0.113699
v 0.106954 0.025659 -0.098723
v 0.106954 0.025659 -0.113699
v 0.205821 0.025659 0.022365
v 0.205821 0.025659 -0.093119
v 0.115149 0.025659 0.022365
v 0.115149 0.025659 -0.093119
v 0.054918 0.025659 0.126261
v 0.054918 0.025659 0.062877
v 0.106954 0.025659 0.039402
v 0.054918 0.025659 0.039402
v -0.054918 0.025659 0.126261
v -0.054918 0.025659 0.062877
v -0.003942 0.025659 0.146719
v -0.003942 0.025659 0.128929
v -0.054918 0.025659 0.146719
v -0.054918 0.025659 0.128929
v 0.054918 0.025659 0.146719
v 0.054918 0.025659 0.128929
v 0.003942 0.025659 0.146719
v 0.003942 0.025659 0.128929
v -0.007889 0.033063 -0.151037
v -0.007889 0.033063 -0.136375
v 0.007889 0.033063 -0.151037
v 0.007889 0.033063 -0.136375
v 0.000000 0.033062 -0.154942
v 0.000000 0.033062 -0.132471
v -0.011784 0.033062 -0.143706
v 0.011784 0.033062 -0.143706
v -0.016086 0.021482 -0.143706
v -0.010633 0.021482 -0.133443
v 0.016086 0.021482 -0.143706
v 0.010633 0.021482 -0.153970
v -0.000000 0.021482 -0.159233
v -0.010633 0.021482 -0.153970
v -0.000000 0.021482 -0.128180
v 0.010633 0.021482 -0.133443
v -0.016086 0.033062 -0.143706
v -0.010633 0.033063 -0.133443
v 0.016086 0.033062 -0.143706
v 0.010633 0.033063 -0.153970
v 0.000000 0.033062 -0.159233
v -0.010633 0.033063 -0.153970
v 0.000000 0.033062 -0.128180
v 0.010633 0.033063 -0.133443
v -0.172658 0.025659 -0.093119
v -0.172658 0.025659 0.022365
v -0.172658 0.034691 -0.093119
v -0.172658 0.034691 0.022365
v -0.172658 0.025659 -0.098723
v -0.172658 0.025659 -0.113699
v -0.172658 0.034691 -0.098723
v -0.172658 0.034691 -0.113699
v -0.203098 0.034691 0.022365
v -0.203098 0.034691 -0.093119
v -0.203098 0.034691 -0.113699
v -0.203098 0.034691 -0.098723
v -0.203098 0.025659 -0.113699
v -0.203098 0.025659 -0.098723
v -0.203098 0.025659 0.022365
v -0.203098 0.025659 -0.093119
v -0.181257 0.025659 -0.093119
v -0.181257 0.025659 0.022365
v -0.181257 0.034691 -0.093119
v -0.181257 0.034691 0.022365
v -0.181257 0.025659 -0.098723
v -0.181257 0.025659 -0.113699
v -0.181257 0.034691 -0.098723
v -0.181257 0.034691 -0.113699
v -0.217395 -0.000342 0.156549
v -0.217395 -0.000342 0.151696
v -0.172122 -0.000342 0.156704
v -0.172122 -0.000342 0.151696
v 0.170232 -0.000342 0.156549
v 0.170232 -0.000342 0.151696
v 0.215505 -0.000342 0.156704
v 0.215505 -0.000342 0.151696
v -0.172122 0.008006 0.147876
v -0.172122 0.008006 0.160644
v -0.217395 0.008006 0.160248
v -0.217395 0.008006 0.147876
v 0.215505 0.008006 0.160644
v 0.215505 0.008006 0.147876
v 0.170232 0.008006 0.160248
v 0.170232 0.008006 0.147876
v -0.217395 -0.000342 -0.148506
v -0.217395 -0.000342 -0.153359
v -0.172122 -0.000342 -0.148351
v -0.172122 -0.000342 -0.153359
v 0.170232 -0.000342 -0.148506
v 0.170232 -0.000342 -0.153359
v 0.215505 -0.000342 -0.148351
v 0.215505 -0.000342 -0.153359
v -0.172122 0.008006 -0.157179
v -0.172122 0.008006 -0.144411
v -0.217395 0.008006 -0.144807
v -0.217395 0.008006 -0.157179
v 0.215505 0.008006 -0.144411
v 0.215505 0.008006 -0.157179
v 0.170232 0.008006 -0.144807
v 0.170232 0.008006 -0.157179
vn -0.0000 -1.0000 -0.0000
vn -0.0000 1.0000 -0.0000
vn 0.0435 -0.2487 0.9676
vn 0.9443 -0.3291 -0.0000
vn -0.0000 -0.2418 -0.9703
vn -0.0000 0.9843 -0.1766
vn -0.0000 0.3271 0.9450
vn -0.0000 -0.9843 0.1766
vn -1.0000 -0.0000 -0.0000
vn -0.0000 -0.3271 -0.9450
vn -0.0000 0.6409 -0.7676
vn 0.9909 -0.1326 0.0238
vn -0.0435 -0.2487 0.9676
vn -0.9443 -0.3291 -0.0000
vn 1.0000 -0.0000 -0.0000
vn -0.9909 -0.1326 0.0238
vn -0.0000 -0.0000 1.0000
vn -0.0000 -0.0000 -1.0000
vn -0.8831 -0.0000 -0.4692
vn 0.4436 -0.0000 0.8962
vn -0.4436 -0.0000 0.8962
vn 0.8831 -0.0000 -0.4692
vn 0.8831 -0.0000 0.4692
vn 0.4436 -0.0000 -0.8962
vn -0.4436 -0.0000 -0.8962
vn -0.8831 -0.0000 0.4692
vn -0.0055 -0.4160 0.9093
vn -0.0000 -0.4161 -0.9093
vt 0.635341 0.780612
vt 0.635341 0.805612
vt 0.635341 0.780612
vt 0.635341 0.805612
vt 0.635341 0.805612
vt 0.622841 0.805612
vt 0.635341 0.805612
vt 0.635341 0.805612
vt 0.622841 0.805612
vt 0.622841 0.805612
vt 0.635341 0.805612
vt 0.635341 0.805612
vt 0.622841 0.805612
vt 0.622841 0.805612
vt 0.635341 0.780612
vt 0.635341 0.805612
vt 0.635341 0.780612
vt 0.635341 0.805612
vt 0.622841 0.780612
vt 0.622841 0.805612
vt 0.622841 0.780612
vt 0.622841 0.805612
vt 0.635341 0.805612
vt 0.622841 0.805612
vt 0.635341 0.805612
vt 0.635341 0.805612
vt 0.622841 0.805612
vt 0.622841 0.805612
vt 0.635341 0.805612
vt 0.635341 0.805612
vt 0.622841 0.805612
vt 0.622841 0.805612
vt 0.052598 0.949605
vt 0.052598 0.974605
vt 0.052598 0.974605
vt 0.052598 0.949605
vt 0.052598 0.974605
vt 0.052598 0.949605
vt 0.052598 0.974605
vt 0.052598 0.949605
vt 0.052598 0.949605
vt 0.052598 0.974605
vt 0.052598 0.949605
vt 0.052598 0.974605
vt 0.208334 0.892713
vt 0.052598 0.974605
vt 0.208334 0.867713
vt 0.052598 0.949605
vt 0.052598 0.949605
vt 0.052598 0.949605
vt 0.052598 0.949605
vt 0.052598 0.974605
vt 0.208334 0.867713
vt 0.052598 0.949605
vt 0.208334 0.892713
vt 0.052598 0.974605
vt 0.052598 0.974605
vt 0.052598 0.949605
vt 0.052598 0.949605
vt 0.052598 0.974605
vt 0.052598 0.974605
vt 0.052598 0.949605
vt 0.052598 0.949605
vt 0.052598 0.974605
vt 0.052598 0.974605
vt 0.052598 0.949605
vt 0.052598 0.949605
vt 0.052598 0.974605
vt 0.052598 0.949605
vt 0.052598 0.949605
vt 0.052598 0.974605
vt 0.052598 0.974605
vt 0.052598 0.949605
vt 0.052598 0.974605
vt 0.052598 0.949605
vt 0.052598 0.974605
vt 0.052598 0.949605
vt 0.052598 0.974605
vt 0.052598 0.949605
vt 0.052598 0.974605
vt 0.052598 0.949605
vt 0.052598 0.949605
vt 0.052598 0.949605
vt 0.052598 0.974605
vt 0.052598 0.949605
vt 0.052598 0.974605
vt 0.052598 0.949605
vt 0.052598 0.974605
vt 0.052598 0.949605
vt 0.052598 0.974605
vt 0.052598 0.949605
vt 0.052598 0.974605
vt 0.195733 0.975855
vt 0.295971 0.883449
vt 0.195733 0.962056
vt 0.295971 0.869650
vt 0.195733 0.975855
vt 0.295971 0.883449
vt 0.195733 0.962057
vt 0.295971 0.869650
vt 0.195733 0.977926
vt 0.295971 0.885519
vt 0.195733 0.959986
vt 0.295971 0.867580
vt 0.195733 0.968956
vt 0.295971 0.876550
vt 0.195733 0.968956
vt 0.295971 0.876550
vt 0.295971 0.876550
vt 0.295971 0.864050
vt 0.295971 0.876550
vt 0.295971 0.889050
vt 0.295971 0.889050
vt 0.295971 0.889050
vt 0.295971 0.864050
vt 0.295971 0.864050
vt 0.295971 0.876550
vt 0.295971 0.864050
vt 0.295971 0.876550
vt 0.295971 0.889050
vt 0.295971 0.889050
vt 0.295971 0.889050
vt 0.295971 0.864050
vt 0.295971 0.864050
vt 0.052598 0.974605
vt 0.052598 0.949605
vt 0.052598 0.974605
vt 0.052598 0.949605
vt 0.052598 0.949605
vt 0.052598 0.974605
vt 0.052598 0.949605
vt 0.052598 0.974605
vt 0.052598 0.949605
vt 0.052598 0.974605
vt 0.052598 0.974605
vt 0.052598 0.949605
vt 0.052598 0.974605
vt 0.052598 0.949605
vt 0.052598 0.949605
vt 0.052598 0.974605
vt 0.052598 0.974605
vt 0.052598 0.949605
vt 0.052598 0.974605
vt 0.052598 0.949605
vt 0.052598 0.949605
vt 0.052598 0.974605
vt 0.052598 0.949605
vt 0.052598 0.974605
vt 0.635341 0.780612
vt 0.635341 0.805612
vt 0.622841 0.780612
vt 0.622841 0.805612
vt 0.635341 0.780612
vt 0.635341 0.805612
vt 0.622841 0.780612
vt 0.622841 0.805612
vt 0.622841 0.805612
vt 0.622841 0.780612
vt 0.635341 0.780612
vt 0.635341 0.805612
vt 0.622841 0.780612
vt 0.622841 0.805612
vt 0.635341 0.780612
vt 0.635341 0.805612
vt 0.635341 0.780612
vt 0.635341 0.805612
vt 0.622841 0.780612
vt 0.622841 0.805612
vt 0.635341 0.780612
vt 0.635341 0.805612
vt 0.622841 0.780612
vt 0.622841 0.805612
vt 0.622841 0.805612
vt 0.622841 0.780612
vt 0.635341 0.780612
vt 0.635341 0.805612
vt 0.622841 0.780612
vt 0.622841 0.805612
vt 0.635341 0.780612
vt 0.635341 0.805612
s 0
usemtl Palette
f 19/19/1 20/20/1 2/2/1 1/1/1
f 21/21/2 3/3/2 4/4/2 22/22/2
f 19/19/3 1/1/3 3/3/3 21/21/3
f 1/1/4 2/2/4 4/4/4 3/3/4
f 2/2/5 20/20/5 22/22/5 4/4/5
f 14/14/6 10/10/6 8/8/6 11/11/6
f 7/7/7 8/8/7 10/10/7 9/9/7
f 5/5/8 7/7/8 9/9/8 6/6/8
f 6/6/9 9/9/9 10/10/9 14/14/9 13/13/9
f 5/5/10 6/6/10 13/13/10 12/12/10
f 11/11/11 12/12/11 13/13/11 14/14/11
f 11/11/12 8/8/12 7/7/12 5/5/12 12/12/12
f 19/19/1 15/15/1 16/16/1 20/20/1
f 21/21/2 22/22/2 18/18/2 17/17/2
f 19/19/13 21/21/13 17/17/13 15/15/13
f 15/15/14 17/17/14 18/18/14 16/16/14
f 16/16/5 18/18/5 22/22/5 20/20/5
f 32/32/6 29/29/6 26/26/6 28/28/6
f 25/25/7 27/27/7 28/28/7 26/26/7
f 23/23/8 24/24/8 27/27/8 25/25/8
f 24/24/15 31/31/15 32/32/15 28/28/15 27/27/15
f 23/23/10 30/30/10 31/31/10 24/24/10
f 29/29/11 32/32/11 31/31/11 30/30/11
f 29/29/16 30/30/16 23/23/16 25/25/16 26/26/16
f 42/42/2 44/44/2 43/43/2 41/41/2
f 39/39/2 37/37/2 38/38/2 40/40/2
f 49/51/2 47/49/2 48/50/2 33/33/2
f 34/34/2 50/52/2 49/51/2 33/33/2
f 45/45/2 52/55/2 51/53/2 46/47/2
f 53/57/2 56/60/2 55/59/2 54/58/2
f 57/61/2 60/64/2 59/63/2 58/62/2
f 38/38/9 37/37/9 61/65/9 62/66/9
f 54/58/17 55/59/17 83/87/17 81/85/17
f 43/43/9 44/44/9 74/78/9 73/77/9
f 34/34/15 33/33/15 63/67/15 64/68/15
f 55/59/9 56/60/9 84/88/9 83/87/9
f 44/44/18 42/42/18 72/76/18 74/78/18
f 40/40/17 38/38/17 62/66/17 65/69/17
f 56/60/18 53/57/18 82/86/18 84/88/18
f 45/46/15 46/48/15 75/79/15 76/80/15
f 57/61/15 58/62/15 85/89/15 86/90/15
f 33/33/15 48/50/15 77/81/15 63/67/15
f 58/62/17 59/63/17 87/91/17 85/89/17
f 48/50/17 47/49/17 78/82/17 77/81/17
f 133/145/15 134/146/15 136/148/15 135/147/15
f 59/63/9 60/64/9 88/92/9 87/91/9
f 47/49/9 49/51/9 66/70/9 78/82/9
f 50/52/18 34/34/18 64/68/18 67/71/18
f 60/64/18 57/61/18 86/90/18 88/92/18
f 37/37/18 39/39/18 68/72/18 61/65/18
f 115/127/18 50/52/18 67/71/18 113/125/18
f 35/35/15 36/36/15 69/73/15 70/74/15
f 39/39/15 40/40/15 65/69/15 68/72/15
f 46/48/17 51/54/17 79/83/17 75/79/17
f 120/132/18 35/35/18 70/74/18 118/130/18
f 51/54/9 52/56/9 80/84/9 79/83/9
f 130/142/15 129/141/15 131/143/15 132/144/15
f 52/56/18 45/46/18 76/80/18 80/84/18
f 42/42/15 41/41/15 71/75/15 72/76/15
f 53/57/15 54/58/15 81/85/15 82/86/15
f 41/41/17 43/43/17 73/77/17 71/75/17
f 110/122/19 102/114/19 97/109/19 105/117/19
f 93/101/2 89/93/2 95/105/2 90/95/2 94/103/2 92/99/2 96/107/2 91/97/2
f 111/123/20 103/115/20 104/116/20 112/124/20
f 106/118/21 98/110/21 103/115/21 111/123/21
f 107/119/22 99/111/22 100/112/22 108/120/22
f 112/124/23 104/116/23 99/111/23 107/119/23
f 108/120/24 100/112/24 101/113/24 109/121/24
f 109/121/25 101/113/25 102/114/25 110/122/25
f 105/117/26 97/109/26 98/110/26 106/118/26
f 95/106/2 105/117/2 106/118/2 90/96/2
f 96/108/2 107/119/2 108/120/2 91/98/2
f 93/102/2 109/121/2 110/122/2 89/94/2
f 94/104/2 111/123/2 112/124/2 92/100/2
f 91/98/2 108/120/2 109/121/2 93/102/2
f 90/96/2 106/118/2 111/123/2 94/104/2
f 89/94/2 110/122/2 105/117/2 95/106/2
f 92/100/2 112/124/2 107/119/2 96/108/2
f 36/36/17 119/131/17 117/129/17 69/73/17
f 118/130/9 117/129/9 119/131/9 120/132/9
f 35/35/2 120/132/2 119/131/2 36/36/2
f 114/126/9 116/128/9 115/127/9 113/125/9
f 49/51/17 116/128/17 114/126/17 66/70/17
f 50/52/2 115/127/2 116/128/2 49/51/2
f 131/143/2 122/134/2 121/133/2 132/144/2
f 136/148/2 123/135/2 124/136/2 135/147/2
f 124/136/9 123/135/9 125/137/9 126/138/9
f 132/144/17 121/133/17 127/139/17 130/142/17
f 121/133/9 122/134/9 128/140/9 127/139/9
f 135/147/17 124/136/17 126/138/17 133/145/17
f 123/135/18 136/148/18 134/146/18 125/137/18
f 122/134/18 131/143/18 129/141/18 128/140/18
f 139/151/1 137/149/1 138/150/1 140/152/1
f 143/155/1 141/153/1 142/154/1 144/156/1
f 159/171/1 157/169/1 158/170/1 160/172/1
f 155/167/1 153/165/1 154/166/1 156/168/1
f 139/151/27 146/158/27 147/159/27 137/149/27
f 141/153/9 151/163/9 152/164/9 142/154/9
f 144/156/15 150/162/15 149/161/15 143/155/15
f 137/149/9 147/159/9 148/160/9 138/150/9
f 140/152/15 145/157/15 146/158/15 139/151/15
f 142/154/28 152/164/28 150/162/28 144/156/28
f 143/155/27 149/161/27 151/163/27 141/153/27
f 138/150/28 148/160/28 145/157/28 140/152/28
f 155/167/27 162/174/27 163/175/27 153/165/27
f 157/169/9 167/179/9 168/180/9 158/170/9
f 160/172/15 166/178/15 165/177/15 159/171/15
f 153/165/9 163/175/9 164/176/9 154/166/9
f 156/168/15 161/173/15 162/174/15 155/167/15
f 158/170/28 168/180/28 166/178/28 160/172/28
f 159/171/27 165/177/27 167/179/27 157/169/27
f 154/166/28 164/176/28 161/173/28 156/168/28
