# Blender 3.4.1
# www.blender.org
mtllib Microwave_Door.mtl
o Microwave_Door
v 0.594711 0.471927 -0.011950
v 0.594711 0.020205 -0.011950
v 0.594711 0.471927 0.011752
v 0.594711 0.020205 0.011752
v 0.509219 0.128819 -0.011950
v 0.509219 0.363313 -0.011950
v 0.093196 0.128819 -0.011950
v 0.093196 0.363313 -0.011950
v 0.093196 0.128819 0.011752
v 0.093196 0.363313 0.011752
v 0.509219 0.128819 0.011752
v 0.509219 0.363313 0.011752
v 0.042115 0.416503 0.011752
v 0.042115 0.075629 0.011752
v 0.594711 0.416503 0.011752
v 0.594711 0.075629 0.011752
v -0.011110 0.452324 -0.011950
v 0.008493 0.471927 -0.011950
v 0.002468 0.457788 -0.011950
v -0.009894 0.463066 -0.011950
v -0.002249 0.470711 -0.011950
v 0.008493 0.020205 -0.011950
v -0.011110 0.039809 -0.011950
v 0.002468 0.034345 -0.011950
v -0.002249 0.021422 -0.011950
v -0.009894 0.029066 -0.011950
v 0.008493 0.471927 0.011752
v -0.011110 0.452324 0.011752
v 0.002468 0.457788 0.011752
v -0.002249 0.470711 0.011752
v -0.009894 0.463066 0.011752
v -0.011110 0.039809 0.011752
v 0.008493 0.020205 0.011752
v 0.002468 0.034345 0.011752
v -0.009894 0.029066 0.011752
v -0.002249 0.021422 0.011752
v 0.534099 0.075296 0.012589
v 0.534099 0.416836 0.012589
v 0.578412 0.416836 0.012589
v 0.578412 0.075296 0.012589
v 0.534099 0.416836 0.003013
v 0.578412 0.416836 0.003013
v 0.534099 0.075296 0.003013
v 0.578412 0.075296 0.003013
v 0.534099 0.366489 0.043189
v 0.534099 0.394917 0.035338
v 0.534099 0.379308 0.041537
v 0.534099 0.097215 0.035338
v 0.534099 0.125643 0.043189
v 0.534099 0.112824 0.041537
v 0.578412 0.394917 0.035338
v 0.578412 0.366489 0.043189
v 0.578412 0.379308 0.041537
v 0.578412 0.125643 0.043189
v 0.578412 0.097215 0.035338
v 0.578412 0.112824 0.041537
v 0.578412 0.112824 0.031961
v 0.578412 0.125643 0.033613
v 0.534099 0.125643 0.033613
v 0.534099 0.112824 0.031961
v 0.578412 0.097215 0.025763
v 0.534099 0.097215 0.025763
v 0.578412 0.379308 0.031961
v 0.578412 0.394917 0.025763
v 0.534099 0.394917 0.025763
v 0.534099 0.379308 0.031961
v 0.578412 0.366489 0.033613
v 0.534099 0.366489 0.033613
vn -0.0000 -0.0000 -1.0000
vn -0.0000 -0.0000 1.0000
vn -0.0000 -1.0000 -0.0000
vn -0.0000 1.0000 -0.0000
vn 1.0000 -0.0000 -0.0000
vn -0.0405 0.7182 -0.6946
vn -0.0405 0.7182 0.6946
vn 0.5774 0.5774 0.5774
vn 0.5774 0.5774 -0.5774
vn -1.0000 -0.0000 -0.0000
vn 0.5774 -0.5774 -0.5774
vn 0.5774 -0.5774 0.5774
vn -0.0405 -0.7182 0.6946
vn -0.0405 -0.7182 -0.6946
vn -0.7182 -0.0405 -0.6946
vn -0.7182 -0.0405 0.6946
vn -0.7182 0.0405 0.6946
vn -0.7182 0.0405 -0.6946
vn -0.6923 0.3336 0.6398
vn -0.6923 0.3336 -0.6398
vn -0.3336 0.6923 0.6398
vn -0.3336 0.6923 -0.6398
vn -0.3336 -0.6923 0.6398
vn -0.3336 -0.6923 -0.6398
vn -0.6923 -0.3336 0.6398
vn -0.6923 -0.3336 -0.6398
vn -0.0000 -0.7201 -0.6938
vn -0.6625 0.4174 0.6220
vn 0.6625 0.4174 0.6220
vn 0.6318 0.7189 0.2900
vn -0.6318 0.7189 0.2900
vn -0.6318 -0.7189 0.2900
vn 0.6318 -0.7189 0.2900
vn 0.6625 -0.4174 0.6220
vn -0.6625 -0.4174 0.6220
vn 0.6930 -0.0462 0.7195
vn -0.6930 -0.0462 0.7195
vn -0.6801 -0.1836 0.7098
vn 0.6801 -0.1836 0.7098
vn -0.6801 0.1836 0.7098
vn 0.6801 0.1836 0.7098
vn -0.6930 0.0462 0.7195
vn 0.6930 0.0462 0.7195
vn -0.0000 0.7201 -0.6938
vn -0.0000 0.1278 -0.9918
vn -0.0000 0.3690 -0.9294
vn -0.0000 -0.3690 -0.9294
vn -0.0000 -0.1278 -0.9918
vt 0.613308 0.810511
vt 0.613308 0.810511
vt 0.613308 0.810511
vt 0.613308 0.810511
vt 0.613308 0.810010
vt 0.619508 0.797609
vt 0.619508 0.797609
vt 0.613308 0.810010
vt 0.613308 0.806665
vt 0.619508 0.794264
vt 0.619508 0.794264
vt 0.613308 0.806665
vt 0.619508 0.794264
vt 0.086691 0.559106
vt 0.619508 0.794264
vt 0.086691 0.904988
vt 0.619508 0.797609
vt 0.700329 0.559106
vt 0.619508 0.797609
vt 0.700329 0.904988
vt 0.011347 0.983444
vt 0.613308 0.806415
vt 0.011347 0.480650
vt 0.613308 0.806415
vt 0.826431 0.983444
vt 0.613308 0.810511
vt 0.613308 0.810255
vt 0.826431 0.480650
vt 0.613308 0.810511
vt 0.613308 0.806155
vt 0.613308 0.806155
vt 0.613308 0.806296
vt 0.613308 0.806222
vt 0.613308 0.806155
vt 0.613308 0.806219
vt 0.613308 0.806296
vt 0.613308 0.806155
vt 0.613308 0.806222
vt 0.613308 0.806219
vt 0.613308 0.806155
vt 0.613308 0.806296
vt 0.613308 0.806155
vt 0.613308 0.806222
vt 0.613308 0.806219
vt 0.613308 0.806155
vt 0.613308 0.806155
vt 0.613308 0.806155
vt 0.613308 0.806296
vt 0.613308 0.806221
vt 0.613308 0.806155
vt 0.613308 0.806219
vt 0.222512 0.901581
vt 0.222512 0.856708
vt 0.214691 0.856708
vt 0.214691 0.901581
vt 0.222512 0.856708
vt 0.214691 0.856708
vt 0.222512 0.901581
vt 0.214691 0.901581
vt 0.222512 0.872860
vt 0.222512 0.867828
vt 0.222512 0.871665
vt 0.222512 0.890461
vt 0.222512 0.885428
vt 0.222512 0.886623
vt 0.214691 0.867828
vt 0.214691 0.872860
vt 0.214691 0.871665
vt 0.214691 0.885428
vt 0.214691 0.890461
vt 0.214691 0.886623
vt 0.214691 0.886623
vt 0.214691 0.885428
vt 0.222512 0.885428
vt 0.222512 0.886623
vt 0.214691 0.890461
vt 0.222512 0.890461
vt 0.214691 0.871665
vt 0.214691 0.867828
vt 0.222512 0.867828
vt 0.222512 0.871665
vt 0.214691 0.872860
vt 0.222512 0.872860
s 0
usemtl Palette
f 1/1/1 2/2/1 5/5/1 6/8/1
f 15/26/2 3/3/2 27/41/2 29/43/2 13/22/2
f 6/7/3 12/19/3 10/15/3 8/11/3
f 5/6/4 7/10/4 9/13/4 11/17/4
f 2/2/1 22/36/1 24/38/1 7/9/1 5/5/1
f 1/1/5 3/3/5 15/26/5
s 1
f 18/32/6 27/41/7 3/3/8 1/1/9
s 0
f 7/9/1 24/38/1 23/37/1 17/30/1 19/33/1 8/12/1
f 10/15/5 9/13/5 7/10/5 8/11/5
f 6/7/10 5/6/10 11/17/10 12/19/10
f 16/27/2 14/24/2 34/49/2 33/48/2 4/4/2
s 1
f 2/2/11 4/4/12 33/48/13 22/36/14
f 23/37/15 32/46/16 28/42/17 17/30/18
s 0
f 15/26/5 16/29/5 2/2/5 1/1/5
f 2/2/5 16/29/5 4/4/5
f 13/22/2 29/43/2 28/42/2 32/46/2 34/49/2 14/24/2
f 17/30/1 20/34/1 19/33/1
f 20/34/1 21/35/1 19/33/1
f 21/35/1 18/31/1 19/33/1
f 22/36/1 25/39/1 24/38/1
f 25/39/1 26/40/1 24/38/1
f 26/40/1 23/37/1 24/38/1
f 27/41/2 30/44/2 29/43/2
f 30/44/2 31/45/2 29/43/2
f 31/45/2 28/42/2 29/43/2
f 32/46/2 35/50/2 34/49/2
f 35/50/2 36/51/2 34/49/2
f 36/51/2 33/47/2 34/49/2
s 1
f 17/30/18 28/42/17 31/45/19 20/34/20
f 20/34/20 31/45/19 30/44/21 21/35/22
f 21/35/22 30/44/21 27/41/7 18/32/6
f 22/36/14 33/48/13 36/51/23 25/39/24
f 25/39/24 36/51/23 35/50/25 26/40/26
f 26/40/26 35/50/25 32/46/16 23/37/15
s 0
f 8/12/1 19/33/1 18/32/1 1/1/1 6/8/1
f 65/80/27 41/56/27 42/57/27 64/79/27
s 1
f 46/61/28 51/66/29 39/54/30 38/53/31
f 37/52/32 40/55/33 55/70/34 48/63/35
f 54/69/36 49/64/37 50/65/38 56/71/39
f 56/71/39 50/65/38 48/63/35 55/70/34
f 51/66/29 46/61/28 47/62/40 53/68/41
f 53/68/41 47/62/40 45/60/42 52/67/43
f 49/64/37 54/69/36 52/67/43 45/60/42
s 0
f 43/58/44 62/77/44 61/76/44 44/59/44
f 58/73/45 57/72/45 60/75/45 59/74/45
f 57/72/46 61/76/46 62/77/46 60/75/46
f 64/79/47 63/78/47 66/81/47 65/80/47
f 63/78/48 67/82/48 68/83/48 66/81/48
f 59/74/1 68/83/1 67/82/1 58/73/1
f 46/61/10 65/80/10 66/81/10 47/62/10
f 49/64/10 59/74/10 60/75/10 50/65/10
f 51/66/5 64/79/5 42/57/5 39/54/5
f 48/63/10 62/77/10 43/58/10 37/52/10
f 52/67/5 67/82/5 63/78/5 53/68/5
f 55/70/5 61/76/5 57/72/5 56/71/5
f 40/55/5 44/59/5 61/76/5 55/70/5
f 47/62/10 66/81/10 68/83/10 45/60/10
f 50/65/10 60/75/10 62/77/10 48/63/10
f 45/60/10 68/83/10 59/74/10 49/64/10
f 37/52/3 43/58/3 44/59/3 40/55/3
f 53/68/5 63/78/5 64/79/5 51/66/5
f 56/71/5 57/72/5 58/73/5 54/69/5
f 54/69/5 58/73/5 67/82/5 52/67/5
f 39/54/4 42/57/4 41/56/4 38/53/4
f 38/53/10 41/56/10 65/80/10 46/61/10
usemtl Microwave
f 9/14/2 14/23/2 16/28/2 11/18/2
f 10/16/2 13/21/2 14/23/2 9/14/2
f 12/20/2 15/25/2 13/21/2 10/16/2
f 11/18/2 16/28/2 15/25/2 12/20/2
