# Blender 3.4.1
# www.blender.org
mtllib Microwave.mtl
o Microwave
v -0.340314 0.425131 0.223316
v -0.340314 0.067002 0.223316
v 0.223809 0.425131 0.223316
v 0.256180 0.471927 -0.251031
v 0.256180 0.020205 -0.251031
v 0.223809 0.067002 0.223316
v 0.256180 0.471927 0.249899
v 0.256180 0.020205 0.249899
v 0.256180 0.471927 0.223316
v 0.256180 0.020205 0.223316
v -0.340314 0.067002 -0.196007
v -0.340314 0.425131 -0.196007
v 0.223809 0.425131 -0.196007
v 0.223809 0.067002 -0.196007
v 0.321832 0.000000 0.139827
v 0.321832 0.049054 0.139827
v 0.341378 0.000000 0.149240
v 0.341378 0.049054 0.149240
v 0.346205 0.000000 0.170390
v 0.346205 0.049054 0.170390
v 0.332679 0.000000 0.187352
v 0.332679 0.049054 0.187352
v 0.310985 0.000000 0.187352
v 0.310985 0.049054 0.187352
v 0.297459 0.000000 0.170390
v 0.297459 0.049054 0.170390
v 0.302286 0.000000 0.149240
v 0.302286 0.049054 0.149240
v -0.319561 0.000000 0.139827
v -0.319561 0.049054 0.139827
v -0.300015 0.000000 0.149240
v -0.300015 0.049054 0.149240
v -0.295188 0.000000 0.170390
v -0.295188 0.049054 0.170390
v -0.308714 0.000000 0.187352
v -0.308714 0.049054 0.187352
v -0.330408 0.000000 0.187352
v -0.330408 0.049054 0.187352
v -0.343934 0.000000 0.170390
v -0.343934 0.049054 0.170390
v -0.339107 0.000000 0.149240
v -0.339107 0.049054 0.149240
v 0.321832 0.000000 -0.205624
v 0.321832 0.049054 -0.205624
v 0.341378 0.000000 -0.196211
v 0.341378 0.049054 -0.196211
v 0.346205 0.000000 -0.175061
v 0.346205 0.049054 -0.175061
v 0.332679 0.000000 -0.158100
v 0.332679 0.049054 -0.158100
v 0.310985 0.000000 -0.158100
v 0.310985 0.049054 -0.158100
v 0.297459 0.000000 -0.175061
v 0.297459 0.049054 -0.175061
v 0.302286 0.000000 -0.196211
v 0.302286 0.049054 -0.196211
v -0.319561 0.000000 -0.205624
v -0.319561 0.049054 -0.205624
v -0.300015 0.000000 -0.196211
v -0.300015 0.049054 -0.196211
v -0.295188 0.000000 -0.175061
v -0.295188 0.049054 -0.175061
v -0.308714 0.000000 -0.158100
v -0.308714 0.049054 -0.158100
v -0.330408 0.000000 -0.158100
v -0.330408 0.049054 -0.158100
v -0.343934 0.000000 -0.175061
v -0.343934 0.049054 -0.175061
v -0.339107 0.000000 -0.196211
v -0.339107 0.049054 -0.196211
v 0.272499 0.327932 0.243499
v 0.342817 0.327932 0.243499
v 0.342817 0.363192 0.243499
v 0.272499 0.363192 0.243499
v 0.275527 0.330618 0.254570
v 0.339789 0.330618 0.254570
v 0.339789 0.360506 0.254570
v 0.275527 0.360506 0.254570
v 0.272499 0.327932 0.254570
v 0.272499 0.363192 0.254570
v 0.342817 0.327932 0.254570
v 0.342817 0.363192 0.254570
v -0.108061 0.062800 -0.131013
v -0.050793 0.062800 -0.140333
v -0.050793 0.087883 -0.140333
v -0.108061 0.087883 -0.131013
v -0.002072 0.062800 -0.131077
v 0.047788 0.062800 -0.101406
v 0.047788 0.087883 -0.101406
v -0.002072 0.087883 -0.131077
v 0.079162 0.062800 -0.062998
v 0.098285 0.062800 -0.008219
v 0.098285 0.087883 -0.008219
v 0.079162 0.087883 -0.062998
v 0.097630 0.062800 0.041369
v 0.077068 0.062800 0.095624
v 0.077068 0.087883 0.095624
v 0.097630 0.087883 0.041369
v 0.044691 0.062800 0.133190
v -0.005935 0.062800 0.161535
v -0.005935 0.087883 0.161535
v 0.044691 0.087883 0.133190
v -0.054884 0.062800 0.169501
v -0.111885 0.062800 0.158672
v -0.111885 0.087883 0.158672
v -0.054884 0.087883 0.169501
v -0.154502 0.062800 0.133311
v -0.191208 0.062800 0.088376
v -0.191208 0.087883 0.088376
v -0.154502 0.087883 0.133311
v -0.207553 0.062800 0.041555
v -0.206787 0.062800 -0.016461
v -0.206787 0.087883 -0.016461
v -0.207553 0.087883 0.041555
v -0.189211 0.062800 -0.062835
v -0.151333 0.062800 -0.106786
v -0.151333 0.087883 -0.106786
v -0.189211 0.087883 -0.062835
v 0.256180 0.075629 0.249899
v 0.256180 0.416503 0.249899
v 0.356222 0.416503 0.249899
v 0.356222 0.075629 0.249899
v 0.347301 0.471927 0.223316
v 0.366904 0.452324 0.223316
v 0.358043 0.470711 0.223316
v 0.365688 0.463066 0.223316
v 0.347301 0.471927 -0.251031
v 0.366904 0.452324 -0.251031
v 0.358043 0.470711 -0.251031
v 0.365688 0.463066 -0.251031
v -0.357926 0.452324 -0.251031
v -0.338323 0.471927 -0.251031
v -0.356710 0.463066 -0.251031
v -0.349065 0.470711 -0.251031
v 0.366904 0.039809 0.223316
v 0.347301 0.020205 0.223316
v 0.365688 0.029066 0.223316
v 0.358043 0.021422 0.223316
v -0.338323 0.020205 -0.251031
v -0.357926 0.039809 -0.251031
v -0.349065 0.021422 -0.251031
v -0.356710 0.029066 -0.251031
v 0.366904 0.039809 -0.251031
v 0.347301 0.020205 -0.251031
v 0.365688 0.029066 -0.251031
v 0.358043 0.021422 -0.251031
v 0.366904 0.452324 0.249899
v 0.347301 0.471927 0.249899
v 0.363194 0.452678 0.249899
v 0.365688 0.463066 0.249899
v 0.358043 0.470711 0.249899
v 0.347301 0.020205 0.249899
v 0.366904 0.039809 0.249899
v 0.363194 0.039455 0.249899
v 0.358043 0.021422 0.249899
v 0.365688 0.029066 0.249899
v -0.357926 0.039809 0.223316
v -0.338323 0.020205 0.223316
v -0.351021 0.038553 0.223316
v -0.356710 0.029066 0.223316
v -0.349065 0.021422 0.223316
v -0.338323 0.471927 0.223316
v -0.357926 0.452324 0.223316
v -0.351021 0.453580 0.223316
v -0.349065 0.470711 0.223316
v -0.356710 0.463066 0.223316
vn -0.0405 0.7182 0.6946
vn -0.3015 0.9045 0.3015
vn -0.0000 0.7071 -0.7071
vn -0.0405 0.7182 -0.6946
vn -0.0000 1.0000 -0.0000
vn -0.0000 -0.0000 -1.0000
vn 0.9984 0.0563 -0.0000
vn 0.7182 0.0405 0.6946
vn 0.7182 -0.0405 0.6946
vn 0.9984 -0.0563 -0.0000
vn 0.0563 0.9984 -0.0000
vn 0.0405 0.7182 -0.6946
vn -0.0405 -0.7182 0.6946
vn -0.0405 -0.7182 -0.6946
vn -0.0000 -0.7071 -0.7071
vn -0.3015 -0.9045 0.3015
vn -0.0000 -0.0000 1.0000
vn 0.0563 -0.9984 -0.0000
vn 0.0405 -0.7182 0.6946
vn -0.5774 -0.5774 0.5774
vn -0.7182 -0.0405 0.6946
vn -0.7182 0.0405 0.6946
vn -0.7182 0.0405 -0.6946
vn -0.7182 -0.0405 -0.6946
vn 0.7182 -0.0405 -0.6946
vn 0.7182 0.0405 -0.6946
vn -1.0000 -0.0000 -0.0000
vn 0.0405 -0.7182 -0.6946
vn 1.0000 -0.0000 -0.0000
vn -0.0000 -1.0000 -0.0000
vn -0.6326 -0.0000 -0.7745
vn -0.4696 0.6700 -0.5749
vn -0.2447 0.6700 -0.7009
vn -0.3296 -0.0000 -0.9441
vn 0.9870 -0.0000 -0.1606
vn 0.7327 0.6700 -0.1192
vn 0.7293 0.6700 0.1385
vn 0.9824 -0.0000 0.1866
vn 0.8593 -0.0000 0.5114
vn 0.6379 0.6700 0.3796
vn 0.4696 0.6700 0.5749
vn 0.6326 -0.0000 0.7745
vn 0.3296 -0.0000 0.9441
vn 0.2447 0.6700 0.7009
vn -0.0098 0.6700 0.7423
vn -0.0132 -0.0000 0.9999
vn -0.3544 -0.0000 0.9351
vn -0.2631 0.6700 0.6942
vn -0.4846 0.6700 0.5623
vn -0.6528 -0.0000 0.7575
vn -0.8726 -0.0000 0.4885
vn -0.6477 0.6700 0.3626
vn -0.7327 0.6700 0.1192
vn -0.9870 -0.0000 0.1606
vn -0.9824 -0.0000 -0.1866
vn -0.7293 0.6700 -0.1385
vn -0.6379 0.6700 -0.3796
vn -0.8593 -0.0000 -0.5114
vn 0.6528 -0.0000 -0.7575
vn 0.4846 0.6700 -0.5623
vn 0.6477 0.6700 -0.3626
vn 0.8726 -0.0000 -0.4885
vn -0.0000 -0.6212 -0.7836
vn 0.7818 -0.0000 -0.6235
vn 0.6127 -0.6212 -0.4886
vn 0.9749 -0.0000 0.2225
vn 0.7640 -0.6212 0.1744
vn 0.4339 -0.0000 0.9010
vn 0.3400 -0.6212 0.7060
vn -0.4339 -0.0000 0.9010
vn -0.3400 -0.6212 0.7060
vn -0.9749 -0.0000 0.2225
vn -0.7640 -0.6212 0.1744
vn -0.7818 -0.0000 -0.6235
vn -0.6127 -0.6212 -0.4886
vn 0.0098 0.6700 -0.7423
vn 0.0132 -0.0000 -0.9999
vn 0.3544 -0.0000 -0.9351
vn 0.2631 0.6700 -0.6942
vn 0.4341 0.9009 -0.0000
vn 0.3336 0.6923 -0.6398
vn 0.9009 0.4341 -0.0000
vn 0.6923 0.3336 -0.6398
vn -0.3336 0.6923 -0.6398
vn -0.3336 0.6923 0.6398
vn -0.6923 0.3336 -0.6398
vn -0.6923 0.3336 0.6398
vn -0.6923 -0.3336 -0.6398
vn -0.6923 -0.3336 0.6398
vn -0.3336 -0.6923 -0.6398
vn -0.3336 -0.6923 0.6398
vn 0.9009 -0.4341 -0.0000
vn 0.6923 -0.3336 -0.6398
vn 0.4341 -0.9009 -0.0000
vn 0.3336 -0.6923 -0.6398
vn 0.0405 0.7182 0.6946
vn 0.3336 0.6923 0.6398
vn 0.6923 0.3336 0.6398
vn 0.6923 -0.3336 0.6398
vn 0.3336 -0.6923 0.6398
vn -0.5774 0.5774 0.5774
vt 0.604593 0.807762
vt 0.645011 0.779367
vt 0.604593 0.807762
vt 0.645011 0.779366
vt 0.604593 0.809630
vt 0.645011 0.781234
vt 0.604593 0.808913
vt 0.631463 0.788244
vt 0.631463 0.788244
vt 0.604593 0.809630
vt 0.645011 0.781234
vt 0.604593 0.809785
vt 0.604593 0.809785
vt 0.604593 0.809785
vt 0.631463 0.789116
vt 0.604593 0.809785
vt 0.645011 0.779366
vt 0.645011 0.779367
vt 0.645011 0.781234
vt 0.645011 0.781234
vt 0.224601 0.855041
vt 0.195554 0.855041
vt 0.224601 0.884089
vt 0.195554 0.884089
vt 0.220452 0.855041
vt 0.220452 0.884089
vt 0.216302 0.855041
vt 0.216302 0.884089
vt 0.212152 0.855041
vt 0.212152 0.884089
vt 0.208003 0.855041
vt 0.208003 0.884089
vt 0.203853 0.855041
vt 0.203853 0.884089
vt 0.199703 0.855041
vt 0.199703 0.884089
vt 0.224601 0.855041
vt 0.195554 0.855041
vt 0.224601 0.884089
vt 0.195554 0.884089
vt 0.220452 0.855041
vt 0.220452 0.884089
vt 0.216302 0.855041
vt 0.216302 0.884089
vt 0.212152 0.855041
vt 0.212152 0.884089
vt 0.208003 0.855041
vt 0.208003 0.884089
vt 0.203853 0.855041
vt 0.203853 0.884089
vt 0.199703 0.855041
vt 0.199703 0.884089
vt 0.224601 0.855041
vt 0.195554 0.855041
vt 0.224601 0.884089
vt 0.195554 0.884089
vt 0.220452 0.855041
vt 0.220452 0.884089
vt 0.216302 0.855041
vt 0.216302 0.884089
vt 0.212152 0.855041
vt 0.212152 0.884089
vt 0.208003 0.855041
vt 0.208003 0.884089
vt 0.203853 0.855041
vt 0.203853 0.884089
vt 0.199703 0.855041
vt 0.199703 0.884089
vt 0.224601 0.855041
vt 0.195554 0.855041
vt 0.224601 0.884089
vt 0.195554 0.884089
vt 0.220452 0.855041
vt 0.220452 0.884089
vt 0.216302 0.855041
vt 0.216302 0.884089
vt 0.212152 0.855041
vt 0.212152 0.884089
vt 0.208003 0.855041
vt 0.208003 0.884089
vt 0.203853 0.855041
vt 0.203853 0.884089
vt 0.199703 0.855041
vt 0.199703 0.884089
vt 0.194219 0.956869
vt 0.194219 0.959047
vt 0.194219 0.959047
vt 0.194219 0.956869
vt 0.616317 0.793410
vt 0.210195 0.961323
vt 0.616317 0.795394
vt 0.210195 0.963307
vt 0.616317 0.795394
vt 0.210195 0.963307
vt 0.616317 0.793410
vt 0.210195 0.961323
vt 0.194219 0.956869
vt 0.210195 0.961226
vt 0.194219 0.956869
vt 0.210195 0.961226
vt 0.194219 0.959047
vt 0.210195 0.963404
vt 0.194219 0.959047
vt 0.210195 0.963404
vt 0.054801 0.956310
vt 0.052880 0.951480
vt 0.050972 0.952615
vt 0.052594 0.956643
vt 0.049794 0.948205
vt 0.045058 0.945901
vt 0.044371 0.948039
vt 0.048381 0.949919
vt 0.040536 0.945476
vt 0.035266 0.946575
vt 0.036044 0.948676
vt 0.040520 0.947715
vt 0.031323 0.948768
vt 0.028004 0.952813
vt 0.029925 0.953954
vt 0.032706 0.950545
vt 0.026617 0.957119
vt 0.026786 0.962410
vt 0.028973 0.961989
vt 0.028797 0.957563
vt 0.028447 0.966602
vt 0.032029 0.970413
vt 0.033423 0.968657
vt 0.030385 0.965489
vt 0.036124 0.972342
vt 0.041450 0.973046
vt 0.041403 0.970805
vt 0.036893 0.970246
vt 0.045910 0.972249
vt 0.050381 0.969488
vt 0.048938 0.967766
vt 0.045177 0.970114
vt 0.053105 0.965851
vt 0.054801 0.960795
vt 0.052607 0.960418
vt 0.051205 0.964685
vt 0.837448 0.480650
vt 0.604593 0.809785
vt 0.837448 0.983444
vt 0.604593 0.809785
vt 0.985011 0.983444
vt 0.604593 0.811722
vt 0.985011 0.480650
vt 0.604593 0.811722
vt 0.604593 0.811578
vt 0.604593 0.811963
vt 0.604593 0.811789
vt 0.604593 0.811963
vt 0.631463 0.790416
vt 0.604593 0.811085
vt 0.631463 0.790883
vt 0.604593 0.811552
vt 0.631463 0.790672
vt 0.604593 0.811341
vt 0.631463 0.790873
vt 0.604593 0.811542
vt 0.631463 0.785605
vt 0.604593 0.806275
vt 0.631463 0.785689
vt 0.604593 0.806359
vt 0.631463 0.785607
vt 0.604593 0.806276
vt 0.631463 0.785643
vt 0.604593 0.806313
vt 0.604593 0.811963
vt 0.631463 0.790908
vt 0.604593 0.811578
vt 0.604593 0.811963
vt 0.604593 0.811789
vt 0.631463 0.785689
vt 0.604593 0.806359
vt 0.631463 0.785605
vt 0.604593 0.806275
vt 0.631463 0.785643
vt 0.604593 0.806313
vt 0.631463 0.785607
vt 0.604593 0.806276
vt 0.631463 0.790883
vt 0.604593 0.811552
vt 0.631463 0.790416
vt 0.604593 0.811085
vt 0.631463 0.790873
vt 0.604593 0.811543
vt 0.631463 0.790672
vt 0.604593 0.811341
vt 0.604593 0.811963
vt 0.604593 0.811963
vt 0.604593 0.811578
vt 0.604593 0.811879
vt 0.604593 0.811963
vt 0.604593 0.811963
vt 0.604593 0.811789
vt 0.604593 0.811578
vt 0.604593 0.811963
vt 0.604593 0.811879
vt 0.604593 0.811789
vt 0.604593 0.811963
vt 0.604593 0.807608
vt 0.631463 0.787008
vt 0.604593 0.807677
vt 0.604593 0.807668
vt 0.604593 0.807608
vt 0.604593 0.807639
vt 0.604593 0.807677
vt 0.604593 0.807608
vt 0.604593 0.807668
vt 0.604593 0.807639
vt 0.604593 0.807608
s 1
usemtl Palette
f 162/208/1 9/14/2 4/7/3 132/164/4
s 0
f 6/11/5 14/20/5 11/17/5 2/4/5
f 139/174/6 141/178/6 142/180/6 140/176/6 131/161/6 133/165/6 134/167/6 132/163/6 4/8/6 5/9/6
s 1
f 124/150/7 147/190/8 153/198/9 135/169/10
f 9/14/2 123/149/11 127/154/12 4/7/3
f 158/203/13 139/174/14 5/9/15 10/15/16
s 0
f 121/146/17 149/193/17 148/192/17 7/12/17 120/144/17
s 1
f 136/171/18 152/197/19 8/13/20 10/16/16
f 157/202/21 163/209/22 131/162/23 140/177/24
f 143/183/25 128/156/26 124/150/7 135/169/10
s 0
f 1/1/17 164/210/17 163/209/17 157/202/17 159/205/17 2/3/17
f 10/16/27 8/13/27 119/142/27
f 5/9/6 4/8/6 127/153/6 129/157/6 130/159/6 128/155/6 143/182/6 145/186/6 146/188/6 144/184/6
s 1
f 10/15/16 5/9/15 144/184/28 136/170/18
s 0
f 2/3/17 159/205/17 158/204/17 10/16/17 6/10/17
f 3/5/17 9/14/17 162/208/17 164/210/17 1/1/17
f 6/10/17 10/16/17 9/14/17 3/5/17
f 14/20/17 13/19/17 12/18/17 11/17/17
f 2/4/29 11/17/29 12/18/29 1/2/29
f 3/6/27 13/19/27 14/20/27 6/11/27
f 1/2/30 12/18/30 13/19/30 3/6/30
s 1
f 116/138/31 117/139/32 86/108/33 83/105/34
f 92/114/35 93/115/36 98/120/37 95/117/38
f 96/118/39 97/119/40 102/124/41 99/121/42
f 100/122/43 101/123/44 106/128/45 103/125/46
f 104/126/47 105/127/48 110/132/49 107/129/50
f 108/130/51 109/131/52 114/136/53 111/133/54
f 112/134/55 113/135/56 118/140/57 115/137/58
s 0
f 85/107/5 86/108/5 117/139/5 118/140/5 113/135/5 114/136/5 109/131/5 110/132/5 105/127/5 106/128/5 101/123/5 102/124/5 97/119/5 98/120/5 93/115/5 94/116/5 89/111/5 90/112/5
s 1
f 88/110/59 89/111/60 94/116/61 91/113/62
f 15/21/63 16/23/6 18/26/64 17/25/65
f 17/25/65 18/26/64 20/28/66 19/27/67
f 19/27/67 20/28/66 22/30/68 21/29/69
f 21/29/69 22/30/68 24/32/70 23/31/71
f 23/31/71 24/32/70 26/34/72 25/33/73
f 25/33/73 26/34/72 28/36/74 27/35/75
f 27/35/75 28/36/74 16/24/6 15/22/63
s 0
f 17/25/30 19/27/30 21/29/30 23/31/30 25/33/30 27/35/30 15/22/30
s 1
f 29/37/63 30/39/6 32/42/64 31/41/65
f 31/41/65 32/42/64 34/44/66 33/43/67
f 33/43/67 34/44/66 36/46/68 35/45/69
f 35/45/69 36/46/68 38/48/70 37/47/71
f 37/47/71 38/48/70 40/50/72 39/49/73
f 39/49/73 40/50/72 42/52/74 41/51/75
f 41/51/75 42/52/74 30/40/6 29/38/63
s 0
f 31/41/30 33/43/30 35/45/30 37/47/30 39/49/30 41/51/30 29/38/30
s 1
f 43/53/63 44/55/6 46/58/64 45/57/65
f 45/57/65 46/58/64 48/60/66 47/59/67
f 47/59/67 48/60/66 50/62/68 49/61/69
f 49/61/69 50/62/68 52/64/70 51/63/71
f 51/63/71 52/64/70 54/66/72 53/65/73
f 53/65/73 54/66/72 56/68/74 55/67/75
f 55/67/75 56/68/74 44/56/6 43/54/63
s 0
f 45/57/30 47/59/30 49/61/30 51/63/30 53/65/30 55/67/30 43/54/30
s 1
f 57/69/63 58/71/6 60/74/64 59/73/65
f 59/73/65 60/74/64 62/76/66 61/75/67
f 61/75/67 62/76/66 64/78/68 63/77/69
f 63/77/69 64/78/68 66/80/70 65/79/71
f 65/79/71 66/80/70 68/82/72 67/81/73
f 67/81/73 68/82/72 70/84/74 69/83/75
f 69/83/75 70/84/74 58/72/6 57/70/63
s 0
f 59/73/30 61/75/30 63/77/30 65/79/30 67/81/30 69/83/30 57/70/30
f 81/101/29 72/86/29 73/87/29 82/103/29
f 80/99/27 74/88/27 71/85/27 79/97/27
f 82/103/5 73/87/5 74/88/5 80/99/5
f 79/97/30 71/85/30 72/86/30 81/101/30
f 76/91/17 77/93/17 78/95/17 75/89/17
f 78/96/17 80/100/17 79/98/17 75/90/17
f 75/90/17 79/98/17 81/102/17 76/92/17
f 76/92/17 81/102/17 82/104/17 77/94/17
f 77/94/17 82/104/17 80/100/17 78/96/17
s 1
f 83/105/34 86/108/33 85/107/76 84/106/77
f 89/111/60 88/110/59 87/109/78 90/112/79
f 93/115/36 92/114/35 91/113/62 94/116/61
f 97/119/40 96/118/39 95/117/38 98/120/37
f 101/123/44 100/122/43 99/121/42 102/124/41
f 105/127/48 104/126/47 103/125/46 106/128/45
f 109/131/52 108/130/51 107/129/50 110/132/49
f 113/135/56 112/134/55 111/133/54 114/136/53
f 117/139/32 116/138/31 115/137/58 118/140/57
f 84/106/77 85/107/76 90/112/79 87/109/78
s 0
f 122/148/17 154/199/17 153/198/17 147/190/17 149/193/17 121/146/17
f 152/197/17 154/199/17 122/148/17 119/142/17 8/13/17
f 119/142/27 120/144/27 9/14/27 10/16/27
f 9/14/27 120/144/27 7/12/27
f 147/190/17 150/194/17 149/193/17
f 150/194/17 151/195/17 149/193/17
f 151/195/17 148/191/17 149/193/17
f 152/197/17 155/200/17 154/199/17
f 155/200/17 156/201/17 154/199/17
f 156/201/17 153/198/17 154/199/17
f 157/202/17 160/206/17 159/205/17
f 160/206/17 161/207/17 159/205/17
f 161/207/17 158/204/17 159/205/17
f 162/208/17 165/211/17 164/210/17
f 165/211/17 166/212/17 164/210/17
f 166/212/17 163/209/17 164/210/17
s 1
f 127/154/12 123/149/11 125/151/80 129/158/81
f 129/158/81 125/151/80 126/152/82 130/160/83
f 130/160/83 126/152/82 124/150/7 128/156/26
f 162/208/1 132/164/4 134/168/84 165/211/85
f 165/211/85 134/168/84 133/166/86 166/212/87
f 166/212/87 133/166/86 131/162/23 163/209/22
f 157/202/21 140/177/24 142/181/88 160/206/89
f 160/206/89 142/181/88 141/179/90 161/207/91
f 161/207/91 141/179/90 139/175/14 158/204/13
f 143/183/25 135/169/10 137/172/92 145/187/93
f 145/187/93 137/172/92 138/173/94 146/189/95
f 146/189/95 138/173/94 136/171/18 144/185/28
f 123/149/11 148/192/96 151/196/97 125/151/80
f 125/151/80 151/196/97 150/194/98 126/152/82
f 126/152/82 150/194/98 147/190/8 124/150/7
f 135/169/10 153/198/9 156/201/99 137/172/92
f 137/172/92 156/201/99 155/200/100 138/173/94
f 138/173/94 155/200/100 152/197/19 136/171/18
f 9/14/2 7/12/101 148/192/96 123/149/11
s 0
usemtl Microwave
f 119/141/17 122/147/17 121/145/17 120/143/17
