# Blender 3.4.1
# www.blender.org
mtllib Mirror_2.mtl
o Mirror_2
v 0.327448 0.507408 0.000000
v -0.327447 0.507408 0.000000
v 0.327446 -0.351843 0.000000
v -0.327447 -0.351843 0.000000
v 0.308196 0.488156 0.111314
v -0.308195 0.488156 0.111314
v -0.308195 -0.339991 0.111314
v 0.308194 -0.339991 0.111314
v 0.327448 0.507408 0.111314
v -0.327447 0.507408 0.111314
v -0.311745 -0.364140 0.111314
v 0.311744 -0.364140 0.111314
v 0.308196 0.488156 0.073845
v -0.308195 0.488156 0.073845
v -0.308195 -0.339991 0.073845
v 0.308194 -0.339991 0.073845
v -0.327447 -0.510048 0.000000
v 0.327446 -0.510048 0.000000
v -0.311745 -0.494346 0.111314
v 0.311744 -0.494346 0.111314
v -0.327447 -0.351843 0.111314
v 0.327446 -0.351843 0.111314
v -0.327447 -0.510048 0.111314
v 0.327446 -0.510048 0.111314
v -0.311745 -0.364140 0.022781
v 0.311744 -0.364140 0.022781
v -0.311745 -0.494346 0.022781
v 0.311744 -0.494346 0.022781
vn -0.0000 -0.0000 -1.0000
vn -1.0000 -0.0000 -0.0000
vn 1.0000 -0.0000 -0.0000
vn -0.0000 1.0000 -0.0000
vn -0.0000 -0.0000 1.0000
vn -0.0000 -1.0000 -0.0000
vt 0.886672 0.613131
vt 0.557235 0.714595
vt 0.886672 0.608589
vt 0.557235 0.710053
vt 0.557235 0.714596
vt 0.886672 0.613131
vt 0.886672 0.608589
vt 0.557235 0.710053
vt 0.557235 0.714462
vt 0.557235 0.710187
vt 0.557235 0.710187
vt 0.557235 0.714462
vt 0.557235 0.714595
vt 0.557235 0.710053
vt 0.557235 0.710162
vt 0.871047 0.624323
vt 0.557235 0.714487
vt 0.871047 0.628648
vt 0.027070 0.877004
vt 0.557235 0.714462
vt 0.027070 0.872729
vt 0.557235 0.710187
vt 0.027070 0.872729
vt 0.557235 0.710187
vt 0.027070 0.877004
vt 0.557235 0.714462
vt 0.886672 0.608589
vt 0.557235 0.710053
vt 0.557235 0.714596
vt 0.886672 0.613131
vt 0.557235 0.710162
vt 0.871047 0.624323
vt 0.557235 0.714487
vt 0.871047 0.628648
vt 0.557235 0.710053
vt 0.557235 0.714596
vt 0.557235 0.710053
vt 0.557235 0.714596
vt 0.727818 0.626927
vt 0.871047 0.624323
vt 0.727818 0.631252
vt 0.871047 0.628648
vt 0.727818 0.626927
vt 0.871047 0.624323
vt 0.727818 0.631252
vt 0.871047 0.628648
s 0
usemtl Palette
f 3/6/1 4/7/1 2/3/1 1/1/1
f 5/9/2 13/20/2 16/26/2 8/12/2
f 22/36/3 24/38/3 18/29/3 3/5/3
f 4/8/2 21/35/2 10/14/2 2/4/2
f 1/2/3 9/13/3 22/36/3 3/5/3
f 2/4/4 10/14/4 9/13/4 1/2/4
f 5/9/5 9/13/5 10/14/5 6/10/5
f 6/10/5 10/14/5 21/35/5 7/11/5
f 8/12/5 22/36/5 9/13/5 5/9/5
f 7/11/5 21/35/5 22/36/5 8/12/5
f 16/25/5 13/19/5 14/21/5 15/23/5
f 6/10/6 14/22/6 13/20/6 5/9/6
f 8/12/4 16/26/4 15/24/4 7/11/4
f 7/11/3 15/24/3 14/22/3 6/10/3
f 18/29/6 24/38/6 23/37/6 17/28/6
f 12/18/2 26/42/2 28/46/2 20/34/2
f 3/6/1 18/30/1 17/27/1 4/7/1
f 4/8/2 17/28/2 23/37/2 21/35/2
f 12/17/5 22/36/5 21/35/5 11/15/5
f 19/31/5 23/37/5 24/38/5 20/33/5
f 20/33/5 24/38/5 22/36/5 12/17/5
f 11/15/5 21/35/5 23/37/5 19/31/5
f 25/39/5 27/43/5 28/45/5 26/41/5
f 11/16/6 25/40/6 26/42/6 12/18/6
f 19/32/3 27/44/3 25/40/3 11/16/3
f 20/34/4 28/46/4 27/44/4 19/32/4
