# Blender 3.4.1
# www.blender.org
mtllib Modern_Shelves.mtl
o Modern_Shelves
v -0.569432 0.398446 0.137835
v 0.569432 0.398446 0.137835
v 0.622485 0.398446 0.137835
v 0.622485 0.398446 -0.137835
v 0.622485 0.098445 -0.137835
v 0.622485 0.098445 0.137835
v 0.622485 0.032063 -0.137835
v 0.622485 0.032063 0.137835
v 0.622485 0.464828 0.137835
v 0.622485 0.464828 -0.137835
v 0.569432 0.032063 0.137835
v -0.582160 1.238292 -0.080769
v -0.622485 0.098445 -0.137835
v -0.622485 0.098445 0.137835
v -0.622485 0.032063 -0.137835
v -0.622485 0.032063 0.137835
v -0.609755 1.238292 -0.080769
v 0.569432 0.032063 -0.137835
v 0.569432 0.098445 -0.137835
v -0.609755 0.063240 -0.080769
v -0.582160 0.063240 -0.080769
v 0.569432 0.098445 0.137835
v -0.622485 0.464828 -0.137835
v -0.622485 0.464828 0.137835
v -0.622485 0.398446 -0.137835
v -0.622485 0.398446 0.137835
v -0.569432 0.398446 -0.137835
v 0.569432 0.398446 -0.137835
v 0.569432 0.464828 -0.137835
v -0.569432 0.464828 -0.137835
v -0.569432 0.464828 0.137835
v 0.569432 0.464828 0.137835
v -0.569432 0.764828 0.137835
v 0.569432 0.764828 0.137835
v 0.622485 0.764828 0.137835
v 0.622485 0.764828 -0.137835
v 0.622485 0.831211 0.137835
v 0.622485 0.831211 -0.137835
v -0.622485 0.831211 -0.137835
v -0.622485 0.831211 0.137835
v -0.622485 0.764828 -0.137835
v -0.622485 0.764828 0.137835
v -0.569432 0.764828 -0.137835
v 0.569432 0.764828 -0.137835
v 0.569432 0.831211 -0.137835
v -0.569432 0.831211 -0.137835
v -0.569432 0.831211 0.137835
v 0.569432 0.831211 0.137835
v -0.569432 1.131211 0.137835
v 0.569432 1.131211 0.137835
v 0.622485 1.131211 0.137835
v 0.622485 1.131211 -0.137835
v 0.622485 1.197593 0.137835
v 0.622485 1.197593 -0.137835
v -0.622485 1.197593 -0.137835
v -0.622485 1.197593 0.137835
v -0.622485 1.131211 -0.137835
v -0.622485 1.131211 0.137835
v -0.569432 1.131211 -0.137835
v 0.569432 1.131211 -0.137835
v 0.569432 1.197593 -0.137835
v -0.569432 1.197593 -0.137835
v -0.569432 1.197593 0.137835
v 0.569432 1.197593 0.137835
v -0.569432 1.497593 0.137835
v -0.609755 1.238292 0.080769
v 0.622485 1.497593 0.137835
v 0.622485 1.497593 -0.137835
v 0.622485 1.563975 0.137835
v 0.622485 1.563975 -0.137835
v -0.622485 1.563975 -0.137835
v -0.622485 1.563975 0.137835
v -0.622485 1.497593 -0.137835
v -0.622485 1.497593 0.137835
v -0.569432 1.497593 -0.137835
v -0.582160 1.238292 0.080769
v -0.582160 0.063240 0.080769
v -0.569432 1.563975 -0.137835
v -0.569432 1.563975 0.137835
v -0.609755 0.063240 0.080769
v 0.609756 1.526671 -0.080769
v 0.582161 1.526671 -0.080769
v 0.582161 0.351619 -0.080769
v 0.609755 0.351619 -0.080769
v 0.582161 1.526671 0.080769
v 0.609756 1.526671 0.080769
v 0.609755 0.351619 0.080769
v 0.582161 0.351619 0.080769
v 0.212847 0.002076 0.108644
v -0.601822 0.002076 -0.108644
v -0.601822 0.002076 0.108644
v 0.212847 0.002076 -0.108644
v -0.601822 0.038340 -0.108644
v -0.601822 0.038340 0.108644
v 0.212847 0.038340 0.108644
v 0.212847 0.038340 -0.108644
vn -0.0000 -1.0000 -0.0000
vn -0.0000 -0.0000 -1.0000
vn 1.0000 -0.0000 -0.0000
vn -0.0000 1.0000 -0.0000
vn -0.0000 -0.0000 1.0000
vn -1.0000 -0.0000 -0.0000
vt 0.553910 0.718064
vt 0.553910 0.718064
vt 0.553910 0.718064
vt 0.553910 0.701676
vt 0.553910 0.701676
vt 0.553910 0.718064
vt 0.553910 0.701676
vt 0.553910 0.718064
vt 0.553910 0.718064
vt 0.553910 0.701676
vt 0.553910 0.718064
vt 0.134242 0.971477
vt 0.553910 0.701676
vt 0.553910 0.718064
vt 0.553910 0.701676
vt 0.553910 0.718064
vt 0.134242 0.971477
vt 0.553910 0.701676
vt 0.553910 0.701676
vt 0.134242 0.971477
vt 0.134242 0.971477
vt 0.553910 0.718064
vt 0.553910 0.701676
vt 0.553910 0.718064
vt 0.553910 0.701676
vt 0.553910 0.718064
vt 0.553910 0.701676
vt 0.553910 0.701676
vt 0.553910 0.701676
vt 0.553910 0.701676
vt 0.553910 0.718064
vt 0.553910 0.718064
vt 0.553910 0.718064
vt 0.553910 0.718064
vt 0.553910 0.718064
vt 0.553910 0.701676
vt 0.553910 0.718064
vt 0.553910 0.701676
vt 0.553910 0.701676
vt 0.553910 0.718064
vt 0.553910 0.701676
vt 0.553910 0.718064
vt 0.553910 0.701676
vt 0.553910 0.701676
vt 0.553910 0.701676
vt 0.553910 0.701676
vt 0.553910 0.718064
vt 0.553910 0.718064
vt 0.553910 0.718064
vt 0.553910 0.718064
vt 0.553910 0.718064
vt 0.553910 0.701676
vt 0.553910 0.718064
vt 0.553910 0.701676
vt 0.553910 0.701676
vt 0.553910 0.718064
vt 0.553910 0.701676
vt 0.553910 0.718064
vt 0.553910 0.701676
vt 0.553910 0.701676
vt 0.553910 0.701676
vt 0.553910 0.701676
vt 0.553910 0.718064
vt 0.553910 0.718064
vt 0.553910 0.718064
vt 0.134242 0.971477
vt 0.553910 0.718064
vt 0.553910 0.701676
vt 0.553910 0.718064
vt 0.553910 0.701676
vt 0.553910 0.701676
vt 0.553910 0.718064
vt 0.553910 0.701676
vt 0.553910 0.718064
vt 0.553910 0.701676
vt 0.134242 0.971477
vt 0.134242 0.971477
vt 0.553910 0.701676
vt 0.553910 0.718064
vt 0.134242 0.971477
vt 0.134242 0.971477
vt 0.134242 0.971477
vt 0.134242 0.971477
vt 0.134242 0.971477
vt 0.134242 0.971477
vt 0.134242 0.971477
vt 0.134242 0.971477
vt 0.134242 0.971477
vt 0.127680 0.964915
vt 0.127680 0.948527
vt 0.127680 0.964915
vt 0.127680 0.948527
vt 0.127680 0.948527
vt 0.127680 0.964915
vt 0.127680 0.964915
vt 0.127680 0.948527
s 0
usemtl Palette
f 18/18/1 11/11/1 16/16/1 15/15/1
f 5/5/2 7/7/2 18/18/2 19/19/2
f 19/19/2 18/18/2 15/15/2 13/13/2
f 8/8/3 7/7/3 5/5/3 6/6/3
f 10/10/2 4/4/2 28/28/2 29/29/2
f 70/70/4 78/78/4 79/79/4 69/69/4
f 31/31/5 24/24/5 26/26/5 1/1/5
f 7/7/1 8/8/1 11/11/1 18/18/1
f 16/16/6 14/14/6 13/13/6 15/15/6
f 6/6/3 5/5/3 4/4/3 3/3/3
f 6/6/5 22/22/5 11/11/5 8/8/5
f 66/66/6 17/17/6 20/20/6 80/80/6
f 22/22/5 14/14/5 16/16/5 11/11/5
f 30/30/2 27/27/2 25/25/2 23/23/2
f 3/3/3 4/4/3 10/10/3 9/9/3
f 29/29/2 28/28/2 27/27/2 30/30/2
f 27/27/1 1/1/1 26/26/1 25/25/1
f 38/38/2 45/45/2 60/60/2 52/52/2
f 26/26/6 24/24/6 23/23/6 25/25/6
f 9/9/4 10/10/4 29/29/4 32/32/4
f 9/9/5 32/32/5 2/2/5 3/3/5
f 28/28/1 2/2/1 1/1/1 27/27/1
f 32/32/5 31/31/5 1/1/5 2/2/5
f 32/32/4 29/29/4 30/30/4 31/31/4
f 24/24/5 31/31/5 33/33/5 42/42/5
f 38/38/2 36/36/2 44/44/2 45/45/2
f 47/47/5 40/40/5 42/42/5 33/33/5
f 46/46/2 43/43/2 41/41/2 39/39/2
f 35/35/3 36/36/3 38/38/3 37/37/3
f 45/45/2 44/44/2 43/43/2 46/46/2
f 56/56/5 63/63/5 65/65/5 74/74/5
f 36/36/1 35/35/1 34/34/1 44/44/1
f 42/42/6 40/40/6 39/39/6 41/41/6
f 48/48/5 37/37/5 51/51/5 50/50/5
f 37/37/5 48/48/5 34/34/5 35/35/5
f 44/44/1 34/34/1 33/33/1 43/43/1
f 48/48/5 47/47/5 33/33/5 34/34/5
f 48/48/4 45/45/4 46/46/4 47/47/4
f 47/47/4 46/46/4 39/39/4 40/40/4
f 54/54/2 52/52/2 60/60/2 61/61/2
f 63/63/5 56/56/5 58/58/5 49/49/5
f 62/62/2 59/59/2 57/57/2 55/55/2
f 51/51/3 52/52/3 54/54/3 53/53/3
f 61/61/2 60/60/2 59/59/2 62/62/2
f 59/59/1 49/49/1 58/58/1 57/57/1
f 58/58/6 56/56/6 55/55/6 57/57/6
f 53/53/4 54/54/4 61/61/4 64/64/4
f 53/53/5 64/64/5 50/50/5 51/51/5
f 60/60/1 50/50/1 49/49/1 59/59/1
f 64/64/5 63/63/5 49/49/5 50/50/5
f 64/64/4 61/61/4 62/62/4 63/63/4
f 63/63/3 62/62/3 75/75/3 65/65/3
f 67/67/1 65/65/1 75/75/1 68/68/1
f 79/79/5 72/72/5 74/74/5 65/65/5
f 78/78/2 75/75/2 73/73/2 71/71/2
f 67/67/3 68/68/3 70/70/3 69/69/3
f 19/19/4 13/13/4 14/14/4 22/22/4
f 69/69/5 79/79/5 65/65/5 67/67/5
f 74/74/6 72/72/6 71/71/6 73/73/6
f 75/75/2 78/78/2 70/70/2 68/68/2
f 80/80/5 77/77/5 76/76/5 66/66/5
f 77/77/3 21/21/3 12/12/3 76/76/3
f 20/20/2 17/17/2 12/12/2 21/21/2
f 79/79/4 78/78/4 71/71/4 72/72/4
f 23/23/6 24/24/6 42/42/6 41/41/6
f 22/22/5 6/6/5 3/3/5 2/2/5
f 19/19/6 22/22/6 2/2/6 28/28/6
f 5/5/2 19/19/2 28/28/2 4/4/2
f 31/31/3 30/30/3 43/43/3 33/33/3
f 30/30/2 23/23/2 41/41/2 43/43/2
f 45/45/6 48/48/6 50/50/6 60/60/6
f 37/37/3 38/38/3 52/52/3 51/51/3
f 55/55/6 56/56/6 74/74/6 73/73/6
f 62/62/2 55/55/2 73/73/2 75/75/2
f 85/85/6 82/82/6 83/83/6 88/88/6
f 88/88/5 87/87/5 86/86/5 85/85/5
f 87/87/3 84/84/3 81/81/3 86/86/3
f 83/83/2 82/82/2 81/81/2 84/84/2
f 92/92/1 89/89/1 91/91/1 90/90/1
f 90/90/2 93/93/2 96/96/2 92/92/2
f 92/92/3 96/96/3 95/95/3 89/89/3
f 89/89/5 95/95/5 94/94/5 91/91/5
f 91/91/6 94/94/6 93/93/6 90/90/6
