# Blender 3.4.1
# www.blender.org
mtllib Oven_Door.mtl
o Oven_Door
v 0.316911 0.631663 0.023611
v 0.316911 0.162541 0.023611
v 0.316911 0.631663 0.007186
v 0.316911 0.162541 0.007186
v 0.431778 0.785758 0.023611
v 0.431778 0.008446 0.023611
v 0.431778 0.785758 0.007186
v 0.431778 0.008446 0.007186
v 0.325680 0.729335 0.018145
v 0.325680 0.770808 0.018145
v 0.343409 0.729335 0.018145
v 0.343409 0.770808 0.018145
v 0.288406 0.770808 0.077174
v 0.325680 0.770808 0.041771
v 0.313563 0.770808 0.064972
v 0.325680 0.729335 0.041771
v 0.288406 0.729335 0.077174
v 0.313563 0.729335 0.064972
v 0.343409 0.770808 0.048313
v 0.298122 0.770808 0.093599
v 0.328998 0.770808 0.079273
v 0.298122 0.729335 0.093599
v 0.343409 0.729335 0.048313
v 0.328998 0.729335 0.079273
v 0.355230 0.683069 0.023611
v 0.355230 0.111135 0.023611
v 0.000000 0.631663 0.023611
v -0.316911 0.631663 0.023611
v 0.000000 0.162541 0.023611
v -0.316911 0.162541 0.023611
v 0.000000 0.631663 0.007186
v -0.316911 0.631663 0.007186
v 0.000000 0.162541 0.007186
v -0.316911 0.162541 0.007186
v 0.000000 0.785758 0.023611
v -0.431778 0.785758 0.023611
v 0.000000 0.008446 0.023611
v -0.431778 0.008446 0.023611
v 0.000000 0.785758 0.007186
v -0.431778 0.785758 0.007186
v 0.000000 0.008446 0.007186
v -0.431778 0.008446 0.007186
v 0.000000 0.770808 0.093599
v 0.000000 0.770808 0.077174
v 0.000000 0.729335 0.093599
v 0.000000 0.729335 0.077174
v -0.325680 0.729335 0.018145
v -0.325680 0.770808 0.018145
v -0.343409 0.729335 0.018145
v -0.343409 0.770808 0.018145
v -0.288406 0.770808 0.077174
v -0.325680 0.770808 0.041771
v -0.313563 0.770808 0.064972
v -0.325680 0.729335 0.041771
v -0.288406 0.729335 0.077174
v -0.313563 0.729335 0.064972
v -0.343409 0.770808 0.048313
v -0.298122 0.770808 0.093599
v -0.328998 0.770808 0.079273
v -0.298122 0.729335 0.093599
v -0.343409 0.729335 0.048313
v -0.328998 0.729335 0.079273
v 0.000000 0.683069 0.023611
v -0.355230 0.683069 0.023611
v -0.355230 0.111135 0.023611
v 0.000000 0.111135 0.023611
vn -1.0000 -0.0000 -0.0000
vn -0.0000 -1.0000 -0.0000
vn 1.0000 -0.0000 -0.0000
vn -0.0000 1.0000 -0.0000
vn -0.0000 -0.0000 1.0000
vn -0.0000 -0.0000 -1.0000
vn -0.0000 0.7071 0.7071
vn -0.0000 -0.7071 0.7071
vn 0.1616 -0.6617 0.7322
vn 0.1616 0.6617 0.7322
vn -0.7320 0.6572 -0.1796
vn -0.7071 0.7071 -0.0000
vn -0.7071 -0.7071 -0.0000
vn -0.7320 -0.6572 -0.1796
vn 0.7322 0.6615 0.1621
vn 0.7322 -0.6615 0.1621
vn 0.7071 -0.7071 -0.0000
vn 0.7071 0.7071 -0.0000
vn -0.1682 0.6600 -0.7322
vn -0.1682 -0.6600 -0.7322
vn -0.0000 -0.7071 -0.7071
vn -0.0000 0.7071 -0.7071
vn -0.5335 -0.6429 -0.5496
vn -0.5335 0.6429 -0.5496
vn 0.5445 0.6374 0.5452
vn 0.5445 -0.6374 0.5452
vn -0.1616 0.6617 0.7322
vn -0.1616 -0.6617 0.7322
vn 0.7320 0.6572 -0.1796
vn 0.7320 -0.6572 -0.1796
vn -0.7322 0.6615 0.1621
vn -0.7322 -0.6615 0.1621
vn 0.1682 0.6600 -0.7322
vn 0.1682 -0.6600 -0.7322
vn 0.5335 0.6429 -0.5496
vn 0.5335 -0.6429 -0.5496
vn -0.5445 -0.6374 0.5452
vn -0.5445 0.6374 0.5452
vt 0.110407 0.960872
vt 0.102139 0.950538
vt 0.110407 0.960872
vt 0.102139 0.950538
vt 0.110407 0.960872
vt 0.114541 0.954671
vt 0.114541 0.954671
vt 0.110407 0.960872
vt 0.294697 0.809425
vt 0.294697 0.809425
vt 0.294697 0.809425
vt 0.114541 0.954671
vt 0.294697 0.809425
vt 0.114541 0.954671
vt 0.294697 0.809425
vt 0.294697 0.809425
vt 0.294697 0.809425
vt 0.294697 0.809425
vt 0.294697 0.809425
vt 0.294697 0.809425
vt 0.294697 0.809425
vt 0.294697 0.809425
vt 0.294697 0.809425
vt 0.294697 0.809425
vt 0.294697 0.809425
vt 0.294697 0.809425
vt 0.294697 0.809425
vt 0.294697 0.809425
vt 0.294697 0.809425
vt 0.294697 0.809425
vt 0.294697 0.809425
vt 0.102139 0.950538
vt 0.294697 0.809425
vt 0.102139 0.950538
vt 0.110407 0.960872
vt 0.102139 0.950538
vt 0.110407 0.960872
vt 0.102139 0.950538
vt 0.110407 0.960872
vt 0.102139 0.950538
vt 0.110407 0.960872
vt 0.102139 0.950538
vt 0.110407 0.960872
vt 0.114541 0.954671
vt 0.110407 0.960872
vt 0.114541 0.954671
vt 0.114541 0.954671
vt 0.110407 0.960872
vt 0.114541 0.954671
vt 0.110407 0.960872
vt 0.294697 0.809425
vt 0.294697 0.809425
vt 0.294697 0.809425
vt 0.294697 0.809425
vt 0.294697 0.809425
vt 0.114541 0.954671
vt 0.294697 0.809425
vt 0.114541 0.954671
vt 0.294697 0.809425
vt 0.114541 0.954671
vt 0.294697 0.809425
vt 0.114541 0.954671
vt 0.294697 0.809425
vt 0.294697 0.809425
vt 0.294697 0.809425
vt 0.294697 0.809425
vt 0.294697 0.809425
vt 0.294697 0.809425
vt 0.294697 0.809425
vt 0.294697 0.809425
vt 0.294697 0.809425
vt 0.294697 0.809425
vt 0.294697 0.809425
vt 0.294697 0.809425
vt 0.294697 0.809425
vt 0.294697 0.809425
vt 0.294697 0.809425
vt 0.294697 0.809425
vt 0.294697 0.809425
vt 0.294697 0.809425
vt 0.294697 0.809425
vt 0.294697 0.809425
vt 0.294697 0.809425
vt 0.102139 0.950538
vt 0.294697 0.809425
vt 0.102139 0.950538
vt 0.294697 0.809425
vt 0.102139 0.950538
vt 0.294697 0.809425
vt 0.102139 0.950538
s 0
usemtl Palette
f 3/5/1 4/8/1 2/3/1 1/1/1
f 31/43/2 3/5/2 1/1/2 27/35/2
f 6/10/2 37/53/2 41/59/2 8/13/2
f 5/9/3 6/10/3 8/13/3 7/11/3
f 35/51/4 5/9/4 7/11/4 39/55/4
f 63/83/5 25/31/5 5/9/5 35/51/5
f 26/33/5 66/89/5 37/53/5 6/10/5
f 25/31/5 26/33/5 6/10/5 5/9/5
f 3/6/6 31/44/6 39/56/6 7/12/6
f 33/47/6 4/7/6 8/14/6 41/60/6
f 4/7/6 3/6/6 7/12/6 8/14/6
f 4/8/4 33/48/4 29/39/4 2/3/4
s 1
f 43/63/7 45/65/8 22/28/9 20/26/10
f 14/20/11 10/16/12 9/15/13 16/22/14
s 0
f 45/65/2 46/66/2 17/23/2 18/24/2 16/22/2 9/15/2 11/17/2 23/29/2 24/30/2 22/28/2
s 1
f 19/25/15 23/29/16 11/17/17 12/18/18
f 13/19/19 17/23/20 46/66/21 44/64/22
f 16/22/14 18/24/23 15/21/24 14/20/11
f 18/24/23 17/23/20 13/19/19 15/21/24
f 19/25/15 21/27/25 24/30/26 23/29/16
f 21/27/25 20/26/10 22/28/9 24/30/26
s 0
f 19/25/4 12/18/4 10/16/4 14/20/4 15/21/4 13/19/4 44/64/4 43/63/4 20/26/4 21/27/4
f 1/2/5 2/4/5 26/34/5 25/32/5
f 2/4/5 29/40/5 66/90/5 26/34/5
f 27/36/5 1/2/5 25/32/5 63/84/5
f 32/45/3 28/37/3 30/41/3 34/50/3
f 31/43/2 27/35/2 28/37/2 32/45/2
f 38/54/2 42/61/2 41/59/2 37/53/2
f 36/52/1 40/57/1 42/61/1 38/54/1
f 35/51/4 39/55/4 40/57/4 36/52/4
f 63/83/5 35/51/5 36/52/5 64/85/5
f 65/87/5 38/54/5 37/53/5 66/89/5
f 64/85/5 36/52/5 38/54/5 65/87/5
f 32/46/6 40/58/6 39/56/6 31/44/6
f 33/47/6 41/60/6 42/62/6 34/49/6
f 34/49/6 42/62/6 40/58/6 32/46/6
f 34/50/4 30/41/4 29/39/4 33/48/4
s 1
f 43/63/7 58/78/27 60/80/28 45/65/8
f 52/72/29 54/74/30 47/67/17 48/68/18
s 0
f 45/65/2 60/80/2 62/82/2 61/81/2 49/69/2 47/67/2 54/74/2 56/76/2 55/75/2 46/66/2
s 1
f 57/77/31 50/70/12 49/69/13 61/81/32
f 51/71/33 44/64/22 46/66/21 55/75/34
f 54/74/30 52/72/29 53/73/35 56/76/36
f 56/76/36 53/73/35 51/71/33 55/75/34
f 57/77/31 61/81/32 62/82/37 59/79/38
f 59/79/38 62/82/37 60/80/28 58/78/27
s 0
f 57/77/4 59/79/4 58/78/4 43/63/4 44/64/4 51/71/4 53/73/4 52/72/4 48/68/4 50/70/4
f 28/38/5 64/86/5 65/88/5 30/42/5
f 30/42/5 65/88/5 66/90/5 29/40/5
f 27/36/5 63/84/5 64/86/5 28/38/5
