# Blender 3.4.1
# www.blender.org
mtllib Oven.mtl
o Oven
v 0.431778 0.000000 -0.408794
v 0.396782 0.097705 0.257552
v 0.396782 0.801091 0.257552
v 0.431778 0.832654 -0.408794
v 0.431778 0.832654 0.257552
v 0.431778 0.000000 0.257552
v 0.355060 0.930402 -0.330813
v 0.194269 0.944482 -0.038336
v 0.158182 0.944482 -0.030100
v 0.129242 0.944482 -0.007021
v 0.113182 0.944482 0.026328
v 0.113182 0.944482 0.063343
v 0.129242 0.944482 0.096692
v 0.158182 0.944482 0.119771
v 0.194269 0.944482 0.128007
v 0.230356 0.944482 0.119771
v 0.259295 0.944482 0.096692
v 0.275355 0.944482 0.063343
v 0.275355 0.944482 0.026328
v 0.259295 0.944482 -0.007021
v 0.230356 0.944482 -0.030100
v 0.158182 0.929280 -0.030100
v 0.194269 0.929280 -0.038336
v 0.129242 0.929280 -0.007021
v 0.113182 0.929280 0.026328
v 0.113182 0.929280 0.063343
v 0.129242 0.929280 0.096692
v 0.158182 0.929280 0.119771
v 0.194269 0.929280 0.128007
v 0.230356 0.929280 0.119771
v 0.259295 0.929280 0.096692
v 0.275355 0.929280 0.063343
v 0.275355 0.929280 0.026328
v 0.259295 0.929280 -0.007021
v 0.230356 0.929280 -0.030100
v 0.194269 0.944482 -0.314367
v 0.149851 0.944482 -0.304229
v 0.114230 0.944482 -0.275822
v 0.094462 0.944482 -0.234774
v 0.094462 0.944482 -0.189213
v 0.114230 0.944482 -0.148165
v 0.149851 0.944482 -0.119758
v 0.194269 0.944482 -0.109620
v 0.238687 0.944482 -0.119758
v 0.274308 0.944482 -0.148165
v 0.294076 0.944482 -0.189213
v 0.294076 0.944482 -0.234774
v 0.274308 0.944482 -0.275822
v 0.238687 0.944482 -0.304229
v 0.149851 0.929280 -0.304229
v 0.194269 0.929280 -0.314367
v 0.114230 0.929280 -0.275822
v 0.094462 0.929280 -0.234774
v 0.094462 0.929280 -0.189213
v 0.114230 0.929280 -0.148165
v 0.149851 0.929280 -0.119758
v 0.194269 0.929280 -0.109620
v 0.238687 0.929280 -0.119758
v 0.274308 0.929280 -0.148165
v 0.294076 0.929280 -0.189213
v 0.294076 0.929280 -0.234774
v 0.274308 0.929280 -0.275822
v 0.238687 0.929280 -0.304229
v 0.355060 0.930402 0.142497
v 0.431778 0.878367 0.257552
v 0.431778 0.939569 0.222218
v 0.431778 0.913702 0.248084
v 0.396782 0.801091 -0.295560
v 0.396782 0.097705 -0.295560
v 0.386397 0.209144 0.219522
v 0.386397 0.228925 0.219522
v 0.386397 0.228925 -0.270452
v 0.386397 0.209144 -0.270452
v 0.410648 0.228925 0.219522
v 0.410648 0.228925 -0.270452
v 0.410648 0.186486 0.219522
v 0.410648 0.186486 -0.270452
v 0.386397 0.497488 0.219522
v 0.386397 0.517269 0.219522
v 0.386397 0.517269 -0.270452
v 0.386397 0.497488 -0.270452
v 0.410648 0.517269 0.219522
v 0.410648 0.517269 -0.270452
v 0.410648 0.474830 0.219522
v 0.410648 0.474830 -0.270452
v 0.431778 0.949037 -0.408794
v 0.431778 0.949037 0.193983
v 0.380729 0.949037 -0.362931
v 0.380729 0.949037 0.174616
v 0.431778 0.949037 -0.408794
v 0.431778 0.949037 -0.378781
v 0.431778 1.011216 -0.408794
v 0.431778 1.001164 -0.378781
v 0.008227 0.965658 -0.374462
v 0.128514 0.965658 -0.374462
v 0.008227 0.984544 -0.374462
v 0.128514 0.984544 -0.374462
v 0.140390 0.965658 -0.374462
v 0.260677 0.965658 -0.374462
v 0.140390 0.984544 -0.374462
v 0.260677 0.984544 -0.374462
v 0.272475 0.965658 -0.374462
v 0.392762 0.965658 -0.374462
v 0.272475 0.984544 -0.374462
v 0.392762 0.984544 -0.374462
v 0.128514 0.965658 -0.392440
v 0.008227 0.965658 -0.392440
v 0.008227 0.984544 -0.392440
v 0.128514 0.984544 -0.392440
v 0.260677 0.965658 -0.392440
v 0.140390 0.965658 -0.392440
v 0.140390 0.984544 -0.392440
v 0.260677 0.984544 -0.392440
v 0.392762 0.965658 -0.392440
v 0.272475 0.965658 -0.392440
v 0.272475 0.984544 -0.392440
v 0.392762 0.984544 -0.392440
v 0.069195 0.920554 0.245745
v 0.069176 0.938656 0.222086
v 0.069176 0.917112 0.243629
v 0.069176 0.946541 0.198571
v 0.069195 0.942097 0.224202
v 0.069195 0.949982 0.200687
v -0.431778 0.000000 -0.408794
v -0.396782 0.097705 0.257552
v -0.396782 0.801091 0.257552
v -0.431778 0.832654 -0.408794
v 0.000000 0.000000 -0.408794
v 0.000000 0.832654 -0.408794
v 0.000000 0.097705 0.257552
v 0.000000 0.949037 -0.362931
v 0.000000 0.801091 0.257552
v 0.000000 0.832654 0.257552
v -0.431778 0.832654 0.257552
v 0.000000 0.000000 0.257552
v -0.431778 0.000000 0.257552
v -0.355060 0.930402 -0.330813
v -0.194269 0.944482 -0.038336
v -0.158182 0.944482 -0.030100
v -0.129242 0.944482 -0.007021
v -0.113182 0.944482 0.026328
v -0.113182 0.944482 0.063343
v -0.129242 0.944482 0.096692
v -0.158182 0.944482 0.119771
v -0.194269 0.944482 0.128007
v -0.230356 0.944482 0.119771
v -0.259295 0.944482 0.096692
v -0.275355 0.944482 0.063343
v -0.275355 0.944482 0.026328
v -0.259295 0.944482 -0.007021
v -0.230356 0.944482 -0.030100
v -0.158182 0.929280 -0.030100
v -0.194269 0.929280 -0.038336
v -0.129242 0.929280 -0.007021
v -0.113182 0.929280 0.026328
v -0.113182 0.929280 0.063343
v -0.129242 0.929280 0.096692
v -0.158182 0.929280 0.119771
v -0.194269 0.929280 0.128007
v -0.230356 0.929280 0.119771
v -0.259295 0.929280 0.096692
v -0.275355 0.929280 0.063343
v -0.275355 0.929280 0.026328
v -0.259295 0.929280 -0.007021
v -0.230356 0.929280 -0.030100
v -0.194269 0.944482 -0.314367
v -0.149851 0.944482 -0.304229
v -0.114230 0.944482 -0.275822
v -0.094462 0.944482 -0.234774
v -0.094462 0.944482 -0.189213
v -0.114230 0.944482 -0.148165
v -0.149851 0.944482 -0.119758
v -0.194269 0.944482 -0.109620
v -0.238687 0.944482 -0.119758
v -0.274308 0.944482 -0.148165
v -0.294076 0.944482 -0.189213
v -0.294076 0.944482 -0.234774
v -0.274308 0.944482 -0.275822
v -0.238687 0.944482 -0.304229
v -0.149851 0.929280 -0.304229
v -0.194269 0.929280 -0.314367
v -0.114230 0.929280 -0.275822
v -0.094462 0.929280 -0.234774
v -0.094462 0.929280 -0.189213
v -0.114230 0.929280 -0.148165
v -0.149851 0.929280 -0.119758
v -0.194269 0.929280 -0.109620
v -0.238687 0.929280 -0.119758
v -0.274308 0.929280 -0.148165
v -0.294076 0.929280 -0.189213
v -0.294076 0.929280 -0.234774
v -0.274308 0.929280 -0.275822
v -0.238687 0.929280 -0.304229
v 0.000000 0.878367 0.257552
v 0.000000 0.949037 0.174616
v 0.000000 0.913702 0.248084
v 0.000000 0.939569 0.222218
v -0.355060 0.930402 0.142497
v -0.431778 0.878367 0.257552
v -0.431778 0.939569 0.222218
v -0.431778 0.913702 0.248084
v 0.000000 0.801091 -0.295560
v 0.000000 0.097705 -0.295560
v -0.396782 0.801091 -0.295560
v -0.396782 0.097705 -0.295560
v -0.386397 0.209144 0.219522
v -0.386397 0.228925 0.219522
v -0.386397 0.228925 -0.270452
v -0.386397 0.209144 -0.270452
v -0.410648 0.228925 0.219522
v -0.410648 0.228925 -0.270452
v -0.410648 0.186486 0.219522
v -0.410648 0.186486 -0.270452
v -0.386397 0.497488 0.219522
v -0.386397 0.517269 0.219522
v -0.386397 0.517269 -0.270452
v -0.386397 0.497488 -0.270452
v -0.410648 0.517269 0.219522
v -0.410648 0.517269 -0.270452
v -0.410648 0.474830 0.219522
v -0.410648 0.474830 -0.270452
v 0.000000 0.949037 -0.408794
v -0.431778 0.949037 -0.408794
v -0.431778 0.949037 0.193983
v 0.000000 0.949037 0.193983
v 0.000000 0.930402 -0.330813
v -0.380729 0.949037 -0.362931
v -0.380729 0.949037 0.174616
v 0.000000 0.930402 0.142497
v 0.000000 0.949037 -0.378781
v 0.000000 0.949037 -0.408794
v -0.431778 0.949037 -0.408794
v -0.431778 0.949037 -0.378781
v 0.000000 1.011216 -0.408794
v -0.431778 1.011216 -0.408794
v 0.000000 1.001164 -0.378781
v -0.431778 1.001164 -0.378781
v -0.008227 0.965658 -0.374462
v -0.128514 0.965658 -0.374462
v -0.008227 0.984544 -0.374462
v -0.128514 0.984544 -0.374462
v -0.140390 0.965658 -0.374462
v -0.260677 0.965658 -0.374462
v -0.140390 0.984544 -0.374462
v -0.260677 0.984544 -0.374462
v -0.272475 0.965658 -0.374462
v -0.392762 0.965658 -0.374462
v -0.272475 0.984544 -0.374462
v -0.392762 0.984544 -0.374462
v -0.128514 0.965658 -0.392440
v -0.008227 0.965658 -0.392440
v -0.008227 0.984544 -0.392440
v -0.128514 0.984544 -0.392440
v -0.260677 0.965658 -0.392440
v -0.140390 0.965658 -0.392440
v -0.140390 0.984544 -0.392440
v -0.260677 0.984544 -0.392440
v -0.392762 0.965658 -0.392440
v -0.272475 0.965658 -0.392440
v -0.272475 0.984544 -0.392440
v -0.392762 0.984544 -0.392440
v 0.000000 0.917112 0.243629
v -0.069195 0.920554 0.245745
v -0.069176 0.938656 0.222086
v -0.069176 0.917112 0.243629
v -0.069176 0.946541 0.198571
v 0.000000 0.946541 0.198571
v 0.000000 0.920554 0.245745
v -0.069195 0.942097 0.224202
v -0.069195 0.949982 0.200687
v 0.000000 0.949982 0.200687
v 0.000000 0.943011 0.224334
vn -0.0000 -1.0000 -0.0000
vn 1.0000 -0.0000 -0.0000
vn -0.0000 -0.0000 -1.0000
vn -0.0000 1.0000 -0.0000
vn -0.0000 -0.0000 1.0000
vn 0.9010 -0.0000 -0.4339
vn -0.9010 -0.0000 0.4339
vn 0.6235 -0.0000 -0.7818
vn -0.6235 -0.0000 0.7818
vn 0.2225 -0.0000 -0.9749
vn -0.2225 -0.0000 0.9749
vn 0.2225 -0.0000 0.9749
vn -0.2225 -0.0000 -0.9749
vn 0.6235 -0.0000 0.7818
vn -0.6235 -0.0000 -0.7818
vn 0.9010 -0.0000 0.4339
vn -0.9010 -0.0000 -0.4339
vn -1.0000 -0.0000 -0.0000
vn -0.0000 0.2588 0.9659
vn -0.0000 0.7071 0.7071
vn -0.0000 0.9481 0.3179
vn -0.6827 -0.7307 -0.0000
vn -0.0000 0.8650 0.5018
vn -0.0000 0.8650 -0.5018
vn -0.5875 0.8092 -0.0000
vn -0.0000 0.9482 0.3176
vn 0.0053 0.6985 0.7155
vn 0.0066 0.9538 0.3005
vn 1.0000 -0.0033 -0.0033
vn -0.0000 -0.5238 0.8518
vn 1.0000 -0.0044 -0.0015
vn -0.0000 0.5238 -0.8518
vn 0.6827 -0.7307 -0.0000
vn 0.5875 0.8092 -0.0000
vn -0.0053 0.6985 0.7155
vn -0.0066 0.9538 0.3005
vn -1.0000 -0.0033 -0.0033
vn -1.0000 -0.0044 -0.0015
vt 0.300898 0.786688
vt 0.300898 0.786688
vt 0.059264 0.963694
vt 0.300898 0.786688
vt 0.059264 0.963694
vt 0.300898 0.786688
vt 0.300898 0.786688
vt 0.300898 0.786688
vt 0.208641 0.803456
vt 0.120090 0.960316
vt 0.120090 0.960316
vt 0.120090 0.960316
vt 0.120090 0.960316
vt 0.120090 0.960316
vt 0.120090 0.960316
vt 0.120090 0.960316
vt 0.120090 0.960316
vt 0.120090 0.960316
vt 0.120090 0.960316
vt 0.120090 0.960316
vt 0.120090 0.960316
vt 0.120090 0.960316
vt 0.120090 0.960316
vt 0.120090 0.960316
vt 0.120090 0.960316
vt 0.120090 0.960316
vt 0.120090 0.960316
vt 0.120090 0.960316
vt 0.120090 0.960316
vt 0.120090 0.960316
vt 0.120090 0.960316
vt 0.120090 0.960316
vt 0.120090 0.960316
vt 0.120090 0.960316
vt 0.120090 0.960316
vt 0.120090 0.960316
vt 0.120090 0.960316
vt 0.120090 0.960316
vt 0.120090 0.960316
vt 0.120090 0.960316
vt 0.120090 0.960316
vt 0.120090 0.960316
vt 0.120090 0.960316
vt 0.120090 0.960316
vt 0.120090 0.960316
vt 0.120090 0.960316
vt 0.120090 0.960316
vt 0.120090 0.960316
vt 0.120090 0.960316
vt 0.120090 0.960316
vt 0.120090 0.960316
vt 0.120090 0.960316
vt 0.120090 0.960316
vt 0.120090 0.960316
vt 0.120090 0.960316
vt 0.120090 0.960316
vt 0.120090 0.960316
vt 0.120090 0.960316
vt 0.120090 0.960316
vt 0.120090 0.960316
vt 0.120090 0.960316
vt 0.120090 0.960316
vt 0.120090 0.960316
vt 0.120090 0.960316
vt 0.120090 0.960316
vt 0.208641 0.803456
vt 0.300898 0.786688
vt 0.300898 0.786688
vt 0.300898 0.786688
vt 0.059264 0.963694
vt 0.059264 0.963694
vt 0.059264 0.963694
vt 0.059264 0.963694
vt 0.059264 0.963694
vt 0.059264 0.963694
vt 0.059264 0.963694
vt 0.059264 0.963694
vt 0.059264 0.963694
vt 0.059264 0.963694
vt 0.059264 0.963694
vt 0.059264 0.963694
vt 0.059264 0.963694
vt 0.059264 0.963694
vt 0.059264 0.963694
vt 0.059264 0.963694
vt 0.059264 0.963694
vt 0.059264 0.963694
vt 0.300898 0.786688
vt 0.300898 0.786688
vt 0.300898 0.786688
vt 0.208641 0.803456
vt 0.300898 0.786688
vt 0.208641 0.803456
vt 0.300898 0.786688
vt 0.300898 0.786688
vt 0.300898 0.786688
vt 0.300898 0.786688
vt 0.124875 0.958805
vt 0.124875 0.958805
vt 0.124875 0.958805
vt 0.124875 0.958805
vt 0.124875 0.958805
vt 0.124875 0.958805
vt 0.124875 0.958805
vt 0.124875 0.958805
vt 0.124875 0.958805
vt 0.124875 0.958805
vt 0.124875 0.958805
vt 0.124875 0.958805
vt 0.124875 0.958805
vt 0.124875 0.958805
vt 0.124875 0.958805
vt 0.124875 0.958805
vt 0.124875 0.958805
vt 0.124875 0.958805
vt 0.124875 0.958805
vt 0.124875 0.958805
vt 0.124875 0.958805
vt 0.124875 0.958805
vt 0.124875 0.958805
vt 0.124875 0.958805
vt 0.110407 0.954671
vt 0.110407 0.954671
vt 0.110407 0.954671
vt 0.110407 0.954671
vt 0.110407 0.954671
vt 0.110407 0.954671
vt 0.300898 0.786688
vt 0.300898 0.786688
vt 0.059264 0.963694
vt 0.300898 0.786688
vt 0.059264 0.963694
vt 0.300898 0.786688
vt 0.300898 0.786688
vt 0.300898 0.786688
vt 0.059264 0.963694
vt 0.300898 0.786688
vt 0.300898 0.786688
vt 0.208641 0.803456
vt 0.300898 0.786688
vt 0.059264 0.963694
vt 0.300898 0.786688
vt 0.300898 0.786688
vt 0.300898 0.786688
vt 0.300898 0.786688
vt 0.208641 0.803456
vt 0.120090 0.960316
vt 0.120090 0.960316
vt 0.120090 0.960316
vt 0.120090 0.960316
vt 0.120090 0.960316
vt 0.120090 0.960316
vt 0.120090 0.960316
vt 0.120090 0.960316
vt 0.120090 0.960316
vt 0.120090 0.960316
vt 0.120090 0.960316
vt 0.120090 0.960316
vt 0.120090 0.960316
vt 0.120090 0.960316
vt 0.120090 0.960316
vt 0.120090 0.960316
vt 0.120090 0.960316
vt 0.120090 0.960316
vt 0.120090 0.960316
vt 0.120090 0.960316
vt 0.120090 0.960316
vt 0.120090 0.960316
vt 0.120090 0.960316
vt 0.120090 0.960316
vt 0.120090 0.960316
vt 0.120090 0.960316
vt 0.120090 0.960316
vt 0.120090 0.960316
vt 0.120090 0.960316
vt 0.120090 0.960316
vt 0.120090 0.960316
vt 0.120090 0.960316
vt 0.120090 0.960316
vt 0.120090 0.960316
vt 0.120090 0.960316
vt 0.120090 0.960316
vt 0.120090 0.960316
vt 0.120090 0.960316
vt 0.120090 0.960316
vt 0.120090 0.960316
vt 0.120090 0.960316
vt 0.120090 0.960316
vt 0.120090 0.960316
vt 0.120090 0.960316
vt 0.120090 0.960316
vt 0.120090 0.960316
vt 0.120090 0.960316
vt 0.120090 0.960316
vt 0.120090 0.960316
vt 0.120090 0.960316
vt 0.120090 0.960316
vt 0.120090 0.960316
vt 0.120090 0.960316
vt 0.120090 0.960316
vt 0.120090 0.960316
vt 0.120090 0.960316
vt 0.300898 0.786688
vt 0.300898 0.786688
vt 0.208641 0.803456
vt 0.300898 0.786688
vt 0.300898 0.786688
vt 0.208641 0.803456
vt 0.300898 0.786688
vt 0.300898 0.786688
vt 0.300898 0.786688
vt 0.059264 0.963694
vt 0.059264 0.963694
vt 0.059264 0.963694
vt 0.059264 0.963694
vt 0.059264 0.963694
vt 0.059264 0.963694
vt 0.059264 0.963694
vt 0.059264 0.963694
vt 0.059264 0.963694
vt 0.059264 0.963694
vt 0.059264 0.963694
vt 0.059264 0.963694
vt 0.059264 0.963694
vt 0.059264 0.963694
vt 0.059264 0.963694
vt 0.059264 0.963694
vt 0.059264 0.963694
vt 0.059264 0.963694
vt 0.059264 0.963694
vt 0.059264 0.963694
vt 0.300898 0.786688
vt 0.300898 0.786688
vt 0.300898 0.786688
vt 0.300898 0.786688
vt 0.208641 0.803456
vt 0.300898 0.786688
vt 0.208641 0.803456
vt 0.300898 0.786688
vt 0.208641 0.803456
vt 0.208641 0.803456
vt 0.300898 0.786688
vt 0.300898 0.786688
vt 0.300898 0.786688
vt 0.300898 0.786688
vt 0.300898 0.786688
vt 0.300898 0.786688
vt 0.300898 0.786688
vt 0.300898 0.786688
vt 0.124875 0.958805
vt 0.124875 0.958805
vt 0.124875 0.958805
vt 0.124875 0.958805
vt 0.124875 0.958805
vt 0.124875 0.958805
vt 0.124875 0.958805
vt 0.124875 0.958805
vt 0.124875 0.958805
vt 0.124875 0.958805
vt 0.124875 0.958805
vt 0.124875 0.958805
vt 0.124875 0.958805
vt 0.124875 0.958805
vt 0.124875 0.958805
vt 0.124875 0.958805
vt 0.124875 0.958805
vt 0.124875 0.958805
vt 0.124875 0.958805
vt 0.124875 0.958805
vt 0.124875 0.958805
vt 0.124875 0.958805
vt 0.124875 0.958805
vt 0.124875 0.958805
vt 0.110407 0.954671
vt 0.110407 0.954671
vt 0.110407 0.954671
vt 0.110407 0.954671
vt 0.110407 0.954671
vt 0.110407 0.954671
vt 0.110407 0.954671
vt 0.110407 0.954671
vt 0.110407 0.954671
vt 0.110407 0.954671
vt 0.110407 0.954671
s 0
usemtl Palette
f 6/8/1 135/144/1 128/134/1 1/1/1
f 6/8/2 1/1/2 4/6/2 5/7/2
f 4/6/3 129/135/3 222/232/3 86/88/3
f 5/7/2 4/6/2 86/88/2 87/89/2 66/68/2 67/69/2 65/67/2
f 1/1/3 128/134/3 129/135/3 4/6/3
f 130/136/4 2/3/4 69/71/4 203/213/4
f 132/140/5 3/4/5 5/7/5 133/142/5
f 2/2/5 130/137/5 135/144/5 6/8/5
f 3/4/5 2/2/5 6/8/5 5/7/5
f 133/142/5 5/7/5 65/67/5 194/203/5
f 9/11/4 10/12/4 11/13/4 12/14/4 13/15/4 14/16/4 15/17/4 16/18/4 17/19/4 18/20/4 19/21/4 20/22/4 21/23/4 8/10/4
f 22/24/1 23/25/1 35/37/1 34/36/1 33/35/1 32/34/1 31/33/1 30/32/1 29/31/1 28/30/1 27/29/1 26/28/1 25/27/1 24/26/1
f 19/21/6 33/35/6 34/36/6 20/22/6
f 12/14/7 26/28/7 27/29/7 13/15/7
f 20/22/8 34/36/8 35/37/8 21/23/8
f 13/15/9 27/29/9 28/30/9 14/16/9
f 21/23/10 35/37/10 23/25/10 8/10/10
f 14/16/11 28/30/11 29/31/11 15/17/11
f 15/17/12 29/31/12 30/32/12 16/18/12
f 8/10/13 23/25/13 22/24/13 9/11/13
f 16/18/14 30/32/14 31/33/14 17/19/14
f 9/11/15 22/24/15 24/26/15 10/12/15
f 17/19/16 31/33/16 32/34/16 18/20/16
f 10/12/17 24/26/17 25/27/17 11/13/17
f 18/20/2 32/34/2 33/35/2 19/21/2
f 11/13/18 25/27/18 26/28/18 12/14/18
f 37/39/4 38/40/4 39/41/4 40/42/4 41/43/4 42/44/4 43/45/4 44/46/4 45/47/4 46/48/4 47/49/4 48/50/4 49/51/4 36/38/4
f 50/52/1 51/53/1 63/65/1 62/64/1 61/63/1 60/62/1 59/61/1 58/60/1 57/59/1 56/58/1 55/57/1 54/56/1 53/55/1 52/54/1
f 47/49/6 61/63/6 62/64/6 48/50/6
f 40/42/7 54/56/7 55/57/7 41/43/7
f 48/50/8 62/64/8 63/65/8 49/51/8
f 41/43/9 55/57/9 56/58/9 42/44/9
f 49/51/10 63/65/10 51/53/10 36/38/10
f 42/44/11 56/58/11 57/59/11 43/45/11
f 43/45/12 57/59/12 58/60/12 44/46/12
f 36/38/13 51/53/13 50/52/13 37/39/13
f 44/46/14 58/60/14 59/61/14 45/47/14
f 37/39/15 50/52/15 52/54/15 38/40/15
f 45/47/16 59/61/16 60/62/16 46/48/16
f 38/40/17 52/54/17 53/55/17 39/41/17
f 46/48/2 60/62/2 61/63/2 47/49/2
f 39/41/18 53/55/18 54/56/18 40/42/18
f 194/203/19 65/67/19 67/69/19 196/206/19
f 196/206/20 67/69/20 66/68/20 197/207/20
f 197/207/21 66/68/21 87/89/21 225/235/21
f 7/9/4 226/236/4 229/241/4 64/66/4
f 203/213/5 69/71/5 68/70/5 202/212/5
f 2/3/18 3/5/18 68/70/18 69/71/18
f 3/5/1 132/141/1 202/212/1 68/70/1
f 70/72/18 71/73/18 72/74/18 73/75/18
f 72/74/3 75/77/3 77/79/3 73/75/3
f 71/73/4 74/76/4 75/77/4 72/74/4
f 73/75/22 77/79/22 76/78/22 70/72/22
f 70/72/5 76/78/5 74/76/5 71/73/5
f 78/80/18 79/81/18 80/82/18 81/83/18
f 80/82/3 83/85/3 85/87/3 81/83/3
f 79/81/4 82/84/4 83/85/4 80/82/4
f 81/83/22 85/87/22 84/86/22 78/80/22
f 78/80/5 84/86/5 82/84/5 79/81/5
f 131/138/4 88/90/4 86/88/4 222/232/4
f 89/92/4 195/204/4 225/235/4 87/89/4
f 88/90/4 89/92/4 87/89/4 86/88/4
f 226/236/23 7/9/23 88/91/23 131/139/23
f 64/66/24 229/241/24 195/205/24 89/93/24
f 7/9/25 64/66/25 89/93/25 88/91/25
f 94/98/5 95/99/5 97/101/5 96/100/5
f 236/248/26 93/97/26 92/96/26 234/246/26
f 91/95/2 90/94/2 92/96/2 93/97/2
f 230/242/5 91/95/5 93/97/5 236/248/5
f 90/94/3 231/243/3 234/246/3 92/96/3
f 98/102/5 99/103/5 101/105/5 100/104/5
f 102/106/5 103/107/5 105/109/5 104/108/5
f 100/104/18 112/116/18 111/115/18 98/102/18
f 98/102/1 111/115/1 110/114/1 99/103/1
f 104/108/18 116/120/18 115/119/18 102/106/18
f 97/101/4 109/113/4 108/112/4 96/100/4
f 94/98/1 107/111/1 106/110/1 95/99/1
f 102/106/1 115/119/1 114/118/1 103/107/1
f 101/105/4 113/117/4 112/116/4 100/104/4
f 95/99/2 106/110/2 109/113/2 97/101/2
f 105/109/4 117/121/4 116/120/4 104/108/4
f 99/103/2 110/114/2 113/117/2 101/105/2
f 96/100/18 108/112/18 107/111/18 94/98/18
f 103/107/2 114/118/2 117/121/2 105/109/2
f 268/280/27 118/122/27 122/126/27 272/284/27
f 272/284/28 122/126/28 123/127/28 271/283/28
f 120/124/29 119/123/29 122/126/29 118/122/29
f 262/274/30 120/124/30 118/122/30 268/280/30
f 119/123/31 121/125/31 123/127/31 122/126/31
f 121/125/32 267/279/32 271/283/32 123/127/32
f 136/145/1 124/128/1 128/134/1 135/144/1
f 136/145/18 134/143/18 127/133/18 124/128/18
f 127/133/3 223/233/3 222/232/3 129/135/3
f 134/143/18 199/209/18 201/211/18 200/210/18 224/234/18 223/233/18 127/133/18
f 124/128/3 127/133/3 129/135/3 128/134/3
f 130/136/4 203/213/4 205/215/4 125/130/4
f 132/140/5 133/142/5 134/143/5 126/131/5
f 125/129/5 136/145/5 135/144/5 130/137/5
f 126/131/5 134/143/5 136/145/5 125/129/5
f 133/142/5 194/203/5 199/209/5 134/143/5
f 139/148/4 138/147/4 151/160/4 150/159/4 149/158/4 148/157/4 147/156/4 146/155/4 145/154/4 144/153/4 143/152/4 142/151/4 141/150/4 140/149/4
f 152/161/1 154/163/1 155/164/1 156/165/1 157/166/1 158/167/1 159/168/1 160/169/1 161/170/1 162/171/1 163/172/1 164/173/1 165/174/1 153/162/1
f 149/158/17 150/159/17 164/173/17 163/172/17
f 142/151/16 143/152/16 157/166/16 156/165/16
f 150/159/15 151/160/15 165/174/15 164/173/15
f 143/152/14 144/153/14 158/167/14 157/166/14
f 151/160/13 138/147/13 153/162/13 165/174/13
f 144/153/12 145/154/12 159/168/12 158/167/12
f 145/154/11 146/155/11 160/169/11 159/168/11
f 138/147/10 139/148/10 152/161/10 153/162/10
f 146/155/9 147/156/9 161/170/9 160/169/9
f 139/148/8 140/149/8 154/163/8 152/161/8
f 147/156/7 148/157/7 162/171/7 161/170/7
f 140/149/6 141/150/6 155/164/6 154/163/6
f 148/157/18 149/158/18 163/172/18 162/171/18
f 141/150/2 142/151/2 156/165/2 155/164/2
f 167/176/4 166/175/4 179/188/4 178/187/4 177/186/4 176/185/4 175/184/4 174/183/4 173/182/4 172/181/4 171/180/4 170/179/4 169/178/4 168/177/4
f 180/189/1 182/191/1 183/192/1 184/193/1 185/194/1 186/195/1 187/196/1 188/197/1 189/198/1 190/199/1 191/200/1 192/201/1 193/202/1 181/190/1
f 177/186/17 178/187/17 192/201/17 191/200/17
f 170/179/16 171/180/16 185/194/16 184/193/16
f 178/187/15 179/188/15 193/202/15 192/201/15
f 171/180/14 172/181/14 186/195/14 185/194/14
f 179/188/13 166/175/13 181/190/13 193/202/13
f 172/181/12 173/182/12 187/196/12 186/195/12
f 173/182/11 174/183/11 188/197/11 187/196/11
f 166/175/10 167/176/10 180/189/10 181/190/10
f 174/183/9 175/184/9 189/198/9 188/197/9
f 167/176/8 168/177/8 182/191/8 180/189/8
f 175/184/7 176/185/7 190/199/7 189/198/7
f 168/177/6 169/178/6 183/192/6 182/191/6
f 176/185/18 177/186/18 191/200/18 190/199/18
f 169/178/2 170/179/2 184/193/2 183/192/2
f 194/203/19 196/206/19 201/211/19 199/209/19
f 196/206/20 197/207/20 200/210/20 201/211/20
f 197/207/21 225/235/21 224/234/21 200/210/21
f 137/146/4 198/208/4 229/241/4 226/236/4
f 203/213/5 202/212/5 204/214/5 205/215/5
f 125/130/2 205/215/2 204/214/2 126/132/2
f 126/132/1 204/214/1 202/212/1 132/141/1
f 206/216/2 209/219/2 208/218/2 207/217/2
f 208/218/3 209/219/3 213/223/3 211/221/3
f 207/217/4 208/218/4 211/221/4 210/220/4
f 209/219/33 206/216/33 212/222/33 213/223/33
f 206/216/5 207/217/5 210/220/5 212/222/5
f 214/224/2 217/227/2 216/226/2 215/225/2
f 216/226/3 217/227/3 221/231/3 219/229/3
f 215/225/4 216/226/4 219/229/4 218/228/4
f 217/227/33 214/224/33 220/230/33 221/231/33
f 214/224/5 215/225/5 218/228/5 220/230/5
f 131/138/4 222/232/4 223/233/4 227/237/4
f 228/239/4 224/234/4 225/235/4 195/204/4
f 227/237/4 223/233/4 224/234/4 228/239/4
f 226/236/23 131/139/23 227/238/23 137/146/23
f 198/208/24 228/240/24 195/205/24 229/241/24
f 137/146/34 227/238/34 228/240/34 198/208/34
f 238/250/5 240/252/5 241/253/5 239/251/5
f 236/248/26 234/246/26 235/247/26 237/249/26
f 233/245/18 237/249/18 235/247/18 232/244/18
f 230/242/5 236/248/5 237/249/5 233/245/5
f 232/244/3 235/247/3 234/246/3 231/243/3
f 242/254/5 244/256/5 245/257/5 243/255/5
f 246/258/5 248/260/5 249/261/5 247/259/5
f 244/256/2 242/254/2 255/267/2 256/268/2
f 242/254/1 243/255/1 254/266/1 255/267/1
f 248/260/2 246/258/2 259/271/2 260/272/2
f 241/253/4 240/252/4 252/264/4 253/265/4
f 238/250/1 239/251/1 250/262/1 251/263/1
f 246/258/1 247/259/1 258/270/1 259/271/1
f 245/257/4 244/256/4 256/268/4 257/269/4
f 239/251/18 241/253/18 253/265/18 250/262/18
f 249/261/4 248/260/4 260/272/4 261/273/4
f 243/255/18 245/257/18 257/269/18 254/266/18
f 240/252/2 238/250/2 251/263/2 252/264/2
f 247/259/18 249/261/18 261/273/18 258/270/18
f 268/280/35 272/284/35 269/281/35 263/275/35
f 272/284/36 271/283/36 270/282/36 269/281/36
f 265/277/37 263/275/37 269/281/37 264/276/37
f 262/274/30 268/280/30 263/275/30 265/277/30
f 264/276/38 269/281/38 270/282/38 266/278/38
f 266/278/32 270/282/32 271/283/32 267/279/32
