# Blender 3.4.1
# www.blender.org
mtllib Oven_Grill_Stray.mtl
o Oven_Grill_Stray
v 0.243086 0.051018 0.225078
v 0.247914 0.046190 0.225078
v 0.252387 0.046190 0.225078
v 0.257214 0.051018 0.225078
v 0.247914 0.046190 -0.236492
v 0.243086 0.051018 -0.236492
v 0.257214 0.051018 -0.236492
v 0.252387 0.046190 -0.236492
v 0.195500 0.046190 -0.236492
v 0.200328 0.051018 -0.236492
v 0.186200 0.051018 -0.236492
v 0.191028 0.046190 -0.236492
v 0.200328 0.051018 0.225078
v 0.195500 0.046190 0.225078
v 0.191028 0.046190 0.225078
v 0.186200 0.051018 0.225078
v 0.195500 0.059175 0.225078
v 0.200328 0.054347 0.225078
v 0.200328 0.054347 -0.236492
v 0.195500 0.059175 -0.236492
v 0.186200 0.054347 0.225078
v 0.191028 0.059175 0.225078
v 0.191028 0.059175 -0.236492
v 0.186200 0.054347 -0.236492
v 0.252387 0.059175 0.225078
v 0.257214 0.054347 0.225078
v 0.257214 0.054347 -0.236492
v 0.252387 0.059175 -0.236492
v 0.243086 0.054347 0.225078
v 0.247914 0.059175 0.225078
v 0.247914 0.059175 -0.236492
v 0.243086 0.054347 -0.236492
v 0.129824 0.051018 0.225078
v 0.134652 0.046190 0.225078
v 0.139124 0.046190 0.225078
v 0.143952 0.051018 0.225078
v 0.134652 0.046190 -0.236492
v 0.129824 0.051018 -0.236492
v 0.143952 0.051018 -0.236492
v 0.139124 0.046190 -0.236492
v 0.083620 0.046190 -0.236492
v 0.088448 0.051018 -0.236492
v 0.074320 0.051018 -0.236492
v 0.079147 0.046190 -0.236492
v 0.088448 0.051018 0.225078
v 0.083620 0.046190 0.225078
v 0.079147 0.046190 0.225078
v 0.074320 0.051018 0.225078
v 0.083620 0.059175 0.225078
v 0.088448 0.054347 0.225078
v 0.088448 0.054347 -0.236492
v 0.083620 0.059175 -0.236492
v 0.074320 0.054347 0.225078
v 0.079147 0.059175 0.225078
v 0.079147 0.059175 -0.236492
v 0.074320 0.054347 -0.236492
v 0.139124 0.059175 0.225078
v 0.143952 0.054347 0.225078
v 0.143952 0.054347 -0.236492
v 0.139124 0.059175 -0.236492
v 0.129824 0.054347 0.225078
v 0.134652 0.059175 0.225078
v 0.134652 0.059175 -0.236492
v 0.129824 0.054347 -0.236492
v 0.027480 0.046190 -0.236492
v 0.032308 0.051018 -0.236492
v 0.018180 0.051018 -0.236492
v 0.023008 0.046190 -0.236492
v 0.032308 0.051018 0.225078
v 0.027480 0.046190 0.225078
v 0.023008 0.046190 0.225078
v 0.018180 0.051018 0.225078
v 0.027480 0.059175 0.225078
v 0.032308 0.054347 0.225078
v 0.032308 0.054347 -0.236492
v 0.027480 0.059175 -0.236492
v 0.018180 0.054347 0.225078
v 0.023008 0.059175 0.225078
v 0.023008 0.059175 -0.236492
v 0.018180 0.054347 -0.236492
v 0.352947 0.051018 0.225078
v 0.357774 0.046190 0.225078
v 0.362247 0.046190 0.225078
v 0.367074 0.051018 0.225078
v 0.357774 0.046190 -0.236492
v 0.352947 0.051018 -0.236492
v 0.367074 0.051018 -0.236492
v 0.362247 0.046190 -0.236492
v 0.308176 0.046190 -0.236492
v 0.313003 0.051018 -0.236492
v 0.298876 0.051018 -0.236492
v 0.303703 0.046190 -0.236492
v 0.313003 0.051018 0.225078
v 0.308176 0.046190 0.225078
v 0.303703 0.046190 0.225078
v 0.298876 0.051018 0.225078
v 0.308176 0.059175 0.225078
v 0.313003 0.054347 0.225078
v 0.313003 0.054347 -0.236492
v 0.308176 0.059175 -0.236492
v 0.298876 0.054347 0.225078
v 0.303703 0.059175 0.225078
v 0.303703 0.059175 -0.236492
v 0.298876 0.054347 -0.236492
v 0.362247 0.059175 0.225078
v 0.367074 0.054347 0.225078
v 0.367074 0.054347 -0.236492
v 0.362247 0.059175 -0.236492
v 0.352947 0.054347 0.225078
v 0.357774 0.059175 0.225078
v 0.357774 0.059175 -0.236492
v 0.352947 0.054347 -0.236492
v 0.390449 0.041692 -0.229820
v 0.390449 0.041692 -0.241660
v 0.390449 0.053855 -0.241660
v 0.390449 0.053855 -0.229820
v 0.390449 0.053855 0.230693
v 0.390449 0.053855 0.218853
v 0.390449 0.041692 0.218853
v 0.390449 0.041692 0.230693
v -0.243086 0.051018 0.225078
v -0.247914 0.046190 0.225078
v -0.252387 0.046190 0.225078
v -0.257214 0.051018 0.225078
v -0.247914 0.046190 -0.236492
v -0.243086 0.051018 -0.236492
v -0.257214 0.051018 -0.236492
v -0.252387 0.046190 -0.236492
v -0.195500 0.046190 -0.236492
v -0.200328 0.051018 -0.236492
v -0.186200 0.051018 -0.236492
v -0.191028 0.046190 -0.236492
v -0.200328 0.051018 0.225078
v -0.195500 0.046190 0.225078
v -0.191028 0.046190 0.225078
v -0.186200 0.051018 0.225078
v -0.195500 0.059175 0.225078
v -0.200328 0.054347 0.225078
v -0.200328 0.054347 -0.236492
v -0.195500 0.059175 -0.236492
v -0.186200 0.054347 0.225078
v -0.191028 0.059175 0.225078
v -0.191028 0.059175 -0.236492
v -0.186200 0.054347 -0.236492
v -0.252387 0.059175 0.225078
v -0.257214 0.054347 0.225078
v -0.257214 0.054347 -0.236492
v -0.252387 0.059175 -0.236492
v -0.243086 0.054347 0.225078
v -0.247914 0.059175 0.225078
v -0.247914 0.059175 -0.236492
v -0.243086 0.054347 -0.236492
v -0.129824 0.051018 0.225078
v -0.134652 0.046190 0.225078
v -0.139124 0.046190 0.225078
v -0.143952 0.051018 0.225078
v -0.134652 0.046190 -0.236492
v -0.129824 0.051018 -0.236492
v -0.143952 0.051018 -0.236492
v -0.139124 0.046190 -0.236492
v -0.083620 0.046190 -0.236492
v -0.088448 0.051018 -0.236492
v -0.074320 0.051018 -0.236492
v -0.079147 0.046190 -0.236492
v -0.088448 0.051018 0.225078
v -0.083620 0.046190 0.225078
v -0.079147 0.046190 0.225078
v -0.074320 0.051018 0.225078
v -0.083620 0.059175 0.225078
v -0.088448 0.054347 0.225078
v -0.088448 0.054347 -0.236492
v -0.083620 0.059175 -0.236492
v -0.074320 0.054347 0.225078
v -0.079147 0.059175 0.225078
v -0.079147 0.059175 -0.236492
v -0.074320 0.054347 -0.236492
v -0.139124 0.059175 0.225078
v -0.143952 0.054347 0.225078
v -0.143952 0.054347 -0.236492
v -0.139124 0.059175 -0.236492
v -0.129824 0.054347 0.225078
v -0.134652 0.059175 0.225078
v -0.134652 0.059175 -0.236492
v -0.129824 0.054347 -0.236492
v -0.027480 0.046190 -0.236492
v -0.032308 0.051018 -0.236492
v -0.018180 0.051018 -0.236492
v -0.023008 0.046190 -0.236492
v -0.032308 0.051018 0.225078
v -0.027480 0.046190 0.225078
v -0.023008 0.046190 0.225078
v -0.018180 0.051018 0.225078
v -0.027480 0.059175 0.225078
v -0.032308 0.054347 0.225078
v -0.032308 0.054347 -0.236492
v -0.027480 0.059175 -0.236492
v -0.018180 0.054347 0.225078
v -0.023008 0.059175 0.225078
v -0.023008 0.059175 -0.236492
v -0.018180 0.054347 -0.236492
v -0.352947 0.051018 0.225078
v -0.357774 0.046190 0.225078
v -0.362247 0.046190 0.225078
v -0.367074 0.051018 0.225078
v -0.357774 0.046190 -0.236492
v -0.352947 0.051018 -0.236492
v -0.367074 0.051018 -0.236492
v -0.362247 0.046190 -0.236492
v -0.308176 0.046190 -0.236492
v -0.313003 0.051018 -0.236492
v -0.298876 0.051018 -0.236492
v -0.303703 0.046190 -0.236492
v -0.313003 0.051018 0.225078
v -0.308176 0.046190 0.225078
v -0.303703 0.046190 0.225078
v -0.298876 0.051018 0.225078
v -0.308176 0.059175 0.225078
v -0.313003 0.054347 0.225078
v -0.313003 0.054347 -0.236492
v -0.308176 0.059175 -0.236492
v -0.298876 0.054347 0.225078
v -0.303703 0.059175 0.225078
v -0.303703 0.059175 -0.236492
v -0.298876 0.054347 -0.236492
v -0.362247 0.059175 0.225078
v -0.367074 0.054347 0.225078
v -0.367074 0.054347 -0.236492
v -0.362247 0.059175 -0.236492
v -0.352947 0.054347 0.225078
v -0.357774 0.059175 0.225078
v -0.357774 0.059175 -0.236492
v -0.352947 0.054347 -0.236492
v 0.000000 0.041692 -0.229820
v -0.390449 0.041692 -0.229820
v 0.000000 0.041692 -0.241660
v -0.390449 0.041692 -0.241660
v -0.390449 0.053855 -0.241660
v 0.000000 0.053855 -0.241660
v 0.000000 0.053855 -0.229820
v -0.390449 0.053855 -0.229820
v -0.390449 0.053855 0.230693
v 0.000000 0.053855 0.230693
v 0.000000 0.053855 0.218853
v -0.390449 0.053855 0.218853
v -0.390449 0.041692 0.218853
v 0.000000 0.041692 0.218853
v -0.390449 0.041692 0.230693
v 0.000000 0.041692 0.230693
vn -0.0000 1.0000 -0.0000
vn -0.0000 -1.0000 -0.0000
vn -1.0000 -0.0000 -0.0000
vn -0.0000 -0.0000 1.0000
vn -0.0000 -0.0000 -1.0000
vn 0.7071 -0.7071 -0.0000
vn -0.7071 -0.7071 -0.0000
vn 0.7071 0.7071 -0.0000
vn -0.7071 0.7071 -0.0000
vn 1.0000 -0.0000 -0.0000
vt 0.217017 0.880361
vt 0.217017 0.880361
vt 0.217017 0.880361
vt 0.217017 0.880361
vt 0.217017 0.880361
vt 0.217017 0.880361
vt 0.217017 0.880361
vt 0.217017 0.880361
vt 0.217017 0.880361
vt 0.217017 0.880361
vt 0.217017 0.880361
vt 0.217017 0.880361
vt 0.217017 0.880361
vt 0.217017 0.880361
vt 0.217017 0.880361
vt 0.217017 0.880361
vt 0.217017 0.880361
vt 0.217017 0.880361
vt 0.217017 0.880361
vt 0.217017 0.880361
vt 0.217017 0.880361
vt 0.217017 0.880361
vt 0.217017 0.880361
vt 0.217017 0.880361
vt 0.217017 0.880361
vt 0.217017 0.880361
vt 0.217017 0.880361
vt 0.217017 0.880361
vt 0.217017 0.880361
vt 0.217017 0.880361
vt 0.217017 0.880361
vt 0.217017 0.880361
vt 0.217017 0.880361
vt 0.217017 0.880361
vt 0.217017 0.880361
vt 0.217017 0.880361
vt 0.217017 0.880361
vt 0.217017 0.880361
vt 0.217017 0.880361
vt 0.217017 0.880361
vt 0.217017 0.880361
vt 0.217017 0.880361
vt 0.217017 0.880361
vt 0.217017 0.880361
vt 0.217017 0.880361
vt 0.217017 0.880361
vt 0.217017 0.880361
vt 0.217017 0.880361
vt 0.217017 0.880361
vt 0.217017 0.880361
vt 0.217017 0.880361
vt 0.217017 0.880361
vt 0.217017 0.880361
vt 0.217017 0.880361
vt 0.217017 0.880361
vt 0.217017 0.880361
vt 0.217017 0.880361
vt 0.217017 0.880361
vt 0.217017 0.880361
vt 0.217017 0.880361
vt 0.217017 0.880361
vt 0.217017 0.880361
vt 0.217017 0.880361
vt 0.217017 0.880361
vt 0.217017 0.880361
vt 0.217017 0.880361
vt 0.217017 0.880361
vt 0.217017 0.880361
vt 0.217017 0.880361
vt 0.217017 0.880361
vt 0.217017 0.880361
vt 0.217017 0.880361
vt 0.217017 0.880361
vt 0.217017 0.880361
vt 0.217017 0.880361
vt 0.217017 0.880361
vt 0.217017 0.880361
vt 0.217017 0.880361
vt 0.217017 0.880361
vt 0.217017 0.880361
vt 0.217017 0.880361
vt 0.217017 0.880361
vt 0.217017 0.880361
vt 0.217017 0.880361
vt 0.217017 0.880361
vt 0.217017 0.880361
vt 0.217017 0.880361
vt 0.217017 0.880361
vt 0.217017 0.880361
vt 0.217017 0.880361
vt 0.217017 0.880361
vt 0.217017 0.880361
vt 0.217017 0.880361
vt 0.217017 0.880361
vt 0.217017 0.880361
vt 0.217017 0.880361
vt 0.217017 0.880361
vt 0.217017 0.880361
vt 0.217017 0.880361
vt 0.217017 0.880361
vt 0.217017 0.880361
vt 0.217017 0.880361
vt 0.217017 0.880361
vt 0.217017 0.880361
vt 0.217017 0.880361
vt 0.217017 0.880361
vt 0.217017 0.880361
vt 0.217017 0.880361
vt 0.217017 0.880361
vt 0.217017 0.880361
vt 0.217017 0.880361
vt 0.217017 0.880361
vt 0.217017 0.880361
vt 0.217017 0.880361
vt 0.217017 0.880361
vt 0.217017 0.880361
vt 0.217017 0.880361
vt 0.217017 0.880361
vt 0.217017 0.880361
vt 0.217017 0.880361
vt 0.217017 0.880361
vt 0.217017 0.880361
vt 0.217017 0.880361
vt 0.217017 0.880361
vt 0.217017 0.880361
vt 0.217017 0.880361
vt 0.217017 0.880361
vt 0.217017 0.880361
vt 0.217017 0.880361
vt 0.217017 0.880361
vt 0.217017 0.880361
vt 0.217017 0.880361
vt 0.217017 0.880361
vt 0.217017 0.880361
vt 0.217017 0.880361
vt 0.217017 0.880361
vt 0.217017 0.880361
vt 0.217017 0.880361
vt 0.217017 0.880361
vt 0.217017 0.880361
vt 0.217017 0.880361
vt 0.217017 0.880361
vt 0.217017 0.880361
vt 0.217017 0.880361
vt 0.217017 0.880361
vt 0.217017 0.880361
vt 0.217017 0.880361
vt 0.217017 0.880361
vt 0.217017 0.880361
vt 0.217017 0.880361
vt 0.217017 0.880361
vt 0.217017 0.880361
vt 0.217017 0.880361
vt 0.217017 0.880361
vt 0.217017 0.880361
vt 0.217017 0.880361
vt 0.217017 0.880361
vt 0.217017 0.880361
vt 0.217017 0.880361
vt 0.217017 0.880361
vt 0.217017 0.880361
vt 0.217017 0.880361
vt 0.217017 0.880361
vt 0.217017 0.880361
vt 0.217017 0.880361
vt 0.217017 0.880361
vt 0.217017 0.880361
vt 0.217017 0.880361
vt 0.217017 0.880361
vt 0.217017 0.880361
vt 0.217017 0.880361
vt 0.217017 0.880361
vt 0.217017 0.880361
vt 0.217017 0.880361
vt 0.217017 0.880361
vt 0.217017 0.880361
vt 0.217017 0.880361
vt 0.217017 0.880361
vt 0.217017 0.880361
vt 0.217017 0.880361
vt 0.217017 0.880361
vt 0.217017 0.880361
vt 0.217017 0.880361
vt 0.217017 0.880361
vt 0.217017 0.880361
vt 0.217017 0.880361
vt 0.217017 0.880361
vt 0.217017 0.880361
vt 0.217017 0.880361
vt 0.217017 0.880361
vt 0.217017 0.880361
vt 0.217017 0.880361
vt 0.217017 0.880361
vt 0.217017 0.880361
vt 0.217017 0.880361
vt 0.217017 0.880361
vt 0.217017 0.880361
vt 0.217017 0.880361
vt 0.217017 0.880361
vt 0.217017 0.880361
vt 0.217017 0.880361
vt 0.217017 0.880361
vt 0.217017 0.880361
vt 0.217017 0.880361
vt 0.217017 0.880361
vt 0.217017 0.880361
vt 0.217017 0.880361
vt 0.217017 0.880361
vt 0.217017 0.880361
vt 0.217017 0.880361
vt 0.217017 0.880361
vt 0.217017 0.880361
vt 0.217017 0.880361
vt 0.217017 0.880361
vt 0.217017 0.880361
vt 0.217017 0.880361
vt 0.217017 0.880361
vt 0.217017 0.880361
vt 0.217017 0.880361
vt 0.217017 0.880361
vt 0.217017 0.880361
vt 0.217017 0.880361
vt 0.217017 0.880361
vt 0.217017 0.880361
vt 0.217017 0.880361
vt 0.217017 0.880361
vt 0.217017 0.880361
vt 0.217017 0.880361
vt 0.217017 0.880361
vt 0.217017 0.880361
vt 0.217017 0.880361
vt 0.217017 0.880361
vt 0.217017 0.880361
vt 0.217017 0.880361
vt 0.217017 0.880361
vt 0.217017 0.880361
vt 0.217017 0.880361
vt 0.217017 0.880361
vt 0.217017 0.880361
vt 0.217017 0.880361
vt 0.217017 0.880361
vt 0.217017 0.880361
vt 0.217017 0.880361
vt 0.217017 0.880361
vt 0.217017 0.880361
vt 0.217017 0.880361
vt 0.217017 0.880361
vt 0.217017 0.880361
s 0
usemtl Palette
f 22/22/1 17/17/1 20/20/1 23/23/1
f 15/15/2 12/12/2 9/9/2 14/14/2
f 24/24/3 11/11/3 16/16/3 21/21/3
f 21/21/4 16/16/4 15/15/4 14/14/4 13/13/4 18/18/4 17/17/4 22/22/4
f 19/19/5 10/10/5 9/9/5 12/12/5 11/11/5 24/24/5 23/23/5 20/20/5
f 30/30/1 25/25/1 28/28/1 31/31/1
f 13/13/6 14/14/6 9/9/6 10/10/6
f 15/15/7 16/16/7 11/11/7 12/12/7
f 17/17/8 18/18/8 19/19/8 20/20/8
f 21/21/9 22/22/9 23/23/9 24/24/9
f 18/18/10 13/13/10 10/10/10 19/19/10
f 2/2/2 5/5/2 8/8/2 3/3/2
f 32/32/3 6/6/3 1/1/3 29/29/3
f 29/29/4 1/1/4 2/2/4 3/3/4 4/4/4 26/26/4 25/25/4 30/30/4
f 27/27/5 7/7/5 8/8/5 5/5/5 6/6/5 32/32/5 31/31/5 28/28/5
f 4/4/6 3/3/6 8/8/6 7/7/6
f 2/2/7 1/1/7 6/6/7 5/5/7
f 25/25/8 26/26/8 27/27/8 28/28/8
f 29/29/9 30/30/9 31/31/9 32/32/9
f 26/26/10 4/4/10 7/7/10 27/27/10
f 54/54/1 49/49/1 52/52/1 55/55/1
f 47/47/2 44/44/2 41/41/2 46/46/2
f 56/56/3 43/43/3 48/48/3 53/53/3
f 53/53/4 48/48/4 47/47/4 46/46/4 45/45/4 50/50/4 49/49/4 54/54/4
f 51/51/5 42/42/5 41/41/5 44/44/5 43/43/5 56/56/5 55/55/5 52/52/5
f 62/62/1 57/57/1 60/60/1 63/63/1
f 45/45/6 46/46/6 41/41/6 42/42/6
f 47/47/7 48/48/7 43/43/7 44/44/7
f 49/49/8 50/50/8 51/51/8 52/52/8
f 53/53/9 54/54/9 55/55/9 56/56/9
f 50/50/10 45/45/10 42/42/10 51/51/10
f 34/34/2 37/37/2 40/40/2 35/35/2
f 64/64/3 38/38/3 33/33/3 61/61/3
f 61/61/4 33/33/4 34/34/4 35/35/4 36/36/4 58/58/4 57/57/4 62/62/4
f 59/59/5 39/39/5 40/40/5 37/37/5 38/38/5 64/64/5 63/63/5 60/60/5
f 36/36/6 35/35/6 40/40/6 39/39/6
f 34/34/7 33/33/7 38/38/7 37/37/7
f 57/57/8 58/58/8 59/59/8 60/60/8
f 61/61/9 62/62/9 63/63/9 64/64/9
f 58/58/10 36/36/10 39/39/10 59/59/10
f 78/78/1 73/73/1 76/76/1 79/79/1
f 71/71/2 68/68/2 65/65/2 70/70/2
f 80/80/3 67/67/3 72/72/3 77/77/3
f 77/77/4 72/72/4 71/71/4 70/70/4 69/69/4 74/74/4 73/73/4 78/78/4
f 75/75/5 66/66/5 65/65/5 68/68/5 67/67/5 80/80/5 79/79/5 76/76/5
f 69/69/6 70/70/6 65/65/6 66/66/6
f 71/71/7 72/72/7 67/67/7 68/68/7
f 73/73/8 74/74/8 75/75/8 76/76/8
f 77/77/9 78/78/9 79/79/9 80/80/9
f 74/74/10 69/69/10 66/66/10 75/75/10
f 102/102/1 97/97/1 100/100/1 103/103/1
f 95/95/2 92/92/2 89/89/2 94/94/2
f 104/104/3 91/91/3 96/96/3 101/101/3
f 101/101/4 96/96/4 95/95/4 94/94/4 93/93/4 98/98/4 97/97/4 102/102/4
f 99/99/5 90/90/5 89/89/5 92/92/5 91/91/5 104/104/5 103/103/5 100/100/5
f 110/110/1 105/105/1 108/108/1 111/111/1
f 93/93/6 94/94/6 89/89/6 90/90/6
f 95/95/7 96/96/7 91/91/7 92/92/7
f 97/97/8 98/98/8 99/99/8 100/100/8
f 101/101/9 102/102/9 103/103/9 104/104/9
f 98/98/10 93/93/10 90/90/10 99/99/10
f 82/82/2 85/85/2 88/88/2 83/83/2
f 112/112/3 86/86/3 81/81/3 109/109/3
f 109/109/4 81/81/4 82/82/4 83/83/4 84/84/4 106/106/4 105/105/4 110/110/4
f 107/107/5 87/87/5 88/88/5 85/85/5 86/86/5 112/112/5 111/111/5 108/108/5
f 84/84/6 83/83/6 88/88/6 87/87/6
f 82/82/7 81/81/7 86/86/7 85/85/7
f 105/105/8 106/106/8 107/107/8 108/108/8
f 109/109/9 110/110/9 111/111/9 112/112/9
f 106/106/10 84/84/10 87/87/10 107/107/10
f 119/119/5 246/246/5 243/243/5 118/118/5
f 116/116/1 115/115/1 238/238/1 239/239/1
f 114/114/5 235/235/5 238/238/5 115/115/5
f 248/248/4 120/120/4 117/117/4 242/242/4
f 113/113/2 233/233/2 235/235/2 114/114/2
f 233/233/4 113/113/4 116/116/4 239/239/4
f 120/120/10 119/119/10 118/118/10 117/117/10
f 117/117/1 118/118/1 243/243/1 242/242/1
f 113/113/10 114/114/10 115/115/10 116/116/10
f 120/120/2 248/248/2 246/246/2 119/119/2
f 142/142/1 143/143/1 140/140/1 137/137/1
f 135/135/2 134/134/2 129/129/2 132/132/2
f 144/144/10 141/141/10 136/136/10 131/131/10
f 141/141/4 142/142/4 137/137/4 138/138/4 133/133/4 134/134/4 135/135/4 136/136/4
f 139/139/5 140/140/5 143/143/5 144/144/5 131/131/5 132/132/5 129/129/5 130/130/5
f 150/150/1 151/151/1 148/148/1 145/145/1
f 133/133/7 130/130/7 129/129/7 134/134/7
f 135/135/6 132/132/6 131/131/6 136/136/6
f 137/137/9 140/140/9 139/139/9 138/138/9
f 141/141/8 144/144/8 143/143/8 142/142/8
f 138/138/3 139/139/3 130/130/3 133/133/3
f 122/122/2 123/123/2 128/128/2 125/125/2
f 152/152/10 149/149/10 121/121/10 126/126/10
f 149/149/4 150/150/4 145/145/4 146/146/4 124/124/4 123/123/4 122/122/4 121/121/4
f 147/147/5 148/148/5 151/151/5 152/152/5 126/126/5 125/125/5 128/128/5 127/127/5
f 124/124/7 127/127/7 128/128/7 123/123/7
f 122/122/6 125/125/6 126/126/6 121/121/6
f 145/145/9 148/148/9 147/147/9 146/146/9
f 149/149/8 152/152/8 151/151/8 150/150/8
f 146/146/3 147/147/3 127/127/3 124/124/3
f 174/174/1 175/175/1 172/172/1 169/169/1
f 167/167/2 166/166/2 161/161/2 164/164/2
f 176/176/10 173/173/10 168/168/10 163/163/10
f 173/173/4 174/174/4 169/169/4 170/170/4 165/165/4 166/166/4 167/167/4 168/168/4
f 171/171/5 172/172/5 175/175/5 176/176/5 163/163/5 164/164/5 161/161/5 162/162/5
f 182/182/1 183/183/1 180/180/1 177/177/1
f 165/165/7 162/162/7 161/161/7 166/166/7
f 167/167/6 164/164/6 163/163/6 168/168/6
f 169/169/9 172/172/9 171/171/9 170/170/9
f 173/173/8 176/176/8 175/175/8 174/174/8
f 170/170/3 171/171/3 162/162/3 165/165/3
f 154/154/2 155/155/2 160/160/2 157/157/2
f 184/184/10 181/181/10 153/153/10 158/158/10
f 181/181/4 182/182/4 177/177/4 178/178/4 156/156/4 155/155/4 154/154/4 153/153/4
f 179/179/5 180/180/5 183/183/5 184/184/5 158/158/5 157/157/5 160/160/5 159/159/5
f 156/156/7 159/159/7 160/160/7 155/155/7
f 154/154/6 157/157/6 158/158/6 153/153/6
f 177/177/9 180/180/9 179/179/9 178/178/9
f 181/181/8 184/184/8 183/183/8 182/182/8
f 178/178/3 179/179/3 159/159/3 156/156/3
f 198/198/1 199/199/1 196/196/1 193/193/1
f 191/191/2 190/190/2 185/185/2 188/188/2
f 200/200/10 197/197/10 192/192/10 187/187/10
f 197/197/4 198/198/4 193/193/4 194/194/4 189/189/4 190/190/4 191/191/4 192/192/4
f 195/195/5 196/196/5 199/199/5 200/200/5 187/187/5 188/188/5 185/185/5 186/186/5
f 189/189/7 186/186/7 185/185/7 190/190/7
f 191/191/6 188/188/6 187/187/6 192/192/6
f 193/193/9 196/196/9 195/195/9 194/194/9
f 197/197/8 200/200/8 199/199/8 198/198/8
f 194/194/3 195/195/3 186/186/3 189/189/3
f 222/222/1 223/223/1 220/220/1 217/217/1
f 215/215/2 214/214/2 209/209/2 212/212/2
f 224/224/10 221/221/10 216/216/10 211/211/10
f 221/221/4 222/222/4 217/217/4 218/218/4 213/213/4 214/214/4 215/215/4 216/216/4
f 219/219/5 220/220/5 223/223/5 224/224/5 211/211/5 212/212/5 209/209/5 210/210/5
f 230/230/1 231/231/1 228/228/1 225/225/1
f 213/213/7 210/210/7 209/209/7 214/214/7
f 215/215/6 212/212/6 211/211/6 216/216/6
f 217/217/9 220/220/9 219/219/9 218/218/9
f 221/221/8 224/224/8 223/223/8 222/222/8
f 218/218/3 219/219/3 210/210/3 213/213/3
f 202/202/2 203/203/2 208/208/2 205/205/2
f 232/232/10 229/229/10 201/201/10 206/206/10
f 229/229/4 230/230/4 225/225/4 226/226/4 204/204/4 203/203/4 202/202/4 201/201/4
f 227/227/5 228/228/5 231/231/5 232/232/5 206/206/5 205/205/5 208/208/5 207/207/5
f 204/204/7 207/207/7 208/208/7 203/203/7
f 202/202/6 205/205/6 206/206/6 201/201/6
f 225/225/9 228/228/9 227/227/9 226/226/9
f 229/229/8 232/232/8 231/231/8 230/230/8
f 226/226/3 227/227/3 207/207/3 204/204/3
f 245/245/5 244/244/5 243/243/5 246/246/5
f 240/240/1 239/239/1 238/238/1 237/237/1
f 236/236/5 237/237/5 238/238/5 235/235/5
f 248/248/4 242/242/4 241/241/4 247/247/4
f 234/234/2 236/236/2 235/235/2 233/233/2
f 233/233/4 239/239/4 240/240/4 234/234/4
f 247/247/3 241/241/3 244/244/3 245/245/3
f 241/241/1 242/242/1 243/243/1 244/244/1
f 234/234/3 240/240/3 237/237/3 236/236/3
f 247/247/2 245/245/2 246/246/2 248/248/2
