# Blender 3.4.1
# www.blender.org
mtllib Oven_Stray.mtl
o Oven_Stray
v 0.386109 -0.000192 0.242141
v 0.386109 -0.000192 -0.268708
v 0.371247 0.012615 0.242433
v 0.371247 0.012615 -0.253847
v 0.386108 0.012615 0.257295
v 0.386108 0.012615 -0.268708
v 0.358264 0.007015 0.225078
v 0.358264 0.007015 -0.236492
v -0.386109 -0.000192 0.242141
v 0.000000 -0.000192 0.242141
v 0.000000 -0.000192 -0.268708
v -0.386109 -0.000192 -0.268708
v 0.000000 0.012615 0.242433
v -0.371247 0.012615 0.242433
v 0.000000 0.012615 -0.253847
v -0.371247 0.012615 -0.253847
v 0.000000 0.012615 0.257295
v -0.386108 0.012615 0.257295
v 0.000000 0.012615 -0.268708
v -0.386108 0.012615 -0.268708
v 0.000000 0.007015 0.225078
v 0.000000 0.007015 -0.236492
v -0.358264 0.007015 0.225078
v -0.358264 0.007015 -0.236492
vn -0.0000 -1.0000 -0.0000
vn -0.0000 0.9517 0.3071
vn 1.0000 0.0001 -0.0000
vn -0.0000 -0.7638 0.6455
vn -0.0000 -0.0000 -1.0000
vn -0.0000 1.0000 -0.0000
vn -0.3960 0.9182 -0.0000
vn -0.0000 0.9517 -0.3071
vn -1.0000 0.0001 -0.0000
vn 0.3960 0.9182 -0.0000
vt 0.059264 0.963694
vt 0.059264 0.963694
vt 0.059264 0.963694
vt 0.059264 0.963694
vt 0.059264 0.963694
vt 0.059264 0.963694
vt 0.059264 0.963694
vt 0.059264 0.963694
vt 0.059264 0.963694
vt 0.059264 0.963694
vt 0.059264 0.963694
vt 0.059264 0.963694
vt 0.059264 0.963694
vt 0.059264 0.963694
vt 0.059264 0.963694
vt 0.059264 0.963694
vt 0.059264 0.963694
vt 0.059264 0.963694
vt 0.059264 0.963694
vt 0.059264 0.963694
vt 0.059264 0.963694
vt 0.059264 0.963694
vt 0.059264 0.963694
vt 0.059264 0.963694
s 0
usemtl Palette
f 10/10/1 11/11/1 2/2/1 1/1/1
f 4/4/2 15/15/2 22/22/2 8/8/2
f 1/1/3 2/2/3 6/6/3 5/5/3
f 10/10/4 1/1/4 5/5/4 17/17/4
f 2/2/5 11/11/5 19/19/5 6/6/5
f 3/3/6 13/13/6 17/17/6 5/5/6
f 15/15/6 4/4/6 6/6/6 19/19/6
f 4/4/6 3/3/6 5/5/6 6/6/6
f 21/21/6 7/7/6 8/8/6 22/22/6
f 3/3/7 4/4/7 8/8/7 7/7/7
f 13/13/8 3/3/8 7/7/8 21/21/8
f 10/10/1 9/9/1 12/12/1 11/11/1
f 16/16/2 24/24/2 22/22/2 15/15/2
f 9/9/9 18/18/9 20/20/9 12/12/9
f 10/10/4 17/17/4 18/18/4 9/9/4
f 12/12/5 20/20/5 19/19/5 11/11/5
f 14/14/6 18/18/6 17/17/6 13/13/6
f 15/15/6 19/19/6 20/20/6 16/16/6
f 16/16/6 20/20/6 18/18/6 14/14/6
f 21/21/6 22/22/6 24/24/6 23/23/6
f 14/14/10 23/23/10 24/24/10 16/16/10
f 13/13/8 21/21/8 23/23/8 14/14/8
