# Blender 3.4.1
# www.blender.org
mtllib Painting_Small_4.mtl
o Painting_Small_4
v -0.093750 -0.093750 0.006593
v -0.093750 0.093750 0.006593
v 0.093750 0.093750 0.006593
v 0.093750 -0.093750 0.006593
v -0.130763 -0.130997 0.006593
v -0.130763 0.130996 0.006593
v 0.130763 0.130996 0.006593
v 0.130763 -0.130997 0.006593
v 0.145311 -0.145572 -0.006646
v 0.145311 0.145571 -0.006646
v -0.145312 0.145571 -0.006646
v -0.145312 -0.145572 -0.006646
v -0.130763 -0.130997 0.016628
v -0.130763 0.130996 0.016628
v 0.130763 -0.130997 0.016628
v 0.145311 -0.145572 0.016628
v 0.130763 0.130996 0.016628
v 0.145311 0.145571 0.016628
v -0.145312 -0.145572 0.016628
v -0.145312 0.145571 0.016628
vn -0.0000 -1.0000 -0.0000
vn -0.0000 -0.0000 1.0000
vn 1.0000 -0.0000 -0.0000
vn -1.0000 -0.0000 -0.0000
vn -0.0000 1.0000 -0.0000
vn -0.0000 -0.0000 -1.0000
vt 0.197489 0.951018
vt 0.011346 0.151346
vt 0.210234 0.951018
vt 0.011346 0.493654
vt 0.353654 0.493654
vt 0.210234 0.937576
vt 0.353654 0.151347
vt 0.197489 0.937576
vt 0.196976 0.951280
vt 0.122979 0.805128
vt 0.210747 0.951280
vt 0.136749 0.805128
vt 0.210747 0.937314
vt 0.136749 0.791161
vt 0.196976 0.937314
vt 0.122979 0.791161
vt 0.125583 0.798974
vt 0.139353 0.798974
vt 0.139353 0.812940
vt 0.125583 0.812940
vt 0.125583 0.812940
vt 0.122979 0.805128
vt 0.136749 0.805128
vt 0.139353 0.812940
vt 0.125583 0.798974
vt 0.122979 0.791161
vt 0.125583 0.798974
vt 0.139353 0.798974
vt 0.136749 0.791161
vt 0.139353 0.798974
vt 0.125583 0.812940
vt 0.139353 0.812940
s 0
usemtl Palette
f 6/12/1 7/14/1 17/29/1 14/23/1
f 1/1/2 2/3/2 6/11/2 5/9/2
f 4/8/2 1/1/2 5/9/2 8/15/2
f 2/3/2 3/6/2 7/13/2 6/11/2
f 5/10/3 6/12/3 14/23/3 13/22/3
f 3/6/2 4/8/2 8/15/2 7/13/2
f 12/20/4 19/31/4 20/32/4 11/19/4
f 10/18/3 18/30/3 16/27/3 9/17/3
f 11/19/5 20/32/5 18/30/5 10/18/5
f 9/17/6 12/20/6 11/19/6 10/18/6
f 15/25/2 13/21/2 19/31/2 16/27/2
f 13/21/2 14/24/2 20/32/2 19/31/2
f 17/28/2 15/25/2 16/27/2 18/30/2
f 14/24/2 17/28/2 18/30/2 20/32/2
f 7/14/4 8/16/4 15/26/4 17/29/4
f 8/16/5 5/10/5 13/22/5 15/26/5
f 9/17/1 16/27/1 19/31/1 12/20/1
usemtl Painting1
f 4/7/2 3/5/2 2/4/2 1/2/2
