# Blender 3.4.1
# www.blender.org
mtllib Painting_Small_3.mtl
o Painting_Small_3
v -0.000000 0.161815 -0.013117
v -0.040608 0.149498 -0.013117
v -0.075034 0.114421 -0.013117
v -0.098036 0.061924 -0.013117
v -0.106114 -0.000000 -0.013117
v -0.098037 -0.061924 -0.013117
v -0.075034 -0.114421 -0.013117
v -0.040608 -0.149498 -0.013117
v -0.000000 -0.161816 -0.013117
v 0.040608 -0.149498 -0.013117
v 0.075033 -0.114421 -0.013117
v 0.098036 -0.061924 -0.013117
v 0.106113 -0.000000 -0.013117
v 0.098036 0.061924 -0.013117
v 0.075033 0.114421 -0.013117
v 0.040608 0.149498 -0.013117
v -0.031474 0.134419 0.005813
v -0.000000 0.143966 0.005813
v -0.060647 0.104694 0.005813
v -0.081414 0.057300 0.005813
v -0.088888 -0.000000 0.005813
v -0.081414 -0.057300 0.005813
v -0.060647 -0.104694 0.005813
v -0.031474 -0.134419 0.005813
v -0.000000 -0.143966 0.005813
v 0.031473 -0.134419 0.005813
v 0.060646 -0.104694 0.005813
v 0.081413 -0.057300 0.005813
v 0.088887 -0.000000 0.005813
v 0.081413 0.057300 0.005813
v 0.060646 0.104694 0.005813
v 0.031473 0.134419 0.005813
v -0.031474 0.134419 0.017028
v -0.000000 0.143966 0.017028
v -0.060647 0.104694 0.017028
v -0.081414 0.057300 0.017028
v -0.088888 -0.000000 0.017028
v -0.081414 -0.057300 0.017028
v -0.060647 -0.104694 0.017028
v -0.031474 -0.134419 0.017028
v -0.000000 -0.143966 0.017028
v 0.031473 -0.134419 0.017028
v 0.060646 -0.104694 0.017028
v 0.081413 -0.057300 0.017028
v 0.088887 -0.000000 0.017028
v 0.081413 0.057300 0.017028
v 0.060646 0.104694 0.017028
v 0.031473 0.134419 0.017028
v -0.040608 0.149498 0.017028
v -0.000000 0.161815 0.017028
v -0.075034 0.114421 0.017028
v -0.098036 0.061924 0.017028
v -0.106114 -0.000000 0.017028
v -0.098037 -0.061924 0.017028
v -0.075034 -0.114421 0.017028
v -0.040608 -0.149498 0.017028
v -0.000000 -0.161816 0.017028
v 0.040608 -0.149498 0.017028
v 0.075033 -0.114421 0.017028
v 0.098036 -0.061924 0.017028
v 0.106113 -0.000000 0.017028
v 0.098036 0.061924 0.017028
v 0.075033 0.114421 0.017028
v 0.040608 0.149498 0.017028
v -0.063731 0.109567 0.011214
v -0.000000 0.150801 0.011214
v -0.033125 0.140753 0.011214
v 0.048162 0.177310 -0.002202
v 0.088992 0.135707 -0.002202
v 0.116274 0.073444 -0.002202
v 0.125854 -0.000000 -0.002202
v 0.116274 -0.073444 -0.002202
v 0.088992 -0.135708 -0.002202
v 0.048162 -0.177310 -0.002202
v -0.000000 -0.191919 -0.002202
v -0.048163 -0.177310 -0.002202
v -0.088993 -0.135708 -0.002202
v -0.116275 -0.073444 -0.002202
v -0.125855 -0.000000 -0.002202
v -0.116275 0.073444 -0.002202
v -0.088993 0.135707 -0.002202
v -0.048163 0.177310 -0.002202
v -0.000000 0.191919 -0.002202
v -0.085474 0.059946 0.011214
v -0.093293 -0.000000 0.011214
v -0.085474 -0.059946 0.011214
v -0.063731 -0.109568 0.011214
v -0.033125 -0.140754 0.011214
v -0.000000 -0.150801 0.011214
v 0.033124 -0.140754 0.011214
v 0.063731 -0.109568 0.011214
v 0.085473 -0.059946 0.011214
v 0.093293 -0.000000 0.011214
v 0.085473 0.059946 0.011214
v 0.063731 0.109567 0.011214
v 0.033124 0.140753 0.011214
v -0.048163 0.177310 0.011214
v -0.000000 0.191919 0.011214
v -0.088993 0.135707 0.011214
v -0.116275 0.073444 0.011214
v -0.125855 -0.000000 0.011214
v -0.116275 -0.073444 0.011214
v -0.088993 -0.135708 0.011214
v -0.048163 -0.177310 0.011214
v -0.000000 -0.191919 0.011214
v 0.048162 -0.177310 0.011214
v 0.088992 -0.135708 0.011214
v 0.116274 -0.073444 0.011214
v 0.125854 -0.000000 0.011214
v 0.116274 0.073444 0.011214
v 0.088992 0.135707 0.011214
v 0.048162 0.177310 0.011214
v -0.033125 0.140753 0.011214
v -0.000000 0.150801 0.011214
v -0.063731 0.109567 0.011214
v -0.085474 0.059946 0.011214
v -0.093293 -0.000000 0.011214
v -0.085474 -0.059946 0.011214
v -0.063731 -0.109568 0.011214
v -0.033125 -0.140754 0.011214
v -0.000000 -0.150801 0.011214
v 0.033124 -0.140754 0.011214
v 0.063731 -0.109568 0.011214
v 0.085473 -0.059946 0.011214
v 0.093293 -0.000000 0.011214
v 0.085473 0.059946 0.011214
v 0.063731 0.109567 0.011214
v 0.033124 0.140753 0.011214
vn -0.0000 -0.0000 1.0000
vn -0.2903 0.9569 -0.0000
vn 0.9159 0.4013 -0.0000
vn 0.9159 -0.4013 -0.0000
vn -0.2903 -0.9569 -0.0000
vn 0.9916 0.1293 -0.0000
vn 0.7137 -0.7004 -0.0000
vn -0.7137 -0.7004 -0.0000
vn 0.9916 -0.1293 -0.0000
vn 0.2903 -0.9569 -0.0000
vn -0.9159 -0.4013 -0.0000
vn -0.9916 -0.1293 -0.0000
vn -0.9916 0.1293 -0.0000
vn -0.9159 0.4013 -0.0000
vn 0.7137 0.7004 -0.0000
vn -0.7137 0.7004 -0.0000
vn 0.2903 0.9569 -0.0000
vn -0.0000 1.0000 -0.0000
vn -0.0000 -0.0000 -1.0000
vt 0.791109 0.956898
vt 0.973400 0.951690
vt 0.791109 0.956898
vt 0.973400 0.951690
vt 0.791109 0.956898
vt 0.973400 0.951690
vt 0.791109 0.956898
vt 0.973400 0.951690
vt 0.791109 0.956898
vt 0.973400 0.951690
vt 0.791109 0.956898
vt 0.973400 0.951690
vt 0.791109 0.956898
vt 0.973400 0.951690
vt 0.791109 0.956898
vt 0.973400 0.951690
vt 0.791109 0.956898
vt 0.973400 0.951690
vt 0.791109 0.956898
vt 0.973400 0.951690
vt 0.791109 0.956898
vt 0.973400 0.951690
vt 0.791109 0.956898
vt 0.973400 0.951690
vt 0.791109 0.956898
vt 0.973400 0.951690
vt 0.791109 0.956898
vt 0.973400 0.951690
vt 0.791109 0.956898
vt 0.973400 0.951690
vt 0.791109 0.956898
vt 0.973400 0.951690
vt 0.146062 0.478255
vt 0.783296 0.972523
vt 0.182556 0.489325
vt 0.783296 0.972523
vt 0.112237 0.443790
vt 0.783296 0.972523
vt 0.088158 0.388838
vt 0.783296 0.972523
vt 0.079494 0.322401
vt 0.783296 0.972523
vt 0.088158 0.255964
vt 0.783296 0.972523
vt 0.112237 0.201012
vt 0.783296 0.972523
vt 0.146062 0.166547
vt 0.783296 0.972523
vt 0.182556 0.155478
vt 0.783296 0.972523
vt 0.219047 0.166547
vt 0.783296 0.972523
vt 0.252873 0.201012
vt 0.783296 0.972523
vt 0.276951 0.255964
vt 0.783296 0.972523
vt 0.285617 0.322401
vt 0.783296 0.972523
vt 0.276951 0.388838
vt 0.783296 0.972523
vt 0.252873 0.443790
vt 0.783296 0.972523
vt 0.219047 0.478255
vt 0.783296 0.972523
vt 0.783296 0.972523
vt 0.778088 0.967315
vt 0.783296 0.972523
vt 0.778088 0.967315
vt 0.783296 0.972523
vt 0.778088 0.967315
vt 0.778088 0.967315
vt 0.783296 0.972523
vt 0.778088 0.967315
vt 0.783296 0.972523
vt 0.778088 0.967315
vt 0.783296 0.972523
vt 0.778088 0.967315
vt 0.783296 0.972523
vt 0.778088 0.967315
vt 0.783296 0.972523
vt 0.778088 0.967315
vt 0.783296 0.972523
vt 0.778088 0.967315
vt 0.783296 0.972523
vt 0.778088 0.967315
vt 0.783296 0.972523
vt 0.783296 0.972523
vt 0.778088 0.967315
vt 0.783296 0.972523
vt 0.778088 0.967315
vt 0.783296 0.972523
vt 0.778088 0.967315
vt 0.783296 0.972523
vt 0.778088 0.967315
vt 0.783296 0.972523
vt 0.778088 0.967315
vt 0.778088 0.967315
vt 0.791109 0.956898
vt 0.791109 0.956898
vt 0.778088 0.967315
vt 0.778088 0.967315
vt 0.791109 0.956898
vt 0.778088 0.967315
vt 0.791109 0.956898
vt 0.778088 0.967315
vt 0.791109 0.956898
vt 0.778088 0.967315
vt 0.791109 0.956898
vt 0.778088 0.967315
vt 0.791109 0.956898
vt 0.778088 0.967315
vt 0.791109 0.956898
vt 0.778088 0.967315
vt 0.791109 0.956898
vt 0.791109 0.956898
vt 0.778088 0.967315
vt 0.791109 0.956898
vt 0.778088 0.967315
vt 0.791109 0.956898
vt 0.778088 0.967315
vt 0.791109 0.956898
vt 0.778088 0.967315
vt 0.791109 0.956898
vt 0.778088 0.967315
vt 0.778088 0.967315
vt 0.791109 0.956898
vt 0.791109 0.956898
vt 0.778088 0.967315
vt 0.973400 0.951690
vt 0.973400 0.951690
vt 0.973400 0.951690
vt 0.973400 0.951690
vt 0.973400 0.951690
vt 0.973400 0.951690
vt 0.973400 0.951690
vt 0.973400 0.951690
vt 0.973400 0.951690
vt 0.973400 0.951690
vt 0.973400 0.951690
vt 0.973400 0.951690
vt 0.973400 0.951690
vt 0.973400 0.951690
vt 0.973400 0.951690
vt 0.973400 0.951690
vt 0.973400 0.951690
vt 0.973400 0.951690
vt 0.973400 0.951690
vt 0.973400 0.951690
vt 0.973400 0.951690
vt 0.973400 0.951690
vt 0.973400 0.951690
vt 0.973400 0.951690
vt 0.973400 0.951690
vt 0.973400 0.951690
vt 0.973400 0.951690
vt 0.973400 0.951690
vt 0.973400 0.951690
vt 0.973400 0.951690
vt 0.973400 0.951690
vt 0.973400 0.951690
vt 0.973400 0.951690
vt 0.973400 0.951690
vt 0.973400 0.951690
vt 0.973400 0.951690
vt 0.973400 0.951690
vt 0.973400 0.951690
vt 0.973400 0.951690
vt 0.973400 0.951690
vt 0.973400 0.951690
vt 0.973400 0.951690
vt 0.973400 0.951690
vt 0.973400 0.951690
vt 0.973400 0.951690
vt 0.973400 0.951690
vt 0.973400 0.951690
vt 0.973400 0.951690
vt 0.973400 0.951690
vt 0.973400 0.951690
vt 0.973400 0.951690
vt 0.973400 0.951690
vt 0.973400 0.951690
vt 0.973400 0.951690
vt 0.973400 0.951690
vt 0.973400 0.951690
vt 0.973400 0.951690
vt 0.973400 0.951690
vt 0.973400 0.951690
vt 0.973400 0.951690
vt 0.973400 0.951690
vt 0.973400 0.951690
vt 0.973400 0.951690
vt 0.973400 0.951690
s 0
usemtl Palette
f 2/3/2 49/98/2 50/99/2 1/1/2
f 15/29/3 63/126/3 62/123/3 14/27/3
f 19/38/4 35/69/4 36/72/4 20/40/4
f 32/64/5 48/95/5 34/67/5 18/36/5
f 14/27/6 62/123/6 61/121/6 13/25/6
f 17/34/7 33/65/7 35/69/7 19/38/7
f 31/62/8 47/93/8 48/95/8 32/64/8
f 13/25/9 61/121/9 60/119/9 12/23/9
f 18/36/10 34/67/10 33/65/10 17/34/10
f 30/60/11 46/91/11 47/93/11 31/62/11
f 12/23/4 60/119/4 59/117/4 11/21/4
f 29/58/12 45/89/12 46/91/12 30/60/12
f 11/21/7 59/117/7 58/115/7 10/19/7
f 28/56/13 44/87/13 45/89/13 29/58/13
f 10/19/10 58/115/10 57/114/10 9/17/10
f 27/54/14 43/86/14 44/87/14 28/56/14
f 34/68/1 50/100/1 49/97/1 33/66/1
f 33/66/1 49/97/1 51/101/1 35/70/1
f 35/70/1 51/101/1 52/103/1 36/71/1
f 36/71/1 52/103/1 53/105/1 37/73/1
f 37/73/1 53/105/1 54/107/1 38/75/1
f 38/75/1 54/107/1 55/109/1 39/77/1
f 39/77/1 55/109/1 56/111/1 40/79/1
f 40/79/1 56/111/1 57/113/1 41/81/1
f 41/81/1 57/113/1 58/116/1 42/83/1
f 42/83/1 58/116/1 59/118/1 43/85/1
f 43/85/1 59/118/1 60/120/1 44/88/1
f 44/88/1 60/120/1 61/122/1 45/90/1
f 45/90/1 61/122/1 62/124/1 46/92/1
f 46/92/1 62/124/1 63/125/1 47/94/1
f 47/94/1 63/125/1 64/128/1 48/96/1
f 20/40/9 36/72/9 37/74/9 21/42/9
f 16/31/15 64/127/15 63/126/15 15/29/15
f 3/5/16 51/102/16 49/98/16 2/3/16
f 21/42/6 37/74/6 38/76/6 22/44/6
f 1/1/17 50/99/17 64/127/17 16/31/17
f 4/7/14 52/104/14 51/102/14 3/5/14
f 22/44/3 38/76/3 39/78/3 23/46/3
f 5/9/13 53/106/13 52/104/13 4/7/13
f 23/46/15 39/78/15 40/80/15 24/48/15
f 6/11/12 54/108/12 53/106/12 5/9/12
f 24/48/17 40/80/17 41/82/17 25/50/17
f 7/13/11 55/110/11 54/108/11 6/11/11
f 25/50/2 41/82/2 42/84/2 26/52/2
f 8/15/8 56/112/8 55/110/8 7/13/8
f 26/52/16 42/84/16 43/86/16 27/54/16
f 9/17/5 57/114/5 56/112/5 8/15/5
f 95/159/18 96/160/18 128/192/18 127/191/18
f 82/146/2 97/161/2 98/162/2 83/147/2
f 69/133/3 111/175/3 110/174/3 70/134/3
f 48/96/1 64/128/1 50/100/1 34/68/1
f 70/134/6 110/174/6 109/173/6 71/135/6
f 71/135/9 109/173/9 108/172/9 72/136/9
f 72/136/4 108/172/4 107/171/4 73/137/4
f 73/137/7 107/171/7 106/170/7 74/138/7
f 74/138/10 106/170/10 105/169/10 75/139/10
f 68/132/15 112/176/15 111/175/15 69/133/15
f 81/145/16 99/163/16 97/161/16 82/146/16
f 83/147/17 98/162/17 112/176/17 68/132/17
f 80/144/14 100/164/14 99/163/14 81/145/14
f 79/143/13 101/165/13 100/164/13 80/144/13
f 78/142/12 102/166/12 101/165/12 79/143/12
f 77/141/11 103/167/11 102/166/11 78/142/11
f 76/140/8 104/168/8 103/167/8 77/141/8
f 75/139/5 105/169/5 104/168/5 76/140/5
f 82/146/19 83/147/19 68/132/19 69/133/19 70/134/19 71/135/19 72/136/19 73/137/19 74/138/19 75/139/19 76/140/19 77/141/19 78/142/19 79/143/19 80/144/19 81/145/19
f 67/131/1 66/130/1 98/162/1 97/161/1
f 65/129/1 67/131/1 97/161/1 99/163/1
f 84/148/1 65/129/1 99/163/1 100/164/1
f 85/149/1 84/148/1 100/164/1 101/165/1
f 86/150/1 85/149/1 101/165/1 102/166/1
f 87/151/1 86/150/1 102/166/1 103/167/1
f 88/152/1 87/151/1 103/167/1 104/168/1
f 89/153/1 88/152/1 104/168/1 105/169/1
f 90/154/1 89/153/1 105/169/1 106/170/1
f 91/155/1 90/154/1 106/170/1 107/171/1
f 92/156/1 91/155/1 107/171/1 108/172/1
f 93/157/1 92/156/1 108/172/1 109/173/1
f 94/158/1 93/157/1 109/173/1 110/174/1
f 95/159/1 94/158/1 110/174/1 111/175/1
f 96/160/1 95/159/1 111/175/1 112/176/1
f 66/130/1 96/160/1 112/176/1 98/162/1
f 2/4/19 1/2/19 16/32/19 15/30/19 14/28/19 13/26/19 12/24/19 11/22/19 10/20/19 9/18/19 8/16/19 7/14/19 6/12/19 5/10/19 4/8/19 3/6/19
f 88/152/18 89/153/18 121/185/18 120/184/18
f 66/130/18 67/131/18 113/177/18 114/178/18
f 96/160/18 66/130/18 114/178/18 128/192/18
f 89/153/18 90/154/18 122/186/18 121/185/18
f 67/131/18 65/129/18 115/179/18 113/177/18
f 90/154/18 91/155/18 123/187/18 122/186/18
f 65/129/18 84/148/18 116/180/18 115/179/18
f 91/155/18 92/156/18 124/188/18 123/187/18
f 84/148/18 85/149/18 117/181/18 116/180/18
f 92/156/18 93/157/18 125/189/18 124/188/18
f 85/149/18 86/150/18 118/182/18 117/181/18
f 93/157/18 94/158/18 126/190/18 125/189/18
f 86/150/18 87/151/18 119/183/18 118/182/18
f 94/158/18 95/159/18 127/191/18 126/190/18
f 87/151/18 88/152/18 120/184/18 119/183/18
usemtl Painting2
f 17/33/1 19/37/1 20/39/1 21/41/1 22/43/1 23/45/1 24/47/1 25/49/1 26/51/1 27/53/1 28/55/1 29/57/1 30/59/1 31/61/1 32/63/1 18/35/1
