# Blender 3.4.1
# www.blender.org
mtllib Painting.mtl
o Painting
v -0.411791 -0.199428 0.019389
v -0.411791 0.199428 0.019389
v -0.422075 -0.210339 -0.003861
v -0.422075 0.210339 -0.003861
v 0.411791 -0.199428 0.019389
v 0.411791 0.199428 0.019389
v 0.422075 -0.210339 -0.003861
v 0.422075 0.210339 -0.003861
v -0.422075 -0.210339 0.019389
v -0.422075 0.210339 0.019389
v 0.422075 0.210339 0.019389
v 0.422075 -0.210339 0.019389
v -0.411791 -0.199428 0.007564
v -0.411791 0.199428 0.007564
v 0.411791 0.199428 0.007564
v 0.411791 -0.199428 0.007564
v -0.441885 0.227774 -0.003861
v -0.441885 -0.227774 -0.003861
v 0.441885 -0.227774 -0.003861
v 0.441885 0.227774 -0.003861
v -0.441885 0.227774 -0.037316
v -0.441885 -0.227774 -0.037316
v 0.441885 -0.227774 -0.037316
v 0.441885 0.227774 -0.037316
vn -1.0000 -0.0000 -0.0000
vn -0.0000 -0.0000 1.0000
vn 1.0000 -0.0000 -0.0000
vn -0.0000 1.0000 -0.0000
vn -0.0000 -1.0000 -0.0000
vn -0.0000 -0.0000 -1.0000
vt 0.956267 0.990430
vt 0.969011 0.990430
vt 0.955553 0.948280
vt 0.701120 0.705875
vt 0.941382 0.962451
vt 0.686949 0.720047
vt 0.969725 0.948280
vt 0.715292 0.705875
vt 0.983896 0.962451
vt 0.729463 0.720047
vt 0.956267 0.976987
vt 0.969011 0.976987
vt 0.955553 0.962451
vt 0.701120 0.720047
vt 0.969725 0.962451
vt 0.715292 0.720047
vt 0.955553 0.934108
vt 0.941382 0.976623
vt 0.955553 0.990794
vt 0.969725 0.934108
vt 0.983896 0.976623
vt 0.969725 0.990794
vt 0.969725 0.976623
vt 0.955553 0.976623
vt 0.009830 0.514057
vt 0.956267 0.990430
vt 0.009830 0.990943
vt 0.969011 0.990430
vt 0.994535 0.990943
vt 0.969011 0.976987
vt 0.994535 0.514057
vt 0.956267 0.976987
vt 0.729463 0.720047
vt 0.715292 0.705875
vt 0.701120 0.705875
vt 0.686949 0.720047
vt 0.701120 0.720047
vt 0.715292 0.720047
vt 0.729463 0.720047
vt 0.715292 0.705875
vt 0.701120 0.705875
vt 0.686949 0.720047
vt 0.701120 0.720047
vt 0.715292 0.720047
s 0
usemtl Palette
f 9/17/1 10/20/1 4/7/1 3/3/1
f 3/4/2 4/8/2 17/34/2 18/35/2
f 7/13/3 8/15/3 11/23/3 12/24/3
f 1/1/4 5/11/4 16/32/4 13/26/4
f 3/5/5 7/13/5 12/24/5 9/18/5
f 8/15/4 4/9/4 10/21/4 11/23/4
f 1/1/2 2/2/2 10/22/2 9/19/2
f 6/12/2 5/11/2 12/24/2 11/23/2
f 5/11/2 1/1/2 9/19/2 12/24/2
f 2/2/2 6/12/2 11/23/2 10/22/2
f 2/2/3 1/1/3 13/26/3 14/28/3
f 6/12/5 2/2/5 14/28/5 15/30/5
f 5/11/1 6/12/1 15/30/1 16/32/1
f 17/33/4 20/38/4 24/44/4 21/39/4
f 8/16/2 7/14/2 19/37/2 20/38/2
f 7/14/2 3/6/2 18/36/2 19/37/2
f 4/10/2 8/16/2 20/38/2 17/33/2
f 22/41/6 21/40/6 24/44/6 23/43/6
f 18/35/1 17/34/1 21/40/1 22/41/1
f 20/38/3 19/37/3 23/43/3 24/44/3
f 19/37/5 18/36/5 22/42/5 23/43/5
usemtl Painting3
f 16/31/2 15/29/2 14/27/2 13/25/2
