# Blender 3.4.1
# www.blender.org
mtllib Painting_Small_1.mtl
o Painting_Small_1
v -0.093750 -0.093750 0.019389
v -0.093750 0.093750 0.019389
v 0.093750 -0.093750 0.019389
v 0.093750 0.093750 0.019389
v -0.093750 -0.093750 0.007564
v -0.093750 0.093750 0.007564
v 0.093750 0.093750 0.007564
v 0.093750 -0.093750 0.007564
v -0.116789 -0.117081 -0.037316
v -0.125851 -0.126143 -0.028254
v -0.116789 0.117080 -0.037316
v -0.125851 0.126142 -0.028254
v 0.116789 -0.117081 -0.037316
v 0.125851 -0.126143 -0.028254
v 0.125851 0.126142 -0.028254
v 0.116789 0.117080 -0.037316
v -0.125851 -0.126143 0.010327
v -0.116830 -0.117040 0.019389
v -0.116830 0.117039 0.019389
v -0.125851 0.126142 0.010327
v 0.125851 0.126142 0.010327
v 0.116830 0.117039 0.019389
v 0.116830 -0.117040 0.019389
v 0.125851 -0.126143 0.010327
v -0.105290 -0.105395 0.023716
v -0.105290 0.105395 0.023716
v 0.105290 -0.105395 0.023716
v 0.105290 0.105395 0.023716
vn -0.0000 -0.0000 -1.0000
vn -0.0000 1.0000 -0.0000
vn -0.3511 -0.0000 0.9363
vn -1.0000 -0.0000 -0.0000
vn 1.0000 -0.0000 -0.0000
vn -0.0000 -0.3484 0.9374
vn -0.0000 0.3484 0.9374
vn 0.3511 -0.0000 0.9363
vn -0.0000 -0.0000 1.0000
vn -0.0000 -1.0000 -0.0000
vn -0.7087 -0.0000 0.7055
vn -0.7071 -0.0000 -0.7071
vn -0.0000 -0.7071 -0.7071
vn -0.0000 0.7071 -0.7071
vn 0.7071 -0.0000 -0.7071
vn 0.7087 -0.0000 0.7055
vn -0.0000 -0.7055 0.7087
vn -0.0000 0.7055 0.7087
vt 0.956267 0.990430
vt 0.969011 0.990430
vt 0.956267 0.976987
vt 0.969011 0.976987
vt 0.011346 0.151346
vt 0.956267 0.990430
vt 0.011346 0.493654
vt 0.969011 0.990430
vt 0.353654 0.493654
vt 0.969011 0.976987
vt 0.353654 0.151347
vt 0.956267 0.976987
vt 0.956062 0.948280
vt 0.956889 0.942014
vt 0.955553 0.946015
vt 0.956105 0.941228
vt 0.941382 0.964716
vt 0.969216 0.948280
vt 0.977139 0.942014
vt 0.983896 0.964716
vt 0.969725 0.946015
vt 0.977923 0.941228
vt 0.956889 0.962260
vt 0.956105 0.963046
vt 0.955553 0.964716
vt 0.969725 0.964716
vt 0.977923 0.963046
vt 0.977139 0.962260
vt 0.955553 0.936373
vt 0.941382 0.974358
vt 0.955754 0.990692
vt 0.956065 0.934108
vt 0.941890 0.976623
vt 0.969213 0.934108
vt 0.969524 0.990692
vt 0.983896 0.974358
vt 0.969725 0.936373
vt 0.969725 0.990794
vt 0.969725 0.974358
vt 0.969725 0.976623
vt 0.969524 0.976725
vt 0.955754 0.976725
vt 0.955045 0.976623
vt 0.955553 0.974358
vt 0.956010 0.990561
vt 0.969268 0.990561
vt 0.956010 0.976856
vt 0.969268 0.976856
s 0
usemtl Palette
f 9/14/1 11/19/1 16/28/1 13/23/1
f 15/26/2 12/20/2 20/36/2 21/39/2
f 25/45/3 26/46/3 19/35/3 18/31/3
f 1/1/2 3/3/2 8/12/2 5/6/2
f 17/29/4 20/37/4 12/21/4 10/15/4
f 14/25/5 15/26/5 21/39/5 24/44/5
f 27/47/6 25/45/6 18/31/6 23/42/6
f 26/46/7 28/48/7 22/41/7 19/35/7
f 28/48/8 27/47/8 23/42/8 22/41/8
f 2/2/5 1/1/5 5/6/5 6/8/5
f 4/4/10 2/2/10 6/8/10 7/10/10
f 3/3/4 4/4/4 7/10/4 8/12/4
f 18/32/11 19/34/11 20/37/11 17/29/11
f 11/18/12 9/13/12 10/15/12 12/21/12
f 14/24/13 10/16/13 9/14/13 13/23/13
f 12/22/14 15/27/14 16/28/14 11/19/14
f 15/27/15 14/24/15 13/23/15 16/28/15
f 22/41/16 23/42/16 24/44/16 21/39/16
f 17/30/17 24/44/17 23/43/17 18/33/17
f 21/40/18 20/38/18 19/35/18 22/41/18
f 10/17/10 14/25/10 24/44/10 17/30/10
f 4/4/3 3/3/3 27/47/3 28/48/3
f 2/2/6 4/4/6 28/48/6 26/46/6
f 3/3/7 1/1/7 25/45/7 27/47/7
f 1/1/8 2/2/8 26/46/8 25/45/8
usemtl Painting3
f 8/11/9 7/9/9 6/7/9 5/5/9
