# Blender 3.4.1
# www.blender.org
mtllib Pen.mtl
o Pen
v -0.001800 0.126239 -0.001801
v -0.000000 0.000554 -0.003202
v -0.002264 0.000554 -0.002264
v -0.003201 0.000554 -0.000001
v -0.002264 0.000554 0.002263
v -0.000000 0.000554 0.003200
v 0.002263 0.000554 0.002263
v 0.003201 0.000554 -0.000001
v 0.002263 0.000554 -0.002264
v -0.000000 0.126239 -0.002790
v -0.002789 0.126239 -0.000001
v -0.001800 0.126239 0.001799
v -0.000000 0.126239 0.002788
v 0.001800 0.126239 0.001799
v 0.002789 0.126239 -0.000001
v 0.001800 0.126239 -0.001801
v -0.000000 0.121180 -0.003783
v 0.002441 0.121180 -0.002442
v 0.003782 0.121180 -0.000001
v 0.002441 0.121180 0.002441
v -0.000000 0.121180 0.003782
v -0.002441 0.121180 0.002441
v -0.003783 0.121180 -0.000001
v -0.002441 0.121180 -0.002442
v -0.000000 0.131685 -0.000639
v 0.000412 0.131685 -0.000413
v 0.000638 0.131685 -0.000001
v 0.000412 0.131685 0.000411
v -0.000000 0.131685 0.000638
v -0.000412 0.131685 0.000411
v -0.000639 0.131685 -0.000001
v -0.000412 0.131685 -0.000413
v -0.002253 0.126241 -0.000001
v -0.001454 0.126241 -0.001455
v -0.000000 0.126241 0.002252
v -0.001454 0.126241 0.001453
v 0.002253 0.126241 -0.000001
v 0.001454 0.126241 0.001453
v -0.000000 0.126241 -0.002253
v 0.001454 0.126241 -0.001455
v -0.000000 0.131685 -0.001101
v 0.000710 0.131685 -0.000711
v 0.001100 0.131685 -0.000001
v 0.000710 0.131685 0.000709
v -0.000000 0.131685 0.001099
v -0.000710 0.131685 0.000709
v -0.001100 0.131685 -0.000001
v -0.000710 0.131685 -0.000711
v -0.000000 0.133215 -0.000479
v 0.000308 0.133215 -0.000309
v 0.000478 0.133215 -0.000001
v 0.000308 0.133215 0.000308
v -0.000000 0.133215 0.000477
v -0.000309 0.133215 0.000308
v -0.000478 0.133215 -0.000001
v -0.000309 0.133215 -0.000309
v 0.002658 0.007702 0.002657
v -0.000000 0.007702 0.003782
v -0.002658 0.007702 0.002657
v -0.003783 0.007702 -0.000001
v -0.002658 0.007702 -0.002659
v -0.000000 0.007702 -0.003783
v 0.002658 0.007702 -0.002659
v 0.003782 0.007702 -0.000001
v -0.002675 0.001962 -0.002675
v -0.000000 0.001962 -0.003783
v -0.003783 0.001962 -0.000001
v -0.002675 0.001962 0.002674
v -0.000000 0.001962 0.003782
v 0.002675 0.001962 0.002674
v 0.003782 0.001962 -0.000001
v 0.002675 0.001962 -0.002675
vn 0.9003 0.0013 -0.4353
vn 0.9003 0.0013 0.4353
vn -0.9003 0.0013 -0.4353
vn -0.9003 0.0013 0.4353
vn -0.4353 0.0013 0.9003
vn 0.4353 0.0013 0.9003
vn 0.4353 0.0013 -0.9003
vn -0.0000 -1.0000 -0.0000
vn -0.4353 0.0013 -0.9003
vn -0.8617 0.1824 -0.4735
vn 0.4746 0.1697 -0.8637
vn 0.8637 0.1697 -0.4746
vn 0.8637 0.1697 0.4745
vn 0.4745 0.1697 0.8637
vn -0.4745 0.1697 0.8637
vn -0.8637 0.1697 0.4745
vn -0.8637 0.1697 -0.4746
vn -0.4746 0.1697 -0.8637
vn -0.4795 0.0915 -0.8727
vn -0.4734 0.1824 0.8617
vn 0.8617 0.1824 0.4734
vn 0.4735 0.1824 -0.8617
vn -0.4735 0.1824 -0.8617
vn -0.8617 0.1824 0.4734
vn 0.4734 0.1824 0.8617
vn 0.8617 0.1824 -0.4735
vn 0.0026 1.0000 -0.0014
vn 0.0014 1.0000 0.0026
vn -0.0026 1.0000 0.0014
vn -0.0014 1.0000 -0.0026
vn 0.0014 1.0000 -0.0026
vn 0.0026 1.0000 0.0014
vn -0.0014 1.0000 0.0026
vn -0.0026 1.0000 -0.0014
vn -0.0000 1.0000 -0.0000
vn -0.8728 0.0916 0.4795
vn 0.4795 0.0916 0.8728
vn 0.8727 0.0916 -0.4795
vn -0.8727 0.0916 -0.4795
vn -0.4795 0.0916 0.8728
vn 0.8728 0.0916 0.4795
vn 0.4795 0.0916 -0.8727
vn -0.3861 0.0019 -0.9224
vn 0.3861 0.0019 -0.9224
vn 0.3861 0.0019 0.9224
vn -0.3861 0.0019 0.9224
vn -0.9224 0.0019 0.3861
vn -0.9224 0.0019 -0.3861
vn 0.9224 0.0019 0.3861
vn 0.9224 0.0019 -0.3861
vn -0.3575 -0.3566 -0.8631
vn -0.8631 -0.3566 -0.3575
vn -0.8631 -0.3566 0.3575
vn -0.3575 -0.3566 0.8631
vn 0.3575 -0.3566 0.8631
vn 0.8631 -0.3566 0.3575
vn 0.8631 -0.3566 -0.3575
vn 0.3575 -0.3566 -0.8631
vt 0.108552 0.967353
vt 0.127769 0.976808
vt 0.113870 0.971051
vt 0.108113 0.957152
vt 0.113870 0.943253
vt 0.127769 0.937496
vt 0.141668 0.943253
vt 0.147425 0.957152
vt 0.141668 0.971051
vt 0.121923 0.973602
vt 0.102304 0.953983
vt 0.108552 0.940612
vt 0.121923 0.934364
vt 0.135293 0.940612
vt 0.141542 0.953983
vt 0.135293 0.967353
vt 0.371970 0.900727
vt 0.121923 0.978983
vt 0.386310 0.894787
vt 0.139600 0.971660
vt 0.392251 0.880446
vt 0.146923 0.953983
vt 0.386310 0.866105
vt 0.139600 0.936305
vt 0.371970 0.860165
vt 0.121923 0.928983
vt 0.357629 0.866105
vt 0.104245 0.936305
vt 0.351689 0.880446
vt 0.096923 0.953983
vt 0.357629 0.894787
vt 0.104245 0.971660
vt 0.121923 0.969711
vt 0.201555 0.812295
vt 0.129541 0.965735
vt 0.209173 0.808319
vt 0.133518 0.958117
vt 0.213149 0.800701
vt 0.129541 0.950498
vt 0.209173 0.793082
vt 0.121923 0.946522
vt 0.201555 0.789106
vt 0.114304 0.950498
vt 0.193936 0.793082
vt 0.110328 0.958117
vt 0.189960 0.800700
vt 0.114304 0.965735
vt 0.193936 0.808319
vt 0.101653 0.958117
vt 0.101653 0.953983
vt 0.108170 0.971869
vt 0.108170 0.967735
vt 0.121923 0.937847
vt 0.121923 0.933713
vt 0.108170 0.944364
vt 0.108170 0.940230
vt 0.142192 0.958117
vt 0.142192 0.953983
vt 0.135675 0.944364
vt 0.135675 0.940230
vt 0.121923 0.978386
vt 0.121923 0.974252
vt 0.135675 0.971869
vt 0.135675 0.967735
vt 0.121923 0.977736
vt 0.135293 0.971487
vt 0.141542 0.958117
vt 0.135293 0.944746
vt 0.121923 0.938497
vt 0.108552 0.944746
vt 0.102304 0.958117
vt 0.108552 0.971487
vt 0.201555 0.812295
vt 0.209173 0.808319
vt 0.213149 0.800701
vt 0.209173 0.793082
vt 0.201555 0.789106
vt 0.193936 0.793082
vt 0.189960 0.800700
vt 0.193936 0.808319
vt 0.386333 0.866083
vt 0.139628 0.936278
vt 0.371970 0.860134
vt 0.121923 0.928944
vt 0.357607 0.866083
vt 0.104218 0.936278
vt 0.351657 0.880446
vt 0.096884 0.953983
vt 0.357607 0.894809
vt 0.104218 0.971688
vt 0.371970 0.900758
vt 0.121923 0.979021
vt 0.386332 0.894809
vt 0.139627 0.971687
vt 0.392282 0.880446
vt 0.146961 0.953983
vt 0.104245 0.971660
vt 0.110091 0.974830
vt 0.121923 0.978983
vt 0.127769 0.982152
vt 0.096923 0.953983
vt 0.102769 0.957152
vt 0.104245 0.936305
vt 0.110091 0.939474
vt 0.121923 0.928983
vt 0.127769 0.932152
vt 0.139600 0.936305
vt 0.145447 0.939474
vt 0.146923 0.953983
vt 0.152769 0.957152
vt 0.139600 0.971660
vt 0.145447 0.974830
s 0
usemtl Palette
f 64/95/1 63/93/1 18/19/1 19/21/1
f 57/81/2 64/95/2 19/21/2 20/23/2
f 61/89/3 60/87/3 23/29/3 24/31/3
f 60/87/4 59/85/4 22/27/4 23/29/4
f 59/85/5 58/83/5 21/25/5 22/27/5
f 58/83/6 57/81/6 20/23/6 21/25/6
f 63/93/7 62/91/7 17/17/7 18/19/7
f 2/2/8 9/9/8 8/8/8 7/7/8 6/6/8 5/5/8 4/4/8 3/3/8
f 62/91/9 61/89/9 24/31/9 17/17/9
f 34/51/10 33/49/10 47/71/10 48/72/10
f 10/10/11 16/16/11 18/20/11 17/18/11
f 16/16/12 15/15/12 19/22/12 18/20/12
f 15/15/13 14/14/13 20/24/13 19/22/13
f 14/14/14 13/13/14 21/26/14 20/24/14
f 13/13/15 12/12/15 22/28/15 21/26/15
f 12/12/16 11/11/16 23/30/16 22/28/16
f 11/11/17 1/1/17 24/32/17 23/30/17
f 1/1/18 10/10/18 17/18/18 24/32/18
f 25/34/19 32/48/19 56/80/19 49/73/19
f 36/55/20 35/53/20 45/69/20 46/70/20
f 38/59/21 37/57/21 43/67/21 44/68/21
f 40/63/22 39/61/22 41/65/22 42/66/22
f 39/61/23 34/51/23 48/72/23 41/65/23
f 33/49/24 36/55/24 46/70/24 47/71/24
f 35/53/25 38/59/25 44/68/25 45/69/25
f 37/57/26 40/63/26 42/66/26 43/67/26
f 15/15/27 16/16/27 40/64/27 37/58/27
f 13/13/28 14/14/28 38/60/28 35/54/28
f 11/11/29 12/12/29 36/56/29 33/50/29
f 10/10/30 1/1/30 34/52/30 39/62/30
f 16/16/31 10/10/31 39/62/31 40/64/31
f 14/14/32 15/15/32 37/58/32 38/60/32
f 12/12/33 13/13/33 35/54/33 36/56/33
f 1/1/34 11/11/34 33/50/34 34/52/34
f 25/33/35 26/35/35 42/66/35 41/65/35
f 26/35/35 27/37/35 43/67/35 42/66/35
f 27/37/35 28/39/35 44/68/35 43/67/35
f 28/39/35 29/41/35 45/69/35 44/68/35
f 29/41/35 30/43/35 46/70/35 45/69/35
f 30/43/35 31/45/35 47/71/35 46/70/35
f 31/45/35 32/47/35 48/72/35 47/71/35
f 32/47/35 25/33/35 41/65/35 48/72/35
f 49/73/35 56/80/35 55/79/35 54/78/35 53/77/35 52/76/35 51/75/35 50/74/35
f 31/46/36 30/44/36 54/78/36 55/79/36
f 29/42/37 28/40/37 52/76/37 53/77/37
f 27/38/38 26/36/38 50/74/38 51/75/38
f 32/48/39 31/46/39 55/79/39 56/80/39
f 30/44/40 29/42/40 53/77/40 54/78/40
f 28/40/41 27/38/41 51/75/41 52/76/41
f 26/36/42 25/34/42 49/73/42 50/74/42
f 66/99/43 65/97/43 61/90/43 62/92/43
f 72/111/44 66/99/44 62/92/44 63/94/44
f 69/105/45 70/107/45 57/82/45 58/84/45
f 68/103/46 69/105/46 58/84/46 59/86/46
f 67/101/47 68/103/47 59/86/47 60/88/47
f 65/97/48 67/101/48 60/88/48 61/90/48
f 70/107/49 71/109/49 64/96/49 57/82/49
f 71/109/50 72/111/50 63/94/50 64/96/50
f 2/2/51 3/3/51 65/98/51 66/100/51
f 3/3/52 4/4/52 67/102/52 65/98/52
f 4/4/53 5/5/53 68/104/53 67/102/53
f 5/5/54 6/6/54 69/106/54 68/104/54
f 6/6/55 7/7/55 70/108/55 69/106/55
f 7/7/56 8/8/56 71/110/56 70/108/56
f 8/8/57 9/9/57 72/112/57 71/110/57
f 9/9/58 2/2/58 66/100/58 72/112/58
