# Blender 3.4.1
# www.blender.org
mtllib Perfume_Acc.mtl
o Perfume_Acc
v 0.003517 0.194101 -0.008491
v 0.008492 0.194101 -0.003517
v 0.008492 0.194101 0.003518
v 0.003517 0.194101 0.008493
v -0.003518 0.194101 0.008493
v -0.008493 0.194101 0.003518
v -0.008493 0.194101 -0.003517
v -0.003518 0.194101 -0.008491
v 0.003517 0.215218 -0.008491
v 0.008492 0.215218 -0.003517
v 0.008492 0.215218 0.003518
v 0.003517 0.215218 0.008493
v -0.003518 0.215218 0.008493
v -0.008493 0.215218 0.003518
v -0.008493 0.215218 -0.003517
v -0.003518 0.215218 -0.008491
v 0.005176 0.209373 -0.012497
v -0.000000 0.209373 -0.013526
v 0.009565 0.209373 -0.009564
v 0.012497 0.209373 -0.005176
v 0.013527 0.209373 0.000001
v 0.012497 0.209373 0.005177
v 0.009565 0.209373 0.009566
v 0.005176 0.209373 0.012498
v -0.000000 0.209373 0.013528
v -0.005177 0.209373 0.012498
v -0.009566 0.209373 0.009566
v -0.012498 0.209373 0.005177
v -0.013528 0.209373 0.000001
v -0.012498 0.209373 -0.005176
v -0.009566 0.209373 -0.009564
v -0.005177 0.209373 -0.012497
v 0.005176 0.227889 -0.012497
v -0.000000 0.227889 -0.013526
v 0.009565 0.227889 -0.009564
v 0.012497 0.227889 -0.005176
v 0.013527 0.227889 0.000001
v 0.012497 0.227889 0.005177
v 0.009565 0.227889 0.009566
v 0.005176 0.227889 0.012498
v -0.000000 0.227889 0.013528
v -0.005177 0.227889 0.012498
v -0.009566 0.227889 0.009566
v -0.012498 0.227889 0.005177
v -0.013528 0.227889 0.000001
v -0.012498 0.227889 -0.005176
v -0.009566 0.227889 -0.009564
v -0.005177 0.227889 -0.012497
v 0.002254 0.225524 0.010064
v 0.006321 0.221456 0.010064
v -0.006318 0.221456 0.010064
v -0.002251 0.225524 0.010064
v -0.002251 0.213568 0.010064
v -0.006318 0.217635 0.010064
v 0.006321 0.217635 0.010064
v 0.002254 0.213568 0.010064
v 0.004079 0.220528 0.017357
v 0.001325 0.223282 0.017357
v -0.001323 0.223282 0.017357
v -0.004077 0.220528 0.017357
v -0.004077 0.218563 0.017357
v -0.001323 0.215809 0.017357
v 0.001325 0.215809 0.017357
v 0.004079 0.218563 0.017357
v 0.006321 0.217635 0.017357
v 0.002254 0.213568 0.017357
v -0.002251 0.213568 0.017357
v -0.006318 0.217635 0.017357
v -0.006318 0.221456 0.017357
v -0.002251 0.225524 0.017357
v 0.002254 0.225524 0.017357
v 0.006321 0.221456 0.017357
vn -0.0000 -0.0000 1.0000
vn -0.3827 -0.9239 -0.0000
vn 0.3827 -0.9239 -0.0000
vn 0.2971 -0.7173 0.6303
vn -0.2971 -0.7173 0.6303
vn -0.9239 0.3827 -0.0000
vn -0.9239 -0.3827 -0.0000
vn -0.7173 -0.2971 0.6303
vn -0.7173 0.2971 0.6303
vn 0.9239 -0.3827 -0.0000
vn 0.9239 0.3827 -0.0000
vn 0.7173 0.2971 0.6303
vn 0.7173 -0.2971 0.6303
vn 0.9239 -0.0000 0.3827
vn 0.3827 -0.0000 0.9239
vn -0.3827 -0.0000 0.9239
vn 0.3827 -0.0000 -0.9239
vn -0.3827 -0.0000 -0.9239
vn 0.9239 -0.0000 -0.3827
vn -0.9239 -0.0000 0.3827
vn -0.9239 -0.0000 -0.3827
vn -0.7462 -0.6657 -0.0000
vn -0.6894 -0.6657 0.2856
vn -0.6894 0.6657 0.2856
vn -0.7462 0.6657 -0.0000
vn 0.6894 -0.6657 0.2856
vn 0.7462 -0.6657 -0.0000
vn 0.7462 0.6657 -0.0000
vn 0.6894 0.6657 0.2856
vn -0.6894 -0.6657 -0.2856
vn -0.6894 0.6657 -0.2856
vn 0.5276 -0.6657 0.5276
vn 0.5276 0.6657 0.5276
vn -0.5276 -0.6657 -0.5276
vn -0.5276 0.6657 -0.5276
vn 0.2856 -0.6657 0.6894
vn 0.2856 0.6657 0.6894
vn -0.2856 -0.6657 -0.6894
vn -0.2856 0.6657 -0.6894
vn -0.0000 -0.6657 0.7462
vn -0.0000 0.6657 0.7462
vn 0.2856 -0.6657 -0.6894
vn -0.0000 -0.6657 -0.7462
vn -0.0000 0.6657 -0.7462
vn 0.2856 0.6657 -0.6894
vn -0.2856 -0.6657 0.6894
vn -0.2856 0.6657 0.6894
vn 0.5276 -0.6657 -0.5276
vn 0.5276 0.6657 -0.5276
vn -0.5276 -0.6657 0.5276
vn -0.5276 0.6657 0.5276
vn 0.6894 -0.6657 -0.2856
vn 0.6894 0.6657 -0.2856
vn -0.0000 -1.0000 -0.0000
vn -0.2971 0.7173 0.6303
vn -0.3827 0.9239 -0.0000
vn 0.3827 0.9239 -0.0000
vn 0.2971 0.7173 0.6303
vt 0.450317 0.888025
vt 0.454881 0.883460
vt 0.454881 0.877005
vt 0.450317 0.872441
vt 0.443862 0.872441
vt 0.439298 0.877005
vt 0.439298 0.883460
vt 0.443862 0.888025
vt 0.450317 0.888025
vt 0.454881 0.883460
vt 0.454881 0.877005
vt 0.450317 0.872441
vt 0.443862 0.872441
vt 0.439298 0.877005
vt 0.439298 0.883460
vt 0.443862 0.888025
vt 0.391921 0.965737
vt 0.394117 0.965737
vt 0.358975 0.965737
vt 0.389724 0.965737
vt 0.387528 0.965737
vt 0.385331 0.965737
vt 0.383135 0.965737
vt 0.380939 0.965737
vt 0.378742 0.965737
vt 0.376546 0.965737
vt 0.374350 0.965737
vt 0.372153 0.965737
vt 0.369957 0.965737
vt 0.367761 0.965737
vt 0.365564 0.965737
vt 0.363368 0.965737
vt 0.361172 0.965737
vt 0.391921 0.965737
vt 0.394117 0.965737
vt 0.358975 0.965737
vt 0.389724 0.965737
vt 0.387528 0.965737
vt 0.385331 0.965737
vt 0.383135 0.965737
vt 0.380939 0.965737
vt 0.378742 0.965737
vt 0.376546 0.965737
vt 0.374350 0.965737
vt 0.372153 0.965737
vt 0.369957 0.965737
vt 0.367761 0.965737
vt 0.365564 0.965737
vt 0.363368 0.965737
vt 0.361172 0.965737
vt 0.470013 0.963110
vt 0.470013 0.965437
vt 0.470013 0.958205
vt 0.470013 0.960532
vt 0.470013 0.960532
vt 0.470013 0.958205
vt 0.470013 0.965437
vt 0.470013 0.963110
vt 0.117682 0.953947
vt 0.467409 0.948529
vt 0.117682 0.952371
vt 0.467409 0.946953
vt 0.117682 0.950856
vt 0.467409 0.945438
vt 0.117682 0.949280
vt 0.467409 0.943863
vt 0.117682 0.949280
vt 0.467409 0.943863
vt 0.117682 0.950856
vt 0.467409 0.945438
vt 0.117682 0.952371
vt 0.467409 0.946953
vt 0.117682 0.953947
vt 0.467409 0.948529
vt 0.470013 0.965437
vt 0.467409 0.949812
vt 0.470013 0.963110
vt 0.467409 0.947485
vt 0.470013 0.960532
vt 0.467409 0.944907
vt 0.470013 0.958205
vt 0.467409 0.942580
vt 0.470013 0.958205
vt 0.467409 0.942580
vt 0.470013 0.960532
vt 0.467409 0.944907
vt 0.470013 0.963109
vt 0.467409 0.947484
vt 0.470013 0.965437
vt 0.467409 0.949812
s 0
usemtl Palette
f 61/67/1 62/69/1 63/71/1 64/73/1 57/59/1 58/61/1 59/63/1 60/65/1
s 1
f 53/55/2 56/58/3 66/77/4 67/79/5
f 51/53/6 54/56/7 68/81/8 69/83/9
f 55/57/10 50/52/11 72/89/12 65/75/13
f 3/3/14 11/11/14 12/12/15 4/4/15
f 5/5/16 4/4/15 12/12/15 13/13/16
f 1/1/17 8/8/18 16/16/18 9/9/17
f 2/2/19 1/1/17 9/9/17 10/10/19
f 6/6/20 5/5/16 13/13/16 14/14/20
f 3/3/14 2/2/19 10/10/19 11/11/14
f 7/7/21 6/6/20 14/14/20 15/15/21
f 29/30/22 28/29/23 44/46/24 45/47/25
f 22/23/26 21/22/27 37/39/28 38/40/29
f 30/31/30 29/30/22 45/47/25 46/48/31
f 23/24/32 22/23/26 38/40/29 39/41/33
f 31/32/34 30/31/30 46/48/31 47/49/35
f 24/25/36 23/24/32 39/41/33 40/42/37
f 32/33/38 31/32/34 47/49/35 48/50/39
f 25/26/40 24/25/36 40/42/37 41/43/41
f 17/17/42 18/18/43 34/35/44 33/34/45
f 18/19/43 32/33/38 48/50/39 34/36/44
f 26/27/46 25/26/40 41/43/41 42/44/47
f 19/20/48 17/17/42 33/34/45 35/37/49
f 27/28/50 26/27/46 42/44/47 43/45/51
f 20/21/52 19/20/48 35/37/49 36/38/53
f 28/29/23 27/28/50 43/45/51 44/46/24
f 21/22/27 20/21/52 36/38/53 37/39/28
f 33/34/45 34/36/44 48/50/39 47/49/35 46/48/31 45/47/25 44/46/24 43/45/51 42/44/47 41/43/41 40/42/37 39/41/33 38/40/29 37/39/28 36/38/53 35/37/49
s 0
f 17/17/54 19/20/54 20/21/54 21/22/54 22/23/54 23/24/54 24/25/54 25/26/54 26/27/54 27/28/54 28/29/54 29/30/54 30/31/54 31/32/54 32/33/54 18/19/54
s 1
f 55/57/10 65/75/13 66/77/4 56/58/3
f 68/81/8 54/56/7 53/55/2 67/79/5
f 70/85/55 52/54/56 51/53/6 69/83/9
f 49/51/57 71/87/58 72/89/12 50/52/11
f 49/51/57 52/54/56 70/85/55 71/87/58
f 8/8/18 7/7/21 15/15/21 16/16/18
s 0
f 64/74/1 63/72/1 66/78/1 65/76/1
f 62/70/1 61/68/1 68/82/1 67/80/1
f 60/66/1 59/64/1 70/86/1 69/84/1
f 58/62/1 57/60/1 72/90/1 71/88/1
f 59/64/1 58/62/1 71/88/1 70/86/1
f 57/60/1 64/74/1 65/76/1 72/90/1
f 61/68/1 60/66/1 69/84/1 68/82/1
f 63/72/1 62/70/1 67/80/1 66/78/1
