# Blender 3.4.1
# www.blender.org
mtllib Perfume_2.mtl
o Perfume_2
v 0.022991 0.061792 -0.022991
v 0.022991 0.061792 0.022991
v -0.022991 0.061792 0.022991
v -0.022991 0.061792 -0.022991
v -0.025824 0.057090 0.025824
v 0.025824 0.057090 0.025824
v -0.025824 0.057090 -0.025824
v 0.025824 0.057090 -0.025824
v -0.025824 0.070836 -0.025824
v -0.025824 0.070836 0.025824
v 0.025824 0.070836 0.025824
v 0.025824 0.070836 -0.025824
v -0.035750 0.197031 -0.035750
v -0.039076 0.193273 -0.039076
v -0.039076 0.193273 0.039076
v -0.035750 0.197031 0.035750
v 0.039076 0.193273 0.039076
v 0.035750 0.197031 0.035750
v 0.039076 0.193273 -0.039076
v 0.035750 0.197031 -0.035750
v -0.027027 0.000000 0.027027
v -0.029902 0.003234 0.029902
v 0.027027 0.000000 0.027027
v 0.029902 0.003234 0.029902
v -0.029902 0.003234 -0.029902
v -0.027027 0.000000 -0.027027
v 0.027027 0.000000 -0.027027
v 0.029902 0.003234 -0.029902
vn -0.0000 0.1172 0.9931
vn -0.0000 -0.1214 -0.9926
vn -0.0000 1.0000 -0.0000
vn -0.0000 -0.1214 0.9926
vn 0.9926 -0.1214 -0.0000
vn 0.9931 0.1172 -0.0000
vn -0.0000 -1.0000 -0.0000
vn -0.0000 0.1172 -0.9931
vn -0.0000 -0.0000 -1.0000
vn -0.0000 -0.0000 1.0000
vn 1.0000 -0.0000 -0.0000
vn -1.0000 -0.0000 -0.0000
vn -0.7488 0.6628 -0.0000
vn -0.0000 0.6628 0.7488
vn 0.7488 0.6628 -0.0000
vn -0.0000 0.6628 -0.7488
vn -0.9926 -0.1214 -0.0000
vn -0.7474 -0.6644 -0.0000
vn -0.0000 -0.6644 0.7474
vn 0.7474 -0.6644 -0.0000
vn -0.0000 -0.6644 -0.7474
vn -0.9931 0.1172 -0.0000
vt 0.401797 0.978916
vt 0.306962 0.975217
vt 0.401797 0.936833
vt 0.306962 0.933134
vt 0.359715 0.936833
vt 0.264880 0.933134
vt 0.359715 0.978916
vt 0.264880 0.975217
vt 0.439142 0.939437
vt 0.481224 0.939437
vt 0.439142 0.981520
vt 0.481224 0.981520
vt 0.439142 0.981520
vt 0.439142 0.939437
vt 0.481224 0.939437
vt 0.481224 0.981520
vt 0.361729 0.976901
vt 0.359715 0.978916
vt 0.359715 0.936833
vt 0.361729 0.938848
vt 0.401797 0.936833
vt 0.399783 0.938848
vt 0.401797 0.978916
vt 0.399783 0.976901
vt 0.356769 0.944304
vt 0.277559 0.943209
vt 0.275297 0.941212
vt 0.275562 0.940947
vt 0.264880 0.933134
vt 0.394326 0.944304
vt 0.315116 0.943209
vt 0.306962 0.933134
vt 0.317114 0.940947
vt 0.317379 0.941212
vt 0.275297 0.982764
vt 0.275562 0.983029
vt 0.264880 0.975217
vt 0.356769 0.981861
vt 0.277559 0.980766
vt 0.394326 0.981861
vt 0.315116 0.980766
vt 0.306962 0.975217
vt 0.317379 0.982764
vt 0.317114 0.983029
s 0
usemtl Palette
f 22/29/1 24/32/1 2/4/1 3/6/1
f 1/1/2 4/7/2 14/18/2 19/23/2
f 16/20/3 18/22/3 20/24/3 13/17/3
f 3/5/4 2/3/4 17/21/4 15/19/4
f 2/3/5 1/1/5 19/23/5 17/21/5
f 24/32/6 28/42/6 1/2/6 2/4/6
f 21/25/7 26/38/7 27/40/7 23/30/7
f 28/42/8 25/37/8 4/8/8 1/2/8
f 5/9/7 7/11/7 8/12/7 6/10/7
f 10/14/3 11/15/3 12/16/3 9/13/3
f 7/11/9 9/13/9 12/16/9 8/12/9
f 6/10/10 11/15/10 10/14/10 5/9/10
f 8/12/11 12/16/11 11/15/11 6/10/11
f 5/9/12 10/14/12 9/13/12 7/11/12
f 14/18/13 15/19/13 16/20/13 13/17/13
f 15/19/14 17/21/14 18/22/14 16/20/14
f 17/21/15 19/23/15 20/24/15 18/22/15
f 19/23/16 14/18/16 13/17/16 20/24/16
f 4/7/17 3/5/17 15/19/17 14/18/17
f 26/39/18 21/26/18 22/27/18 25/35/18
f 21/26/19 23/31/19 24/33/19 22/28/19
f 23/31/20 27/41/20 28/43/20 24/34/20
f 27/41/21 26/39/21 25/36/21 28/44/21
f 25/37/22 22/29/22 3/6/22 4/8/22
