# Blender 3.4.1
# www.blender.org
mtllib Pillow__Sofa_.mtl
o Pillow_(Sofa)
v 0.249971 0.041011 -0.205943
v -0.249969 0.041011 -0.205943
v -0.249969 0.041011 0.205943
v 0.249971 0.041011 0.205943
v -0.249969 -0.041011 0.205943
v -0.249969 -0.041011 -0.205943
v 0.249971 -0.041011 0.205943
v 0.249971 -0.041011 -0.205943
v 0.119619 0.118740 -0.075592
v 0.238956 0.066675 -0.194929
v -0.119617 0.118740 -0.075592
v -0.238954 0.066675 -0.194929
v -0.119617 0.118740 0.075592
v -0.238954 0.066675 0.194929
v 0.119619 0.118740 0.075592
v 0.238956 0.066675 0.194929
v -0.119617 -0.118739 0.075592
v -0.238954 -0.066675 0.194929
v -0.119617 -0.118739 -0.075592
v -0.238954 -0.066675 -0.194929
v 0.119619 -0.118739 0.075592
v 0.238956 -0.066675 0.194929
v 0.119619 -0.118739 -0.075592
v 0.238956 -0.066675 -0.194929
v 0.205112 0.088979 0.161085
v -0.205110 0.088979 0.161085
v -0.205110 0.088979 -0.161085
v 0.205112 0.088979 -0.161085
v -0.205110 -0.088979 0.161085
v 0.205112 -0.088979 0.161085
v 0.205112 -0.088979 -0.161085
v -0.205110 -0.088979 -0.161085
v 0.158537 0.112619 0.114510
v -0.158535 0.112619 0.114510
v -0.158535 0.112619 -0.114510
v 0.158537 0.112619 -0.114510
v -0.158535 -0.112619 0.114510
v 0.158537 -0.112619 0.114510
v 0.158537 -0.112619 -0.114510
v -0.158535 -0.112619 -0.114510
v 0.000001 0.038428 0.184361
v 0.000001 0.038428 -0.184361
v 0.000001 -0.038428 0.184361
v 0.000001 -0.038428 -0.184361
v 0.000001 0.083374 0.144204
v 0.000001 0.062475 0.174501
v 0.000001 0.083374 -0.144204
v 0.000001 0.062475 -0.174501
v 0.000001 -0.083374 0.144204
v 0.000001 -0.062475 0.174501
v 0.000001 -0.083374 -0.144204
v 0.000001 -0.062475 -0.174501
v 0.000001 0.105525 0.102510
v 0.000001 0.105525 -0.102510
v 0.000001 -0.105525 0.102510
v 0.000001 -0.105525 -0.102510
v 0.000001 0.111260 0.067670
v 0.000001 0.111260 -0.067670
v 0.000001 -0.111260 0.067670
v 0.000001 -0.111260 -0.067670
v 0.223775 0.038428 -0.000000
v 0.223775 -0.038428 -0.000000
v -0.223773 0.038428 -0.000000
v -0.223773 -0.038428 -0.000000
v 0.183617 0.083374 -0.000000
v 0.213914 0.062475 -0.000000
v 0.183617 -0.083374 -0.000000
v 0.213914 -0.062475 -0.000000
v -0.183615 0.083374 -0.000000
v -0.213912 0.062475 -0.000000
v -0.183615 -0.083374 -0.000000
v -0.213912 -0.062475 -0.000000
v 0.141923 0.105525 -0.000000
v 0.141923 -0.105525 -0.000000
v -0.141921 0.105525 -0.000000
v -0.141921 -0.105525 -0.000000
v 0.107083 0.111260 -0.000000
v 0.107083 -0.111260 -0.000000
v -0.107082 0.111260 -0.000000
v -0.107082 -0.111260 -0.000000
v 0.000001 0.111260 -0.000000
v 0.000001 -0.111260 -0.000000
vn -0.0000 -0.1897 -0.9818
vn -0.6973 -0.2490 -0.6721
vn -0.6973 0.2490 -0.6721
vn -0.0000 0.1897 -0.9818
vn -0.9825 0.1863 -0.0000
vn -0.9825 -0.1863 -0.0000
vn 0.9825 -0.1863 -0.0000
vn 0.6973 -0.2490 -0.6721
vn 0.6973 0.2490 -0.6721
vn 0.9825 0.1863 -0.0000
vn 0.5240 -0.6907 -0.4983
vn -0.0000 -0.6223 -0.7828
vn -0.0000 -0.1897 0.9818
vn 0.6973 -0.2490 0.6721
vn 0.6973 0.2490 0.6721
vn -0.0000 0.1897 0.9818
vn -0.7872 -0.6167 -0.0000
vn -0.5240 -0.6907 0.4983
vn -0.6973 -0.2490 0.6721
vn 0.7872 0.6167 -0.0000
vn 0.5240 0.6907 0.4983
vn -0.7872 0.6167 -0.0000
vn -0.5240 0.6907 -0.4983
vn -0.0000 -1.0000 -0.0000
vn -0.0796 -0.9968 -0.0000
vn -0.0541 -0.9983 -0.0210
vn -0.0000 -0.9977 -0.0671
vn -0.0000 0.6223 0.7828
vn -0.5240 0.6907 0.4983
vn -0.6973 0.2490 0.6721
vn 0.5240 -0.6907 0.4983
vn 0.7872 -0.6167 -0.0000
vn -0.0000 -0.6223 0.7828
vn -0.0000 0.6223 -0.7828
vn 0.5240 0.6907 -0.4983
vn -0.0000 0.8448 0.5350
vn -0.2830 0.9240 0.2572
vn -0.0000 0.8448 -0.5350
vn 0.2830 0.9240 -0.2572
vn 0.5480 0.8365 -0.0000
vn 0.2830 0.9240 0.2572
vn -0.0000 -0.8448 0.5350
vn 0.2830 -0.9240 0.2572
vn 0.5480 -0.8365 -0.0000
vn 0.2830 -0.9240 -0.2572
vn -0.5480 0.8365 -0.0000
vn -0.2830 0.9240 -0.2572
vn -0.0000 -0.8448 -0.5350
vn -0.2830 -0.9240 -0.2572
vn -0.5240 -0.6907 -0.4983
vn -0.5480 -0.8365 -0.0000
vn -0.2830 -0.9240 0.2572
vn -0.0000 1.0000 -0.0000
vn -0.0796 0.9968 -0.0000
vn -0.0541 0.9983 0.0210
vn -0.0000 0.9977 0.0671
vn -0.0000 0.9406 0.3395
vn -0.2009 0.9650 0.1685
vn -0.0000 0.9406 -0.3395
vn 0.2009 0.9650 -0.1685
vn 0.3534 0.9355 -0.0000
vn 0.2009 0.9650 0.1685
vn -0.0000 -0.9406 0.3395
vn 0.2009 -0.9650 0.1685
vn 0.3534 -0.9355 -0.0000
vn 0.2009 -0.9650 -0.1685
vn -0.3534 0.9355 -0.0000
vn -0.2009 0.9650 -0.1685
vn -0.0000 -0.9406 -0.3395
vn -0.2009 -0.9650 -0.1685
vn -0.3534 -0.9355 -0.0000
vn -0.2009 -0.9650 0.1685
vn -0.0000 0.9977 -0.0671
vn 0.0541 0.9983 -0.0210
vn 0.0796 0.9968 -0.0000
vn 0.0541 0.9983 0.0210
vn -0.0000 -0.9977 0.0671
vn 0.0541 -0.9983 0.0210
vn 0.0796 -0.9968 -0.0000
vn 0.0541 -0.9983 -0.0210
vn -0.0541 0.9983 -0.0210
vn -0.0541 -0.9983 0.0210
vt 0.377972 0.618976
vt 0.385788 0.618976
vt 0.385788 0.634610
vt 0.377972 0.634610
vt 0.385788 0.634610
vt 0.385788 0.618976
vt 0.377972 0.634610
vt 0.377972 0.618976
vt 0.380010 0.623705
vt 0.378144 0.619280
vt 0.383750 0.623705
vt 0.385616 0.619280
vt 0.383750 0.629881
vt 0.385616 0.634306
vt 0.380010 0.629881
vt 0.378144 0.634306
vt 0.383750 0.629881
vt 0.385616 0.634306
vt 0.383750 0.623705
vt 0.385616 0.619280
vt 0.380010 0.629881
vt 0.378144 0.634306
vt 0.380010 0.623705
vt 0.378144 0.619280
vt 0.378673 0.633373
vt 0.385087 0.633373
vt 0.385087 0.620213
vt 0.378673 0.620213
vt 0.385087 0.633373
vt 0.378673 0.633373
vt 0.378673 0.620213
vt 0.385087 0.620213
vt 0.379401 0.631471
vt 0.384359 0.631471
vt 0.384359 0.622115
vt 0.379401 0.622115
vt 0.384359 0.631471
vt 0.379401 0.631471
vt 0.379401 0.622115
vt 0.384359 0.622115
vt 0.381880 0.634610
vt 0.381880 0.618976
vt 0.381880 0.634610
vt 0.381880 0.618976
vt 0.381880 0.633373
vt 0.381880 0.634306
vt 0.381880 0.620213
vt 0.381880 0.619280
vt 0.381880 0.633373
vt 0.381880 0.634306
vt 0.381880 0.620213
vt 0.381880 0.619280
vt 0.381880 0.631471
vt 0.381880 0.622115
vt 0.381880 0.631471
vt 0.381880 0.622115
vt 0.381880 0.629881
vt 0.381880 0.623705
vt 0.381880 0.629881
vt 0.381880 0.623705
vt 0.377972 0.626793
vt 0.377972 0.626793
vt 0.385788 0.626793
vt 0.385788 0.626793
vt 0.378673 0.626793
vt 0.378144 0.626793
vt 0.378673 0.626793
vt 0.378144 0.626793
vt 0.385087 0.626793
vt 0.385616 0.626793
vt 0.385087 0.626793
vt 0.385616 0.626793
vt 0.379401 0.626793
vt 0.379401 0.626793
vt 0.384359 0.626793
vt 0.384359 0.626793
vt 0.380010 0.626793
vt 0.380010 0.626793
vt 0.383750 0.626793
vt 0.383750 0.626793
vt 0.381880 0.626793
vt 0.381880 0.626793
s 1
usemtl Palette
f 44/44/1 6/6/2 2/2/3 42/42/4
f 63/63/5 2/2/3 6/6/2 64/64/6
f 62/62/7 8/8/8 1/1/9 61/61/10
f 44/44/1 8/8/8 24/24/11 52/52/12
f 43/43/13 7/7/14 4/4/15 41/41/16
f 72/72/17 18/18/18 5/5/19 64/64/6
f 66/66/20 16/16/21 4/4/15 61/61/10
f 70/70/22 12/12/23 2/2/3 63/63/5
f 82/82/24 80/80/25 19/19/26 60/60/27
f 46/46/28 14/14/29 3/3/30 41/41/16
f 62/62/7 7/7/14 22/22/31 68/68/32
f 43/43/13 5/5/19 18/18/18 50/50/33
f 48/48/34 10/10/35 1/1/9 42/42/4
f 45/45/36 26/26/37 14/14/29 46/46/28
f 47/47/38 28/28/39 10/10/35 48/48/34
f 65/65/40 25/25/41 16/16/21 66/66/20
f 49/49/42 30/30/43 22/22/31 50/50/33
f 67/67/44 31/31/45 24/24/11 68/68/32
f 69/69/46 27/27/47 12/12/23 70/70/22
f 51/51/48 32/32/49 20/20/50 52/52/12
f 71/71/51 29/29/52 18/18/18 72/72/17
f 81/81/53 79/79/54 13/13/55 57/57/56
f 53/53/57 34/34/58 26/26/37 45/45/36
f 54/54/59 36/36/60 28/28/39 47/47/38
f 73/73/61 33/33/62 25/25/41 65/65/40
f 55/55/63 38/38/64 30/30/43 49/49/42
f 74/74/65 39/39/66 31/31/45 67/67/44
f 75/75/67 35/35/68 27/27/47 69/69/46
f 56/56/69 40/40/70 32/32/49 51/51/48
f 76/76/71 37/37/72 29/29/52 71/71/51
f 57/57/56 13/13/55 34/34/58 53/53/57
f 58/58/73 9/9/74 36/36/60 54/54/59
f 77/77/75 15/15/76 33/33/62 73/73/61
f 59/59/77 21/21/78 38/38/64 55/55/63
f 78/78/79 23/23/80 39/39/66 74/74/65
f 79/79/54 11/11/81 35/35/68 75/75/67
f 60/60/27 19/19/26 40/40/70 56/56/69
f 80/80/25 17/17/82 37/37/72 76/76/71
f 23/23/80 60/60/27 56/56/69 39/39/66
f 17/17/82 59/59/77 55/55/63 37/37/72
f 11/11/81 58/58/73 54/54/59 35/35/68
f 15/15/76 57/57/56 53/53/57 33/33/62
f 39/39/66 56/56/69 51/51/48 31/31/45
f 37/37/72 55/55/63 49/49/42 29/29/52
f 35/35/68 54/54/59 47/47/38 27/27/47
f 33/33/62 53/53/57 45/45/36 25/25/41
f 77/77/75 81/81/53 57/57/56 15/15/76
f 31/31/45 51/51/48 52/52/12 24/24/11
f 29/29/52 49/49/42 50/50/33 18/18/18
f 27/27/47 47/47/38 48/48/34 12/12/23
f 25/25/41 45/45/36 46/46/28 16/16/21
f 12/12/23 48/48/34 42/42/4 2/2/3
f 7/7/14 43/43/13 50/50/33 22/22/31
f 16/16/21 46/46/28 41/41/16 4/4/15
f 78/78/79 82/82/24 60/60/27 23/23/80
f 5/5/19 43/43/13 41/41/16 3/3/30
f 6/6/2 44/44/1 52/52/12 20/20/50
f 8/8/8 44/44/1 42/42/4 1/1/9
f 21/21/78 59/59/77 82/82/24 78/78/79
f 9/9/74 58/58/73 81/81/53 77/77/75
f 19/19/26 80/80/25 76/76/71 40/40/70
f 13/13/55 79/79/54 75/75/67 34/34/58
f 21/21/78 78/78/79 74/74/65 38/38/64
f 9/9/74 77/77/75 73/73/61 36/36/60
f 40/40/70 76/76/71 71/71/51 32/32/49
f 34/34/58 75/75/67 69/69/46 26/26/37
f 38/38/64 74/74/65 67/67/44 30/30/43
f 36/36/60 73/73/61 65/65/40 28/28/39
f 58/58/73 11/11/81 79/79/54 81/81/53
f 32/32/49 71/71/51 72/72/17 20/20/50
f 26/26/37 69/69/46 70/70/22 14/14/29
f 30/30/43 67/67/44 68/68/32 22/22/31
f 28/28/39 65/65/40 66/66/20 10/10/35
f 8/8/8 62/62/7 68/68/32 24/24/11
f 59/59/77 17/17/82 80/80/25 82/82/24
f 14/14/29 70/70/22 63/63/5 3/3/30
f 10/10/35 66/66/20 61/61/10 1/1/9
f 20/20/50 72/72/17 64/64/6 6/6/2
f 7/7/14 62/62/7 61/61/10 4/4/15
f 3/3/30 63/63/5 64/64/6 5/5/19
