# Blender 3.4.1
# www.blender.org
mtllib Plate__Big_.mtl
o Plate_(Big)
v -0.076537 0.052309 -0.133312
v 0.002140 0.004639 -0.059653
v -0.029344 0.004639 -0.051217
v -0.052393 0.004639 -0.028168
v -0.060829 0.004639 0.003317
v -0.052393 0.004639 0.034802
v -0.029344 0.004639 0.057850
v 0.002140 0.004639 0.066287
v 0.033625 0.004639 0.057850
v 0.056674 0.004639 0.034802
v 0.065110 0.004639 0.003317
v 0.056674 0.004639 -0.028168
v 0.033625 0.004639 -0.051217
v 0.003461 0.052309 -0.154747
v -0.135100 0.052309 -0.074749
v -0.156535 0.052309 0.005249
v -0.135100 0.052309 0.085247
v -0.076537 0.052309 0.143810
v 0.003461 0.052309 0.165246
v 0.083459 0.052309 0.143810
v 0.142022 0.052309 0.085247
v 0.163458 0.052309 0.005249
v 0.142022 0.052309 -0.074749
v 0.083459 0.052309 -0.133312
v 0.003461 0.052309 -0.182013
v 0.097092 0.052309 -0.156925
v 0.165635 0.052309 -0.088382
v 0.190723 0.052309 0.005249
v 0.165635 0.052309 0.098880
v 0.097092 0.052309 0.167423
v 0.003461 0.052309 0.192511
v -0.090170 0.052309 0.167423
v -0.158713 0.052309 0.098880
v -0.183801 0.052309 0.005249
v -0.158713 0.052309 -0.088382
v -0.090170 0.052309 -0.156925
v 0.003463 0.008779 -0.046244
v 0.029212 0.008779 -0.039344
v 0.048061 0.008779 -0.020495
v 0.054961 0.008779 0.005254
v 0.048061 0.008779 0.031003
v 0.029212 0.008779 0.049852
v 0.003463 0.008779 0.056752
v -0.022286 0.008779 0.049852
v -0.041135 0.008779 0.031003
v -0.048035 0.008779 0.005254
v -0.041135 0.008779 -0.020495
v -0.022286 0.008779 -0.039344
v 0.080807 0.027595 -0.130509
v 0.137837 0.027595 -0.073478
v 0.002901 0.027595 0.160238
v -0.075004 0.027595 0.139363
v 0.137837 0.027595 0.082333
v 0.080807 0.027595 0.139363
v -0.152910 0.027595 0.004427
v -0.132035 0.027595 -0.073478
v 0.158712 0.027595 0.004427
v -0.132035 0.027595 0.082333
v 0.002901 0.027595 -0.151384
v -0.075004 0.027595 -0.130509
v 0.068862 0.030544 0.118528
v 0.003462 0.030544 0.136052
v 0.116738 0.030544 -0.060149
v 0.134262 0.030544 0.005251
v -0.127339 0.030544 0.005251
v -0.109815 0.030544 -0.060149
v -0.061939 0.030544 0.118528
v 0.116738 0.030544 0.070652
v -0.061939 0.030544 -0.108025
v 0.003462 0.030544 -0.125549
v 0.068862 0.030544 -0.108025
v -0.109815 0.030544 0.070652
vn -0.0009 -0.8808 -0.4736
vn -0.2377 -0.8799 -0.4114
vn -0.4777 0.2937 -0.8280
vn 0.0019 0.2925 -0.9563
vn 0.3972 -0.8888 0.2285
vn 0.4612 -0.8873 -0.0013
vn 0.9590 0.2834 0.0027
vn 0.8304 0.2812 0.4810
vn -0.0009 -0.8885 0.4589
vn 0.2286 -0.8893 0.3962
vn 0.4801 0.2806 0.8311
vn 0.0018 0.2817 0.9595
vn 0.2337 -0.8826 -0.4078
vn 0.4811 0.2899 -0.8273
vn -0.4051 -0.8843 0.2320
vn -0.2324 -0.8867 0.3997
vn -0.4768 0.2842 0.8318
vn -0.8278 0.2875 0.4817
vn 0.4023 -0.8850 -0.2342
vn 0.8314 0.2865 -0.4762
vn -0.4103 -0.8804 -0.2378
vn -0.4712 -0.8820 -0.0014
vn -0.9568 0.2907 0.0028
vn -0.8287 0.2930 -0.4768
vn -0.0000 0.8864 -0.4630
vn -0.2315 0.8864 -0.4010
vn -0.0776 0.9879 -0.1345
vn -0.0000 0.9879 -0.1552
vn -0.0002 -0.9898 -0.1423
vn 0.0704 -0.9899 -0.1227
vn 0.1215 -0.9901 -0.0706
vn 0.1396 -0.9902 -0.0003
vn 0.1204 -0.9903 0.0693
vn 0.0693 -0.9903 0.1202
vn -0.0002 -0.9903 0.1391
vn -0.0702 -0.9902 0.1209
vn -0.1222 -0.9900 0.0700
vn -0.1418 -0.9899 -0.0004
vn -0.1232 -0.9898 -0.0714
vn -0.0713 -0.9898 -0.1235
vn -0.0000 1.0000 -0.0000
vn -0.0000 0.9879 0.1552
vn 0.0776 0.9879 0.1344
vn 0.1344 0.9879 0.0776
vn 0.1552 0.9879 -0.0000
vn 0.1344 0.9879 -0.0776
vn 0.0776 0.9879 -0.1344
vn -0.1344 0.9879 -0.0776
vn -0.1552 0.9879 -0.0000
vn -0.1344 0.9879 0.0776
vn -0.0776 0.9879 0.1344
vn -0.4630 0.8864 -0.0000
vn -0.4010 0.8864 0.2315
vn 0.4009 0.8864 0.2315
vn 0.4630 0.8864 -0.0000
vn 0.2315 0.8864 -0.4010
vn -0.4010 0.8864 -0.2315
vn 0.2315 0.8864 0.4009
vn -0.2315 0.8864 0.4009
vn -0.0000 0.8864 0.4630
vn 0.4010 0.8864 -0.2315
vn 0.2661 0.9639 -0.0000
vn 0.2305 0.9639 -0.1331
vn -0.2305 0.9639 0.1331
vn -0.1331 0.9639 0.2305
vn -0.0000 0.9639 0.2661
vn 0.1331 0.9639 0.2305
vn -0.1331 0.9639 -0.2305
vn -0.2305 0.9639 -0.1331
vn 0.1331 0.9639 -0.2305
vn 0.2305 0.9639 0.1331
vn -0.2662 0.9639 -0.0000
vn -0.0000 0.9639 -0.2662
vt 0.029744 0.893206
vt 0.040424 0.899708
vt 0.027924 0.896359
vt 0.018773 0.887208
vt 0.015424 0.874708
vt 0.018773 0.862208
vt 0.027924 0.853057
vt 0.040424 0.849708
vt 0.052924 0.853057
vt 0.062074 0.862208
vt 0.065424 0.874708
vt 0.062074 0.887208
vt 0.052924 0.896359
vt 0.040424 0.896068
vt 0.021926 0.885388
vt 0.019064 0.874708
vt 0.021926 0.864028
vt 0.029744 0.856210
vt 0.040424 0.853348
vt 0.051104 0.856210
vt 0.058922 0.864028
vt 0.061784 0.874708
vt 0.058922 0.885388
vt 0.051104 0.893206
vt 0.040424 0.899708
vt 0.052924 0.896359
vt 0.062074 0.887208
vt 0.065424 0.874708
vt 0.062074 0.862208
vt 0.052924 0.853057
vt 0.040424 0.849708
vt 0.027924 0.853057
vt 0.018773 0.862208
vt 0.015424 0.874708
vt 0.018773 0.887208
vt 0.027924 0.896359
vt 0.040424 0.896068
vt 0.051104 0.893206
vt 0.058922 0.885388
vt 0.061784 0.874708
vt 0.058922 0.864028
vt 0.051104 0.856210
vt 0.040424 0.853348
vt 0.029744 0.856210
vt 0.021926 0.864028
vt 0.019064 0.874708
vt 0.021926 0.885388
vt 0.029744 0.893206
vt 0.052924 0.896359
vt 0.062074 0.887208
vt 0.040424 0.849708
vt 0.027924 0.853057
vt 0.062074 0.862208
vt 0.052924 0.853057
vt 0.015424 0.874708
vt 0.018773 0.887208
vt 0.065424 0.874708
vt 0.018773 0.862208
vt 0.040424 0.899708
vt 0.027924 0.896359
vt 0.051104 0.856210
vt 0.040424 0.853348
vt 0.058922 0.885388
vt 0.061784 0.874708
vt 0.019064 0.874708
vt 0.021926 0.885388
vt 0.029744 0.856210
vt 0.058922 0.864028
vt 0.029744 0.893206
vt 0.040424 0.896068
vt 0.051104 0.893206
vt 0.021926 0.864028
s 1
usemtl Palette
f 59/59/1 60/60/2 36/36/3 25/25/4
f 53/53/5 57/57/6 28/28/7 29/29/8
f 51/51/9 54/54/10 30/30/11 31/31/12
f 49/49/13 59/59/1 25/25/4 26/26/14
f 58/58/15 52/52/16 32/32/17 33/33/18
f 57/57/6 50/50/19 27/27/20 28/28/7
f 56/56/21 55/55/22 34/34/23 35/35/24
f 54/54/10 53/53/5 29/29/8 30/30/11
f 52/52/16 51/51/9 31/31/12 32/32/17
f 50/50/19 49/49/13 26/26/14 27/27/20
f 62/62/25 61/61/26 42/42/27 43/43/28
f 60/60/2 56/56/21 35/35/24 36/36/3
f 2/2/29 13/13/30 12/12/31 11/11/32 10/10/33 9/9/34 8/8/35 7/7/36 6/6/37 5/5/38 4/4/39 3/3/40
f 55/55/22 58/58/15 33/33/18 34/34/23
s 0
f 14/14/41 24/24/41 26/26/41 25/25/41
f 24/24/41 23/23/41 27/27/41 26/26/41
f 23/23/41 22/22/41 28/28/41 27/27/41
f 22/22/41 21/21/41 29/29/41 28/28/41
f 21/21/41 20/20/41 30/30/41 29/29/41
f 20/20/41 19/19/41 31/31/41 30/30/41
f 19/19/41 18/18/41 32/32/41 31/31/41
f 18/18/41 17/17/41 33/33/41 32/32/41
f 17/17/41 16/16/41 34/34/41 33/33/41
f 16/16/41 15/15/41 35/35/41 34/34/41
f 15/15/41 1/1/41 36/36/41 35/35/41
f 1/1/41 14/14/41 25/25/41 36/36/41
s 1
f 37/37/42 48/48/43 47/47/44 46/46/45 45/45/46 44/44/47 43/43/28 42/42/27 41/41/48 40/40/49 39/39/50 38/38/51
f 64/64/52 63/63/53 39/39/50 40/40/49
f 66/66/54 65/65/55 46/46/45 47/47/44
f 67/67/56 62/62/25 43/43/28 44/44/47
f 68/68/57 64/64/52 40/40/49 41/41/48
f 69/69/58 66/66/54 47/47/44 48/48/43
f 71/71/59 70/70/60 37/37/42 38/38/51
f 72/72/61 67/67/56 44/44/47 45/45/46
f 61/61/26 68/68/57 41/41/48 42/42/27
f 70/70/60 69/69/58 48/48/43 37/37/42
f 63/63/53 71/71/59 38/38/51 39/39/50
f 65/65/55 72/72/61 45/45/46 46/46/45
f 5/5/38 6/6/37 58/58/15 55/55/22
f 3/3/40 4/4/39 56/56/21 60/60/2
f 12/12/31 13/13/30 49/49/13 50/50/19
f 7/7/36 8/8/35 51/51/9 52/52/16
f 9/9/34 10/10/33 53/53/5 54/54/10
f 4/4/39 5/5/38 55/55/22 56/56/21
f 11/11/32 12/12/31 50/50/19 57/57/6
f 6/6/37 7/7/36 52/52/16 58/58/15
f 13/13/30 2/2/29 59/59/1 49/49/13
f 8/8/35 9/9/34 54/54/10 51/51/9
f 10/10/33 11/11/32 57/57/6 53/53/5
f 2/2/29 3/3/40 60/60/2 59/59/1
f 16/16/62 17/17/63 72/72/61 65/65/55
f 23/23/64 24/24/65 71/71/59 63/63/53
f 14/14/66 1/1/67 69/69/58 70/70/60
f 20/20/68 21/21/69 68/68/57 61/61/26
f 17/17/63 18/18/70 67/67/56 72/72/61
f 24/24/65 14/14/66 70/70/60 71/71/59
f 1/1/67 15/15/71 66/66/54 69/69/58
f 21/21/69 22/22/72 64/64/52 68/68/57
f 18/18/70 19/19/73 62/62/25 67/67/56
f 15/15/71 16/16/62 65/65/55 66/66/54
f 22/22/72 23/23/64 63/63/53 64/64/52
f 19/19/73 20/20/68 61/61/26 62/62/25
