# Blender 3.4.1
# www.blender.org
mtllib Plate__Small_.mtl
o Plate_(Small)
v -0.051335 0.017327 -0.089633
v 0.002458 -0.001084 -0.039271
v -0.019069 -0.001084 -0.033503
v -0.034827 -0.001084 -0.017744
v -0.040596 -0.001084 0.003783
v -0.034827 -0.001084 0.025310
v -0.019069 -0.001084 0.041068
v 0.002458 -0.001084 0.046836
v 0.023985 -0.001084 0.041068
v 0.039744 -0.001084 0.025310
v 0.045512 -0.001084 0.003783
v 0.039744 -0.001084 -0.017744
v 0.023985 -0.001084 -0.033503
v 0.003361 0.017327 -0.104289
v -0.091376 0.017327 -0.049592
v -0.106032 0.017327 0.005104
v -0.091376 0.017327 0.059800
v -0.051335 0.017327 0.099841
v 0.003361 0.017327 0.114496
v 0.058057 0.017327 0.099841
v 0.098098 0.017327 0.059800
v 0.112754 0.017327 0.005104
v 0.098098 0.017327 -0.049592
v 0.058057 0.017327 -0.089633
v 0.003361 0.017327 -0.122931
v 0.067378 0.017327 -0.105777
v 0.114242 0.017327 -0.058913
v 0.131396 0.017327 0.005104
v 0.114242 0.017327 0.069121
v 0.067378 0.017327 0.115985
v 0.003361 0.017327 0.133138
v -0.060656 0.017327 0.115985
v -0.107520 0.017327 0.069121
v -0.124674 0.017327 0.005104
v -0.107520 0.017327 -0.058913
v -0.060656 0.017327 -0.105777
v 0.003362 0.000515 -0.025244
v 0.018538 0.000515 -0.021177
v 0.029647 0.000515 -0.010068
v 0.033713 0.000515 0.005107
v 0.029647 0.000515 0.020283
v 0.018538 0.000515 0.031392
v 0.003362 0.000515 0.035458
v -0.011813 0.000515 0.031392
v -0.022922 0.000515 0.020283
v -0.026989 0.000515 0.005107
v -0.022922 0.000515 -0.010068
v -0.011813 0.000515 -0.021177
v 0.050978 0.006335 -0.078866
v 0.086178 0.006335 -0.043666
v 0.002893 0.006335 0.100587
v -0.045191 0.006335 0.087702
v 0.086178 0.006335 0.052502
v 0.050978 0.006335 0.087702
v -0.093275 0.006335 0.004418
v -0.080391 0.006335 -0.043666
v 0.099062 0.006335 0.004418
v -0.080391 0.006335 0.052502
v 0.002893 0.006335 -0.091750
v -0.045191 0.006335 -0.078866
v 0.042989 0.007343 0.073743
v 0.003362 0.007343 0.084362
v 0.071999 0.007343 -0.034522
v 0.082617 0.007343 0.005106
v -0.075894 0.007343 0.005106
v -0.065276 0.007343 -0.034522
v -0.036266 0.007343 0.073743
v 0.071999 0.007343 0.044734
v -0.036266 0.007343 -0.063532
v 0.003362 0.007343 -0.074150
v 0.042989 0.007343 -0.063532
v -0.065276 0.007343 0.044734
vn -0.0005 -0.9675 -0.2529
vn -0.1270 -0.9673 -0.2198
vn -0.4943 0.1473 -0.8567
vn 0.0019 0.1467 -0.9892
vn 0.2112 -0.9698 0.1215
vn 0.2455 -0.9694 -0.0007
vn 0.9899 0.1419 0.0027
vn 0.8567 0.1407 0.4962
vn -0.0005 -0.9698 0.2441
vn 0.1216 -0.9700 0.2107
vn 0.4953 0.1404 0.8573
vn 0.0018 0.1410 0.9900
vn 0.1247 -0.9681 -0.2175
vn 0.4973 0.1453 -0.8553
vn -0.2159 -0.9686 0.1236
vn -0.1237 -0.9692 0.2128
vn -0.4924 0.1423 0.8587
vn -0.8554 0.1441 0.4976
vn 0.2143 -0.9688 -0.1248
vn 0.8587 0.1435 -0.4920
vn -0.2191 -0.9674 -0.1270
vn -0.2514 -0.9679 -0.0008
vn -0.9893 0.1458 0.0027
vn -0.8573 0.1470 -0.4933
vn -0.0000 0.9704 -0.2415
vn -0.1208 0.9704 -0.2092
vn -0.0404 0.9967 -0.0700
vn -0.0000 0.9967 -0.0808
vn -0.0001 -0.9967 -0.0818
vn 0.0405 -0.9967 -0.0705
vn 0.0698 -0.9967 -0.0406
vn 0.0802 -0.9968 -0.0002
vn 0.0691 -0.9968 0.0398
vn 0.0398 -0.9968 0.0690
vn -0.0001 -0.9968 0.0799
vn -0.0404 -0.9968 0.0694
vn -0.0702 -0.9967 0.0402
vn -0.0815 -0.9967 -0.0002
vn -0.0708 -0.9966 -0.0410
vn -0.0410 -0.9966 -0.0710
vn -0.0000 1.0000 -0.0000
vn -0.0000 0.9967 0.0808
vn 0.0404 0.9967 0.0700
vn 0.0700 0.9967 0.0404
vn 0.0808 0.9967 -0.0000
vn 0.0700 0.9967 -0.0404
vn 0.0404 0.9967 -0.0700
vn -0.0700 0.9967 -0.0404
vn -0.0808 0.9967 -0.0000
vn -0.0700 0.9967 0.0404
vn -0.0404 0.9967 0.0700
vn -0.2415 0.9704 -0.0000
vn -0.2091 0.9704 0.1207
vn 0.2091 0.9704 0.1207
vn 0.2415 0.9704 -0.0000
vn 0.1208 0.9704 -0.2091
vn -0.2091 0.9704 -0.1208
vn 0.1207 0.9704 0.2091
vn -0.1207 0.9704 0.2091
vn -0.0000 0.9704 0.2415
vn 0.2091 0.9704 -0.1208
vn 0.1332 0.9911 -0.0000
vn 0.1154 0.9911 -0.0666
vn -0.1154 0.9911 0.0666
vn -0.0666 0.9911 0.1153
vn -0.0000 0.9911 0.1332
vn 0.0666 0.9911 0.1153
vn -0.0666 0.9911 -0.1154
vn -0.1154 0.9911 -0.0666
vn 0.0666 0.9911 -0.1154
vn 0.1153 0.9911 0.0666
vn -0.1332 0.9911 -0.0000
vn -0.0000 0.9911 -0.1332
vt 0.029744 0.893206
vt 0.040424 0.899708
vt 0.027924 0.896359
vt 0.018773 0.887208
vt 0.015424 0.874708
vt 0.018773 0.862208
vt 0.027924 0.853057
vt 0.040424 0.849708
vt 0.052924 0.853057
vt 0.062074 0.862208
vt 0.065424 0.874708
vt 0.062074 0.887208
vt 0.052924 0.896359
vt 0.040424 0.896068
vt 0.021926 0.885388
vt 0.019064 0.874708
vt 0.021926 0.864028
vt 0.029744 0.856210
vt 0.040424 0.853348
vt 0.051104 0.856210
vt 0.058922 0.864028
vt 0.061784 0.874708
vt 0.058922 0.885388
vt 0.051104 0.893206
vt 0.040424 0.899708
vt 0.052924 0.896359
vt 0.062074 0.887208
vt 0.065424 0.874708
vt 0.062074 0.862208
vt 0.052924 0.853057
vt 0.040424 0.849708
vt 0.027924 0.853057
vt 0.018773 0.862208
vt 0.015424 0.874708
vt 0.018773 0.887208
vt 0.027924 0.896359
vt 0.040424 0.896068
vt 0.051104 0.893206
vt 0.058922 0.885388
vt 0.061784 0.874708
vt 0.058922 0.864028
vt 0.051104 0.856210
vt 0.040424 0.853348
vt 0.029744 0.856210
vt 0.021926 0.864028
vt 0.019064 0.874708
vt 0.021926 0.885388
vt 0.029744 0.893206
vt 0.052924 0.896359
vt 0.062074 0.887208
vt 0.040424 0.849708
vt 0.027924 0.853057
vt 0.062074 0.862208
vt 0.052924 0.853057
vt 0.015424 0.874708
vt 0.018773 0.887208
vt 0.065424 0.874708
vt 0.018773 0.862208
vt 0.040424 0.899708
vt 0.027924 0.896359
vt 0.051104 0.856210
vt 0.040424 0.853348
vt 0.058922 0.885388
vt 0.061784 0.874708
vt 0.019064 0.874708
vt 0.021926 0.885388
vt 0.029744 0.856210
vt 0.058922 0.864028
vt 0.029744 0.893206
vt 0.040424 0.896068
vt 0.051104 0.893206
vt 0.021926 0.864028
s 1
usemtl Palette
f 59/59/1 60/60/2 36/36/3 25/25/4
f 53/53/5 57/57/6 28/28/7 29/29/8
f 51/51/9 54/54/10 30/30/11 31/31/12
f 49/49/13 59/59/1 25/25/4 26/26/14
f 58/58/15 52/52/16 32/32/17 33/33/18
f 57/57/6 50/50/19 27/27/20 28/28/7
f 56/56/21 55/55/22 34/34/23 35/35/24
f 54/54/10 53/53/5 29/29/8 30/30/11
f 52/52/16 51/51/9 31/31/12 32/32/17
f 50/50/19 49/49/13 26/26/14 27/27/20
f 62/62/25 61/61/26 42/42/27 43/43/28
f 60/60/2 56/56/21 35/35/24 36/36/3
f 2/2/29 13/13/30 12/12/31 11/11/32 10/10/33 9/9/34 8/8/35 7/7/36 6/6/37 5/5/38 4/4/39 3/3/40
f 55/55/22 58/58/15 33/33/18 34/34/23
s 0
f 14/14/41 24/24/41 26/26/41 25/25/41
f 24/24/41 23/23/41 27/27/41 26/26/41
f 23/23/41 22/22/41 28/28/41 27/27/41
f 22/22/41 21/21/41 29/29/41 28/28/41
f 21/21/41 20/20/41 30/30/41 29/29/41
f 20/20/41 19/19/41 31/31/41 30/30/41
f 19/19/41 18/18/41 32/32/41 31/31/41
f 18/18/41 17/17/41 33/33/41 32/32/41
f 17/17/41 16/16/41 34/34/41 33/33/41
f 16/16/41 15/15/41 35/35/41 34/34/41
f 15/15/41 1/1/41 36/36/41 35/35/41
f 1/1/41 14/14/41 25/25/41 36/36/41
s 1
f 37/37/42 48/48/43 47/47/44 46/46/45 45/45/46 44/44/47 43/43/28 42/42/27 41/41/48 40/40/49 39/39/50 38/38/51
f 64/64/52 63/63/53 39/39/50 40/40/49
f 66/66/54 65/65/55 46/46/45 47/47/44
f 67/67/56 62/62/25 43/43/28 44/44/47
f 68/68/57 64/64/52 40/40/49 41/41/48
f 69/69/58 66/66/54 47/47/44 48/48/43
f 71/71/59 70/70/60 37/37/42 38/38/51
f 72/72/61 67/67/56 44/44/47 45/45/46
f 61/61/26 68/68/57 41/41/48 42/42/27
f 70/70/60 69/69/58 48/48/43 37/37/42
f 63/63/53 71/71/59 38/38/51 39/39/50
f 65/65/55 72/72/61 45/45/46 46/46/45
f 5/5/38 6/6/37 58/58/15 55/55/22
f 3/3/40 4/4/39 56/56/21 60/60/2
f 12/12/31 13/13/30 49/49/13 50/50/19
f 7/7/36 8/8/35 51/51/9 52/52/16
f 9/9/34 10/10/33 53/53/5 54/54/10
f 4/4/39 5/5/38 55/55/22 56/56/21
f 11/11/32 12/12/31 50/50/19 57/57/6
f 6/6/37 7/7/36 52/52/16 58/58/15
f 13/13/30 2/2/29 59/59/1 49/49/13
f 8/8/35 9/9/34 54/54/10 51/51/9
f 10/10/33 11/11/32 57/57/6 53/53/5
f 2/2/29 3/3/40 60/60/2 59/59/1
f 16/16/62 17/17/63 72/72/61 65/65/55
f 23/23/64 24/24/65 71/71/59 63/63/53
f 14/14/66 1/1/67 69/69/58 70/70/60
f 20/20/68 21/21/69 68/68/57 61/61/26
f 17/17/63 18/18/70 67/67/56 72/72/61
f 24/24/65 14/14/66 70/70/60 71/71/59
f 1/1/67 15/15/71 66/66/54 69/69/58
f 21/21/69 22/22/72 64/64/52 68/68/57
f 18/18/70 19/19/73 62/62/25 67/67/56
f 15/15/71 16/16/62 65/65/55 66/66/54
f 22/22/72 23/23/64 63/63/53 64/64/52
f 19/19/73 20/20/68 61/61/26 62/62/25
