# Blender 3.4.1
# www.blender.org
mtllib Printer_Acc1.mtl
o Printer_Acc1
v 0.285366 0.055989 0.036714
v 0.285866 0.141922 0.066424
v 0.285919 0.158443 0.070324
v 0.284761 -0.000217 0.012805
v 0.285366 0.060351 0.023653
v 0.285865 0.146284 0.053363
v 0.285919 0.162805 0.057264
v 0.284761 0.004145 -0.000256
v -0.285366 0.055989 0.036714
v -0.285866 0.141922 0.066424
v -0.285919 0.158443 0.070324
v -0.284761 -0.000217 0.012805
v -0.285366 0.060351 0.023653
v -0.285865 0.146284 0.053363
v -0.285919 0.162805 0.057264
v -0.284761 0.004145 -0.000256
vn -0.0000 0.2298 -0.9732
vn -0.0000 -0.3914 0.9202
vn -0.0000 -0.3268 0.9451
vn -0.0000 -0.9485 -0.3168
vn -0.0000 0.3914 -0.9202
vn -0.0000 0.3268 -0.9451
vn -0.0000 0.9485 0.3168
vn 1.0000 -0.0052 -0.0017
vn 1.0000 -0.0094 -0.0032
vn 1.0000 -0.0030 -0.0010
vn -1.0000 -0.0052 -0.0017
vn -1.0000 -0.0094 -0.0032
vn -1.0000 -0.0030 -0.0010
vn -0.0000 -0.2298 0.9732
vt 0.030490 0.880414
vt 0.030490 0.880414
vt 0.030490 0.880416
vt 0.030490 0.880408
vt 0.030490 0.880414
vt 0.030490 0.880414
vt 0.030490 0.880416
vt 0.030490 0.880408
vt 0.030490 0.880414
vt 0.030490 0.880414
vt 0.030490 0.880416
vt 0.030490 0.880408
vt 0.030490 0.880414
vt 0.030490 0.880414
vt 0.030490 0.880416
vt 0.030490 0.880408
s 0
usemtl Palette
f 6/6/1 14/14/1 15/15/1 7/7/1
f 12/12/2 4/4/2 1/1/2 9/9/2
f 2/2/3 10/10/3 9/9/3 1/1/3
f 12/12/4 16/16/4 8/8/4 4/4/4
f 16/16/5 13/13/5 5/5/5 8/8/5
f 5/5/6 13/13/6 14/14/6 6/6/6
f 7/7/7 15/15/7 11/11/7 3/3/7
f 2/2/8 1/1/8 5/5/8 6/6/8
f 1/1/9 4/4/9 8/8/9 5/5/9
f 3/3/10 2/2/10 6/6/10 7/7/10
f 10/10/11 14/14/11 13/13/11 9/9/11
f 9/9/12 13/13/12 16/16/12 12/12/12
f 11/11/13 15/15/13 14/14/13 10/10/13
f 3/3/14 11/11/14 10/10/14 2/2/14
