# Blender 3.4.1
# www.blender.org
mtllib Rock_2.mtl
o Rock_2
v 0.057653 0.110666 -0.064431
v -0.130242 0.115020 0.003432
v -0.168655 -0.003893 -0.026297
v -0.021310 -0.003893 -0.160911
v 0.091850 -0.003893 -0.104331
v 0.085721 -0.003893 0.062172
v -0.097076 -0.003893 0.120982
v 0.030291 0.054378 0.086729
v -0.060845 0.104792 0.094621
v -0.067147 0.102778 -0.098789
v 0.044684 0.120906 0.031560
vn 0.1804 0.1746 0.9680
vn -0.0324 0.9934 -0.1103
vn 0.3670 0.5455 0.7535
vn -0.0000 -1.0000 -0.0000
vn 0.9391 0.3312 0.0915
vn -0.8850 0.1783 0.4301
vn 0.3044 -0.1092 0.9463
vn -0.0130 0.9918 -0.1268
vn 0.9609 0.2745 0.0354
vn 0.1884 0.5534 -0.8113
vn 0.4086 0.4066 -0.8172
vn -0.7148 0.3806 0.5867
vn -0.7671 0.3775 -0.5187
vn 0.6769 0.3776 0.6319
vn -0.6680 0.1388 -0.7311
vn -0.0581 0.9862 0.1548
vt 0.216869 0.882010
vt 0.207475 0.878991
vt 0.207475 0.878991
vt 0.211501 0.884694
vt 0.216869 0.882010
vt 0.216646 0.874965
vt 0.210159 0.870939
vt 0.218994 0.867472
vt 0.210159 0.870939
vt 0.209343 0.881637
vt 0.213842 0.873225
s 0
usemtl Palette
f 7/7/1 8/8/1 9/9/1
f 1/1/2 10/10/2 11/11/2
f 9/9/3 8/8/3 11/11/3
f 4/4/4 5/5/4 6/6/4
f 6/6/5 1/1/5 11/11/5
f 7/7/6 2/2/6 3/3/6
f 7/7/7 6/6/7 8/8/7
f 10/10/8 2/2/8 11/11/8
f 6/6/9 5/5/9 1/1/9
f 4/4/10 10/10/10 1/1/10
f 7/7/4 3/3/4 6/6/4
f 3/3/4 4/4/4 6/6/4
f 1/1/11 5/5/11 4/4/11
f 7/7/12 9/9/12 2/2/12
f 3/3/13 2/2/13 10/10/13
f 11/11/14 8/8/14 6/6/14
f 3/3/15 10/10/15 4/4/15
f 2/2/16 9/9/16 11/11/16
