# Blender 3.4.1
# www.blender.org
mtllib Rock_Path_4.mtl
o Rock_Path_4
v 0.114298 -0.008222 -0.151904
v 0.114298 0.024082 -0.151904
v -0.011513 0.024082 0.125920
v -0.137734 0.024082 0.092573
v 0.102200 0.024082 -0.033081
v 0.102308 0.024082 0.066374
v -0.048537 0.024082 -0.070402
v -0.048537 -0.008222 -0.070402
v 0.102200 -0.008222 -0.033081
v 0.102308 -0.008222 0.066374
v -0.137734 -0.008222 0.092573
v -0.011513 -0.008222 0.125920
vn 0.4636 -0.0000 0.8861
vn -0.8772 -0.0000 -0.4801
vn -0.4476 -0.0000 -0.8942
vn 0.9949 -0.0000 0.1013
vn -0.2554 -0.0000 0.9668
vn -0.0000 1.0000 -0.0000
vn 1.0000 -0.0000 -0.0011
vt 0.209488 0.881843
vt 0.209488 0.881843
vt 0.213402 0.872952
vt 0.210159 0.870939
vt 0.211501 0.884694
vt 0.216646 0.874965
vt 0.207475 0.878991
vt 0.207475 0.878991
vt 0.211501 0.884694
vt 0.216646 0.874965
vt 0.210159 0.870939
vt 0.213402 0.872952
s 0
usemtl Palette
f 10/10/1 6/6/1 3/3/1 12/12/1
f 11/11/2 4/4/2 7/7/2 8/8/2
f 8/8/3 7/7/3 2/2/3 1/1/3
f 1/1/4 2/2/4 5/5/4 9/9/4
f 12/12/5 3/3/5 4/4/5 11/11/5
f 4/4/6 3/3/6 6/6/6 5/5/6 2/2/6 7/7/6
f 9/9/7 5/5/7 6/6/7 10/10/7
