# Blender 3.4.1
# www.blender.org
mtllib Roof_Border_1_45deg.mtl
o Roof_Border_1_45deg
v 1.098995 0.098995 -0.200000
v -0.901005 2.098995 0.200000
v 1.098995 0.098995 0.200000
v -0.901005 2.098995 -0.200000
v 1.000000 0.000000 -0.200000
v -1.000000 2.000000 0.200000
v 1.000000 0.000000 0.200000
v -1.000000 2.000000 -0.200000
vn 0.7071 0.7071 -0.0000
vn -0.7071 -0.7071 -0.0000
vn -0.0000 -0.0000 1.0000
vn -0.7071 0.7071 -0.0000
vn -0.0000 -0.0000 -1.0000
vn 0.7071 -0.7071 -0.0000
vt 0.295578 0.817421
vt 0.303390 0.764921
vt 0.303390 0.817421
vt 0.295578 0.764921
vt 0.295578 0.817421
vt 0.303390 0.764921
vt 0.303390 0.817421
vt 0.295578 0.764921
s 0
usemtl Palette
f 2/2/1 3/3/1 1/1/1 4/4/1
f 6/6/2 8/8/2 5/5/2 7/7/2
f 3/3/3 2/2/3 6/6/3 7/7/3
f 2/2/4 4/4/4 8/8/4 6/6/4
f 4/4/5 1/1/5 5/5/5 8/8/5
f 1/1/6 3/3/6 7/7/6 5/5/6
