# Blender 3.4.1
# www.blender.org
mtllib Roof_Border_1_1x1.mtl
o Roof_Border_1_1x1
v 1.084000 0.112000 -0.200000
v 1.084000 0.112000 0.200000
v 0.084000 0.862000 0.200000
v 0.084000 0.862000 -0.200000
v 1.000000 0.000000 -0.200000
v 1.000000 0.000000 0.200000
v 0.000000 0.750000 0.200000
v 0.000000 0.750000 -0.200000
vn 0.6000 0.8000 -0.0000
vn -0.6000 -0.8000 -0.0000
vn -0.0000 -0.0000 1.0000
vn 0.8000 -0.6000 -0.0000
vn -0.0000 -0.0000 -1.0000
vn -0.8000 0.6000 -0.0000
vt 0.295578 0.817421
vt 0.303390 0.817421
vt 0.303390 0.793984
vt 0.295578 0.793984
vt 0.295578 0.817421
vt 0.303390 0.817421
vt 0.303390 0.793984
vt 0.295578 0.793984
s 0
usemtl Palette
f 3/3/1 2/2/1 1/1/1 4/4/1
f 7/7/2 8/8/2 5/5/2 6/6/2
f 2/2/3 3/3/3 7/7/3 6/6/3
f 1/1/4 2/2/4 6/6/4 5/5/4
f 4/4/5 1/1/5 5/5/5 8/8/5
f 3/3/6 4/4/6 8/8/6 7/7/6
