# Blender 3.4.1
# www.blender.org
mtllib Roof_1x1.mtl
o Roof_1x1
v 0.952000 -0.064000 0.000000
v -0.048000 0.686000 0.000000
v 0.952000 -0.064000 1.000000
v -0.048000 0.686000 1.000000
v 1.000000 0.000000 0.000000
v 0.000000 0.750000 0.000000
v 1.000000 0.000000 1.000000
v 0.000000 0.750000 1.000000
vn -0.6000 -0.8000 -0.0000
vn 0.6000 0.8000 -0.0000
vn 0.8000 -0.6000 -0.0000
vn -0.0000 -0.0000 -1.0000
vn -0.8000 0.6000 -0.0000
vn -0.0000 -0.0000 1.0000
vt 0.000000 0.000000
vt 0.000000 0.500000
vt 0.499998 0.000000
vt 0.499998 0.500000
vt 0.000000 0.000000
vt 0.000000 0.500000
vt 0.499998 0.000000
vt 0.499998 0.500000
s 0
usemtl Roof
f 4/4/1 2/2/1 1/1/1 3/3/1
f 8/8/2 7/7/2 5/5/2 6/6/2
f 3/3/3 1/1/3 5/5/3 7/7/3
f 1/1/4 2/2/4 6/6/4 5/5/4
f 2/2/5 4/4/5 8/8/5 6/6/5
f 4/4/6 3/3/6 7/7/6 8/8/6
