# Blender 3.4.1
# www.blender.org
mtllib Rug_1.mtl
o Rug_1
v -0.500000 0.005437 0.500000
v 0.500000 0.005437 0.500000
v -0.500000 0.005437 -0.500000
v 0.500000 0.005437 -0.500000
v -0.500000 -0.000946 0.500000
v 0.500000 -0.000946 0.500000
v -0.500000 -0.000946 -0.500000
v 0.500000 -0.000946 -0.500000
vn -0.0000 1.0000 -0.0000
vn -0.0000 -0.0000 -1.0000
vn -0.0000 -0.0000 1.0000
vn 1.0000 -0.0000 -0.0000
vn -1.0000 -0.0000 -0.0000
vt 0.000000 0.000000
vt 1.000000 0.000000
vt 0.000000 1.000000
vt 1.000000 1.000000
vt 0.000000 0.000000
vt 1.000000 0.000000
vt 0.000000 1.000000
vt 1.000000 1.000000
s 0
usemtl Pattern_2
f 1/1/1 2/2/1 4/4/1 3/3/1
f 4/4/2 8/8/2 7/7/2 3/3/2
f 1/1/3 5/5/3 6/6/3 2/2/3
f 2/2/4 6/6/4 8/8/4 4/4/4
f 3/3/5 7/7/5 5/5/5 1/1/5
