# Blender 3.4.1
# www.blender.org
mtllib Screwdriver_2.mtl
o Screwdriver_2
v 0.004353 0.002198 0.017315
v 0.004353 -0.002198 0.017315
v 0.008749 0.001196 -0.123105
v 0.008749 -0.001189 -0.123375
v -0.004353 0.002198 0.017315
v -0.004353 -0.002198 0.017315
v -0.008749 0.001196 -0.123105
v -0.008749 -0.001189 -0.123375
v 0.012723 0.000000 0.011140
v 0.008996 -0.008996 0.011140
v 0.000000 -0.012723 0.011140
v -0.008996 -0.008996 0.011140
v -0.012723 0.000000 0.011140
v -0.008996 0.008996 0.011140
v 0.000000 0.012723 0.011140
v 0.008996 0.008996 0.011140
v 0.010824 -0.000000 0.146846
v 0.012723 -0.000000 0.141253
v 0.007653 -0.007653 0.146846
v 0.008996 -0.008996 0.141253
v -0.000000 -0.010824 0.146846
v -0.000000 -0.012723 0.141253
v -0.007653 -0.007653 0.146846
v -0.008996 -0.008996 0.141253
v -0.010824 -0.000000 0.146846
v -0.012723 -0.000000 0.141253
v -0.007653 0.007653 0.146846
v -0.008996 0.008996 0.141253
v 0.000000 0.010824 0.146846
v -0.000000 0.012723 0.141253
v 0.007653 0.007653 0.146846
v 0.008996 0.008996 0.141253
v 0.003983 0.002198 -0.098126
v 0.003983 -0.002192 -0.098348
v -0.003983 0.002198 -0.098126
v -0.003983 -0.002192 -0.098348
v 0.012723 0.000000 0.047211
v 0.008996 -0.008996 0.047211
v 0.008996 0.008996 0.047211
v 0.000000 -0.012723 0.047211
v -0.008996 -0.008996 0.047211
v -0.012723 0.000000 0.047211
v -0.008996 0.008996 0.047211
v 0.000000 0.012723 0.047211
v 0.008996 -0.008996 0.033498
v 0.000000 -0.012723 0.033498
v -0.008996 -0.008996 0.033498
v -0.012723 0.000000 0.033498
v -0.008996 0.008996 0.033498
v 0.000000 0.012723 0.033498
v 0.012723 0.000000 0.033498
v 0.008996 0.008996 0.033498
v 0.010667 0.000000 0.042689
v 0.010667 0.000000 0.038021
v 0.007543 0.007543 0.038021
v 0.007543 0.007543 0.042689
v 0.007543 -0.007543 0.042689
v 0.007543 -0.007543 0.038021
v -0.000000 -0.010667 0.038021
v -0.000000 -0.010667 0.042689
v -0.007543 -0.007543 0.042689
v -0.007543 -0.007543 0.038021
v -0.010667 0.000000 0.042689
v -0.010667 0.000000 0.038021
v -0.007543 0.007543 0.042689
v -0.007543 0.007543 0.038021
v -0.000000 0.010667 0.042689
v -0.000000 0.010667 0.038021
v 0.009885 0.000000 0.009394
v 0.006990 -0.006990 0.009394
v 0.000000 -0.009885 0.009394
v -0.006990 -0.006990 0.009394
v -0.009885 0.000000 0.009394
v -0.006990 0.006990 0.009394
v 0.000000 0.009885 0.009394
v 0.006990 0.006990 0.009394
vn -0.0000 0.1125 -0.9937
vn -0.0000 1.0000 -0.0000
vn 0.9822 -0.0136 0.1872
vn -0.9822 -0.0136 0.1872
vn 0.9239 0.3827 -0.0000
vn -0.3827 -0.9239 -0.0000
vn -0.9239 -0.3827 -0.0000
vn -0.9239 0.3827 -0.0000
vn -0.3827 0.9239 -0.0000
vn 0.3827 0.9239 -0.0000
vn 0.9239 -0.3827 -0.0000
vn 0.3827 -0.9239 -0.0000
vn 0.5122 0.2121 -0.8323
vn 0.8815 -0.3651 0.2993
vn 0.3651 -0.8815 0.2993
vn -0.3651 -0.8815 0.2993
vn -0.8815 -0.3651 0.2993
vn -0.8815 0.3651 0.2993
vn -0.3651 0.8815 0.2993
vn 0.3651 0.8815 0.2993
vn 0.8815 0.3651 0.2993
vn -0.0000 -0.0000 1.0000
vn -0.0000 -1.0000 -0.0001
vn -0.0000 -0.9992 -0.0401
vn -1.0000 0.0001 -0.0032
vn 1.0000 0.0001 -0.0032
vn -0.0000 0.9992 -0.0401
vn -0.3528 -0.8518 0.3872
vn 0.8518 0.3528 0.3872
vn 0.3528 0.8518 0.3872
vn -0.3528 0.8518 0.3872
vn -0.8518 0.3528 0.3872
vn -0.8518 -0.3528 0.3872
vn 0.8518 -0.3528 0.3872
vn 0.3528 0.8518 -0.3872
vn -0.3528 -0.8518 -0.3872
vn -0.8518 -0.3528 -0.3872
vn -0.8518 0.3528 -0.3872
vn -0.3528 0.8518 -0.3872
vn 0.3528 -0.8518 0.3872
vn 0.8518 -0.3528 -0.3872
vn 0.3528 -0.8518 -0.3872
vn 0.8518 0.3528 -0.3872
vn -0.0000 -0.0000 -1.0000
vn -0.2121 0.5122 -0.8323
vn -0.5122 -0.2121 -0.8323
vn 0.2121 -0.5122 -0.8323
vn 0.2121 0.5122 -0.8323
vn -0.5122 0.2121 -0.8323
vn -0.2121 -0.5122 -0.8323
vn 0.5122 -0.2121 -0.8323
vt 0.134803 0.886170
vt 0.134803 0.886170
vt 0.134803 0.886170
vt 0.134803 0.886170
vt 0.134803 0.886170
vt 0.134803 0.886170
vt 0.134803 0.886170
vt 0.134803 0.886170
vt 0.528773 0.959747
vt 0.558546 0.959747
vt 0.554825 0.959747
vt 0.551103 0.959747
vt 0.547382 0.959747
vt 0.543660 0.959747
vt 0.539938 0.959747
vt 0.536217 0.959747
vt 0.532495 0.959747
vt 0.558269 0.974547
vt 0.529051 0.974547
vt 0.536217 0.958383
vt 0.558546 0.974201
vt 0.528773 0.974201
vt 0.554825 0.974547
vt 0.540515 0.956602
vt 0.554825 0.974201
vt 0.551103 0.974547
vt 0.542296 0.952304
vt 0.551103 0.974201
vt 0.547382 0.974547
vt 0.540515 0.948005
vt 0.547382 0.974201
vt 0.543660 0.974547
vt 0.536217 0.946225
vt 0.543660 0.974201
vt 0.539938 0.974547
vt 0.531918 0.948005
vt 0.539938 0.974201
vt 0.536217 0.974547
vt 0.530138 0.952304
vt 0.536217 0.974201
vt 0.532495 0.974547
vt 0.531918 0.956602
vt 0.532495 0.974201
vt 0.134803 0.886170
vt 0.134803 0.886170
vt 0.134803 0.886170
vt 0.134803 0.886170
vt 0.528773 0.962536
vt 0.558546 0.962536
vt 0.155879 0.968043
vt 0.105879 0.968043
vt 0.554825 0.962536
vt 0.149629 0.968043
vt 0.532495 0.962536
vt 0.112129 0.968043
vt 0.551103 0.962536
vt 0.143379 0.968043
vt 0.547382 0.962536
vt 0.137129 0.968043
vt 0.543660 0.962536
vt 0.130879 0.968043
vt 0.539938 0.962536
vt 0.124629 0.968043
vt 0.536217 0.962536
vt 0.118379 0.968043
vt 0.554825 0.961476
vt 0.149629 0.966262
vt 0.551103 0.961476
vt 0.143379 0.966262
vt 0.137129 0.966262
vt 0.547382 0.961476
vt 0.130879 0.966262
vt 0.543660 0.961476
vt 0.124629 0.966262
vt 0.539938 0.961476
vt 0.118379 0.966262
vt 0.536217 0.961476
vt 0.105879 0.966262
vt 0.155879 0.966262
vt 0.528773 0.961476
vt 0.558546 0.961476
vt 0.112129 0.966262
vt 0.532495 0.961476
vt 0.155879 0.967456
vt 0.528773 0.962186
vt 0.558546 0.962187
vt 0.105879 0.967456
vt 0.105879 0.966849
vt 0.155879 0.966850
vt 0.528773 0.961826
vt 0.558546 0.961826
vt 0.112129 0.966850
vt 0.532495 0.961826
vt 0.532495 0.962187
vt 0.112129 0.967456
vt 0.149629 0.967456
vt 0.554825 0.962186
vt 0.149629 0.966849
vt 0.554825 0.961826
vt 0.143379 0.966849
vt 0.551103 0.961826
vt 0.143379 0.967456
vt 0.551103 0.962186
vt 0.137129 0.967456
vt 0.547382 0.962187
vt 0.137129 0.966850
vt 0.547382 0.961826
vt 0.130879 0.967456
vt 0.543660 0.962187
vt 0.130879 0.966850
vt 0.543660 0.961826
vt 0.124629 0.967455
vt 0.539938 0.962186
vt 0.124629 0.966849
vt 0.539938 0.961826
vt 0.118379 0.967456
vt 0.536217 0.962187
vt 0.118379 0.966850
vt 0.536217 0.961826
vt 0.528773 0.959747
vt 0.551103 0.959449
vt 0.558546 0.959747
vt 0.556156 0.957356
vt 0.554825 0.959747
vt 0.558249 0.952304
vt 0.551103 0.959747
vt 0.556156 0.947251
vt 0.547382 0.959747
vt 0.551103 0.945158
vt 0.543660 0.959747
vt 0.546050 0.947251
vt 0.539938 0.959747
vt 0.543958 0.952304
vt 0.536217 0.959747
vt 0.546050 0.957356
vt 0.532495 0.959747
s 0
usemtl Palette
f 7/7/1 3/3/1 4/4/1 8/8/1
f 35/46/2 5/5/2 1/1/2 33/44/2
f 34/45/3 4/4/3 3/3/3 33/44/3
f 35/46/4 7/7/4 8/8/4 36/47/4
f 39/54/5 32/43/5 18/22/5 37/48/5
f 40/56/6 22/28/6 24/31/6 41/58/6
f 41/58/7 24/31/7 26/34/7 42/60/7
f 42/60/8 26/34/8 28/37/8 43/62/8
f 43/62/9 28/37/9 30/40/9 44/64/9
f 44/64/10 30/40/10 32/43/10 39/54/10
f 37/49/11 18/21/11 20/25/11 38/52/11
f 38/52/12 20/25/12 22/28/12 40/56/12
f 16/17/13 9/9/13 69/120/13 76/136/13
f 20/25/14 18/21/14 17/18/14 19/23/14
f 22/28/15 20/25/15 19/23/15 21/26/15
f 24/31/16 22/28/16 21/26/16 23/29/16
f 26/34/17 24/31/17 23/29/17 25/32/17
f 28/37/18 26/34/18 25/32/18 27/35/18
f 30/40/19 28/37/19 27/35/19 29/38/19
f 32/43/20 30/40/20 29/38/20 31/41/20
f 18/22/21 32/43/21 31/41/21 17/19/21
f 19/24/22 17/20/22 31/42/22 29/39/22 27/36/22 25/33/22 23/30/22 21/27/22
f 34/45/23 2/2/23 6/6/23 36/47/23
f 4/4/24 34/45/24 36/47/24 8/8/24
f 5/5/25 35/46/25 36/47/25 6/6/25
f 2/2/26 34/45/26 33/44/26 1/1/26
f 7/7/27 35/46/27 33/44/27 3/3/27
f 46/69/28 59/100/28 62/106/28 47/70/28
f 52/82/29 55/92/29 54/88/29 51/78/29
f 50/76/30 68/118/30 55/92/30 52/82/30
f 49/74/31 66/114/31 68/118/31 50/76/31
f 48/72/32 64/110/32 66/114/32 49/74/32
f 47/70/33 62/106/33 64/110/33 48/72/33
f 51/79/34 54/89/34 58/98/34 45/67/34
f 16/17/5 52/83/5 51/80/5 9/9/5
f 11/12/6 46/68/6 47/71/6 12/13/6
f 12/13/7 47/71/7 48/73/7 13/14/7
f 13/14/8 48/73/8 49/75/8 14/15/8
f 14/15/9 49/75/9 50/77/9 15/16/9
f 15/16/10 50/77/10 52/83/10 16/17/10
f 9/10/11 51/81/11 45/66/11 10/11/11
f 10/11/12 45/66/12 46/68/12 11/12/12
f 67/116/35 44/65/35 39/55/35 56/95/35
f 60/102/36 40/57/36 41/59/36 61/104/36
f 61/104/37 41/59/37 42/61/37 63/108/37
f 63/108/38 42/61/38 43/63/38 65/112/38
f 65/112/39 43/63/39 44/65/39 67/116/39
f 45/67/40 58/98/40 59/100/40 46/69/40
f 53/84/41 37/50/41 38/53/41 57/96/41
f 57/96/42 38/53/42 40/57/42 60/102/42
f 56/94/5 53/85/5 54/90/5 55/93/5
f 60/103/6 61/105/6 62/107/6 59/101/6
f 61/105/7 63/109/7 64/111/7 62/107/7
f 63/109/8 65/113/8 66/115/8 64/111/8
f 65/113/9 67/117/9 68/119/9 66/115/9
f 67/117/10 56/94/10 55/93/10 68/119/10
f 53/86/11 57/97/11 58/99/11 54/91/11
f 57/97/12 60/103/12 59/101/12 58/99/12
f 56/95/43 39/55/43 37/51/43 53/87/43
f 69/121/44 70/123/44 71/125/44 72/127/44 73/129/44 74/131/44 75/133/44 76/135/44
f 14/15/45 15/16/45 75/134/45 74/132/45
f 12/13/46 13/14/46 73/130/46 72/128/46
f 10/11/47 11/12/47 71/126/47 70/124/47
f 15/16/48 16/17/48 76/136/48 75/134/48
f 13/14/49 14/15/49 74/132/49 73/130/49
f 11/12/50 12/13/50 72/128/50 71/126/50
f 9/10/51 10/11/51 70/124/51 69/122/51
