# Blender 3.4.1
# www.blender.org
mtllib Simple_Cereal_Box.mtl
o Simple_Cereal_Box
v 0.096056 0.005218 -0.024552
v -0.096056 0.005218 -0.024552
v 0.096056 0.005218 0.042765
v -0.096056 0.005218 0.042765
v 0.096056 0.292672 0.042765
v 0.096056 0.292672 -0.024552
v -0.096056 0.292672 -0.024552
v -0.096056 0.292672 0.042765
vn -0.0000 -1.0000 -0.0000
vn -0.0000 1.0000 -0.0000
vn -1.0000 -0.0000 -0.0000
vn 1.0000 -0.0000 -0.0000
vn -0.0000 -0.0000 1.0000
vn -0.0000 -0.0000 -1.0000
vt 0.000118 0.554235
vt 0.629710 0.000118
vt 0.000118 0.924406
vt 0.000118 0.000118
vt 0.999882 0.000118
vt 0.129829 0.554235
vt 0.500000 0.000118
vt 0.129829 0.924406
vt 0.129829 0.000118
vt 0.130065 0.554235
vt 0.500000 0.553998
vt 0.259775 0.554235
vt 0.629710 0.553998
vt 0.259775 0.924406
vt 0.000118 0.553998
vt 0.999882 0.553998
vt 0.130065 0.924406
vt 0.129829 0.553998
s 0
usemtl Cereal_Box
f 1/1/1 3/6/1 4/8/1 2/3/1
f 6/12/2 7/14/2 8/17/2 5/10/2
f 2/4/3 4/9/3 8/18/3 7/15/3
f 3/7/4 1/2/4 6/13/4 5/11/4
f 4/9/5 3/7/5 5/11/5 8/18/5
f 1/2/6 2/5/6 7/16/6 6/13/6
