# Blender 3.4.1
# www.blender.org
mtllib Simple_Shelf.mtl
o Simple_Shelf
v 0.500000 0.029870 0.144256
v 0.500000 -0.001885 0.144256
v 0.500000 0.029870 -0.144256
v 0.500000 -0.001885 -0.144256
v 0.479729 0.060474 0.133383
v 0.479729 0.029870 0.133383
v 0.479729 0.151814 -0.144256
v 0.479729 0.029870 -0.144256
v 0.452343 0.060474 0.133383
v 0.452343 0.029870 0.133383
v 0.452343 0.151814 -0.144256
v 0.452343 0.029870 -0.144256
v -0.500000 0.029870 0.144256
v -0.500000 -0.001885 0.144256
v 0.000000 0.029870 -0.144256
v 0.000000 -0.001885 -0.144256
v 0.000000 0.029870 0.144256
v 0.000000 -0.001885 0.144256
v -0.500000 0.029870 -0.144256
v -0.500000 -0.001885 -0.144256
v -0.479729 0.060474 0.133383
v -0.479729 0.029870 0.133383
v -0.479729 0.151814 -0.144256
v -0.479729 0.029870 -0.144256
v -0.452343 0.060474 0.133383
v -0.452343 0.029870 0.133383
v -0.452343 0.151814 -0.144256
v -0.452343 0.029870 -0.144256
vn -0.0000 -0.0000 1.0000
vn -0.0000 -1.0000 -0.0000
vn -0.0000 -0.0000 -1.0000
vn -0.0000 1.0000 -0.0000
vn 1.0000 -0.0000 -0.0000
vn -1.0000 -0.0000 -0.0000
vn -0.0000 0.9499 0.3125
vt 0.559041 0.701861
vt 0.559041 0.701091
vt 0.548545 0.701861
vt 0.559041 0.698845
vt 0.559041 0.701091
vt 0.548545 0.698845
vt 0.559041 0.701861
vt 0.559041 0.701091
vt 0.548545 0.701861
vt 0.559041 0.701091
vt 0.559041 0.698845
vt 0.548545 0.698845
vt 0.629155 0.708062
vt 0.629155 0.705045
vt 0.629155 0.708062
vt 0.629155 0.705045
vt 0.629155 0.708062
vt 0.629155 0.705045
vt 0.629155 0.708062
vt 0.629155 0.705045
vt 0.559041 0.701861
vt 0.559041 0.701091
vt 0.548545 0.701861
vt 0.559041 0.698845
vt 0.559041 0.701091
vt 0.548545 0.698845
vt 0.559041 0.701861
vt 0.559041 0.701091
vt 0.559041 0.701091
vt 0.559041 0.698845
vt 0.559041 0.701861
vt 0.559041 0.701091
vt 0.559041 0.698845
vt 0.559041 0.701091
vt 0.559041 0.701861
vt 0.559041 0.701091
vt 0.548545 0.701861
vt 0.559041 0.701091
vt 0.559041 0.698845
vt 0.548545 0.698845
vt 0.629155 0.708062
vt 0.629155 0.705045
vt 0.629155 0.708062
vt 0.629155 0.705045
vt 0.629155 0.708062
vt 0.629155 0.705045
vt 0.629155 0.708062
vt 0.629155 0.705045
s 0
usemtl Palette
f 17/31/1 18/33/1 2/4/1 1/1/1
f 18/34/2 16/29/2 4/10/2 2/5/2
f 15/27/3 3/7/3 4/11/3 16/30/3
f 3/8/4 15/28/4 17/32/4 1/2/4
f 4/12/5 3/9/5 1/3/5 2/6/5
f 8/16/5 7/15/5 5/13/5 6/14/5
f 12/20/6 10/18/6 9/17/6 11/19/6
f 8/16/3 12/20/3 11/19/3 7/15/3
f 7/15/7 11/19/7 9/17/7 5/13/7
f 5/13/1 9/17/1 10/18/1 6/14/1
f 17/31/1 13/21/1 14/24/1 18/33/1
f 18/34/2 14/25/2 20/38/2 16/29/2
f 15/27/3 16/30/3 20/39/3 19/35/3
f 19/36/4 13/22/4 17/32/4 15/28/4
f 20/40/6 14/26/6 13/23/6 19/37/6
f 24/44/6 22/42/6 21/41/6 23/43/6
f 28/48/5 27/47/5 25/45/5 26/46/5
f 24/44/3 23/43/3 27/47/3 28/48/3
f 23/43/7 21/41/7 25/45/7 27/47/7
f 21/41/1 22/42/1 26/46/1 25/45/1
