# Blender 3.4.1
# www.blender.org
mtllib Simple_Shower.mtl
o Simple_Shower
v 0.048914 2.052310 0.023569
v -0.048914 2.052310 0.023569
v -0.048914 0.014094 0.023569
v 0.048914 0.014094 0.023569
v -0.049779 0.014094 -0.023569
v 0.049779 0.014094 -0.023569
v -0.048914 2.001509 0.023569
v -0.049779 2.001509 -0.023569
v 0.049779 2.001509 -0.023569
v 0.048914 2.001509 0.023569
v -0.048914 2.001509 0.379968
v -0.048914 2.052310 0.345204
v 0.048914 2.052310 0.345204
v 0.048914 2.001509 0.379968
v 0.049779 2.033925 -0.023569
v 0.049441 2.052310 -0.005184
v -0.049441 2.052310 -0.005184
v -0.049779 2.033925 -0.023569
v -0.047605 1.999622 0.248184
v 0.004085 1.979869 0.237839
v -0.045853 1.979869 0.251220
v -0.082409 1.979869 0.287776
v -0.095790 1.979869 0.337714
v -0.082409 1.979869 0.387651
v -0.045853 1.979869 0.424207
v 0.004085 1.979869 0.437588
v 0.054022 1.979869 0.424207
v 0.090578 1.979869 0.387651
v 0.103959 1.979869 0.337714
v 0.090578 1.979869 0.287776
v 0.054022 1.979869 0.251220
v 0.004085 1.999622 0.234334
v -0.085445 1.999622 0.286024
v -0.099295 1.999622 0.337714
v -0.085445 1.999622 0.389403
v -0.047605 1.999622 0.427243
v 0.004085 1.999622 0.441093
v 0.055775 1.999622 0.427243
v 0.093614 1.999622 0.389403
v 0.107464 1.999622 0.337714
v 0.093614 1.999622 0.286024
v 0.055775 1.999622 0.248184
v 0.004084 2.004819 0.265261
v 0.040311 2.004819 0.274968
v 0.066830 2.004819 0.301487
v 0.076537 2.004819 0.337714
v 0.066830 2.004819 0.373940
v 0.040311 2.004819 0.400459
v 0.004084 2.004819 0.410166
v -0.032142 2.004819 0.400459
v -0.058661 2.004819 0.373940
v -0.068368 2.004819 0.337714
v -0.058661 2.004819 0.301487
v -0.032142 2.004819 0.274968
v -0.053564 1.979869 0.237863
v 0.004085 1.979869 0.222416
v -0.095766 1.979869 0.280065
v -0.111213 1.979869 0.337714
v -0.095766 1.979869 0.395362
v -0.053564 1.979869 0.437564
v 0.004085 1.979869 0.453011
v 0.061733 1.979869 0.437564
v 0.103935 1.979869 0.395362
v 0.119382 1.979869 0.337714
v 0.103935 1.979869 0.280065
v 0.061733 1.979869 0.237863
v -0.247311 0.000000 0.126214
v 0.247311 0.000000 0.126214
v -0.251687 0.000000 -0.126214
v 0.251687 0.000000 -0.126214
v -0.247311 0.048686 0.126214
v 0.247311 0.048686 0.126214
v -0.251687 0.048686 -0.126214
v 0.251687 0.048686 -0.126214
vn -0.0000 -1.0000 -0.0000
vn -0.0000 -0.0000 -1.0000
vn -0.9998 -0.0000 0.0184
vn 0.9998 -0.0000 0.0184
vn -0.0000 1.0000 -0.0000
vn -0.0000 -0.0000 1.0000
vn -0.0000 0.5647 0.8253
vn 1.0000 -0.0000 -0.0000
vn -1.0000 -0.0000 -0.0000
vn -0.0000 0.7071 -0.7071
vn 0.2236 0.5035 -0.8345
vn 0.2236 0.5035 0.8345
vn 0.8345 0.5035 -0.2236
vn -0.8345 0.5035 -0.2236
vn 0.6109 0.5035 0.6109
vn -0.2236 0.5035 0.8345
vn 0.6109 0.5035 -0.6109
vn -0.8345 0.5035 0.2236
vn 0.8345 0.5035 0.2236
vn -0.2236 0.5035 -0.8345
vn 0.0444 0.9852 0.1655
vn -0.6109 0.5035 0.6109
vn -0.6109 0.5035 -0.6109
vn -0.1212 0.9852 0.1212
vn 0.1655 0.9852 -0.0444
vn -0.1655 0.9852 -0.0444
vn 0.0444 0.9852 -0.1655
vn 0.1212 0.9852 0.1212
vn -0.0444 0.9852 -0.1655
vn -0.0444 0.9852 0.1655
vn 0.1212 0.9852 -0.1212
vn -0.1655 0.9852 0.0444
vn 0.1655 0.9852 0.0444
vn -0.1212 0.9852 -0.1212
vn 0.9998 -0.0000 0.0173
vn -0.9998 -0.0000 0.0173
vt 0.223617 0.789285
vt 0.223617 0.789285
vt 0.223617 0.789285
vt 0.223617 0.789285
vt 0.223617 0.789286
vt 0.223617 0.789286
vt 0.223617 0.789285
vt 0.223617 0.789286
vt 0.223617 0.789286
vt 0.223617 0.789285
vt 0.223617 0.789285
vt 0.223617 0.789285
vt 0.223617 0.789285
vt 0.223617 0.789285
vt 0.223617 0.789286
vt 0.223617 0.789285
vt 0.223617 0.789285
vt 0.223617 0.789286
vt 0.197456 0.905584
vt 0.043284 0.985642
vt 0.209956 0.905589
vt 0.032456 0.982740
vt 0.199128 0.902688
vt 0.024529 0.974814
vt 0.191201 0.894761
vt 0.021628 0.963986
vt 0.188300 0.883934
vt 0.024529 0.953158
vt 0.191201 0.873106
vt 0.032456 0.945231
vt 0.199128 0.865179
vt 0.043284 0.942330
vt 0.209956 0.862278
vt 0.054112 0.945231
vt 0.220784 0.865179
vt 0.062038 0.953158
vt 0.228710 0.873106
vt 0.064940 0.963986
vt 0.231612 0.883933
vt 0.062038 0.974814
vt 0.228710 0.894761
vt 0.054112 0.982740
vt 0.220784 0.902688
vt 0.209956 0.908934
vt 0.188305 0.896433
vt 0.184956 0.883934
vt 0.188305 0.871434
vt 0.197456 0.862283
vt 0.209956 0.858934
vt 0.222456 0.862283
vt 0.231606 0.871434
vt 0.234956 0.883934
vt 0.231606 0.896433
vt 0.222456 0.905584
vt 0.209956 0.908934
vt 0.222456 0.905584
vt 0.231606 0.896433
vt 0.234956 0.883934
vt 0.231606 0.871434
vt 0.222456 0.862283
vt 0.209956 0.858934
vt 0.197456 0.862283
vt 0.188305 0.871434
vt 0.184956 0.883934
vt 0.188305 0.896433
vt 0.197456 0.905584
vt 0.197456 0.905584
vt 0.209956 0.908934
vt 0.188305 0.896433
vt 0.184956 0.883934
vt 0.188305 0.871434
vt 0.197456 0.862283
vt 0.209956 0.858934
vt 0.222456 0.862283
vt 0.231606 0.871434
vt 0.234956 0.883934
vt 0.231606 0.896433
vt 0.222456 0.905584
vt 0.214446 0.892930
vt 0.214446 0.892930
vt 0.214446 0.892930
vt 0.214446 0.892930
vt 0.214446 0.892930
vt 0.214446 0.892930
vt 0.214446 0.892930
vt 0.214446 0.892930
s 0
usemtl Palette
f 7/7/1 10/10/1 14/14/1 11/11/1
f 9/9/2 8/8/2 18/18/2 15/15/2
f 8/8/3 7/7/3 2/2/3 17/17/3 18/18/3
f 10/10/4 9/9/4 15/15/4 16/16/4 1/1/4
f 74/86/5 73/85/5 71/83/5 72/84/5
f 5/5/3 3/3/3 7/7/3 8/8/3
f 6/6/2 5/5/2 8/8/2 9/9/2
f 4/4/4 6/6/4 9/9/4 10/10/4
f 3/3/6 4/4/6 10/10/6 7/7/6
f 11/11/7 14/14/7 13/13/7 12/12/7
f 1/1/5 2/2/5 12/12/5 13/13/5
f 10/10/8 1/1/8 13/13/8 14/14/8
f 2/2/9 7/7/9 11/11/9 12/12/9
f 15/15/10 18/18/10 17/17/10 16/16/10
f 16/16/5 17/17/5 2/2/5 1/1/5
f 66/78/11 56/68/11 32/44/11 42/54/11
f 61/73/12 62/74/12 38/50/12 37/49/12
f 64/76/13 65/77/13 41/53/13 40/52/13
f 57/69/14 58/70/14 34/46/14 33/45/14
f 62/74/15 63/75/15 39/51/15 38/50/15
f 60/72/16 61/73/16 37/49/16 36/48/16
f 65/77/17 66/78/17 42/54/17 41/53/17
f 58/70/18 59/71/18 35/47/18 34/46/18
f 63/75/19 64/76/19 40/52/19 39/51/19
f 56/68/20 55/67/20 19/19/20 32/44/20
f 37/49/21 38/50/21 48/60/21 49/61/21
f 59/71/22 60/72/22 36/48/22 35/47/22
f 20/20/1 31/42/1 30/40/1 29/38/1 28/36/1 27/34/1 26/32/1 25/30/1 24/28/1 23/26/1 22/24/1 21/22/1
f 55/67/23 57/69/23 33/45/23 19/19/23
f 43/55/5 54/66/5 53/65/5 52/64/5 51/63/5 50/62/5 49/61/5 48/60/5 47/59/5 46/58/5 45/57/5 44/56/5
f 35/47/24 36/48/24 50/62/24 51/63/24
f 40/52/25 41/53/25 45/57/25 46/58/25
f 33/45/26 34/46/26 52/64/26 53/65/26
f 42/54/27 32/44/27 43/55/27 44/56/27
f 38/50/28 39/51/28 47/59/28 48/60/28
f 32/44/29 19/19/29 54/66/29 43/55/29
f 36/48/30 37/49/30 49/61/30 50/62/30
f 41/53/31 42/54/31 44/56/31 45/57/31
f 34/46/32 35/47/32 51/63/32 52/64/32
f 39/51/33 40/52/33 46/58/33 47/59/33
f 19/19/34 33/45/34 53/65/34 54/66/34
f 20/21/1 21/23/1 55/67/1 56/68/1
f 21/23/1 22/25/1 57/69/1 55/67/1
f 22/25/1 23/27/1 58/70/1 57/69/1
f 23/27/1 24/29/1 59/71/1 58/70/1
f 24/29/1 25/31/1 60/72/1 59/71/1
f 25/31/1 26/33/1 61/73/1 60/72/1
f 26/33/1 27/35/1 62/74/1 61/73/1
f 27/35/1 28/37/1 63/75/1 62/74/1
f 28/37/1 29/39/1 64/76/1 63/75/1
f 29/39/1 30/41/1 65/77/1 64/76/1
f 30/41/1 31/43/1 66/78/1 65/77/1
f 31/43/1 20/21/1 56/68/1 66/78/1
f 70/82/1 68/80/1 67/79/1 69/81/1
f 70/82/35 74/86/35 72/84/35 68/80/35
f 68/80/6 72/84/6 71/83/6 67/79/6
f 69/81/2 73/85/2 74/86/2 70/82/2
f 67/79/36 71/83/36 73/85/36 69/81/36
