# Blender 3.4.1
# www.blender.org
mtllib Simple_Coffee__Handle_.mtl
o Simple_Coffee_(Handle)
v -0.020806 0.133152 -0.043203
v 0.000000 0.133152 -0.047952
v -0.037490 0.133152 -0.029898
v -0.046750 0.133152 -0.010670
v -0.046750 0.133152 0.010670
v -0.037490 0.133152 0.029898
v -0.020806 0.133152 0.043203
v 0.000000 0.133152 0.047952
v 0.020806 0.133152 0.043203
v 0.037490 0.133152 0.029898
v 0.046750 0.133152 0.010670
v 0.046750 0.133152 -0.010670
v 0.037490 0.133152 -0.029898
v 0.020806 0.133152 -0.043203
v -0.021395 0.147229 -0.044427
v 0.000000 0.147229 -0.049311
v -0.038553 0.147229 -0.030745
v -0.048074 0.147229 -0.010973
v -0.048074 0.147229 0.010973
v -0.038553 0.147229 0.030745
v -0.021395 0.147229 0.044428
v 0.000000 0.147229 0.049311
v 0.021395 0.147229 0.044428
v 0.038553 0.147229 0.030745
v 0.048075 0.147229 0.010973
v 0.048075 0.147229 -0.010973
v 0.038553 0.147229 -0.030745
v 0.021395 0.147229 -0.044427
v -0.019802 0.154231 -0.041120
v 0.000000 0.154231 -0.045640
v -0.035682 0.154231 -0.028456
v -0.044495 0.154231 -0.010156
v -0.044495 0.154231 0.010156
v -0.035682 0.154231 0.028456
v -0.019802 0.154231 0.041120
v 0.000000 0.154231 0.045639
v 0.019802 0.154231 0.041120
v 0.035683 0.154231 0.028456
v 0.044495 0.154231 0.010156
v 0.044495 0.154231 -0.010156
v 0.035683 0.154231 -0.028456
v 0.019802 0.154231 -0.041120
v 0.032978 0.024362 0.068480
v 0.000000 0.024362 0.076007
v -0.032978 0.024362 -0.068480
v 0.000000 0.024362 -0.076007
v 0.059424 0.024362 0.047389
v -0.059425 0.024362 -0.047389
v 0.074101 0.024362 0.016913
v -0.074101 0.024362 -0.016913
v 0.074101 0.024362 -0.016913
v -0.074101 0.024362 0.016913
v 0.059424 0.024362 -0.047389
v -0.059425 0.024362 0.047389
v 0.032978 0.024362 -0.068480
v -0.032978 0.024362 0.068480
v -0.048074 0.134472 -0.010973
v -0.038553 0.134472 -0.030745
v 0.048075 0.134472 -0.010973
v 0.048075 0.134472 0.010973
v -0.048074 0.134472 0.010973
v 0.038553 0.134472 -0.030745
v -0.038553 0.134472 0.030745
v 0.021395 0.134472 -0.044427
v -0.021395 0.134472 0.044428
v 0.000000 0.134472 -0.049311
v 0.000000 0.134472 0.049311
v 0.021395 0.134472 0.044428
v -0.021395 0.134472 -0.044427
v 0.038553 0.134472 0.030745
v -0.010575 0.147278 0.046055
v 0.010575 0.147278 0.046055
v -0.010575 0.136269 0.046055
v 0.010575 0.136269 0.046055
v 0.010575 0.055298 0.108246
v -0.010575 0.055298 0.108246
v 0.010575 0.062575 0.093412
v -0.010575 0.062575 0.093412
v -0.010575 0.134720 0.087418
v -0.010575 0.147278 0.072854
v -0.010575 0.143494 0.082043
v 0.010575 0.147278 0.072854
v 0.010575 0.134720 0.087418
v 0.010575 0.143494 0.082043
v 0.010575 0.123719 0.077086
v 0.010575 0.136269 0.062473
v 0.010575 0.133792 0.073511
v -0.010575 0.136269 0.062473
v -0.010575 0.123719 0.077086
v -0.010575 0.133792 0.073511
v -0.009104 0.140425 -0.056939
v 0.009104 0.140425 -0.056939
v -0.009104 0.140425 -0.043895
v 0.009104 0.140425 -0.043895
v -0.006136 0.148591 -0.056939
v -0.003933 0.150134 -0.056939
v 0.003933 0.150134 -0.056939
v 0.006136 0.148591 -0.056939
v -0.003933 0.150134 -0.043895
v -0.006136 0.148591 -0.043895
v 0.006136 0.148591 -0.043895
v 0.003933 0.150134 -0.043895
v 0.000000 0.014639 -0.076007
v -0.000000 0.000359 -0.061360
v -0.000000 0.007499 -0.074044
v -0.000000 0.002272 -0.068683
v -0.026623 0.000359 -0.055283
v -0.032978 0.014639 -0.068480
v -0.029801 0.002272 -0.061882
v -0.032127 0.007499 -0.066712
v -0.047973 0.000359 -0.038257
v -0.059425 0.014639 -0.047389
v -0.053699 0.002272 -0.042823
v -0.057891 0.007499 -0.046166
v -0.059822 0.000359 -0.013654
v -0.074101 0.014639 -0.016913
v -0.066962 0.002272 -0.015283
v -0.072188 0.007499 -0.016476
v -0.059822 0.000359 0.013654
v -0.074101 0.014639 0.016913
v -0.066962 0.002272 0.015284
v -0.072188 0.007499 0.016476
v -0.047973 0.000359 0.038257
v -0.059425 0.014639 0.047389
v -0.053699 0.002272 0.042823
v -0.057891 0.007499 0.046166
v -0.026623 0.000359 0.055283
v -0.032978 0.014639 0.068480
v -0.029801 0.002272 0.061882
v -0.032127 0.007499 0.066712
v -0.000000 0.000359 0.061360
v 0.000000 0.014639 0.076007
v -0.000000 0.002272 0.068683
v -0.000000 0.007499 0.074045
v 0.026623 0.000359 0.055283
v 0.032978 0.014639 0.068480
v 0.029800 0.002272 0.061882
v 0.032126 0.007499 0.066712
v 0.047973 0.000359 0.038257
v 0.059424 0.014639 0.047389
v 0.053698 0.002272 0.042823
v 0.057890 0.007499 0.046166
v 0.059821 0.000359 0.013654
v 0.074101 0.014639 0.016913
v 0.066961 0.002272 0.015284
v 0.072188 0.007499 0.016476
v 0.059821 0.000359 -0.013654
v 0.074101 0.014639 -0.016913
v 0.066961 0.002272 -0.015283
v 0.072188 0.007499 -0.016476
v 0.047973 0.000359 -0.038257
v 0.059424 0.014639 -0.047389
v 0.053698 0.002272 -0.042823
v 0.057890 0.007499 -0.046166
v 0.026623 0.000359 -0.055283
v 0.032978 0.014639 -0.068480
v 0.029800 0.002272 -0.061882
v 0.032126 0.007499 -0.066712
vn 0.4301 -0.1313 -0.8932
vn -0.0000 -0.1313 -0.9913
vn -0.0000 0.6603 -0.7510
vn 0.3259 0.6603 -0.6766
vn -0.7261 -0.3709 -0.5790
vn -0.9054 -0.3709 -0.2067
vn -0.9484 0.2316 -0.2165
vn -0.7606 0.2316 -0.6065
vn 0.9484 0.2316 -0.2165
vn 0.7606 0.2316 -0.6065
vn 0.4437 0.8233 -0.3539
vn 0.5533 0.8233 -0.1263
vn 0.9054 -0.3709 0.2066
vn 0.9054 -0.3709 -0.2066
vn 0.9484 0.2316 0.2165
vn -0.9054 -0.3709 0.2066
vn -0.9484 0.2316 0.2165
vn 0.7261 -0.3709 -0.5790
vn -0.7261 -0.3709 0.5790
vn -0.7606 0.2316 0.6065
vn 0.4029 -0.3709 -0.8367
vn 0.4221 0.2316 -0.8765
vn -0.4029 -0.3709 0.8367
vn -0.4221 0.2316 0.8765
vn -0.0000 -0.3709 -0.9287
vn -0.0000 0.2316 -0.9728
vn -0.0000 -0.3709 0.9287
vn -0.0000 0.2316 0.9728
vn 0.4029 -0.3709 0.8367
vn 0.4221 0.2316 0.8765
vn -0.4029 -0.3709 -0.8367
vn -0.4221 0.2316 -0.8765
vn 0.7261 -0.3709 0.5790
vn 0.7606 0.2316 0.6065
vn -0.0000 0.8233 -0.5676
vn -0.2463 0.8233 -0.5113
vn -0.4437 0.8233 -0.3539
vn -0.5533 0.8233 -0.1263
vn -0.5533 0.8233 0.1263
vn -0.4437 0.8233 0.3539
vn -0.2462 0.8233 0.5113
vn -0.0000 0.8233 0.5675
vn 0.2463 0.8233 0.5113
vn 0.4437 0.8233 0.3539
vn 0.5533 0.8233 0.1263
vn 0.2463 0.8233 -0.5114
vn -0.0000 -0.1313 0.9913
vn 0.4301 -0.1313 0.8932
vn 0.3259 0.6603 0.6766
vn -0.0000 0.6603 0.7510
vn -0.4301 -0.1313 -0.8932
vn -0.7751 -0.1313 -0.6181
vn -0.5872 0.6603 -0.4683
vn -0.3259 0.6603 -0.6766
vn -0.4301 -0.1313 0.8932
vn -0.3259 0.6603 0.6766
vn -0.7751 -0.1313 0.6181
vn -0.5872 0.6603 0.4683
vn 0.7751 -0.1313 -0.6181
vn 0.5872 0.6603 -0.4683
vn -0.9665 -0.1313 0.2206
vn -0.7322 0.6603 0.1671
vn 0.9665 -0.1313 -0.2206
vn 0.7322 0.6603 -0.1671
vn -0.9665 -0.1313 -0.2206
vn -0.7322 0.6603 -0.1671
vn 0.9665 -0.1313 0.2206
vn 0.7322 0.6603 0.1671
vn 0.7751 -0.1313 0.6181
vn 0.5872 0.6603 0.4683
vn -0.0000 -0.9894 -0.1452
vn 0.0630 -0.9894 -0.1308
vn 0.1135 -0.9894 -0.0905
vn 0.1416 -0.9894 -0.0323
vn 0.1416 -0.9894 0.0323
vn 0.1135 -0.9894 0.0905
vn 0.0630 -0.9894 0.1308
vn -0.0000 -0.9894 0.1452
vn -0.0630 -0.9894 0.1308
vn -0.1135 -0.9894 0.0905
vn -0.1416 -0.9894 0.0323
vn -0.1416 -0.9894 -0.0323
vn -0.1135 -0.9894 -0.0905
vn -0.0630 -0.9894 -0.1308
vn 0.3285 -0.9075 0.2620
vn 0.4096 -0.9075 0.0935
vn -0.1823 -0.9075 -0.3785
vn -0.3285 -0.9075 -0.2620
vn 0.1823 -0.9075 0.3785
vn -0.0000 -0.9075 -0.4201
vn -0.0000 -0.9075 0.4201
vn -0.1823 -0.9075 0.3785
vn 0.1823 -0.9075 -0.3785
vn -0.3285 -0.9075 0.2620
vn 0.3285 -0.9075 -0.2620
vn -0.4096 -0.9075 0.0935
vn 0.4096 -0.9075 -0.0935
vn -0.4096 -0.9075 -0.0935
vn -1.0000 -0.0000 -0.0000
vn 1.0000 -0.0000 -0.0000
vn -0.7071 -0.7071 -0.0000
vn 0.7071 -0.7071 -0.0000
vn 0.7328 -0.6764 -0.0749
vn -0.7328 -0.6764 -0.0749
vn -0.7162 -0.2069 -0.6665
vn 0.7162 -0.2069 -0.6665
vn 0.6247 -0.4957 -0.6033
vn -0.6247 -0.4957 -0.6033
vn -0.0000 -0.8978 -0.4404
vn 0.7071 0.7071 -0.0000
vn -0.7071 0.7071 -0.0000
vn -0.6659 0.7318 0.1448
vn 0.6659 0.7318 0.1448
vn -0.6435 0.5825 0.4965
vn 0.6435 0.5825 0.4965
vn -0.6757 0.2892 0.6781
vn 0.6757 0.2892 0.6781
vn -0.8336 -0.4133 -0.3664
vn 0.8336 -0.4133 -0.3664
vn -0.5489 -0.6470 0.5293
vn 0.5489 -0.6470 0.5293
vn -0.6063 0.4649 -0.6453
vn -0.6779 -0.4749 -0.5612
vn -0.8190 -0.5738 -0.0000
vn -0.7936 0.6085 -0.0000
vn 0.6779 -0.4749 -0.5612
vn 0.6063 0.4649 -0.6453
vn 0.7936 0.6085 -0.0000
vn 0.8190 -0.5738 -0.0000
vn -0.0000 -0.0000 -1.0000
vn -0.0000 -1.0000 -0.0000
vn -0.3008 0.9537 -0.0000
vn -0.2298 0.7286 -0.6453
vn 0.2298 0.7286 -0.6453
vn 0.3008 0.9537 -0.0000
vn -0.0000 -0.4926 -0.8702
vn -0.3776 -0.4926 -0.7841
vn -0.0000 -0.8551 -0.5184
vn -0.2249 -0.8551 -0.4671
vn -0.6804 -0.4926 -0.5426
vn -0.4053 -0.8551 -0.3232
vn -0.8484 -0.4926 -0.1936
vn -0.5054 -0.8551 -0.1154
vn -0.8484 -0.4926 0.1936
vn -0.5054 -0.8551 0.1154
vn -0.6804 -0.4926 0.5426
vn -0.4053 -0.8551 0.3232
vn -0.3776 -0.4926 0.7841
vn -0.2249 -0.8551 0.4671
vn -0.0000 -0.4926 0.8702
vn -0.0000 -0.8551 0.5184
vn 0.3776 -0.4926 0.7841
vn 0.2249 -0.8551 0.4671
vn 0.6804 -0.4926 0.5426
vn 0.4053 -0.8551 0.3232
vn 0.8484 -0.4926 0.1936
vn 0.5054 -0.8551 0.1154
vn 0.8484 -0.4926 -0.1936
vn 0.5054 -0.8551 -0.1154
vn 0.6804 -0.4926 -0.5426
vn 0.4053 -0.8551 -0.3232
vn 0.3776 -0.4926 -0.7841
vn 0.2249 -0.8551 -0.4671
vn -0.0000 1.0000 -0.0000
vt 0.033424 0.985497
vt 0.044271 0.987973
vt 0.024725 0.978560
vt 0.019898 0.968536
vt 0.019898 0.957410
vt 0.024725 0.947386
vt 0.033424 0.940449
vt 0.044271 0.937973
vt 0.055118 0.940449
vt 0.063817 0.947386
vt 0.068644 0.957410
vt 0.068644 0.968536
vt 0.063817 0.978560
vt 0.055118 0.985497
vt 0.033424 0.985497
vt 0.044271 0.987973
vt 0.024725 0.978560
vt 0.019898 0.968536
vt 0.019898 0.957410
vt 0.024725 0.947386
vt 0.033424 0.940449
vt 0.044271 0.937973
vt 0.055118 0.940449
vt 0.063817 0.947386
vt 0.068644 0.957410
vt 0.068644 0.968536
vt 0.063817 0.978560
vt 0.055118 0.985497
vt 0.033424 0.985497
vt 0.044271 0.987973
vt 0.024725 0.978560
vt 0.019898 0.968536
vt 0.019898 0.957410
vt 0.024725 0.947386
vt 0.033424 0.940449
vt 0.044271 0.937973
vt 0.055118 0.940449
vt 0.063817 0.947386
vt 0.068644 0.957410
vt 0.068644 0.968536
vt 0.063817 0.978560
vt 0.055118 0.985497
vt 0.055118 0.940449
vt 0.044271 0.937973
vt 0.033424 0.985497
vt 0.044271 0.987973
vt 0.063817 0.947386
vt 0.024725 0.978560
vt 0.068644 0.957410
vt 0.019898 0.968536
vt 0.068644 0.968536
vt 0.019898 0.957410
vt 0.063817 0.978560
vt 0.024725 0.947386
vt 0.055118 0.985497
vt 0.033424 0.940449
vt 0.019898 0.968536
vt 0.024725 0.978560
vt 0.068644 0.968536
vt 0.068644 0.957410
vt 0.019898 0.957410
vt 0.063817 0.978560
vt 0.024725 0.947386
vt 0.055118 0.985497
vt 0.033424 0.940449
vt 0.044271 0.987973
vt 0.044271 0.937973
vt 0.055118 0.940449
vt 0.033424 0.985497
vt 0.063817 0.947386
vt 0.033424 0.940449
vt 0.055118 0.940449
vt 0.033424 0.940449
vt 0.055118 0.940449
vt 0.055118 0.940449
vt 0.033424 0.940449
vt 0.055118 0.940449
vt 0.033424 0.940449
vt 0.033424 0.940449
vt 0.033424 0.940449
vt 0.033424 0.940449
vt 0.055118 0.940449
vt 0.055118 0.940449
vt 0.055118 0.940449
vt 0.055118 0.940449
vt 0.055118 0.940449
vt 0.055118 0.940449
vt 0.033424 0.940449
vt 0.033424 0.940449
vt 0.033424 0.940449
vt 0.041667 0.968181
vt 0.041667 0.968181
vt 0.041667 0.968181
vt 0.041667 0.968181
vt 0.041667 0.968181
vt 0.041667 0.968181
vt 0.041667 0.968181
vt 0.041667 0.968181
vt 0.041667 0.968181
vt 0.041667 0.968181
vt 0.041667 0.968181
vt 0.041667 0.968181
vt 0.044271 0.987973
vt 0.044271 0.983155
vt 0.044271 0.987941
vt 0.044271 0.985564
vt 0.035514 0.981157
vt 0.033424 0.985497
vt 0.034469 0.983327
vt 0.033438 0.985468
vt 0.028492 0.975556
vt 0.024725 0.978560
vt 0.026608 0.977058
vt 0.024750 0.978540
vt 0.024594 0.967464
vt 0.019898 0.968536
vt 0.022246 0.968000
vt 0.019929 0.968529
vt 0.024595 0.958482
vt 0.019898 0.957410
vt 0.022246 0.957946
vt 0.019929 0.957417
vt 0.028492 0.950389
vt 0.024725 0.947386
vt 0.026608 0.948888
vt 0.024750 0.947406
vt 0.035514 0.944789
vt 0.033424 0.940449
vt 0.034469 0.942619
vt 0.033438 0.940477
vt 0.044271 0.942791
vt 0.044271 0.937973
vt 0.044271 0.940382
vt 0.044271 0.938005
vt 0.053028 0.944789
vt 0.055118 0.940449
vt 0.054073 0.942619
vt 0.055104 0.940477
vt 0.060050 0.950389
vt 0.063817 0.947386
vt 0.061933 0.948888
vt 0.063792 0.947406
vt 0.063947 0.958482
vt 0.068644 0.957410
vt 0.066296 0.957946
vt 0.068613 0.957417
vt 0.063947 0.967464
vt 0.068644 0.968536
vt 0.066296 0.968000
vt 0.068613 0.968529
vt 0.060050 0.975556
vt 0.063817 0.978560
vt 0.061933 0.977058
vt 0.063792 0.978540
vt 0.053028 0.981157
vt 0.055118 0.985497
vt 0.054073 0.983327
vt 0.055104 0.985468
s 1
usemtl Palette
f 156/156/1 103/103/2 46/46/3 55/55/4
f 58/58/5 57/57/6 18/18/7 17/17/8
f 26/26/9 27/27/10 41/41/11 40/40/12
f 60/60/13 59/59/14 26/26/9 25/25/15
f 57/57/6 61/61/16 19/19/17 18/18/7
f 59/59/14 62/62/18 27/27/10 26/26/9
f 61/61/16 63/63/19 20/20/20 19/19/17
f 62/62/18 64/64/21 28/28/22 27/27/10
f 63/63/19 65/65/23 21/21/24 20/20/20
f 64/64/21 66/66/25 16/16/26 28/28/22
f 65/65/23 67/67/27 22/22/28 21/21/24
f 67/67/27 68/68/29 23/23/30 22/22/28
f 66/66/25 69/69/31 15/15/32 16/16/26
f 68/68/29 70/70/33 24/24/34 23/23/30
f 69/69/31 58/58/5 17/17/8 15/15/32
f 70/70/33 60/60/13 25/25/15 24/24/34
f 30/30/35 29/29/36 31/31/37 32/32/38 33/33/39 34/34/40 35/35/41 36/36/42 37/37/43 38/38/44 39/39/45 40/40/12 41/41/11 42/42/46
f 19/19/17 20/20/20 34/34/40 33/33/39
f 27/27/10 28/28/22 42/42/46 41/41/11
f 20/20/20 21/21/24 35/35/41 34/34/40
f 28/28/22 16/16/26 30/30/35 42/42/46
f 21/21/24 22/22/28 36/36/42 35/35/41
f 22/22/28 23/23/30 37/37/43 36/36/42
f 16/16/26 15/15/32 29/29/36 30/30/35
f 23/23/30 24/24/34 38/38/44 37/37/43
f 15/15/32 17/17/8 31/31/37 29/29/36
f 24/24/34 25/25/15 39/39/45 38/38/44
f 17/17/8 18/18/7 32/32/38 31/31/37
f 25/25/15 26/26/9 40/40/12 39/39/45
f 18/18/7 19/19/17 33/33/39 32/32/38
f 132/132/47 136/136/48 43/43/49 44/44/50
f 108/108/51 112/112/52 48/48/53 45/45/54
f 128/128/55 132/132/47 44/44/50 56/56/56
f 124/124/57 128/128/55 56/56/56 54/54/58
f 152/152/59 156/156/1 55/55/4 53/53/60
f 120/120/61 124/124/57 54/54/58 52/52/62
f 148/148/63 152/152/59 53/53/60 51/51/64
f 116/116/65 120/120/61 52/52/62 50/50/66
f 144/144/67 148/148/63 51/51/64 49/49/68
f 112/112/52 116/116/65 50/50/66 48/48/53
f 140/140/69 144/144/67 49/49/68 47/47/70
f 104/104/71 155/155/72 151/151/73 147/147/74 143/143/75 139/139/76 135/135/77 131/131/78 127/127/79 123/123/80 119/119/81 115/115/82 111/111/83 107/107/84
f 136/136/48 140/140/69 47/47/70 43/43/49
f 10/10/85 11/11/86 60/60/13 70/70/33
f 1/1/87 3/3/88 58/58/5 69/69/31
f 9/9/89 10/10/85 70/70/33 68/68/29
f 2/2/90 1/1/87 69/69/31 66/66/25
f 8/8/91 9/9/89 68/68/29 67/67/27
f 7/7/92 8/8/91 67/67/27 65/65/23
f 14/14/93 2/2/90 66/66/25 64/64/21
f 6/6/94 7/7/92 65/65/23 63/63/19
f 13/13/95 14/14/93 64/64/21 62/62/18
f 5/5/96 6/6/94 63/63/19 61/61/16
f 12/12/97 13/13/95 62/62/18 59/59/14
f 4/4/98 5/5/96 61/61/16 57/57/6
f 11/11/86 12/12/97 59/59/14 60/60/13
f 3/3/88 4/4/98 57/57/6 58/58/5
s 0
f 88/88/99 80/80/99 71/71/99 73/73/99
f 82/82/100 86/86/100 74/74/100 72/72/100
s 1
f 73/73/101 74/74/102 86/86/103 88/88/104
f 89/89/105 85/85/106 77/77/107 78/78/108
s 0
f 78/78/109 77/77/109 75/75/109 76/76/109
s 1
f 72/72/110 71/71/111 80/80/112 82/82/113
f 82/82/113 80/80/112 81/81/114 84/84/115
f 84/84/115 81/81/114 79/79/116 83/83/117
f 85/85/106 89/89/105 90/90/118 87/87/119
f 87/87/119 90/90/118 88/88/104 86/86/103
f 79/79/116 76/76/120 75/75/121 83/83/117
s 0
f 86/86/100 82/82/100 84/84/100 87/87/100
f 87/87/100 84/84/100 83/83/100 85/85/100
f 85/85/100 83/83/100 75/75/100 77/77/100
f 80/80/99 88/88/99 90/90/99 81/81/99
f 81/81/99 90/90/99 89/89/99 79/79/99
f 79/79/99 89/89/99 78/78/99 76/76/99
s 1
f 95/95/122 91/91/123 93/93/124 100/100/125
f 92/92/126 98/98/127 101/101/128 94/94/129
s 0
f 95/95/130 96/96/130 97/97/130 98/98/130 92/92/130 91/91/130
f 91/91/131 92/92/131 94/94/131 93/93/131
s 1
f 99/99/132 96/96/133 95/95/122 100/100/125
f 97/97/134 102/102/135 101/101/128 98/98/127
f 97/97/134 96/96/133 99/99/132 102/102/135
f 108/108/51 103/103/2 105/105/136 110/110/137
f 110/110/137 105/105/136 106/106/138 109/109/139
f 109/109/139 106/106/138 104/104/71 107/107/84
f 112/112/52 108/108/51 110/110/137 114/114/140
f 114/114/140 110/110/137 109/109/139 113/113/141
f 113/113/141 109/109/139 107/107/84 111/111/83
f 116/116/65 112/112/52 114/114/140 118/118/142
f 118/118/142 114/114/140 113/113/141 117/117/143
f 117/117/143 113/113/141 111/111/83 115/115/82
f 120/120/61 116/116/65 118/118/142 122/122/144
f 122/122/144 118/118/142 117/117/143 121/121/145
f 121/121/145 117/117/143 115/115/82 119/119/81
f 124/124/57 120/120/61 122/122/144 126/126/146
f 126/126/146 122/122/144 121/121/145 125/125/147
f 125/125/147 121/121/145 119/119/81 123/123/80
f 128/128/55 124/124/57 126/126/146 130/130/148
f 130/130/148 126/126/146 125/125/147 129/129/149
f 129/129/149 125/125/147 123/123/80 127/127/79
f 132/132/47 128/128/55 130/130/148 134/134/150
f 134/134/150 130/130/148 129/129/149 133/133/151
f 133/133/151 129/129/149 127/127/79 131/131/78
f 136/136/48 132/132/47 134/134/150 138/138/152
f 138/138/152 134/134/150 133/133/151 137/137/153
f 137/137/153 133/133/151 131/131/78 135/135/77
f 140/140/69 136/136/48 138/138/152 142/142/154
f 142/142/154 138/138/152 137/137/153 141/141/155
f 141/141/155 137/137/153 135/135/77 139/139/76
f 144/144/67 140/140/69 142/142/154 146/146/156
f 146/146/156 142/142/154 141/141/155 145/145/157
f 145/145/157 141/141/155 139/139/76 143/143/75
f 148/148/63 144/144/67 146/146/156 150/150/158
f 150/150/158 146/146/156 145/145/157 149/149/159
f 149/149/159 145/145/157 143/143/75 147/147/74
f 152/152/59 148/148/63 150/150/158 154/154/160
f 154/154/160 150/150/158 149/149/159 153/153/161
f 153/153/161 149/149/159 147/147/74 151/151/73
f 156/156/1 152/152/59 154/154/160 158/158/162
f 158/158/162 154/154/160 153/153/161 157/157/163
f 157/157/163 153/153/161 151/151/73 155/155/72
f 103/103/2 156/156/1 158/158/162 105/105/136
f 105/105/136 158/158/162 157/157/163 106/106/138
f 106/106/138 157/157/163 155/155/72 104/104/71
f 103/103/2 108/108/51 45/45/54 46/46/3
s 0
f 44/44/164 43/43/164 47/47/164 49/49/164 51/51/164 53/53/164 55/55/164 46/46/164 45/45/164 48/48/164 50/50/164 52/52/164 54/54/164 56/56/164
f 1/1/131 2/2/131 14/14/131 13/13/131 12/12/131 11/11/131 10/10/131 9/9/131 8/8/131 7/7/131 6/6/131 5/5/131 4/4/131 3/3/131
