# Blender 3.4.1
# www.blender.org
mtllib SimpleSmall_Box.mtl
o SimpleSmall_Box
v -0.147905 0.000000 -0.084381
v -0.147905 0.000000 0.084381
v 0.147905 0.000000 -0.084381
v 0.147905 0.000000 0.084381
v 0.141023 0.109464 -0.077500
v 0.141023 0.109464 0.077500
v -0.141024 0.109464 -0.077500
v -0.141024 0.109464 0.077500
v 0.147905 0.109464 -0.084381
v 0.147905 0.109464 0.084381
v -0.147905 0.109464 -0.084381
v -0.147905 0.109464 0.084381
v 0.141023 0.012868 -0.077500
v 0.141023 0.012868 0.077500
v -0.141024 0.012868 -0.077500
v -0.141024 0.012868 0.077500
v 0.147905 0.017691 0.084381
v 0.147905 0.029582 0.084381
v -0.147905 0.029582 0.084381
v -0.147905 0.017691 0.084381
v 0.147905 0.017691 -0.084381
v 0.147905 0.029582 -0.084381
v -0.147905 0.017691 -0.084381
v -0.147905 0.029582 -0.084381
vn -0.0000 -1.0000 -0.0000
vn -0.0000 -0.0000 -1.0000
vn -0.0000 -0.0000 1.0000
vn 1.0000 -0.0000 -0.0000
vn -1.0000 -0.0000 -0.0000
vn -0.0000 1.0000 -0.0000
vt 0.303067 0.780976
vt 0.303067 0.797364
vt 0.303067 0.780976
vt 0.303067 0.797364
vt 0.303067 0.781644
vt 0.303067 0.796695
vt 0.303067 0.781644
vt 0.303067 0.796695
vt 0.303067 0.780976
vt 0.303067 0.797364
vt 0.303067 0.780976
vt 0.303067 0.797364
vt 0.303067 0.781644
vt 0.303067 0.796695
vt 0.303067 0.781644
vt 0.303067 0.796695
vt 0.303067 0.797364
vt 0.457370 0.706893
vt 0.303067 0.797364
vt 0.457370 0.706893
vt 0.303067 0.797364
vt 0.457370 0.706893
vt 0.303067 0.797364
vt 0.457370 0.706893
vt 0.303067 0.780976
vt 0.457370 0.690505
vt 0.303067 0.780976
vt 0.457370 0.690505
vt 0.303067 0.780976
vt 0.457370 0.690505
vt 0.303067 0.780976
vt 0.457370 0.690505
s 0
usemtl Palette
f 3/3/1 4/4/1 2/2/1 1/1/1
f 8/8/2 6/6/2 14/14/2 16/16/2
f 19/21/3 18/19/3 10/10/3 12/12/3
f 18/19/4 22/27/4 9/9/4 10/10/4
f 22/27/2 24/31/2 11/11/2 9/9/2
f 24/31/5 19/21/5 12/12/5 11/11/5
f 5/5/6 6/6/6 10/10/6 9/9/6
f 8/8/6 7/7/6 11/11/6 12/12/6
f 6/6/6 8/8/6 12/12/6 10/10/6
f 7/7/6 5/5/6 9/9/6 11/11/6
f 13/13/6 15/15/6 16/16/6 14/14/6
f 6/6/5 5/5/5 13/13/5 14/14/5
f 5/5/3 7/7/3 15/15/3 13/13/3
f 7/7/4 8/8/4 16/16/4 15/15/4
f 1/1/5 2/2/5 20/23/5 23/29/5
f 23/30/5 20/24/5 19/22/5 24/32/5
f 3/3/2 1/1/2 23/29/2 21/25/2
f 21/26/2 23/30/2 24/32/2 22/28/2
f 4/4/4 3/3/4 21/25/4 17/17/4
f 17/18/4 21/26/4 22/28/4 18/20/4
f 2/2/3 4/4/3 17/17/3 20/23/3
f 20/24/3 17/18/3 18/20/3 19/22/3
