# Blender 3.4.1
# www.blender.org
mtllib Simple_Curtains__Closed_.mtl
o Simple_Curtains_(Closed)
v 0.891328 -0.821547 0.159940
v -0.891328 -0.821547 0.159940
v -0.866127 0.856851 0.119459
v 0.866127 0.856851 0.119459
v 0.713062 -0.788961 0.249473
v 0.534797 -0.788961 0.178569
v 0.356531 -0.788961 0.249473
v 0.178265 -0.821547 0.159940
v -0.000000 -0.788961 0.249473
v -0.178266 -0.788961 0.178569
v -0.356531 -0.788961 0.249473
v -0.534797 -0.821547 0.159940
v -0.713062 -0.821547 0.230844
v 0.690281 0.752993 0.194315
v 0.519676 0.856851 0.119459
v 0.345141 0.752993 0.194315
v 0.173225 0.856851 0.119459
v -0.000000 0.752993 0.194315
v -0.173225 0.856851 0.119459
v -0.345141 0.752993 0.194315
v -0.519676 0.856851 0.119459
v -0.690281 0.752993 0.194315
v -0.852853 -0.410773 0.110343
v -0.828608 0.000000 0.127749
v -0.846502 0.410773 0.151113
v 0.846502 0.410773 0.151113
v 0.828608 0.000000 0.127749
v 0.852853 -0.410773 0.110343
v 0.682282 -0.410773 0.181247
v 0.662886 0.000000 0.184039
v 0.677202 0.410773 0.198710
v 0.511712 -0.410773 0.110343
v 0.497165 0.000000 0.127749
v 0.507901 0.410773 0.151113
v 0.341141 -0.410773 0.181247
v 0.331443 0.000000 0.184039
v 0.338601 0.410773 0.198710
v 0.170571 -0.410773 0.110343
v 0.165722 0.000000 0.127749
v 0.169300 0.410773 0.151113
v -0.000000 -0.410773 0.181247
v -0.000000 0.000000 0.184039
v -0.000000 0.410773 0.198710
v -0.170571 -0.410773 0.110343
v -0.165722 0.000000 0.127749
v -0.169301 0.410773 0.151113
v -0.341141 -0.410773 0.181247
v -0.331443 0.000000 0.184039
v -0.338601 0.410773 0.198710
v -0.511712 -0.410773 0.110343
v -0.497165 0.000000 0.127749
v -0.507902 0.410773 0.151113
v -0.682282 -0.410773 0.181247
v -0.662886 0.000000 0.184039
v -0.677202 0.410773 0.198710
v -0.846503 0.409017 0.096807
v -0.866127 0.855094 0.075291
v -0.713063 -0.823303 0.099713
v -0.891328 -0.823303 0.138803
v 0.852852 -0.412530 0.080317
v 0.891327 -0.823303 0.138803
v -0.690282 0.751236 0.034023
v 0.713061 -0.790717 0.089443
v 0.534796 -0.790717 0.128533
v 0.356530 -0.790717 0.089443
v 0.178265 -0.823303 0.138803
v -0.000001 -0.790717 0.089443
v -0.178266 -0.790717 0.128533
v -0.356532 -0.790717 0.089443
v -0.534797 -0.823303 0.138803
v 0.866126 0.855094 0.075291
v 0.690281 0.751236 0.034023
v 0.519675 0.855094 0.075291
v 0.345140 0.751236 0.034023
v 0.173225 0.855094 0.075291
v -0.000001 0.751236 0.034023
v -0.173226 0.855094 0.075291
v -0.345141 0.751236 0.034023
v -0.519677 0.855094 0.075291
v 0.677201 0.409017 0.070567
v 0.507901 0.409017 0.096807
v 0.338600 0.409017 0.070567
v 0.169300 0.409017 0.096807
v -0.000001 0.409017 0.070567
v -0.169301 0.409017 0.096807
v -0.338602 0.409017 0.070567
v -0.507902 0.409017 0.096807
v -0.677203 0.409017 0.070567
v -0.852854 -0.412530 0.080317
v -0.828608 -0.001756 0.081773
v 0.846502 0.409017 0.096807
v 0.828607 -0.001756 0.081773
v 0.682282 -0.412530 0.041227
v 0.662886 -0.001756 0.050740
v 0.511711 -0.412530 0.080317
v 0.497164 -0.001756 0.081773
v 0.341141 -0.412530 0.041227
v 0.331443 -0.001756 0.050740
v 0.170570 -0.412530 0.080317
v 0.165721 -0.001756 0.081773
v -0.000001 -0.412530 0.041227
v -0.000001 -0.001756 0.050740
v -0.170571 -0.412530 0.080317
v -0.165722 -0.001756 0.081773
v -0.341142 -0.412530 0.041227
v -0.331444 -0.001756 0.050740
v -0.511712 -0.412530 0.080317
v -0.497165 -0.001756 0.081773
v -0.682283 -0.412530 0.041227
v -0.662887 -0.001756 0.050740
vn -0.3728 0.1421 0.9170
vn 0.4248 0.1701 0.8892
vn -0.3729 0.1389 0.9174
vn 0.3702 0.1831 0.9107
vn -0.4241 0.1216 0.8974
vn 0.4245 0.1378 0.8949
vn -0.3712 0.1685 0.9131
vn 0.3721 0.1538 0.9154
vn -0.4247 0.1539 0.8922
vn 0.3752 0.0868 0.9229
vn 0.3240 0.0534 0.9446
vn 0.2960 -0.0352 0.9545
vn 0.3535 -0.0376 0.9347
vn -0.3257 0.0356 0.9448
vn -0.2958 -0.0506 0.9539
vn -0.3537 -0.0126 0.9353
vn 0.3246 0.0475 0.9447
vn 0.2959 -0.0403 0.9544
vn 0.3536 -0.0292 0.9349
vn -0.3251 0.0416 0.9448
vn -0.2959 -0.0455 0.9541
vn -0.3537 -0.0209 0.9351
vn 0.3251 0.0416 0.9448
vn 0.2959 -0.0455 0.9541
vn 0.3537 -0.0209 0.9351
vn -0.3246 0.0475 0.9447
vn -0.2959 -0.0403 0.9544
vn -0.3536 -0.0292 0.9349
vn 0.3257 0.0356 0.9448
vn 0.2958 -0.0506 0.9539
vn 0.3537 -0.0126 0.9353
vn -0.3240 0.0534 0.9446
vn -0.2960 -0.0352 0.9545
vn -0.3535 -0.0376 0.9347
vn 0.3263 0.0297 0.9448
vn 0.2957 -0.0557 0.9536
vn 0.3538 -0.0042 0.9353
vn -0.3263 0.0297 0.9448
vn -0.2957 -0.0557 0.9536
vn -0.3538 -0.0042 0.9353
vn -0.2171 -0.1196 -0.9688
vn 0.2346 -0.1100 -0.9658
vn -0.2166 -0.1386 -0.9664
vn 0.2173 -0.1126 -0.9696
vn -0.2314 -0.1370 -0.9632
vn 0.2325 -0.1281 -0.9641
vn -0.2171 -0.1213 -0.9686
vn 0.2168 -0.1300 -0.9675
vn -0.2336 -0.1191 -0.9650
vn 0.2162 -0.1515 -0.9645
vn 0.2135 -0.0651 -0.9748
vn 0.1683 0.0469 -0.9846
vn 0.2041 0.0046 -0.9789
vn -0.2144 -0.0767 -0.9737
vn -0.1684 0.0381 -0.9850
vn -0.2041 0.0191 -0.9788
vn 0.2138 -0.0689 -0.9744
vn 0.1683 0.0440 -0.9847
vn 0.2041 0.0095 -0.9789
vn -0.2141 -0.0728 -0.9741
vn -0.1684 0.0411 -0.9849
vn -0.2041 0.0143 -0.9788
vn 0.2141 -0.0728 -0.9741
vn 0.1684 0.0411 -0.9849
vn 0.2041 0.0143 -0.9788
vn -0.2138 -0.0689 -0.9744
vn -0.1683 0.0440 -0.9847
vn -0.2041 0.0095 -0.9789
vn 0.2144 -0.0767 -0.9737
vn 0.1684 0.0381 -0.9850
vn 0.2041 0.0191 -0.9788
vn -0.2135 -0.0651 -0.9748
vn -0.1683 0.0469 -0.9846
vn -0.2041 0.0046 -0.9789
vn 0.2146 -0.0806 -0.9734
vn 0.1684 0.0352 -0.9851
vn 0.2041 0.0239 -0.9787
vn -0.2146 -0.0806 -0.9734
vn -0.1684 0.0352 -0.9851
vn -0.2041 0.0239 -0.9787
vn 0.5210 0.8534 -0.0147
vn -0.0021 -0.9997 0.0231
vn -0.5124 0.8586 -0.0147
vn 0.9957 0.0924 -0.0064
vn 0.5181 0.8552 -0.0147
vn 0.5095 0.8603 -0.0148
vn -0.5152 0.8569 -0.0147
vn -0.1777 -0.9839 0.0191
vn -0.9957 0.0924 -0.0063
vn 0.5152 0.8569 -0.0147
vn -0.0015 -0.9999 0.0167
vn -0.9983 0.0590 -0.0027
vn -0.5181 0.8552 -0.0147
vn 0.0015 -0.9999 0.0167
vn -0.9990 -0.0436 0.0015
vn 0.5124 0.8586 -0.0148
vn 0.1777 -0.9839 0.0191
vn 0.9990 -0.0439 0.0016
vn -0.5210 0.8534 -0.0147
vn 0.9990 -0.0436 0.0015
vn 0.9983 0.0590 -0.0027
vn 0.0021 -0.9997 0.0231
vn -0.5095 0.8603 -0.0148
vn -0.9990 -0.0439 0.0016
vt 0.285004 0.893251
vt 0.300132 0.893251
vt 0.300132 0.893251
vt 0.285004 0.893251
vt 0.286517 0.893251
vt 0.288030 0.893251
vt 0.289543 0.893251
vt 0.291055 0.893251
vt 0.292568 0.893251
vt 0.294081 0.893251
vt 0.295594 0.893251
vt 0.297107 0.893251
vt 0.298619 0.893251
vt 0.286517 0.893251
vt 0.288030 0.893251
vt 0.289543 0.893251
vt 0.291055 0.893251
vt 0.292568 0.893251
vt 0.294081 0.893251
vt 0.295594 0.893251
vt 0.297107 0.893251
vt 0.298619 0.893251
vt 0.300132 0.893251
vt 0.300132 0.893251
vt 0.300132 0.893251
vt 0.285004 0.893251
vt 0.285004 0.893251
vt 0.285004 0.893251
vt 0.286517 0.893251
vt 0.286517 0.893251
vt 0.286517 0.893251
vt 0.288030 0.893251
vt 0.288030 0.893251
vt 0.288030 0.893251
vt 0.289543 0.893251
vt 0.289543 0.893251
vt 0.289543 0.893251
vt 0.291055 0.893251
vt 0.291055 0.893251
vt 0.291055 0.893251
vt 0.292568 0.893251
vt 0.292568 0.893251
vt 0.292568 0.893251
vt 0.294081 0.893251
vt 0.294081 0.893251
vt 0.294081 0.893251
vt 0.295594 0.893251
vt 0.295594 0.893251
vt 0.295594 0.893251
vt 0.297107 0.893251
vt 0.297107 0.893251
vt 0.297107 0.893251
vt 0.298619 0.893251
vt 0.298619 0.893251
vt 0.298619 0.893251
vt 0.300132 0.893251
vt 0.300132 0.893251
vt 0.298619 0.893251
vt 0.300132 0.893251
vt 0.285004 0.893251
vt 0.285004 0.893251
vt 0.298619 0.893251
vt 0.286517 0.893251
vt 0.288030 0.893251
vt 0.289543 0.893251
vt 0.291055 0.893251
vt 0.292568 0.893251
vt 0.294081 0.893251
vt 0.295594 0.893251
vt 0.297107 0.893251
vt 0.285004 0.893251
vt 0.286517 0.893251
vt 0.288030 0.893251
vt 0.289543 0.893251
vt 0.291055 0.893251
vt 0.292568 0.893251
vt 0.294081 0.893251
vt 0.295594 0.893251
vt 0.297107 0.893251
vt 0.286517 0.893251
vt 0.288030 0.893251
vt 0.289543 0.893251
vt 0.291055 0.893251
vt 0.292568 0.893251
vt 0.294081 0.893251
vt 0.295594 0.893251
vt 0.297107 0.893251
vt 0.298619 0.893251
vt 0.300132 0.893251
vt 0.300132 0.893251
vt 0.285004 0.893251
vt 0.285004 0.893251
vt 0.286517 0.893251
vt 0.286517 0.893251
vt 0.288030 0.893251
vt 0.288030 0.893251
vt 0.289543 0.893251
vt 0.289543 0.893251
vt 0.291055 0.893251
vt 0.291055 0.893251
vt 0.292568 0.893251
vt 0.292568 0.893251
vt 0.294081 0.893251
vt 0.294081 0.893251
vt 0.295594 0.893251
vt 0.295594 0.893251
vt 0.297107 0.893251
vt 0.297107 0.893251
vt 0.298619 0.893251
vt 0.298619 0.893251
s 0
usemtl Palette
f 53/53/1 23/23/1 2/2/1 13/13/1
f 28/28/2 29/29/2 5/5/2 1/1/2
f 29/29/3 32/32/3 6/6/3 5/5/3
f 32/32/4 35/35/4 7/7/4 6/6/4
f 35/35/5 38/38/5 8/8/5 7/7/5
f 38/38/6 41/41/6 9/9/6 8/8/6
f 41/41/7 44/44/7 10/10/7 9/9/7
f 44/44/8 47/47/8 11/11/8 10/10/8
f 47/47/9 50/50/9 12/12/9 11/11/9
f 50/50/10 53/53/10 13/13/10 12/12/10
f 21/21/11 22/22/11 55/55/11 52/52/11
f 52/52/12 55/55/12 54/54/12 51/51/12
f 51/51/13 54/54/13 53/53/13 50/50/13
f 20/20/14 21/21/14 52/52/14 49/49/14
f 49/49/15 52/52/15 51/51/15 48/48/15
f 48/48/16 51/51/16 50/50/16 47/47/16
f 19/19/17 20/20/17 49/49/17 46/46/17
f 46/46/18 49/49/18 48/48/18 45/45/18
f 45/45/19 48/48/19 47/47/19 44/44/19
f 18/18/20 19/19/20 46/46/20 43/43/20
f 43/43/21 46/46/21 45/45/21 42/42/21
f 42/42/22 45/45/22 44/44/22 41/41/22
f 17/17/23 18/18/23 43/43/23 40/40/23
f 40/40/24 43/43/24 42/42/24 39/39/24
f 39/39/25 42/42/25 41/41/25 38/38/25
f 16/16/26 17/17/26 40/40/26 37/37/26
f 37/37/27 40/40/27 39/39/27 36/36/27
f 36/36/28 39/39/28 38/38/28 35/35/28
f 15/15/29 16/16/29 37/37/29 34/34/29
f 34/34/30 37/37/30 36/36/30 33/33/30
f 33/33/31 36/36/31 35/35/31 32/32/31
f 14/14/32 15/15/32 34/34/32 31/31/32
f 31/31/33 34/34/33 33/33/33 30/30/33
f 30/30/34 33/33/34 32/32/34 29/29/34
f 4/4/35 14/14/35 31/31/35 26/26/35
f 26/26/36 31/31/36 30/30/36 27/27/36
f 27/27/37 30/30/37 29/29/37 28/28/37
f 22/22/38 3/3/38 25/25/38 55/55/38
f 55/55/39 25/25/39 24/24/39 54/54/39
f 54/54/40 24/24/40 23/23/40 53/53/40
f 109/109/41 58/58/41 59/59/41 89/89/41
f 60/60/42 61/61/42 63/63/42 93/93/42
f 93/93/43 63/63/43 64/64/43 95/95/43
f 95/95/44 64/64/44 65/65/44 97/97/44
f 97/97/45 65/65/45 66/66/45 99/99/45
f 99/99/46 66/66/46 67/67/46 101/101/46
f 101/101/47 67/67/47 68/68/47 103/103/47
f 103/103/48 68/68/48 69/69/48 105/105/48
f 105/105/49 69/69/49 70/70/49 107/107/49
f 107/107/50 70/70/50 58/58/50 109/109/50
f 79/79/51 87/87/51 88/88/51 62/62/51
f 87/87/52 108/108/52 110/110/52 88/88/52
f 108/108/53 107/107/53 109/109/53 110/110/53
f 78/78/54 86/86/54 87/87/54 79/79/54
f 86/86/55 106/106/55 108/108/55 87/87/55
f 106/106/56 105/105/56 107/107/56 108/108/56
f 77/77/57 85/85/57 86/86/57 78/78/57
f 85/85/58 104/104/58 106/106/58 86/86/58
f 104/104/59 103/103/59 105/105/59 106/106/59
f 76/76/60 84/84/60 85/85/60 77/77/60
f 84/84/61 102/102/61 104/104/61 85/85/61
f 102/102/62 101/101/62 103/103/62 104/104/62
f 75/75/63 83/83/63 84/84/63 76/76/63
f 83/83/64 100/100/64 102/102/64 84/84/64
f 100/100/65 99/99/65 101/101/65 102/102/65
f 74/74/66 82/82/66 83/83/66 75/75/66
f 82/82/67 98/98/67 100/100/67 83/83/67
f 98/98/68 97/97/68 99/99/68 100/100/68
f 73/73/69 81/81/69 82/82/69 74/74/69
f 81/81/70 96/96/70 98/98/70 82/82/70
f 96/96/71 95/95/71 97/97/71 98/98/71
f 72/72/72 80/80/72 81/81/72 73/73/72
f 80/80/73 94/94/73 96/96/73 81/81/73
f 94/94/74 93/93/74 95/95/74 96/96/74
f 71/71/75 91/91/75 80/80/75 72/72/75
f 91/91/76 92/92/76 94/94/76 80/80/76
f 92/92/77 60/60/77 93/93/77 94/94/77
f 62/62/78 88/88/78 56/56/78 57/57/78
f 88/88/79 110/110/79 90/90/79 56/56/79
f 110/110/80 109/109/80 89/89/80 90/90/80
f 15/15/81 14/14/81 72/72/81 73/73/81
f 13/13/82 2/2/82 59/59/82 58/58/82
f 16/16/83 15/15/83 73/73/83 74/74/83
f 28/28/84 1/1/84 61/61/84 60/60/84
f 17/17/85 16/16/85 74/74/85 75/75/85
f 3/3/86 22/22/86 62/62/86 57/57/86
f 18/18/87 17/17/87 75/75/87 76/76/87
f 1/1/88 5/5/88 63/63/88 61/61/88
f 2/2/89 23/23/89 89/89/89 59/59/89
f 19/19/90 18/18/90 76/76/90 77/77/90
f 5/5/91 6/6/91 64/64/91 63/63/91
f 23/23/92 24/24/92 90/90/92 89/89/92
f 20/20/93 19/19/93 77/77/93 78/78/93
f 6/6/94 7/7/94 65/65/94 64/64/94
f 24/24/95 25/25/95 56/56/95 90/90/95
f 21/21/96 20/20/96 78/78/96 79/79/96
f 7/7/97 8/8/97 66/66/97 65/65/97
f 4/4/98 26/26/98 91/91/98 71/71/98
f 22/22/99 21/21/99 79/79/99 62/62/99
f 8/8/88 9/9/88 67/67/88 66/66/88
f 26/26/100 27/27/100 92/92/100 91/91/100
f 9/9/91 10/10/91 68/68/91 67/67/91
f 27/27/101 28/28/101 60/60/101 92/92/101
f 10/10/94 11/11/94 69/69/94 68/68/94
f 11/11/97 12/12/97 70/70/97 69/69/97
f 12/12/102 13/13/102 58/58/102 70/70/102
f 14/14/103 4/4/103 71/71/103 72/72/103
f 25/25/104 3/3/104 57/57/104 56/56/104
