# Blender 3.4.1
# www.blender.org
mtllib SimpleSmall_Box__Top_.mtl
o SimpleSmall_Box_(Top)
v -0.137990 0.021733 0.075107
v -0.137990 0.021733 -0.075107
v 0.137990 0.021733 0.075107
v 0.137990 0.021733 -0.075107
v 0.147888 -0.000911 0.084700
v 0.147888 -0.000911 -0.084700
v -0.147888 -0.000911 0.084700
v -0.147888 -0.000911 -0.084700
v 0.155104 -0.000911 0.092221
v 0.155104 -0.000911 -0.092221
v -0.155104 -0.000911 0.092221
v -0.155104 -0.000911 -0.092221
v 0.147888 0.011412 0.081096
v 0.147888 0.011413 -0.088304
v -0.147888 0.011412 0.081096
v -0.147888 0.011413 -0.088304
v 0.155104 0.021733 0.092221
v 0.155104 0.021733 -0.092221
v -0.155104 0.021733 0.092221
v -0.155104 0.021733 -0.092221
vn -0.0000 1.0000 -0.0000
vn -0.0000 0.2807 0.9598
vn -0.0000 -0.0000 -1.0000
vn 1.0000 -0.0000 -0.0000
vn -0.0000 -0.0000 1.0000
vn -1.0000 -0.0000 -0.0000
vn -0.0000 -1.0000 -0.0000
vn -0.0000 -0.2807 -0.9598
vt 0.447527 0.705150
vt 0.303067 0.782496
vt 0.447527 0.718497
vt 0.303067 0.795843
vt 0.447527 0.705150
vt 0.303067 0.782496
vt 0.447527 0.718497
vt 0.303067 0.795843
vt 0.303067 0.781644
vt 0.303067 0.796695
vt 0.303067 0.781644
vt 0.303067 0.796695
vt 0.303067 0.780976
vt 0.303067 0.797364
vt 0.303067 0.780976
vt 0.303067 0.797364
vt 0.883249 0.697812
vt 0.303067 0.781644
vt 0.883249 0.712863
vt 0.303067 0.796695
vt 0.883249 0.697812
vt 0.303067 0.781644
vt 0.883249 0.712863
vt 0.303067 0.796695
vt 0.303067 0.780976
vt 0.303067 0.797364
vt 0.303067 0.780976
vt 0.303067 0.797364
s 0
usemtl Palette
f 3/5/1 4/7/1 2/3/1 1/1/1
f 8/12/2 6/10/2 14/20/2 16/24/2
f 20/28/3 18/26/3 10/14/3 12/16/3
f 18/26/4 17/25/4 9/13/4 10/14/4
f 17/25/5 19/27/5 11/15/5 9/13/5
f 19/27/6 20/28/6 12/16/6 11/15/6
f 5/9/7 6/10/7 10/14/7 9/13/7
f 8/12/7 7/11/7 11/15/7 12/16/7
f 6/10/7 8/12/7 12/16/7 10/14/7
f 7/11/7 5/9/7 9/13/7 11/15/7
f 13/17/7 15/21/7 16/23/7 14/19/7
f 6/10/6 5/9/6 13/18/6 14/20/6
f 5/9/8 7/11/8 15/22/8 13/18/8
f 7/11/4 8/12/4 16/24/4 15/22/4
f 4/8/1 3/6/1 17/25/1 18/26/1
f 1/2/1 2/4/1 20/28/1 19/27/1
f 2/4/1 4/8/1 18/26/1 20/28/1
f 3/6/1 1/2/1 19/27/1 17/25/1
