# Blender 3.4.1
# www.blender.org
mtllib Simple_Table__Outside_.mtl
o Simple_Table_(Outside)
v 1.000000 0.915596 -0.375000
v 1.000000 0.848328 -0.375000
v 1.000000 0.915596 0.375000
v 1.000000 0.848328 0.375000
v 0.881318 0.000000 0.348246
v 0.881318 0.896389 0.348246
v 0.881318 0.000000 0.259360
v 0.881318 0.896389 0.259360
v 0.970204 0.000000 0.348246
v 0.970204 0.896389 0.348246
v 0.970204 0.000000 0.259360
v 0.970204 0.896389 0.259360
v 0.881318 0.000000 -0.256000
v 0.881318 0.896389 -0.256000
v 0.881318 0.000000 -0.344886
v 0.881318 0.896389 -0.344886
v 0.970204 0.000000 -0.256000
v 0.970204 0.896389 -0.256000
v 0.970204 0.000000 -0.344886
v 0.970204 0.896389 -0.344886
v 0.948427 0.887229 -0.263037
v 0.948427 0.690395 -0.263037
v 0.948427 0.887229 0.263037
v 0.948427 0.690395 0.263037
v 0.903864 0.887229 -0.263037
v 0.903864 0.690395 -0.263037
v 0.903864 0.887229 0.263037
v 0.903864 0.690395 0.263037
v 0.948427 0.366208 -0.263037
v 0.948427 0.169375 -0.263037
v 0.948427 0.366208 0.263037
v 0.948427 0.169375 0.263037
v 0.903864 0.366208 -0.263037
v 0.903864 0.169375 -0.263037
v 0.903864 0.366208 0.263037
v 0.903864 0.169375 0.263037
v 0.914656 0.811242 -0.191663
v 0.914656 0.811242 0.191663
v 0.914656 0.853853 0.191663
v 0.914656 0.853853 -0.191663
v 1.015967 0.955532 -0.389969
v 1.015967 0.924579 -0.389969
v 1.015967 0.955532 0.389969
v 1.015967 0.924579 0.389969
v -1.000000 0.915596 -0.375000
v -1.000000 0.848328 -0.375000
v -1.000000 0.915596 0.375000
v -1.000000 0.848328 0.375000
v -0.881318 0.000000 0.348246
v -0.881318 0.896389 0.348246
v -0.881318 0.000000 0.259360
v -0.881318 0.896389 0.259360
v -0.970204 0.000000 0.348246
v -0.970204 0.896389 0.348246
v -0.970204 0.000000 0.259360
v -0.970204 0.896389 0.259360
v -0.881318 0.000000 -0.256000
v -0.881318 0.896389 -0.256000
v -0.881318 0.000000 -0.344886
v -0.881318 0.896389 -0.344886
v -0.970204 0.000000 -0.256000
v -0.970204 0.896389 -0.256000
v -0.970204 0.000000 -0.344886
v -0.970204 0.896389 -0.344886
v -0.948427 0.887229 -0.263037
v -0.948427 0.690395 -0.263037
v -0.948427 0.887229 0.263037
v -0.948427 0.690395 0.263037
v -0.903864 0.887229 -0.263037
v -0.903864 0.690395 -0.263037
v -0.903864 0.887229 0.263037
v -0.903864 0.690395 0.263037
v -0.948427 0.366208 -0.263037
v -0.948427 0.169375 -0.263037
v -0.948427 0.366208 0.263037
v -0.948427 0.169375 0.263037
v -0.903864 0.366208 -0.263037
v -0.903864 0.169375 -0.263037
v -0.903864 0.366208 0.263037
v -0.903864 0.169375 0.263037
v -0.914656 0.811242 -0.191663
v -0.914656 0.811242 0.191663
v -0.914656 0.853853 0.191663
v -0.914656 0.853853 -0.191663
v -1.015967 0.955532 -0.389969
v -1.015967 0.924579 -0.389969
v -1.015967 0.955532 0.389969
v -1.015967 0.924579 0.389969
vn -0.0000 -1.0000 -0.0000
vn 1.0000 -0.0000 -0.0000
vn -0.0000 -0.0000 -1.0000
vn -1.0000 -0.0000 -0.0000
vn -0.0000 -0.0000 1.0000
vn -0.0000 1.0000 -0.0000
vt 0.560904 0.712234
vt 0.548878 0.712234
vt 0.560904 0.724260
vt 0.548878 0.724260
vt 0.548878 0.688182
vt 0.548878 0.736286
vt 0.536852 0.724260
vt 0.560904 0.688182
vt 0.560904 0.736286
vt 0.548878 0.700208
vt 0.536852 0.712234
vt 0.560904 0.700208
vt 0.548878 0.724260
vt 0.560904 0.724260
vt 0.548878 0.712234
vt 0.560904 0.712234
vt 0.548878 0.688182
vt 0.548878 0.736286
vt 0.536852 0.724260
vt 0.560904 0.688182
vt 0.560904 0.736286
vt 0.548878 0.700208
vt 0.536852 0.712234
vt 0.560904 0.700208
vt 0.548878 0.724260
vt 0.560904 0.724260
vt 0.548878 0.712234
vt 0.560904 0.712234
vt 0.560904 0.712234
vt 0.548878 0.712234
vt 0.560904 0.724260
vt 0.548878 0.724260
vt 0.560904 0.712234
vt 0.548878 0.712234
vt 0.560904 0.724260
vt 0.548878 0.724260
vt 0.560904 0.712234
vt 0.548878 0.712234
vt 0.560904 0.724260
vt 0.548878 0.724260
vt 0.560904 0.712234
vt 0.548878 0.712234
vt 0.560904 0.724260
vt 0.548878 0.724260
vt 0.872936 0.953905
vt 0.872936 0.965931
vt 0.872936 0.965931
vt 0.872936 0.953905
vt 0.132301 0.873474
vt 0.120275 0.873474
vt 0.132301 0.885500
vt 0.120275 0.885500
vt 0.560904 0.712234
vt 0.548878 0.712234
vt 0.560904 0.724260
vt 0.548878 0.724260
vt 0.548878 0.688182
vt 0.548878 0.736286
vt 0.536852 0.724260
vt 0.560904 0.688182
vt 0.560904 0.736286
vt 0.548878 0.700208
vt 0.536852 0.712234
vt 0.560904 0.700208
vt 0.548878 0.724260
vt 0.560904 0.724260
vt 0.548878 0.712234
vt 0.560904 0.712234
vt 0.548878 0.688182
vt 0.548878 0.736286
vt 0.536852 0.724260
vt 0.560904 0.688182
vt 0.560904 0.736286
vt 0.548878 0.700208
vt 0.536852 0.712234
vt 0.560904 0.700208
vt 0.548878 0.724260
vt 0.560904 0.724260
vt 0.548878 0.712234
vt 0.560904 0.712234
vt 0.560904 0.712234
vt 0.548878 0.712234
vt 0.560904 0.724260
vt 0.548878 0.724260
vt 0.560904 0.712234
vt 0.548878 0.712234
vt 0.560904 0.724260
vt 0.548878 0.724260
vt 0.560904 0.712234
vt 0.548878 0.712234
vt 0.560904 0.724260
vt 0.548878 0.724260
vt 0.560904 0.712234
vt 0.548878 0.712234
vt 0.560904 0.724260
vt 0.548878 0.724260
vt 0.872936 0.953905
vt 0.872936 0.965931
vt 0.872936 0.965931
vt 0.872936 0.953905
vt 0.132301 0.873474
vt 0.120275 0.873474
vt 0.132301 0.885500
vt 0.120275 0.885500
s 0
usemtl Palette
f 38/46/1 82/98/1 81/97/1 37/45/1
f 2/2/2 1/1/2 3/3/2 4/4/2
f 4/4/1 48/56/1 46/54/1 2/2/1
f 2/2/3 46/54/3 45/53/3 1/1/3
f 5/5/4 6/8/4 8/12/4 7/10/4
f 7/10/3 8/12/3 12/16/3 11/15/3
f 11/15/2 12/16/2 10/14/2 9/13/2
f 9/13/5 10/14/5 6/9/5 5/6/5
f 7/11/1 11/15/1 9/13/1 5/7/1
f 13/17/4 14/20/4 16/24/4 15/22/4
f 15/22/3 16/24/3 20/28/3 19/27/3
f 19/27/2 20/28/2 18/26/2 17/25/2
f 17/25/5 18/26/5 14/21/5 13/18/5
f 15/23/1 19/27/1 17/25/1 13/19/1
f 22/30/2 21/29/2 23/31/2 24/32/2
f 26/34/4 28/36/4 27/35/4 25/33/4
f 24/32/1 28/36/1 26/34/1 22/30/1
f 30/38/2 29/37/2 31/39/2 32/40/2
f 34/42/4 36/44/4 35/43/4 33/41/4
f 32/40/1 36/44/1 34/42/1 30/38/1
f 29/37/6 33/41/6 35/43/6 31/39/6
f 37/45/3 81/97/3 84/100/3 40/48/3
f 82/98/5 38/46/5 39/47/5 83/99/5
f 85/101/6 87/103/6 43/51/6 41/49/6
f 42/50/2 41/49/2 43/51/2 44/52/2
f 44/52/1 88/104/1 86/102/1 42/50/1
f 88/104/5 44/52/5 43/51/5 87/103/5
f 42/50/3 86/102/3 85/101/3 41/49/3
f 46/54/4 48/56/4 47/55/4 45/53/4
f 49/57/2 51/62/2 52/64/2 50/60/2
f 51/62/3 55/67/3 56/68/3 52/64/3
f 55/67/4 53/65/4 54/66/4 56/68/4
f 53/65/5 49/58/5 50/61/5 54/66/5
f 51/63/1 49/59/1 53/65/1 55/67/1
f 57/69/2 59/74/2 60/76/2 58/72/2
f 59/74/3 63/79/3 64/80/3 60/76/3
f 63/79/4 61/77/4 62/78/4 64/80/4
f 61/77/5 57/70/5 58/73/5 62/78/5
f 59/75/1 57/71/1 61/77/1 63/79/1
f 66/82/4 68/84/4 67/83/4 65/81/4
f 70/86/2 69/85/2 71/87/2 72/88/2
f 68/84/1 66/82/1 70/86/1 72/88/1
f 74/90/4 76/92/4 75/91/4 73/89/4
f 78/94/2 77/93/2 79/95/2 80/96/2
f 76/92/1 74/90/1 78/94/1 80/96/1
f 73/89/6 75/91/6 79/95/6 77/93/6
f 86/102/4 88/104/4 87/103/4 85/101/4
f 48/56/5 4/4/5 3/3/5 47/55/5
