# Blender 3.4.1
# www.blender.org
mtllib Sink.mtl
o Sink
v 0.412548 0.878906 0.240118
v 0.412548 0.878906 -0.337590
v 0.453576 0.878906 0.240118
v 0.453578 0.878906 -0.391360
v 0.453576 0.053530 -0.391360
v 0.453576 0.053530 0.240118
v 0.412548 0.053530 -0.337590
v 0.412548 0.053530 0.240118
v 0.396979 -0.000000 -0.336648
v 0.396979 -0.000000 -0.383237
v 0.396979 0.053530 -0.336648
v 0.396979 0.053530 -0.383237
v 0.396979 0.053530 0.184337
v 0.396979 0.053530 0.230925
v 0.453576 0.085507 -0.391360
v 0.412548 0.085507 0.240118
v 0.453576 0.085507 0.240118
v 0.412548 0.085507 -0.337590
v 0.396979 -0.000000 0.184337
v 0.396979 -0.000000 0.230925
v 0.432097 0.949037 -0.391360
v 0.447000 0.942547 -0.391360
v 0.453577 0.926878 -0.391360
v 0.453576 0.878906 0.242711
v 0.434088 0.878906 0.262319
v 0.447868 0.878906 0.256576
v 0.412212 0.949037 0.240159
v 0.432097 0.949037 0.220099
v 0.426273 0.949037 0.234284
v 0.434021 0.926878 0.262319
v 0.453576 0.926878 0.242639
v 0.447849 0.926878 0.256555
v 0.446999 0.942547 0.235955
v 0.427267 0.942547 0.255828
v 0.441220 0.942547 0.250008
v 0.445313 0.000000 0.184337
v 0.445313 0.000000 0.230925
v 0.445313 0.053530 0.230925
v 0.445313 0.053530 0.184337
v 0.445313 0.000000 -0.383237
v 0.445313 0.000000 -0.336648
v 0.445313 0.053530 -0.336648
v 0.445313 0.053530 -0.383237
v 0.397762 0.878906 0.217625
v 0.397762 0.878906 -0.319799
v 0.285055 0.857436 -0.246566
v 0.271627 0.830929 -0.235587
v 0.285055 0.857436 0.095365
v 0.271627 0.830929 0.084386
v 0.285055 0.944262 -0.246566
v 0.289867 0.949037 -0.251304
v 0.285055 0.944262 0.095365
v 0.289865 0.949037 0.100140
v 0.239210 0.819950 -0.209080
v 0.239210 0.819950 0.057880
v 0.009625 0.819950 -0.109381
v 0.034196 0.819950 -0.084118
v 0.059665 0.819950 -0.120553
v 0.024513 0.819950 -0.100634
v 0.034196 0.819950 -0.067083
v 0.009625 0.819950 -0.041820
v 0.059665 0.819950 -0.030648
v 0.024513 0.819950 -0.050567
v 0.034196 0.797192 -0.084118
v 0.009625 0.797192 -0.109381
v 0.024513 0.797192 -0.100634
v 0.009625 0.797192 -0.041820
v 0.034196 0.797192 -0.067083
v 0.024513 0.797192 -0.050567
v 0.348196 0.787682 0.116551
v 0.348196 0.787682 -0.218725
v 0.373394 0.807014 0.169105
v 0.381978 0.824089 0.185481
v 0.373394 0.807014 -0.271279
v 0.381978 0.824089 -0.287655
v -0.412548 0.878906 0.240118
v -0.412548 0.878906 -0.337590
v -0.453576 0.878906 0.240118
v -0.453578 0.878906 -0.391360
v -0.453576 0.053530 -0.391360
v -0.453576 0.053530 0.240118
v -0.412548 0.053530 -0.337590
v -0.412548 0.053530 0.240118
v -0.396979 -0.000000 -0.336648
v -0.396979 -0.000000 -0.383237
v -0.396979 0.053530 -0.336648
v -0.396979 0.053530 -0.383237
v -0.396979 0.053530 0.184337
v -0.396979 0.053530 0.230925
v 0.000000 0.878906 -0.391360
v 0.000000 0.053530 -0.391360
v 0.000000 0.053530 -0.337590
v -0.453576 0.085507 -0.391360
v -0.412548 0.085507 0.240118
v -0.453576 0.085507 0.240118
v -0.412548 0.085507 -0.337590
v 0.000000 0.085507 -0.391360
v 0.000000 0.085507 -0.337590
v 0.000000 0.085507 0.240118
v 0.000000 0.053530 0.240118
v -0.396979 -0.000000 0.184337
v -0.396979 -0.000000 0.230925
v 0.000000 0.878906 -0.319799
v -0.432097 0.949037 -0.391360
v 0.000000 0.878906 0.262319
v 0.000000 0.878906 -0.391360
v -0.447000 0.942547 -0.391360
v -0.453577 0.926878 -0.391360
v -0.453576 0.878906 0.242711
v -0.434088 0.878906 0.262319
v -0.447868 0.878906 0.256576
v -0.412212 0.949037 0.240159
v -0.432097 0.949037 0.220099
v -0.426273 0.949037 0.234284
v -0.434021 0.926878 0.262319
v -0.453576 0.926878 0.242639
v -0.447849 0.926878 0.256555
v -0.446999 0.942547 0.235955
v -0.427267 0.942547 0.255828
v -0.441220 0.942547 0.250008
v -0.445313 0.000000 0.184337
v -0.445313 0.000000 0.230925
v -0.445313 0.053530 0.230925
v -0.445313 0.053530 0.184337
v -0.445313 0.000000 -0.383237
v -0.445313 0.000000 -0.336648
v -0.445313 0.053530 -0.336648
v -0.445313 0.053530 -0.383237
v 0.000000 0.878906 0.217625
v -0.397762 0.878906 0.217625
v -0.397762 0.878906 -0.319799
v -0.285055 0.857436 -0.246566
v -0.271627 0.830929 -0.235587
v -0.285055 0.857436 0.095365
v -0.271627 0.830929 0.084386
v -0.285055 0.944262 -0.246566
v -0.289867 0.949037 -0.251304
v -0.285055 0.944262 0.095365
v -0.289865 0.949037 0.100140
v -0.239210 0.819950 -0.209080
v -0.239210 0.819950 0.057880
v -0.009625 0.819950 -0.109381
v -0.034196 0.819950 -0.084118
v -0.059665 0.819950 -0.120553
v -0.024513 0.819950 -0.100634
v -0.034196 0.819950 -0.067083
v -0.009625 0.819950 -0.041820
v -0.059665 0.819950 -0.030648
v -0.024513 0.819950 -0.050567
v -0.034196 0.797192 -0.084118
v -0.009625 0.797192 -0.109381
v -0.024513 0.797192 -0.100634
v -0.009625 0.797192 -0.041820
v -0.034196 0.797192 -0.067083
v -0.024513 0.797192 -0.050567
v -0.348196 0.787682 0.116551
v -0.348196 0.787682 -0.218725
v -0.373394 0.807014 0.169105
v -0.381978 0.824089 0.185481
v -0.373394 0.807014 -0.271279
v -0.381978 0.824089 -0.287655
vn -0.0000 -0.0000 1.0000
vn -1.0000 -0.0000 -0.0000
vn -0.0000 -0.0000 -1.0000
vn 1.0000 -0.0000 -0.0000
vn -0.0000 -1.0000 -0.0000
vn 0.7319 -0.6658 0.1449
vn 0.6667 -0.3333 -0.6667
vn 0.7319 0.1474 -0.6653
vn 0.9527 0.2259 0.2035
vn -0.0000 1.0000 -0.0000
vn 0.6804 0.7223 0.1239
vn 0.5515 0.5442 -0.6322
vn 0.1525 0.7321 -0.6640
vn 0.2070 0.9781 0.0224
vn 0.1237 0.7234 0.6793
vn -0.1237 0.7234 0.6793
vn -0.2061 0.2246 0.9524
vn 0.2061 0.2246 0.9524
vn 0.0233 0.9798 0.1986
vn -0.0233 0.9798 0.1986
vn -0.1466 -0.6654 0.7320
vn -0.0000 -0.7072 0.7071
vn 0.1466 -0.6654 0.7320
vn 0.4709 0.7466 0.4699
vn 0.6863 0.2501 0.6829
vn 0.1289 0.9837 0.1256
vn 0.5503 -0.6300 0.5479
vn -0.4654 0.7345 0.4940
vn 0.4654 0.7345 0.4940
vn 0.1186 0.9810 0.1534
vn -0.1186 0.9810 0.1534
vn -0.1098 0.9879 -0.1096
vn -0.1103 0.9878 0.1099
vn -0.6887 0.2550 -0.6787
vn 0.6887 0.2550 -0.6787
vn 0.5774 0.5754 -0.5792
vn -0.5774 0.5754 -0.5792
vn -0.5771 0.5742 0.5807
vn -0.6887 0.2550 0.6787
vn 0.1098 0.9879 -0.1096
vn 0.6887 0.2550 0.6787
vn 0.1186 0.9810 -0.1534
vn 0.4654 0.7345 -0.4940
vn -0.4654 0.7345 -0.4940
vn -0.1186 0.9810 -0.1534
vn -0.1989 0.6525 -0.7312
vn 0.1989 0.6525 -0.7312
vn 0.1671 0.7712 -0.6142
vn -0.1671 0.7712 -0.6142
vn 0.1103 0.9878 0.1099
vn 0.5771 0.5742 0.5807
vn -0.1525 0.7321 -0.6640
vn -0.6145 0.7711 -0.1668
vn -0.6145 0.7711 0.1668
vn -0.7312 0.6526 0.1985
vn -0.7312 0.6526 -0.1985
vn 0.1671 0.7712 0.6142
vn 0.1989 0.6525 0.7312
vn -0.1989 0.6525 0.7312
vn -0.1671 0.7712 0.6142
vn -0.5348 0.6546 0.5343
vn -0.4527 0.7685 0.4523
vn -0.4527 0.7685 -0.4523
vn -0.5348 0.6546 -0.5343
vn -0.2742 -0.9542 0.1193
vn -0.2742 -0.9542 -0.1193
vn 0.2742 -0.9542 -0.1193
vn 0.2742 -0.9542 0.1193
vn 0.4865 -0.7933 -0.3660
vn 0.4865 -0.7933 0.3660
vn -0.0000 -0.5058 0.8626
vn 0.9610 -0.2767 -0.0000
vn -0.4865 -0.7933 0.3660
vn -0.6034 -0.5936 0.5325
vn 0.6034 -0.5936 0.5325
vn -0.4865 -0.7933 -0.3660
vn -0.6034 -0.5936 -0.5325
vn 0.6034 -0.5936 -0.5325
vn -0.0000 -0.5058 -0.8626
vn -0.7319 -0.6658 0.1449
vn -0.9527 0.2259 0.2035
vn -0.7319 0.1474 -0.6653
vn -0.6667 -0.3333 -0.6667
vn -0.6804 0.7223 0.1239
vn -0.2070 0.9781 0.0224
vn -0.5515 0.5442 -0.6322
vn -0.6863 0.2501 0.6829
vn -0.4709 0.7466 0.4699
vn -0.1289 0.9837 0.1256
vn -0.5503 -0.6300 0.5479
vn 0.6145 0.7711 -0.1668
vn 0.7312 0.6526 -0.1985
vn 0.7312 0.6526 0.1985
vn 0.6145 0.7711 0.1668
vn 0.4527 0.7685 0.4523
vn 0.5348 0.6546 0.5343
vn 0.5348 0.6546 -0.5343
vn 0.4527 0.7685 -0.4523
vn -0.9610 -0.2767 -0.0000
vt 0.048934 0.867682
vt 0.048934 0.850928
vt 0.048934 0.868389
vt 0.048934 0.850221
vt 0.117695 0.867398
vt 0.066434 0.852721
vt 0.048934 0.850221
vt 0.066434 0.870889
vt 0.048934 0.868389
vt 0.066434 0.853428
vt 0.048934 0.867682
vt 0.066434 0.870182
vt 0.176965 0.866803
vt 0.176965 0.866803
vt 0.176965 0.866803
vt 0.176965 0.866803
vt 0.176965 0.866803
vt 0.176965 0.866803
vt 0.048934 0.850221
vt 0.048934 0.867682
vt 0.048934 0.868389
vt 0.048934 0.850928
vt 0.176965 0.866803
vt 0.176965 0.866803
vt 0.117695 0.867398
vt 0.117695 0.867398
vt 0.117695 0.867398
vt 0.117695 0.868084
vt 0.117695 0.867959
vt 0.117695 0.868089
vt 0.117695 0.867924
vt 0.117695 0.868060
vt 0.117695 0.868063
vt 0.117695 0.867959
vt 0.117695 0.868084
vt 0.117695 0.868105
vt 0.117695 0.868081
vt 0.117695 0.867953
vt 0.117695 0.868099
vt 0.176965 0.866803
vt 0.176965 0.866803
vt 0.176965 0.866803
vt 0.176965 0.866803
vt 0.176965 0.866803
vt 0.176965 0.866803
vt 0.176965 0.866803
vt 0.176965 0.866803
vt 0.117695 0.867541
vt 0.117695 0.867019
vt 0.117695 0.865830
vt 0.117695 0.865790
vt 0.117695 0.866499
vt 0.117695 0.866444
vt 0.117695 0.865830
vt 0.117695 0.865881
vt 0.117695 0.866499
vt 0.117695 0.866552
vt 0.117695 0.865565
vt 0.117695 0.866113
vt 0.117695 0.863914
vt 0.208840 0.880841
vt 0.117695 0.864895
vt 0.208840 0.881900
vt 0.117695 0.864970
vt 0.117695 0.864608
vt 0.208840 0.881822
vt 0.117695 0.865026
vt 0.208840 0.881953
vt 0.117695 0.864158
vt 0.117695 0.865104
vt 0.208840 0.881086
vt 0.117695 0.865217
vt 0.117695 0.865081
vt 0.208840 0.882031
vt 0.114869 0.970761
vt 0.208840 0.881900
vt 0.114869 0.969702
vt 0.208840 0.880841
vt 0.114869 0.970595
vt 0.208840 0.881734
vt 0.114869 0.969946
vt 0.208840 0.881086
vt 0.114869 0.970814
vt 0.208840 0.881953
vt 0.114869 0.970791
vt 0.208840 0.881930
vt 0.117695 0.867153
vt 0.117695 0.867153
vt 0.117695 0.867460
vt 0.117695 0.867541
vt 0.117695 0.867047
vt 0.117695 0.867019
vt 0.048934 0.867682
vt 0.048934 0.850928
vt 0.048934 0.868389
vt 0.048934 0.850221
vt 0.117695 0.867398
vt 0.066434 0.852721
vt 0.048934 0.850221
vt 0.066434 0.870889
vt 0.048934 0.868389
vt 0.066434 0.853428
vt 0.048934 0.867682
vt 0.066434 0.870182
vt 0.176965 0.866803
vt 0.176965 0.866803
vt 0.176965 0.866803
vt 0.176965 0.866803
vt 0.176965 0.866803
vt 0.176965 0.866803
vt 0.048934 0.845679
vt 0.066434 0.848179
vt 0.048934 0.845679
vt 0.066434 0.849679
vt 0.048934 0.850928
vt 0.066434 0.853428
vt 0.048934 0.850221
vt 0.048934 0.867682
vt 0.048934 0.868389
vt 0.048934 0.850928
vt 0.048934 0.845679
vt 0.048934 0.850928
vt 0.048934 0.847179
vt 0.048934 0.867682
vt 0.048934 0.867682
vt 0.066434 0.870182
vt 0.176965 0.866803
vt 0.176965 0.866803
vt 0.117695 0.863197
vt 0.117695 0.867398
vt 0.117695 0.864357
vt 0.117695 0.862856
vt 0.117695 0.867398
vt 0.117695 0.867398
vt 0.117695 0.868084
vt 0.117695 0.867959
vt 0.117695 0.868089
vt 0.117695 0.867924
vt 0.117695 0.868060
vt 0.117695 0.868063
vt 0.117695 0.867959
vt 0.117695 0.868084
vt 0.117695 0.868105
vt 0.117695 0.868081
vt 0.117695 0.867953
vt 0.117695 0.868099
vt 0.176965 0.866803
vt 0.176965 0.866803
vt 0.176965 0.866803
vt 0.176965 0.866803
vt 0.176965 0.866803
vt 0.176965 0.866803
vt 0.176965 0.866803
vt 0.176965 0.866803
vt 0.117695 0.864254
vt 0.117695 0.867541
vt 0.117695 0.867019
vt 0.117695 0.865830
vt 0.117695 0.865790
vt 0.117695 0.866499
vt 0.117695 0.866444
vt 0.117695 0.865830
vt 0.117695 0.865881
vt 0.117695 0.866499
vt 0.117695 0.866552
vt 0.117695 0.865565
vt 0.117695 0.866113
vt 0.117695 0.863914
vt 0.208840 0.880841
vt 0.117695 0.864895
vt 0.208840 0.881900
vt 0.117695 0.864970
vt 0.117695 0.864608
vt 0.208840 0.881822
vt 0.117695 0.865026
vt 0.208840 0.881953
vt 0.117695 0.864158
vt 0.117695 0.865104
vt 0.208840 0.881086
vt 0.117695 0.865217
vt 0.117695 0.865081
vt 0.208840 0.882031
vt 0.114869 0.970761
vt 0.208840 0.881900
vt 0.114869 0.969702
vt 0.208840 0.880841
vt 0.114869 0.970595
vt 0.208840 0.881734
vt 0.114869 0.969946
vt 0.208840 0.881086
vt 0.114869 0.970814
vt 0.208840 0.881953
vt 0.114869 0.970791
vt 0.208840 0.881930
vt 0.117695 0.867153
vt 0.117695 0.867153
vt 0.117695 0.867460
vt 0.117695 0.867541
vt 0.117695 0.867047
vt 0.117695 0.867019
s 0
usemtl Palette
f 16/20/1 17/21/1 3/3/1 1/1/1
f 18/22/2 16/20/2 1/1/2 2/2/2
f 79/97/3 108/134/3 107/133/3 104/130/3 21/25/3 22/26/3 23/27/3 4/5/3 106/132/3
f 17/21/4 15/19/4 4/4/4 3/3/4
f 92/114/5 91/112/5 5/6/5 7/10/5
f 7/10/5 5/6/5 6/8/5 8/12/5
f 38/42/1 14/18/1 20/24/1 37/41/1
s 1
f 24/28/6 4/5/7 23/27/8 31/35/9
s 0
f 14/18/2 13/17/2 19/23/2 20/24/2
f 15/19/3 97/121/3 90/111/3 4/4/3
f 5/7/3 91/113/3 97/121/3 15/19/3
f 6/9/4 5/7/4 15/19/4 17/21/4
f 8/11/1 6/9/1 17/21/1 16/20/1
f 16/20/10 18/22/10 98/122/10 99/124/10
f 8/11/1 16/20/1 99/124/1 100/125/1
f 7/10/5 8/12/5 100/126/5 92/116/5
f 36/40/3 19/23/3 13/17/3 39/43/3
s 1
f 33/37/11 22/26/12 21/25/13 28/32/14
f 34/38/15 119/145/16 115/141/17 30/34/18
f 27/31/19 112/138/20 119/145/16 34/38/15
f 31/35/9 23/27/8 22/26/12 33/37/11
s 0
f 54/58/10 140/166/10 144/172/10 142/168/10 56/60/10 58/64/10
f 106/132/5 4/5/5 24/28/5 26/30/5 25/29/5 105/131/5 129/155/5 44/48/5 45/49/5 103/129/5
s 1
f 110/136/21 105/131/22 25/29/23 30/34/18 115/141/17
f 31/35/9 33/37/11 35/39/24 32/36/25
f 32/36/25 35/39/24 34/38/15 30/34/18
f 33/37/11 28/32/14 29/33/26 35/39/24
f 35/39/24 29/33/26 27/31/19 34/38/15
f 24/28/6 31/35/9 32/36/25 26/30/27
f 26/30/27 32/36/25 30/34/18 25/29/23
f 47/51/28 133/159/29 140/166/30 54/58/31
s 0
f 38/42/4 37/41/4 36/40/4 39/43/4
f 37/41/5 20/24/5 19/23/5 36/40/5
f 42/46/1 11/15/1 9/13/1 41/45/1
f 11/15/2 12/16/2 10/14/2 9/13/2
f 40/44/3 10/14/3 12/16/3 43/47/3
f 42/46/4 41/45/4 40/44/4 43/47/4
f 41/45/5 9/13/5 10/14/5 40/44/5
s 1
f 53/57/32 29/33/26 28/32/14 21/25/13 51/55/33
f 53/57/32 27/31/19 29/33/26
f 48/52/34 134/160/35 138/164/36 52/56/37
f 52/56/37 50/54/38 46/50/39 48/52/34
f 53/57/32 139/165/40 112/138/20 27/31/19
f 46/50/39 132/158/41 133/159/29 47/51/28
f 141/167/42 135/161/43 49/53/44 55/59/45
f 54/58/31 55/59/45 49/53/44 47/51/28
f 47/51/28 49/53/44 48/52/34 46/50/39
f 135/161/43 134/160/35 48/52/34 49/53/44
f 67/82/46 153/190/47 147/179/48 61/71/49
f 51/55/33 137/163/50 136/162/51 50/54/38
f 138/164/36 139/165/40 53/57/32 52/56/37
f 50/54/38 52/56/37 53/57/32 51/55/33
f 137/163/50 51/55/33 21/25/13 104/130/52
f 136/162/51 132/158/41 46/50/39 50/54/38
f 60/68/53 57/63/54 64/76/55 68/84/56
s 0
f 148/180/10 141/167/10 55/59/10 62/72/10 61/69/10 147/177/10
s 1
f 142/169/57 151/186/58 65/78/59 56/61/60
s 0
f 65/77/10 151/185/10 152/187/10 150/183/10 154/191/10 155/193/10 153/189/10 67/81/10 69/85/10 68/83/10 64/75/10 66/79/10
f 58/64/10 57/62/10 60/67/10 62/72/10 55/59/10 54/58/10
f 56/60/10 59/65/10 58/64/10
f 59/65/10 57/62/10 58/64/10
f 60/67/10 63/73/10 62/72/10
f 63/73/10 61/70/10 62/72/10
s 1
f 56/61/60 65/78/59 66/80/61 59/66/62
f 59/66/62 66/80/61 64/76/55 57/63/54
f 67/82/46 61/71/49 63/74/63 69/86/64
f 69/86/64 63/74/63 60/68/53 68/84/56
f 156/195/65 157/196/66 71/88/67 70/87/68
f 70/87/68 71/88/67 74/91/69 72/89/70
s 0
f 130/156/71 159/198/71 73/90/71 44/48/71 129/155/71
f 45/49/72 44/48/72 73/90/72 75/92/72
s 1
f 72/89/70 158/197/73 156/195/65 70/87/68
f 159/198/74 158/197/73 72/89/70 73/90/75
f 74/91/69 160/199/76 161/200/77 75/92/78
f 75/92/78 73/90/75 72/89/70 74/91/69
f 157/196/66 160/199/76 74/91/69 71/88/67
s 0
f 75/92/79 161/200/79 131/157/79 103/129/79 45/49/79
f 94/118/1 76/93/1 78/95/1 95/119/1
f 96/120/4 77/94/4 76/93/4 94/118/4
f 95/119/2 78/95/2 79/96/2 93/117/2
f 92/114/5 82/102/5 80/98/5 91/112/5
f 82/102/5 83/104/5 81/100/5 80/98/5
f 123/149/1 122/148/1 102/128/1 89/110/1
s 1
f 109/135/80 116/142/81 108/134/82 79/97/83
s 0
f 89/110/4 102/128/4 101/127/4 88/109/4
f 93/117/3 79/96/3 90/111/3 97/121/3
f 80/99/3 93/117/3 97/121/3 91/113/3
f 81/101/2 95/119/2 93/117/2 80/99/2
f 92/115/4 98/122/4 99/124/4 100/125/4
f 83/103/1 94/118/1 95/119/1 81/101/1
f 94/118/10 99/124/10 98/122/10 96/120/10
f 83/103/1 100/125/1 99/124/1 94/118/1
f 82/102/5 92/116/5 100/126/5 83/104/5
f 121/147/3 124/150/3 88/109/3 101/127/3
s 1
f 118/144/84 113/139/85 104/130/52 107/133/86
f 116/142/81 118/144/84 107/133/86 108/134/82
s 0
f 106/132/5 103/129/5 131/157/5 130/156/5 129/155/5 105/131/5 110/136/5 111/137/5 109/135/5 79/97/5
s 1
f 116/142/81 117/143/87 120/146/88 118/144/84
f 117/143/87 115/141/17 119/145/16 120/146/88
f 118/144/84 120/146/88 114/140/89 113/139/85
f 120/146/88 119/145/16 112/138/20 114/140/89
f 109/135/80 111/137/90 117/143/87 116/142/81
f 111/137/90 110/136/21 115/141/17 117/143/87
s 0
f 123/149/2 124/150/2 121/147/2 122/148/2
f 122/148/5 121/147/5 101/127/5 102/128/5
f 127/153/1 126/152/1 84/105/1 86/107/1
f 86/107/4 84/105/4 85/106/4 87/108/4
f 125/151/3 128/154/3 87/108/3 85/106/3
f 127/153/2 128/154/2 125/151/2 126/152/2
f 126/152/5 125/151/5 85/106/5 84/105/5
s 1
f 139/165/40 137/163/50 104/130/52 113/139/85 114/140/89
f 139/165/40 114/140/89 112/138/20
f 138/164/36 134/160/35 132/158/41 136/162/51
f 140/166/30 133/159/29 135/161/43 141/167/42
f 133/159/29 132/158/41 134/160/35 135/161/43
f 136/162/51 137/163/50 139/165/40 138/164/36
f 146/176/91 154/192/92 150/184/93 143/171/94
s 0
f 144/172/10 140/166/10 141/167/10 148/180/10 146/175/10 143/170/10
f 142/168/10 144/172/10 145/173/10
f 145/173/10 144/172/10 143/170/10
f 146/175/10 148/180/10 149/181/10
f 149/181/10 148/180/10 147/178/10
s 1
f 142/169/57 145/174/95 152/188/96 151/186/58
f 145/174/95 143/171/94 150/184/93 152/188/96
f 153/190/47 155/194/97 149/182/98 147/179/48
f 155/194/97 154/192/92 146/176/91 149/182/98
f 156/195/65 158/197/73 160/199/76 157/196/66
s 0
f 131/157/99 161/200/99 159/198/99 130/156/99
s 1
f 161/200/77 160/199/76 158/197/73 159/198/74
s 0
f 2/2/1 77/94/1 96/120/1 98/123/1 18/22/1
