# Blender 3.4.1
# www.blender.org
mtllib Stray_3.mtl
o Stray_3
v -0.238228 0.025801 -0.133001
v 0.238228 0.025801 -0.133001
v 0.238228 0.025801 0.133001
v -0.238228 0.025801 0.133001
v 0.229853 0.000000 -0.122897
v -0.229853 0.000000 -0.122897
v 0.229853 0.000000 0.122897
v -0.229853 0.000000 0.122897
v 0.243951 0.025801 0.139362
v 0.243951 0.025801 -0.139362
v -0.243951 0.025801 -0.139362
v -0.243951 0.025801 0.139362
v 0.219841 0.008239 0.118163
v 0.219841 0.008239 -0.118163
v -0.219841 0.008239 -0.118163
v -0.219841 0.008239 0.118163
vn -0.0000 -0.5380 0.8430
vn 0.6907 0.7232 -0.0000
vn 0.8775 -0.4795 -0.0000
vn -0.0000 -1.0000 -0.0000
vn -0.0000 -0.5380 -0.8430
vn -0.8775 -0.4795 -0.0000
vn -0.0000 1.0000 -0.0000
vn -0.0000 0.6454 -0.7639
vn -0.6907 0.7232 -0.0000
vn -0.0000 0.6454 0.7639
vt 0.437858 0.813240
vt 0.485340 0.813240
vt 0.485340 0.768971
vt 0.437858 0.768971
vt 0.486599 0.816106
vt 0.436599 0.816106
vt 0.486599 0.766106
vt 0.436599 0.766106
vt 0.486599 0.766106
vt 0.486599 0.816106
vt 0.436599 0.816106
vt 0.436599 0.766106
vt 0.485340 0.768971
vt 0.485340 0.813240
vt 0.437858 0.813240
vt 0.437858 0.768971
s 0
usemtl Palette
f 8/8/1 7/7/1 9/9/1 12/12/1
f 1/1/2 4/4/2 16/16/2 15/15/2
f 7/7/3 5/5/3 10/10/3 9/9/3
f 8/8/4 6/6/4 5/5/4 7/7/4
f 5/5/5 6/6/5 11/11/5 10/10/5
f 6/6/6 8/8/6 12/12/6 11/11/6
f 2/2/7 3/3/7 9/9/7 10/10/7
f 4/4/7 1/1/7 11/11/7 12/12/7
f 3/3/7 4/4/7 12/12/7 9/9/7
f 1/1/7 2/2/7 10/10/7 11/11/7
f 16/16/7 13/13/7 14/14/7 15/15/7
f 4/4/8 3/3/8 13/13/8 16/16/8
f 3/3/9 2/2/9 14/14/9 13/13/9
f 2/2/10 1/1/10 15/15/10 14/14/10
