# Blender 3.4.1
# www.blender.org
mtllib Stray_2.mtl
o Stray_2
v -0.238228 0.037374 -0.091688
v 0.238228 0.037374 -0.091688
v 0.238228 0.037374 0.091688
v -0.238228 0.037374 0.091688
v 0.229853 0.000000 -0.086945
v -0.229853 0.000000 -0.086945
v 0.229853 0.000000 0.086945
v -0.229853 0.000000 0.086945
v 0.243951 0.037374 0.098593
v 0.243951 0.037374 -0.098593
v -0.243951 0.037374 -0.098593
v -0.243951 0.037374 0.098593
v 0.219841 0.008239 0.081459
v 0.219841 0.008239 -0.081459
v -0.219841 0.008239 -0.081459
v -0.219841 0.008239 0.081459
v 0.240934 0.029375 -0.059843
v 0.233180 0.029375 -0.059843
v -0.233180 0.029375 -0.059843
v -0.240933 0.029375 -0.059843
v 0.240934 0.029375 0.059843
v 0.233180 0.029375 0.059843
v -0.233180 0.029375 0.059843
v -0.240933 0.029375 0.059843
v 0.234604 0.012595 0.052773
v 0.222590 0.012595 0.052773
v -0.222590 0.012595 0.052773
v -0.234604 0.012595 0.052773
v 0.234604 0.012595 -0.052773
v 0.222590 0.012595 -0.052773
v -0.222590 0.012595 -0.052773
v -0.234604 0.012595 -0.052773
vn -0.0000 -0.2976 0.9547
vn 0.8457 0.5337 -0.0000
vn 0.9356 -0.3529 -0.0000
vn -0.0000 -1.0000 -0.0000
vn -0.0000 -0.2976 -0.9547
vn -0.9356 -0.3529 -0.0000
vn -0.0000 1.0000 -0.0000
vn -0.0000 0.3313 -0.9435
vn -0.8457 0.5337 -0.0000
vn -0.0000 0.3313 0.9435
vn -0.0000 0.3883 0.9215
vn -0.0000 0.3883 -0.9215
vt 0.348303 0.901593
vt 0.395785 0.901594
vt 0.395785 0.857324
vt 0.348303 0.857324
vt 0.397044 0.904459
vt 0.347044 0.904459
vt 0.397044 0.854459
vt 0.347044 0.854459
vt 0.397044 0.854459
vt 0.397044 0.904459
vt 0.347044 0.904459
vt 0.347044 0.854459
vt 0.395785 0.857324
vt 0.395785 0.901594
vt 0.348303 0.901593
vt 0.348303 0.857324
vt 0.397044 0.895037
vt 0.397044 0.904459
vt 0.395785 0.894377
vt 0.397044 0.904459
vt 0.348303 0.894377
vt 0.397044 0.904459
vt 0.347044 0.895037
vt 0.397044 0.904459
vt 0.397044 0.863881
vt 0.397044 0.854459
vt 0.395785 0.864541
vt 0.397044 0.854459
vt 0.348303 0.864541
vt 0.397044 0.854459
vt 0.347044 0.863881
vt 0.397044 0.854459
vt 0.397044 0.864883
vt 0.397044 0.854459
vt 0.395785 0.865347
vt 0.397044 0.854459
vt 0.397044 0.854459
vt 0.348303 0.865347
vt 0.347044 0.864883
vt 0.397044 0.854459
vt 0.397044 0.894035
vt 0.397044 0.904459
vt 0.395785 0.893570
vt 0.397044 0.904459
vt 0.397044 0.904459
vt 0.348303 0.893570
vt 0.347044 0.894035
vt 0.397044 0.904459
s 0
usemtl Palette
f 8/8/1 7/7/1 9/9/1 12/12/1
f 1/1/2 4/4/2 16/16/2 23/29/2 19/21/2 15/15/2
f 7/7/3 5/5/3 10/10/3 17/17/3 29/41/3 25/33/3 21/25/3 9/9/3
f 8/8/4 6/6/4 5/5/4 7/7/4
f 5/5/5 6/6/5 11/11/5 10/10/5
f 6/6/6 8/8/6 12/12/6 24/31/6 28/39/6 32/47/6 20/23/6 11/11/6
f 2/2/7 3/3/7 9/9/7 10/10/7
f 4/4/7 1/1/7 11/11/7 12/12/7
f 3/3/7 4/4/7 12/12/7 9/9/7
f 1/1/7 2/2/7 10/10/7 11/11/7
f 16/16/7 13/13/7 14/14/7 15/15/7
f 4/4/8 3/3/8 13/13/8 16/16/8
f 3/3/9 2/2/9 14/14/9 18/19/9 22/27/9 13/13/9
f 2/2/10 1/1/10 15/15/10 14/14/10
f 29/42/11 17/18/11 18/20/11 30/44/11
f 31/45/11 19/22/11 20/24/11 32/48/11
f 13/13/9 22/27/9 26/35/9 30/43/9 18/19/9 14/14/9
f 21/26/12 25/34/12 26/36/12 22/28/12
f 23/30/12 27/37/12 28/40/12 24/32/12
f 11/11/6 20/23/6 24/31/6 12/12/6
f 25/34/7 29/42/7 30/44/7 26/36/7
f 27/37/7 31/45/7 32/48/7 28/40/7
f 15/15/2 19/21/2 31/46/2 27/38/2 23/29/2 16/16/2
f 9/9/3 21/25/3 17/17/3 10/10/3
f 17/18/4 21/26/4 22/28/4 18/20/4
f 19/22/4 23/30/4 24/32/4 20/24/4
