# Blender 3.4.1
# www.blender.org
mtllib Table__Curved_.mtl
o Table_(Curved)
v 0.649662 0.506755 -0.298138
v 0.778058 0.378359 -0.298138
v 0.698797 0.496981 -0.298138
v 0.740452 0.469149 -0.298138
v 0.768285 0.427494 -0.298138
v 0.778058 0.160538 -0.298138
v 0.649662 0.032142 -0.298138
v 0.768285 0.111403 -0.298138
v 0.740452 0.069748 -0.298138
v 0.698797 0.041916 -0.298138
v 0.778058 0.378359 0.298138
v 0.649662 0.506755 0.298138
v 0.768285 0.427494 0.298138
v 0.740452 0.469149 0.298138
v 0.698797 0.496981 0.298138
v 0.649662 0.032142 0.298138
v 0.778058 0.160538 0.298138
v 0.698797 0.041916 0.298138
v 0.740452 0.069748 0.298138
v 0.768285 0.111403 0.298138
v 0.644739 0.456755 -0.298138
v 0.728058 0.373435 -0.298138
v 0.679288 0.449882 -0.298138
v 0.704404 0.433101 -0.298138
v 0.721186 0.407985 -0.298138
v 0.728058 0.165462 -0.298138
v 0.644739 0.082142 -0.298138
v 0.721186 0.130912 -0.298138
v 0.704404 0.105796 -0.298138
v 0.679288 0.089015 -0.298138
v 0.728058 0.373435 0.298138
v 0.644739 0.456755 0.298138
v 0.721186 0.407985 0.298138
v 0.704404 0.433101 0.298138
v 0.679288 0.449882 0.298138
v 0.644739 0.082142 0.298138
v 0.728058 0.165462 0.298138
v 0.679288 0.089015 0.298138
v 0.704404 0.105796 0.298138
v 0.721186 0.130912 0.298138
v 0.594282 -0.000000 0.163181
v 0.594282 0.041782 0.163181
v 0.619282 -0.000000 0.169880
v 0.619282 0.041782 0.169880
v 0.637584 -0.000000 0.188181
v 0.637584 0.041782 0.188181
v 0.644282 -0.000000 0.213181
v 0.644282 0.041782 0.213181
v 0.637584 -0.000000 0.238182
v 0.637584 0.041782 0.238182
v 0.619282 -0.000000 0.256483
v 0.619282 0.041782 0.256483
v 0.594282 -0.000000 0.263182
v 0.594282 0.041782 0.263182
v 0.569282 -0.000000 0.256483
v 0.569282 0.041782 0.256483
v 0.550981 -0.000000 0.238181
v 0.550981 0.041782 0.238181
v 0.544282 -0.000000 0.213181
v 0.544282 0.041782 0.213181
v 0.550981 -0.000000 0.188182
v 0.550981 0.041782 0.188182
v 0.569282 -0.000000 0.169880
v 0.569282 0.041782 0.169880
v 0.594282 -0.000000 -0.269224
v 0.594282 0.041782 -0.269224
v 0.619282 -0.000000 -0.262526
v 0.619282 0.041782 -0.262526
v 0.637584 -0.000000 -0.244224
v 0.637584 0.041782 -0.244224
v 0.644282 -0.000000 -0.219224
v 0.644282 0.041782 -0.219224
v 0.637584 -0.000000 -0.194224
v 0.637584 0.041782 -0.194224
v 0.619282 -0.000000 -0.175923
v 0.619282 0.041782 -0.175923
v 0.594282 -0.000000 -0.169224
v 0.594282 0.041782 -0.169224
v 0.569282 -0.000000 -0.175923
v 0.569282 0.041782 -0.175923
v 0.550981 -0.000000 -0.194224
v 0.550981 0.041782 -0.194224
v 0.544282 -0.000000 -0.219224
v 0.544282 0.041782 -0.219224
v 0.550981 -0.000000 -0.244224
v 0.550981 0.041782 -0.244224
v 0.569282 -0.000000 -0.262526
v 0.569282 0.041782 -0.262526
v 0.000000 0.506755 -0.298138
v 0.000000 0.032142 -0.298138
v 0.000000 0.032142 0.298138
v 0.000000 0.506755 0.298138
v -0.649662 0.506755 -0.298138
v -0.778058 0.378359 -0.298138
v -0.698797 0.496981 -0.298138
v -0.740452 0.469149 -0.298138
v -0.768285 0.427494 -0.298138
v -0.778058 0.160538 -0.298138
v -0.649662 0.032142 -0.298138
v -0.768285 0.111403 -0.298138
v -0.740452 0.069748 -0.298138
v -0.698797 0.041916 -0.298138
v -0.778058 0.378359 0.298138
v -0.649662 0.506755 0.298138
v -0.768285 0.427494 0.298138
v -0.740452 0.469149 0.298138
v -0.698797 0.496981 0.298138
v -0.649662 0.032142 0.298138
v -0.778058 0.160538 0.298138
v -0.698797 0.041916 0.298138
v -0.740452 0.069748 0.298138
v -0.768285 0.111403 0.298138
v 0.000000 0.456755 -0.298138
v 0.000000 0.082142 -0.298138
v 0.000000 0.082142 0.298138
v 0.000000 0.456755 0.298138
v -0.644739 0.456755 -0.298138
v -0.728058 0.373435 -0.298138
v -0.679288 0.449882 -0.298138
v -0.704404 0.433101 -0.298138
v -0.721186 0.407985 -0.298138
v -0.728058 0.165462 -0.298138
v -0.644739 0.082142 -0.298138
v -0.721186 0.130912 -0.298138
v -0.704404 0.105796 -0.298138
v -0.679288 0.089015 -0.298138
v -0.728058 0.373435 0.298138
v -0.644739 0.456755 0.298138
v -0.721186 0.407985 0.298138
v -0.704404 0.433101 0.298138
v -0.679288 0.449882 0.298138
v -0.644739 0.082142 0.298138
v -0.728058 0.165462 0.298138
v -0.679288 0.089015 0.298138
v -0.704404 0.105796 0.298138
v -0.721186 0.130912 0.298138
v -0.594282 -0.000000 0.163181
v -0.594282 0.041782 0.163181
v -0.619282 -0.000000 0.169880
v -0.619282 0.041782 0.169880
v -0.637584 -0.000000 0.188181
v -0.637584 0.041782 0.188181
v -0.644282 -0.000000 0.213181
v -0.644282 0.041782 0.213181
v -0.637584 -0.000000 0.238182
v -0.637584 0.041782 0.238182
v -0.619282 -0.000000 0.256483
v -0.619282 0.041782 0.256483
v -0.594282 -0.000000 0.263182
v -0.594282 0.041782 0.263182
v -0.569282 -0.000000 0.256483
v -0.569282 0.041782 0.256483
v -0.550981 -0.000000 0.238181
v -0.550981 0.041782 0.238181
v -0.544282 -0.000000 0.213181
v -0.544282 0.041782 0.213181
v -0.550981 -0.000000 0.188182
v -0.550981 0.041782 0.188182
v -0.569282 -0.000000 0.169880
v -0.569282 0.041782 0.169880
v -0.594282 -0.000000 -0.269224
v -0.594282 0.041782 -0.269224
v -0.619282 -0.000000 -0.262526
v -0.619282 0.041782 -0.262526
v -0.637584 -0.000000 -0.244224
v -0.637584 0.041782 -0.244224
v -0.644282 -0.000000 -0.219224
v -0.644282 0.041782 -0.219224
v -0.637584 -0.000000 -0.194224
v -0.637584 0.041782 -0.194224
v -0.619282 -0.000000 -0.175923
v -0.619282 0.041782 -0.175923
v -0.594282 -0.000000 -0.169224
v -0.594282 0.041782 -0.169224
v -0.569282 -0.000000 -0.175923
v -0.569282 0.041782 -0.175923
v -0.550981 -0.000000 -0.194224
v -0.550981 0.041782 -0.194224
v -0.544282 -0.000000 -0.219224
v -0.544282 0.041782 -0.219224
v -0.550981 -0.000000 -0.244224
v -0.550981 0.041782 -0.244224
v -0.569282 -0.000000 -0.262526
v -0.569282 0.041782 -0.262526
vn 0.0980 0.9952 -0.0000
vn -0.0000 1.0000 -0.0000
vn -0.0000 -1.0000 -0.0000
vn 0.0980 -0.9952 -0.0000
vn 0.3827 0.9239 -0.0000
vn 0.7071 0.7071 -0.0000
vn 0.9239 0.3827 -0.0000
vn 0.9952 0.0980 -0.0000
vn 0.3827 -0.9239 -0.0000
vn 0.7071 -0.7071 -0.0000
vn 0.9239 -0.3827 -0.0000
vn 0.9952 -0.0980 -0.0000
vn -0.0980 -0.9952 -0.0000
vn -0.0980 0.9952 -0.0000
vn -0.3827 -0.9239 -0.0000
vn -0.7071 -0.7071 -0.0000
vn -0.9239 -0.3827 -0.0000
vn -0.9952 -0.0980 -0.0000
vn -0.3827 0.9239 -0.0000
vn -0.7071 0.7071 -0.0000
vn -0.9239 0.3827 -0.0000
vn -0.9952 0.0980 -0.0000
vn -0.0000 -0.0000 -1.0000
vn -0.0000 -0.0000 1.0000
vn 0.5000 -0.0000 -0.8660
vn 0.7071 -0.0000 -0.7071
vn 0.9659 -0.0000 -0.2588
vn 1.0000 -0.0000 -0.0000
vn 0.9659 -0.0000 0.2588
vn 0.7071 -0.0000 0.7071
vn 0.5000 -0.0000 0.8660
vn 0.2588 -0.0000 0.9659
vn -0.2588 -0.0000 0.9659
vn -0.5000 -0.0000 0.8660
vn -0.7071 -0.0000 0.7071
vn -0.9659 -0.0000 0.2588
vn -1.0000 -0.0000 -0.0000
vn -0.8660 -0.0000 -0.5000
vn -0.7071 -0.0000 -0.7071
vn -0.2588 -0.0000 -0.9659
vn -0.5000 -0.0000 -0.8660
vn -0.9659 -0.0000 -0.2588
vn 0.8660 -0.0000 -0.5000
vn 0.2588 -0.0000 -0.9659
vt 0.302627 0.790563
vt 0.297273 0.790563
vt 0.302149 0.790563
vt 0.301376 0.790563
vt 0.298843 0.790563
vt 0.290313 0.790563
vt 0.284959 0.790563
vt 0.288743 0.790563
vt 0.286210 0.790563
vt 0.285438 0.790563
vt 0.297273 0.805729
vt 0.302627 0.805729
vt 0.298843 0.805729
vt 0.301376 0.805729
vt 0.302149 0.805729
vt 0.284959 0.805729
vt 0.290313 0.805729
vt 0.285438 0.805729
vt 0.286210 0.805729
vt 0.288743 0.805729
vt 0.302627 0.790563
vt 0.297273 0.790563
vt 0.302149 0.790563
vt 0.301376 0.790563
vt 0.298843 0.790563
vt 0.290313 0.790563
vt 0.284959 0.790563
vt 0.288743 0.790563
vt 0.286210 0.790563
vt 0.285438 0.790563
vt 0.297273 0.805729
vt 0.302627 0.805729
vt 0.298843 0.805729
vt 0.301376 0.805729
vt 0.302149 0.805729
vt 0.284959 0.805729
vt 0.290313 0.805729
vt 0.285438 0.805729
vt 0.286210 0.805729
vt 0.288743 0.805729
vt 0.484201 0.792196
vt 0.434201 0.792196
vt 0.471701 0.791696
vt 0.484201 0.817196
vt 0.434201 0.817196
vt 0.480035 0.792196
vt 0.477701 0.790089
vt 0.480035 0.817196
vt 0.475868 0.792196
vt 0.482094 0.785696
vt 0.475868 0.817196
vt 0.471701 0.792196
vt 0.483701 0.779696
vt 0.471701 0.817196
vt 0.467535 0.792196
vt 0.482094 0.773696
vt 0.467535 0.817196
vt 0.463368 0.792196
vt 0.477701 0.769304
vt 0.463368 0.817196
vt 0.459201 0.792196
vt 0.471701 0.767696
vt 0.459201 0.817196
vt 0.455035 0.792196
vt 0.465701 0.769304
vt 0.455035 0.817196
vt 0.450868 0.792196
vt 0.461309 0.773696
vt 0.450868 0.817196
vt 0.446701 0.792196
vt 0.459701 0.779696
vt 0.446701 0.817196
vt 0.442535 0.792196
vt 0.461309 0.785696
vt 0.442535 0.817196
vt 0.438368 0.792196
vt 0.465701 0.790089
vt 0.438368 0.817196
vt 0.484201 0.792196
vt 0.434201 0.792196
vt 0.471701 0.791696
vt 0.484201 0.817196
vt 0.434201 0.817196
vt 0.480035 0.792196
vt 0.477701 0.790089
vt 0.480035 0.817196
vt 0.475868 0.792196
vt 0.482094 0.785696
vt 0.475868 0.817196
vt 0.471701 0.792196
vt 0.483701 0.779696
vt 0.471701 0.817196
vt 0.467535 0.792196
vt 0.482094 0.773696
vt 0.467535 0.817196
vt 0.463368 0.792196
vt 0.477701 0.769304
vt 0.463368 0.817196
vt 0.459201 0.792196
vt 0.471701 0.767696
vt 0.459201 0.817196
vt 0.455035 0.792196
vt 0.465701 0.769304
vt 0.455035 0.817196
vt 0.450868 0.792196
vt 0.461309 0.773696
vt 0.450868 0.817196
vt 0.446701 0.792196
vt 0.459701 0.779696
vt 0.446701 0.817196
vt 0.442535 0.792196
vt 0.461309 0.785696
vt 0.442535 0.817196
vt 0.438368 0.792196
vt 0.465701 0.790089
vt 0.438368 0.817196
vt 0.308959 0.790563
vt 0.278627 0.790563
vt 0.278627 0.805729
vt 0.308959 0.805729
vt 0.302627 0.790563
vt 0.297273 0.790563
vt 0.302149 0.790563
vt 0.301376 0.790563
vt 0.298843 0.790563
vt 0.290313 0.790563
vt 0.284959 0.790563
vt 0.288743 0.790563
vt 0.286210 0.790563
vt 0.285438 0.790563
vt 0.297273 0.805729
vt 0.302627 0.805729
vt 0.298843 0.805729
vt 0.301376 0.805729
vt 0.302149 0.805729
vt 0.284959 0.805729
vt 0.290313 0.805729
vt 0.285438 0.805729
vt 0.286210 0.805729
vt 0.288743 0.805729
vt 0.308959 0.790563
vt 0.278627 0.790563
vt 0.278627 0.805729
vt 0.308959 0.805729
vt 0.302627 0.790563
vt 0.297273 0.790563
vt 0.302149 0.790563
vt 0.301376 0.790563
vt 0.298843 0.790563
vt 0.290313 0.790563
vt 0.284959 0.790563
vt 0.288743 0.790563
vt 0.286210 0.790563
vt 0.285438 0.790563
vt 0.297273 0.805729
vt 0.302627 0.805729
vt 0.298843 0.805729
vt 0.301376 0.805729
vt 0.302149 0.805729
vt 0.284959 0.805729
vt 0.290313 0.805729
vt 0.285438 0.805729
vt 0.286210 0.805729
vt 0.288743 0.805729
vt 0.484201 0.792196
vt 0.434201 0.792196
vt 0.471701 0.791696
vt 0.484201 0.817196
vt 0.434201 0.817196
vt 0.480035 0.792196
vt 0.477701 0.790089
vt 0.480035 0.817196
vt 0.475868 0.792196
vt 0.482094 0.785696
vt 0.475868 0.817196
vt 0.471701 0.792196
vt 0.483701 0.779696
vt 0.471701 0.817196
vt 0.467535 0.792196
vt 0.482094 0.773696
vt 0.467535 0.817196
vt 0.463368 0.792196
vt 0.477701 0.769304
vt 0.463368 0.817196
vt 0.459201 0.792196
vt 0.471701 0.767696
vt 0.459201 0.817196
vt 0.455035 0.792196
vt 0.465701 0.769304
vt 0.455035 0.817196
vt 0.450868 0.792196
vt 0.461309 0.773696
vt 0.450868 0.817196
vt 0.446701 0.792196
vt 0.459701 0.779696
vt 0.446701 0.817196
vt 0.442535 0.792196
vt 0.461309 0.785696
vt 0.442535 0.817196
vt 0.438368 0.792196
vt 0.465701 0.790089
vt 0.438368 0.817196
vt 0.484201 0.792196
vt 0.434201 0.792196
vt 0.471701 0.791696
vt 0.484201 0.817196
vt 0.434201 0.817196
vt 0.480035 0.792196
vt 0.477701 0.790089
vt 0.480035 0.817196
vt 0.475868 0.792196
vt 0.482094 0.785696
vt 0.475868 0.817196
vt 0.471701 0.792196
vt 0.483701 0.779696
vt 0.471701 0.817196
vt 0.467535 0.792196
vt 0.482094 0.773696
vt 0.467535 0.817196
vt 0.463368 0.792196
vt 0.477701 0.769304
vt 0.463368 0.817196
vt 0.459201 0.792196
vt 0.471701 0.767696
vt 0.459201 0.817196
vt 0.455035 0.792196
vt 0.465701 0.769304
vt 0.455035 0.817196
vt 0.450868 0.792196
vt 0.461309 0.773696
vt 0.450868 0.817196
vt 0.446701 0.792196
vt 0.459701 0.779696
vt 0.446701 0.817196
vt 0.442535 0.792196
vt 0.461309 0.785696
vt 0.442535 0.817196
vt 0.438368 0.792196
vt 0.465701 0.790089
vt 0.438368 0.817196
s 1
usemtl Palette
f 1/1/1 89/117/2 92/120/2 12/12/1
f 90/118/3 7/7/4 16/16/4 91/119/3
f 1/1/1 12/12/1 15/15/5 3/3/5
f 3/3/5 15/15/5 14/14/6 4/4/6
f 4/4/6 14/14/6 13/13/7 5/5/7
f 5/5/7 13/13/7 11/11/8 2/2/8
f 16/16/4 7/7/4 10/10/9 18/18/9
f 18/18/9 10/10/9 9/9/10 19/19/10
f 19/19/10 9/9/10 8/8/11 20/20/11
f 20/20/11 8/8/11 6/6/12 17/17/12
f 6/6/12 2/2/8 11/11/8 17/17/12
f 21/21/13 32/32/13 116/144/3 113/141/3
f 114/142/2 115/143/2 36/36/14 27/27/14
f 21/21/13 23/23/15 35/35/15 32/32/13
f 23/23/15 24/24/16 34/34/16 35/35/15
f 24/24/16 25/25/17 33/33/17 34/34/16
f 25/25/17 22/22/18 31/31/18 33/33/17
f 36/36/14 38/38/19 30/30/19 27/27/14
f 38/38/19 39/39/20 29/29/20 30/30/19
f 39/39/20 40/40/21 28/28/21 29/29/20
f 40/40/21 37/37/22 26/26/22 28/28/21
f 26/26/22 37/37/22 31/31/18 22/22/18
f 1/1/23 3/3/23 23/23/23 21/21/23
f 15/15/24 12/12/24 32/32/24 35/35/24
f 3/3/23 4/4/23 24/24/23 23/23/23
f 14/14/24 15/15/24 35/35/24 34/34/24
f 4/4/23 5/5/23 25/25/23 24/24/23
f 13/13/24 14/14/24 34/34/24 33/33/24
f 5/5/23 2/2/23 22/22/23 25/25/23
f 11/11/24 13/13/24 33/33/24 31/31/24
f 16/16/24 18/18/24 38/38/24 36/36/24
f 10/10/23 7/7/23 27/27/23 30/30/23
f 18/18/24 19/19/24 39/39/24 38/38/24
f 9/9/23 10/10/23 30/30/23 29/29/23
f 19/19/24 20/20/24 40/40/24 39/39/24
f 8/8/23 9/9/23 29/29/23 28/28/23
f 20/20/24 17/17/24 37/37/24 40/40/24
f 6/6/23 8/8/23 28/28/23 26/26/23
f 2/2/23 6/6/23 26/26/23 22/22/23
f 17/17/24 11/11/24 31/31/24 37/37/24
f 89/117/23 1/1/23 21/21/23 113/141/23
f 12/12/24 92/120/24 116/144/24 32/32/24
f 7/7/23 90/118/23 114/142/23 27/27/23
f 91/119/24 16/16/24 36/36/24 115/143/24
f 41/41/23 42/44/23 44/48/25 43/46/25
f 43/46/25 44/48/25 46/51/26 45/49/26
f 45/49/27 46/51/27 48/54/28 47/52/28
f 47/52/28 48/54/28 50/57/29 49/55/29
f 49/55/30 50/57/30 52/60/31 51/58/31
f 51/58/31 52/60/31 54/63/32 53/61/32
f 53/61/33 54/63/33 56/66/34 55/64/34
f 55/64/34 56/66/34 58/69/35 57/67/35
f 57/67/36 58/69/36 60/72/37 59/70/37
f 59/70/37 60/72/37 62/75/38 61/73/38
f 61/73/38 62/75/38 64/78/39 63/76/39
f 63/76/40 64/78/40 42/45/23 41/42/23
s 0
f 41/43/3 43/47/3 45/50/3 47/53/3 49/56/3 51/59/3 53/62/3 55/65/3 57/68/3 59/71/3 61/74/3 63/77/3
s 1
f 65/79/23 66/82/23 68/86/25 67/84/25
f 67/84/25 68/86/25 70/89/26 69/87/26
f 69/87/27 70/89/27 72/92/28 71/90/28
f 71/90/28 72/92/28 74/95/29 73/93/29
f 73/93/30 74/95/30 76/98/31 75/96/31
f 75/96/31 76/98/31 78/101/32 77/99/32
f 77/99/33 78/101/33 80/104/34 79/102/34
f 79/102/34 80/104/34 82/107/35 81/105/35
f 81/105/36 82/107/36 84/110/37 83/108/37
f 83/108/37 84/110/37 86/113/38 85/111/38
f 85/111/38 86/113/38 88/116/39 87/114/39
f 87/114/40 88/116/40 66/83/23 65/80/23
s 0
f 65/81/3 67/85/3 69/88/3 71/91/3 73/94/3 75/97/3 77/100/3 79/103/3 81/106/3 83/109/3 85/112/3 87/115/3
s 1
f 93/121/14 104/132/14 92/120/2 89/117/2
f 90/118/3 91/119/3 108/136/13 99/127/13
f 93/121/14 95/123/19 107/135/19 104/132/14
f 95/123/19 96/124/20 106/134/20 107/135/19
f 96/124/20 97/125/21 105/133/21 106/134/20
f 97/125/21 94/122/22 103/131/22 105/133/21
f 108/136/13 110/138/15 102/130/15 99/127/13
f 110/138/15 111/139/16 101/129/16 102/130/15
f 111/139/16 112/140/17 100/128/17 101/129/16
f 112/140/17 109/137/18 98/126/18 100/128/17
f 98/126/18 109/137/18 103/131/22 94/122/22
f 117/145/4 113/141/3 116/144/3 128/156/4
f 114/142/2 123/151/1 132/160/1 115/143/2
f 117/145/4 128/156/4 131/159/9 119/147/9
f 119/147/9 131/159/9 130/158/10 120/148/10
f 120/148/10 130/158/10 129/157/11 121/149/11
f 121/149/11 129/157/11 127/155/12 118/146/12
f 132/160/1 123/151/1 126/154/5 134/162/5
f 134/162/5 126/154/5 125/153/6 135/163/6
f 135/163/6 125/153/6 124/152/7 136/164/7
f 136/164/7 124/152/7 122/150/8 133/161/8
f 122/150/8 118/146/12 127/155/12 133/161/8
f 92/120/28 116/144/28 113/141/28 89/117/28
f 90/118/28 114/142/28 115/143/28 91/119/28
f 93/121/23 117/145/23 119/147/23 95/123/23
f 107/135/24 131/159/24 128/156/24 104/132/24
f 95/123/23 119/147/23 120/148/23 96/124/23
f 106/134/24 130/158/24 131/159/24 107/135/24
f 96/124/23 120/148/23 121/149/23 97/125/23
f 105/133/24 129/157/24 130/158/24 106/134/24
f 97/125/23 121/149/23 118/146/23 94/122/23
f 103/131/24 127/155/24 129/157/24 105/133/24
f 108/136/24 132/160/24 134/162/24 110/138/24
f 102/130/23 126/154/23 123/151/23 99/127/23
f 110/138/24 134/162/24 135/163/24 111/139/24
f 101/129/23 125/153/23 126/154/23 102/130/23
f 111/139/24 135/163/24 136/164/24 112/140/24
f 100/128/23 124/152/23 125/153/23 101/129/23
f 112/140/24 136/164/24 133/161/24 109/137/24
f 98/126/23 122/150/23 124/152/23 100/128/23
f 94/122/23 118/146/23 122/150/23 98/126/23
f 109/137/24 133/161/24 127/155/24 103/131/24
f 89/117/23 113/141/23 117/145/23 93/121/23
f 104/132/24 128/156/24 116/144/24 92/120/24
f 99/127/23 123/151/23 114/142/23 90/118/23
f 91/119/24 115/143/24 132/160/24 108/136/24
f 137/165/23 139/170/41 140/172/41 138/168/23
f 139/170/41 141/173/39 142/175/39 140/172/41
f 141/173/42 143/176/37 144/178/37 142/175/42
f 143/176/37 145/179/36 146/181/36 144/178/37
f 145/179/35 147/182/34 148/184/34 146/181/35
f 147/182/34 149/185/33 150/187/33 148/184/34
f 149/185/32 151/188/31 152/190/31 150/187/32
f 151/188/31 153/191/30 154/193/30 152/190/31
f 153/191/29 155/194/28 156/196/28 154/193/29
f 155/194/28 157/197/43 158/199/43 156/196/28
f 157/197/43 159/200/26 160/202/26 158/199/43
f 159/200/44 137/166/23 138/169/23 160/202/44
s 0
f 137/167/3 159/201/3 157/198/3 155/195/3 153/192/3 151/189/3 149/186/3 147/183/3 145/180/3 143/177/3 141/174/3 139/171/3
s 1
f 161/203/23 163/208/41 164/210/41 162/206/23
f 163/208/41 165/211/39 166/213/39 164/210/41
f 165/211/42 167/214/37 168/216/37 166/213/42
f 167/214/37 169/217/36 170/219/36 168/216/37
f 169/217/35 171/220/34 172/222/34 170/219/35
f 171/220/34 173/223/33 174/225/33 172/222/34
f 173/223/32 175/226/31 176/228/31 174/225/32
f 175/226/31 177/229/30 178/231/30 176/228/31
f 177/229/29 179/232/28 180/234/28 178/231/29
f 179/232/28 181/235/43 182/237/43 180/234/28
f 181/235/43 183/238/26 184/240/26 182/237/43
f 183/238/44 161/204/23 162/207/23 184/240/44
s 0
f 161/205/3 183/239/3 181/236/3 179/233/3 177/230/3 175/227/3 173/224/3 171/221/3 169/218/3 167/215/3 165/212/3 163/209/3
