# Blender 3.4.1
# www.blender.org
mtllib Table_Lamp_1.mtl
o Table_Lamp_1
v -0.000000 0.011576 -0.008875
v -0.006275 0.011576 -0.006275
v -0.008875 0.011576 -0.000000
v -0.006275 0.011576 0.006275
v -0.000000 0.011576 0.008875
v 0.006275 0.011576 0.006275
v 0.008875 0.011576 0.000000
v 0.006275 0.011576 -0.006275
v -0.000000 0.303147 -0.008875
v -0.006275 0.303147 -0.006275
v -0.008875 0.303147 -0.000000
v -0.006275 0.303147 0.006275
v -0.000000 0.303147 0.008875
v 0.006275 0.303147 0.006275
v 0.008875 0.303147 0.000000
v 0.006275 0.303147 -0.006275
v -0.040439 0.176093 -0.097630
v 0.000000 0.176093 -0.105674
v -0.074723 0.176093 -0.074723
v -0.105674 0.176093 0.000000
v -0.097630 0.176093 -0.040440
v -0.097630 0.176093 0.040440
v -0.074723 0.176093 0.074723
v -0.040439 0.176093 0.097630
v 0.000000 0.176093 0.105674
v 0.040440 0.176093 0.097630
v 0.074723 0.176093 0.074723
v 0.097630 0.176093 0.040440
v 0.105674 0.176093 0.000000
v 0.097630 0.176093 -0.040440
v 0.074723 0.176093 -0.074723
v 0.040440 0.176093 -0.097630
v -0.016839 0.344249 -0.040653
v 0.000000 0.344249 -0.044002
v -0.031114 0.344249 -0.031114
v -0.044002 0.344249 0.000000
v -0.040653 0.344249 -0.016839
v -0.040653 0.344249 0.016839
v -0.031114 0.344249 0.031114
v -0.016839 0.344249 0.040653
v 0.000000 0.344249 0.044002
v 0.016839 0.344249 0.040653
v 0.031114 0.344249 0.031114
v 0.040653 0.344249 0.016839
v 0.044002 0.344249 0.000000
v 0.040653 0.344249 -0.016839
v 0.031114 0.344249 -0.031114
v 0.016839 0.344249 -0.040653
v -0.021197 0.344249 -0.051174
v 0.000000 0.344249 -0.055390
v -0.039167 0.344249 -0.039167
v -0.055390 0.344249 0.000000
v -0.051174 0.344249 -0.021197
v -0.051174 0.344249 0.021197
v -0.039167 0.344249 0.039167
v -0.021197 0.344249 0.051174
v 0.000000 0.344249 0.055390
v 0.021197 0.344249 0.051174
v 0.039167 0.344249 0.039167
v 0.051174 0.344249 0.021197
v 0.055390 0.344249 0.000000
v 0.051174 0.344249 -0.021197
v 0.039167 0.344249 -0.039167
v 0.021197 0.344249 -0.051174
v -0.034510 0.176093 -0.083314
v 0.000000 0.176093 -0.090179
v -0.063766 0.176093 -0.063766
v -0.090178 0.176093 0.000000
v -0.083314 0.176093 -0.034510
v -0.083314 0.176093 0.034510
v -0.063766 0.176093 0.063766
v -0.034510 0.176093 0.083314
v 0.000000 0.176093 0.090179
v 0.034510 0.176093 0.083314
v 0.063766 0.176093 0.063766
v 0.083314 0.176093 0.034510
v 0.090179 0.176093 0.000000
v 0.083314 0.176093 -0.034510
v 0.063766 0.176093 -0.063766
v 0.034510 0.176093 -0.083314
v 0.000000 -0.002285 -0.079345
v 0.030364 -0.002285 -0.073305
v 0.056105 -0.002285 -0.056105
v 0.073305 -0.002285 -0.030364
v 0.079345 -0.002285 0.000000
v 0.073305 -0.002285 0.030364
v 0.056105 -0.002285 0.056105
v 0.030364 -0.002285 0.073305
v 0.000000 -0.002285 0.079345
v -0.030364 -0.002285 0.073305
v -0.056105 -0.002285 0.056105
v -0.073305 -0.002285 0.030364
v -0.079345 -0.002285 -0.000000
v -0.073305 -0.002285 -0.030364
v -0.056105 -0.002285 -0.056105
v -0.030364 -0.002285 -0.073305
v -0.029026 0.007145 -0.070074
v -0.053632 0.007145 -0.053632
v -0.070074 0.007145 -0.029026
v -0.075847 0.007145 -0.000000
v -0.070074 0.007145 0.029026
v -0.053632 0.007145 0.053632
v -0.029026 0.007145 0.070074
v 0.000000 0.007145 0.075847
v 0.029026 0.007145 0.070074
v 0.053632 0.007145 0.053632
v 0.070074 0.007145 0.029026
v 0.075847 0.007145 0.000000
v 0.070074 0.007145 -0.029026
v 0.053632 0.007145 -0.053632
v 0.029026 0.007145 -0.070074
v 0.000000 0.007145 -0.075847
v -0.003396 0.015950 -0.008199
v -0.000000 0.015950 -0.008875
v -0.006275 0.015950 -0.006275
v -0.008875 0.015950 -0.000000
v -0.008199 0.015950 -0.003396
v -0.008199 0.015950 0.003396
v -0.006275 0.015950 0.006275
v -0.003396 0.015950 0.008199
v -0.000000 0.015950 0.008875
v 0.003396 0.015950 0.008199
v 0.006275 0.015950 0.006275
v 0.008199 0.015950 0.003396
v 0.008875 0.015950 0.000000
v 0.008199 0.015950 -0.003396
v 0.006275 0.015950 -0.006275
v 0.003396 0.015950 -0.008199
v -0.015988 0.015950 -0.038599
v 0.000000 0.015950 -0.041779
v -0.029542 0.015950 -0.029542
v -0.041779 0.015950 -0.000000
v -0.038599 0.015950 -0.015988
v -0.038599 0.015950 0.015988
v -0.029542 0.015950 0.029542
v -0.015988 0.015950 0.038599
v 0.000000 0.015950 0.041779
v 0.015988 0.015950 0.038599
v 0.029542 0.015950 0.029542
v 0.038599 0.015950 0.015988
v 0.041779 0.015950 0.000000
v 0.038599 0.015950 -0.015988
v 0.029542 0.015950 -0.029542
v 0.015988 0.015950 -0.038599
vn 0.7071 -0.0000 0.7071
vn 1.0000 -0.0000 -0.0000
vn 0.7764 0.6303 -0.0000
vn 0.5490 0.6303 0.5490
vn -0.0000 -0.0000 -1.0000
vn -0.7071 -0.0000 -0.7071
vn -0.5490 0.6303 -0.5490
vn -0.0000 0.6303 -0.7764
vn -0.7764 0.6303 -0.0000
vn -0.5490 0.6303 0.5490
vn -0.0000 0.6303 0.7764
vn 0.5490 0.6303 -0.5490
vn -1.0000 -0.0000 -0.0000
vn -0.7071 -0.0000 0.7071
vn 0.7071 -0.0000 -0.7071
vn -0.0000 -0.0000 1.0000
vn -0.7524 0.6587 -0.0000
vn -0.6951 0.6587 0.2879
vn -0.5118 -0.8326 0.2120
vn -0.5540 -0.8325 -0.0000
vn 0.6951 0.6587 -0.2879
vn 0.5320 0.6587 -0.5320
vn 0.3917 -0.8325 -0.3917
vn 0.5118 -0.8325 -0.2120
vn -0.7693 -0.5537 -0.3187
vn -0.8327 -0.5537 -0.0000
vn -0.6412 0.7674 -0.0000
vn -0.5924 0.7674 -0.2454
vn 0.7693 -0.5537 0.3187
vn 0.8327 -0.5537 -0.0000
vn 0.6412 0.7674 -0.0000
vn 0.5924 0.7674 0.2454
vn -0.7693 -0.5537 0.3187
vn -0.5924 0.7674 0.2454
vn 0.7693 -0.5537 -0.3187
vn 0.5924 0.7674 -0.2454
vn -0.5888 -0.5537 0.5888
vn -0.4534 0.7674 0.4534
vn 0.5888 -0.5537 -0.5888
vn 0.4534 0.7674 -0.4534
vn -0.3187 -0.5537 0.7693
vn -0.2454 0.7674 0.5924
vn 0.3187 -0.5537 -0.7693
vn 0.2454 0.7674 -0.5924
vn -0.0000 -0.5537 0.8327
vn -0.0000 0.7674 0.6412
vn -0.0000 -0.5537 -0.8327
vn -0.0000 0.7674 -0.6412
vn 0.3187 -0.5537 0.7693
vn 0.2454 0.7674 0.5924
vn -0.3187 -0.5537 -0.7693
vn -0.2454 0.7674 -0.5924
vn -0.5888 -0.5537 -0.5888
vn -0.4534 0.7674 -0.4534
vn 0.5888 -0.5537 0.5888
vn 0.4534 0.7674 0.4534
vn -0.0000 1.0000 -0.0000
vn -0.5320 0.6587 0.5320
vn -0.3917 -0.8325 0.3917
vn 0.2879 0.6587 -0.6951
vn 0.2120 -0.8325 -0.5118
vn -0.2879 0.6587 0.6951
vn -0.2120 -0.8325 0.5118
vn -0.0000 0.6587 -0.7524
vn -0.0000 -0.8325 -0.5540
vn -0.0000 0.6587 0.7524
vn -0.0000 -0.8326 0.5540
vn -0.2879 0.6587 -0.6951
vn -0.2120 -0.8325 -0.5118
vn 0.2879 0.6587 0.6951
vn 0.2120 -0.8325 0.5118
vn 0.5320 0.6587 0.5320
vn 0.6951 0.6587 0.2879
vn 0.5118 -0.8325 0.2120
vn 0.3917 -0.8325 0.3917
vn -0.5320 0.6587 -0.5320
vn -0.3917 -0.8325 -0.3917
vn -0.6951 0.6587 -0.2879
vn -0.5118 -0.8326 -0.2120
vn 0.7524 0.6587 -0.0000
vn 0.5540 -0.8325 -0.0000
vn -0.0000 -1.0000 -0.0000
vn -0.6006 -0.5278 -0.6006
vn -0.4946 0.7146 -0.4946
vn -0.2677 0.7146 -0.6463
vn -0.3251 -0.5278 -0.7847
vn -0.3251 -0.5278 0.7847
vn -0.2677 0.7146 0.6463
vn -0.4946 0.7146 0.4946
vn -0.6006 -0.5278 0.6006
vn -0.7847 -0.5278 0.3251
vn -0.6463 0.7146 0.2677
vn -0.6995 0.7146 -0.0000
vn -0.8494 -0.5278 -0.0000
vn 0.6006 -0.5278 0.6006
vn 0.4946 0.7146 0.4946
vn 0.2677 0.7146 0.6463
vn 0.3251 -0.5278 0.7847
vn 0.3251 -0.5278 -0.7847
vn 0.2677 0.7146 -0.6463
vn 0.4946 0.7146 -0.4946
vn 0.6006 -0.5278 -0.6006
vn -0.7847 -0.5278 -0.3251
vn -0.6463 0.7146 -0.2677
vn -0.0000 -0.5278 0.8494
vn -0.0000 0.7146 0.6995
vn 0.7847 -0.5278 -0.3251
vn 0.6463 0.7146 -0.2677
vn 0.6995 0.7146 -0.0000
vn 0.8494 -0.5278 -0.0000
vn -0.0000 0.7146 -0.6995
vn -0.0000 -0.5278 -0.8494
vn 0.7847 -0.5278 0.3251
vn 0.6463 0.7146 0.2677
vn -0.1001 0.9899 -0.1001
vn -0.0542 0.9899 -0.1308
vn 0.1308 0.9899 0.0542
vn 0.1001 0.9899 0.1001
vn -0.1416 0.9899 -0.0000
vn -0.1308 0.9899 -0.0542
vn 0.1416 0.9899 -0.0000
vn -0.1308 0.9899 0.0542
vn 0.1308 0.9899 -0.0542
vn -0.1001 0.9899 0.1001
vn 0.1001 0.9899 -0.1001
vn -0.0542 0.9899 0.1308
vn 0.0542 0.9899 -0.1308
vn -0.0000 0.9899 0.1416
vn -0.0000 0.9899 -0.1416
vn 0.0542 0.9899 0.1308
vt 0.201054 0.799522
vt 0.195557 0.797245
vt 0.193280 0.791748
vt 0.195557 0.786251
vt 0.201054 0.783974
vt 0.206551 0.786251
vt 0.208828 0.791748
vt 0.206551 0.797245
vt 0.202088 0.803656
vt 0.201054 0.799522
vt 0.196590 0.801379
vt 0.195557 0.797245
vt 0.194313 0.795882
vt 0.193280 0.791748
vt 0.196590 0.790385
vt 0.195557 0.786251
vt 0.202088 0.788108
vt 0.201054 0.783974
vt 0.207585 0.790385
vt 0.206551 0.786251
vt 0.209862 0.795882
vt 0.208828 0.791748
vt 0.207585 0.801379
vt 0.206551 0.797245
vt 0.295396 0.874509
vt 0.298371 0.875101
vt 0.292874 0.872824
vt 0.290597 0.867327
vt 0.291189 0.870302
vt 0.291189 0.864352
vt 0.292874 0.861830
vt 0.295396 0.860145
vt 0.298371 0.859553
vt 0.301346 0.860145
vt 0.303869 0.861830
vt 0.305554 0.864352
vt 0.306146 0.867327
vt 0.305554 0.870302
vt 0.303869 0.872824
vt 0.301346 0.874509
vt 0.296697 0.871370
vt 0.298371 0.871702
vt 0.295277 0.870421
vt 0.293996 0.867327
vt 0.294329 0.869002
vt 0.294329 0.865653
vt 0.295277 0.864233
vt 0.296697 0.863285
vt 0.298371 0.862952
vt 0.300046 0.863285
vt 0.301465 0.864233
vt 0.302414 0.865653
vt 0.302747 0.867327
vt 0.302414 0.869001
vt 0.301465 0.870421
vt 0.300046 0.871369
vt 0.295396 0.874509
vt 0.298371 0.875101
vt 0.292874 0.872824
vt 0.290597 0.867327
vt 0.291189 0.870302
vt 0.291189 0.864352
vt 0.292874 0.861830
vt 0.295396 0.860145
vt 0.298371 0.859553
vt 0.301346 0.860145
vt 0.303869 0.861830
vt 0.305554 0.864352
vt 0.306146 0.867327
vt 0.305554 0.870302
vt 0.303869 0.872824
vt 0.301346 0.874509
vt 0.296697 0.871370
vt 0.298371 0.871702
vt 0.295277 0.870421
vt 0.293996 0.867327
vt 0.294329 0.869002
vt 0.294329 0.865653
vt 0.295277 0.864233
vt 0.296697 0.863285
vt 0.298371 0.862952
vt 0.300046 0.863285
vt 0.301465 0.864233
vt 0.302414 0.865653
vt 0.302747 0.867327
vt 0.302414 0.869001
vt 0.301465 0.870421
vt 0.300046 0.871369
vt 0.202088 0.813148
vt 0.208695 0.811833
vt 0.214296 0.808090
vt 0.218039 0.802489
vt 0.219353 0.795882
vt 0.218039 0.789274
vt 0.214296 0.783673
vt 0.208695 0.779930
vt 0.202088 0.778616
vt 0.195480 0.779930
vt 0.189879 0.783673
vt 0.186136 0.789274
vt 0.184822 0.795882
vt 0.186136 0.802489
vt 0.189879 0.808090
vt 0.195480 0.811833
vt 0.195480 0.811833
vt 0.189879 0.808090
vt 0.186136 0.802489
vt 0.184822 0.795882
vt 0.186136 0.789274
vt 0.189879 0.783673
vt 0.195480 0.779930
vt 0.202088 0.778616
vt 0.208695 0.779930
vt 0.214296 0.783673
vt 0.218039 0.789274
vt 0.219353 0.795882
vt 0.218039 0.802489
vt 0.214296 0.808090
vt 0.208695 0.811833
vt 0.202088 0.813148
vt 0.199112 0.803064
vt 0.202088 0.803656
vt 0.196590 0.801379
vt 0.194313 0.795882
vt 0.194905 0.798857
vt 0.194905 0.792907
vt 0.196590 0.790385
vt 0.199112 0.788699
vt 0.202088 0.788108
vt 0.205063 0.788699
vt 0.207585 0.790385
vt 0.209270 0.792907
vt 0.209862 0.795882
vt 0.209270 0.798857
vt 0.207585 0.801379
vt 0.205063 0.803064
vt 0.195480 0.811833
vt 0.202088 0.813148
vt 0.189879 0.808090
vt 0.184822 0.795882
vt 0.186136 0.802489
vt 0.186136 0.789274
vt 0.189879 0.783673
vt 0.195480 0.779930
vt 0.202088 0.778616
vt 0.208695 0.779930
vt 0.214296 0.783673
vt 0.218039 0.789274
vt 0.219353 0.795882
vt 0.218039 0.802489
vt 0.214296 0.808090
vt 0.208695 0.811833
s 1
usemtl Palette
f 6/6/1 7/7/2 15/22/3 14/20/4
f 1/1/5 2/2/6 10/12/7 9/10/8
f 9/9/8 10/11/7 11/13/9 12/15/10 13/17/11 14/19/4 15/21/3 16/23/12
f 2/2/6 3/3/13 11/14/9 10/12/7
f 3/3/13 4/4/14 12/16/10 11/14/9
f 7/7/2 8/8/15 16/24/12 15/22/3
f 4/4/14 5/5/16 13/18/11 12/16/10
f 8/8/15 1/1/5 9/10/8 16/24/12
f 5/5/16 6/6/1 14/20/4 13/18/11
f 45/53/17 46/54/18 78/86/19 77/85/20
f 38/46/21 39/47/22 71/79/23 70/78/24
f 21/29/25 20/28/26 52/60/27 53/61/28
f 28/36/29 29/37/30 61/69/31 60/68/32
f 20/28/26 22/30/33 54/62/34 52/60/27
f 29/37/30 30/38/35 62/70/36 61/69/31
f 22/30/33 23/31/37 55/63/38 54/62/34
f 30/38/35 31/39/39 63/71/40 62/70/36
f 23/31/37 24/32/41 56/64/42 55/63/38
f 31/39/39 32/40/43 64/72/44 63/71/40
f 24/32/41 25/33/45 57/65/46 56/64/42
f 32/40/43 18/26/47 50/58/48 64/72/44
f 25/33/45 26/34/49 58/66/50 57/65/46
f 18/26/47 17/25/51 49/57/52 50/58/48
f 19/27/53 21/29/25 53/61/28 51/59/54
f 26/34/49 27/35/55 59/67/56 58/66/50
f 17/25/51 19/27/53 51/59/54 49/57/52
f 27/35/55 28/36/29 60/68/32 59/67/56
s 0
f 33/41/57 34/42/57 50/58/57 49/57/57
f 35/43/57 33/41/57 49/57/57 51/59/57
f 36/44/57 37/45/57 53/61/57 52/60/57
f 38/46/57 36/44/57 52/60/57 54/62/57
f 39/47/57 38/46/57 54/62/57 55/63/57
f 40/48/57 39/47/57 55/63/57 56/64/57
f 41/49/57 40/48/57 56/64/57 57/65/57
f 42/50/57 41/49/57 57/65/57 58/66/57
f 43/51/57 42/50/57 58/66/57 59/67/57
f 44/52/57 43/51/57 59/67/57 60/68/57
f 45/53/57 44/52/57 60/68/57 61/69/57
f 46/54/57 45/53/57 61/69/57 62/70/57
f 47/55/57 46/54/57 62/70/57 63/71/57
f 48/56/57 47/55/57 63/71/57 64/72/57
f 34/42/57 48/56/57 64/72/57 50/58/57
f 37/45/57 35/43/57 51/59/57 53/61/57
s 1
f 46/54/18 47/55/58 79/87/59 78/86/19
f 39/47/22 40/48/60 72/80/61 71/79/23
f 47/55/58 48/56/62 80/88/63 79/87/59
f 40/48/60 41/49/64 73/81/65 72/80/61
f 48/56/62 34/42/66 66/74/67 80/88/63
f 41/49/64 42/50/68 74/82/69 73/81/65
f 34/42/66 33/41/70 65/73/71 66/74/67
f 35/43/72 37/45/73 69/77/74 67/75/75
f 42/50/68 43/51/76 75/83/77 74/82/69
f 33/41/70 35/43/72 67/75/75 65/73/71
f 43/51/76 44/52/78 76/84/79 75/83/77
f 37/45/73 36/44/80 68/76/81 69/77/74
f 44/52/78 45/53/17 77/85/20 76/84/79
f 36/44/80 38/46/21 70/78/24 68/76/81
s 0
f 65/73/82 67/75/82 19/27/82 17/25/82
f 67/75/82 69/77/82 21/29/82 19/27/82
f 69/77/82 68/76/82 20/28/82 21/29/82
f 68/76/82 70/78/82 22/30/82 20/28/82
f 70/78/82 71/79/82 23/31/82 22/30/82
f 71/79/82 72/80/82 24/32/82 23/31/82
f 72/80/82 73/81/82 25/33/82 24/32/82
f 73/81/82 74/82/82 26/34/82 25/33/82
f 74/82/82 75/83/82 27/35/82 26/34/82
f 75/83/82 76/84/82 28/36/82 27/35/82
f 76/84/82 77/85/82 29/37/82 28/36/82
f 77/85/82 78/86/82 30/38/82 29/37/82
f 78/86/82 79/87/82 31/39/82 30/38/82
f 79/87/82 80/88/82 32/40/82 31/39/82
f 80/88/82 66/74/82 18/26/82 32/40/82
f 66/74/82 65/73/82 17/25/82 18/26/82
s 1
f 95/103/83 98/106/84 97/105/85 96/104/86
f 90/98/87 103/111/88 102/110/89 91/99/90
f 92/100/91 101/109/92 100/108/93 93/101/94
f 87/95/95 106/114/96 105/113/97 88/96/98
f 82/90/99 111/119/100 110/118/101 83/91/102
f 94/102/103 99/107/104 98/106/84 95/103/83
f 89/97/105 104/112/106 103/111/88 90/98/87
f 84/92/107 109/117/108 108/116/109 85/93/110
f 96/104/86 97/105/85 112/120/111 81/89/112
f 91/99/90 102/110/89 101/109/92 92/100/91
f 86/94/113 107/115/114 106/114/96 87/95/95
f 81/89/112 112/120/111 111/119/100 82/90/99
f 93/101/94 100/108/93 99/107/104 94/102/103
f 88/96/98 105/113/97 104/112/106 89/97/105
f 83/91/102 110/118/101 109/117/108 84/92/107
f 85/93/110 108/116/109 107/115/114 86/94/113
f 98/106/84 131/139/115 129/137/116 97/105/85
f 107/115/114 140/148/117 139/147/118 106/114/96
f 100/108/93 132/140/119 133/141/120 99/107/104
f 108/116/109 141/149/121 140/148/117 107/115/114
f 101/109/92 134/142/122 132/140/119 100/108/93
f 109/117/108 142/150/123 141/149/121 108/116/109
f 102/110/89 135/143/124 134/142/122 101/109/92
f 110/118/101 143/151/125 142/150/123 109/117/108
f 103/111/88 136/144/126 135/143/124 102/110/89
f 111/119/100 144/152/127 143/151/125 110/118/101
f 104/112/106 137/145/128 136/144/126 103/111/88
f 112/120/111 130/138/129 144/152/127 111/119/100
f 105/113/97 138/146/130 137/145/128 104/112/106
f 97/105/85 129/137/116 130/138/129 112/120/111
f 99/107/104 133/141/120 131/139/115 98/106/84
f 106/114/96 139/147/118 138/146/130 105/113/97
f 113/121/57 114/122/57 130/138/129 129/137/116
f 115/123/57 113/121/57 129/137/116 131/139/115
f 116/124/57 117/125/57 133/141/120 132/140/119
f 118/126/57 116/124/57 132/140/119 134/142/122
f 119/127/57 118/126/57 134/142/122 135/143/124
f 120/128/57 119/127/57 135/143/124 136/144/126
f 121/129/57 120/128/57 136/144/126 137/145/128
f 122/130/57 121/129/57 137/145/128 138/146/130
f 123/131/57 122/130/57 138/146/130 139/147/118
f 124/132/57 123/131/57 139/147/118 140/148/117
f 125/133/57 124/132/57 140/148/117 141/149/121
f 126/134/57 125/133/57 141/149/121 142/150/123
f 127/135/57 126/134/57 142/150/123 143/151/125
f 128/136/57 127/135/57 143/151/125 144/152/127
f 114/122/57 128/136/57 144/152/127 130/138/129
f 117/125/57 115/123/57 131/139/115 133/141/120
s 0
f 81/89/82 82/90/82 83/91/82 84/92/82 85/93/82 86/94/82 87/95/82 88/96/82 89/97/82 90/98/82 91/99/82 92/100/82 93/101/82 94/102/82 95/103/82 96/104/82
