# Blender 3.4.1
# www.blender.org
mtllib Toilet_Ac1.mtl
o Toilet_Ac1
v -0.087748 -0.000927 0.056820
v 0.000000 -0.000927 0.040019
v -0.158116 -0.000927 0.126997
v -0.197168 -0.000927 0.219268
v -0.197168 -0.000927 0.325644
v -0.158116 -0.000927 0.434469
v -0.087748 -0.000927 0.511221
v 0.000000 -0.000927 0.538612
v 0.087748 -0.000927 0.511221
v 0.158116 -0.000927 0.434469
v 0.197168 -0.000927 0.325644
v 0.197168 -0.000927 0.219268
v 0.158116 -0.000927 0.126997
v 0.087748 -0.000927 0.056820
v -0.058342 -0.000927 0.195910
v -0.000000 -0.000927 0.183866
v -0.105128 -0.000927 0.230618
v -0.131092 -0.000927 0.282001
v -0.131092 -0.000927 0.343952
v -0.105128 -0.000927 0.409884
v -0.058342 -0.000927 0.457937
v -0.000000 -0.000927 0.475059
v 0.058342 -0.000927 0.457937
v 0.105128 -0.000927 0.409884
v 0.131092 -0.000927 0.343952
v 0.131092 -0.000927 0.282001
v 0.105128 -0.000927 0.230618
v 0.058342 -0.000927 0.195910
v -0.085166 0.015124 0.065127
v 0.000000 0.015124 0.048750
v -0.153463 0.015124 0.133280
v -0.191365 0.015124 0.222935
v -0.191365 0.015124 0.325083
v -0.153463 0.015124 0.429974
v -0.085166 0.015124 0.504478
v 0.000000 0.015124 0.531063
v 0.085166 0.015124 0.504478
v 0.153463 0.015124 0.429974
v 0.191365 0.015124 0.325083
v 0.191365 0.015124 0.222935
v 0.153463 0.015124 0.133280
v 0.085166 0.015124 0.065127
v -0.056625 0.015124 0.200178
v -0.000000 0.015124 0.188363
v -0.102034 0.015124 0.234035
v -0.127235 0.015124 0.283191
v -0.127235 0.015124 0.342691
v -0.102034 0.015124 0.406100
v -0.056625 0.015124 0.452763
v -0.000000 0.015124 0.469380
v 0.056625 0.015124 0.452763
v 0.102034 0.015124 0.406100
v 0.127235 0.015124 0.342691
v 0.127235 0.015124 0.283191
v 0.102034 0.015124 0.234035
v 0.056625 0.015124 0.200178
vn 0.4051 -0.4546 -0.7933
vn -0.2218 -0.8395 0.4961
vn -0.0000 -0.8362 0.5484
vn -0.0000 -0.4696 -0.8829
vn -0.4580 -0.4904 0.7414
vn 0.2611 -0.8571 -0.4441
vn -0.0000 -0.8667 -0.4989
vn -0.0000 -0.4741 0.8805
vn -0.2611 -0.8571 -0.4441
vn 0.4580 -0.4904 0.7414
vn 0.2218 -0.8395 0.4961
vn -0.4051 -0.4546 -0.7933
vn -0.4574 -0.8361 -0.3028
vn 0.7263 -0.5208 0.4487
vn 0.4126 -0.8403 0.3518
vn -0.7113 -0.4967 -0.4973
vn -0.5537 -0.8258 -0.1075
vn 0.8332 -0.5341 0.1430
vn 0.5343 -0.8353 0.1293
vn -0.8364 -0.5162 -0.1842
vn -0.5343 -0.8353 0.1293
vn 0.8364 -0.5162 -0.1842
vn 0.5537 -0.8258 -0.1075
vn -0.8332 -0.5341 0.1430
vn -0.4126 -0.8403 0.3518
vn 0.7113 -0.4967 -0.4973
vn 0.4574 -0.8361 -0.3028
vn -0.7263 -0.5208 0.4487
vn 0.2809 0.8145 -0.5075
vn -0.0000 0.8332 -0.5530
vn -0.0000 0.6581 0.7529
vn -0.3085 0.6606 0.6844
vn -0.3316 0.7966 0.5055
vn -0.0000 0.7988 0.6015
vn -0.0000 0.6578 -0.7532
vn 0.3970 0.6569 -0.6410
vn 0.3316 0.7966 0.5055
vn -0.3970 0.6569 -0.6410
vn -0.2809 0.8145 -0.5075
vn 0.3085 0.6606 0.6844
vn 0.5254 0.7926 0.3095
vn -0.6392 0.6550 -0.4029
vn -0.4909 0.8113 -0.3175
vn 0.5721 0.6670 0.4772
vn 0.6028 0.7907 0.1070
vn -0.7350 0.6641 -0.1370
vn -0.5972 0.7946 -0.1093
vn 0.7159 0.6773 0.1696
vn 0.5972 0.7946 -0.1093
vn -0.7159 0.6773 0.1696
vn -0.6028 0.7907 0.1070
vn 0.7350 0.6641 -0.1370
vn 0.4909 0.8113 -0.3175
vn -0.5721 0.6670 0.4772
vn -0.5254 0.7926 0.3095
vn 0.6392 0.6550 -0.4029
vt 0.292685 0.801747
vt 0.292685 0.801747
vt 0.292685 0.801747
vt 0.292685 0.801747
vt 0.292685 0.801747
vt 0.292685 0.801747
vt 0.292685 0.801747
vt 0.292685 0.801747
vt 0.292685 0.801747
vt 0.292685 0.801747
vt 0.292685 0.801747
vt 0.292685 0.801747
vt 0.292685 0.801747
vt 0.292685 0.801747
vt 0.292685 0.801747
vt 0.292685 0.801747
vt 0.292685 0.801747
vt 0.292685 0.801747
vt 0.292685 0.801747
vt 0.292685 0.801747
vt 0.292685 0.801747
vt 0.292685 0.801747
vt 0.292685 0.801747
vt 0.292685 0.801747
vt 0.292685 0.801747
vt 0.292685 0.801747
vt 0.292685 0.801747
vt 0.292685 0.801747
vt 0.292685 0.801747
vt 0.292685 0.801747
vt 0.292685 0.801747
vt 0.292685 0.801747
vt 0.292685 0.801747
vt 0.292685 0.801747
vt 0.292685 0.801747
vt 0.292685 0.801747
vt 0.292685 0.801747
vt 0.292685 0.801747
vt 0.292685 0.801747
vt 0.292685 0.801747
vt 0.292685 0.801747
vt 0.292685 0.801747
vt 0.292685 0.801747
vt 0.292685 0.801747
vt 0.292685 0.801747
vt 0.292685 0.801747
vt 0.292685 0.801747
vt 0.292685 0.801747
vt 0.292685 0.801747
vt 0.292685 0.801747
vt 0.292685 0.801747
vt 0.292685 0.801747
vt 0.292685 0.801747
vt 0.292685 0.801747
vt 0.292685 0.801747
vt 0.292685 0.801747
s 1
usemtl Palette
f 14/14/1 28/28/2 16/16/3 2/2/4
f 7/7/5 21/21/6 22/22/7 8/8/8
f 8/8/8 22/22/7 23/23/9 9/9/10
f 2/2/4 16/16/3 15/15/11 1/1/12
f 9/9/10 23/23/9 24/24/13 10/10/14
f 1/1/12 15/15/11 17/17/15 3/3/16
f 10/10/14 24/24/13 25/25/17 11/11/18
f 3/3/16 17/17/15 18/18/19 4/4/20
f 11/11/18 25/25/17 26/26/21 12/12/22
f 4/4/20 18/18/19 19/19/23 5/5/24
f 12/12/22 26/26/21 27/27/25 13/13/26
f 5/5/24 19/19/23 20/20/27 6/6/28
f 13/13/26 27/27/25 28/28/2 14/14/1
f 6/6/28 20/20/27 21/21/6 7/7/5
f 42/42/29 30/30/30 44/44/31 56/56/32
f 35/35/33 36/36/34 50/50/35 49/49/36
f 36/36/34 37/37/37 51/51/38 50/50/35
f 30/30/30 29/29/39 43/43/40 44/44/31
f 37/37/37 38/38/41 52/52/42 51/51/38
f 29/29/39 31/31/43 45/45/44 43/43/40
f 38/38/41 39/39/45 53/53/46 52/52/42
f 31/31/43 32/32/47 46/46/48 45/45/44
f 39/39/45 40/40/49 54/54/50 53/53/46
f 32/32/47 33/33/51 47/47/52 46/46/48
f 40/40/49 41/41/53 55/55/54 54/54/50
f 33/33/51 34/34/55 48/48/56 47/47/52
f 41/41/53 42/42/29 56/56/32 55/55/54
f 34/34/55 35/35/33 49/49/36 48/48/56
f 4/4/20 5/5/24 33/33/51 32/32/47
f 19/19/23 18/18/19 46/46/48 47/47/52
f 5/5/24 6/6/28 34/34/55 33/33/51
f 20/20/27 19/19/23 47/47/52 48/48/56
f 6/6/28 7/7/5 35/35/33 34/34/55
f 21/21/6 20/20/27 48/48/56 49/49/36
f 7/7/5 8/8/8 36/36/34 35/35/33
f 22/22/7 21/21/6 49/49/36 50/50/35
f 8/8/8 9/9/10 37/37/37 36/36/34
f 23/23/9 22/22/7 50/50/35 51/51/38
f 9/9/10 10/10/14 38/38/41 37/37/37
f 24/24/13 23/23/9 51/51/38 52/52/42
f 10/10/14 11/11/18 39/39/45 38/38/41
f 25/25/17 24/24/13 52/52/42 53/53/46
f 11/11/18 12/12/22 40/40/49 39/39/45
f 26/26/21 25/25/17 53/53/46 54/54/50
f 12/12/22 13/13/26 41/41/53 40/40/49
f 27/27/25 26/26/21 54/54/50 55/55/54
f 13/13/26 14/14/1 42/42/29 41/41/53
f 28/28/2 27/27/25 55/55/54 56/56/32
f 14/14/1 2/2/4 30/30/30 42/42/29
f 2/2/4 1/1/12 29/29/39 30/30/30
f 16/16/3 28/28/2 56/56/32 44/44/31
f 15/15/11 16/16/3 44/44/31 43/43/40
f 1/1/12 3/3/16 31/31/43 29/29/39
f 17/17/15 15/15/11 43/43/40 45/45/44
f 3/3/16 4/4/20 32/32/47 31/31/43
f 18/18/19 17/17/15 45/45/44 46/46/48
