# Blender 3.4.1
# www.blender.org
mtllib Toolbox__Base_.mtl
o Toolbox_(Base)
v 0.290375 0.165515 -0.102107
v 0.290375 0.165515 0.102107
v 0.295665 0.000925 -0.109713
v 0.295665 0.000925 0.109713
v 0.304818 0.165515 0.116550
v 0.304818 0.165515 -0.116550
v 0.282069 0.030593 0.096117
v 0.282069 0.030593 -0.096117
v 0.246734 0.157662 -0.128479
v 0.246734 0.157662 -0.112712
v 0.246734 0.175987 -0.112712
v 0.246734 0.175987 -0.128479
v 0.190509 0.157662 -0.112712
v 0.190509 0.175987 -0.112712
v 0.190509 0.175987 -0.128479
v 0.190509 0.157662 -0.128479
v -0.290375 0.165515 -0.102107
v -0.290375 0.165515 0.102107
v 0.000000 0.165515 0.102107
v 0.000000 0.165515 -0.102107
v 0.000000 0.000924 -0.109713
v 0.000000 0.000924 0.109713
v -0.295665 0.000925 -0.109713
v -0.295665 0.000925 0.109713
v -0.304818 0.165515 0.116550
v 0.000000 0.165515 0.116550
v 0.000000 0.165515 -0.116550
v -0.304818 0.165515 -0.116550
v 0.000000 0.030593 -0.096117
v 0.000000 0.030593 0.096117
v -0.282069 0.030593 0.096117
v -0.282069 0.030593 -0.096117
v -0.246734 0.157662 -0.128479
v -0.246734 0.157662 -0.112712
v -0.246734 0.175987 -0.112712
v -0.246734 0.175987 -0.128479
v -0.190509 0.157662 -0.112712
v -0.190509 0.175987 -0.112712
v -0.190509 0.175987 -0.128479
v -0.190509 0.157662 -0.128479
vn 0.9985 -0.0555 -0.0000
vn -0.0000 -0.0415 0.9991
vn -0.0000 -0.0415 -0.9991
vn -0.0000 0.0444 0.9990
vn -0.0000 -1.0000 -0.0000
vn -0.0000 1.0000 -0.0000
vn -0.9981 0.0614 -0.0000
vn -0.0000 0.0444 -0.9990
vn 1.0000 -0.0000 -0.0000
vn -1.0000 -0.0000 -0.0000
vn -0.0000 -0.0000 1.0000
vn -0.0000 -0.0000 -1.0000
vn -0.9985 -0.0555 -0.0000
vn 0.9981 0.0614 -0.0000
vt 0.383090 0.871798
vt 0.383090 0.885085
vt 0.383390 0.870858
vt 0.383390 0.886024
vt 0.383390 0.886024
vt 0.383390 0.870858
vt 0.383090 0.885085
vt 0.383090 0.871798
vt 0.202401 0.872393
vt 0.202401 0.887559
vt 0.202401 0.887559
vt 0.202401 0.872393
vt 0.202401 0.887559
vt 0.202401 0.887559
vt 0.202401 0.872393
vt 0.202401 0.872393
vt 0.383090 0.871798
vt 0.383090 0.885085
vt 0.377059 0.885085
vt 0.377059 0.871798
vt 0.377059 0.870858
vt 0.377059 0.886024
vt 0.383390 0.870858
vt 0.383390 0.886024
vt 0.383390 0.886024
vt 0.377059 0.886024
vt 0.377059 0.870858
vt 0.383390 0.870858
vt 0.377059 0.871798
vt 0.377059 0.885085
vt 0.383090 0.885085
vt 0.383090 0.871798
vt 0.202401 0.872393
vt 0.202401 0.887559
vt 0.202401 0.887559
vt 0.202401 0.872393
vt 0.202401 0.887559
vt 0.202401 0.887559
vt 0.202401 0.872393
vt 0.202401 0.872393
s 1
usemtl Palette
f 4/4/1 3/3/1 6/6/1 5/5/1
f 22/22/2 4/4/2 5/5/2 26/26/2
f 3/3/3 21/21/3 27/27/3 6/6/3
f 1/1/4 20/20/4 29/29/4 8/8/4
f 21/21/5 3/3/5 4/4/5 22/22/5
f 2/2/6 19/19/6 26/26/6 5/5/6
f 20/20/6 1/1/6 6/6/6 27/27/6
f 1/1/6 2/2/6 5/5/6 6/6/6
f 29/29/6 30/30/6 7/7/6 8/8/6
f 2/2/7 1/1/7 8/8/7 7/7/7
f 19/19/8 2/2/8 7/7/8 30/30/8
f 10/10/9 9/9/9 12/12/9 11/11/9
f 13/13/10 14/14/10 15/15/10 16/16/10
f 12/12/6 15/15/6 14/14/6 11/11/6
f 11/11/11 14/14/11 13/13/11 10/10/11
f 10/10/5 13/13/5 16/16/5 9/9/5
f 9/9/12 16/16/12 15/15/12 12/12/12
f 24/24/13 25/25/13 28/28/13 23/23/13
f 22/22/2 26/26/2 25/25/2 24/24/2
f 23/23/3 28/28/3 27/27/3 21/21/3
f 17/17/4 32/32/4 29/29/4 20/20/4
f 21/21/5 22/22/5 24/24/5 23/23/5
f 18/18/6 25/25/6 26/26/6 19/19/6
f 20/20/6 27/27/6 28/28/6 17/17/6
f 17/17/6 28/28/6 25/25/6 18/18/6
f 29/29/6 32/32/6 31/31/6 30/30/6
f 18/18/14 31/31/14 32/32/14 17/17/14
f 19/19/8 30/30/8 31/31/8 18/18/8
f 34/34/10 35/35/10 36/36/10 33/33/10
f 37/37/9 40/40/9 39/39/9 38/38/9
f 36/36/6 35/35/6 38/38/6 39/39/6
f 35/35/11 34/34/11 37/37/11 38/38/11
f 34/34/5 33/33/5 40/40/5 37/37/5
f 33/33/12 36/36/12 39/39/12 40/40/12
