# Blender 3.4.1
# www.blender.org
mtllib Toothbrush.mtl
o Toothbrush
v -0.005833 -0.061513 -0.008948
v 0.005832 -0.061513 -0.008948
v -0.005833 0.117742 -0.008948
v -0.005833 0.117742 0.001997
v 0.005832 0.117742 0.001997
v 0.005832 0.117742 -0.008948
v 0.004519 0.085293 -0.006738
v 0.004519 0.085293 0.001743
v -0.004521 0.085293 0.001743
v -0.004521 0.085293 -0.006738
v 0.004519 -0.030543 0.001743
v -0.004521 -0.030543 -0.006738
v 0.004519 -0.030543 -0.006738
v -0.004521 -0.030543 0.001743
v 0.004639 0.116335 0.008821
v -0.004641 0.116335 0.008821
v 0.004639 0.088875 0.008821
v -0.004641 0.088875 0.008821
v -0.003232 0.089823 0.000187
v -0.003232 0.115387 0.000187
v 0.003230 0.115387 0.000187
v 0.003230 0.089823 0.000187
v -0.004641 0.102605 0.008011
v 0.004639 0.102605 0.008011
v -0.003232 0.102605 -0.000623
v 0.003230 0.102605 -0.000623
v -0.005833 -0.058614 -0.001462
v -0.005570 -0.051391 0.001946
v 0.005569 -0.051391 0.001946
v 0.005832 -0.058614 -0.001462
vn -0.0000 0.0097 1.0000
vn -0.0000 1.0000 -0.0000
vn 0.9992 -0.0404 -0.0000
vn -0.9992 -0.0404 -0.0000
vn -0.0000 -0.0679 -0.9977
vn -0.0000 -0.0078 1.0000
vn -0.0000 -0.0000 1.0000
vn -0.0000 -0.0000 -1.0000
vn -1.0000 -0.0000 -0.0000
vn 1.0000 -0.0000 -0.0000
vn -0.0000 -0.9325 0.3612
vn -0.0000 0.0712 -0.9975
vn 0.9989 0.0458 -0.0110
vn -0.0000 -0.0589 0.9983
vn -0.0000 -0.9940 -0.1092
vn -0.0000 0.9940 -0.1091
vn 0.9868 0.0099 -0.1616
vn -0.9868 -0.0099 -0.1616
vn -0.9868 0.0099 -0.1616
vn 0.9868 -0.0099 -0.1616
vn -0.0000 0.0589 0.9983
vn -0.0000 -0.4267 0.9044
vn -0.9989 0.0458 -0.0110
vt 0.351085 0.902439
vt 0.401085 0.902439
vt 0.351085 0.902439
vt 0.351085 0.852439
vt 0.401085 0.852439
vt 0.401085 0.902439
vt 0.401085 0.902439
vt 0.401085 0.852439
vt 0.351085 0.852439
vt 0.351085 0.902439
vt 0.401085 0.852439
vt 0.351085 0.902439
vt 0.401085 0.902439
vt 0.351085 0.852439
vt 0.065365 0.875473
vt 0.015365 0.875473
vt 0.065365 0.875473
vt 0.015365 0.875473
vt 0.015365 0.875473
vt 0.015365 0.875473
vt 0.065365 0.875473
vt 0.065365 0.875473
vt 0.015365 0.875473
vt 0.065365 0.875473
vt 0.015365 0.875473
vt 0.065365 0.875473
vt 0.351085 0.868238
vt 0.351085 0.852439
vt 0.401085 0.852439
vt 0.401085 0.868238
s 0
usemtl Palette
f 28/28/1 29/29/1 11/11/1 14/14/1
f 4/4/2 5/5/2 6/6/2 3/3/2
f 8/8/3 7/7/3 6/6/3 5/5/3
f 10/10/4 9/9/4 4/4/4 3/3/4
f 7/7/5 10/10/5 3/3/5 6/6/5
f 9/9/6 8/8/6 5/5/6 4/4/6
f 14/14/7 11/11/7 8/8/7 9/9/7
f 13/13/8 12/12/8 10/10/8 7/7/8
f 12/12/9 14/14/9 9/9/9 10/10/9
f 11/11/10 13/13/10 7/7/10 8/8/10
f 27/27/11 1/1/11 2/2/11 30/30/11
f 2/2/12 1/1/12 12/12/12 13/13/12
f 29/29/13 30/30/13 2/2/13 13/13/13 11/11/13
f 23/23/14 24/24/14 15/15/14 16/16/14
f 18/18/15 19/19/15 22/22/15 17/17/15
f 15/15/16 21/21/16 20/20/16 16/16/16
f 24/24/17 26/26/17 21/21/17 15/15/17
f 23/23/18 25/25/18 19/19/18 18/18/18
f 16/16/19 20/20/19 25/25/19 23/23/19
f 17/17/20 22/22/20 26/26/20 24/24/20
f 18/18/21 17/17/21 24/24/21 23/23/21
f 27/27/22 30/30/22 29/29/22 28/28/22
f 1/1/23 27/27/23 28/28/23 14/14/23 12/12/23
