# Blender 3.4.1
# www.blender.org
mtllib Towel_2.mtl
o Towel_2
v 0.229523 -0.397953 -0.030063
v -0.229523 -0.397953 -0.030063
v 0.229523 -0.397953 0.030063
v -0.229523 -0.397953 0.030063
v 0.229523 0.024808 0.007876
v 0.229523 0.002621 0.030063
v 0.229523 0.018309 0.023564
v 0.229523 0.002621 -0.030063
v 0.229523 0.024808 -0.007876
v 0.229523 0.018309 -0.023564
v -0.229523 0.024808 -0.007876
v -0.229523 0.002621 -0.030063
v -0.229523 0.018309 -0.023564
v -0.229523 0.002621 0.030063
v -0.229523 0.024808 0.007876
v -0.229523 0.018309 0.023564
v -0.119237 -0.397953 0.030063
v -0.119237 -0.397953 -0.030063
v -0.119237 0.024808 0.007876
v -0.119237 0.018309 0.023564
v -0.119237 0.002621 0.030063
v -0.119237 0.002621 -0.030063
v -0.119237 0.018309 -0.023564
v -0.119237 0.024808 -0.007876
v -0.003745 -0.397953 0.030063
v -0.003745 0.018309 0.023564
v -0.003745 0.002621 0.030063
v -0.003745 0.018309 -0.023564
v -0.003745 0.024808 -0.007876
v -0.003745 -0.397953 -0.030063
v -0.003745 0.024808 0.007876
v -0.003745 0.002621 -0.030063
v 0.229523 -0.397953 -0.020063
v -0.229523 -0.397953 -0.020063
v 0.229523 -0.397953 0.020063
v -0.229523 -0.397953 0.020063
v 0.229523 0.014808 0.005887
v 0.229523 0.000632 0.020063
v 0.229523 0.010656 0.015911
v 0.229523 0.000632 -0.020063
v 0.229523 0.014808 -0.005887
v 0.229523 0.010656 -0.015911
v -0.229523 0.014808 -0.005887
v -0.229523 0.000632 -0.020063
v -0.229523 0.010656 -0.015911
v -0.229523 0.000632 0.020063
v -0.229523 0.014808 0.005887
v -0.229523 0.010656 0.015911
v -0.119237 -0.397953 0.020063
v -0.119237 -0.397953 -0.020063
v -0.119237 0.014808 0.005887
v -0.119237 0.010656 0.015911
v -0.119237 0.000632 0.020063
v -0.119237 0.000632 -0.020063
v -0.119237 0.010656 -0.015911
v -0.119237 0.014808 -0.005887
v -0.003745 -0.397953 0.020063
v -0.003745 0.010656 0.015911
v -0.003745 0.000632 0.020063
v -0.003745 0.010656 -0.015911
v -0.003745 0.014808 -0.005887
v -0.003745 -0.397953 -0.020063
v -0.003745 0.014808 0.005887
v -0.003745 0.000632 -0.020063
vn -0.0000 1.0000 -0.0000
vn -0.0000 -0.0000 -1.0000
vn -0.0000 0.9239 0.3827
vn -0.0000 0.3827 0.9239
vn -0.0000 0.3827 -0.9239
vn -0.0000 0.9239 -0.3827
vn -0.0000 -0.0000 1.0000
vn -0.0000 -1.0000 -0.0000
vn -0.0000 -0.9239 -0.3827
vn -0.0000 -0.3827 -0.9239
vn -0.0000 -0.3827 0.9239
vn -0.0000 -0.9239 0.3827
vn 1.0000 -0.0000 -0.0000
vn -1.0000 -0.0000 -0.0000
vt 0.316764 0.987622
vt 0.449068 0.899844
vt 0.316764 0.941562
vt 0.449068 0.853783
vt 0.316764 0.962581
vt 0.316764 0.956109
vt 0.316764 0.956915
vt 0.316764 0.973074
vt 0.316764 0.966603
vt 0.316764 0.972269
vt 0.449068 0.878825
vt 0.449068 0.885296
vt 0.449068 0.884490
vt 0.449068 0.868331
vt 0.449068 0.874802
vt 0.449068 0.869137
vt 0.459490 0.853783
vt 0.543479 0.852036
vt 0.459490 0.899844
vt 0.543479 0.898096
vt 0.459490 0.874802
vt 0.543479 0.873055
vt 0.459490 0.869137
vt 0.543479 0.867389
vt 0.459490 0.868331
vt 0.543479 0.866584
vt 0.459490 0.885296
vt 0.543479 0.883548
vt 0.459490 0.884490
vt 0.543479 0.882743
vt 0.459490 0.878825
vt 0.543479 0.877077
vt 0.285431 0.941562
vt 0.547785 0.852036
vt 0.547785 0.867389
vt 0.285431 0.956915
vt 0.285431 0.956109
vt 0.547785 0.866584
vt 0.547785 0.882743
vt 0.285431 0.972269
vt 0.285431 0.966603
vt 0.547785 0.877077
vt 0.547785 0.898096
vt 0.285431 0.987622
vt 0.285431 0.962581
vt 0.547785 0.873055
vt 0.285431 0.973074
vt 0.547785 0.883548
vt 0.316764 0.987622
vt 0.449068 0.899844
vt 0.316764 0.941562
vt 0.449068 0.853783
vt 0.316764 0.962581
vt 0.316764 0.956109
vt 0.316764 0.956915
vt 0.316764 0.973074
vt 0.316764 0.966603
vt 0.316764 0.972269
vt 0.449068 0.878825
vt 0.449068 0.885296
vt 0.449068 0.884490
vt 0.449068 0.868331
vt 0.449068 0.874802
vt 0.449068 0.869137
vt 0.459490 0.853783
vt 0.543479 0.852036
vt 0.459490 0.899844
vt 0.543479 0.898096
vt 0.459490 0.874802
vt 0.543479 0.873055
vt 0.459490 0.869137
vt 0.543479 0.867389
vt 0.459490 0.868331
vt 0.543479 0.866584
vt 0.459490 0.885296
vt 0.543479 0.883548
vt 0.459490 0.884490
vt 0.543479 0.882743
vt 0.459490 0.878825
vt 0.543479 0.877077
vt 0.285431 0.941562
vt 0.547785 0.852036
vt 0.547785 0.867389
vt 0.285431 0.956915
vt 0.285431 0.956109
vt 0.547785 0.866584
vt 0.547785 0.882743
vt 0.285431 0.972269
vt 0.285431 0.966603
vt 0.547785 0.877077
vt 0.547785 0.898096
vt 0.285431 0.987622
vt 0.285431 0.962581
vt 0.547785 0.873055
vt 0.285431 0.973074
vt 0.547785 0.883548
s 0
usemtl Palette
f 31/45/1 5/5/1 9/9/1 29/41/1
f 32/47/2 8/8/2 1/1/2 30/44/2
f 19/21/3 15/15/3 16/16/3 20/23/3
f 20/23/4 16/16/4 14/14/4 21/25/4
f 22/27/5 12/12/5 13/13/5 23/29/5
f 23/29/6 13/13/6 11/11/6 24/31/6
f 25/33/7 3/3/7 6/6/7 27/37/7
f 4/4/7 17/17/7 21/25/7 14/14/7
f 28/39/6 23/30/6 24/32/6 29/42/6
f 32/48/5 22/28/5 23/30/5 28/39/5
f 26/35/4 20/24/4 21/26/4 27/38/4
f 31/46/3 19/22/3 20/24/3 26/35/3
f 12/12/2 22/27/2 18/19/2 2/2/2
f 15/15/1 19/21/1 24/31/1 11/11/1
f 5/5/3 31/45/3 26/36/3 7/7/3
f 7/7/4 26/36/4 27/37/4 6/6/4
f 8/8/5 32/47/5 28/40/5 10/10/5
f 10/10/6 28/40/6 29/41/6 9/9/6
f 17/18/7 25/34/7 27/38/7 21/26/7
f 22/28/2 32/48/2 30/43/2 18/20/2
f 19/22/1 31/46/1 29/42/1 24/32/1
f 63/93/8 61/89/8 41/57/8 37/53/8
f 64/95/7 62/92/7 33/49/7 40/56/7
f 51/69/9 52/71/9 48/64/9 47/63/9
f 52/71/10 53/73/10 46/62/10 48/64/10
f 54/75/11 55/77/11 45/61/11 44/60/11
f 55/77/12 56/79/12 43/59/12 45/61/12
f 57/81/2 59/85/2 38/54/2 35/51/2
f 36/52/2 46/62/2 53/73/2 49/65/2
f 60/87/12 61/90/12 56/80/12 55/78/12
f 64/96/11 60/87/11 55/78/11 54/76/11
f 58/83/10 59/86/10 53/74/10 52/72/10
f 63/94/9 58/83/9 52/72/9 51/70/9
f 44/60/7 34/50/7 50/67/7 54/75/7
f 47/63/8 43/59/8 56/79/8 51/69/8
f 37/53/9 39/55/9 58/84/9 63/93/9
f 39/55/10 38/54/10 59/85/10 58/84/10
f 40/56/11 42/58/11 60/88/11 64/95/11
f 42/58/12 41/57/12 61/89/12 60/88/12
f 49/66/2 53/74/2 59/86/2 57/82/2
f 54/76/7 50/68/7 62/91/7 64/96/7
f 51/70/8 56/80/8 61/90/8 63/94/8
f 3/3/8 25/33/8 57/81/8 35/51/8
f 2/2/8 18/19/8 50/67/8 34/50/8
f 5/5/13 7/7/13 39/55/13 37/53/13
f 16/16/14 15/15/14 47/63/14 48/64/14
f 7/7/13 6/6/13 38/54/13 39/55/13
f 14/14/14 16/16/14 48/64/14 46/62/14
f 8/8/13 10/10/13 42/58/13 40/56/13
f 13/13/14 12/12/14 44/60/14 45/61/14
f 10/10/13 9/9/13 41/57/13 42/58/13
f 11/11/14 13/13/14 45/61/14 43/59/14
f 4/4/14 14/14/14 46/62/14 36/52/14
f 6/6/13 3/3/13 35/51/13 38/54/13
f 15/15/14 11/11/14 43/59/14 47/63/14
f 9/9/13 5/5/13 37/53/13 41/57/13
f 12/12/14 2/2/14 34/50/14 44/60/14
f 1/1/13 8/8/13 40/56/13 33/49/13
f 17/17/8 4/4/8 36/52/8 49/65/8
f 18/20/8 30/43/8 62/91/8 50/68/8
f 25/34/8 17/18/8 49/66/8 57/82/8
f 30/44/8 1/1/8 33/49/8 62/92/8
