# Blender 3.4.1
# www.blender.org
mtllib Toy_House.mtl
o Toy_House
v -0.073599 0.000000 0.073599
v 0.073599 0.000000 0.073599
v -0.073599 0.000000 -0.073599
v 0.073599 0.000000 -0.073599
v -0.073599 0.155575 -0.073599
v -0.073599 0.155575 0.073599
v 0.073599 0.155575 0.073599
v 0.073599 0.155575 -0.073599
v -0.093449 0.145143 -0.093449
v -0.093449 0.145143 0.093449
v 0.093449 0.145143 0.093449
v 0.093449 0.145143 -0.093449
v 0.000000 0.230832 0.000000
v -0.044461 0.000000 0.079086
v 0.002429 0.000000 0.079086
v -0.044461 0.097185 0.079086
v 0.002429 0.097185 0.079086
v -0.044461 0.000000 0.067980
v 0.002429 0.000000 0.067980
v -0.044461 0.097185 0.067980
v 0.002429 0.097185 0.067980
v 0.021828 0.077805 0.077569
v 0.057792 0.077805 0.077569
v 0.021828 0.118164 0.077569
v 0.057792 0.118164 0.077569
v 0.016366 0.072097 0.066463
v 0.063255 0.072097 0.066463
v 0.016366 0.123873 0.066463
v 0.063255 0.123873 0.066463
v 0.016366 0.072097 0.077569
v 0.063255 0.072097 0.077569
v 0.016366 0.123873 0.077569
v 0.063255 0.123873 0.077569
v -0.007751 0.049936 0.081559
v 0.000503 0.049936 0.081559
v -0.007751 0.054871 0.081559
v 0.000503 0.054871 0.081559
v -0.007751 0.049936 0.076801
v 0.000503 0.049936 0.076801
v -0.007751 0.054871 0.076801
v 0.000503 0.054871 0.076801
v -0.021555 0.077805 -0.079061
v -0.057519 0.077805 -0.079061
v -0.021555 0.118164 -0.079061
v -0.057519 0.118164 -0.079061
v -0.016092 0.072097 -0.067955
v -0.062982 0.072097 -0.067955
v -0.016092 0.123873 -0.067955
v -0.062982 0.123873 -0.067955
v -0.016092 0.072097 -0.079061
v -0.062982 0.072097 -0.079061
v -0.016092 0.123873 -0.079061
v -0.062982 0.123873 -0.079061
v -0.078236 0.077805 -0.017982
v -0.078236 0.077805 0.017982
v -0.078236 0.118164 -0.017982
v -0.078236 0.118164 0.017982
v -0.067131 0.072097 -0.023445
v -0.067131 0.072097 0.023445
v -0.067131 0.123873 -0.023445
v -0.067131 0.123873 0.023445
v -0.078236 0.072097 -0.023445
v -0.078236 0.072097 0.023445
v -0.078236 0.123873 -0.023445
v -0.078236 0.123873 0.023445
v -0.075863 -0.002879 0.075863
v 0.075863 -0.002879 0.075863
v -0.075863 -0.002879 -0.075863
v 0.075863 -0.002879 -0.075863
v -0.075863 0.014880 -0.075863
v -0.075863 0.014880 0.075863
v 0.075863 0.014880 0.075863
v 0.075863 0.014880 -0.075863
v -0.061835 0.207467 -0.013952
v -0.044896 0.207467 -0.013952
v -0.061835 0.207467 -0.030892
v -0.044896 0.207467 -0.030892
v -0.064631 0.191989 -0.033688
v -0.064631 0.191989 -0.011157
v -0.042100 0.191989 -0.011157
v -0.042100 0.191989 -0.033688
v -0.067476 0.195822 -0.036533
v -0.067476 0.195822 -0.008312
v -0.039255 0.195822 -0.008312
v -0.039255 0.195822 -0.036533
v -0.064631 0.149709 -0.033688
v -0.064631 0.149709 -0.011157
v -0.042100 0.149709 -0.011157
v -0.042100 0.149709 -0.033688
v -0.067476 0.207467 -0.036533
v -0.067476 0.207467 -0.008312
v -0.039255 0.207467 -0.008312
v -0.039255 0.207467 -0.036533
v -0.061835 0.204375 -0.030892
v -0.061835 0.204375 -0.013952
v -0.044896 0.204375 -0.013952
v -0.044896 0.204375 -0.030892
vn -0.0000 1.0000 -0.0000
vn 1.0000 -0.0000 -0.0000
vn -1.0000 -0.0000 -0.0000
vn -0.0000 -0.0000 -1.0000
vn -0.0000 -0.0000 1.0000
vn -0.0000 -1.0000 -0.0000
vn -0.0000 0.7370 -0.6758
vn -0.0000 0.7370 0.6758
vn 0.6758 0.7370 -0.0000
vn -0.6758 0.7370 -0.0000
vn -0.8030 -0.5960 -0.0000
vn -0.0000 -0.5960 0.8030
vn 0.8030 -0.5960 -0.0000
vn -0.0000 -0.5960 -0.8030
vt 0.016326 0.850444
vt 0.066326 0.850444
vt 0.016326 0.900444
vt 0.066326 0.900444
vt 0.016326 0.900444
vt 0.016326 0.850444
vt 0.066326 0.850444
vt 0.066326 0.900444
vt 0.351963 0.903165
vt 0.351963 0.853165
vt 0.401963 0.853165
vt 0.401963 0.903165
vt 0.401963 0.903165
vt 0.351963 0.853165
vt 0.401963 0.853165
vt 0.351963 0.903165
vt 0.025547 0.870130
vt 0.862395 0.632207
vt 0.887389 0.632207
vt 0.050542 0.870130
vt 0.862395 0.632207
vt 0.887389 0.632207
vt 0.025547 0.870130
vt 0.862395 0.632207
vt 0.887389 0.632207
vt 0.050542 0.870130
vt 0.862395 0.632207
vt 0.887389 0.632207
vt 0.703209 0.873197
vt 0.032629 0.971796
vt 0.720310 0.873197
vt 0.053939 0.971796
vt 0.703209 0.873197
vt 0.032629 0.971796
vt 0.720310 0.873197
vt 0.053939 0.971796
vt 0.040630 0.975077
vt 0.030787 0.971796
vt 0.055781 0.971796
vt 0.065624 0.975077
vt 0.030787 0.971796
vt 0.055781 0.971796
vt 0.040630 0.975077
vt 0.030787 0.971796
vt 0.065624 0.975077
vt 0.055781 0.971796
vt 0.030787 0.971796
vt 0.055781 0.971796
vt 0.361005 0.940599
vt 0.385999 0.940599
vt 0.361005 0.940599
vt 0.385999 0.940599
vt 0.361005 0.940599
vt 0.385999 0.940599
vt 0.361005 0.940599
vt 0.385999 0.940599
vt 0.703209 0.873197
vt 0.032629 0.971796
vt 0.720310 0.873197
vt 0.053939 0.971796
vt 0.703209 0.873197
vt 0.032629 0.971796
vt 0.720310 0.873197
vt 0.053939 0.971796
vt 0.040630 0.975077
vt 0.030787 0.971796
vt 0.055781 0.971796
vt 0.065624 0.975077
vt 0.030787 0.971796
vt 0.055781 0.971796
vt 0.040630 0.975077
vt 0.030787 0.971796
vt 0.065624 0.975077
vt 0.055781 0.971796
vt 0.030787 0.971796
vt 0.055781 0.971796
vt 0.703209 0.873197
vt 0.032629 0.971796
vt 0.720310 0.873197
vt 0.053939 0.971796
vt 0.703209 0.873197
vt 0.032629 0.971796
vt 0.720310 0.873197
vt 0.053939 0.971796
vt 0.040630 0.975077
vt 0.030787 0.971796
vt 0.055781 0.971796
vt 0.065624 0.975077
vt 0.030787 0.971796
vt 0.055781 0.971796
vt 0.040630 0.975077
vt 0.030787 0.971796
vt 0.065624 0.975077
vt 0.055781 0.971796
vt 0.030787 0.971796
vt 0.055781 0.971796
vt 0.101633 0.856955
vt 0.151633 0.856955
vt 0.101633 0.906955
vt 0.151633 0.906955
vt 0.101633 0.906955
vt 0.101633 0.856955
vt 0.151633 0.856955
vt 0.151633 0.906955
vt 0.194278 0.775126
vt 0.111627 0.866949
vt 0.224290 0.775126
vt 0.141639 0.866949
vt 0.194278 0.805138
vt 0.111627 0.896960
vt 0.224290 0.805138
vt 0.141639 0.896960
vt 0.194209 0.805207
vt 0.111558 0.897029
vt 0.194209 0.775057
vt 0.111558 0.866880
vt 0.224359 0.775057
vt 0.141708 0.866880
vt 0.224359 0.805207
vt 0.141708 0.897029
vt 0.184284 0.815132
vt 0.184284 0.765132
vt 0.234284 0.765132
vt 0.234284 0.815132
vt 0.111558 0.897029
vt 0.111558 0.866880
vt 0.141708 0.866880
vt 0.141708 0.897029
vt 0.184284 0.815132
vt 0.184284 0.765132
vt 0.234284 0.765132
vt 0.234284 0.815132
vt 0.116697 0.964259
vt 0.111627 0.896960
vt 0.116697 0.934248
vt 0.111627 0.866949
vt 0.146709 0.934248
vt 0.141639 0.866949
vt 0.146709 0.964259
vt 0.141639 0.896960
s 0
usemtl Palette
f 6/6/1 7/7/1 8/8/1 5/5/1
f 2/2/2 4/4/2 8/8/2 7/7/2
f 3/3/3 1/1/3 6/6/3 5/5/3
f 4/4/4 3/3/4 5/5/4 8/8/4
f 1/1/5 2/2/5 7/7/5 6/6/5
f 10/10/6 9/9/6 12/12/6 11/11/6
f 12/12/7 9/9/7 13/13/7
f 10/10/8 11/11/8 13/14/8
f 11/11/9 12/12/9 13/15/9
f 9/9/10 10/10/10 13/16/10
f 14/18/5 15/19/5 17/22/5 16/21/5
f 15/19/2 19/25/2 21/28/2 17/22/2
f 14/17/6 18/23/6 19/26/6 15/20/6
f 16/21/3 20/27/3 18/24/3 14/18/3
f 17/22/1 21/28/1 20/27/1 16/21/1
f 22/29/5 23/31/5 25/35/5 24/33/5
f 31/46/2 27/39/2 29/42/2 33/48/2
f 30/43/6 26/37/6 27/40/6 31/45/6
f 32/47/3 28/41/3 26/38/3 30/44/3
f 33/48/1 29/42/1 28/41/1 32/47/1
f 22/30/5 30/44/5 31/46/5 23/32/5
f 25/36/5 33/48/5 32/47/5 24/34/5
f 23/32/5 31/46/5 33/48/5 25/36/5
f 24/34/5 32/47/5 30/44/5 22/30/5
f 34/49/5 35/50/5 37/52/5 36/51/5
f 35/50/6 34/49/6 38/53/6 39/54/6
f 34/49/3 36/51/3 40/55/3 38/53/3
f 36/51/1 37/52/1 41/56/1 40/55/1
f 37/52/2 35/50/2 39/54/2 41/56/2
f 42/57/4 43/59/4 45/63/4 44/61/4
f 51/74/3 47/67/3 49/70/3 53/76/3
f 50/71/6 46/65/6 47/68/6 51/73/6
f 52/75/2 48/69/2 46/66/2 50/72/2
f 53/76/1 49/70/1 48/69/1 52/75/1
f 42/58/4 50/72/4 51/74/4 43/60/4
f 45/64/4 53/76/4 52/75/4 44/62/4
f 43/60/4 51/74/4 53/76/4 45/64/4
f 44/62/4 52/75/4 50/72/4 42/58/4
f 54/77/3 55/79/3 57/83/3 56/81/3
f 63/94/5 59/87/5 61/90/5 65/96/5
f 62/91/6 58/85/6 59/88/6 63/93/6
f 64/95/4 60/89/4 58/86/4 62/92/4
f 65/96/1 61/90/1 60/89/1 64/95/1
f 54/78/3 62/92/3 63/94/3 55/80/3
f 57/84/3 65/96/3 64/95/3 56/82/3
f 55/80/3 63/94/3 65/96/3 57/84/3
f 56/82/3 64/95/3 62/92/3 54/78/3
f 66/97/6 68/99/6 69/100/6 67/98/6
f 71/102/1 72/103/1 73/104/1 70/101/1
f 66/97/3 71/102/3 70/101/3 68/99/3
f 68/99/4 70/101/4 73/104/4 69/100/4
f 67/98/5 72/103/5 71/102/5 66/97/5
f 69/100/2 73/104/2 72/103/2 67/98/2
f 77/112/3 97/140/3 96/138/3 75/108/3
f 81/120/4 89/128/4 86/125/4 78/114/4
f 93/132/4 85/124/4 82/121/4 90/129/4
f 91/130/5 83/122/5 84/123/5 92/131/5
f 92/131/2 84/123/2 85/124/2 93/132/2
f 90/129/3 82/121/3 83/122/3 91/130/3
f 79/115/11 83/122/11 82/121/11 78/113/11
f 80/117/12 84/123/12 83/122/12 79/115/12
f 81/119/13 85/124/13 84/123/13 80/117/13
f 78/113/14 82/121/14 85/124/14 81/119/14
f 79/116/5 87/126/5 88/127/5 80/118/5
f 80/118/2 88/127/2 89/128/2 81/120/2
f 78/114/3 86/125/3 87/126/3 79/116/3
f 76/109/1 90/129/1 91/130/1 74/105/1
f 74/105/1 91/130/1 92/131/1 75/107/1
f 75/107/1 92/131/1 93/132/1 77/111/1
f 77/111/1 93/132/1 90/129/1 76/109/1
f 95/135/1 96/137/1 97/139/1 94/133/1
f 74/106/2 95/136/2 94/134/2 76/110/2
f 76/110/5 94/134/5 97/140/5 77/112/5
f 75/108/4 96/138/4 95/136/4 74/106/4
