# Blender 3.4.1
# www.blender.org
mtllib Toy_Figure_3.mtl
o Toy_Figure_3
v 0.012536 0.089382 -0.012631
v 0.012536 0.089382 0.012670
v 0.016144 0.000000 0.012903
v 0.016144 0.000000 -0.012962
v 0.019456 0.086685 -0.018636
v 0.019456 0.086685 0.020158
v 0.012536 0.111416 -0.012631
v 0.012536 0.111416 0.012670
v 0.026052 0.037917 0.008468
v 0.026052 0.037917 -0.008504
v 0.030310 0.083110 -0.011543
v 0.030310 0.083110 0.011557
v 0.018288 0.084243 0.011557
v 0.014029 0.039050 0.008468
v 0.018288 0.084243 -0.011543
v 0.014029 0.039050 -0.008504
v 0.027130 0.049366 0.009250
v 0.027130 0.049366 -0.009274
v 0.015108 0.050499 0.009250
v 0.015108 0.050499 -0.009274
v 0.018972 0.044691 0.016535
v 0.018972 0.044691 -0.015654
v 0.016974 0.011057 0.013486
v 0.016974 0.011057 -0.013535
v 0.020800 0.073801 0.021119
v 0.020800 0.073801 -0.018419
v 0.013705 0.084953 -0.017122
v 0.013705 0.111416 0.015028
v 0.013705 0.115592 -0.014990
v 0.013705 0.115592 0.015028
v -0.012536 0.089382 -0.012631
v -0.012536 0.089382 0.012670
v -0.016144 0.000000 0.012903
v -0.016144 0.000000 -0.012962
v -0.019456 0.086685 -0.018636
v -0.019456 0.086685 0.020158
v -0.012536 0.111416 -0.012631
v -0.012536 0.111416 0.012670
v -0.026052 0.037917 0.008468
v -0.026052 0.037917 -0.008504
v -0.030310 0.083110 -0.011543
v -0.030310 0.083110 0.011557
v -0.018288 0.084243 0.011557
v -0.014029 0.039050 0.008468
v -0.018288 0.084243 -0.011543
v -0.014029 0.039050 -0.008504
v -0.027130 0.049366 0.009250
v -0.027130 0.049366 -0.009274
v -0.015108 0.050499 0.009250
v -0.015108 0.050499 -0.009274
v -0.018972 0.044691 0.016535
v -0.018972 0.044691 -0.015654
v -0.016974 0.011057 0.013486
v -0.016974 0.011057 -0.013535
v -0.020800 0.073801 0.021119
v -0.020800 0.073801 -0.018419
v 0.000000 0.111416 0.015028
v 0.000000 0.084953 -0.018699
v -0.013705 0.084953 -0.017122
v -0.013705 0.111416 0.015028
v 0.000000 0.117406 0.015028
v 0.000000 0.117406 -0.016566
v -0.013705 0.115592 -0.014990
v -0.013705 0.115592 0.015028
vn -0.0000 -1.0000 -0.0000
vn -0.0000 -0.0000 -1.0000
vn -0.0000 0.9122 -0.4097
vn 0.9946 0.1038 -0.0000
vn -0.0000 0.9408 0.3388
vn -0.0000 1.0000 -0.0000
vn 0.3631 0.9317 -0.0000
vn -0.0000 -0.0000 1.0000
vn 1.0000 -0.0000 -0.0000
vn -0.0000 -0.1555 0.9878
vn 0.9956 -0.0938 -0.0000
vn -0.0938 -0.9956 -0.0000
vn -0.0063 -0.0665 -0.9978
vn 0.0938 0.9956 -0.0000
vn -0.0064 -0.0676 0.9977
vn 0.9982 -0.0593 -0.0000
vn -0.0000 -0.0903 0.9959
vn -0.0000 -0.0518 -0.9987
vn -0.0000 -0.0168 -0.9999
vn -0.0000 -0.0946 -0.9955
vn 0.9972 -0.0749 -0.0000
vn 0.9980 -0.0627 -0.0000
vn -0.0000 0.0744 0.9972
vn -0.0000 -0.0629 -0.9980
vn -0.0360 -0.7791 0.6259
vn 0.1312 0.9914 -0.0000
vn 0.1184 0.0670 -0.9907
vn -0.9946 0.1038 -0.0000
vn -0.3631 0.9317 -0.0000
vn -1.0000 -0.0000 -0.0000
vn -0.9956 -0.0938 -0.0000
vn 0.0938 -0.9956 -0.0000
vn 0.0063 -0.0665 -0.9978
vn -0.0938 0.9956 -0.0000
vn 0.0064 -0.0676 0.9977
vn -0.9982 -0.0593 -0.0000
vn -0.9972 -0.0749 -0.0000
vn -0.9980 -0.0627 -0.0000
vn 0.0360 -0.7791 0.6259
vn -0.1312 0.9914 -0.0000
vn -0.1184 0.0670 -0.9907
vn -0.0000 -0.0526 0.9986
vt 0.291497 0.889732
vt 0.474841 0.630969
vt 0.291497 0.863338
vt 0.474841 0.604575
vt 0.133489 0.863107
vt 0.133489 0.905056
vt 0.296988 0.897510
vt 0.296988 0.855561
vt 0.474841 0.630969
vt 0.474841 0.604575
vt 0.454083 0.600079
vt 0.454083 0.642027
vt 0.296988 0.897510
vt 0.296988 0.855561
vt 0.296988 0.855561
vt 0.454083 0.600079
vt 0.296988 0.897510
vt 0.454083 0.642027
vt 0.296988 0.856060
vt 0.454083 0.600578
vt 0.296988 0.897011
vt 0.454083 0.641529
vt 0.454083 0.600079
vt 0.296988 0.855561
vt 0.296988 0.897510
vt 0.454083 0.642027
vt 0.458405 0.692071
vt 0.296988 0.855561
vt 0.296988 0.897510
vt 0.458405 0.734019
vt 0.458204 0.692071
vt 0.133288 0.863107
vt 0.133288 0.905056
vt 0.458204 0.734019
vt 0.297032 0.855561
vt 0.297032 0.897510
vt 0.309246 0.971080
vt 0.309246 0.944687
vt 0.309246 0.971080
vt 0.309246 0.944687
vt 0.291497 0.889732
vt 0.474841 0.630969
vt 0.291497 0.863338
vt 0.474841 0.604575
vt 0.133489 0.863107
vt 0.133489 0.905056
vt 0.296988 0.897510
vt 0.296988 0.855561
vt 0.474841 0.630969
vt 0.474841 0.604575
vt 0.454083 0.600079
vt 0.454083 0.642027
vt 0.296988 0.897510
vt 0.296988 0.855561
vt 0.296988 0.855561
vt 0.454083 0.600079
vt 0.296988 0.897510
vt 0.454083 0.642027
vt 0.296988 0.856060
vt 0.454083 0.600578
vt 0.296988 0.897011
vt 0.454083 0.641529
vt 0.454083 0.600079
vt 0.296988 0.855561
vt 0.296988 0.897510
vt 0.454083 0.642027
vt 0.458405 0.692071
vt 0.296988 0.855561
vt 0.458405 0.734019
vt 0.296988 0.897510
vt 0.458204 0.692071
vt 0.133288 0.863107
vt 0.458204 0.734019
vt 0.133288 0.905056
vt 0.297032 0.855561
vt 0.297032 0.897510
vt 0.297668 0.944687
vt 0.297668 0.971080
vt 0.309246 0.971080
vt 0.309246 0.944687
vt 0.297668 0.944687
vt 0.297668 0.971080
vt 0.309246 0.971080
vt 0.309246 0.944687
s 0
usemtl Palette
f 3/5/1 33/45/1 34/46/1 4/6/1
f 31/42/2 37/49/2 7/9/2 1/2/2
f 5/7/3 35/47/3 31/41/3 1/1/3
f 25/35/4 26/36/4 5/7/4 6/8/4
f 32/43/5 36/48/5 6/8/5 2/3/5
f 7/9/6 37/49/6 38/50/6 8/10/6
f 1/1/7 2/3/7 6/8/7 5/7/7
f 8/10/8 38/50/8 32/44/8 2/4/8
f 2/4/9 1/2/9 7/9/9 8/10/9
f 25/35/10 55/75/10 51/68/10 21/28/10
f 17/19/11 18/21/11 11/13/11 12/14/11
f 9/11/12 14/16/12 16/18/12 10/12/12
f 18/21/13 20/25/13 15/17/13 11/13/13
f 11/13/14 15/17/14 13/15/14 12/14/14
f 17/20/15 19/23/15 14/16/15 9/11/15
f 12/14/15 13/15/15 19/24/15 17/19/15
f 10/12/13 16/18/13 20/26/13 18/22/13
f 9/11/11 10/12/11 18/22/11 17/20/11
f 23/31/16 24/34/16 22/30/16 21/27/16
f 21/27/17 51/67/17 53/71/17 23/31/17
f 34/46/18 54/74/18 24/33/18 4/6/18
f 56/76/19 35/47/19 5/7/19 26/36/19
f 52/70/20 56/76/20 26/36/20 22/29/20
f 3/5/21 4/6/21 24/33/21 23/32/21
f 21/28/22 22/29/22 26/36/22 25/35/22
f 6/8/23 36/48/23 55/75/23 25/35/23
f 54/73/24 52/69/24 22/30/24 24/34/24
f 57/77/25 58/78/25 27/37/25 28/38/25
f 61/81/26 30/40/26 29/39/26 62/82/26
f 27/37/27 58/78/27 62/82/27 29/39/27
f 57/77/8 28/38/8 30/40/8 61/81/8
f 28/38/9 27/37/9 29/39/9 30/40/9
f 55/75/28 36/48/28 35/47/28 56/76/28
f 31/41/29 35/47/29 36/48/29 32/43/29
f 32/44/30 38/50/30 37/49/30 31/42/30
f 47/59/31 42/54/31 41/53/31 48/61/31
f 39/51/32 40/52/32 46/58/32 44/56/32
f 48/61/33 41/53/33 45/57/33 50/65/33
f 41/53/34 42/54/34 43/55/34 45/57/34
f 47/60/35 39/51/35 44/56/35 49/63/35
f 42/54/35 47/59/35 49/64/35 43/55/35
f 40/52/33 48/62/33 50/66/33 46/58/33
f 39/51/31 47/60/31 48/62/31 40/52/31
f 53/71/36 51/67/36 52/69/36 54/73/36
f 33/45/37 53/72/37 54/74/37 34/46/37
f 51/68/38 55/75/38 56/76/38 52/70/38
f 57/77/39 60/80/39 59/79/39 58/78/39
f 61/81/40 62/82/40 63/83/40 64/84/40
f 59/79/41 63/83/41 62/82/41 58/78/41
f 57/77/8 61/81/8 64/84/8 60/80/8
f 60/80/30 64/84/30 63/83/30 59/79/30
f 23/32/42 53/72/42 33/45/42 3/5/42
