# Blender 3.4.1
# www.blender.org
mtllib TrashBin.mtl
o TrashBin
v 0.127549 0.508639 0.132323
v 0.127549 0.508639 -0.133129
v -0.127549 0.508639 0.132323
v -0.127549 0.508639 -0.133129
v -0.127549 0.066599 0.132323
v 0.127549 0.066599 0.132323
v 0.127549 0.066599 -0.133129
v -0.127549 0.066599 -0.133129
v -0.145120 -0.006297 0.127117
v -0.122343 -0.006297 0.149894
v -0.138449 -0.006297 0.143223
v -0.122343 -0.006297 -0.150700
v -0.145120 -0.006297 -0.127923
v -0.138449 -0.006297 -0.144029
v 0.122343 -0.006297 0.149894
v 0.145120 -0.006297 0.127117
v 0.138449 -0.006297 0.143223
v 0.145120 -0.006297 -0.127923
v 0.122343 -0.006297 -0.150700
v 0.138449 -0.006297 -0.144029
v -0.122343 0.508639 0.149894
v -0.145120 0.508639 0.127117
v -0.129015 0.508639 0.133788
v -0.138449 0.508639 0.143223
v 0.145120 0.508639 0.127117
v 0.122343 0.508639 0.149894
v 0.129015 0.508639 0.133788
v 0.138449 0.508639 0.143223
v 0.122343 0.508639 -0.150700
v 0.145120 0.508639 -0.127923
v 0.129015 0.508639 -0.134595
v 0.138449 0.508639 -0.144029
v -0.145120 0.508639 -0.127923
v -0.122343 0.508639 -0.150700
v -0.129015 0.508639 -0.134595
v -0.138449 0.508639 -0.144029
v -0.038592 0.498518 -0.158791
v 0.038592 0.498518 -0.158791
v 0.038592 0.525538 -0.131183
v 0.038592 0.498518 -0.131183
v -0.038592 0.498518 -0.131183
v -0.038592 0.525538 -0.131183
v 0.038592 0.521379 -0.158791
v 0.038592 0.525538 -0.154632
v -0.038592 0.525538 -0.154632
v -0.038592 0.521379 -0.158791
v -0.055199 -0.001110 0.181329
v 0.055199 -0.001110 0.181329
v -0.055199 0.029356 0.194297
v 0.055199 0.029356 0.194297
v -0.055199 0.029356 0.116727
v -0.055199 -0.001110 0.116727
v 0.055199 -0.001110 0.116727
v 0.055199 0.029356 0.116727
vn -0.0000 -0.0000 -1.0000
vn -0.0000 1.0000 -0.0000
vn 1.0000 -0.0000 -0.0000
vn -0.0000 -1.0000 -0.0000
vn -1.0000 -0.0000 -0.0000
vn -0.0000 -0.0000 1.0000
vn -0.3827 -0.0000 0.9239
vn -0.9239 -0.0000 0.3827
vn 0.3827 -0.0000 -0.9239
vn 0.9239 -0.0000 -0.3827
vn 0.3827 -0.0000 0.9239
vn 0.9239 -0.0000 0.3827
vn -0.3827 -0.0000 -0.9239
vn -0.9239 -0.0000 -0.3827
vn -0.0000 0.7071 -0.7071
vn -0.0000 -0.3917 0.9201
vt 0.297578 0.802467
vt 0.297578 0.784047
vt 0.279244 0.802467
vt 0.279244 0.784047
vt 0.279244 0.802467
vt 0.297578 0.802467
vt 0.297578 0.784047
vt 0.279244 0.784047
vt 0.277981 0.802106
vt 0.279618 0.803687
vt 0.278141 0.803532
vt 0.279618 0.782827
vt 0.277981 0.784408
vt 0.278141 0.782982
vt 0.297204 0.803687
vt 0.298841 0.802106
vt 0.298681 0.803532
vt 0.298841 0.784408
vt 0.297204 0.782827
vt 0.298681 0.782982
vt 0.279618 0.803687
vt 0.277981 0.803687
vt 0.277981 0.802106
vt 0.279139 0.802569
vt 0.278461 0.803687
vt 0.277981 0.803687
vt 0.298841 0.802106
vt 0.298841 0.803687
vt 0.297204 0.803687
vt 0.297683 0.802569
vt 0.298841 0.803224
vt 0.298841 0.803687
vt 0.297204 0.782827
vt 0.298841 0.782827
vt 0.298841 0.784408
vt 0.297683 0.783945
vt 0.298361 0.782827
vt 0.298841 0.782827
vt 0.277981 0.784408
vt 0.277981 0.782827
vt 0.279618 0.782827
vt 0.279139 0.783945
vt 0.277981 0.783290
vt 0.277981 0.782827
vt 0.279618 0.782827
vt 0.297204 0.782827
vt 0.297204 0.782827
vt 0.297204 0.782827
vt 0.279618 0.782827
vt 0.279618 0.782827
vt 0.297204 0.782827
vt 0.297204 0.782827
vt 0.279618 0.782827
vt 0.279618 0.782827
vt 0.044567 0.966905
vt 0.062152 0.966905
vt 0.044567 0.966905
vt 0.062152 0.966905
vt 0.044567 0.966905
vt 0.044567 0.966905
vt 0.062152 0.966905
vt 0.062152 0.966905
s 0
usemtl Palette
f 12/12/1 34/41/1 29/33/1 19/19/1
f 3/3/2 23/24/2 21/21/2 26/29/2 27/30/2 1/1/2
f 18/18/3 30/35/3 25/27/3 16/16/3
f 12/12/4 19/19/4 20/20/4 18/18/4 16/16/4 17/17/4 15/15/4 10/10/4 11/11/4 9/9/4 13/13/4 14/14/4
f 2/2/5 7/7/5 6/6/5 1/1/5
f 15/15/6 26/29/6 21/21/6 10/10/6
f 4/4/2 35/42/2 33/39/2 22/23/2 23/24/2 3/3/2
f 1/1/2 27/30/2 25/27/2 30/35/2 31/36/2 2/2/2
f 2/2/2 31/36/2 29/33/2 34/41/2 35/42/2 4/4/2
f 8/8/2 5/5/2 6/6/2 7/7/2
f 4/4/6 8/8/6 7/7/6 2/2/6
f 3/3/3 5/5/3 8/8/3 4/4/3
f 1/1/1 6/6/1 5/5/1 3/3/1
f 21/21/2 23/24/2 24/25/2
f 24/25/2 23/24/2 22/22/2
f 25/27/2 27/30/2 28/31/2
f 28/31/2 27/30/2 26/28/2
f 29/33/2 31/36/2 32/37/2
f 32/37/2 31/36/2 30/34/2
f 33/39/2 35/42/2 36/43/2
f 36/43/2 35/42/2 34/40/2
f 21/21/7 24/26/7 11/11/7 10/10/7
f 24/26/8 22/23/8 9/9/8 11/11/8
f 29/33/9 32/38/9 20/20/9 19/19/9
f 32/38/10 30/35/10 18/18/10 20/20/10
f 15/15/11 17/17/11 28/32/11 26/29/11
f 17/17/12 16/16/12 25/27/12 28/32/12
f 12/12/13 14/14/13 36/44/13 34/41/13
f 14/14/14 13/13/14 33/39/14 36/44/14
f 9/9/5 22/23/5 33/39/5 13/13/5
f 44/52/2 45/53/2 42/50/2 39/47/2
f 41/49/6 40/48/6 39/47/6 42/50/6
f 37/45/4 38/46/4 40/48/4 41/49/4
f 37/45/1 46/54/1 43/51/1 38/46/1
f 45/53/5 46/54/5 37/45/5 41/49/5 42/50/5
f 43/51/15 46/54/15 45/53/15 44/52/15
f 38/46/3 43/51/3 44/52/3 39/47/3 40/48/3
f 48/56/16 50/58/16 49/57/16 47/55/16
f 48/56/4 47/55/4 52/60/4 53/61/4
f 47/55/5 49/57/5 51/59/5 52/60/5
f 49/57/2 50/58/2 54/62/2 51/59/2
f 50/58/3 48/56/3 53/61/3 54/62/3
