# Blender 3.4.1
# www.blender.org
mtllib TV_1.mtl
o TV_1
v 0.331315 0.121184 -0.033820
v 0.331315 0.481393 -0.033820
v 0.436905 0.138623 0.085120
v 0.436905 0.596920 0.085120
v 0.454344 0.121184 0.014229
v 0.454344 0.614359 0.014229
v 0.046661 0.010738 -0.004353
v 0.046661 0.152232 0.031172
v 0.046661 0.010738 -0.029497
v 0.046661 0.152232 0.006027
v 0.156363 -0.002697 0.057153
v 0.156363 0.008796 0.057153
v 0.190373 -0.002697 -0.067718
v 0.190373 0.013638 -0.067718
v 0.454344 0.614359 0.085120
v 0.454344 0.121184 0.085120
v 0.436905 0.596920 0.075852
v 0.436905 0.138623 0.075852
v 0.124824 0.152636 -0.033820
v 0.124824 0.242150 -0.033820
v 0.124824 0.152636 -0.021069
v 0.124824 0.242150 -0.021069
v -0.331315 0.121184 -0.033820
v -0.331315 0.481393 -0.033820
v -0.436905 0.138623 0.085120
v -0.436905 0.596920 0.085120
v -0.454344 0.121184 0.014229
v -0.454344 0.614359 0.014229
v -0.046661 0.010738 -0.004353
v -0.046661 0.152232 0.031172
v -0.046661 0.010738 -0.029497
v -0.046661 0.152232 0.006027
v -0.156363 -0.002697 0.057153
v -0.156363 0.008796 0.057153
v -0.190373 -0.002697 -0.067718
v -0.190373 0.013638 -0.067718
v -0.454344 0.614359 0.085120
v -0.454344 0.121184 0.085120
v -0.436905 0.596920 0.075852
v -0.436905 0.138623 0.075852
v -0.124824 0.152636 -0.033820
v -0.124824 0.242150 -0.033820
v -0.124824 0.152636 -0.021069
v -0.124824 0.242150 -0.021069
vn 1.0000 -0.0000 -0.0000
vn -0.0000 -0.2435 0.9699
vn -0.0000 -1.0000 -0.0000
vn 0.3638 -0.0000 -0.9315
vn -0.0000 -0.0000 -1.0000
vn 0.9649 -0.0000 0.2628
vn -0.0000 0.9992 0.0387
vn -0.0000 -0.0000 1.0000
vn -1.0000 -0.0000 -0.0000
vn -0.5774 -0.5774 0.5774
vn 0.5774 -0.5774 0.5774
vn 0.5774 0.5774 0.5774
vn -0.5774 0.5774 0.5774
vn -0.0000 0.3399 -0.9405
vn -0.0000 1.0000 -0.0000
vn -0.3638 -0.0000 -0.9315
vn -0.9649 -0.0000 0.2628
vn -0.0000 0.2435 -0.9699
vt 0.121436 0.967584
vt 0.132215 0.967584
vt 0.121861 0.978363
vt 0.131791 0.978363
vt 0.121436 0.967584
vt 0.132215 0.967584
vt 0.105270 0.973049
vt 0.121649 0.946347
vt 0.108079 0.973861
vt 0.109771 0.946028
vt 0.120586 0.952199
vt 0.131365 0.952199
vt 0.120586 0.941420
vt 0.131365 0.941420
vt 0.132215 0.978363
vt 0.121436 0.978363
vt 0.000128 0.999872
vt 0.131791 0.978363
vt 0.525812 0.999872
vt 0.121861 0.978363
vt 0.122377 0.967584
vt 0.125056 0.967584
vt 0.193584 0.955206
vt 0.122377 0.967584
vt 0.197710 0.955206
vt 0.125056 0.967584
vt 0.121436 0.967584
vt 0.132215 0.967584
vt 0.121861 0.978363
vt 0.131791 0.978363
vt 0.121436 0.967584
vt 0.132215 0.967584
vt 0.105270 0.973049
vt 0.121649 0.946347
vt 0.108079 0.973861
vt 0.109771 0.946028
vt 0.120586 0.952199
vt 0.131365 0.952199
vt 0.120586 0.941420
vt 0.131365 0.941420
vt 0.132215 0.978363
vt 0.121436 0.978363
vt 0.000128 0.000017
vt 0.131791 0.978363
vt 0.525812 0.000017
vt 0.121861 0.978363
vt 0.122377 0.967584
vt 0.125056 0.967584
vt 0.193584 0.955206
vt 0.122377 0.967584
vt 0.197710 0.955206
vt 0.125056 0.967584
s 0
usemtl Palette
f 5/5/1 6/6/1 15/15/1 16/16/1
f 8/8/2 30/34/2 29/33/2 7/7/2
f 5/5/3 27/31/3 23/27/3 1/1/3
f 6/6/4 5/5/4 1/1/4 2/2/4
f 38/42/3 27/31/3 5/5/3 16/16/3
f 21/23/5 43/49/5 44/51/5 22/25/5
f 9/9/1 10/10/1 8/8/1 7/7/1
f 35/39/5 36/40/5 14/14/5 13/13/5
f 13/13/6 14/14/6 12/12/6 11/11/6
f 14/14/7 36/40/7 34/38/7 12/12/7
f 4/4/8 3/3/8 16/16/8 15/15/8
f 25/29/8 38/42/8 16/16/8 3/3/8
f 15/15/8 37/41/8 26/30/8 4/4/8
f 3/3/9 4/4/9 17/18/9 18/20/9
f 24/28/14 28/32/14 6/6/14 2/2/14
f 6/6/15 28/32/15 37/41/15 15/15/15
f 18/20/15 40/46/15 25/29/15 3/3/15
f 33/37/3 35/39/3 13/13/3 11/11/3
f 12/12/8 34/38/8 33/37/8 11/11/8
f 22/26/3 44/52/3 42/48/3 20/22/3
f 41/47/15 43/50/15 21/24/15 19/21/15
f 20/22/9 19/21/9 21/24/9 22/26/9
f 27/31/9 38/42/9 37/41/9 28/32/9
f 28/32/16 24/28/16 23/27/16 27/31/16
f 31/35/9 29/33/9 30/34/9 32/36/9
f 35/39/17 33/37/17 34/38/17 36/40/17
f 26/30/8 37/41/8 38/42/8 25/29/8
f 25/29/1 40/46/1 39/44/1 26/30/1
f 42/48/1 44/52/1 43/50/1 41/47/1
f 26/30/3 39/44/3 17/18/3 4/4/3
f 31/35/18 32/36/18 10/10/18 9/9/18
f 2/2/5 20/22/5 42/48/5 24/28/5
f 1/1/5 23/27/5 41/47/5 19/21/5
f 41/47/5 23/27/5 24/28/5 42/48/5
f 19/21/5 20/22/5 2/2/5 1/1/5
s 1
usemtl TV_Screen
f 17/17/10 39/43/11 40/45/12 18/19/13
