# Blender 3.4.1
# www.blender.org
mtllib Wall_Standard_1x3__Corner_.mtl
o Wall_Standard_1x3_(Corner)
v 0.000000 -0.000000 -0.100000
v 0.000000 -0.000000 0.100000
v 0.000000 3.000000 0.100000
v 0.000000 3.000000 -0.100000
v 0.900000 -0.000000 0.100000
v 0.900000 3.000000 0.100000
v 1.100000 0.000000 1.000000
v 0.900000 0.000000 1.000000
v 0.900000 3.000000 1.000000
v 1.100000 3.000000 1.000000
v 1.100000 0.000000 -0.100000
v 1.100000 3.000000 -0.100000
vn -0.0000 -0.0000 -1.0000
vn -1.0000 -0.0000 -0.0000
vn -0.0000 -0.0000 1.0000
vn -0.0000 1.0000 -0.0000
vn -0.0000 -1.0000 -0.0000
vn 1.0000 -0.0000 -0.0000
vt 0.000000 0.000018
vt 0.278681 0.975367
vt 0.257094 0.979226
vt 0.279353 0.975367
vt 0.000000 0.000018
vt 0.257074 0.979226
vt 0.279353 0.985452
vt 0.000000 1.000000
vt 0.265788 0.990598
vt 0.000000 1.000000
vt 0.278681 0.985452
vt 0.267187 0.990786
vt 0.321032 0.000018
vt 0.315604 -0.000018
vt 0.260674 0.979226
vt 0.269855 0.981228
vt 0.321032 1.000000
vt 0.265788 0.987185
vt 0.255454 0.988646
vt 0.315604 1.000000
vt 0.271958 0.975367
vt 0.269231 0.983624
vt 0.000000 -0.000018
vt 0.000000 -0.000018
vt 0.271286 0.975367
vt 0.269643 0.985373
vt 0.255454 0.984870
vt 0.000000 1.000000
vt 0.271286 0.985452
vt 0.256852 0.984532
vt 0.271958 0.985452
vt 0.000000 1.000000
vt 0.389276 0.000018
vt 0.261493 0.979226
vt 0.269568 0.978870
vt 0.383999 -0.000018
vt 0.389276 1.000000
vt 0.267187 0.986609
vt 0.256852 0.989089
vt 0.383999 1.000000
s 0
usemtl Brick
f 11/33/1 1/1/1 4/10/1 12/37/1
f 1/2/2 2/4/2 3/7/2 4/11/2
f 3/9/4 6/18/4 12/38/4 4/12/4
f 6/19/4 9/27/4 10/30/4 12/39/4
f 8/25/3 7/21/3 10/31/3 9/29/3
f 1/3/5 11/34/5 5/15/5 2/6/5
f 5/16/5 11/35/5 7/22/5 8/26/5
f 7/23/6 11/36/6 12/40/6 10/32/6
usemtl Wooden_Wall
f 2/5/3 5/13/3 6/17/3 3/8/3
f 5/14/2 8/24/2 9/28/2 6/20/2
