# Blender 3.4.1
# www.blender.org
mtllib Wall_Standard__Door__Border.mtl
o Wall_Standard_(Door)_Border
v 1.000000 0.000000 -0.130000
v -1.000000 0.000000 -0.130000
v 1.000000 0.000000 0.130000
v -1.000000 0.000000 0.130000
v 0.531345 0.000000 -0.130000
v -0.531345 0.000000 -0.130000
v -0.531344 0.000000 0.130000
v 0.531345 0.000000 0.130000
v 1.000000 0.145247 -0.130000
v 1.000000 0.145247 0.130000
v -1.000000 0.145247 -0.130000
v -1.000000 0.145247 0.130000
v 0.531345 0.145247 -0.130000
v -0.531345 0.145247 -0.130000
v -0.531344 0.145247 0.130000
v 0.531345 0.145247 0.130000
vn -0.0000 -1.0000 -0.0000
vn -0.0000 1.0000 -0.0000
vn -1.0000 -0.0000 -0.0000
vn -0.0000 -0.0000 1.0000
vn -0.0000 -0.0000 -1.0000
vn 1.0000 -0.0000 -0.0000
vt 0.294401 0.799767
vt 0.294401 0.785780
vt 0.293002 0.799767
vt 0.293002 0.785780
vt 0.294401 0.796489
vt 0.294401 0.789057
vt 0.293002 0.789057
vt 0.293002 0.796489
vt 0.294401 0.799767
vt 0.293002 0.799767
vt 0.294401 0.785780
vt 0.293002 0.785780
vt 0.294401 0.796489
vt 0.294401 0.789057
vt 0.293002 0.789057
vt 0.293002 0.796489
s 0
usemtl Palette
f 1/1/1 3/3/1 8/8/1 5/5/1
f 4/4/1 2/2/1 6/6/1 7/7/1
f 9/9/2 13/13/2 16/16/2 10/10/2
f 12/12/2 15/15/2 14/14/2 11/11/2
f 8/8/3 16/16/3 13/13/3 5/5/3
f 7/7/4 15/15/4 12/12/4 4/4/4
f 5/5/5 13/13/5 9/9/5 1/1/5
f 1/1/6 9/9/6 10/10/6 3/3/6
f 6/6/6 14/14/6 15/15/6 7/7/6
f 3/3/4 10/10/4 16/16/4 8/8/4
f 2/2/5 11/11/5 14/14/5 6/6/5
f 4/4/3 12/12/3 11/11/3 2/2/3
