# Blender 3.4.1
# www.blender.org
mtllib Wall_Standard__Window_5_.mtl
o Wall_Standard_(Window_5)
v 1.000000 0.000000 -0.100000
v -1.000000 0.000000 -0.100000
v 1.000000 0.000000 0.100000
v -1.000000 0.000000 0.100000
v -1.000000 3.000000 0.100000
v 1.000000 3.000000 0.100000
v 1.000000 3.000000 -0.100000
v -1.000000 3.000000 -0.100000
v 0.470292 0.205255 0.100000
v 0.470292 2.894745 0.100000
v -0.470292 0.205255 0.100000
v -0.470292 2.894745 0.100000
v -0.470292 0.205255 -0.100000
v -0.470292 2.894745 -0.100000
v 0.470292 0.205255 -0.100000
v 0.470292 2.894745 -0.100000
vn -0.0000 -1.0000 -0.0000
vn -0.0000 1.0000 -0.0000
vn -0.0000 -0.0000 1.0000
vn -0.0000 -0.0000 -1.0000
vn 1.0000 -0.0000 -0.0000
vn -1.0000 -0.0000 -0.0000
vt 0.274047 0.983709
vt 0.272691 0.970150
vt 0.000000 0.000000
vt 0.274047 0.976930
vt 0.272691 0.970150
vt 0.666759 0.000000
vt 0.273369 0.983709
vt 0.272013 0.970150
vt 0.000000 0.000000
vt 0.273369 0.976930
vt 0.666759 0.000000
vt 0.273369 0.970150
vt 0.273369 0.976930
vt 0.273369 0.980319
vt 0.666759 1.000000
vt 0.273369 0.970150
vt 0.272013 0.980319
vt 0.000000 1.000000
vt 0.274047 0.970150
vt 0.272691 0.980319
vt 0.000000 1.000000
vt 0.274047 0.976930
vt 0.666759 1.000000
vt 0.272691 0.980319
vt 0.263492 0.979296
vt 0.176594 0.068418
vt 0.269551 0.979296
vt 0.176594 0.964915
vt 0.490165 0.068418
vt 0.263492 0.967179
vt 0.257434 0.979296
vt 0.269551 0.967179
vt 0.275610 0.979296
vt 0.490165 0.964915
vt 0.263492 0.968148
vt 0.257434 0.978327
vt 0.490165 0.068418
vt 0.490165 0.964915
vt 0.269551 0.968148
vt 0.275610 0.978327
vt 0.263492 0.978327
vt 0.176594 0.068418
vt 0.269551 0.978327
vt 0.176594 0.964915
s 0
usemtl Brick
f 4/10/1 2/4/1 1/1/1 3/7/1
f 5/13/2 6/16/2 7/19/2 8/22/2
f 13/37/4 2/6/4 8/23/4 14/38/4
f 14/38/4 8/23/4 7/21/4 16/44/4
f 3/8/5 1/2/5 7/20/5 6/17/5
f 2/5/6 4/12/6 5/14/6 8/24/6
f 12/32/5 11/30/5 13/35/5 14/39/5
f 15/41/6 9/25/6 10/27/6 16/43/6
f 13/36/2 11/31/2 9/25/2 15/41/2
f 10/27/1 12/33/1 14/40/1 16/43/1
f 16/44/4 7/21/4 1/3/4 15/42/4
f 15/42/4 1/3/4 2/6/4 13/37/4
usemtl Wooden_Wall
f 11/29/3 4/11/3 3/9/3 9/26/3
f 5/15/3 4/11/3 11/29/3 12/34/3
f 9/26/3 3/9/3 6/18/3 10/28/3
f 10/28/3 6/18/3 5/15/3 12/34/3
