# Blender 3.4.1
# www.blender.org
mtllib Wall_Standard_Roof__triangle__1x3_45deg.mtl
o Wall_Standard_Roof_(triangle)_1x3_45deg
v 1.000000 0.000000 -0.100000
v 1.000000 0.000000 0.100000
v 0.000000 0.000000 -0.100000
v 0.000000 0.000000 0.100000
v 0.000000 1.000000 0.100000
v 0.000000 1.000000 -0.100000
vn -0.0000 -1.0000 -0.0000
vn 0.7071 0.7071 -0.0000
vn -0.0000 -0.0000 -1.0000
vn -0.0000 -0.0000 1.0000
vn -1.0000 -0.0000 -0.0000
vt 0.276664 0.988813
vt 0.276664 0.975367
vt 0.333498 0.000000
vt 0.275992 0.988813
vt 0.275992 0.975367
vt 0.333498 0.000000
vt 0.276664 0.985452
vt 0.000002 0.000000
vt 0.275319 0.975367
vt 0.275992 0.985452
vt 0.000002 0.000000
vt 0.275992 0.975367
vt 0.275992 0.979132
vt 0.000002 0.333333
vt 0.275992 0.988813
vt 0.276664 0.979132
vt 0.000002 0.333333
vt 0.275319 0.988813
s 0
usemtl Brick
f 4/10/1 3/7/1 1/1/1 2/4/1
f 5/13/2 2/5/2 1/2/2 6/16/2
f 1/3/3 3/8/3 6/17/3
f 3/9/5 4/12/5 5/15/5 6/18/5
usemtl Wooden_Wall
f 5/14/4 4/11/4 2/6/4
