# Blender 3.4.1
# www.blender.org
mtllib Wall_Standard__Window_2_.mtl
o Wall_Standard_(Window_2)
v 1.000000 0.000000 -0.100000
v -1.000000 0.000000 -0.100000
v 1.000000 0.000000 0.100000
v -1.000000 0.000000 0.100000
v -1.000000 3.000000 0.100000
v 1.000000 3.000000 0.100000
v 1.000000 3.000000 -0.100000
v -1.000000 3.000000 -0.100000
v 1.000000 0.875000 0.100000
v 1.000000 2.437500 0.100000
v -0.625000 0.875000 0.100000
v -0.625000 2.437500 0.100000
v -0.625000 0.875000 -0.100000
v -0.625000 2.437500 -0.100000
v 1.000000 0.875000 -0.100000
v 1.000000 2.437500 -0.100000
vn -0.0000 -1.0000 -0.0000
vn -0.0000 1.0000 -0.0000
vn -0.0000 -0.0000 1.0000
vn -0.0000 -0.0000 -1.0000
vn -1.0000 -0.0000 -0.0000
vn 1.0000 -0.0000 -0.0000
vt 0.275471 0.983114
vt 0.666992 0.000000
vt 0.268270 0.972136
vt 0.275471 0.977727
vt 0.274394 0.972339
vt 0.000000 0.000000
vt 0.274933 0.983114
vt 0.666992 0.000000
vt 0.269745 0.972136
vt 0.274933 0.977727
vt 0.000000 0.000000
vt 0.274933 0.972339
vt 0.274933 0.977727
vt 0.274933 0.980421
vt 0.000000 1.000000
vt 0.274933 0.972339
vt 0.666992 1.000000
vt 0.271221 0.965682
vt 0.275471 0.972339
vt 0.666992 1.000000
vt 0.269745 0.965682
vt 0.275471 0.977727
vt 0.000000 1.000000
vt 0.274394 0.980421
vt 0.666992 0.291992
vt 0.267084 0.979608
vt 0.269745 0.965682
vt 0.271899 0.979608
vt 0.666992 0.813477
vt 0.271221 0.969831
vt 0.125000 0.291992
vt 0.267084 0.969978
vt 0.271531 0.980137
vt 0.271899 0.969978
vt 0.276713 0.979608
vt 0.125000 0.813477
vt 0.267084 0.970748
vt 0.271531 0.979367
vt 0.125000 0.291992
vt 0.125000 0.813477
vt 0.271899 0.970748
vt 0.276713 0.978837
vt 0.267084 0.978837
vt 0.666992 0.291992
vt 0.268270 0.965682
vt 0.666992 0.813477
vt 0.271899 0.978837
vt 0.269745 0.969831
s 0
usemtl Brick
f 4/10/1 2/4/1 1/1/1 3/7/1
f 5/13/2 6/16/2 7/19/2 8/22/2
f 13/39/4 2/6/4 8/23/4 14/40/4
f 14/40/4 8/23/4 7/20/4 16/46/4
f 2/5/5 4/12/5 5/14/5 8/24/5
f 12/34/6 11/32/6 13/37/6 14/41/6
f 13/38/2 11/33/2 9/26/2 15/43/2
f 10/28/1 12/35/1 14/42/1 16/47/1
f 15/44/4 1/2/4 2/6/4 13/39/4
f 1/3/6 15/45/6 9/27/6 3/9/6
f 7/21/6 6/18/6 10/30/6 16/48/6
usemtl Wooden_Wall
f 11/31/3 4/11/3 3/8/3 9/25/3
f 5/15/3 4/11/3 11/31/3 12/36/3
f 10/29/3 6/17/3 5/15/3 12/36/3
