# Blender 3.4.1
# www.blender.org
mtllib Wall_Standard__Corner__Border_X3.mtl
o Wall_Standard_(Corner)_Border_X3
v 0.000000 0.000000 -0.130000
v 0.000000 0.000000 0.130000
v 0.000000 0.145247 0.130000
v 0.000000 0.145247 -0.130000
v 0.870000 0.000000 -0.130000
v 1.130000 0.145247 -0.130000
v 0.870000 0.145247 -0.130000
v 1.130000 0.000000 1.000000
v 0.870000 0.000000 1.000000
v 0.870000 0.145247 1.000000
v 1.130000 0.145247 1.000000
v 1.130000 0.000000 -0.130000
v 0.870000 0.000000 0.130000
v 1.130000 0.000000 0.130340
v 0.870000 0.145247 0.130000
v 1.130000 0.145247 0.130340
v 2.000000 0.000000 0.130340
v 2.000000 0.000000 -0.130000
v 2.000000 0.145247 -0.130000
v 2.000000 0.145247 0.130340
vn -0.0000 -0.0000 -1.0000
vn -1.0000 -0.0000 -0.0000
vn -0.0000 -0.0000 1.0000
vn -0.0000 1.0000 -0.0000
vn -0.0000 -1.0000 -0.0000
vn 1.0000 -0.0000 -0.0000
vt 0.294401 0.785780
vt 0.289021 0.785780
vt 0.293002 0.785780
vt 0.287622 0.785780
vt 0.293002 0.785780
vt 0.287622 0.785780
vt 0.294401 0.785780
vt 0.289021 0.785780
vt 0.289019 0.792773
vt 0.289021 0.789033
vt 0.294401 0.789033
vt 0.294401 0.792774
vt 0.289021 0.792773
vt 0.287622 0.792773
vt 0.289021 0.789033
vt 0.294401 0.789033
vt 0.294401 0.799767
vt 0.289021 0.799767
vt 0.287622 0.799767
vt 0.293002 0.799767
vt 0.287622 0.799767
vt 0.293002 0.799767
vt 0.294401 0.799767
vt 0.289021 0.799767
vt 0.294401 0.792774
vt 0.289020 0.792773
vt 0.293002 0.789033
vt 0.287621 0.792773
vt 0.287622 0.789033
vt 0.287622 0.796516
vt 0.293002 0.796513
vt 0.289021 0.796516
vt 0.294401 0.796514
vt 0.287620 0.792773
vt 0.293002 0.789033
vt 0.287622 0.792773
vt 0.287622 0.789033
vt 0.287622 0.796516
vt 0.293002 0.796513
vt 0.289021 0.796516
vt 0.289021 0.792773
vt 0.294401 0.796514
vt 0.294401 0.792774
vt 0.294401 0.796514
vt 0.287620 0.792773
vt 0.294401 0.792774
vt 0.289020 0.792773
vt 0.294401 0.792774
vt 0.289021 0.792773
vt 0.294401 0.792774
vt 0.289021 0.792773
vt 0.294401 0.796514
s 0
usemtl Palette
f 12/25/1 6/12/1 19/48/1 18/46/1
f 2/4/2 3/6/2 4/8/2 1/2/2
f 13/27/3 15/35/3 3/5/3 2/3/3
f 16/41/4 6/13/4 7/14/4 15/36/4
f 5/9/5 12/26/5 14/34/5 13/28/5
f 1/1/1 4/7/1 7/16/1 5/11/1
f 3/6/4 15/37/4 7/15/4 4/8/4
f 2/4/5 1/2/5 5/10/5 13/29/5
f 13/30/5 14/32/5 8/18/5 9/19/5
f 15/38/4 10/21/4 11/24/4 16/40/4
f 14/33/6 16/42/6 11/23/6 8/17/6
f 8/18/3 11/24/3 10/21/3 9/19/3
f 9/20/2 10/22/2 15/39/2 13/31/2
f 7/16/1 6/12/1 12/26/1 5/11/1
f 17/43/6 18/46/6 19/48/6 20/50/6
f 6/13/4 16/41/4 20/51/4 19/49/4
f 16/42/3 14/33/3 17/44/3 20/52/3
f 14/34/5 12/26/5 18/47/5 17/45/5
