# Blender 3.4.1
# www.blender.org
mtllib Wall_Standard__Window_4_.mtl
o Wall_Standard_(Window_4)
v 1.000000 0.000000 -0.100000
v -1.000000 0.000000 -0.100000
v 1.000000 0.000000 0.100000
v -1.000000 0.000000 0.100000
v -1.000000 3.000000 0.100000
v 1.000000 3.000000 0.100000
v 1.000000 3.000000 -0.100000
v -1.000000 3.000000 -0.100000
v 0.531250 0.679688 0.100000
v -0.531250 0.679688 0.100000
v -0.531250 0.679688 -0.100000
v 0.531250 0.679688 -0.100000
v -0.000000 2.632812 0.100000
v 0.531250 2.101562 0.100000
v 0.949465 2.960414 0.100000
v 0.265625 2.561638 0.100000
v 0.460076 2.367188 0.100000
v -0.531250 2.101562 0.100000
v -0.949465 2.960414 0.100000
v -0.460076 2.367188 0.100000
v -0.265625 2.561638 0.100000
v -0.531250 2.101562 -0.100000
v -0.949465 2.960414 -0.100000
v -0.265625 2.561638 -0.100000
v -0.460076 2.367188 -0.100000
v 0.531250 2.101562 -0.100000
v -0.000000 2.632812 -0.100000
v 0.949465 2.960414 -0.100000
v 0.460076 2.367188 -0.100000
v 0.265625 2.561638 -0.100000
vn -0.0000 -1.0000 -0.0000
vn -0.0000 1.0000 -0.0000
vn -0.0000 -0.0000 1.0000
vn -0.0000 -0.0000 -1.0000
vn 1.0000 -0.0000 -0.0000
vn -1.0000 -0.0000 -0.0000
vn 0.9659 -0.2588 -0.0000
vn 0.7071 -0.7071 -0.0000
vn 0.2588 -0.9659 -0.0000
vn -0.2588 -0.9659 -0.0000
vn -0.7071 -0.7071 -0.0000
vn -0.9659 -0.2588 -0.0000
vt 0.276664 0.988813
vt 0.275319 0.975367
vt 0.666016 0.000000
vt 0.276664 0.982090
vt 0.275319 0.975367
vt 0.000000 0.000000
vt 0.275992 0.988813
vt 0.274647 0.975367
vt 0.666992 0.000000
vt 0.275992 0.982090
vt 0.275992 0.975367
vt 0.000000 0.000000
vt 0.275992 0.982090
vt 0.275992 0.985452
vt 0.000000 1.000000
vt 0.275992 0.975367
vt 0.274647 0.985452
vt 0.666992 1.000000
vt 0.276664 0.975367
vt 0.666016 1.000000
vt 0.275319 0.985452
vt 0.276664 0.982090
vt 0.000000 1.000000
vt 0.275319 0.985452
vt 0.510742 0.226562
vt 0.266198 0.984437
vt 0.155273 0.226562
vt 0.266198 0.972421
vt 0.260190 0.984437
vt 0.266198 0.973382
vt 0.260190 0.983476
vt 0.156250 0.226562
vt 0.266198 0.983476
vt 0.509766 0.226562
vt 0.275210 0.984437
vt 0.333008 0.877930
vt 0.510742 0.700195
vt 0.270572 0.984437
vt 0.650391 0.986328
vt 0.420898 0.854492
vt 0.273708 0.984437
vt 0.486328 0.789062
vt 0.271389 0.984437
vt 0.155273 0.700195
vt 0.270572 0.972421
vt 0.017578 0.986328
vt 0.179688 0.789062
vt 0.271389 0.972421
vt 0.245117 0.854492
vt 0.272206 0.972421
vt 0.276712 0.984437
vt 0.156250 0.699219
vt 0.270572 0.973382
vt 0.017578 0.985352
vt 0.245117 0.853516
vt 0.272206 0.973382
vt 0.276712 0.983476
vt 0.179688 0.787109
vt 0.271389 0.973382
vt 0.509766 0.699219
vt 0.270572 0.983476
vt 0.333984 0.875977
vt 0.275210 0.983476
vt 0.649414 0.985352
vt 0.485352 0.787109
vt 0.271389 0.983476
vt 0.422852 0.853516
vt 0.273708 0.983476
s 0
usemtl Brick
f 4/10/1 2/4/1 1/1/1 3/7/1
f 5/13/2 6/16/2 7/19/2 8/22/2
f 11/32/4 2/6/4 8/23/4 23/54/4 22/52/4
f 27/62/4 23/54/4 8/23/4 7/20/4 28/64/4
f 26/60/4 28/64/4 7/20/4 1/3/4 12/34/4
f 3/8/5 1/2/5 7/21/5 6/17/5
f 2/5/6 4/11/6 5/14/6 8/24/6
f 18/45/5 10/28/5 11/30/5 22/53/5
f 11/31/2 10/29/2 9/26/2 12/33/2
f 12/33/6 9/26/6 14/38/6 26/61/6
f 12/34/4 1/3/4 2/6/4 11/32/4
f 27/62/4 24/55/4 23/54/4
f 24/55/4 25/58/4 23/54/4
f 25/58/4 22/52/4 23/54/4
f 26/60/4 29/65/4 28/64/4
f 29/65/4 30/67/4 28/64/4
f 30/67/4 27/62/4 28/64/4
f 18/45/7 22/53/7 25/59/7 20/48/7
f 20/48/8 25/59/8 24/56/8 21/50/8
f 21/51/9 24/57/9 27/63/9 13/35/9
f 13/35/10 27/63/10 30/68/10 16/41/10
f 16/41/11 30/68/11 29/66/11 17/43/11
f 17/43/12 29/66/12 26/61/12 14/38/12
usemtl Wooden_Wall
f 10/27/3 4/12/3 3/9/3 9/25/3
f 5/15/3 4/12/3 10/27/3 18/44/3 19/46/3
f 9/25/3 3/9/3 6/18/3 15/39/3 14/37/3
f 13/36/3 16/40/3 15/39/3
f 16/40/3 17/42/3 15/39/3
f 17/42/3 14/37/3 15/39/3
f 18/44/3 20/47/3 19/46/3
f 20/47/3 21/49/3 19/46/3
f 21/49/3 13/36/3 19/46/3
f 13/36/3 15/39/3 6/18/3 5/15/3 19/46/3
