# Blender 3.4.1
# www.blender.org
mtllib Wall_Standard_1x3__Corner__Border.mtl
o Wall_Standard_1x3_(Corner)_Border
v 0.000000 0.000000 -0.130000
v 0.000000 0.000000 0.130000
v 0.000000 0.145247 0.130000
v 0.000000 0.145247 -0.130000
v 0.870000 0.000000 -0.130000
v 1.130000 0.145247 -0.130000
v 0.870000 0.145247 -0.130000
v 1.130000 0.000000 1.000000
v 0.870000 0.000000 1.000000
v 0.870000 0.145247 1.000000
v 1.130000 0.145247 1.000000
v 1.130000 0.000000 -0.130000
v 0.870000 0.000000 0.130000
v 1.130000 0.000000 0.130340
v 0.870000 0.145247 0.130000
v 1.130000 0.145247 0.130340
vn 1.0000 -0.0000 -0.0000
vn -0.0000 -0.0000 -1.0000
vn -1.0000 -0.0000 -0.0000
vn -0.0000 -0.0000 1.0000
vn -0.0000 1.0000 -0.0000
vn -0.0000 -1.0000 -0.0000
vt 0.294401 0.785780
vt 0.289021 0.785780
vt 0.293002 0.785780
vt 0.287622 0.785780
vt 0.293002 0.785780
vt 0.287622 0.785780
vt 0.294401 0.785780
vt 0.289021 0.785780
vt 0.294401 0.792773
vt 0.289019 0.792773
vt 0.294401 0.789033
vt 0.289021 0.789033
vt 0.294401 0.792773
vt 0.289021 0.792773
vt 0.294401 0.792773
vt 0.287622 0.792773
vt 0.294401 0.789033
vt 0.289021 0.789033
vt 0.294401 0.799767
vt 0.289021 0.799767
vt 0.287622 0.799767
vt 0.293002 0.799767
vt 0.287622 0.799767
vt 0.293002 0.799767
vt 0.294401 0.799767
vt 0.289021 0.799767
vt 0.294401 0.792773
vt 0.289020 0.792773
vt 0.293002 0.789033
vt 0.287621 0.792773
vt 0.287622 0.789033
vt 0.287622 0.796516
vt 0.293002 0.796513
vt 0.294401 0.792774
vt 0.287620 0.792773
vt 0.289021 0.796516
vt 0.294401 0.796514
vt 0.293002 0.789033
vt 0.287622 0.792773
vt 0.287622 0.789033
vt 0.287622 0.796516
vt 0.293002 0.796513
vt 0.294401 0.792774
vt 0.289021 0.792773
vt 0.289021 0.796516
vt 0.294401 0.796514
s 0
usemtl Palette
f 14/34/1 12/27/1 6/13/1 16/43/1
f 7/15/2 6/13/2 12/27/2 5/9/2
f 2/4/3 3/6/3 4/8/3 1/2/3
f 13/29/4 15/38/4 3/5/4 2/3/4
f 16/44/5 6/14/5 7/16/5 15/39/5
f 5/10/6 12/28/6 14/35/6 13/30/6
f 1/1/2 4/7/2 7/17/2 5/11/2
f 3/6/5 15/40/5 7/18/5 4/8/5
f 2/4/6 1/2/6 5/12/6 13/31/6
f 13/32/6 14/36/6 8/20/6 9/21/6
f 15/41/5 10/23/5 11/26/5 16/45/5
f 14/37/1 16/46/1 11/25/1 8/19/1
f 8/20/4 11/26/4 10/23/4 9/21/4
f 9/22/3 10/24/3 15/42/3 13/33/3
