# Blender 3.4.1
# www.blender.org
mtllib WallShelf__Rect-Long__B.mtl
o WallShelf_(Rect-Long)_B
v 1.000000 0.237307 -0.220408
v 1.000000 -0.237307 -0.220408
v 0.953378 0.189864 0.220408
v 0.953378 -0.189864 0.220408
v 1.000000 0.237307 0.220408
v 1.000000 -0.237307 0.220408
v 0.953378 0.189864 -0.220408
v 0.953378 -0.189864 -0.220408
v -1.000000 0.237307 -0.220408
v -1.000000 -0.237307 -0.220408
v 0.288149 0.189864 0.220408
v 0.288149 0.189864 -0.220408
v 0.288149 -0.189864 0.220408
v 0.288149 -0.189864 -0.220408
v -0.953378 0.189864 0.220408
v -0.953378 -0.189864 0.220408
v -1.000000 0.237307 0.220408
v -1.000000 -0.237307 0.220408
v 0.336039 -0.189864 -0.220408
v 0.336039 0.189864 -0.220408
v 0.336039 -0.189864 0.220408
v 0.336039 0.189864 0.220408
v -0.953378 0.189864 -0.220408
v -0.953378 -0.189864 -0.220408
v 0.288149 -0.012500 0.220408
v 0.288149 -0.012500 -0.220408
v -0.953378 -0.012500 0.220408
v -0.953378 -0.012500 -0.220408
v 0.288149 0.012500 -0.220408
v 0.288149 0.012500 0.220408
v -0.953378 0.012500 0.220408
v -0.953378 0.012500 -0.220408
vn -0.0000 -0.0000 1.0000
vn 1.0000 -0.0000 -0.0000
vn -0.0000 -1.0000 -0.0000
vn -0.0000 -0.0000 -1.0000
vn -0.0000 1.0000 -0.0000
vn -1.0000 -0.0000 -0.0000
vt 0.298565 0.786228
vt 0.283399 0.786228
vt 0.298427 0.801394
vt 0.283537 0.801394
vt 0.298565 0.801394
vt 0.283399 0.801394
vt 0.298427 0.801394
vt 0.283537 0.801394
vt 0.298565 0.786228
vt 0.283399 0.786228
vt 0.298427 0.801394
vt 0.298427 0.801394
vt 0.283537 0.801394
vt 0.283537 0.801394
vt 0.298427 0.801394
vt 0.283537 0.801394
vt 0.298565 0.801394
vt 0.283399 0.801394
vt 0.283537 0.801394
vt 0.298427 0.801394
vt 0.283537 0.801394
vt 0.298427 0.801394
vt 0.298427 0.801394
vt 0.283537 0.801394
vt 0.283537 0.801394
vt 0.283537 0.801394
vt 0.283537 0.801394
vt 0.283537 0.801394
vt 0.283537 0.801394
vt 0.283537 0.801394
vt 0.283537 0.801394
vt 0.283537 0.801394
s 0
usemtl Palette
f 16/16/1 18/18/1 6/6/1 4/4/1
f 2/2/2 1/1/2 5/5/2 6/6/2
f 6/6/3 18/18/3 10/10/3 2/2/3
f 7/7/4 23/23/4 9/9/4 1/1/4
f 8/8/5 24/24/5 16/16/5 4/4/5
f 3/3/1 4/4/1 6/6/1 5/5/1
f 5/5/1 17/17/1 15/15/1 3/3/1
f 15/15/3 23/23/3 7/7/3 3/3/3
f 2/2/4 8/8/4 7/7/4 1/1/4
f 4/4/6 3/3/6 7/7/6 8/8/6
f 10/10/4 24/24/4 8/8/4 2/2/4
f 21/21/2 19/19/2 20/20/2 22/22/2
f 10/10/6 18/18/6 17/17/6 9/9/6
f 15/15/1 17/17/1 18/18/1 16/16/1
f 19/19/4 14/14/4 12/12/4 20/20/4
f 10/10/4 9/9/4 23/23/4 24/24/4
f 16/16/2 24/24/2 23/23/2 15/15/2
f 22/22/1 11/11/1 13/13/1 21/21/1
f 13/13/6 11/11/6 12/12/6 14/14/6
f 9/9/5 17/17/5 5/5/5 1/1/5
f 26/26/3 25/25/3 27/27/3 28/28/3
f 29/29/5 32/32/5 31/31/5 30/30/5
f 26/26/4 28/28/4 32/32/4 29/29/4
f 25/25/2 26/26/2 29/29/2 30/30/2
f 27/27/1 25/25/1 30/30/1 31/31/1
