# Blender 3.4.1
# www.blender.org
mtllib Wall_Standard_1x3.mtl
o Wall_Standard_1x3
v 0.000000 0.000000 -0.100000
v 0.000000 0.000000 0.100000
v 0.000000 3.000000 0.100000
v 0.000000 3.000000 -0.100000
v 1.000000 0.000000 0.100000
v 1.000000 0.000000 -0.100000
v 1.000000 3.000000 0.100000
v 1.000000 3.000000 -0.100000
vn -0.0000 -0.0000 -1.0000
vn -1.0000 -0.0000 -0.0000
vn -0.0000 -0.0000 1.0000
vn -0.0000 1.0000 -0.0000
vn -0.0000 -1.0000 -0.0000
vn 1.0000 -0.0000 -0.0000
vt -0.000008 -0.000002
vt 0.271402 0.980538
vt 0.000000 0.000000
vt 0.259334 0.980538
vt 0.259334 0.978728
vt 0.000000 1.000000
vt 0.259334 0.983555
vt -0.000008 0.999999
vt 0.271402 0.978728
vt 0.271402 0.983555
vt 0.333496 0.000000
vt 0.259334 0.981141
vt 0.333325 -0.000002
vt 0.271402 0.981141
vt 0.333496 1.000000
vt 0.259334 0.982952
vt 0.333325 0.999999
vt 0.271402 0.982952
s 0
usemtl Brick
f 6/13/1 1/1/1 4/8/1 8/17/1
f 1/2/2 2/4/2 3/5/2 4/9/2
f 3/7/4 7/16/4 8/18/4 4/10/4
f 2/4/5 1/2/5 6/14/5 5/12/5
f 8/18/6 7/16/6 5/12/6 6/14/6
usemtl Wooden_Wall
f 2/3/3 5/11/3 7/15/3 3/6/3
