# Blender 3.4.1
# www.blender.org
mtllib Wall_Standard_Roof_1x3_45deg.mtl
o Wall_Standard_Roof_1x3_45deg
v 0.000000 0.000000 -0.100000
v 0.000000 0.000000 0.100000
v 0.000000 1.000000 0.100000
v 0.000000 1.000000 -0.100000
v 1.000000 0.000000 0.100000
v 1.000000 0.000000 -0.100000
v 1.000000 1.000000 0.100000
v 1.000000 1.000000 -0.100000
vn 1.0000 -0.0000 -0.0000
vn -0.0000 -0.0000 -1.0000
vn -1.0000 -0.0000 -0.0000
vn -0.0000 -0.0000 1.0000
vn -0.0000 1.0000 -0.0000
vn -0.0000 -1.0000 -0.0000
vt 0.000000 0.000000
vt 0.275319 0.975367
vt 0.276664 0.982090
vt 0.275992 0.975367
vt 0.000000 0.000000
vt 0.275992 0.982090
vt 0.000000 0.333333
vt 0.275992 0.982090
vt 0.000000 0.333333
vt 0.275319 0.982090
vt 0.276664 0.982090
vt 0.275992 0.975367
vt 0.333496 0.000000
vt 0.275992 0.985452
vt 0.275319 0.975367
vt 0.333496 0.000000
vt 0.276664 0.985452
vt 0.275992 0.982090
vt 0.333496 0.333333
vt 0.275992 0.978729
vt 0.275319 0.982090
vt 0.333496 0.333333
vt 0.276664 0.978729
s 0
usemtl Brick
f 6/15/1 8/21/1 7/18/1 5/12/1
f 6/16/2 1/1/2 4/9/2 8/22/2
f 1/2/3 2/4/3 3/8/3 4/10/3
f 3/8/5 7/20/5 8/23/5 4/11/5
f 2/6/6 1/3/6 6/17/6 5/14/6
usemtl Wooden_Wall
f 2/5/4 5/13/4 7/19/4 3/7/4
