# Blender 3.4.1
# www.blender.org
mtllib Wardrobe.mtl
o Wardrobe
v 0.553714 0.042245 0.255753
v -0.595958 0.000000 -0.255753
v -0.553714 0.042245 0.255753
v 0.595958 0.000000 -0.255753
v 0.595958 2.270922 -0.255753
v 0.553714 2.228678 0.255753
v -0.553714 2.228678 0.255753
v -0.595958 2.270922 -0.255753
v -0.595958 0.000000 0.255753
v 0.595958 0.000000 0.255753
v -0.595958 2.270922 0.255753
v 0.595958 2.270922 0.255753
v -0.553714 0.042245 -0.179994
v 0.553714 0.042245 -0.179994
v -0.553714 2.228678 -0.179994
v 0.553714 2.228678 -0.179994
v -0.100881 2.250399 -0.235423
v -0.130111 2.250399 -0.235423
v -0.130111 2.250399 0.235423
v -0.100881 2.250399 0.235423
v -0.100881 0.371387 -0.235423
v -0.130111 0.371387 -0.235423
v -0.130111 0.325298 0.235423
v -0.100881 0.325298 0.235423
v -0.100881 0.295887 -0.235423
v -0.130111 0.295887 -0.235423
v -0.130111 0.295887 0.235423
v -0.100881 0.295887 0.235423
v 0.563072 0.325298 0.235423
v 0.563072 0.371387 -0.235423
v 0.563072 0.295887 0.235423
v 0.563072 0.295887 -0.235423
v -0.568594 0.371387 -0.235423
v -0.568594 0.325298 0.235423
v -0.568594 0.295887 -0.235423
v -0.568594 0.295887 0.235423
v 0.562375 2.133667 0.059967
v -0.565275 2.137858 0.049849
v -0.565275 2.133667 0.059967
v -0.565275 2.123548 0.064159
v -0.565275 2.113429 0.059967
v -0.565275 2.109238 0.049849
v -0.565275 2.113429 0.039730
v -0.565275 2.123548 0.035539
v -0.565275 2.133667 0.039730
v 0.562375 2.137858 0.049849
v 0.562375 2.123548 0.064159
v 0.562375 2.113429 0.059967
v 0.562375 2.109238 0.049849
v 0.562375 2.113429 0.039730
v 0.562375 2.123548 0.035539
v 0.562375 2.133667 0.039730
vn -0.0000 -1.0000 -0.0000
vn -0.0000 -0.0000 -1.0000
vn -1.0000 -0.0000 -0.0000
vn 1.0000 -0.0000 -0.0000
vn -0.0000 1.0000 -0.0000
vn -0.0000 -0.0000 1.0000
vn -0.0000 0.9952 0.0974
vn -0.0000 0.9239 0.3827
vn -0.0000 -0.9239 -0.3827
vn -0.0000 0.3827 -0.9239
vn -0.0000 0.9239 -0.3827
vn -0.0000 0.3827 0.9239
vn -0.0000 -0.3827 0.9239
vn -0.0000 -0.3827 -0.9239
vn -0.0000 -0.9239 0.3827
vt 0.883993 0.643339
vt 0.883993 0.626951
vt 0.883993 0.643339
vt 0.883993 0.626951
vt 0.883993 0.626951
vt 0.883994 0.643340
vt 0.883993 0.643339
vt 0.883993 0.626951
vt 0.883993 0.643339
vt 0.883993 0.643339
vt 0.883993 0.643339
vt 0.883993 0.643339
vt 0.883993 0.643339
vt 0.883993 0.643339
vt 0.883993 0.643339
vt 0.883994 0.643340
vt 0.883993 0.626951
vt 0.883993 0.626951
vt 0.883993 0.643339
vt 0.883993 0.643339
vt 0.883993 0.626951
vt 0.883993 0.626951
vt 0.883993 0.643339
vt 0.883993 0.643339
vt 0.883993 0.626951
vt 0.883993 0.626951
vt 0.883993 0.643339
vt 0.883993 0.643339
vt 0.883993 0.643339
vt 0.883993 0.626951
vt 0.883993 0.643339
vt 0.883993 0.626951
vt 0.883993 0.626951
vt 0.883993 0.643339
vt 0.883993 0.626951
vt 0.883993 0.643339
vt 0.188325 0.811091
vt 0.206003 0.818413
vt 0.188325 0.811091
vt 0.181003 0.793413
vt 0.188325 0.775735
vt 0.206003 0.768413
vt 0.223681 0.775735
vt 0.231003 0.793413
vt 0.223681 0.811091
vt 0.206003 0.818413
vt 0.181003 0.793413
vt 0.188325 0.775735
vt 0.206003 0.768413
vt 0.223681 0.775735
vt 0.231003 0.793413
vt 0.223681 0.811091
s 0
usemtl Palette
f 4/4/1 10/10/1 9/9/1 2/2/1
f 2/2/2 8/8/2 5/5/2 4/4/2
f 6/6/3 16/16/3 14/14/3 1/1/3
f 9/9/3 11/11/3 8/8/3 2/2/3
f 4/4/4 5/5/4 12/12/4 10/10/4
f 5/5/5 8/8/5 11/11/5 12/12/5
f 3/3/6 9/9/6 10/10/6 1/1/6
f 7/7/6 11/11/6 9/9/6 3/3/6
f 1/1/6 10/10/6 12/12/6 6/6/6
f 6/6/6 12/12/6 11/11/6 7/7/6
f 14/14/6 16/16/6 15/15/6 13/13/6
f 1/1/5 14/14/5 13/13/5 3/3/5
f 7/7/1 15/15/1 16/16/1 6/6/1
f 3/3/4 13/13/4 15/15/4 7/7/4
f 19/19/3 18/18/3 22/22/3 23/23/3
f 20/20/6 19/19/6 23/23/6 24/24/6
f 17/17/4 20/20/4 24/24/4 21/21/4
f 23/23/7 22/22/7 33/33/7 34/34/7
f 25/25/1 28/28/1 27/27/1 26/26/1
f 24/24/6 23/23/6 27/27/6 28/28/6
f 24/24/6 28/28/6 31/31/6 29/29/6
f 28/28/1 25/25/1 32/32/1 31/31/1
f 21/21/7 24/24/7 29/29/7 30/30/7
f 27/27/6 23/23/6 34/34/6 36/36/6
f 26/26/1 27/27/1 36/36/1 35/35/1
f 38/38/8 39/39/8 37/37/8 46/46/8
f 42/42/9 43/43/9 50/50/9 49/49/9
f 44/44/10 45/45/10 52/52/10 51/51/10
f 45/45/11 38/38/11 46/46/11 52/52/11
f 39/39/12 40/40/12 47/47/12 37/37/12
f 40/40/13 41/41/13 48/48/13 47/47/13
f 43/43/14 44/44/14 51/51/14 50/50/14
f 41/41/15 42/42/15 49/49/15 48/48/15
