# Blender 3.4.1
# www.blender.org
mtllib Washing_Product.mtl
o Washing_Product
v -0.068990 0.026172 0.015153
v -0.044998 0.002179 0.015153
v -0.044998 0.026172 0.036571
v -0.061963 0.009206 0.015153
v -0.058850 0.012320 0.027519
v -0.044998 0.009206 0.030298
v -0.061963 0.026172 0.030298
v 0.042495 0.026172 0.036571
v 0.042495 0.002179 0.015153
v 0.066487 0.026172 0.015153
v 0.042495 0.009206 0.030298
v 0.056347 0.012320 0.027519
v 0.059460 0.009206 0.015153
v 0.059460 0.026172 0.030298
v -0.068990 0.026172 -0.013381
v -0.044998 0.026172 -0.034799
v -0.044998 0.002179 -0.013381
v -0.061963 0.026172 -0.028526
v -0.058850 0.012320 -0.025747
v -0.044998 0.009206 -0.028526
v -0.061963 0.009206 -0.013381
v 0.066487 0.026172 -0.013381
v 0.042495 0.002179 -0.013381
v 0.042495 0.026172 -0.034799
v 0.059460 0.009206 -0.013381
v 0.056347 0.012320 -0.025747
v 0.042495 0.009206 -0.028526
v 0.059460 0.026172 -0.028526
v -0.068990 0.200091 -0.013381
v -0.041729 0.220292 -0.013381
v -0.045259 0.196561 -0.034799
v -0.059543 0.215838 -0.013381
v -0.056922 0.212300 -0.025747
v -0.042763 0.213342 -0.028526
v -0.062039 0.199057 -0.028526
v -0.068990 0.200091 0.015153
v -0.045259 0.196561 0.036571
v -0.041729 0.220292 0.015153
v -0.062039 0.199057 0.030298
v -0.056922 0.212300 0.027519
v -0.042763 0.213342 0.030298
v -0.059543 0.215838 0.015153
v 0.043568 0.152639 0.036571
v 0.066487 0.145545 0.015153
v 0.050662 0.175559 0.015153
v 0.059774 0.147623 0.030298
v 0.060896 0.161776 0.027519
v 0.064791 0.163829 0.015153
v 0.048584 0.168846 0.030298
v 0.066487 0.145545 -0.013381
v 0.043568 0.152639 -0.034799
v 0.050662 0.175559 -0.013381
v 0.059774 0.147623 -0.028526
v 0.060896 0.161776 -0.025747
v 0.048584 0.168846 -0.028526
v 0.064791 0.163829 -0.013381
v 0.059594 0.124318 -0.007931
v 0.059594 0.124318 0.009703
v 0.059154 0.047345 -0.007931
v 0.059154 0.047345 0.009703
v 0.056953 0.032921 0.009703
v 0.056953 0.032921 -0.007931
v 0.056953 0.138795 0.009703
v 0.056953 0.138795 -0.007931
v 0.082443 0.039992 0.009703
v 0.101913 0.064670 0.009703
v 0.096210 0.049150 0.009703
v 0.101913 0.064670 -0.007931
v 0.082443 0.039992 -0.007931
v 0.096210 0.049150 -0.007931
v 0.110959 0.107046 0.009703
v 0.091489 0.131725 0.009703
v 0.105256 0.122567 0.009703
v 0.091489 0.131725 -0.007931
v 0.110959 0.107046 -0.007931
v 0.105256 0.122567 -0.007931
v 0.079796 0.052985 0.009703
v 0.092711 0.069744 0.009703
v 0.089034 0.058837 0.009703
v 0.092711 0.069744 -0.007931
v 0.079796 0.052985 -0.007931
v 0.089034 0.058837 -0.007931
v 0.100142 0.103390 0.009703
v 0.087677 0.118693 0.009703
v 0.096708 0.112932 0.009703
v 0.087677 0.118693 -0.007931
v 0.100142 0.103390 -0.007931
v 0.096708 0.112932 -0.007931
v 0.081119 0.046488 0.014653
v 0.092622 0.053993 0.014653
v 0.105551 0.105218 0.014653
v 0.100982 0.117749 0.014653
v 0.058053 0.040133 0.014653
v 0.097312 0.067207 0.014653
v 0.058274 0.131556 0.014653
v 0.089583 0.125209 0.014653
v 0.089583 0.125209 -0.012881
v 0.100982 0.117749 -0.012881
v 0.081119 0.046488 -0.012881
v 0.058053 0.040133 -0.012881
v 0.097312 0.067207 -0.012881
v 0.092622 0.053993 -0.012881
v 0.105551 0.105218 -0.012881
v 0.058274 0.131556 -0.012881
v -0.049043 0.224837 -0.009491
v -0.053788 0.224837 -0.008220
v -0.057262 0.224837 -0.004746
v -0.058534 0.224837 -0.000000
v -0.057262 0.224837 0.004746
v -0.053788 0.224837 0.008220
v -0.049043 0.224837 0.009491
v -0.044297 0.224837 0.008220
v -0.040823 0.224837 0.004746
v -0.039552 0.224837 -0.000000
v -0.040823 0.224837 -0.004746
v -0.044297 0.224837 -0.008220
v -0.054959 0.209409 -0.010247
v -0.049043 0.209409 -0.011832
v -0.059290 0.209409 -0.005916
v -0.060875 0.209409 -0.000000
v -0.059290 0.209409 0.005916
v -0.054959 0.209409 0.010247
v -0.049043 0.209409 0.011832
v -0.043127 0.209409 0.010247
v -0.038796 0.209409 0.005916
v -0.037211 0.209409 -0.000000
v -0.038796 0.209409 -0.005916
v -0.043127 0.209409 -0.010247
v -0.054959 0.224837 -0.010247
v -0.049043 0.224837 -0.011832
v -0.059290 0.224837 -0.005916
v -0.060875 0.224837 -0.000000
v -0.059290 0.224837 0.005916
v -0.054959 0.224837 0.010247
v -0.049043 0.224837 0.011832
v -0.043127 0.224837 0.010247
v -0.038796 0.224837 0.005916
v -0.037211 0.224837 -0.000000
v -0.038796 0.224837 -0.005916
v -0.043127 0.224837 -0.010247
v -0.053788 0.222691 -0.008220
v -0.049043 0.222691 -0.009491
v -0.057262 0.222691 -0.004746
v -0.058534 0.222691 -0.000000
v -0.057262 0.222691 0.004746
v -0.053788 0.222691 0.008220
v -0.049043 0.222691 0.009491
v -0.044297 0.222691 0.008220
v -0.040823 0.222691 0.004746
v -0.039552 0.222691 -0.000000
v -0.040823 0.222691 -0.004746
v -0.044297 0.222691 -0.008220
v -0.055879 0.224777 -0.011841
v -0.049043 0.224777 -0.013673
v -0.060884 0.224777 -0.006837
v -0.062716 0.224777 -0.000000
v -0.060884 0.224777 0.006836
v -0.055879 0.224777 0.011841
v -0.049043 0.224777 0.013673
v -0.042206 0.224777 0.011841
v -0.037202 0.224777 0.006836
v -0.035370 0.224777 -0.000000
v -0.037202 0.224777 -0.006837
v -0.042206 0.224777 -0.011841
v -0.055879 0.232200 -0.011841
v -0.049043 0.232200 -0.013673
v -0.060884 0.232200 -0.006837
v -0.062716 0.232200 -0.000000
v -0.060884 0.232200 0.006836
v -0.055879 0.232200 0.011841
v -0.049043 0.232200 0.013673
v -0.042206 0.232200 0.011841
v -0.037202 0.232200 0.006836
v -0.035370 0.232200 -0.000000
v -0.037202 0.232200 -0.006837
v -0.042206 0.232200 -0.011841
v -0.054163 0.235727 -0.008869
v -0.049043 0.235727 -0.010241
v -0.057912 0.235727 -0.005120
v -0.059284 0.235727 0.000000
v -0.057912 0.235727 0.005120
v -0.054163 0.235727 0.008869
v -0.049043 0.235727 0.010241
v -0.043922 0.235727 0.008869
v -0.040174 0.235727 0.005120
v -0.038802 0.235727 0.000000
v -0.040174 0.235727 -0.005120
v -0.043922 0.235727 -0.008869
vn -0.1630 -0.1627 0.9731
vn 0.1639 -0.1632 0.9729
vn 0.2016 0.1216 0.9719
vn -0.1127 0.1834 0.9766
vn 0.1639 -0.1632 -0.9729
vn -0.1630 -0.1627 -0.9731
vn -0.1127 0.1834 -0.9766
vn 0.2016 0.1216 -0.9719
vn -0.1786 -0.9638 0.1980
vn -0.1786 -0.9638 -0.1980
vn 0.1786 -0.9638 -0.1980
vn 0.1786 -0.9638 0.1980
vn 0.1104 0.9740 0.1980
vn 0.5204 0.8312 0.1955
vn 0.5204 0.8312 -0.1955
vn 0.1104 0.9740 -0.1980
vn 0.9642 -0.1788 0.1959
vn 0.9642 -0.1788 -0.1959
vn 0.9797 0.0343 -0.1973
vn 0.9797 0.0343 0.1973
vn -0.9639 -0.1787 0.1975
vn -0.6942 -0.6942 0.1904
vn -0.5595 -0.5595 0.6114
vn -0.6730 -0.1642 0.7212
vn -0.1641 -0.6723 0.7219
vn 0.1641 -0.6723 0.7219
vn 0.5595 -0.5595 0.6114
vn 0.6750 -0.1649 0.7191
vn 0.6942 -0.6942 0.1904
vn -0.9639 -0.1787 -0.1975
vn -0.6730 -0.1642 -0.7212
vn -0.5595 -0.5595 -0.6114
vn -0.6942 -0.6942 -0.1904
vn -0.1641 -0.6723 -0.7219
vn 0.6942 -0.6942 -0.1904
vn 0.5595 -0.5595 -0.6114
vn 0.6750 -0.1649 -0.7191
vn 0.1641 -0.6723 -0.7219
vn -0.9477 0.2501 -0.1982
vn -0.5845 0.7888 -0.1904
vn -0.4711 0.6358 -0.6114
vn -0.6619 0.2132 -0.7186
vn 0.0458 0.6978 -0.7149
vn -0.9477 0.2501 0.1982
vn -0.6619 0.2132 0.7186
vn -0.4711 0.6358 0.6114
vn -0.5845 0.7888 0.1904
vn 0.0458 0.6978 0.7149
vn 0.6813 0.0606 0.7295
vn 0.7000 0.3691 0.6114
vn 0.3993 0.5642 0.7227
vn 0.8684 0.4579 0.1904
vn 0.6813 0.0606 -0.7295
vn 0.7000 0.3691 -0.6114
vn 0.8684 0.4579 -0.1904
vn 0.3993 0.5642 -0.7227
vn 0.3436 0.8343 0.4310
vn 0.3436 0.8343 -0.4310
vn 0.1833 0.8969 -0.4023
vn 0.1833 0.8969 0.4023
vn -0.3340 -0.8148 0.4739
vn -0.1712 -0.8525 0.4939
vn -0.1712 -0.8525 -0.4939
vn -0.3340 -0.8148 -0.4739
vn 0.8876 -0.2583 0.3814
vn 0.8876 -0.2583 -0.3814
vn 0.9197 0.0750 -0.3854
vn 0.9197 0.0750 0.3854
vn 0.7144 -0.5775 0.3952
vn 0.7144 -0.5775 -0.3952
vn 0.3708 -0.8252 0.4261
vn 0.3708 -0.8252 -0.4261
vn 0.7116 0.5708 -0.4095
vn 0.7116 0.5708 0.4095
vn 0.2456 -0.8865 0.3922
vn 0.2456 -0.8865 -0.3922
vn -0.8871 0.2454 0.3909
vn -0.8992 -0.0421 0.4356
vn -0.8992 -0.0421 -0.4356
vn -0.8871 0.2454 -0.3909
vn -0.7121 0.5321 -0.4580
vn -0.7121 0.5321 0.4580
vn -0.3666 0.8097 -0.4581
vn -0.3666 0.8097 0.4581
vn -0.6948 -0.5366 0.4789
vn -0.6948 -0.5366 -0.4789
vn -0.2299 0.8397 -0.4920
vn -0.2299 0.8397 0.4920
vn 0.1143 0.0593 -0.9917
vn 0.0364 0.0627 -0.9974
vn 0.1307 -0.0557 0.9899
vn 0.0403 -0.0501 0.9979
vn 0.0436 -0.1555 -0.9869
vn 0.0403 -0.0501 -0.9979
vn 0.1143 0.0593 0.9917
vn 0.1233 -0.0226 0.9921
vn 0.1307 -0.0557 -0.9899
vn 0.0284 -0.0037 -0.9996
vn 0.0436 -0.1555 0.9869
vn 0.0284 -0.0037 0.9996
vn 0.0293 0.1408 0.9896
vn 0.0364 0.0627 0.9974
vn 0.1233 -0.0226 -0.9921
vn 0.0293 0.1408 -0.9896
vn 0.3189 0.7703 -0.5523
vn 0.3786 0.6532 -0.6557
vn 0.6557 0.6532 -0.3786
vn 0.5523 0.7703 -0.3189
vn 0.3786 0.6532 0.6557
vn 0.5000 -0.0000 0.8660
vn 0.8660 -0.0000 0.5000
vn 0.6557 0.6532 0.3786
vn -0.6557 0.6532 0.3786
vn -0.8660 -0.0000 0.5000
vn -0.5000 -0.0000 0.8660
vn -0.3786 0.6532 0.6557
vn 0.5000 -0.0000 -0.8660
vn -0.0000 -0.0000 -1.0000
vn -0.0000 0.6532 -0.7572
vn -0.3786 0.6532 -0.6557
vn -0.5000 -0.0000 -0.8660
vn -0.8660 -0.0000 -0.5000
vn -0.6557 0.6532 -0.3786
vn 1.0000 -0.0000 -0.0000
vn 0.7572 0.6532 -0.0000
vn -0.0000 -0.0000 1.0000
vn -0.0000 0.6532 0.7572
vn -1.0000 -0.0000 -0.0000
vn -0.7572 0.6532 -0.0000
vn 0.8660 -0.0000 -0.5000
vn -0.0000 1.0000 -0.0000
vn -0.0000 0.7703 0.6377
vn -0.3189 0.7703 0.5523
vn 0.5523 0.7703 0.3189
vn 0.3189 0.7703 0.5523
vn -0.6377 0.7703 -0.0000
vn -0.5523 0.7703 -0.3189
vn -0.0000 0.7703 -0.6377
vn 0.6377 0.7703 -0.0000
vn -0.5523 0.7703 0.3189
vn -0.3189 0.7703 -0.5523
vn -0.0000 -1.0000 -0.0000
vn -0.5152 0.6849 0.5152
vn 0.2588 -0.0000 0.9659
vn -0.9659 -0.0000 0.2588
vn 0.7071 -0.0000 -0.7071
vn -0.2588 -0.0000 -0.9659
vn 0.7071 -0.0000 0.7071
vn -0.7071 -0.0000 0.7071
vn 0.2588 -0.0000 -0.9659
vn -0.7071 -0.0000 -0.7071
vn 0.9659 -0.0000 0.2588
vn -0.2588 -0.0000 0.9659
vn -0.9659 -0.0000 -0.2588
vn 0.9659 -0.0000 -0.2588
vn 0.1886 0.6849 -0.7038
vn -0.5152 0.6849 -0.5152
vn 0.7039 0.6848 0.1886
vn -0.1886 0.6849 0.7038
vn -0.7038 0.6849 -0.1886
vn 0.7039 0.6848 -0.1886
vn 0.1886 0.6848 0.7039
vn -0.7038 0.6849 0.1886
vn 0.5153 0.6848 -0.5153
vn -0.1886 0.6849 -0.7038
vn 0.5153 0.6848 0.5153
vt 0.025451 0.969992
vt 0.467899 0.576699
vt 0.027219 0.969992
vt 0.027219 0.966502
vt 0.467926 0.670260
vt 0.025451 0.969992
vt 0.025700 0.966994
vt 0.027219 0.966502
vt 0.025451 0.966502
vt 0.467906 0.621607
vt 0.035312 0.966502
vt 0.468042 0.905603
vt 0.035312 0.969992
vt 0.468200 0.000727
vt 0.037080 0.969992
vt 0.468200 0.999164
vt 0.035312 0.966502
vt 0.036831 0.966994
vt 0.037080 0.969992
vt 0.037080 0.966502
vt 0.468093 0.954256
vt 0.025451 0.974642
vt 0.467885 0.499945
vt 0.027219 0.978132
vt 0.467881 0.406384
vt 0.027219 0.974642
vt 0.025451 0.978132
vt 0.467878 0.455037
vt 0.025700 0.977640
vt 0.027219 0.978132
vt 0.025451 0.974642
vt 0.037080 0.974642
vt 0.468043 0.077480
vt 0.035312 0.974642
vt 0.035312 0.978132
vt 0.467917 0.171042
vt 0.037080 0.974642
vt 0.036831 0.977640
vt 0.035312 0.978132
vt 0.037080 0.978132
vt 0.467951 0.122388
vt 0.025451 0.974642
vt 0.000068 0.500025
vt 0.027219 0.974642
vt 0.027219 0.978132
vt 0.009559 0.407016
vt 0.025451 0.974642
vt 0.025700 0.977640
vt 0.027219 0.978132
vt 0.025451 0.978132
vt 0.002842 0.455203
vt 0.025451 0.969992
vt 0.000081 0.576779
vt 0.027219 0.966502
vt 0.009604 0.669785
vt 0.027219 0.969992
vt 0.025451 0.966502
vt 0.002870 0.621600
vt 0.025700 0.966994
vt 0.027219 0.966502
vt 0.025451 0.969992
vt 0.035312 0.966502
vt 0.127865 0.908656
vt 0.147105 0.000068
vt 0.037080 0.969992
vt 0.147105 0.999932
vt 0.035312 0.969992
vt 0.037080 0.966502
vt 0.141409 0.955387
vt 0.036831 0.966994
vt 0.037080 0.969992
vt 0.035312 0.966502
vt 0.037080 0.974642
vt 0.146948 0.076822
vt 0.035312 0.978132
vt 0.127738 0.168104
vt 0.035312 0.974642
vt 0.037080 0.978132
vt 0.141266 0.121369
vt 0.036831 0.977640
vt 0.035312 0.978132
vt 0.037080 0.974642
vt 0.037080 0.974642
vt 0.037080 0.969992
vt 0.037080 0.974642
vt 0.037080 0.969992
vt 0.037080 0.969992
vt 0.037080 0.974642
vt 0.037080 0.969992
vt 0.037080 0.974642
vt 0.037080 0.969992
vt 0.037080 0.969992
vt 0.037080 0.969992
vt 0.037080 0.974642
vt 0.037080 0.974642
vt 0.037080 0.974642
vt 0.037080 0.969992
vt 0.037080 0.969992
vt 0.037080 0.969992
vt 0.037080 0.974642
vt 0.037080 0.974642
vt 0.037080 0.974642
vt 0.037080 0.969992
vt 0.037080 0.969992
vt 0.037080 0.969992
vt 0.037080 0.974642
vt 0.037080 0.974642
vt 0.037080 0.974642
vt 0.037080 0.969992
vt 0.037080 0.969992
vt 0.037080 0.969992
vt 0.037080 0.974642
vt 0.037080 0.974642
vt 0.037080 0.974642
vt 0.037080 0.969992
vt 0.037080 0.969992
vt 0.037080 0.969992
vt 0.037080 0.969992
vt 0.037080 0.969992
vt 0.037080 0.969992
vt 0.037080 0.969992
vt 0.037080 0.969992
vt 0.037080 0.974642
vt 0.037080 0.974642
vt 0.037080 0.974642
vt 0.037080 0.974642
vt 0.037080 0.974642
vt 0.037080 0.974642
vt 0.037080 0.974642
vt 0.037080 0.974642
vt 0.036717 0.973529
vt 0.036717 0.973529
vt 0.036717 0.973529
vt 0.036717 0.973529
vt 0.036717 0.973529
vt 0.036717 0.973529
vt 0.036717 0.973529
vt 0.036717 0.973529
vt 0.036717 0.973529
vt 0.036717 0.973529
vt 0.036717 0.973529
vt 0.036717 0.973529
vt 0.036717 0.973529
vt 0.036717 0.973529
vt 0.036717 0.973529
vt 0.036717 0.973529
vt 0.036717 0.973529
vt 0.036717 0.973529
vt 0.036717 0.973529
vt 0.036717 0.973529
vt 0.036717 0.973529
vt 0.036717 0.973529
vt 0.036717 0.973529
vt 0.036717 0.973529
vt 0.036717 0.973529
vt 0.036717 0.973529
vt 0.036717 0.973529
vt 0.036717 0.973529
vt 0.036717 0.973529
vt 0.036717 0.973529
vt 0.036717 0.973529
vt 0.036717 0.973529
vt 0.036717 0.973529
vt 0.036717 0.973529
vt 0.036717 0.973529
vt 0.036717 0.973529
vt 0.031425 0.971015
vt 0.036717 0.973529
vt 0.031425 0.971015
vt 0.036717 0.973529
vt 0.031425 0.971015
vt 0.036717 0.973529
vt 0.031425 0.971015
vt 0.036717 0.973529
vt 0.031425 0.971015
vt 0.036717 0.973529
vt 0.031425 0.971015
vt 0.036717 0.973529
vt 0.031425 0.971015
vt 0.036717 0.973529
vt 0.031425 0.971015
vt 0.036717 0.973529
vt 0.031425 0.971015
vt 0.036717 0.973529
vt 0.031425 0.971015
vt 0.036717 0.973529
vt 0.031425 0.971015
vt 0.036717 0.973529
vt 0.031425 0.971015
vt 0.036717 0.973529
vt 0.069678 0.972783
vt 0.069678 0.972783
vt 0.069678 0.972783
vt 0.069678 0.972783
vt 0.069678 0.972783
vt 0.069678 0.972783
vt 0.069678 0.972783
vt 0.069678 0.972783
vt 0.069678 0.972783
vt 0.069678 0.972783
vt 0.069678 0.972783
vt 0.069678 0.972783
vt 0.069678 0.972783
vt 0.069678 0.972783
vt 0.069678 0.972783
vt 0.069678 0.972783
vt 0.069678 0.972783
vt 0.069678 0.972783
vt 0.069678 0.972783
vt 0.069678 0.972783
vt 0.069678 0.972783
vt 0.069678 0.972783
vt 0.069678 0.972783
vt 0.069678 0.972783
vt 0.069678 0.972783
vt 0.069678 0.972783
vt 0.069678 0.972783
vt 0.069678 0.972783
vt 0.069678 0.972783
vt 0.069678 0.972783
vt 0.069678 0.972783
vt 0.069678 0.972783
vt 0.069678 0.972783
vt 0.069678 0.972783
vt 0.069678 0.972783
vt 0.069678 0.972783
s 1
usemtl Washing_Product
f 3/5/1 8/12/2 43/63/3 37/55/4
f 24/36/5 16/25/6 31/46/7 51/76/8
f 2/3/9 17/26/10 23/34/11 9/13/12
f 38/56/13 45/67/14 52/77/15 30/44/16
f 10/14/17 22/33/18 50/74/19 44/64/20
f 1/1/21 4/6/22 5/7/23 7/9/24
f 2/3/9 6/8/25 5/7/23 4/6/22
f 3/4/1 7/9/24 5/7/23 6/8/25
f 8/11/2 11/17/26 12/18/27 14/20/28
f 9/13/12 13/19/29 12/18/27 11/17/26
f 10/15/17 14/20/28 12/18/27 13/19/29
f 15/22/30 18/27/31 19/29/32 21/31/33
f 16/24/6 20/30/34 19/29/32 18/27/31
f 17/26/10 21/31/33 19/29/32 20/30/34
f 22/32/18 25/37/35 26/38/36 28/40/37
f 23/34/11 27/39/38 26/38/36 25/37/35
f 24/35/5 28/40/37 26/38/36 27/39/38
f 29/42/39 32/47/40 33/48/41 35/50/42
f 30/44/16 34/49/43 33/48/41 32/47/40
f 31/45/7 35/50/42 33/48/41 34/49/43
f 36/52/44 39/57/45 40/59/46 42/61/47
f 37/54/4 41/60/48 40/59/46 39/57/45
f 38/56/13 42/61/47 40/59/46 41/60/48
f 43/62/3 46/68/49 47/70/50 49/72/51
f 44/65/20 48/71/52 47/70/50 46/68/49
f 45/67/14 49/72/51 47/70/50 48/71/52
f 50/73/19 53/78/53 54/80/54 56/82/55
f 51/75/8 55/81/56 54/80/54 53/78/53
f 52/77/15 56/82/55 54/80/54 55/81/56
f 17/26/10 2/3/9 4/6/22 21/31/33
f 21/31/33 4/6/22 1/1/21 15/22/30
f 2/3/9 9/13/12 11/17/26 6/8/25
f 6/8/25 11/17/26 8/11/2 3/4/1
f 9/13/12 23/34/11 25/37/35 13/19/29
f 13/19/29 25/37/35 22/32/18 10/15/17
f 23/34/11 17/26/10 20/30/34 27/39/38
f 27/39/38 20/30/34 16/24/6 24/35/5
f 29/42/39 36/52/44 42/61/47 32/47/40
f 32/47/40 42/61/47 38/56/13 30/44/16
f 37/54/4 43/62/3 49/72/51 41/60/48
f 41/60/48 49/72/51 45/67/14 38/56/13
f 44/65/20 50/73/19 56/82/55 48/71/52
f 48/71/52 56/82/55 52/77/15 45/67/14
f 51/75/8 31/45/7 34/49/43 55/81/56
f 55/81/56 34/49/43 30/44/16 52/77/15
f 24/36/5 51/76/8 53/79/53 28/41/37
f 28/41/37 53/79/53 50/74/19 22/33/18
f 43/63/3 8/12/2 14/21/28 46/69/49
f 46/69/49 14/21/28 10/16/17 44/66/20
f 3/5/1 37/55/4 39/58/45 7/10/24
f 7/10/24 39/58/45 36/53/44 1/2/21
f 31/46/7 16/25/6 18/28/31 35/51/42
f 35/51/42 18/28/31 15/23/30 29/43/39
f 15/23/30 1/2/21 36/53/44 29/43/39
f 72/98/57 74/100/58 64/90/59 63/89/60
f 84/110/61 58/84/62 57/83/63 86/112/64
f 66/92/65 68/94/66 75/101/67 71/97/68
f 68/94/66 66/92/65 67/93/69 70/96/70
f 70/96/70 67/93/69 65/91/71 69/95/72
f 71/97/68 75/101/67 76/102/73 73/99/74
f 73/99/74 76/102/73 74/100/58 72/98/57
f 69/95/72 65/91/71 61/87/75 62/88/76
f 78/104/77 83/109/78 87/113/79 80/106/80
f 80/106/80 82/108/81 79/105/82 78/104/77
f 82/108/81 81/107/83 77/103/84 79/105/82
f 83/109/78 85/111/85 88/114/86 87/113/79
f 85/111/85 84/110/61 86/112/64 88/114/86
f 81/107/83 59/85/87 60/86/88 77/103/84
f 98/124/89 88/114/86 86/112/64 97/123/90
f 90/116/91 79/105/82 77/103/84 89/115/92
f 100/126/93 59/85/87 81/107/83 99/125/94
f 92/118/95 85/111/85 83/109/78 91/117/96
f 102/128/97 82/108/81 80/106/80 101/127/98
f 89/115/92 77/103/84 60/86/88 93/119/99
f 91/117/96 83/109/78 78/104/77 94/120/100
f 63/89/60 95/121/101 96/122/102 72/98/57
f 103/129/103 87/113/79 88/114/86 98/124/89
f 94/120/100 78/104/77 79/105/82 90/116/91
f 101/127/98 80/106/80 87/113/79 103/129/103
f 72/98/57 96/122/102 92/118/95 73/99/74
f 95/121/101 58/84/62 84/110/61 96/122/102
f 96/122/102 84/110/61 85/111/85 92/118/95
f 99/125/94 81/107/83 82/108/81 102/128/97
f 97/123/90 86/112/64 57/83/63 104/130/104
f 66/92/65 94/120/100 90/116/91 67/93/69
f 71/97/68 91/117/96 94/120/100 66/92/65
f 65/91/71 89/115/92 93/119/99 61/87/75
f 73/99/74 92/118/95 91/117/96 71/97/68
f 67/93/69 90/116/91 89/115/92 65/91/71
f 74/100/58 97/123/90 104/130/104 64/90/59
f 69/95/72 99/125/94 102/128/97 70/96/70
f 68/94/66 101/127/98 103/129/103 75/101/67
f 75/101/67 103/129/103 98/124/89 76/102/73
f 70/96/70 102/128/97 101/127/98 68/94/66
f 62/88/76 100/126/93 99/125/94 69/95/72
f 76/102/73 98/124/89 97/123/90 74/100/58
f 110/136/105 146/178/106 145/176/107 109/135/108
f 136/162/109 124/150/110 125/151/111 137/163/112
f 133/159/113 121/147/114 122/148/115 134/160/116
f 140/166/106 128/154/117 118/144/118 130/156/119
f 129/155/120 117/143/121 119/145/122 131/157/123
f 137/163/112 125/151/111 126/152/124 138/164/125
f 134/160/116 122/148/115 123/149/126 135/161/127
f 131/157/123 119/145/122 120/146/128 132/158/129
f 138/164/125 126/152/124 127/153/130 139/165/107
f 135/161/127 123/149/126 124/150/110 136/162/109
f 132/158/129 120/146/128 121/147/114 133/159/113
f 139/165/107 127/153/130 128/154/117 140/166/106
f 130/156/119 118/144/118 117/143/121 129/155/120
s 0
f 105/131/131 130/156/131 129/155/131 106/132/131
f 106/132/131 129/155/131 131/157/131 107/133/131
f 107/133/131 131/157/131 132/158/131 108/134/131
f 108/134/131 132/158/131 133/159/131 109/135/131
f 109/135/131 133/159/131 134/160/131 110/136/131
f 110/136/131 134/160/131 135/161/131 111/137/131
f 111/137/131 135/161/131 136/162/131 112/138/131
f 112/138/131 136/162/131 137/163/131 113/139/131
f 113/139/131 137/163/131 138/164/131 114/140/131
f 114/140/131 138/164/131 139/165/131 115/141/131
f 115/141/131 139/165/131 140/166/131 116/142/131
f 116/142/131 140/166/131 130/156/131 105/131/131
f 141/167/131 143/171/131 144/173/131 145/175/131 146/177/131 147/179/131 148/181/131 149/183/131 150/185/131 151/187/131 152/189/131 142/169/131
s 1
f 105/131/132 142/170/127 152/190/116 116/142/133
f 107/133/134 143/172/112 141/168/109 106/132/135
f 114/140/136 150/186/129 149/184/123 113/139/137
f 111/137/138 147/180/119 146/178/106 110/136/105
f 108/134/139 144/174/125 143/172/112 107/133/134
f 115/141/140 151/188/113 150/186/129 114/140/136
f 112/138/141 148/182/120 147/180/119 111/137/138
f 109/135/108 145/176/107 144/174/125 108/134/139
f 116/142/133 152/190/116 151/188/113 115/141/140
f 106/132/135 141/168/109 142/170/127 105/131/132
f 113/139/137 149/184/123 148/182/120 112/138/141
s 0
f 153/191/142 154/192/142 164/202/142 163/201/142 162/200/142 161/199/142 160/198/142 159/197/142 158/196/142 157/195/142 156/194/142 155/193/142
f 170/208/143 182/220/143 181/219/143 169/207/143
f 160/198/144 172/210/144 171/209/144 159/197/144
f 157/195/145 169/207/145 168/206/145 156/194/145
f 164/202/146 176/214/146 175/213/146 163/201/146
f 153/191/147 165/203/147 166/204/147 154/192/147
f 161/199/148 173/211/148 172/210/148 160/198/148
f 158/196/149 170/208/149 169/207/149 157/195/149
f 154/192/150 166/204/150 176/214/150 164/202/150
f 155/193/151 167/205/151 165/203/151 153/191/151
f 162/200/152 174/212/152 173/211/152 161/199/152
f 159/197/153 171/209/153 170/208/153 158/196/153
f 156/194/154 168/206/154 167/205/154 155/193/154
f 163/201/155 175/213/155 174/212/155 162/200/155
f 177/215/131 179/217/131 180/218/131 181/219/131 182/220/131 183/221/131 184/222/131 185/223/131 186/224/131 187/225/131 188/226/131 178/216/131
f 166/204/156 178/216/156 188/226/156 176/214/156
f 167/205/157 179/217/157 177/215/157 165/203/157
f 174/212/158 186/224/158 185/223/158 173/211/158
f 171/209/159 183/221/159 182/220/159 170/208/159
f 168/206/160 180/218/160 179/217/160 167/205/160
f 175/213/161 187/225/161 186/224/161 174/212/161
f 172/210/162 184/222/162 183/221/162 171/209/162
f 169/207/163 181/219/163 180/218/163 168/206/163
f 176/214/164 188/226/164 187/225/164 175/213/164
f 165/203/165 177/215/165 178/216/165 166/204/165
f 173/211/166 185/223/166 184/222/166 172/210/166
