# Blender 3.4.1
# www.blender.org
mtllib Washing_Machine.mtl
o Washing_Machine
v 0.411320 0.020457 -0.385670
v 0.411320 0.832654 -0.385670
v 0.431778 0.832654 0.357552
v 0.431778 0.000000 0.357552
v 0.411320 0.928580 -0.385670
v 0.431778 0.949037 0.286883
v 0.431778 0.878367 0.357552
v 0.431778 0.939569 0.322218
v 0.431778 0.913702 0.348084
v -0.411320 0.020457 -0.385670
v -0.411320 0.832654 -0.385670
v -0.431778 0.832654 0.357552
v -0.431778 0.000000 0.357552
v -0.411320 0.928580 -0.385670
v -0.431778 0.949037 0.286883
v -0.431778 0.878367 0.357552
v -0.431778 0.939569 0.322218
v -0.431778 0.913702 0.348084
v 0.431778 0.000000 -0.385670
v 0.431778 0.832654 -0.385670
v 0.431778 0.949037 -0.385670
v -0.431778 0.000000 -0.385670
v -0.431778 0.832654 -0.385670
v -0.431778 0.949037 -0.385670
v 0.411320 0.832654 -0.358784
v -0.411320 0.832654 -0.358784
v 0.411320 0.020457 -0.358784
v 0.411320 0.928580 -0.358784
v -0.411320 0.020457 -0.358784
v -0.411320 0.928580 -0.358784
v 0.000000 0.787832 -0.086762
v 0.114805 0.764996 -0.086762
v 0.212132 0.699964 -0.086762
v 0.277164 0.602637 -0.086762
v 0.300000 0.487832 -0.086762
v 0.277164 0.373027 -0.086762
v 0.212132 0.275700 -0.086762
v 0.114805 0.210668 -0.086762
v -0.000000 0.187832 -0.086762
v -0.114805 0.210668 -0.086762
v -0.212132 0.275700 -0.086762
v -0.277164 0.373027 -0.086762
v -0.300000 0.487832 -0.086762
v -0.277164 0.602637 -0.086762
v -0.212132 0.699964 -0.086762
v -0.114805 0.764996 -0.086762
v -0.300000 0.487832 0.357552
v -0.277164 0.373027 0.357552
v -0.277164 0.602637 0.357552
v -0.114805 0.210668 0.357552
v 0.114805 0.210668 0.357552
v -0.000000 0.187832 0.357552
v -0.212132 0.275700 0.357552
v -0.212132 0.699964 0.357552
v -0.114805 0.764996 0.357552
v 0.000000 0.787832 0.357552
v 0.114805 0.764996 0.357552
v 0.300000 0.487832 0.357552
v 0.277164 0.373027 0.357552
v 0.212132 0.275700 0.357552
v 0.277164 0.602637 0.357552
v 0.212132 0.699964 0.357552
v 0.271926 0.419468 0.384247
v 0.271926 0.562557 0.384247
v 0.364879 0.419468 0.288619
v 0.364879 0.562557 0.288619
v 0.271926 0.419468 0.288619
v 0.271926 0.562557 0.288619
v 0.338966 0.419468 0.384247
v 0.353486 0.419468 0.370218
v 0.338966 0.562557 0.384247
v 0.353486 0.562557 0.370218
v 0.409473 0.952316 0.225945
v 0.342758 0.952316 0.225945
v 0.342758 0.952316 0.165191
v 0.409473 0.952316 0.165191
v 0.409473 0.944239 0.225945
v 0.342758 0.944239 0.225945
v 0.342758 0.944239 0.165191
v 0.409473 0.944239 0.165191
v 0.371301 0.951081 0.260752
v 0.373233 0.951081 0.258820
v 0.349257 0.951081 0.258820
v 0.351188 0.951081 0.260752
v 0.351188 0.951081 0.238917
v 0.349257 0.951081 0.240849
v 0.373233 0.951081 0.240849
v 0.371301 0.951081 0.238917
v 0.373233 0.943005 0.258820
v 0.371301 0.943005 0.260752
v 0.351188 0.943005 0.260752
v 0.349257 0.943005 0.258820
v 0.349257 0.943005 0.240849
v 0.351188 0.943005 0.238917
v 0.371301 0.943005 0.238917
v 0.373233 0.943005 0.240849
v 0.401758 0.951081 0.260752
v 0.403690 0.951081 0.258820
v 0.379714 0.951081 0.258820
v 0.381645 0.951081 0.260752
v 0.381645 0.951081 0.238917
v 0.379714 0.951081 0.240849
v 0.403690 0.951081 0.240849
v 0.401758 0.951081 0.238917
v 0.403690 0.943005 0.258820
v 0.401758 0.943005 0.260752
v 0.381645 0.943005 0.260752
v 0.379714 0.943005 0.258820
v 0.379714 0.943005 0.240849
v 0.381645 0.943005 0.238917
v 0.401758 0.943005 0.238917
v 0.403690 0.943005 0.240849
vn 1.0000 -0.0000 -0.0000
vn -0.0000 -1.0000 -0.0000
vn -0.0000 -0.0000 1.0000
vn -0.0000 0.2588 0.9659
vn -0.0000 0.7071 0.7071
vn -0.0000 0.9659 0.2588
vn -0.0000 1.0000 -0.0000
vn -1.0000 -0.0000 -0.0000
vn -0.0000 -0.0000 -1.0000
vn -0.1951 -0.9808 -0.0000
vn -0.5556 -0.8315 -0.0000
vn -0.8315 -0.5556 -0.0000
vn -0.9808 -0.1951 -0.0000
vn -0.9808 0.1951 -0.0000
vn -0.8315 0.5556 -0.0000
vn -0.5556 0.8315 -0.0000
vn -0.1951 0.9808 -0.0000
vn 0.1951 0.9808 -0.0000
vn 0.5556 0.8315 -0.0000
vn 0.8315 0.5556 -0.0000
vn 0.9808 0.1951 -0.0000
vn 0.9808 -0.1951 -0.0000
vn 0.8315 -0.5556 -0.0000
vn 0.5556 -0.8315 -0.0000
vn 0.1951 -0.9808 -0.0000
vn 0.6948 -0.0000 0.7192
vn 0.9904 -0.0000 0.1383
vn 0.7071 -0.0000 -0.7071
vn -0.7071 -0.0000 -0.7071
vn -0.7071 -0.0000 0.7071
vn 0.7071 -0.0000 0.7071
vt 0.300898 0.801011
vt 0.300898 0.801011
vt 0.300898 0.801011
vt 0.300898 0.801011
vt 0.300898 0.801011
vt 0.300898 0.801011
vt 0.300898 0.801011
vt 0.300898 0.801011
vt 0.300898 0.801011
vt 0.300898 0.801011
vt 0.300898 0.801011
vt 0.300898 0.801011
vt 0.300898 0.801011
vt 0.300898 0.801011
vt 0.300898 0.801011
vt 0.300898 0.801011
vt 0.300898 0.801011
vt 0.300898 0.801011
vt 0.300898 0.801011
vt 0.300898 0.801011
vt 0.300898 0.801011
vt 0.300898 0.801011
vt 0.300898 0.801011
vt 0.300898 0.801011
vt 0.050898 0.988744
vt 0.300898 0.801011
vt 0.050898 0.988744
vt 0.300898 0.801011
vt 0.050898 0.988743
vt 0.300898 0.801011
vt 0.050898 0.988744
vt 0.300898 0.801011
vt 0.050898 0.988744
vt 0.300898 0.801011
vt 0.050898 0.988744
vt 0.300898 0.801011
vt 0.237240 0.886994
vt 0.187240 0.886994
vt 0.224740 0.886494
vt 0.234115 0.886994
vt 0.229332 0.885580
vt 0.230990 0.886994
vt 0.233225 0.882979
vt 0.227865 0.886994
vt 0.235826 0.879086
vt 0.224740 0.886994
vt 0.236740 0.874494
vt 0.221615 0.886994
vt 0.235826 0.869902
vt 0.218490 0.886994
vt 0.233225 0.866009
vt 0.215365 0.886994
vt 0.229332 0.863407
vt 0.212240 0.886994
vt 0.224740 0.862494
vt 0.209115 0.886994
vt 0.220147 0.863407
vt 0.205990 0.886994
vt 0.216254 0.866009
vt 0.202865 0.886994
vt 0.213653 0.869902
vt 0.199740 0.886994
vt 0.212740 0.874494
vt 0.196615 0.886994
vt 0.213653 0.879086
vt 0.193490 0.886994
vt 0.216254 0.882979
vt 0.190365 0.886994
vt 0.220147 0.885580
vt 0.300898 0.801011
vt 0.199740 0.898102
vt 0.300898 0.801011
vt 0.202865 0.898102
vt 0.300898 0.801011
vt 0.196615 0.898102
vt 0.300898 0.801011
vt 0.209115 0.898102
vt 0.300898 0.801011
vt 0.215365 0.898102
vt 0.300898 0.801011
vt 0.212240 0.898102
vt 0.300898 0.801011
vt 0.205990 0.898102
vt 0.300898 0.801011
vt 0.193490 0.898102
vt 0.300898 0.801011
vt 0.190365 0.898102
vt 0.300898 0.801011
vt 0.237240 0.898102
vt 0.187240 0.898102
vt 0.300898 0.801011
vt 0.234115 0.898102
vt 0.300898 0.801011
vt 0.224740 0.898102
vt 0.300898 0.801011
vt 0.221615 0.898102
vt 0.300898 0.801011
vt 0.218490 0.898102
vt 0.300898 0.801011
vt 0.227865 0.898102
vt 0.300898 0.801011
vt 0.230990 0.898102
vt 0.231975 0.788512
vt 0.231975 0.788512
vt 0.231975 0.788512
vt 0.231975 0.788512
vt 0.231975 0.788512
vt 0.231975 0.788512
vt 0.231975 0.788512
vt 0.231975 0.788512
vt 0.231975 0.788512
vt 0.231975 0.788512
vt 0.106667 0.976042
vt 0.222773 0.797337
vt 0.106667 0.976042
vt 0.222773 0.797337
vt 0.106667 0.976042
vt 0.222773 0.797337
vt 0.106667 0.976042
vt 0.222773 0.797337
vt 0.222773 0.797337
vt 0.222773 0.797337
vt 0.222773 0.797337
vt 0.222773 0.797337
vt 0.220169 0.799942
vt 0.222773 0.797337
vt 0.220169 0.799942
vt 0.222773 0.797337
vt 0.220169 0.799942
vt 0.222773 0.797338
vt 0.220169 0.799942
vt 0.222773 0.797337
vt 0.220169 0.799942
vt 0.222773 0.797337
vt 0.220169 0.799942
vt 0.222773 0.797337
vt 0.220169 0.799942
vt 0.222773 0.797338
vt 0.220169 0.799942
vt 0.222773 0.797337
vt 0.222773 0.797338
vt 0.222773 0.797337
vt 0.222773 0.797337
vt 0.222773 0.797337
vt 0.222773 0.797338
vt 0.222773 0.797337
vt 0.222773 0.797337
vt 0.222773 0.797337
vt 0.220169 0.799942
vt 0.222773 0.797337
vt 0.220169 0.799942
vt 0.222773 0.797337
vt 0.220169 0.799942
vt 0.222773 0.797338
vt 0.220169 0.799942
vt 0.222773 0.797337
vt 0.220169 0.799942
vt 0.222773 0.797337
vt 0.220169 0.799942
vt 0.222773 0.797337
vt 0.220169 0.799942
vt 0.222773 0.797338
vt 0.220169 0.799942
vt 0.222773 0.797337
vt 0.222773 0.797338
vt 0.222773 0.797337
vt 0.222773 0.797337
vt 0.222773 0.797337
vt 0.222773 0.797338
vt 0.222773 0.797337
vt 0.222773 0.797337
vt 0.222773 0.797337
s 0
usemtl Palette
f 10/10/1 11/11/1 26/28/1 29/34/1
f 4/4/1 19/19/1 20/20/1 3/3/1
f 14/14/2 5/5/2 28/32/2 30/36/2
f 7/7/1 3/3/1 20/20/1 21/21/1 6/6/1 8/8/1 9/9/1
f 12/12/3 13/13/3 4/4/3 3/3/3 62/101/3 61/99/3 58/93/3 59/95/3 60/97/3 51/78/3 52/80/3 50/76/3 53/82/3 48/72/3 47/70/3 49/74/3 54/84/3
f 62/101/3 3/3/3 12/12/3 54/84/3 55/86/3 56/88/3 57/91/3
f 9/9/4 18/18/4 16/16/4 7/7/4
f 8/8/5 17/17/5 18/18/5 9/9/5
f 6/6/6 15/15/6 17/17/6 8/8/6
f 24/24/7 15/15/7 6/6/7 21/21/7
f 7/7/3 16/16/3 12/12/3 3/3/3
f 13/13/8 12/12/8 23/23/8 22/22/8
f 15/15/8 24/24/8 23/23/8 12/12/8 16/16/8 18/18/8 17/17/8
f 13/13/2 22/22/2 19/19/2 4/4/2
f 1/1/9 2/2/9 20/20/9 19/19/9
f 2/2/9 5/5/9 21/21/9 20/20/9
f 10/10/9 1/1/9 19/19/9 22/22/9
f 11/11/9 10/10/9 22/22/9 23/23/9
f 14/14/9 11/11/9 23/23/9 24/24/9
f 5/5/9 14/14/9 24/24/9 21/21/9
f 26/27/9 30/35/9 28/31/9 25/25/9
f 29/33/9 26/27/9 25/25/9 27/29/9
f 5/5/8 2/2/8 25/26/8 28/32/8
f 11/11/1 14/14/1 30/36/1 26/28/1
f 1/1/7 10/10/7 29/34/7 27/30/7
f 2/2/8 1/1/8 27/30/8 25/26/8
f 56/89/10 31/37/10 32/40/10 57/92/10
f 57/92/11 32/40/11 33/42/11 62/102/11
f 62/102/12 33/42/12 34/44/12 61/100/12
f 61/100/13 34/44/13 35/46/13 58/94/13
f 58/94/14 35/46/14 36/48/14 59/96/14
f 59/96/15 36/48/15 37/50/15 60/98/15
f 60/98/16 37/50/16 38/52/16 51/79/16
f 51/79/17 38/52/17 39/54/17 52/81/17
f 52/81/18 39/54/18 40/56/18 50/77/18
f 50/77/19 40/56/19 41/58/19 53/83/19
f 53/83/20 41/58/20 42/60/20 48/73/20
f 48/73/21 42/60/21 43/62/21 47/71/21
f 47/71/22 43/62/22 44/64/22 49/75/22
f 49/75/23 44/64/23 45/66/23 54/85/23
f 54/85/24 45/66/24 46/68/24 55/87/24
f 55/87/25 46/68/25 31/38/25 56/90/25
f 32/41/3 31/39/3 46/69/3 45/67/3 44/65/3 43/63/3 42/61/3 41/59/3 40/57/3 39/55/3 38/53/3 37/51/3 36/49/3 35/47/3 34/45/3 33/43/3
f 63/103/2 67/107/2 65/105/2 70/110/2 69/109/2
f 64/104/8 68/108/8 67/107/8 63/103/8
f 72/112/7 66/106/7 68/108/7 64/104/7 71/111/7
f 71/111/3 64/104/3 63/103/3 69/109/3
f 69/109/26 70/110/26 72/112/26 71/111/26
f 72/112/27 70/110/27 65/105/27 66/106/27
f 74/115/7 73/113/7 76/119/7 75/117/7
f 75/118/9 76/120/9 80/124/9 79/123/9
f 73/114/3 74/116/3 78/122/3 77/121/3
f 76/120/1 73/114/1 77/121/1 80/124/1
f 74/116/8 75/118/8 79/123/8 78/122/8
f 87/138/1 82/128/1 89/141/1 96/148/1
f 83/129/7 84/131/7 81/125/7 82/127/7 87/137/7 88/139/7 85/133/7 86/135/7
f 83/130/8 86/136/8 93/145/8 92/144/8
f 85/134/9 88/140/9 95/147/9 94/146/9
f 87/138/28 96/148/28 95/147/28 88/140/28
f 93/145/29 86/136/29 85/134/29 94/146/29
f 83/130/30 92/144/30 91/143/30 84/132/30
f 89/141/31 82/128/31 81/126/31 90/142/31
f 81/126/3 84/132/3 91/143/3 90/142/3
f 103/162/1 98/152/1 105/165/1 112/172/1
f 99/153/7 100/155/7 97/149/7 98/151/7 103/161/7 104/163/7 101/157/7 102/159/7
f 99/154/8 102/160/8 109/169/8 108/168/8
f 101/158/9 104/164/9 111/171/9 110/170/9
f 103/162/28 112/172/28 111/171/28 104/164/28
f 109/169/29 102/160/29 101/158/29 110/170/29
f 99/154/30 108/168/30 107/167/30 100/156/30
f 105/165/31 98/152/31 97/150/31 106/166/31
f 97/150/3 100/156/3 107/167/3 106/166/3
