# Blender 3.4.1
# www.blender.org
mtllib Wifi.mtl
o Wifi
v 0.015056 0.004943 -0.066241
v -0.015056 0.004943 -0.066241
v 0.015056 0.076983 -0.066241
v -0.015056 0.076983 -0.066241
v -0.015893 0.000000 -0.009524
v 0.015893 0.000000 -0.009524
v -0.015893 0.179993 -0.009524
v 0.015893 0.179993 -0.009524
v 0.019551 0.000000 0.054133
v 0.012177 0.000000 0.061943
v 0.017577 0.000000 0.059655
v -0.012177 0.000000 0.061943
v -0.019551 0.000000 0.054133
v -0.017577 0.000000 0.059655
v -0.019551 0.179993 0.054133
v -0.012177 0.179993 0.061943
v -0.017577 0.179993 0.059655
v 0.012177 0.179993 0.061943
v 0.019551 0.179993 0.054133
v 0.017577 0.179993 0.059655
v 0.020000 0.000000 -0.066241
v -0.020000 0.000000 -0.066241
v 0.020000 0.179993 -0.066241
v -0.020000 0.179993 -0.066241
v 0.015056 0.004943 -0.063285
v -0.015056 0.004943 -0.063285
v 0.015056 0.076983 -0.063285
v -0.015056 0.076983 -0.063285
v -0.000700 0.161996 0.062844
v -0.004401 0.160463 0.062844
v -0.005934 0.156762 0.062844
v -0.004401 0.153061 0.062844
v -0.000700 0.151527 0.062844
v 0.003001 0.153061 0.062844
v 0.004534 0.156762 0.062844
v 0.003001 0.160463 0.062844
v -0.004401 0.160463 0.059808
v -0.000700 0.161996 0.059808
v -0.005934 0.156762 0.059808
v -0.004401 0.153061 0.059808
v -0.000700 0.151527 0.059808
v 0.003001 0.153061 0.059808
v 0.004534 0.156762 0.059808
v 0.003001 0.160463 0.059808
v -0.000701 0.138330 0.062844
v -0.003087 0.137342 0.062844
v -0.004075 0.134956 0.062844
v -0.003087 0.132570 0.062844
v -0.000701 0.131581 0.062844
v 0.001686 0.132570 0.062844
v 0.002674 0.134956 0.062844
v 0.001686 0.137342 0.062844
v -0.003087 0.137342 0.059808
v -0.000701 0.138330 0.059808
v -0.004075 0.134956 0.059808
v -0.003087 0.132570 0.059808
v -0.000701 0.131581 0.059808
v 0.001686 0.132570 0.059808
v 0.002674 0.134956 0.059808
v 0.001686 0.137342 0.059808
v -0.000701 0.122319 0.062844
v -0.003087 0.121330 0.062844
v -0.004075 0.118944 0.062844
v -0.003087 0.116558 0.062844
v -0.000701 0.115569 0.062844
v 0.001686 0.116558 0.062844
v 0.002674 0.118944 0.062844
v 0.001686 0.121330 0.062844
v -0.003087 0.121330 0.059808
v -0.000701 0.122319 0.059808
v -0.004075 0.118944 0.059808
v -0.003087 0.116558 0.059808
v -0.000701 0.115569 0.059808
v 0.001686 0.116558 0.059808
v 0.002674 0.118944 0.059808
v 0.001686 0.121330 0.059808
v -0.000701 0.105090 0.062844
v -0.003087 0.104102 0.062844
v -0.004075 0.101716 0.062844
v -0.003087 0.099329 0.062844
v -0.000701 0.098341 0.062844
v 0.001686 0.099329 0.062844
v 0.002674 0.101716 0.062844
v 0.001686 0.104102 0.062844
v -0.003087 0.104102 0.059808
v -0.000701 0.105090 0.059808
v -0.004075 0.101716 0.059808
v -0.003087 0.099329 0.059808
v -0.000701 0.098341 0.059808
v 0.001686 0.099329 0.059808
v 0.002674 0.101716 0.059808
v 0.001686 0.104102 0.059808
v -0.000701 0.087242 0.062844
v -0.003087 0.086253 0.062844
v -0.004075 0.083867 0.062844
v -0.003087 0.081481 0.062844
v -0.000701 0.080492 0.062844
v 0.001686 0.081481 0.062844
v 0.002674 0.083867 0.062844
v 0.001686 0.086253 0.062844
v -0.003087 0.086253 0.059808
v -0.000701 0.087242 0.059808
v -0.004075 0.083867 0.059808
v -0.003087 0.081481 0.059808
v -0.000701 0.080492 0.059808
v 0.001686 0.081481 0.059808
v 0.002674 0.083867 0.059808
v 0.001686 0.086253 0.059808
v -0.000700 0.045533 0.062844
v -0.004401 0.044000 0.062844
v -0.005934 0.040298 0.062844
v -0.004401 0.036597 0.062844
v -0.000700 0.035064 0.062844
v 0.003001 0.036597 0.062844
v 0.004534 0.040298 0.062844
v 0.003001 0.044000 0.062844
v -0.004401 0.044000 0.059808
v -0.000700 0.045533 0.059808
v -0.005934 0.040298 0.059808
v -0.004401 0.036597 0.059808
v -0.000700 0.035064 0.059808
v 0.003001 0.036597 0.059808
v 0.004534 0.040298 0.059808
v 0.003001 0.044000 0.059808
v -0.000700 0.031676 0.062844
v -0.003114 0.030676 0.062844
v -0.004114 0.028262 0.062844
v -0.003114 0.025849 0.062844
v -0.000700 0.024849 0.062844
v 0.001713 0.025849 0.062844
v 0.002713 0.028262 0.062844
v 0.001713 0.030676 0.062844
v -0.003114 0.030676 0.059808
v -0.000700 0.031676 0.059808
v -0.004114 0.028262 0.059808
v -0.003114 0.025849 0.059808
v -0.000700 0.024849 0.059808
v 0.001713 0.025849 0.059808
v 0.002713 0.028262 0.059808
v 0.001713 0.030676 0.059808
vn -0.0000 -1.0000 -0.0000
vn -0.0000 1.0000 -0.0000
vn 0.6919 -0.7220 0.0051
vn 0.5997 -0.5736 -0.5579
vn 0.5997 0.5736 -0.5579
vn 0.6919 0.7220 0.0051
vn 0.7393 -0.6649 0.1064
vn 0.7393 0.6649 0.1064
vn -1.0000 -0.0000 -0.0000
vn -0.5997 -0.5736 -0.5579
vn -0.6919 -0.7220 0.0051
vn -0.6919 0.7220 0.0051
vn -0.5997 0.5736 -0.5579
vn -0.7393 -0.6649 0.1064
vn -0.7393 0.6649 0.1064
vn -0.1486 -0.6649 0.7320
vn 0.1486 -0.6649 0.7320
vn 0.1486 0.6649 0.7320
vn -0.1486 0.6649 0.7320
vn 0.5665 -0.6269 0.5349
vn 0.5665 0.6269 0.5349
vn -0.5665 0.6269 0.5349
vn -0.5665 -0.6269 0.5349
vn -0.0000 -0.0000 -1.0000
vn 1.0000 -0.0000 -0.0000
vn -0.0000 -0.0000 1.0000
vn -0.9239 0.3827 -0.0000
vn 0.9239 0.3827 -0.0000
vn 0.3827 -0.9239 -0.0000
vn -0.9239 -0.3827 -0.0000
vn -0.3827 0.9239 -0.0000
vn 0.3827 0.9239 -0.0000
vn 0.9239 -0.3827 -0.0000
vn -0.3827 -0.9239 -0.0000
vt 0.137089 0.988292
vt 0.099448 0.988292
vt 0.137089 0.988292
vt 0.099448 0.988292
vt 0.093269 0.963292
vt 0.143269 0.963292
vt 0.093269 0.963292
vt 0.143269 0.963292
vt 0.143269 0.941024
vt 0.133490 0.938292
vt 0.142288 0.938559
vt 0.103047 0.938292
vt 0.093268 0.941024
vt 0.094249 0.938559
vt 0.093269 0.941024
vt 0.103047 0.938292
vt 0.094249 0.938559
vt 0.133490 0.938292
vt 0.143269 0.941024
vt 0.142288 0.938559
vt 0.143269 0.988292
vt 0.093269 0.988292
vt 0.143269 0.988292
vt 0.093269 0.988292
vt 0.225631 0.972667
vt 0.137089 0.988292
vt 0.187990 0.972667
vt 0.099448 0.988292
vt 0.225631 0.972667
vt 0.137089 0.988292
vt 0.187990 0.972667
vt 0.099448 0.988292
vt 0.883893 0.897929
vt 0.866215 0.890607
vt 0.858893 0.872929
vt 0.866215 0.855252
vt 0.883893 0.847929
vt 0.901571 0.855252
vt 0.908893 0.872929
vt 0.901571 0.890607
vt 0.866215 0.890607
vt 0.883893 0.897929
vt 0.858893 0.872929
vt 0.866215 0.855252
vt 0.883893 0.847929
vt 0.901571 0.855252
vt 0.908893 0.872929
vt 0.901571 0.890607
vt 0.883893 0.897929
vt 0.866215 0.890607
vt 0.858893 0.872929
vt 0.866215 0.855252
vt 0.883893 0.847929
vt 0.901571 0.855252
vt 0.908893 0.872929
vt 0.901571 0.890607
vt 0.866215 0.890607
vt 0.883893 0.897929
vt 0.858893 0.872929
vt 0.866215 0.855252
vt 0.883893 0.847929
vt 0.901571 0.855252
vt 0.908893 0.872929
vt 0.901571 0.890607
vt 0.883893 0.897929
vt 0.866215 0.890607
vt 0.858893 0.872929
vt 0.866215 0.855252
vt 0.883893 0.847929
vt 0.901571 0.855252
vt 0.908893 0.872929
vt 0.901571 0.890607
vt 0.866215 0.890607
vt 0.883893 0.897929
vt 0.858893 0.872929
vt 0.866215 0.855252
vt 0.883893 0.847929
vt 0.901571 0.855252
vt 0.908893 0.872929
vt 0.901571 0.890607
vt 0.883893 0.897929
vt 0.866215 0.890607
vt 0.858893 0.872929
vt 0.866215 0.855252
vt 0.883893 0.847929
vt 0.901571 0.855252
vt 0.908893 0.872929
vt 0.901571 0.890607
vt 0.866215 0.890607
vt 0.883893 0.897929
vt 0.858893 0.872929
vt 0.866215 0.855252
vt 0.883893 0.847929
vt 0.901571 0.855252
vt 0.908893 0.872929
vt 0.901571 0.890607
vt 0.883893 0.897929
vt 0.866215 0.890607
vt 0.858893 0.872929
vt 0.866215 0.855252
vt 0.883893 0.847929
vt 0.901571 0.855252
vt 0.908893 0.872929
vt 0.901571 0.890607
vt 0.866215 0.890607
vt 0.883893 0.897929
vt 0.858893 0.872929
vt 0.866215 0.855252
vt 0.883893 0.847929
vt 0.901571 0.855252
vt 0.908893 0.872929
vt 0.901571 0.890607
vt 0.883893 0.897929
vt 0.866215 0.890607
vt 0.858893 0.872929
vt 0.866215 0.855252
vt 0.883893 0.847929
vt 0.901571 0.855252
vt 0.908893 0.872929
vt 0.901571 0.890607
vt 0.866215 0.890607
vt 0.883893 0.897929
vt 0.858893 0.872929
vt 0.866215 0.855252
vt 0.883893 0.847929
vt 0.901571 0.855252
vt 0.908893 0.872929
vt 0.901571 0.890607
vt 0.044271 0.990577
vt 0.026593 0.983255
vt 0.019271 0.965577
vt 0.026593 0.947899
vt 0.044271 0.940577
vt 0.061949 0.947899
vt 0.069271 0.965577
vt 0.061949 0.983255
vt 0.026593 0.983255
vt 0.044271 0.990577
vt 0.019271 0.965577
vt 0.026593 0.947899
vt 0.044271 0.940577
vt 0.061949 0.947899
vt 0.069271 0.965577
vt 0.061949 0.983255
s 0
usemtl Palette
f 5/5/1 22/22/1 21/21/1 6/6/1
f 7/7/2 8/8/2 23/23/2 24/24/2
s 1
f 6/6/3 21/21/4 23/23/5 8/8/6
s 0
f 15/15/2 17/17/2 16/16/2 18/18/2 20/20/2 19/19/2 8/8/2 7/7/2
s 1
f 9/9/7 6/6/3 8/8/6 19/19/8
s 0
f 3/3/9 1/1/9 25/26/9 27/30/9
s 1
f 22/22/10 5/5/11 7/7/12 24/24/13
f 5/5/11 13/13/14 15/15/15 7/7/12
f 12/12/16 10/10/17 18/18/18 16/16/19
f 18/18/18 10/10/17 11/11/20 20/20/21
f 20/20/21 11/11/20 9/9/7 19/19/8
f 12/12/16 16/16/19 17/17/22 14/14/23
f 14/14/23 17/17/22 15/15/15 13/13/14
s 0
f 12/12/1 14/14/1 13/13/1 5/5/1 6/6/1 9/9/1 11/11/1 10/10/1
f 2/2/24 1/1/24 21/21/24 22/22/24
f 3/3/24 4/4/24 24/24/24 23/23/24
f 1/1/24 3/3/24 23/23/24 21/21/24
f 4/4/24 2/2/24 22/22/24 24/24/24
f 25/25/24 26/27/24 28/31/24 27/29/24
f 1/1/2 2/2/2 26/28/2 25/26/2
f 2/2/25 4/4/25 28/32/25 26/28/25
f 4/4/1 3/3/1 27/30/1 28/32/1
f 29/33/26 30/34/26 31/35/26 32/36/26 33/37/26 34/38/26 35/39/26 36/40/26
f 30/34/27 37/41/27 39/43/27 31/35/27
f 35/39/28 43/47/28 44/48/28 36/40/28
f 33/37/29 41/45/29 42/46/29 34/38/29
f 31/35/30 39/43/30 40/44/30 32/36/30
f 29/33/31 38/42/31 37/41/31 30/34/31
f 36/40/32 44/48/32 38/42/32 29/33/32
f 34/38/33 42/46/33 43/47/33 35/39/33
f 32/36/34 40/44/34 41/45/34 33/37/34
f 45/49/26 46/50/26 47/51/26 48/52/26 49/53/26 50/54/26 51/55/26 52/56/26
f 46/50/27 53/57/27 55/59/27 47/51/27
f 51/55/28 59/63/28 60/64/28 52/56/28
f 49/53/29 57/61/29 58/62/29 50/54/29
f 47/51/30 55/59/30 56/60/30 48/52/30
f 45/49/31 54/58/31 53/57/31 46/50/31
f 52/56/32 60/64/32 54/58/32 45/49/32
f 50/54/33 58/62/33 59/63/33 51/55/33
f 48/52/34 56/60/34 57/61/34 49/53/34
f 61/65/26 62/66/26 63/67/26 64/68/26 65/69/26 66/70/26 67/71/26 68/72/26
f 62/66/27 69/73/27 71/75/27 63/67/27
f 67/71/28 75/79/28 76/80/28 68/72/28
f 65/69/29 73/77/29 74/78/29 66/70/29
f 63/67/30 71/75/30 72/76/30 64/68/30
f 61/65/31 70/74/31 69/73/31 62/66/31
f 68/72/32 76/80/32 70/74/32 61/65/32
f 66/70/33 74/78/33 75/79/33 67/71/33
f 64/68/34 72/76/34 73/77/34 65/69/34
f 77/81/26 78/82/26 79/83/26 80/84/26 81/85/26 82/86/26 83/87/26 84/88/26
f 78/82/27 85/89/27 87/91/27 79/83/27
f 83/87/28 91/95/28 92/96/28 84/88/28
f 81/85/29 89/93/29 90/94/29 82/86/29
f 79/83/30 87/91/30 88/92/30 80/84/30
f 77/81/31 86/90/31 85/89/31 78/82/31
f 84/88/32 92/96/32 86/90/32 77/81/32
f 82/86/33 90/94/33 91/95/33 83/87/33
f 80/84/34 88/92/34 89/93/34 81/85/34
f 93/97/26 94/98/26 95/99/26 96/100/26 97/101/26 98/102/26 99/103/26 100/104/26
f 94/98/27 101/105/27 103/107/27 95/99/27
f 99/103/28 107/111/28 108/112/28 100/104/28
f 97/101/29 105/109/29 106/110/29 98/102/29
f 95/99/30 103/107/30 104/108/30 96/100/30
f 93/97/31 102/106/31 101/105/31 94/98/31
f 100/104/32 108/112/32 102/106/32 93/97/32
f 98/102/33 106/110/33 107/111/33 99/103/33
f 96/100/34 104/108/34 105/109/34 97/101/34
f 109/113/26 110/114/26 111/115/26 112/116/26 113/117/26 114/118/26 115/119/26 116/120/26
f 110/114/27 117/121/27 119/123/27 111/115/27
f 115/119/28 123/127/28 124/128/28 116/120/28
f 113/117/29 121/125/29 122/126/29 114/118/29
f 111/115/30 119/123/30 120/124/30 112/116/30
f 109/113/31 118/122/31 117/121/31 110/114/31
f 116/120/32 124/128/32 118/122/32 109/113/32
f 114/118/33 122/126/33 123/127/33 115/119/33
f 112/116/34 120/124/34 121/125/34 113/117/34
f 125/129/26 126/130/26 127/131/26 128/132/26 129/133/26 130/134/26 131/135/26 132/136/26
f 126/130/27 133/137/27 135/139/27 127/131/27
f 131/135/28 139/143/28 140/144/28 132/136/28
f 129/133/29 137/141/29 138/142/29 130/134/29
f 127/131/30 135/139/30 136/140/30 128/132/30
f 125/129/31 134/138/31 133/137/31 126/130/31
f 132/136/32 140/144/32 134/138/32 125/129/32
f 130/134/33 138/142/33 139/143/33 131/135/33
f 128/132/34 136/140/34 137/141/34 129/133/34
