# Blender 3.4.1
# www.blender.org
mtllib Window_Frame_1.mtl
o Window_Frame_1
v -0.699748 0.839818 0.138463
v -0.699748 2.160182 0.138463
v -0.699748 0.839818 -0.138463
v -0.699748 2.160182 -0.138463
v 0.699748 0.839818 0.138463
v 0.699748 2.160182 0.138463
v 0.699748 0.839818 -0.138463
v 0.699748 2.160182 -0.138463
v -0.600252 0.920182 -0.138463
v -0.600252 0.920182 0.138463
v -0.600252 2.079818 -0.138463
v 0.600253 0.920182 0.138463
v 0.600252 2.079818 0.138463
v -0.600252 2.079818 0.138463
v 0.600252 2.079818 -0.138463
v 0.600253 0.920182 -0.138463
vn -1.0000 -0.0000 -0.0000
vn 1.0000 -0.0000 -0.0000
vn -0.0000 1.0000 -0.0000
vn -0.0000 -0.0000 -1.0000
vn -0.0000 -0.0000 1.0000
vn -0.0000 -1.0000 -0.0000
vt 0.863690 0.690605
vt 0.877111 0.690605
vt 0.890531 0.730867
vt 0.863690 0.704026
vt 0.877111 0.704026
vt 0.890531 0.717446
vt 0.863690 0.730867
vt 0.877111 0.730867
vt 0.863690 0.717446
vt 0.877111 0.717446
vt 0.863690 0.704026
vt 0.863690 0.690605
vt 0.890531 0.717446
vt 0.877111 0.704026
vt 0.863690 0.730867
vt 0.877111 0.730867
vt 0.890531 0.730867
vt 0.877111 0.690605
vt 0.877111 0.717446
vt 0.863690 0.717446
s 0
usemtl Palette
f 1/1/1 2/2/1 4/5/1 3/4/1
f 7/9/2 8/10/2 6/8/2 5/7/2
f 8/10/3 4/6/3 2/3/3 6/8/3
f 7/9/4 16/20/4 15/19/4 8/10/4
f 4/5/4 11/14/4 9/11/4 3/4/4
f 1/1/5 10/12/5 14/18/5 2/2/5
f 6/8/5 13/16/5 12/15/5 5/7/5
f 8/10/4 15/19/4 11/13/4 4/6/4
f 2/3/5 14/17/5 13/16/5 6/8/5
f 3/4/6 7/9/6 5/7/6 1/1/6
f 16/20/4 7/9/4 3/4/4 9/11/4
f 10/12/5 1/1/5 5/7/5 12/15/5
f 10/12/2 9/11/2 11/14/2 14/18/2
f 11/14/6 15/19/6 13/16/6 14/18/6
f 16/20/1 12/15/1 13/16/1 15/19/1
f 16/20/3 9/11/3 10/12/3 12/15/3
