# Blender 3.4.1
# www.blender.org
mtllib Window_Frame_2.mtl
o Window_Frame_2
v -0.662319 0.839818 0.138463
v -0.662319 2.469859 0.138463
v -0.662319 0.839818 -0.138463
v -0.662319 2.469859 -0.138463
v 1.000000 0.839818 0.138463
v 1.000000 2.469859 0.138463
v 1.000000 0.839818 -0.138463
v 1.000000 2.469859 -0.138463
v -0.570286 0.920182 -0.138463
v -0.570286 0.920182 0.138463
v -0.570286 2.389495 -0.138463
v 1.000000 2.389495 -0.138463
v 1.000000 0.920182 -0.138463
v 1.000000 0.920182 0.138463
v 1.000000 2.389495 0.138463
v -0.570286 2.389495 0.138463
vn -1.0000 -0.0000 -0.0000
vn -0.0000 1.0000 -0.0000
vn -0.0000 -0.0000 -1.0000
vn -0.0000 -0.0000 1.0000
vn -0.0000 -1.0000 -0.0000
vn 1.0000 -0.0000 -0.0000
vt 0.863690 0.690605
vt 0.877111 0.690605
vt 0.890531 0.730867
vt 0.863690 0.704026
vt 0.877111 0.704026
vt 0.890531 0.717446
vt 0.863690 0.730867
vt 0.877111 0.730867
vt 0.863690 0.717446
vt 0.877111 0.717446
vt 0.863690 0.704026
vt 0.863690 0.690605
vt 0.890531 0.717446
vt 0.877111 0.704026
vt 0.877111 0.717446
vt 0.863690 0.717446
vt 0.863690 0.730867
vt 0.877111 0.730867
vt 0.890531 0.730867
vt 0.877111 0.690605
s 0
usemtl Palette
f 1/1/1 2/2/1 4/5/1 3/4/1
f 8/10/2 4/6/2 2/3/2 6/8/2
f 4/5/3 11/14/3 9/11/3 3/4/3
f 1/1/4 10/12/4 16/20/4 2/2/4
f 8/10/3 12/15/3 11/13/3 4/6/3
f 2/3/4 16/19/4 15/18/4 6/8/4
f 3/4/5 7/9/5 5/7/5 1/1/5
f 13/16/3 7/9/3 3/4/3 9/11/3
f 10/12/4 1/1/4 5/7/4 14/17/4
f 13/16/2 9/11/2 10/12/2 14/17/2
f 11/14/5 12/15/5 15/18/5 16/20/5
f 10/12/6 9/11/6 11/14/6 16/20/6
