# Blender 3.4.1
# www.blender.org
mtllib Wrench_2.mtl
o Wrench_2
v -0.089853 -0.008063 0.001640
v -0.092542 -0.008064 0.012541
v -0.094620 -0.008064 -0.021952
v -0.090963 -0.008064 -0.013058
v -0.089853 0.008793 0.001640
v -0.092542 0.008792 0.012541
v -0.094620 0.008792 -0.021952
v -0.090963 0.008792 -0.013058
v -0.105556 -0.006150 -0.031936
v -0.106726 -0.008064 -0.029473
v -0.110826 -0.006150 -0.007223
v -0.110480 -0.008064 -0.006789
v 0.123660 0.008787 -0.014634
v 0.124964 0.006878 -0.017302
v 0.147691 -0.006139 -0.023102
v 0.148586 -0.008054 -0.020764
v 0.123660 -0.008069 -0.014634
v 0.124964 -0.006150 -0.017302
v -0.069537 -0.008063 -0.014634
v -0.069307 -0.006150 -0.017302
v -0.089986 -0.008064 -0.018191
v -0.089034 -0.006150 -0.020733
v -0.099523 -0.008064 -0.023964
v -0.098018 -0.006150 -0.026171
v -0.116626 -0.008064 -0.031830
v -0.116743 -0.006150 -0.034600
v -0.126458 -0.008064 -0.028596
v -0.127733 -0.006150 -0.030984
v -0.137263 -0.008064 -0.020155
v -0.139210 -0.006150 -0.022019
v -0.140431 -0.008026 -0.012376
v -0.147787 -0.006150 -0.010011
v -0.121713 -0.008026 -0.017705
v -0.120388 -0.006150 -0.017811
v -0.114120 -0.008064 -0.013609
v -0.114766 -0.006150 -0.014593
v -0.109920 -0.008064 0.002713
v -0.110270 -0.006150 0.002563
v -0.112502 -0.008064 0.009422
v -0.112951 -0.006150 0.009416
v -0.133615 -0.008064 0.016154
v -0.139081 -0.006150 0.017686
v -0.125865 -0.008064 0.020767
v -0.126542 -0.006150 0.023390
v -0.113456 -0.008064 0.021738
v -0.110358 -0.006150 0.024656
v -0.094610 -0.008064 0.015749
v -0.097798 -0.006150 0.020694
v -0.091158 -0.008064 0.012905
v -0.088605 -0.006150 0.013576
v -0.074525 -0.008064 0.005967
v -0.071880 -0.006150 0.006714
v 0.131854 -0.008065 0.005893
v 0.125395 -0.006150 0.006714
v 0.148552 -0.008054 0.012265
v 0.147691 -0.006139 0.014688
v 0.158165 -0.008054 0.014872
v 0.158600 -0.006139 0.017611
v 0.158600 -0.006139 -0.026025
v 0.158150 -0.008054 -0.023368
v 0.139150 -0.006144 -0.019894
v 0.140628 -0.008058 -0.017746
v 0.139366 -0.006144 0.010393
v 0.140868 -0.008058 0.008277
v 0.140628 0.008798 -0.017746
v 0.139150 0.006883 -0.019894
v 0.169509 -0.006139 0.014688
v 0.167806 -0.008054 0.012318
v 0.174876 -0.008054 0.005272
v 0.177495 -0.006139 0.006702
v 0.177417 -0.008054 -0.004211
v 0.180418 -0.006139 -0.004207
v 0.174820 -0.008054 -0.013828
v 0.177495 -0.006139 -0.015116
v 0.167758 -0.008054 -0.020840
v 0.169509 -0.006139 -0.023102
v 0.143666 -0.008056 -0.013330
v 0.145086 -0.006141 -0.011268
v 0.143197 -0.006142 -0.004220
v 0.141171 -0.008056 -0.004169
v 0.150245 -0.006139 0.007497
v 0.149354 -0.008054 0.010007
v 0.157761 -0.008054 -0.021076
v 0.157293 -0.006139 -0.018316
v 0.169501 -0.006139 0.002338
v 0.172172 -0.008054 0.003796
v 0.166083 -0.008054 0.009921
v 0.164341 -0.006139 0.007497
v 0.143647 -0.008056 0.004364
v 0.145086 -0.006141 0.002338
v 0.157741 -0.008054 0.012201
v 0.157293 -0.006139 0.009386
v 0.171389 -0.006139 -0.004220
v 0.174477 -0.008054 -0.004215
v 0.150245 -0.006139 -0.016427
v 0.149306 -0.008054 -0.018882
v 0.172255 -0.008054 -0.012593
v 0.169501 -0.006139 -0.011268
v 0.164341 -0.006139 -0.016427
v 0.166150 -0.008054 -0.018763
v -0.069537 0.008792 -0.014634
v -0.069307 0.006878 -0.017302
v -0.089986 0.008792 -0.018191
v -0.089034 0.006878 -0.020733
v -0.098018 0.006878 -0.026171
v -0.099523 0.008792 -0.023964
v -0.106726 0.008792 -0.029473
v -0.105557 0.006878 -0.031936
v -0.116743 0.006878 -0.034600
v -0.116627 0.008792 -0.031830
v -0.127733 0.006878 -0.030984
v -0.126458 0.008792 -0.028596
v -0.139210 0.006878 -0.022019
v -0.137264 0.008792 -0.020155
v -0.147787 0.006878 -0.010011
v -0.140431 0.008830 -0.012376
v -0.120388 0.006878 -0.017811
v -0.121713 0.008830 -0.017705
v -0.114766 0.006878 -0.014593
v -0.114120 0.008792 -0.013609
v -0.110480 0.008792 -0.006789
v -0.110827 0.006878 -0.007222
v -0.110270 0.006878 0.002563
v -0.109920 0.008792 0.002713
v -0.112951 0.006878 0.009416
v -0.112502 0.008792 0.009422
v -0.139081 0.006878 0.017686
v -0.133616 0.008792 0.016154
v -0.126542 0.006878 0.023390
v -0.125865 0.008792 0.020767
v -0.110358 0.006878 0.024656
v -0.113457 0.008792 0.021738
v -0.097798 0.006878 0.020694
v -0.094610 0.008792 0.015749
v -0.088605 0.006878 0.013576
v -0.091159 0.008792 0.012905
v -0.071880 0.006878 0.006714
v -0.074526 0.008792 0.005967
v 0.125395 0.006878 0.006714
v 0.131853 0.008791 0.005893
v 0.140868 0.008798 0.008277
v 0.139365 0.006883 0.010394
v 0.147691 0.006888 0.014688
v 0.148552 0.008802 0.012265
v 0.158600 0.006888 0.017611
v 0.158165 0.008802 0.014872
v 0.148586 0.008802 -0.020764
v 0.147691 0.006888 -0.023102
v 0.158150 0.008802 -0.023368
v 0.158600 0.006888 -0.026025
v 0.177495 0.006888 0.006702
v 0.174876 0.008802 0.005272
v 0.167806 0.008802 0.012319
v 0.169509 0.006888 0.014688
v 0.180418 0.006888 -0.004207
v 0.177416 0.008802 -0.004211
v 0.177495 0.006888 -0.015116
v 0.174820 0.008802 -0.013828
v 0.169509 0.006888 -0.023102
v 0.167758 0.008802 -0.020840
v 0.145086 0.006886 -0.011268
v 0.143666 0.008800 -0.013330
v 0.141170 0.008799 -0.004169
v 0.143197 0.006885 -0.004220
v 0.157293 0.006888 -0.018316
v 0.157761 0.008802 -0.021076
v 0.149306 0.008802 -0.018882
v 0.150245 0.006888 -0.016427
v 0.164341 0.006888 0.007497
v 0.166083 0.008802 0.009921
v 0.172172 0.008802 0.003796
v 0.169501 0.006888 0.002338
v 0.145086 0.006886 0.002338
v 0.143646 0.008800 0.004364
v 0.149354 0.008802 0.010007
v 0.150245 0.006888 0.007497
v 0.157293 0.006888 0.009386
v 0.157740 0.008802 0.012201
v 0.174477 0.008802 -0.004215
v 0.171389 0.006888 -0.004220
v 0.169501 0.006888 -0.011268
v 0.172255 0.008802 -0.012593
v 0.166150 0.008802 -0.018763
v 0.164341 0.006888 -0.016427
vn 0.0760 -0.4677 -0.8806
vn 0.3069 -0.4839 -0.8195
vn 0.3068 0.4839 -0.8195
vn 0.0760 0.4680 -0.8804
vn 0.8928 -0.4504 -0.0000
vn 0.7754 -0.4480 -0.4449
vn 0.7754 0.4480 -0.4449
vn 0.8928 0.4504 -0.0000
vn -0.0005 1.0000 -0.0000
vn 0.9659 -0.0000 0.2588
vn 0.4528 -0.4402 -0.7754
vn 0.4528 0.4402 -0.7754
vn 0.7741 -0.4493 0.4460
vn 0.7741 0.4493 0.4460
vn 0.0056 -0.4281 -0.9037
vn 0.0056 0.4281 -0.9037
vn 0.0053 -0.4339 0.9009
vn 0.4507 -0.4446 0.7741
vn 0.4507 0.4446 0.7741
vn 0.0053 0.4339 0.9009
vn -0.3243 -0.4367 0.8392
vn -0.3244 0.4367 0.8390
vn -0.0767 -0.2337 0.9693
vn -0.3144 -0.4557 0.8328
vn -0.3149 0.4558 0.8325
vn -0.0768 0.2337 0.9693
vn -0.2756 -0.4370 -0.8562
vn -0.2758 0.4371 -0.8561
vn 0.0005 -1.0000 -0.0000
vn -0.8982 -0.4390 -0.0217
vn -0.2242 -0.4594 0.8595
vn -0.2242 0.4594 0.8595
vn -0.8982 0.4390 -0.0217
vn -0.8819 -0.0000 0.4714
vn -0.0000 -1.0000 -0.0000
vn -0.0379 -0.4343 -0.9000
vn -0.4229 -0.4403 -0.7920
vn -0.4229 0.4403 -0.7920
vn -0.0379 0.4343 -0.9000
vn 0.4993 -0.4634 -0.7321
vn 0.3856 -0.4379 -0.8121
vn 0.3856 0.4379 -0.8121
vn 0.4993 0.4634 -0.7320
vn -0.3017 -0.0000 -0.9534
vn 0.4459 -0.3758 0.8124
vn 0.1373 -0.2439 0.9600
vn 0.1373 0.2440 0.9600
vn 0.4459 0.3758 0.8124
vn -0.0018 -1.0000 -0.0025
vn -0.2331 -0.4482 -0.8630
vn -0.0900 -0.4522 -0.8874
vn -0.0903 0.4527 -0.8871
vn -0.2335 0.4484 -0.8628
vn -0.0000 1.0000 -0.0000
vn 0.0018 1.0000 0.0025
vn -0.0000 1.0000 0.0001
vn -0.0000 1.0000 0.0006
vn -0.0005 1.0000 -0.0029
vn 0.1173 -0.4818 0.8684
vn 0.3834 -0.4814 0.7882
vn 0.3834 0.4814 0.7882
vn 0.1173 0.4818 0.8684
vn -0.7071 -0.0000 -0.7071
vn -0.0000 1.0000 -0.0005
vn 0.2588 -0.0000 0.9659
vn 0.7071 -0.0000 -0.7071
vn -0.0000 -1.0000 -0.0001
vn -0.7071 -0.0000 0.7071
vn 0.0005 -1.0000 0.0029
vn -0.0000 -1.0000 -0.0006
vn -0.6375 -0.4781 -0.6041
vn -0.6381 0.4761 -0.6050
vn -0.7444 -0.4594 0.4846
vn -0.7444 0.4579 0.4860
vn 0.7071 -0.0000 0.7071
vn 0.2738 -0.0000 0.9618
vn -0.2588 -0.0000 0.9659
vn -0.9984 -0.0000 0.0568
vn -0.4967 -0.0000 0.8679
vn -0.9609 -0.0000 -0.2768
vn -0.9313 -0.0000 -0.3644
vn 0.2588 -0.0000 -0.9659
vn -0.9659 -0.0000 0.2588
vn -0.0000 -1.0000 0.0004
vn 0.9609 -0.0000 -0.2768
vn -0.2588 -0.0000 -0.9659
vn 0.1676 0.9551 -0.2442
vn 0.1125 0.9471 -0.3005
vn -0.0860 -0.9518 -0.2944
vn -0.0208 -0.9487 -0.3154
vn 0.0250 -0.9570 -0.2889
vn 0.1125 -0.9471 -0.3005
vn 0.1663 -0.9551 -0.2453
vn 0.1448 -0.9419 -0.3031
vn -0.0142 -0.9395 -0.3422
vn -0.1565 -0.9435 -0.2920
vn -0.2209 -0.9547 -0.1994
vn -0.0155 -0.8262 0.5631
vn 0.2712 -0.1376 0.9526
vn -0.4580 0.3205 0.8292
vn -0.9838 -0.1703 0.0570
vn -0.9125 -0.2049 -0.3542
vn -0.3015 -0.0874 -0.9495
vn -0.3684 -0.8195 -0.4390
vn -0.0831 -0.9485 0.3055
vn 0.0077 -0.9502 0.3114
vn 0.2164 -0.9264 0.3081
vn 0.1930 -0.9360 0.2943
vn 0.1144 -0.9168 0.3826
vn -0.0769 -0.9353 0.3453
vn -0.1107 -0.9544 0.2774
vn -0.1210 -0.9426 0.3111
vn -0.0095 -0.9385 0.3452
vn -0.8808 -0.0542 0.4704
vn -0.1007 -0.9439 -0.3144
vn -0.0103 -0.9356 -0.3530
vn 0.0249 0.9570 -0.2891
vn 0.1600 -0.9439 0.2889
vn 0.2792 -0.9463 0.1628
vn 0.3216 -0.9469 -0.0002
vn 0.2794 -0.9456 -0.1665
vn 0.1611 -0.9417 -0.2954
vn -0.0210 0.9488 -0.3153
vn 0.7896 -0.4412 0.4265
vn 0.9070 -0.4210 -0.0071
vn 0.3126 -0.9499 -0.0032
vn 0.2414 -0.9577 0.1569
vn 0.0077 -0.4978 0.8673
vn 0.4440 -0.4830 0.7547
vn 0.1268 -0.9646 0.2312
vn -0.0061 -0.9679 0.2513
vn -0.4245 -0.5153 -0.7445
vn -0.7353 -0.5195 -0.4353
vn -0.2030 -0.9720 -0.1184
vn -0.1218 -0.9713 -0.2042
vn 0.7844 -0.4418 -0.4354
vn 0.4453 -0.4847 -0.7529
vn 0.1255 -0.9651 -0.2297
vn 0.2423 -0.9571 -0.1588
vn 0.0077 -0.5024 -0.8646
vn -0.0053 -0.9688 -0.2476
vn -0.8506 -0.5258 -0.0087
vn -0.2291 -0.9734 -0.0021
vn -0.7374 -0.5213 0.4295
vn -0.4242 -0.5118 0.7470
vn -0.1242 -0.9707 0.2057
vn -0.2030 -0.9725 0.1142
vn -0.0867 0.9518 -0.2943
vn -0.0146 0.9387 -0.3445
vn 0.1442 0.9412 -0.3056
vn -0.1568 0.9427 -0.2945
vn -0.2233 0.9531 -0.2041
vn -0.0193 0.8269 0.5620
vn 0.2714 0.1324 0.9533
vn -0.4603 -0.3149 0.8301
vn -0.9838 0.1702 0.0570
vn -0.9125 0.2049 -0.3542
vn -0.3015 0.0874 -0.9495
vn -0.0831 0.9485 0.3055
vn -0.3684 0.8195 -0.4390
vn 0.0077 0.9502 0.3114
vn 0.2164 0.9264 0.3081
vn 0.1930 0.9360 0.2943
vn 0.1144 0.9166 0.3832
vn -0.0773 0.9353 0.3454
vn -0.1215 0.9426 0.3110
vn -0.1114 0.9543 0.2774
vn -0.0095 0.9385 0.3452
vn -0.8808 0.0542 0.4704
vn -0.1012 0.9439 -0.3143
vn -0.0103 0.9356 -0.3530
vn 0.2792 0.9463 0.1628
vn 0.1600 0.9439 0.2889
vn 0.3216 0.9469 -0.0002
vn 0.2794 0.9456 -0.1665
vn 0.1611 0.9417 -0.2954
vn 0.2409 0.9578 0.1566
vn 0.3125 0.9499 -0.0031
vn 0.9070 0.4211 -0.0071
vn 0.7895 0.4413 0.4266
vn -0.0061 0.9679 0.2513
vn 0.1263 0.9647 0.2313
vn 0.4438 0.4831 0.7547
vn 0.0077 0.4978 0.8673
vn -0.1218 0.9713 -0.2042
vn -0.2030 0.9720 -0.1184
vn -0.7353 0.5195 -0.4353
vn -0.4245 0.5152 -0.7445
vn 0.2418 0.9573 -0.1584
vn 0.1251 0.9652 -0.2297
vn 0.4451 0.4849 -0.7529
vn 0.7842 0.4419 -0.4355
vn -0.0053 0.9688 -0.2476
vn 0.0077 0.5024 -0.8646
vn -0.2291 0.9734 -0.0021
vn -0.8506 0.5258 -0.0087
vn -0.2030 0.9725 0.1142
vn -0.1242 0.9707 0.2057
vn -0.4242 0.5118 0.7470
vn -0.7374 0.5213 0.4295
vt 0.221354 0.800213
vt 0.221354 0.800213
vt 0.221354 0.800213
vt 0.221354 0.800213
vt 0.221354 0.800213
vt 0.221354 0.800213
vt 0.221354 0.800213
vt 0.221354 0.800213
vt 0.221354 0.800213
vt 0.221354 0.800213
vt 0.221354 0.800213
vt 0.221354 0.800213
vt 0.221354 0.800213
vt 0.221354 0.800213
vt 0.221354 0.800213
vt 0.221354 0.800213
vt 0.221354 0.800213
vt 0.221354 0.800213
vt 0.221354 0.800213
vt 0.221354 0.800213
vt 0.221354 0.800213
vt 0.221354 0.800213
vt 0.221354 0.800213
vt 0.221354 0.800213
vt 0.221354 0.800213
vt 0.221354 0.800213
vt 0.221354 0.800213
vt 0.221354 0.800213
vt 0.221354 0.800213
vt 0.221354 0.800213
vt 0.221354 0.800213
vt 0.221354 0.800213
vt 0.221354 0.800213
vt 0.221354 0.800213
vt 0.221354 0.800213
vt 0.221354 0.800213
vt 0.221354 0.800213
vt 0.221354 0.800213
vt 0.221354 0.800213
vt 0.221354 0.800213
vt 0.221354 0.800213
vt 0.221354 0.800213
vt 0.221354 0.800213
vt 0.221354 0.800213
vt 0.221354 0.800213
vt 0.221354 0.800213
vt 0.221354 0.800213
vt 0.221354 0.800213
vt 0.221354 0.800213
vt 0.221354 0.800213
vt 0.221354 0.800213
vt 0.221354 0.800213
vt 0.221354 0.800213
vt 0.221354 0.800213
vt 0.221354 0.800213
vt 0.221354 0.800213
vt 0.221354 0.800213
vt 0.221354 0.800213
vt 0.221354 0.800213
vt 0.221354 0.800213
vt 0.221354 0.800213
vt 0.221354 0.800213
vt 0.221354 0.800213
vt 0.221354 0.800213
vt 0.221354 0.800213
vt 0.221354 0.800213
vt 0.221354 0.800213
vt 0.221354 0.800213
vt 0.221354 0.800213
vt 0.221354 0.800213
vt 0.221354 0.800213
vt 0.221354 0.800213
vt 0.221354 0.800213
vt 0.221354 0.800213
vt 0.221354 0.800213
vt 0.221354 0.800213
vt 0.221354 0.800213
vt 0.221354 0.800213
vt 0.221354 0.800213
vt 0.221354 0.800213
vt 0.221354 0.800213
vt 0.221354 0.800213
vt 0.221354 0.800213
vt 0.221354 0.800213
vt 0.221354 0.800213
vt 0.221354 0.800213
vt 0.221354 0.800213
vt 0.221354 0.800213
vt 0.221354 0.800213
vt 0.221354 0.800213
vt 0.221354 0.800213
vt 0.221354 0.800213
vt 0.221354 0.800213
vt 0.221354 0.800213
vt 0.221354 0.800213
vt 0.221354 0.800213
vt 0.221354 0.800213
vt 0.221354 0.800213
vt 0.221354 0.800213
vt 0.221354 0.800213
vt 0.221354 0.800213
vt 0.221354 0.800213
vt 0.221354 0.800213
vt 0.221354 0.800213
vt 0.221354 0.800213
vt 0.221354 0.800213
vt 0.221354 0.800213
vt 0.221354 0.800213
vt 0.221354 0.800213
vt 0.221354 0.800213
vt 0.221354 0.800213
vt 0.221354 0.800213
vt 0.221354 0.800213
vt 0.221354 0.800213
vt 0.221354 0.800213
vt 0.221354 0.800213
vt 0.221354 0.800213
vt 0.221354 0.800213
vt 0.221354 0.800213
vt 0.221354 0.800213
vt 0.221354 0.800213
vt 0.221354 0.800213
vt 0.221354 0.800213
vt 0.221354 0.800213
vt 0.221354 0.800213
vt 0.221354 0.800213
vt 0.221354 0.800213
vt 0.221354 0.800213
vt 0.221354 0.800213
vt 0.221354 0.800213
vt 0.221354 0.800213
vt 0.221354 0.800213
vt 0.221354 0.800213
vt 0.221354 0.800213
vt 0.221354 0.800213
vt 0.221354 0.800213
vt 0.221354 0.800213
vt 0.221354 0.800213
vt 0.221354 0.800213
vt 0.221354 0.800213
vt 0.221354 0.800213
vt 0.221354 0.800213
vt 0.221354 0.800213
vt 0.221354 0.800213
vt 0.221354 0.800213
vt 0.221354 0.800213
vt 0.221354 0.800213
vt 0.221354 0.800213
vt 0.221354 0.800213
vt 0.221354 0.800213
vt 0.221354 0.800213
vt 0.221354 0.800213
vt 0.221354 0.800213
vt 0.221354 0.800213
vt 0.221354 0.800213
vt 0.221354 0.800213
vt 0.221354 0.800213
vt 0.221354 0.800213
vt 0.221354 0.800213
vt 0.221354 0.800213
vt 0.221354 0.800213
vt 0.221354 0.800213
vt 0.221354 0.800213
vt 0.221354 0.800213
vt 0.221354 0.800213
vt 0.221354 0.800213
vt 0.221354 0.800213
vt 0.221354 0.800213
vt 0.221354 0.800213
vt 0.221354 0.800213
vt 0.221354 0.800213
vt 0.221354 0.800213
vt 0.221354 0.800213
vt 0.221354 0.800213
vt 0.221354 0.800213
vt 0.221354 0.800213
vt 0.221354 0.800213
vt 0.221354 0.800213
vt 0.221354 0.800213
vt 0.221354 0.800213
vt 0.221354 0.800213
vt 0.221354 0.800213
vt 0.221354 0.800213
vt 0.221354 0.800213
s 1
usemtl Palette
f 20/20/1 22/22/2 104/104/3 102/102/4
f 72/72/5 74/74/6 157/157/7 155/155/8
s 0
f 65/65/9 162/162/9 167/167/9 147/147/9
f 79/79/10 78/78/10 161/161/10 164/164/10
s 1
f 74/74/6 76/76/11 159/159/12 157/157/7
f 70/70/13 72/72/5 155/155/8 151/151/14
f 76/76/11 59/59/15 150/150/16 159/159/12
f 58/58/17 67/67/18 154/154/19 145/145/20
f 56/56/21 58/58/17 145/145/20 143/143/22
f 54/54/23 63/63/24 142/142/25 139/139/26
f 59/59/15 15/15/27 148/148/28 150/150/16
s 0
f 62/62/29 16/16/29 96/96/29 77/77/29
s 1
f 42/42/30 44/44/31 129/129/32 127/127/33
s 0
f 36/36/34 11/11/34 122/122/34 119/119/34
f 1/1/35 37/37/35 12/12/35 4/4/35
s 1
f 26/26/36 28/28/37 111/111/38 109/109/39
f 24/24/40 9/9/41 108/108/42 105/105/43
s 0
f 40/40/44 42/42/44 127/127/44 125/125/44
s 1
f 50/50/45 52/52/46 137/137/47 135/135/48
f 52/52/46 54/54/23 139/139/26 137/137/47
s 0
f 35/35/49 33/33/49 23/23/49 3/3/49
s 1
f 22/22/2 24/24/40 105/105/43 104/104/3
f 61/61/50 18/18/51 14/14/52 66/66/53
s 0
f 158/158/54 182/182/54 179/179/54 156/156/54
f 152/152/54 171/171/54 170/170/54 153/153/54
f 160/160/54 183/183/54 182/182/54 158/158/54
f 156/156/54 179/179/54 171/171/54 152/152/54
f 147/147/54 167/167/54 166/166/54 149/149/54
f 153/153/54 170/170/54 178/178/54 146/146/54
f 146/146/54 178/178/54 175/175/54 144/144/54
f 144/144/9 175/175/9 174/174/9 141/141/9
s 1
f 67/67/18 70/70/13 151/151/14 154/154/19
s 0
f 149/149/54 166/166/54 183/183/54 160/160/54
f 136/136/54 6/6/54 134/134/54
f 126/126/54 6/6/54 5/5/54 124/124/54
f 5/5/54 8/8/54 121/121/54 124/124/54
f 121/121/54 8/8/54 7/7/54 120/120/54
f 120/120/55 7/7/55 106/106/55 118/118/55
f 134/134/54 6/6/54 126/126/54 128/128/54 130/130/54 132/132/54
f 138/138/56 5/5/56 6/6/56 136/136/56
f 141/141/57 174/174/57 163/163/57 5/5/57 138/138/57 140/140/57
f 118/118/58 106/106/58 107/107/58 110/110/58 112/112/58 114/114/58 116/116/58
f 7/7/35 103/103/35 106/106/35
f 8/8/54 101/101/54 103/103/54 7/7/54
s 1
f 15/15/27 61/61/50 66/66/53 148/148/28
s 0
f 71/71/35 69/69/35 86/86/35 94/94/35
s 1
f 46/46/59 48/48/60 133/133/61 131/131/62
s 0
f 85/85/63 88/88/63 169/169/63 172/172/63
f 13/13/64 101/101/64 8/8/64 5/5/64 163/163/64 162/162/64 65/65/64
f 73/73/35 71/71/35 94/94/35 97/97/35
s 1
f 48/48/60 50/50/45 135/135/48 133/133/61
s 0
f 95/95/65 84/84/65 165/165/65 168/168/65
f 4/4/35 3/3/35 21/21/35 19/19/35
f 75/75/35 73/73/35 97/97/35 100/100/35
f 49/49/35 47/47/35 2/2/35
f 81/81/66 90/90/66 173/173/66 176/176/66
f 3/3/54 23/23/54 21/21/54
f 60/60/35 75/75/35 100/100/35 83/83/35
f 51/51/67 49/49/67 2/2/67 1/1/67
f 99/99/68 98/98/68 181/181/68 184/184/68
f 68/68/35 57/57/35 91/91/35 87/87/35
f 33/33/69 31/31/69 29/29/69 27/27/69 25/25/69 10/10/69 23/23/69
s 1
f 63/63/24 56/56/21 143/143/22 142/142/25
s 0
f 64/64/70 53/53/70 51/51/70 1/1/70 80/80/70 89/89/70
s 1
f 28/28/37 30/30/71 113/113/72 111/111/38
s 0
f 55/55/29 64/64/29 89/89/29 82/82/29
s 1
f 30/30/71 32/32/73 115/115/74 113/113/72
s 0
f 78/78/75 95/95/75 168/168/75 161/161/75
f 57/57/35 55/55/35 82/82/35 91/91/35
f 32/32/76 34/34/76 117/117/76 115/115/76
f 84/84/77 99/99/77 184/184/77 165/165/77
f 11/11/78 38/38/78 123/123/78 122/122/78
f 34/34/79 36/36/79 119/119/79 117/117/79
f 93/93/80 85/85/80 172/172/80 180/180/80
s 1
f 18/18/51 20/20/1 102/102/4 14/14/52
s 0
f 38/38/81 40/40/81 125/125/81 123/123/81
f 92/92/82 81/81/82 176/176/82 177/177/82
f 16/16/35 60/60/35 83/83/35 96/96/35
f 12/12/35 35/35/35 3/3/35 4/4/35
f 98/98/83 93/93/83 180/180/83 181/181/83
f 17/17/84 62/62/84 77/77/84 80/80/84 1/1/84 4/4/84 19/19/84
f 39/39/35 37/37/35 1/1/35 2/2/35
f 90/90/85 79/79/85 164/164/85 173/173/85
f 47/47/35 45/45/35 43/43/35 41/41/35 39/39/35 2/2/35
f 88/88/86 92/92/86 177/177/86 169/169/86
f 69/69/35 68/68/35 87/87/35 86/86/35
s 1
f 44/44/31 46/46/59 131/131/62 129/129/32
f 104/104/3 105/105/43 106/106/87 103/103/88
f 62/62/89 17/17/90 18/18/51 61/61/50
f 17/17/90 19/19/91 20/20/1 18/18/51
f 19/19/91 21/21/92 22/22/2 20/20/1
f 21/21/92 23/23/93 24/24/40 22/22/2
f 10/10/94 25/25/95 26/26/36 9/9/41
f 25/25/95 27/27/96 28/28/37 26/26/36
f 27/27/96 29/29/97 30/30/71 28/28/37
f 29/29/97 31/31/98 32/32/73 30/30/71
s 0
f 31/31/99 33/33/99 34/34/99 32/32/99
f 33/33/100 35/35/100 36/36/100 34/34/100
f 12/12/101 37/37/101 38/38/101 11/11/101
f 37/37/102 39/39/102 40/40/102 38/38/102
f 39/39/103 41/41/103 42/42/103 40/40/103
s 1
f 41/41/104 43/43/105 44/44/31 42/42/30
f 43/43/105 45/45/106 46/46/59 44/44/31
f 45/45/106 47/47/107 48/48/60 46/46/59
f 47/47/107 49/49/108 50/50/45 48/48/60
f 49/49/108 51/51/109 52/52/46 50/50/45
f 51/51/109 53/53/110 54/54/23 52/52/46
f 64/64/111 55/55/112 56/56/21 63/63/24
f 55/55/112 57/57/113 58/58/17 56/56/21
f 23/23/93 10/10/94 9/9/41 24/24/40
s 0
f 35/35/114 12/12/114 11/11/114 36/36/114
s 1
f 16/16/115 62/62/89 61/61/50 15/15/27
f 15/15/27 59/59/15 60/60/116 16/16/115
f 102/102/4 104/104/3 103/103/88 101/101/117
f 70/70/13 67/67/18 68/68/118 69/69/119
f 72/72/5 70/70/13 69/69/119 71/71/120
f 74/74/6 72/72/5 71/71/120 73/73/121
f 76/76/11 74/74/6 73/73/121 75/75/122
f 59/59/15 76/76/11 75/75/122 60/60/116
f 53/53/110 64/64/111 63/63/24 54/54/23
f 14/14/52 102/102/4 101/101/117 13/13/123
f 78/78/124 79/79/125 80/80/126 77/77/127
f 84/84/128 95/95/129 96/96/130 83/83/131
f 88/88/132 85/85/133 86/86/134 87/87/135
f 90/90/136 81/81/137 82/82/138 89/89/139
f 92/92/140 88/88/132 87/87/135 91/91/141
f 95/95/129 78/78/124 77/77/127 96/96/130
f 85/85/133 93/93/142 94/94/143 86/86/134
f 98/98/144 99/99/145 100/100/146 97/97/147
f 99/99/145 84/84/128 83/83/131 100/100/146
f 81/81/137 92/92/140 91/91/141 82/82/138
f 79/79/125 90/90/136 89/89/139 80/80/126
f 93/93/142 98/98/144 97/97/147 94/94/143
f 66/66/53 14/14/52 13/13/123 65/65/148
f 67/67/18 58/58/17 57/57/113 68/68/118
f 108/108/42 109/109/39 110/110/149 107/107/150
f 109/109/39 111/111/38 112/112/151 110/110/149
f 111/111/38 113/113/72 114/114/152 112/112/151
f 113/113/72 115/115/74 116/116/153 114/114/152
s 0
f 115/115/154 117/117/154 118/118/154 116/116/154
f 117/117/155 119/119/155 120/120/155 118/118/155
f 122/122/156 123/123/156 124/124/156 121/121/156
f 123/123/157 125/125/157 126/126/157 124/124/157
f 125/125/158 127/127/158 128/128/158 126/126/158
s 1
f 127/127/33 129/129/32 130/130/159 128/128/160
f 129/129/32 131/131/62 132/132/161 130/130/159
f 131/131/62 133/133/61 134/134/162 132/132/161
f 133/133/61 135/135/48 136/136/163 134/134/162
f 135/135/48 137/137/47 138/138/164 136/136/163
f 137/137/47 139/139/26 140/140/165 138/138/164
f 142/142/25 143/143/22 144/144/166 141/141/167
f 143/143/22 145/145/20 146/146/168 144/144/166
f 105/105/43 108/108/42 107/107/150 106/106/87
s 0
f 119/119/169 122/122/169 121/121/169 120/120/169
s 1
f 148/148/28 66/66/53 65/65/148 147/147/170
f 147/147/170 149/149/171 150/150/16 148/148/28
f 152/152/172 153/153/173 154/154/19 151/151/14
f 156/156/174 152/152/172 151/151/14 155/155/8
f 158/158/175 156/156/174 155/155/8 157/157/7
f 160/160/176 158/158/175 157/157/7 159/159/12
f 149/149/171 160/160/176 159/159/12 150/150/16
f 139/139/26 142/142/25 141/141/167 140/140/165
f 162/162/177 163/163/178 164/164/179 161/161/180
f 166/166/181 167/167/182 168/168/183 165/165/184
f 170/170/185 171/171/186 172/172/187 169/169/188
f 174/174/189 175/175/190 176/176/191 173/173/192
f 178/178/193 170/170/185 169/169/188 177/177/194
f 167/167/182 162/162/177 161/161/180 168/168/183
f 171/171/186 179/179/195 180/180/196 172/172/187
f 182/182/197 183/183/198 184/184/199 181/181/200
f 183/183/198 166/166/181 165/165/184 184/184/199
f 175/175/190 178/178/193 177/177/194 176/176/191
f 163/163/178 174/174/189 173/173/192 164/164/179
f 179/179/195 182/182/197 181/181/200 180/180/196
f 153/153/173 146/146/168 145/145/20 154/154/19
f 9/9/41 26/26/36 109/109/39 108/108/42
